<svg width="152" height="120" viewBox="0 0 152 120" fill="none" xmlns="http://www.w3.org/2000/svg">
<g id="available now logo" clip-path="url(#clip0)">
<path id="Vector" d="M145.059 50.1412C138.448 24.1429 115.602 5.37568 88.7871 4.62295C74.6106 4.225 59.693 8.9267 48.8319 25.3797C29.4165 54.7911 50.0251 75.1153 64.3928 84.773C71.3341 89.4482 77.5887 95.0698 82.9752 101.475C92.6802 112.991 111.35 127.302 133.585 104.879C149.702 88.6272 149.463 67.4587 145.059 50.1412Z" fill="#F2F2F2"/>
<path id="Vector_2" d="M61.8336 119.945C66.4769 118.736 70.9414 117.708 75.227 116.86L73.5802 111.355C74.1532 111.037 76.6332 114.223 76.6332 114.223L74.5427 98.2996C77.4061 98.9382 78.7327 115.179 78.7327 115.179L81.9816 109.768L80.3802 115.896C93.494 113.606 104.809 112.895 114.321 113.066L112.911 108.354C113.484 108.035 115.964 111.221 115.964 111.221L113.874 95.2983C116.737 95.9369 118.064 112.178 118.064 112.178L121.312 106.766L119.616 113.257C127.588 113.695 134.082 114.742 139.093 115.885C137.688 108.562 132.771 101.519 132.771 101.519C136.554 103.485 138.52 106.685 139.538 109.651C139.691 100.649 139.292 83.9451 135.465 65.3786C135.465 65.3786 143.085 94.0423 141.928 113.148L141.78 116.541C148.423 118.274 151.756 120 151.756 120L61.8336 119.945Z" fill="#3F3D56"/>
<path id="Vector_3" d="M90.619 115.524C90.5867 115.471 89.8248 114.199 89.5606 111.557C89.3183 109.134 89.4741 105.048 91.5928 99.3497C95.6066 88.5541 90.6678 79.8435 90.6174 79.7568L90.861 79.6154C90.8738 79.6374 92.1482 81.8583 92.901 85.3946C93.8958 90.0831 93.5336 94.9579 91.8568 99.4479C87.8499 110.225 90.8288 115.327 90.8594 115.377L90.619 115.524Z" fill="#3F3D56"/>
<path id="Vector_4" d="M89.0495 79.1228C90.0605 79.1228 90.88 78.3033 90.88 77.2924C90.88 76.2814 90.0605 75.4619 89.0495 75.4619C88.0386 75.4619 87.2191 76.2814 87.2191 77.2924C87.2191 78.3033 88.0386 79.1228 89.0495 79.1228Z" fill="#6B29F8"/>
<path id="Vector_5" d="M94.8225 85.8815C95.8335 85.8815 96.653 85.062 96.653 84.051C96.653 83.0401 95.8335 82.2206 94.8225 82.2206C93.8116 82.2206 92.9921 83.0401 92.9921 84.051C92.9921 85.062 93.8116 85.8815 94.8225 85.8815Z" fill="#3F3D56"/>
<path id="Vector_6" d="M90.88 90.3873C91.8909 90.3873 92.7104 89.5678 92.7104 88.5568C92.7104 87.5459 91.8909 86.7264 90.88 86.7264C89.869 86.7264 89.0495 87.5459 89.0495 88.5568C89.0495 89.5678 89.869 90.3873 90.88 90.3873Z" fill="#6B29F8"/>
<path id="Vector_7" d="M95.6674 94.189C96.6783 94.189 97.4979 93.3695 97.4979 92.3585C97.4979 91.3476 96.6783 90.5281 95.6674 90.5281C94.6564 90.5281 93.8369 91.3476 93.8369 92.3585C93.8369 93.3695 94.6564 94.189 95.6674 94.189Z" fill="#6B29F8"/>
<path id="Vector_8" d="M89.4719 100.103C90.4829 100.103 91.3024 99.2833 91.3024 98.2724C91.3024 97.2615 90.4829 96.442 89.4719 96.442C88.461 96.442 87.6415 97.2615 87.6415 98.2724C87.6415 99.2833 88.461 100.103 89.4719 100.103Z" fill="#3F3D56"/>
<path id="Vector_9" d="M91.7248 115.591C91.7248 115.591 89.8944 111.086 95.3858 107.706L91.7248 115.591Z" fill="#3F3D56"/>
<path id="Vector_10" d="M89.4736 115.51C89.4736 115.51 88.6406 110.718 82.1928 110.759L89.4736 115.51Z" fill="#3F3D56"/>
<path id="Vector_11" d="M117.505 39.6075C114.007 39.6075 111.172 42.7543 111.172 46.636V51.5677H112.688L113.567 49.7404L113.347 51.5677H123.096L123.895 49.9066L123.695 51.5677H124.793V47.6954C124.793 43.2286 121.53 39.6075 117.505 39.6075Z" fill="#2F2E41"/>
<path id="Vector_12" d="M111.556 62.4087L110.504 66.4409L120.322 66.0903L120.147 62.7593C120.147 62.7593 112.783 60.8308 111.556 62.4087Z" fill="#A0616A"/>
<path id="Vector_13" d="M102.089 78.5377L105.245 85.5504L108.225 81.8687L105.771 76.9599L102.089 78.5377Z" fill="#A0616A"/>
<path id="Vector_14" d="M109.978 104.309L110.329 112.374H114.186L113.66 104.309H109.978Z" fill="#A0616A"/>
<path id="Vector_15" d="M105.42 71.1745L107.173 76.9599L109.803 105.011C109.803 105.011 112.257 105.712 114.011 104.835L114.361 100.978L115.063 78.8884C115.063 78.8884 118.394 77.1352 118.043 74.6808C117.692 72.2264 116.816 68.8954 116.816 68.8954L105.42 71.1745Z" fill="#2F2E41"/>
<path id="Vector_16" d="M110.855 110.445H109.803C109.803 110.445 106.823 113.601 105.771 113.952C104.719 114.302 99.2841 117.283 103.667 117.809C108.05 118.334 110.855 116.055 110.855 116.055C110.855 116.055 112.257 116.932 114.186 116.231C116.114 115.529 115.063 113.426 115.063 113.426C115.063 113.426 114.084 110.219 114.047 110.245C114.011 110.27 112.959 111.848 110.855 110.445Z" fill="#2F2E41"/>
<path id="Vector_17" d="M116.29 50.4871C118.517 50.4871 120.322 48.6818 120.322 46.4549C120.322 44.2279 118.517 42.4226 116.29 42.4226C114.063 42.4226 112.257 44.2279 112.257 46.4549C112.257 48.6818 114.063 50.4871 116.29 50.4871Z" fill="#A0616A"/>
<path id="Vector_18" d="M122.251 51.7144L120.396 53.2607L120.147 53.4675L119.971 55.5713H113.134C113.134 55.5713 114.067 54.7631 114.933 53.9269C114.95 53.9076 114.97 53.8865 114.991 53.8672C115.108 53.7533 115.213 53.6481 115.308 53.5534C115.359 53.5008 115.408 53.4517 115.452 53.4062C115.524 53.3308 115.594 53.2589 115.664 53.187C115.665 53.1861 115.665 53.1848 115.666 53.1835C115.845 52.9957 116.014 52.7979 116.171 52.591L116.172 52.5892C116.214 52.5334 116.254 52.4755 116.29 52.4156C116.816 51.5391 115.588 49.7859 115.588 49.7859L119.445 47.8574C119.58 49.7578 121.188 51.0271 121.907 51.504C122.117 51.6425 122.251 51.7144 122.251 51.7144Z" fill="#A0616A"/>
<path id="Vector_19" d="M131.718 81.1675C129.088 81.8687 128.912 76.6093 128.912 76.6093L125.323 69.4309C124.565 67.914 124.043 66.29 123.777 64.6152L122.952 59.4283L122.701 59.7281V59.7298L122.25 59.9542L119.512 55.5713L118.744 54.3441V52.9416L121.374 51.7144H122.426C122.426 51.7144 122.449 51.7109 122.489 51.7073C122.973 51.6565 126.121 51.4461 126.283 54.5194C126.346 55.7256 126.341 56.7249 126.308 57.509C126.208 59.6782 126.414 61.8507 126.919 63.9625C127.105 64.724 127.307 65.3853 127.51 65.7397C128.211 66.9669 130.666 76.6093 130.666 76.6093C130.666 76.6093 134.347 80.4662 131.718 81.1675Z" fill="#A0616A"/>
<path id="Vector_20" d="M115.589 53.6428L114.924 54.8543L114.531 55.5713L112.608 59.0776C112.608 59.0776 112.063 59.5229 111.179 60.098C109.71 61.0534 107.301 62.3648 104.894 62.584C101.037 62.9346 104.719 50.4872 104.719 50.4872C104.719 50.4872 105.946 45.5783 107.699 46.1043C109.452 46.6302 108.05 48.3834 106.823 51.7144C105.595 55.0454 106.647 58.727 106.647 58.727C106.647 58.727 110.329 56.4479 112.258 54.6947C113.262 53.7813 114.125 53.5341 114.719 53.5078H114.721C114.918 53.497 115.115 53.5124 115.308 53.5534C115.405 53.5727 115.499 53.6027 115.589 53.6428Z" fill="#A0616A"/>
<path id="Vector_21" d="M116.171 52.5909C116.164 52.6102 116.081 52.7663 115.452 53.4062C115.709 53.1501 115.949 52.8778 116.171 52.5909Z" fill="#D0CDE1"/>
<path id="Vector_22" d="M122.864 59.5159L122.701 59.7298L120.147 64.1618C120.147 64.1618 116.816 62.9346 114.361 62.5839C113.687 62.4676 112.993 62.555 112.369 62.8352C111.745 63.1153 111.218 63.5754 110.857 64.1565L111.556 61.3567L111.179 60.098C111.135 59.9507 111.085 59.7877 111.03 59.6036C110.504 57.8504 112.433 55.9219 112.433 55.9219L114.719 53.5078H114.721C114.918 53.497 115.115 53.5123 115.308 53.5534C115.213 53.6481 115.108 53.7533 114.991 53.8672C114.97 53.8865 114.95 53.9076 114.933 53.9268C114.261 54.6123 114.61 54.8034 114.924 54.8543C115.028 54.8702 115.133 54.8755 115.238 54.87C115.969 54.9752 117.57 54.3336 118.744 53.7971C119.544 53.4324 120.147 53.1169 120.147 53.1169L121.677 51.7143L121.907 51.504C122.117 51.6425 122.25 51.7143 122.25 51.7143H122.426C122.426 51.7143 122.449 51.7108 122.489 51.7073L121.691 52.2997C121.293 52.5946 120.976 52.9843 120.767 53.4332C120.559 53.8821 120.466 54.3761 120.497 54.87L122.864 59.5159Z" fill="#D0CDE1"/>
<path id="Vector_23" d="M113.309 64.5124L110.746 65.5133C110.746 65.5133 96.8297 60.1295 94.7259 64.5124C92.6221 68.8954 102.089 79.4143 102.089 79.4143L106.297 77.4859L104.544 72.2264C104.544 72.2264 114.712 80.8169 118.919 76.0833C123.127 71.3498 120.322 64.6567 120.322 64.6567C120.322 64.6567 117.692 62.584 113.309 64.5124Z" fill="#2F2E41"/>
<path id="Vector_24" d="M105.946 83.6219L104.368 84.8491C104.368 84.8491 105.771 90.4592 105.245 91.3358C104.719 92.2124 103.667 94.6668 105.596 94.4915C107.524 94.3162 109.628 91.3358 109.803 90.2839C109.978 89.232 111.206 86.0763 111.206 86.0763C111.206 86.0763 113.309 81.1675 111.732 80.9922C110.154 80.8169 107.641 80.6995 107.641 80.6995L105.946 83.6219Z" fill="#2F2E41"/>
<path id="Vector_25" d="M119.305 41.5436C119 41.1344 118.606 40.8008 118.151 40.5689C117.697 40.337 117.195 40.2129 116.685 40.2062H116.56C114.163 40.2062 112.219 42.3755 112.219 45.0515V45.0515H113.023L113.152 44.0641L113.343 45.0515H118.107L118.506 44.2161L118.406 45.0515H119.343C119.781 47.2236 119.152 49.3956 117.458 51.5676H119.055L119.853 49.8969L119.654 51.5676H122.697L123.296 47.7248C123.296 44.8469 121.624 42.4064 119.305 41.5436Z" fill="#2F2E41"/>
<path id="Vector_26" d="M90.5595 7.49955V0H87.9126V7.49956H48.9443V0H46.2974V7.49956H30.1219V48.3795H106.735V7.49955H90.5595ZM47.6209 17.0578C46.6451 17.0578 45.7011 16.7113 44.9571 16.0801C44.2131 15.4488 43.7174 14.5739 43.5585 13.6112C43.3995 12.6485 43.5876 11.6606 44.0893 10.8237C44.5909 9.98681 45.3735 9.35526 46.2974 9.04164V14.9991H48.9443V9.04163C49.8683 9.35525 50.6508 9.9868 51.1525 10.8237C51.6541 11.6606 51.8422 12.6485 51.6833 13.6112C51.5243 14.5739 51.0287 15.4488 50.2847 16.0801C49.5406 16.7113 48.5966 17.0578 47.6209 17.0578L47.6209 17.0578ZM89.2361 17.0578C88.2603 17.0578 87.3163 16.7113 86.5723 16.0801C85.8283 15.4488 85.3326 14.5739 85.1737 13.6112C85.0147 12.6485 85.2028 11.6606 85.7045 10.8237C86.2061 9.98681 86.9887 9.35526 87.9126 9.04164V14.9991H90.5595V9.04163C91.4835 9.35525 92.266 9.9868 92.7677 10.8237C93.2693 11.6606 93.4574 12.6485 93.2985 13.6112C93.1395 14.5739 92.6439 15.4488 91.8999 16.0801C91.1558 16.7113 90.2118 17.0578 89.2361 17.0578V17.0578Z" fill="#3F3D56"/>
<path id="available-now-1" d="M47.0327 21.2488H33.7982V31.2482H47.0327V21.2488Z" fill="#D0CDE1"/>
<path id="available-now-2" d="M65.708 21.2488H52.4735V31.2482H65.708V21.2488Z" fill="#D0CDE1"/>
<path id="Vector_27" d="M84.3834 21.2488H71.1489V31.2482H84.3834V21.2488Z" fill="#D0CDE1"/>
<path id="Vector_28" d="M103.059 21.2488H89.8242V31.2482H103.059V21.2488Z" fill="#D0CDE1"/>
<path id="Vector_29" d="M47.0327 34.1891H33.7982V44.1886H47.0327V34.1891Z" fill="#D0CDE1"/>
<path id="Vector_30" d="M65.708 34.1891H52.4735V44.1886H65.708V34.1891Z" fill="#D0CDE1"/>
<path id="Vector_31" d="M84.3834 34.1891H71.1489V44.1886H84.3834V34.1891Z" fill="#D0CDE1"/>
<path id="available-now-3" d="M103.059 34.1891H89.8242V44.1886H103.059V34.1891Z" fill="#D0CDE1"/>
<path id="Vector_32" d="M77.7062 28.4986L73.5696 22.7861L74.6965 21.9704L77.8628 26.3432L89.9796 13.8947L90.9764 14.8649L77.7062 28.4986Z" fill="#6B29F8"/>
<path id="Vector_33" d="M58.7368 42.3213L54.6002 36.6088L55.727 35.7931L58.8934 40.1658L71.0101 27.7173L72.0068 28.6876L58.7368 42.3213Z" fill="#6B29F8"/>
<path id="Vector_34" d="M21.1494 43.3782L18.1193 42.1824L15.0889 40.9867L17.6396 38.9604L20.1902 36.9338L20.6699 40.156L21.1494 43.3782Z" fill="#F2F2F2"/>
<path id="Vector_35" d="M39.8914 101.51L36.8613 100.314L33.8309 99.1187L36.3816 97.0923L38.9322 95.0658L39.4119 98.288L39.8914 101.51Z" fill="#F2F2F2"/>
<path id="Vector_36" d="M6.0605 61.0084L3.03033 59.8126L0 58.6169L2.55066 56.5905L5.10132 54.564L5.58099 57.7862L6.0605 61.0084Z" fill="#F2F2F2"/>
<path id="Vector_37" d="M22.4113 72.2466L19.5494 73.8027L16.6876 75.3589L16.7708 72.1024L16.854 68.8458L19.6328 70.5462L22.4113 72.2466Z" fill="#F2F2F2"/>
<path id="Vector_38" d="M55.2892 88.765L52.4272 90.3211L49.5654 91.8773L49.6487 88.6208L49.7319 85.3641L52.5106 87.0646L55.2892 88.765Z" fill="#F2F2F2"/>
</g>
<defs>
<clipPath id="clip0">
<rect width="151.756" height="120" fill="white"/>
</clipPath>
</defs>
</svg>
