<svg width="40" height="41" viewBox="0 0 40 41" fill="none" xmlns="http://www.w3.org/2000/svg">
<g clip-path="url(#clip0)">
<path d="M19.9528 15.1875L15.272 19.8683H16.8845V24.5849H19.0435V21.436H20.8621V24.5849H23.0211V19.8683H24.6336L19.9528 15.1875Z" stroke="#AAAAAA" stroke-miterlimit="10" stroke-linecap="round" stroke-linejoin="round"/>
</g>
<g clip-path="url(#clip1)">
<path d="M8.62176 22.8811L9.65186 22.6527C10.9079 28.3183 16.571 31.9261 22.2366 30.6701C27.9021 29.414 31.5099 23.7509 30.2539 18.0854C28.9979 12.4198 23.3347 8.81202 17.6692 10.068C15.2485 10.6047 13.1763 11.9827 11.6647 13.9389L14.7548 13.7402L14.8286 14.8046L10.0848 15.0997L9.78965 10.3559L10.854 10.2821L11.0357 13.0517C12.6389 11.0211 14.9171 9.59744 17.4408 9.03794C23.6729 7.65632 29.9024 11.6249 31.284 17.857C32.6656 24.0891 28.697 30.3185 22.4649 31.7002C16.2328 33.0818 10.0034 29.1132 8.62176 22.8811Z" fill="#AAAAAA"/>
</g>
<defs>
<clipPath id="clip0">
<rect width="9.496" height="9.58559" fill="white" transform="translate(15.2048 15.0934)"/>
</clipPath>
<clipPath id="clip1">
<rect width="33.8645" height="33.4636" fill="white" transform="matrix(0.21644 0.976296 0.976296 -0.21644 0 7.24286)"/>
</clipPath>
</defs>
</svg>
