<svg width="16" height="10" viewBox="0 0 16 10" fill="none" xmlns="http://www.w3.org/2000/svg">
<path fill-rule="evenodd" clip-rule="evenodd" d="M16 5.00403C16 4.88484 15.945 4.771 15.8535 4.68528L10.904 0.221443C10.7085 0.0451033 10.392 0.0455497 10.197 0.221443C10.0015 0.397335 10.0015 0.68305 10.197 0.858943L14.2935 4.55314H0.5C0.224 4.55314 0 4.75493 0 5.00403C0 5.25314 0.224 5.45493 0.5 5.45493H14.293L10.197 9.14912C10.0015 9.32502 10.002 9.61073 10.197 9.78662C10.3925 9.96252 10.709 9.96252 10.904 9.78662L15.8535 5.32278C15.947 5.23841 15.9985 5.12234 16 5.00403Z" fill="white"/>
</svg>
