<svg width="24" height="24" viewBox="0 0 24 24" fill="none" xmlns="http://www.w3.org/2000/svg">
<path d="M20.8313 8.09998C22.1775 8.09998 23.2688 7.00867 23.2688 5.66248C23.2688 4.31628 22.1775 3.22498 20.8313 3.22498C19.4851 3.22498 18.3938 4.31628 18.3938 5.66248C18.3938 7.00867 19.4851 8.09998 20.8313 8.09998Z" fill="#555555"/>
<path d="M20.3063 19.65H19.9313C17.925 19.65 16.3125 18.0187 16.3125 16.0312V10.2937C16.3125 9.71248 16.7812 9.26248 17.3437 9.26248H22.8937C23.475 9.26248 23.925 9.73123 23.925 10.2937V16.0125C23.9437 18.0187 22.3125 19.65 20.3063 19.65Z" fill="#555555"/>
<path d="M13.1813 8.04375C15.1177 8.04375 16.6875 6.47395 16.6875 4.5375C16.6875 2.60105 15.1177 1.03125 13.1813 1.03125C11.2449 1.03125 9.67505 2.60105 9.67505 4.5375C9.67505 6.47395 11.2449 8.04375 13.1813 8.04375Z" fill="#555555"/>
<path d="M13.2 22.8937H12.6C9.44997 22.8937 6.88123 20.325 6.88123 17.175V10.1437C6.88123 9.675 7.27498 9.28125 7.74373 9.28125H18.0562C18.525 9.28125 18.9187 9.675 18.9187 10.1437V17.175C18.9187 20.325 16.3687 22.8937 13.2 22.8937Z" fill="#555555"/>
<path d="M11.1563 18.225H1.2188C0.562549 18.225 0.0187988 17.6812 0.0187988 17.025V7.23748C0.0187988 6.58123 0.562549 6.03748 1.2188 6.03748H11.1563C11.8125 6.03748 12.3563 6.58123 12.3563 7.23748V17.025C12.3563 17.6812 11.8313 18.225 11.1563 18.225Z" fill="#555555"/>
<path d="M5.5125 9.88123H3.5625V8.84998H8.71875V9.88123H6.76875V15.5625H5.53125V9.88123H5.5125Z" fill="white"/>
<path opacity="0.2" d="M12.375 9.28125V17.0062C12.375 17.6625 11.8312 18.2063 11.175 18.2063H6.97498L7.25623 19.275H12.1875C12.8437 19.275 13.3875 18.7313 13.3875 18.075V9.28125H12.375Z" fill="#555555"/>
</svg>
