<svg width="24" height="24" viewBox="0 0 24 24" fill="none" xmlns="http://www.w3.org/2000/svg">
<path d="M5.74887 14.8444C5.74887 16.0911 4.73042 17.1096 3.48382 17.1096C2.23728 17.1096 1.21887 16.0911 1.21887 14.8444C1.21887 13.5979 2.23733 12.5795 3.48382 12.5795H5.74887V14.8444Z" fill="#555555"/>
<path d="M6.8905 14.8444C6.8905 13.5979 7.909 12.5795 9.15555 12.5795C10.4021 12.5795 11.4205 13.598 11.4205 14.8444V20.5162C11.4205 21.7627 10.402 22.7812 9.15555 22.7812C7.90896 22.7812 6.8905 21.7627 6.8905 20.5162V14.8444Z" fill="#555555"/>
<path d="M9.15555 5.74892C7.90896 5.74892 6.8905 4.73042 6.8905 3.48387C6.8905 2.23733 7.909 1.21887 9.15555 1.21887C10.4021 1.21887 11.4205 2.23737 11.4205 3.48387V5.74892H9.15555Z" fill="#555555"/>
<path d="M9.15551 6.89052C10.4021 6.89052 11.4205 7.90897 11.4205 9.15556C11.4205 10.4021 10.402 11.4205 9.15551 11.4205H3.48383C2.23728 11.4205 1.21887 10.4021 1.21887 9.15556C1.21887 7.90892 2.23733 6.89052 3.48383 6.89052H9.15551Z" fill="#555555"/>
<path d="M18.2512 9.15556C18.2512 7.90892 19.2696 6.89052 20.5162 6.89052C21.7628 6.89052 22.7811 7.90897 22.7811 9.15556C22.7811 10.4021 21.7627 11.4205 20.5162 11.4205H18.2512V9.15556Z" fill="#555555"/>
<path d="M17.1095 9.15554C17.1095 10.4021 16.091 11.4205 14.8445 11.4205C13.5979 11.4205 12.5795 10.402 12.5795 9.15554V3.48381C12.5795 2.23726 13.598 1.21881 14.8445 1.21881C16.0911 1.21881 17.1095 2.23731 17.1095 3.48381V9.15554Z" fill="#555555"/>
<path d="M14.8445 18.2512C16.0911 18.2512 17.1095 19.2697 17.1095 20.5163C17.1095 21.7628 16.091 22.7812 14.8445 22.7812C13.5979 22.7812 12.5795 21.7627 12.5795 20.5163V18.2512H14.8445Z" fill="#555555"/>
<path d="M14.8445 17.1096C13.5979 17.1096 12.5795 16.0911 12.5795 14.8444C12.5795 13.5979 13.598 12.5795 14.8445 12.5795H20.5162C21.7627 12.5795 22.7811 13.598 22.7811 14.8444C22.7811 16.0911 21.7627 17.1096 20.5162 17.1096H14.8445Z" fill="#555555"/>
</svg>
