<svg width="24" height="24" viewBox="0 0 24 24" fill="none" xmlns="http://www.w3.org/2000/svg">
<path d="M14.5 23.72C14.387 23.72 14.277 23.682 14.187 23.61C14.069 23.515 14 23.372 14 23.22V19.5C14 18.601 13.885 17.963 13.637 17.495C13.564 17.358 13.56 17.195 13.624 17.054C13.688 16.913 13.815 16.81 13.966 16.775C16.93 16.091 19 13.922 19 11.5C19 10.3 18.507 9.155 17.575 8.188C17.431 8.039 17.394 7.818 17.481 7.63C17.853 6.828 17.774 5.736 17.333 5.081C16.75 5.309 15.993 5.786 15.501 6.37C15.367 6.531 15.146 6.59 14.947 6.517C13.072 5.829 10.929 5.829 9.054 6.517C8.857 6.589 8.635 6.531 8.5 6.371C8.008 5.787 7.251 5.31 6.667 5.082C6.226 5.737 6.147 6.829 6.519 7.631C6.606 7.818 6.569 8.039 6.425 8.188C5.493 9.155 5 10.301 5 11.5C5 13.807 6.863 15.885 9.636 16.67C9.852 16.732 10 16.928 10 17.152V17.501C10 18.127 9.749 18.48 9.538 18.667C9.086 19.064 8.502 19.004 8.438 18.997C8.435 18.997 8.431 18.997 8.428 18.997C7.604 18.997 6.984 18.538 6.385 18.094C6.084 17.871 5.779 17.644 5.424 17.456C5.501 17.56 5.577 17.667 5.654 17.774C6.404 18.817 7.253 20 8.501 20H9.501C9.777 20 10.001 20.224 10.001 20.5V23.22C10.001 23.372 9.932 23.515 9.814 23.61C9.695 23.704 9.541 23.739 9.393 23.708C3.95 22.5 0 17.577 0 12C0 5.383 5.383 0 12 0C18.617 0 24 5.383 24 12C24 17.576 20.05 22.5 14.608 23.708C14.572 23.716 14.536 23.72 14.5 23.72ZM14.758 17.599C14.922 18.116 15 18.736 15 19.5V22.578C19.671 21.252 23 16.901 23 12C23 5.935 18.065 1 12 1C5.935 1 1 5.935 1 12C1 16.901 4.329 21.252 9 22.578V21H8.5C6.74 21 5.687 19.535 4.841 18.357C4.362 17.69 3.866 17 3.5 17C3.224 17 3 16.776 3 16.5C3 16.224 3.224 16 3.5 16C5.24 16 6.205 16.715 6.98 17.29C7.516 17.687 7.938 18 8.5 18C8.556 18.003 8.763 18.018 8.879 17.914C8.974 17.828 8.998 17.657 9 17.522C5.994 16.535 4 14.154 4 11.501C4 10.137 4.512 8.841 5.484 7.735C5.055 6.492 5.32 4.974 6.146 4.147C6.271 4.021 6.453 3.97 6.627 4.017C7.295 4.194 8.287 4.713 9.028 5.468C10.933 4.847 13.064 4.847 14.969 5.468C15.71 4.713 16.702 4.194 17.37 4.017C17.543 3.97 17.725 4.02 17.851 4.147C18.678 4.974 18.942 6.492 18.513 7.734C19.488 8.841 20 10.137 20 11.5C20 14.228 17.873 16.67 14.758 17.599Z" fill="#555555"/>
</svg>
