<svg width="24" height="24" viewBox="0 0 24 24" fill="none" xmlns="http://www.w3.org/2000/svg">
<path d="M3.2054 6.49726L10.7309 12.4583C11.0722 12.7283 11.5424 12.8483 11.9992 12.8258C12.4559 12.8475 12.9262 12.7283 13.2674 12.4583L20.7929 6.49726C21.3944 6.02175 21.2579 5.63326 20.4929 5.63326H11.9999H3.50615C2.7404 5.63326 2.60465 6.02175 3.2054 6.49726Z" fill="#555555"/>
<path d="M21.336 8.07L13.1122 14.313C12.8047 14.5447 12.402 14.6572 12 14.6527C11.598 14.6572 11.1952 14.544 10.8877 14.313L2.66396 8.07C2.05346 7.60725 1.55396 7.8555 1.55396 8.62125V18.8655C1.55396 19.6312 2.18095 20.2575 2.9467 20.2575H12H21.0532C21.819 20.2575 22.446 19.6305 22.446 18.8655V8.62125C22.4467 7.8555 21.9472 7.60725 21.336 8.07Z" fill="#555555"/>
</svg>
