<svg width="35" height="35" viewBox="0 0 35 35" fill="none" xmlns="http://www.w3.org/2000/svg">
<path d="M17.5 35C7.8505 35 0 27.1495 0 17.5C0 13.2463 1.5435 9.14667 4.34817 5.95583C4.56167 5.71433 4.93033 5.69217 5.17183 5.90333C5.41333 6.11567 5.43667 6.4855 5.2255 6.727C2.6075 9.70317 1.16667 13.5298 1.16667 17.5C1.16667 26.5067 8.49333 33.8333 17.5 33.8333C26.5067 33.8333 33.8333 26.5067 33.8333 17.5C33.8333 8.49333 26.5067 1.16667 17.5 1.16667C14.5787 1.16667 11.7133 1.946 9.21317 3.42183C8.939 3.58167 8.57967 3.493 8.41517 3.21533C8.25067 2.93883 8.34283 2.58067 8.62167 2.41617C11.3003 0.835333 14.3698 0 17.5 0C27.1495 0 35 7.8505 35 17.5C35 27.1495 27.1495 35 17.5 35Z" fill="#6B29F8"/>
<path d="M17.4998 32.0834C9.458 32.0834 2.9165 25.5419 2.9165 17.5C2.9165 9.45819 9.458 2.91669 17.4998 2.91669C25.5417 2.91669 32.0832 9.45819 32.0832 17.5C32.0832 25.5419 25.5417 32.0834 17.4998 32.0834ZM17.4998 4.08335C10.102 4.08335 4.08317 10.1022 4.08317 17.5C4.08317 24.8979 10.102 30.9167 17.4998 30.9167C24.8977 30.9167 30.9165 24.8979 30.9165 17.5C30.9165 10.1022 24.8977 4.08335 17.4998 4.08335Z" fill="#6B29F8"/>
<path d="M23.0418 8.48171C22.8902 8.48171 22.7385 8.42337 22.6323 8.31837C22.5157 8.20171 22.4585 8.05004 22.4585 7.89837C22.4585 7.74671 22.5168 7.59504 22.6323 7.49004C22.854 7.26837 23.2402 7.26837 23.449 7.49004C23.5668 7.59504 23.624 7.74671 23.624 7.89837C23.624 8.05004 23.5668 8.20171 23.4502 8.30671C23.3452 8.42337 23.1935 8.48171 23.0418 8.48171Z" fill="#6B29F8"/>
<path d="M11.9583 27.6839C11.8067 27.6839 11.655 27.6139 11.5488 27.51C11.4322 27.3922 11.375 27.2417 11.375 27.1005C11.375 26.9489 11.4333 26.7972 11.5383 26.6817C11.76 26.4705 12.1567 26.4705 12.3667 26.6817C12.4845 26.7984 12.5417 26.9489 12.5417 27.1005C12.5417 27.2405 12.4833 27.3922 12.3772 27.51C12.2617 27.615 12.11 27.6839 11.9583 27.6839Z" fill="#6B29F8"/>
<path d="M27.1004 12.5416C26.9488 12.5416 26.7971 12.4833 26.6921 12.3771C26.5754 12.2605 26.5171 12.11 26.5171 11.9583C26.5171 11.8066 26.5766 11.655 26.6816 11.5488C26.9138 11.3166 27.2988 11.3283 27.5099 11.5488C27.6149 11.655 27.6838 11.8066 27.6838 11.9583C27.6838 12.11 27.6254 12.2616 27.5099 12.3666C27.4049 12.4833 27.2521 12.5416 27.1004 12.5416Z" fill="#6B29F8"/>
<path d="M7.89827 23.625C7.74661 23.625 7.60661 23.5667 7.48994 23.4605C7.37211 23.3333 7.31494 23.1817 7.31494 23.0417C7.31494 22.89 7.37327 22.75 7.47944 22.6322C7.73611 22.4 8.09661 22.4117 8.31944 22.6322C8.42444 22.7383 8.48277 22.89 8.48277 23.0417C8.48277 23.1933 8.42444 23.345 8.31944 23.45C8.20161 23.5667 8.06161 23.625 7.89827 23.625Z" fill="#6B29F8"/>
<path d="M28.5833 18.0833C28.4317 18.0833 28.28 18.025 28.1738 17.9083C28.0583 17.8033 28 17.6517 28 17.5C28 17.3483 28.0583 17.1967 28.1738 17.0905C28.385 16.87 28.77 16.87 28.9905 17.0788C29.1083 17.1967 29.1667 17.3483 29.1667 17.5C29.1667 17.6517 29.1083 17.8033 29.0022 17.9083C28.8867 18.025 28.735 18.0833 28.5833 18.0833Z" fill="#6B29F8"/>
<path d="M6.41683 18.0833C6.26516 18.0833 6.1135 18.025 6.00733 17.9083C5.89183 17.8033 5.8335 17.6517 5.8335 17.5C5.8335 17.3483 5.89183 17.1967 6.00733 17.0905C6.2185 16.87 6.6035 16.87 6.824 17.0788C6.94183 17.1967 7.00016 17.3483 7.00016 17.5C7.00016 17.6517 6.94183 17.8033 6.83566 17.9083C6.72016 18.025 6.5685 18.0833 6.41683 18.0833Z" fill="#6B29F8"/>
<path d="M27.1004 23.625C26.9488 23.625 26.7971 23.5667 26.6816 23.4605C26.5766 23.3438 26.5171 23.1933 26.5171 23.0417C26.5171 22.89 26.5766 22.7383 26.6816 22.6322C26.9138 22.4 27.2988 22.4117 27.5099 22.6322C27.6149 22.7383 27.6838 22.89 27.6838 23.0417C27.6838 23.1933 27.6254 23.345 27.5099 23.45C27.4049 23.5667 27.2521 23.625 27.1004 23.625Z" fill="#6B29F8"/>
<path d="M7.89827 12.5416C7.74661 12.5416 7.60661 12.4833 7.48994 12.3771C7.37211 12.25 7.31494 12.0983 7.31494 11.9583C7.31494 11.8066 7.37327 11.6666 7.47944 11.5488C7.73611 11.3166 8.09661 11.3283 8.31944 11.5488C8.42444 11.655 8.48277 11.8066 8.48277 11.9583C8.48277 12.11 8.42444 12.2616 8.31944 12.3666C8.20161 12.4833 8.04877 12.5416 7.89827 12.5416Z" fill="#6B29F8"/>
<path d="M23.0418 27.6839C22.8902 27.6839 22.7385 27.6256 22.6323 27.5206C22.5157 27.3922 22.4585 27.2522 22.4585 27.1006C22.4585 26.9489 22.5168 26.7972 22.6218 26.6817C22.8552 26.4601 23.2297 26.4706 23.4502 26.6817C23.568 26.7984 23.6252 26.9489 23.6252 27.1006C23.6252 27.2406 23.5668 27.3922 23.4607 27.5101C23.3452 27.6267 23.1935 27.6839 23.0418 27.6839Z" fill="#6B29F8"/>
<path d="M11.9583 8.48167C11.8067 8.48167 11.655 8.42334 11.5488 8.30784C11.4333 8.20167 11.375 8.04884 11.375 7.89834C11.375 7.74784 11.4333 7.595 11.5488 7.49C11.76 7.26834 12.145 7.26834 12.3655 7.47834C12.4833 7.595 12.5405 7.7455 12.5405 7.89717C12.5405 8.04884 12.4833 8.20167 12.3667 8.30667C12.25 8.42334 12.11 8.48167 11.9583 8.48167Z" fill="#6B29F8"/>
<path d="M17.4998 29.1666C17.3482 29.1666 17.2082 29.1083 17.0903 29.0021C16.9748 28.875 16.9165 28.735 16.9165 28.5833C16.9165 28.4316 16.9748 28.28 17.0798 28.1738C17.3248 27.9416 17.6982 27.9533 17.9082 28.1738C18.0248 28.28 18.0832 28.4316 18.0832 28.5833C18.0832 28.735 18.0248 28.8866 17.9082 28.9916C17.8032 29.1083 17.6515 29.1666 17.4998 29.1666Z" fill="#6B29F8"/>
<path d="M17.4998 7.00001C17.3482 7.00001 17.2082 6.94168 17.0903 6.83551C16.9748 6.72001 16.9165 6.56835 16.9165 6.41668C16.9165 6.25218 16.9748 6.11335 17.0798 6.00718C17.3248 5.77501 17.6982 5.78668 17.9082 6.00718C18.0248 6.11335 18.0832 6.26501 18.0832 6.41668C18.0832 6.56835 18.0248 6.72001 17.9187 6.82501C17.8032 6.94168 17.6515 7.00001 17.4998 7.00001Z" fill="#6B29F8"/>
<path d="M24.9247 10.0753C24.6972 9.84785 24.3273 9.84785 24.0998 10.0753L17.7847 16.3905C18.1942 16.4967 18.5033 16.8058 18.6095 17.2153L24.9247 10.9002C25.1533 10.6715 25.1533 10.3028 24.9247 10.0753Z" fill="#6B29F8"/>
<path d="M17.2155 16.3905L10.0755 9.25052C9.84804 9.02302 9.4782 9.02302 9.2507 9.25052C9.0232 9.47802 9.0232 9.84785 9.2507 10.0754L16.3907 17.2154C16.4969 16.8059 16.806 16.4967 17.2155 16.3905Z" fill="#6B29F8"/>
<path d="M17.5 19.25C16.5352 19.25 15.75 18.4648 15.75 17.5C15.75 16.5352 16.5352 15.75 17.5 15.75C18.4648 15.75 19.25 16.5352 19.25 17.5C19.25 18.4648 18.4648 19.25 17.5 19.25ZM17.5 16.9167C17.1792 16.9167 16.9167 17.1792 16.9167 17.5C16.9167 17.8208 17.1792 18.0833 17.5 18.0833C17.8208 18.0833 18.0833 17.8208 18.0833 17.5C18.0833 17.1792 17.8208 16.9167 17.5 16.9167Z" fill="#6B29F8"/>
<path d="M7.58317 4.08333C7.58317 4.40417 7.32067 4.66667 6.99984 4.66667C6.679 4.66667 6.4165 4.40417 6.4165 4.08333C6.4165 3.7625 6.679 3.5 6.99984 3.5C7.32067 3.5 7.58317 3.7625 7.58317 4.08333Z" fill="#6B29F8"/>
</svg>
