<svg width="33" height="36" viewBox="0 0 33 36" fill="none" xmlns="http://www.w3.org/2000/svg">
<path d="M32.2719 1.66687H0.574707V35.3433H32.2719V1.66687Z" fill="#6B29F8"/>
<path d="M32.1083 1.63635H0.89209V34.3636H32.1083V1.63635Z" fill="#6B29F8"/>
<path d="M27.9157 3.29471L0.574707 5.54303C0.697753 5.54303 0.574707 2.41938 0.574707 1.66687H29.4016V1.93096C29.4016 2.29253 29.2451 2.6393 28.9664 2.89503C28.6878 3.15076 28.3099 3.29453 27.9157 3.29471V3.29471Z" fill="#6B29F8"/>
<path d="M32.1083 5.72729H0.89209V33.5455H32.1083V5.72729Z" fill="#6B29F8"/>
<path d="M5.35155 5.72729H0.89209V35.1818H5.35155V5.72729Z" fill="#6B29F8"/>
<path d="M7.81892 11.8372H2.34375V16.8599H7.81892V11.8372Z" fill="white"/>
<path d="M13.5982 11.8372H8.12305V16.8599H13.5982V11.8372Z" fill="white"/>
<path d="M19.378 11.8372H13.9028V16.8599H19.378V11.8372Z" fill="white"/>
<path d="M25.1573 11.8372H19.6821V16.8599H25.1573V11.8372Z" fill="white"/>
<path d="M7.81892 17.0807H2.34375V22.1034H7.81892V17.0807Z" fill="white"/>
<path d="M13.5982 17.0807H8.12305V22.1034H13.5982V17.0807Z" fill="white"/>
<path d="M19.378 17.0807H13.9028V22.1034H19.378V17.0807Z" fill="white"/>
<path d="M25.1573 17.0807H19.6821V22.1034H25.1573V17.0807Z" fill="white"/>
<path d="M7.81892 22.3242H2.34375V27.3468H7.81892V22.3242Z" fill="white"/>
<path d="M13.5982 22.3242H8.12305V27.3468H13.5982V22.3242Z" fill="white"/>
<path d="M19.378 22.3242H13.9028V27.3468H19.378V22.3242Z" fill="white"/>
<path d="M25.1573 22.3242H19.6821V27.3468H25.1573V22.3242Z" fill="white"/>
<path d="M7.82087 27.5891H2.3457V32.6118H7.82087V27.5891Z" fill="white"/>
<path d="M13.6002 27.5891H8.125V32.6118H13.6002V27.5891Z" fill="white"/>
<path d="M19.3795 27.5891H13.9043V32.6118H19.3795V27.5891Z" fill="white"/>
<path d="M30.8404 11.8372H25.3652V16.8599H30.8404V11.8372Z" fill="white"/>
<path d="M30.8404 6.59369H25.3652V11.6164H30.8404V6.59369Z" fill="white"/>
<path d="M25.1573 6.59369H19.6821V11.6164H25.1573V6.59369Z" fill="white"/>
<path d="M30.8404 17.0807H25.3652V22.1034H30.8404V17.0807Z" fill="white"/>
<path d="M30.8404 22.3242H25.3652V27.3468H30.8404V22.3242Z" fill="white"/>
<path d="M3.03027 0.305282V3.02853C3.03027 3.17548 3.2338 3.29475 3.48376 3.29475C3.7345 3.29475 3.93726 3.17548 3.93726 3.02853V0.305282C3.93726 0.158329 3.7345 0.0390625 3.48376 0.0390625C3.2338 0.0390625 3.03027 0.158329 3.03027 0.305282Z" fill="#6B29F8"/>
<path d="M7.36523 0.305282V3.02853C7.36523 3.17548 7.56799 3.29475 7.81872 3.29475C8.06946 3.29475 8.27222 3.17548 8.27222 3.02853V0.305282C8.27222 0.158329 8.06946 0.0390625 7.81872 0.0390625C7.56799 0.0390625 7.36523 0.158329 7.36523 0.305282Z" fill="#6B29F8"/>
<path d="M11.7007 0.305282V3.02853C11.7007 3.17548 11.9034 3.29475 12.1542 3.29475C12.4049 3.29475 12.6077 3.17548 12.6077 3.02853V0.305282C12.6077 0.158329 12.4049 0.0390625 12.1542 0.0390625C11.9034 0.0390625 11.7007 0.158329 11.7007 0.305282Z" fill="#6B29F8"/>
<path d="M16.0356 0.305282V3.02853C16.0356 3.17548 16.2384 3.29475 16.4891 3.29475C16.7391 3.29475 16.9426 3.17548 16.9426 3.02853V0.305282C16.9426 0.158329 16.7391 0.0390625 16.4891 0.0390625C16.2384 0.0390625 16.0356 0.158329 16.0356 0.305282Z" fill="#6B29F8"/>
<path d="M20.3706 0.305282V3.02853C20.3706 3.17548 20.5741 3.29475 20.8249 3.29475C21.0748 3.29475 21.2784 3.17548 21.2784 3.02853V0.305282C21.2784 0.158329 21.0748 0.0390625 20.8249 0.0390625C20.5741 0.0390625 20.3706 0.158329 20.3706 0.305282Z" fill="#6B29F8"/>
<path d="M24.7056 0.305282V3.02853C24.7056 3.17548 24.9091 3.29475 25.1591 3.29475C25.4098 3.29475 25.6133 3.17548 25.6133 3.02853V0.305282C25.6133 0.158329 25.4098 0.0390625 25.1591 0.0390625C24.9091 0.0390625 24.7056 0.158329 24.7056 0.305282Z" fill="#6B29F8"/>
<path d="M28.9478 0.305282V3.02853C28.9478 3.17548 29.1513 3.29475 29.4012 3.29475C29.652 3.29475 29.8547 3.17548 29.8547 3.02853V0.305282C29.8547 0.158329 29.652 0.0390625 29.4012 0.0390625C29.1513 0.0390625 28.9478 0.158329 28.9478 0.305282Z" fill="#6B29F8"/>
<path d="M32.9998 1.63635H32.1079V35.1818H32.9998V1.63635Z" fill="#6B29F8"/>
<path d="M32.9998 1.63635H32.1079V35.3454H32.9998V1.63635Z" fill="#6B29F8"/>
<path d="M15.1961 25.2295L15.9762 26.3412C16.0111 26.3907 16.0659 26.4255 16.1287 26.438C16.1915 26.4506 16.2571 26.4397 16.3113 26.4079C16.3305 26.3961 16.3479 26.382 16.3631 26.3661L18.5114 24.0943C18.5418 24.0623 18.5616 24.0229 18.5683 23.9808C18.575 23.9388 18.5684 23.8958 18.5492 23.8571C18.53 23.8184 18.4991 23.7856 18.4602 23.7626C18.4212 23.7396 18.3759 23.7273 18.3295 23.7273H18.3117C18.2763 23.7272 18.2413 23.7343 18.2092 23.7481C18.1771 23.7618 18.1487 23.7819 18.126 23.8068L16.4452 25.6526C16.4043 25.6975 16.3457 25.7258 16.2822 25.7313C16.2187 25.7367 16.1554 25.7189 16.1062 25.6817C16.0876 25.6674 16.0715 25.6506 16.0582 25.632L15.6009 24.9931C15.5754 24.9577 15.5394 24.9297 15.4972 24.9125C15.4549 24.8953 15.4082 24.8895 15.3625 24.8958V24.8958C15.3239 24.9018 15.2876 24.9164 15.2565 24.9382C15.2254 24.96 15.2006 24.9884 15.1842 25.021C15.1679 25.0536 15.1604 25.0893 15.1624 25.1252C15.1645 25.161 15.1761 25.1958 15.1961 25.2266V25.2295Z" fill="#6B29F8"/>
</svg>
