<svg width="33" height="35" viewBox="0 0 33 35" fill="none" xmlns="http://www.w3.org/2000/svg">
<g clip-path="url(#clip0)">
<path fill-rule="evenodd" clip-rule="evenodd" d="M28.0613 15.5836H27.0607V18.7688H28.0613V15.5836ZM24.9266 15.5836H23.9293V18.7688H24.9266V15.5836ZM28.0613 20.3836H27.0607V23.5689H28.0613V20.3836ZM24.9266 20.3836H23.9293V23.5689H24.9266V20.3836ZM28.0613 25.1838H27.0607V28.3722H28.0613V25.1838ZM24.9266 25.1838H23.9293V28.3722H24.9266V25.1838ZM28.0613 29.987H27.0607V33.1723H28.0613V29.987ZM24.9266 29.987H23.9293V33.1723H24.9266V29.987ZM17.2293 3.15568V2.13615H15.513H15.5067H11.3874H11.3809H9.66804V3.15568H17.2293V3.15568ZM15.2567 0.937988H11.6376V1.63265H15.2567V0.937988ZM13.2713 34.8821H13.7717V11.0398C13.7717 10.9005 13.661 10.7897 13.5249 10.7897C13.3855 10.7897 13.2713 10.9005 13.2713 11.0398V34.8821H13.2713ZM10.925 34.8821H11.4286V11.0398C11.4286 10.9005 11.3147 10.7897 11.1753 10.7897C11.0359 10.7897 10.925 10.9005 10.925 11.0398V34.8821ZM8.57891 34.8821H9.07907V11.0398C9.07907 10.9005 8.96828 10.7897 8.83205 10.7897C8.69296 10.7897 8.57882 10.9005 8.57882 11.0398V34.8821H8.57891ZM6.2326 34.8821H6.7362V11.0398C6.7362 10.9005 6.62206 10.7897 6.48287 10.7897C6.34349 10.7897 6.2326 10.9005 6.2326 11.0398V34.8821ZM3.88648 34.8821H4.38664V11.0398C4.38664 10.9005 4.27584 10.7897 4.13971 10.7897C4.00034 10.7897 3.88648 10.9005 3.88648 11.0398V34.8821V34.8821ZM1.54332 34.8821H2.04349V11.0398C2.04349 10.9005 1.92963 10.7897 1.79016 10.7897C1.65403 10.7897 1.54332 10.9005 1.54332 11.0398V34.8821ZM13.4613 36.5826C13.3283 36.5826 13.2145 36.4716 13.2145 36.3324C13.2145 36.193 13.3283 36.0823 13.4613 36.0823H34.2198C34.359 36.0823 34.47 36.193 34.47 36.3324C34.47 36.4716 34.359 36.5826 34.2198 36.5826H13.4613ZM-5.28013 36.5476C-5.41626 36.5476 -5.53003 36.4337 -5.53003 36.2975C-5.53003 36.1582 -5.41617 36.0443 -5.28013 36.0443H4.55441C4.69054 36.0443 4.80468 36.1583 4.80468 36.2975C4.80468 36.4337 4.69054 36.5476 4.55441 36.5476H-5.28013ZM25.8985 34.8821H29.9073V14.1302L22.4442 9.27947V24.2688V34.8822H21.9406V24.37L19.9934 22.2549V34.8821H19.4902V21.612V3.65603H17.4827H17.4762H9.41471H9.40859H7.07184V6.41704H15.5701C15.7095 6.41704 15.8203 6.53099 15.8203 6.67028V34.8822H15.3166V6.92054H6.81507H-0.109531V34.8822H-4.09905C-4.23517 34.8822 -4.34903 34.9963 -4.34903 35.1355C-4.34903 35.2717 -4.23508 35.3856 -4.09905 35.3856H25.8924C26.0316 35.3856 26.1457 35.2716 26.1457 35.1355C26.1457 34.9993 26.035 34.8853 25.8985 34.8821Z" fill="#6B29F8"/>
<line x1="25" y1="34.5" x2="30" y2="34.5" stroke="#6B29F8"/>
</g>
<defs>
<clipPath id="clip0">
<rect width="33" height="35" fill="white"/>
</clipPath>
</defs>
</svg>
