<svg width="159" height="120" viewBox="0 0 159 120" fill="none" xmlns="http://www.w3.org/2000/svg">
<g id="latest news logo" clip-path="url(#clip0)">
<path id="Vector" d="M85.1681 120C117.037 120 142.872 112.619 142.872 103.513C142.872 94.4076 117.037 87.0262 85.1681 87.0262C53.2989 87.0262 27.4639 94.4076 27.4639 103.513C27.4639 112.619 53.2989 120 85.1681 120Z" fill="#F5F5F5"/>
<path id="Vector_2" d="M140.069 39.3773C140.069 39.3773 129.848 49.5992 135.618 64.7672C141.388 79.9351 125.726 105.16 125.726 105.16C125.726 105.16 125.891 105.135 126.206 105.081C147.2 101.375 157.631 77.3632 145.957 59.526C141.623 52.8949 138.053 45.1148 140.069 39.3773Z" fill="#6B29F8"/>
<path id="Vector_3" d="M140.069 39.3773C140.069 39.3773 134.299 51.9074 140.069 62.1293C145.84 72.3512 141.059 101.038 125.726 105.16" stroke="#535461" stroke-width="2" stroke-miterlimit="10"/>
<path id="Vector_4" d="M158.274 80.7215C158.274 80.7215 146.61 78.8635 145.546 89.3178C144.483 99.7722 123.124 101.22 123.124 101.22C123.124 101.22 123.263 101.315 123.525 101.487C141.166 113.067 158.03 108.863 155.49 93.4857C154.538 87.7697 154.614 82.0273 158.274 80.7215Z" fill="#6B29F8"/>
<path id="Vector_5" opacity="0.2" d="M158.274 80.7215C158.274 80.7215 146.61 78.8635 145.546 89.3178C144.483 99.7722 123.124 101.22 123.124 101.22C123.124 101.22 123.263 101.315 123.525 101.487C141.166 113.067 158.03 108.863 155.49 93.4857C154.538 87.7697 154.614 82.0273 158.274 80.7215Z" fill="#F5F5F5"/>
<path id="Vector_6" d="M158.274 80.7216C158.274 80.7216 149.22 82.7099 149.963 90.9434C150.707 99.177 136.512 109.043 123.118 101.216" stroke="#535461" stroke-width="2" stroke-miterlimit="10"/>
<g id="Group" opacity="0.5">
<path id="Vector_7" opacity="0.5" d="M50.8028 41.5949C50.8024 39.0054 50.3968 36.432 49.6009 33.968L47.6224 27.8332C47.6224 27.731 47.6224 27.6304 47.6224 27.5299C47.6834 23.5977 44.6185 21.6358 43.4381 21.8485C42.2296 22.0661 38.8761 20.3844 38.8761 20.3844V20.4306C38.6462 20.1659 38.4388 19.8825 38.2562 19.5832C38.8356 19.1612 39.3248 18.6276 39.6951 18.0139C40.0653 17.4001 40.3091 16.7186 40.4122 16.0092C40.5153 15.2999 40.4755 14.5771 40.2952 13.8834C40.115 13.1897 39.7978 12.5389 39.3625 11.9695C39.7249 11.6972 40.0014 11.3263 40.1588 10.9012C40.4325 10.1312 40.2231 9.25248 39.778 8.56662C39.5887 8.28031 39.3674 8.01648 39.1185 7.7802C38.7414 7.40663 38.3296 7.06987 37.8886 6.7745C36.7889 6.0128 35.5804 5.35827 34.2614 5.12581C34.0332 5.07192 33.7956 5.07192 33.5673 5.12581C33.3693 5.20574 33.1807 5.30749 33.0051 5.42917C32.1017 5.94356 30.9772 5.72098 29.9353 5.66658C28.8933 5.61217 27.6271 5.90399 27.2974 6.88166C27.1951 7.18337 27.2017 7.50981 27.1325 7.81977C26.9676 8.57816 26.3823 9.16675 25.9306 9.7982C25.4789 10.4296 25.1409 11.282 25.5168 11.9679C25.6454 12.1987 25.8465 12.4114 25.8465 12.6752C25.8465 12.8648 25.7344 13.0346 25.6816 13.2159C25.5679 13.6281 25.7822 14.0403 26.112 14.3387C26.254 14.4919 26.4213 14.6196 26.6066 14.7162C27.1292 14.9833 27.731 15.0658 28.2635 15.3131C28.5293 15.4379 28.7732 15.6049 28.9856 15.8077C29.2459 16.0801 29.4493 16.4016 29.584 16.7534C29.7188 17.1053 29.7821 17.4804 29.7704 17.857L29.8809 17.8685C29.8809 17.9015 29.8809 17.9328 29.8809 17.9658C29.9963 17.979 30.1183 17.9905 30.2386 17.9955C30.4118 18.275 30.6099 18.5382 30.8305 18.7819C30.7931 18.9226 30.7508 19.0655 30.7036 19.2106C30.3161 19.4793 27.1473 21.5896 23.5433 21.0818C19.6969 20.5394 17.4975 37.3561 17.4975 37.3561C17.355 38.3178 17.2855 39.2889 17.2898 40.2611C17.2733 42.7341 17.7927 45.9705 20.6861 45.494L22.2243 44.9879V53.3055C22.2243 53.3055 22.4436 55.584 21.6753 57.0975C20.907 58.611 24.094 58.0735 24.094 58.0735C24.094 58.0735 24.216 58.2005 24.4402 58.4165L24.3693 58.6159L24.4633 58.7116C24.0441 60.1445 23.479 61.5306 22.7766 62.8481L22.8673 62.8943C22.8096 63.0048 22.7766 63.0592 22.7766 63.0592C22.7766 63.0592 23.9604 63.6642 25.5893 64.4441C26.8984 68.8692 29.7638 79.1174 28.8208 81.0695L28.8471 81.1255C29.0235 81.4915 30.0095 83.6497 29.81 85.6265C29.6303 87.3939 32.0769 95.4246 32.9903 98.3412L32.5583 98.4285L34.0966 103.962L33.7668 107.543C33.7668 107.543 31.8989 112.533 36.2943 111.557C40.6897 110.581 39.4812 106.566 39.4812 106.566L39.5917 98.4285C39.5917 98.4285 39.1679 98.1928 38.6453 97.9669C38.2859 96.9958 37.5028 94.7008 37.5028 93.1132C37.5028 91.0523 36.0733 82.1543 36.0733 82.1543V82.1362V82.1016V82.0917L36.0651 81.973V81.9532C36.0651 81.8427 36.047 81.691 36.0338 81.5064V81.4965C35.8689 79.091 35.3743 70.9185 35.7354 66.6583C36.0529 66.4417 36.3832 66.2446 36.7246 66.068C37.7946 68.7719 40.5528 76.0772 40.3764 79.1422C40.1572 82.9341 40.322 79.9566 40.3764 79.4719C40.3929 79.3219 40.4045 79.5032 40.4094 79.9104C40.4094 79.9846 40.4094 80.0671 40.4094 80.1544C40.4094 80.2418 40.4094 80.3391 40.4094 80.4397C40.4094 80.5402 40.4094 80.6491 40.4094 80.7694C40.4094 80.8266 40.4094 80.8848 40.4094 80.9442C40.4094 81.0629 40.4094 81.1871 40.4094 81.3168C40.4094 81.3816 40.4094 81.4476 40.4094 81.5146C40.4094 81.8444 40.4094 82.2104 40.3979 82.5912C40.3979 82.6671 40.3979 82.744 40.3979 82.822C40.3979 83.0545 40.3979 83.2919 40.3863 83.5326C40.3863 83.8624 40.3731 84.1822 40.3665 84.5136C40.3501 85.2555 40.3286 86.0057 40.3022 86.708C40.3022 86.786 40.2995 86.8635 40.294 86.9405C40.2885 87.0943 40.2825 87.2449 40.2759 87.3922C40.2693 87.5395 40.2627 87.6835 40.2561 87.8242C40.2495 87.9638 40.2423 88.0995 40.2346 88.2314C40.2264 88.3864 40.2165 88.5348 40.2083 88.6765L39.6114 88.5908L39.4845 89.9625C39.2845 92.1403 39.5659 94.3355 40.3088 96.3924C40.5133 96.9563 40.6715 97.4228 40.7062 97.5894C40.8166 98.1318 40.7062 102.041 40.7062 102.041C40.7062 102.041 41.3657 107.14 44.4438 106.163C45.8287 105.722 46.5013 104.384 46.8228 103.042C47.1795 101.486 47.0465 99.8579 46.442 98.3807C46.0051 97.2827 45.5583 95.7428 45.8732 94.5525C46.4222 92.4916 46.4222 89.5619 46.4222 89.5619L46.0826 89.5141C46.1672 89.3532 46.2437 89.1881 46.3117 89.0195C46.3117 89.0195 46.2013 81.5328 47.1905 80.5567C47.7345 80.0193 47.6851 78.7283 47.5202 77.6732C47.2847 76.1462 47.2294 74.5968 47.3553 73.0568C47.4229 72.2638 47.5202 71.573 47.634 71.3274C47.9241 70.7536 48.2143 64.97 46.93 62.187L47.1938 62.1046L47.1526 61.9001L47.1938 61.887C47.3875 62.404 47.6076 62.9109 47.8533 63.4054C47.9181 63.4563 47.9928 63.4933 48.0725 63.5142C51.632 62.8894 51.7755 59.5672 51.5776 57.7537C51.7277 57.8262 51.8101 57.8724 51.8101 57.8724L52.1399 53.0912C52.4778 52.3278 52.6031 51.3535 52.5949 50.3C52.6097 46.5343 50.8028 41.5949 50.8028 41.5949ZM46.8789 55.185C46.6349 53.1027 46.2969 51.1424 46.2969 51.1424L44.6482 45.283V43.1496L47.263 52.9098L46.8789 55.185Z" fill="url(#paint0_linear)"/>
</g>
<path id="Vector_8" d="M39.4663 87.191L39.3443 88.5314C39.1518 90.6612 39.4246 92.8073 40.1439 94.8212C40.3401 95.3735 40.4935 95.8285 40.5264 95.9917C40.632 96.5226 40.5264 100.339 40.5264 100.339C40.5264 100.339 41.1628 105.323 44.1321 104.369C45.4676 103.94 46.1106 102.629 46.4271 101.319C46.7703 99.7986 46.6414 98.2099 46.0578 96.765C45.6357 95.6917 45.2038 94.1831 45.5088 93.0241C46.0397 91.0094 46.0397 88.1473 46.0397 88.1473L39.4663 87.191Z" fill="#5A5773"/>
<path id="Vector_9" d="M36.286 64.1819C36.286 64.1819 40.4209 74.2554 40.2083 77.965C39.9956 81.6745 40.1555 78.7597 40.2083 78.2832C40.3022 77.4341 40.2083 87.5159 39.8901 88.67C39.8901 88.67 44.2377 91.8503 45.9342 87.6098C45.9342 87.6098 45.8287 80.2946 46.7816 79.34C47.3059 78.8157 47.2548 77.5528 47.0998 76.5224C46.8711 75.0318 46.8157 73.5198 46.9349 72.0165C46.9992 71.2416 47.0883 70.5591 47.2037 70.3266C47.5219 69.6902 47.8401 62.4805 45.9309 60.4658L36.286 64.1819Z" fill="#605D82"/>
<path id="Vector_10" opacity="0.1" d="M40.421 88.6749C40.7392 87.5092 40.8332 77.4341 40.7392 78.2881C40.6864 78.7646 40.5265 81.6811 40.7392 77.9699C40.9519 74.2587 36.8169 64.1868 36.8169 64.1868L46.0678 60.629C46.0249 60.5746 45.9804 60.5235 45.9359 60.4756L36.2877 64.1868C36.2877 64.1868 40.4226 74.2604 40.21 77.9699C39.9973 81.6795 40.1572 78.7646 40.21 78.2881C40.3039 77.439 40.21 87.5208 39.8918 88.6749C39.8918 88.6749 41.6278 89.9444 43.3342 89.8092C41.8158 89.6954 40.421 88.6749 40.421 88.6749Z" fill="black"/>
<path id="Vector_11" d="M32.6804 96.8392L34.1642 102.247L33.846 105.745C33.846 105.745 32.044 110.622 36.2845 109.668C40.5249 108.713 39.3593 104.791 39.3593 104.791L39.4648 96.8392C39.4648 96.8392 37.7683 95.8846 37.0264 95.9918C36.2845 96.099 32.6804 96.8392 32.6804 96.8392Z" fill="#5A5773"/>
<path id="Vector_12" d="M25.3651 61.638C25.3651 61.638 30.2419 77.4358 29.0763 79.8742C29.0763 79.8742 30.2419 82.2071 30.0309 84.3256C29.8199 86.4442 33.4239 97.7905 33.4239 97.7905L38.7261 96.8359C38.7261 96.8359 37.4533 93.6556 37.4533 91.6409C37.4533 89.6262 36.075 80.9244 36.075 80.9244C36.075 80.9244 34.9094 65.0195 36.2877 63.323L25.3651 61.638Z" fill="#605D82"/>
<g id="Group_2" opacity="0.1">
<path id="Vector_13" opacity="0.1" d="M35.8755 64.6155C34.9968 68.2163 35.9679 81.4668 35.9679 81.4668C35.9679 81.4668 37.3462 90.1604 37.3462 92.1833C37.3462 93.7215 38.0865 95.9374 38.4376 96.9002L38.7245 96.8491C38.7245 96.8491 37.4517 93.6688 37.4517 91.6541C37.4517 89.6394 36.0734 80.9376 36.0734 80.9376C36.0734 80.9376 35.1864 68.8279 35.8755 64.6155Z" fill="black"/>
<path id="Vector_14" opacity="0.1" d="M29.0763 79.8741L29.1027 79.9285C29.1109 79.8741 29.1192 79.8164 29.1241 79.7637C29.1101 79.8013 29.0941 79.8382 29.0763 79.8741Z" fill="black"/>
<path id="Vector_15" opacity="0.1" d="M36.047 63.8439C36.0952 63.6611 36.1762 63.4884 36.286 63.3345L25.3651 61.638C25.3651 61.638 25.4294 61.8441 25.5399 62.2117L36.047 63.8439Z" fill="black"/>
</g>
<path id="Vector_16" d="M50.8111 55.9121C50.8111 55.9121 52.4021 61.8473 47.6307 62.6981C47.5533 62.6779 47.4809 62.642 47.4181 62.5926C47.4181 62.5926 44.6614 57.1849 46.7817 55.0646L50.8111 55.9121Z" fill="#A1616A"/>
<path id="Vector_17" d="M31.3021 16.4738C31.3021 16.4738 31.6203 20.9252 28.1218 23.0471C24.6232 25.169 35.5409 30.9987 35.5409 30.9987L41.2668 21.8798C41.2668 21.8798 38.83 22.1947 37.3462 17.9576L31.3021 16.4738Z" fill="#A1616A"/>
<path id="Vector_18" opacity="0.1" d="M28.9692 23.3619C28.9692 23.3619 34.3769 34.6011 39.2537 23.9983L46.7817 61.3181C46.7817 61.3181 35.1172 64.9238 35.0133 66.6203C34.9094 68.3168 23.2466 62.2743 23.2466 62.2743C23.2466 62.2743 25.7905 57.6086 25.1558 54.7464C24.521 51.8843 28.9692 23.3619 28.9692 23.3619Z" fill="black"/>
<path id="Vector_19" d="M28.9692 23.1493C28.9692 23.1493 34.3769 34.3884 39.2537 23.7857L46.7817 61.1071C46.7817 61.1071 35.1172 64.7128 35.0133 66.4093C34.9094 68.1058 23.2466 62.0617 23.2466 62.0617C23.2466 62.0617 25.7905 57.3959 25.1558 54.5338C24.521 51.6716 28.9692 23.1493 28.9692 23.1493Z" fill="#E1E7EF"/>
<path id="Vector_20" d="M34.2714 99.8085C34.2714 99.8085 32.8931 96.7336 36.0734 96.7336C39.2537 96.7336 38.7245 99.4903 38.7245 99.4903L34.2714 99.8085Z" fill="#5A5773"/>
<path id="Vector_21" d="M41.481 91.8552C41.481 91.8552 40.2082 88.5677 43.3902 88.4622C46.5722 88.3567 44.9812 91.4298 44.9812 91.4298L41.481 91.8552Z" fill="#5A5773"/>
<path id="Vector_22" opacity="0.1" d="M38.7772 20.7603C38.7772 20.7603 42.0103 22.409 43.1776 22.1914C44.3449 21.9737 47.418 23.9934 47.207 28.0228L49.1228 34.0339C49.8891 36.4442 50.2784 38.9585 50.2768 41.4877C50.2768 41.4877 53.0335 49.1211 51.5496 52.5141L51.2314 57.1799C51.2314 57.1799 48.793 55.8016 46.2474 56.2253L46.8888 52.4152L44.0201 41.5981L39.2487 30.0408L38.7772 20.7603Z" fill="black"/>
<path id="Vector_23" d="M38.7772 20.551C38.7772 20.551 42.0103 22.1997 43.1776 21.982C44.3449 21.7644 47.418 23.784 47.207 27.8135L49.1228 33.8246C49.8891 36.2349 50.2784 38.7491 50.2768 41.2783C50.2768 41.2783 53.0335 48.9118 51.5496 52.3048L51.2314 56.9706C51.2314 56.9706 48.793 55.5923 46.2474 56.016L46.8838 52.1993L44.0201 41.3855L39.2537 29.8282L38.7772 20.551Z" fill="#67647E"/>
<path id="Vector_24" opacity="0.1" d="M44.1322 33.4338V45.4149L45.7232 51.1408C45.7232 51.1408 46.7833 57.3959 46.4651 59.3051C46.1469 61.2143 41.0574 61.638 39.6791 60.047C38.3007 58.456 39.0427 44.879 39.0427 44.879L38.7772 25.0041L38.9899 24.3677L44.1322 33.4338Z" fill="black"/>
<path id="Vector_25" d="M44.3498 32.9046V44.8856L45.9408 50.6115C45.9408 50.6115 47.0009 56.8666 46.6827 58.7758C46.3645 60.685 41.275 61.1087 39.8967 59.5177C38.5184 57.9267 39.2603 44.3498 39.2603 44.3498L38.9949 24.4698L44.3498 32.9046Z" fill="#67647E"/>
<path id="Vector_26" opacity="0.1" d="M22.9795 42.8709L26.3725 53.4225L24.7815 57.9284C24.7815 57.9284 32.3094 65.88 37.0807 62.0633C37.0807 62.0633 37.6116 45.8402 36.5499 42.0235C35.4881 38.2068 30.4003 25.3717 30.4003 25.3717L29.3467 21.9836L23.728 25.164L22.9795 42.8709Z" fill="black"/>
<path id="Vector_27" d="M22.7141 42.34V52.7268C22.7141 52.7268 22.9268 54.9542 22.1832 56.438C21.4396 57.9218 24.5161 57.3926 24.5161 57.3926C24.5161 57.3926 32.044 65.3442 36.8153 61.5275C36.8153 61.5275 37.3462 45.3044 36.2845 41.4877C35.2227 37.6709 30.1348 24.8359 30.1348 24.8359L29.0747 21.4429L23.456 24.6232L22.7141 42.34Z" fill="#67647E"/>
<path id="Vector_28" opacity="0.1" d="M30.9311 19.598C30.9311 19.598 27.698 21.9836 23.9868 21.4527C20.2756 20.9219 18.1553 37.3577 18.1553 37.3577C18.1553 37.3577 16.777 45.8402 21.2302 45.0983L31.091 41.8108C31.091 41.8108 28.9708 39.5834 29.289 36.7213L24.516 38.6288L24.7303 29.5115L30.9311 19.598Z" fill="black"/>
<path id="Vector_29" opacity="0.1" d="M18.3664 37.145C18.3664 37.145 16.9881 45.6275 21.4412 44.8856L31.302 41.5981C31.302 41.5981 29.1818 39.3724 29.5 36.5086L24.7304 38.4178L18.3664 37.145Z" fill="black"/>
<path id="Vector_30" d="M29.2659 37.6264C29.2659 37.6264 32.5748 33.2755 35.0116 35.3644C37.4483 37.4533 30.1397 41.2816 30.1397 41.2816L29.2659 37.6264Z" fill="#A1616A"/>
<path id="Vector_31" d="M30.9311 19.3853C30.9311 19.3853 27.698 21.771 23.9868 21.2401C20.2756 20.7092 18.1553 37.145 18.1553 37.145C18.1553 37.145 16.777 45.6275 21.2302 44.8856L31.091 41.5981C31.091 41.5981 28.9708 39.3708 29.289 36.5086L24.516 38.4178L24.7303 29.2989L30.138 24.8474L30.9311 19.3853Z" fill="#67647E"/>
<path id="Vector_32" opacity="0.1" d="M37.4517 18.1653L31.4076 16.6815C31.4076 16.6815 31.7225 17.0376 31.3549 18.4307C32.3276 19.5469 33.5229 21.0291 35.1188 21.0291C36.2609 21.0312 37.3729 20.6627 38.2876 19.9788C37.9463 19.4053 37.6661 18.7974 37.4517 18.1653Z" fill="black"/>
<path id="Vector_33" d="M35.0132 20.818C37.9416 20.818 40.3154 18.4441 40.3154 15.5158C40.3154 12.5875 37.9416 10.2136 35.0132 10.2136C32.0849 10.2136 29.7111 12.5875 29.7111 15.5158C29.7111 18.4441 32.0849 20.818 35.0132 20.818Z" fill="#A1616A"/>
<path id="Vector_34" opacity="0.1" d="M37.023 13.2143C38.2529 13.0049 39.6048 12.4592 40.017 11.282C40.2808 10.5285 40.0797 9.67123 39.6493 9.00021C39.219 8.32919 38.5859 7.81315 37.9331 7.35152C36.873 6.60631 35.704 5.96662 34.4279 5.74239C34.2079 5.68979 33.9786 5.68979 33.7586 5.74239C33.5672 5.82071 33.3853 5.92026 33.2162 6.03916C32.344 6.54201 31.2592 6.32438 30.2485 6.27162C29.2379 6.21887 28.0261 6.50409 27.7079 7.45868C27.609 7.7538 27.6156 8.072 27.543 8.37536C27.3781 9.11727 26.8192 9.69431 26.3889 10.3126C25.9586 10.9308 25.6272 11.7667 25.9899 12.4328C26.1136 12.6587 26.3197 12.8664 26.3197 13.1236C26.2879 13.3064 26.2324 13.4843 26.1548 13.6528C26.0048 14.2002 26.4417 14.7525 26.9462 15.013C27.4507 15.2735 28.031 15.3543 28.5454 15.5966C29.0269 15.8342 29.43 16.2051 29.7067 16.6651C29.9835 17.1251 30.1224 17.655 30.1067 18.1917C30.5749 18.2461 31.1207 18.2741 31.4372 17.9246C31.579 17.7679 31.6482 17.5586 31.7768 17.392C31.9417 17.1744 32.1989 17.0458 32.4099 16.8711C33.5195 15.9593 32.7314 14.6997 33.3596 13.7171C33.6893 13.211 34.2136 13.3659 34.7445 13.3742C35.5073 13.392 36.2701 13.3385 37.023 13.2143Z" fill="black"/>
<path id="Vector_35" d="M36.9175 13.1087C38.1474 12.8994 39.4994 12.3536 39.9115 11.1765C40.1753 10.423 39.9742 9.5657 39.5439 8.89468C39.1136 8.22366 38.4805 7.70762 37.8276 7.24599C36.7675 6.50078 35.5986 5.86109 34.3225 5.63687C34.1025 5.58426 33.8731 5.58426 33.6531 5.63687C33.4618 5.71518 33.2798 5.81473 33.1107 5.93363C32.2385 6.43648 31.1537 6.21885 30.143 6.1661C29.1324 6.11334 27.9206 6.39856 27.6024 7.35315C27.5035 7.64827 27.5101 7.96647 27.4375 8.26983C27.2727 9.01174 26.7138 9.58878 26.2835 10.207C25.8532 10.8253 25.5218 11.6612 25.8845 12.3273C26.0081 12.5531 26.2142 12.7609 26.2142 13.0181C26.1824 13.2009 26.127 13.3788 26.0493 13.5473C25.8993 14.0947 26.3362 14.647 26.8407 14.9075C27.3452 15.168 27.9256 15.2487 28.4399 15.4911C28.9234 15.7284 29.3282 16.1 29.6059 16.5614C29.8837 17.0228 30.0227 17.5544 30.0062 18.0927C30.4744 18.1471 31.0201 18.1752 31.3367 17.8256C31.4785 17.669 31.5477 17.4596 31.6763 17.2931C31.8412 17.0755 32.0984 16.9469 32.3094 16.7721C33.419 15.8604 32.6309 14.6008 33.2591 13.6182C33.5888 13.112 34.1131 13.267 34.644 13.2753C35.4054 13.2906 36.1665 13.2349 36.9175 13.1087Z" fill="#4A4347"/>
<path id="Vector_36" opacity="0.1" d="M43.3358 30.9426C43.3358 30.9426 44.5014 36.9867 43.9722 39.3196C43.6489 40.6768 43.6967 42.0959 44.1107 43.4282" fill="black"/>
<path id="Vector_37" opacity="0.1" d="M24.493 33.4866C24.493 33.4866 23.9852 37.516 24.8309 38.3634L24.493 33.4866Z" fill="black"/>
<path id="Vector_38" d="M54.0985 83.1435C54.1641 83.1435 54.227 83.1174 54.2734 83.071C54.3197 83.0247 54.3458 82.9618 54.3458 82.8962C54.3458 82.8306 54.3197 82.7677 54.2734 82.7213C54.227 82.6749 54.1641 82.6489 54.0985 82.6489C54.0329 82.6489 53.97 82.6749 53.9236 82.7213C53.8772 82.7677 53.8512 82.8306 53.8512 82.8962C53.8512 82.9618 53.8772 83.0247 53.9236 83.071C53.97 83.1174 54.0329 83.1435 54.0985 83.1435Z" fill="black"/>
<g id="Group_3" opacity="0.5">
<path id="Vector_39" opacity="0.5" d="M130.247 54.3326V54.1958L85.2637 19.6062C85.2354 19.5852 85.201 19.5739 85.1657 19.5739C85.1303 19.5739 85.0959 19.5852 85.0676 19.6062L40.083 54.1958V107.811H40.1687V107.897H130.334V54.2815L130.247 54.3326Z" fill="url(#paint1_linear)"/>
</g>
<path id="Vector_40" d="M128.693 106.316H41.6426V54.5469L85.168 21.0785L128.693 54.5469V106.316Z" fill="white"/>
<path id="Vector_41" d="M125.561 103.248H44.7751V55.2048L85.1681 24.1451L125.561 55.2048V103.248Z" fill="#E0E0E0"/>
<path id="Vector_42" d="M98.8716 23.4273L49.5923 36.3463L66.0232 99.0219L115.303 86.1029L98.8716 23.4273Z" fill="#6B29F8"/>
<path id="Vector_43" d="M110.888 32.9491H59.9431V97.7427H110.888V32.9491Z" fill="#F5F5F5"/>
<path id="Vector_44" opacity="0.05" d="M42.0548 54.6294L85.5803 80.5139L42.0548 106.398V54.6294Z" fill="black"/>
<path id="Vector_45" d="M41.7251 54.6294L85.2505 80.5139L41.7251 106.398V54.6294Z" fill="white"/>
<path id="Vector_46" opacity="0.05" d="M128.446 54.6294L84.9208 80.5139L128.446 106.398V54.6294Z" fill="black"/>
<path id="Vector_47" d="M128.776 54.6294L85.2505 80.5139L128.776 106.398V54.6294Z" fill="white"/>
<path id="Vector_48" opacity="0.05" d="M41.7251 105.574L85.2505 71.611L128.776 105.574H41.7251Z" fill="black"/>
<path id="Vector_49" d="M41.7251 106.398L85.2505 72.4353L128.776 106.398H41.7251Z" fill="white"/>
<path id="Vector_50" d="M50.5704 110.33C50.5704 110.33 48.3842 102.911 50.9809 97.4476C52.0842 95.1636 52.4169 92.5834 51.9289 90.0944C51.6882 88.9148 51.34 87.7597 50.8886 86.6437" stroke="#535461" stroke-width="2" stroke-miterlimit="10"/>
<path id="Vector_51" d="M52.5026 83.1914C52.5026 84.1014 50.8539 86.7377 50.8539 86.7377C50.8539 86.7377 49.2052 84.0998 49.2052 83.1914C49.2052 82.7541 49.3789 82.3347 49.6881 82.0256C49.9973 81.7164 50.4166 81.5427 50.8539 81.5427C51.2911 81.5427 51.7105 81.7164 52.0197 82.0256C52.3289 82.3347 52.5026 82.7541 52.5026 83.1914Z" fill="#6B29F8"/>
<path id="Vector_52" d="M55.2311 88.2297C54.7365 88.993 51.9205 90.312 51.9205 90.312C51.9205 90.312 51.9716 87.2026 52.4662 86.4392C52.7128 86.094 53.083 85.857 53.4998 85.7778C53.9166 85.6985 54.3479 85.7829 54.7041 86.0136C55.0602 86.2442 55.3137 86.6032 55.4118 87.016C55.51 87.4287 55.4453 87.8635 55.2311 88.2297Z" fill="#6B29F8"/>
<path id="Vector_53" d="M55.1058 96.8375C54.293 97.2464 51.1968 96.9645 51.1968 96.9645C51.1968 96.9645 52.8108 94.3068 53.622 93.8979C53.8161 93.7893 54.0303 93.7211 54.2514 93.6974C54.4726 93.6737 54.6963 93.6951 54.9091 93.7601C55.1218 93.8252 55.3192 93.9326 55.4893 94.0759C55.6594 94.2193 55.7988 94.3955 55.899 94.5942C55.9992 94.7928 56.0581 95.0096 56.0723 95.2316C56.0865 95.4536 56.0556 95.6762 55.9815 95.8859C55.9074 96.0957 55.7916 96.2883 55.6411 96.4521C55.4906 96.6159 55.3085 96.7476 55.1058 96.8392V96.8375Z" fill="#6B29F8"/>
<path id="Vector_54" d="M53.5494 103.332C52.8174 103.873 49.7179 104.117 49.7179 104.117C49.7179 104.117 50.8588 101.225 51.5908 100.684C51.943 100.449 52.3721 100.358 52.7892 100.431C53.2063 100.504 53.5795 100.735 53.8313 101.075C54.0831 101.415 54.1942 101.84 54.1418 102.26C54.0893 102.68 53.8772 103.064 53.5494 103.332Z" fill="#6B29F8"/>
<path id="Vector_55" d="M48.4567 90.4868C49.1162 91.1199 52.1481 91.7777 52.1481 91.7777C52.1481 91.7777 51.4045 88.7589 50.7517 88.1258C50.4341 87.8451 50.0206 87.6975 49.5971 87.7137C49.1736 87.7298 48.7725 87.9084 48.4772 88.2124C48.1819 88.5164 48.015 88.9225 48.0112 89.3463C48.0074 89.7701 48.1669 90.1791 48.4567 90.4884V90.4868Z" fill="#6B29F8"/>
<path id="Vector_56" d="M46.7321 98.1054C47.5449 98.5143 50.6412 98.2323 50.6412 98.2323C50.6412 98.2323 49.0271 95.5746 48.216 95.1658C47.8286 94.9908 47.3887 94.9721 46.9879 95.1137C46.5872 95.2553 46.2566 95.5462 46.0651 95.9256C45.8737 96.3051 45.8362 96.7439 45.9605 97.1503C46.0848 97.5568 46.3612 97.8995 46.7321 98.107V98.1054Z" fill="#6B29F8"/>
<path id="Vector_57" d="M46.0727 105.739C46.8047 106.28 49.9043 106.524 49.9043 106.524C49.9043 106.524 48.7634 103.632 48.0313 103.091C47.8585 102.95 47.6588 102.845 47.4443 102.783C47.2298 102.721 47.0049 102.704 46.7834 102.731C46.5619 102.759 46.3483 102.831 46.1555 102.944C45.9628 103.057 45.795 103.207 45.6622 103.387C45.5295 103.566 45.4345 103.771 45.3832 103.988C45.3318 104.205 45.3252 104.431 45.3635 104.651C45.4019 104.871 45.4846 105.081 45.6065 105.268C45.7284 105.455 45.887 105.615 46.0727 105.739Z" fill="#6B29F8"/>
<path id="latest-news-1" opacity="0.5" d="M83.3545 35.9167H62.9108V37.5654H83.3545V35.9167Z" fill="#6B29F8"/>
<path id="latest-news-2" opacity="0.5" d="M107.096 42.5115H62.9108V44.1602H107.096V42.5115Z" fill="#6B29F8"/>
<path id="latest-news-3" opacity="0.5" d="M107.096 46.7981H62.9108V48.4468H107.096V46.7981Z" fill="#6B29F8"/>
<path id="Vector_58" opacity="0.4" d="M107.096 51.0847H62.9108V52.7334H107.096V51.0847Z" fill="#6B29F8"/>
<path id="Vector_59" opacity="0.4" d="M107.096 55.3713H62.9108V57.02H107.096V55.3713Z" fill="#6B29F8"/>
<path id="Vector_60" opacity="0.3" d="M88.1358 59.6579H62.9108V61.3066H88.1358V59.6579Z" fill="#6B29F8"/>
<path id="Vector_61" opacity="0.3" d="M97.3684 63.9445H62.9108V65.5932H97.3684V63.9445Z" fill="#6B29F8"/>
</g>
<defs>
<linearGradient id="paint0_linear" x1="17.2915" y1="58.3934" x2="52.5768" y2="58.3934" gradientUnits="userSpaceOnUse">
<stop stop-color="#808080" stop-opacity="0.25"/>
<stop offset="0.54" stop-color="#808080" stop-opacity="0.12"/>
<stop offset="1" stop-color="#808080" stop-opacity="0.1"/>
</linearGradient>
<linearGradient id="paint1_linear" x1="57514.6" y1="65427.2" x2="57514.6" y2="18108.1" gradientUnits="userSpaceOnUse">
<stop stop-color="#808080" stop-opacity="0.25"/>
<stop offset="0.54" stop-color="#808080" stop-opacity="0.12"/>
<stop offset="1" stop-color="#808080" stop-opacity="0.1"/>
</linearGradient>
<clipPath id="clip0">
<rect width="158.311" height="120" fill="white"/>
</clipPath>
</defs>
</svg>
