<svg width="50" height="50" viewBox="0 0 50 50" fill="none" xmlns="http://www.w3.org/2000/svg">
<circle cx="25" cy="25" r="17.5" stroke="#6B29F8" stroke-width="5"/>
<circle cx="8" cy="25" r="6.5" fill="#6B29F8" stroke="white" stroke-width="3"/>
<circle cx="25" cy="42" r="6.5" fill="#6B29F8" stroke="white" stroke-width="3"/>
<circle cx="25" cy="8" r="6.5" fill="#6B29F8" stroke="white" stroke-width="3"/>
<circle cx="42" cy="25" r="6.5" fill="#6B29F8" stroke="white" stroke-width="3"/>
<path d="M18.684 32C18.612 32 18.576 31.928 18.576 31.784C18.576 31.616 18.618 31.46 18.702 31.316C18.798 31.172 18.942 31.016 19.134 30.848C19.326 30.656 19.464 30.506 19.548 30.398C19.632 30.29 19.704 30.134 19.764 29.93C19.836 29.726 19.92 29.414 20.016 28.994L21.654 21.11H21.546C21.486 21.11 21.36 21.098 21.168 21.074C20.928 21.026 20.676 21.002 20.412 21.002C20.064 21.002 19.77 21.05 19.53 21.146C19.302 21.242 19.092 21.416 18.9 21.668C18.84 21.752 18.78 21.824 18.72 21.884C18.66 21.932 18.606 21.956 18.558 21.956C18.45 21.956 18.396 21.896 18.396 21.776C18.396 21.656 18.408 21.56 18.432 21.488C18.552 20.876 18.846 20.396 19.314 20.048C19.782 19.688 20.37 19.508 21.078 19.508C21.222 19.508 21.45 19.52 21.762 19.544C22.038 19.58 22.326 19.598 22.626 19.598C22.734 19.598 23.004 19.58 23.436 19.544C23.652 19.52 23.802 19.508 23.886 19.508C23.862 19.82 23.85 20.09 23.85 20.318C23.85 20.762 23.904 21.278 24.012 21.866C24.12 22.442 24.294 23.252 24.534 24.296L25.092 26.69C25.176 26.93 25.23 27.14 25.254 27.32C26.49 25.088 27.306 23.588 27.702 22.82C28.11 22.04 28.452 21.35 28.728 20.75C28.872 20.462 28.986 20.222 29.07 20.03C29.55 19.046 29.982 18.302 30.366 17.798C30.762 17.294 31.23 16.91 31.77 16.646C32.13 16.466 32.514 16.346 32.922 16.286C33.33 16.226 33.804 16.196 34.344 16.196C34.62 16.196 34.824 16.172 34.956 16.124C35.04 16.1 35.112 16.076 35.172 16.052C35.232 16.028 35.28 16.016 35.316 16.016C35.412 16.016 35.46 16.082 35.46 16.214C35.46 16.466 35.31 16.712 35.01 16.952C34.71 17.192 34.392 17.312 34.056 17.312C33.66 17.324 33.336 17.348 33.084 17.384C32.832 17.42 32.586 17.492 32.346 17.6C31.89 17.816 31.542 18.206 31.302 18.77C31.062 19.334 30.864 20.174 30.708 21.29C30.624 21.806 30.546 22.382 30.474 23.018C30.414 23.654 30.354 24.314 30.294 24.998C30.138 26.75 29.988 28.208 29.844 29.372C29.832 29.6 29.784 29.81 29.7 30.002C29.628 30.182 29.538 30.32 29.43 30.416V30.434C29.67 30.554 29.91 30.614 30.15 30.614C30.318 30.614 30.486 30.584 30.654 30.524C30.834 30.452 30.948 30.416 30.996 30.416C31.044 30.416 31.074 30.428 31.086 30.452C31.11 30.476 31.122 30.524 31.122 30.596C31.122 30.752 31.05 30.908 30.906 31.064C30.426 31.688 29.958 32 29.502 32C29.334 32 29.1 31.958 28.8 31.874C28.764 31.862 28.65 31.832 28.458 31.784C28.266 31.736 28.074 31.712 27.882 31.712C27.63 31.712 27.39 31.76 27.162 31.856C26.946 31.952 26.814 32 26.766 32C26.682 32 26.64 31.928 26.64 31.784C26.64 31.46 26.832 31.148 27.216 30.848L27.54 30.596C27.684 30.488 27.78 30.404 27.828 30.344C27.888 30.272 27.924 30.164 27.936 30.02L27.972 29.642C28.164 27.554 28.296 26.24 28.368 25.7C28.44 25.148 28.518 24.494 28.602 23.738H28.584C28.08 24.542 27.558 25.472 27.018 26.528C26.478 27.584 26.04 28.544 25.704 29.408C25.44 29.852 25.128 30.284 24.768 30.704C24.42 31.124 24.18 31.334 24.048 31.334C24.012 31.334 23.982 31.316 23.958 31.28C23.946 31.232 23.94 31.172 23.94 31.1C23.844 30.236 23.766 29.606 23.706 29.21C23.658 28.802 23.544 28.19 23.364 27.374C23.28 27.014 23.154 26.486 22.986 25.79C22.83 25.094 22.716 24.554 22.644 24.17L22.626 24.152L21.528 29.606C21.516 29.642 21.474 29.774 21.402 30.002C21.342 30.218 21.264 30.368 21.168 30.452V30.488C21.396 30.572 21.612 30.614 21.816 30.614C21.996 30.614 22.152 30.584 22.284 30.524C22.428 30.452 22.524 30.416 22.572 30.416C22.668 30.416 22.716 30.476 22.716 30.596C22.716 30.704 22.644 30.86 22.5 31.064C22.236 31.424 22.008 31.67 21.816 31.802C21.624 31.934 21.408 32 21.168 32C21 32 20.796 31.952 20.556 31.856C20.268 31.76 20.028 31.712 19.836 31.712C19.56 31.712 19.308 31.76 19.08 31.856C18.852 31.952 18.72 32 18.684 32Z" fill="#6B29F8"/>
</svg>
