<svg width="200" height="120" viewBox="0 0 200 120" fill="none" xmlns="http://www.w3.org/2000/svg">
<g id="my reservations logo" clip-path="url(#clip0)">
<path id="Vector" d="M45.5085 120C60.701 120 73.0169 118.555 73.0169 116.773C73.0169 114.99 60.701 113.545 45.5085 113.545C30.316 113.545 18 114.99 18 116.773C18 118.555 30.316 120 45.5085 120Z" fill="#E6E6E6"/>
<path id="Vector_2" d="M52.5222 31.2193C52.5082 31.2881 52.4942 31.3549 52.4781 31.4236C51.7451 34.4927 51.9073 37.5991 52.8186 40.737H37.5974L40.0008 29.952C40.0001 29.1636 40.172 28.3843 40.5047 27.6667C40.8374 26.9491 41.3233 26.31 41.9295 25.7924C42.0316 25.704 42.1378 25.6176 42.2479 25.539C43.2217 24.8166 44.4098 24.4267 45.6306 24.4288H46.9364C47.7228 24.4276 48.5014 24.582 49.2256 24.8827C49.3478 24.9338 49.468 24.9888 49.5841 25.0478C52.1076 25.9084 53.6277 28.4567 53.3213 31.0896C52.9568 34.2216 53.4876 37.2887 54.7633 40.3008L53.9682 40.3911C52.6964 37.3928 52.1657 34.3395 52.5222 31.2193Z" fill="#2F2E41"/>
<path id="Vector_3" d="M43.3054 32.7794C43.3054 32.7794 44.5071 37.8879 42.1037 38.2809C39.7004 38.6739 48.3123 39.8528 48.3123 39.8528C48.3123 39.8528 47.7115 35.7266 49.1135 34.3512L43.3054 32.7794Z" fill="#FBBEBE"/>
<path id="Vector_4" d="M33.2787 68.1338C33.2787 68.1338 32.7877 74.1418 34.8771 74.2226C36.9664 74.3034 35.8059 68.3068 35.8059 68.3068L33.2787 68.1338Z" fill="#FBBEBE"/>
<path id="Vector_5" d="M61.1302 71.0936C61.1302 71.0936 63.1329 76.7916 61.1302 77.3811C59.1274 77.9705 58.7268 71.8796 58.7268 71.8796L61.1302 71.0936Z" fill="#FBBEBE"/>
<path id="Vector_6" d="M50.5154 42.7999L53.3342 42.3779L54.5211 43.193L55.5224 46.1401L57.9258 58.1258L59.7283 65.985L62.5321 71.4866L57.9258 73.4514L53.5195 59.3046L50.5154 42.7999Z" fill="#6B29F8"/>
<path id="Vector_7" d="M39.4 57.438C39.4 57.438 38.1983 65.2973 38.9994 66.8692C38.9994 66.8692 37.5087 75.9932 36.3958 81.9984L34.7936 90.6437L31.1885 103.808L36.9966 105.38L48.8131 73.1566L52.2178 91.2331L52.8186 104.201L59.0273 104.005L58.2261 81.4089C58.2261 81.4089 61.8312 66.4762 55.6225 60.9747C49.4139 55.4731 48.4125 55.4731 48.4125 55.4731L39.4 57.438Z" fill="#2F2E41"/>
<path id="Vector_8" d="M57.1246 103.415L58.7268 108.72L59.7282 113.436C59.7282 113.436 63.3332 118.741 59.7282 118.151C56.1232 117.562 55.7226 115.597 55.7226 115.597V114.418L54.7212 113.829V111.864C54.7212 111.864 53.3193 110.881 54.7212 109.31L54.1204 103.808L57.1246 103.415Z" fill="#2F2E41"/>
<path id="Vector_9" d="M32.6906 103.415L31.0884 108.72L30.087 113.436C30.087 113.436 26.482 118.741 30.087 118.151C33.692 117.562 34.0926 115.597 34.0926 115.597V114.418L35.094 113.829V111.864C35.094 111.864 36.4959 110.881 35.094 109.31L35.6948 103.808L32.6906 103.415Z" fill="#2F2E41"/>
<path id="Vector_10" d="M47.1107 35.5301C49.876 35.5301 52.1177 33.3309 52.1177 30.618C52.1177 27.9051 49.876 25.7059 47.1107 25.7059C44.3454 25.7059 42.1037 27.9051 42.1037 30.618C42.1037 33.3309 44.3454 35.5301 47.1107 35.5301Z" fill="#FBBEBE"/>
<path id="Vector_11" d="M42.1037 37.2985C42.1037 37.2985 47.311 39.4598 48.7129 39.0668C50.1149 38.6739 50.5154 40.4422 50.5154 40.4422L54.521 43.193L53.3193 49.8734C53.3193 49.8734 54.3207 53.4101 53.119 55.7679C53.119 55.7679 56.3235 56.7503 55.1218 58.3222C55.1218 58.3222 57.3249 59.5011 56.1232 61.8589C56.1232 61.8589 50.1149 60.287 49.514 57.3398L43.3054 58.1257L38.8993 61.4659C38.8993 61.4659 36.6962 61.2694 37.4973 58.1257C37.9682 56.1786 37.899 54.1433 37.297 52.2312L35.094 38.4774L42.1037 37.2985Z" fill="#6B29F8"/>
<path id="Vector_12" d="M35.7572 38.2952L34.9575 38.5032C34.6787 38.5757 34.429 38.7296 34.2414 38.9446L33.9823 39.2416C33.7258 39.5355 33.5725 39.9026 33.545 40.2886L33.3668 42.7933L33.0851 54.9881L33.3376 63.0401L32.0209 69.0539L36.9813 69.8295L37.6517 55.0517L36.4118 38.7523C36.4061 38.6772 36.3836 38.6043 36.3459 38.5388C36.3083 38.4732 36.2563 38.4166 36.1939 38.373C36.1314 38.3294 36.0598 38.2998 35.9844 38.2863C35.9089 38.2729 35.8313 38.2759 35.7572 38.2952Z" fill="#6B29F8"/>
<path id="Vector_13" d="M48.092 40.1769C47.2698 38.2239 46.0513 36.1596 45.247 34.3068C44.692 32.1421 44.5525 30.2891 45.8089 29.3409C45.8089 27.2562 45.883 25.8965 44.1946 24.8827C43.7881 25.0566 43.404 25.2771 43.0503 25.5397L43.049 25.5389C42.9822 25.5866 42.9174 25.6377 42.8535 25.6898C42.8265 25.7116 42.8002 25.7342 42.7736 25.7565C42.7594 25.7686 42.7447 25.7802 42.7306 25.7924L42.7319 25.7933C42.1255 26.3105 41.6394 26.9495 41.3065 27.667C40.9735 28.3844 40.8015 29.1636 40.8019 29.9519V40.344H47.0105C46.8052 39.4662 46.5319 38.5566 46.2488 37.6501C46.697 38.5278 47.1378 39.4115 47.5012 40.2732L48.092 40.1769Z" fill="#2F2E41"/>
<path id="Vector_14" d="M52.8186 29.3409C50.1052 30.0873 47.0531 29.9643 43.8061 29.3409V25.4113H48.8131C49.8754 25.4113 50.8942 25.8253 51.6454 26.5622C52.3966 27.2992 52.8186 28.2987 52.8186 29.3409V29.3409Z" fill="#2F2E41"/>
<path id="Vector_15" d="M200 8.92926H75.761V84.8282H200V8.92926Z" fill="#E6E6E6"/>
<path id="Vector_16" d="M106.847 23.551H84.0922V38.0611H106.847V23.551Z" fill="white"/>
<path id="Vector_17" d="M135.121 23.551H112.366V38.0611H135.121V23.551Z" fill="white"/>
<path id="Vector_18" d="M163.395 23.551H140.64V38.0611H163.395V23.551Z" fill="white"/>
<path id="Vector_19" d="M191.669 23.551H168.914V38.0611H191.669V23.551Z" fill="white"/>
<path id="Vector_20" d="M106.847 44.0884H84.0922V58.5984H106.847V44.0884Z" fill="white"/>
<path id="Vector_21" d="M135.121 44.0884H112.366V58.5984H135.121V44.0884Z" fill="white"/>
<path id="Vector_22" d="M163.395 44.0884H140.64V58.5984H163.395V44.0884Z" fill="white"/>
<path id="Vector_23" d="M191.669 44.0884H168.914V58.5984H191.669V44.0884Z" fill="white"/>
<path id="Vector_24" d="M106.847 64.6257H84.0922V79.1358H106.847V64.6257Z" fill="white"/>
<path id="Vector_25" d="M135.121 64.6257H112.366V79.1358H135.121V64.6257Z" fill="white"/>
<path id="Vector_26" d="M163.395 64.6257H140.64V79.1358H163.395V64.6257Z" fill="white"/>
<path id="Vector_27" d="M191.669 64.6257H168.914V79.1358H191.669V64.6257Z" fill="white"/>
<path id="Vector_28" d="M108.3 17.8586C110.185 17.8586 111.713 16.3594 111.713 14.5101C111.713 12.6608 110.185 11.1616 108.3 11.1616C106.415 11.1616 104.887 12.6608 104.887 14.5101C104.887 16.3594 106.415 17.8586 108.3 17.8586Z" fill="white"/>
<path id="Vector_29" d="M164.731 17.8586C166.616 17.8586 168.144 16.3594 168.144 14.5101C168.144 12.6608 166.616 11.1616 164.731 11.1616C162.846 11.1616 161.318 12.6608 161.318 14.5101C161.318 16.3594 162.846 17.8586 164.731 17.8586Z" fill="white"/>
<path id="Vector_30" d="M109.665 0H106.935V15.403H109.665V0Z" fill="#E6E6E6"/>
<path id="Vector_31" d="M166.096 0H163.365V15.403H166.096V0Z" fill="#E6E6E6"/>
<path id="my-reservation-3" d="M185.437 30.806C185.436 32.0183 184.989 33.1894 184.178 34.1042C183.367 35.019 182.247 35.6161 181.024 35.7857C179.8 35.9552 178.555 35.6859 177.518 35.0272C176.481 34.3686 175.72 33.3647 175.377 32.2002C175.034 31.0357 175.13 29.7888 175.649 28.6884C176.167 27.5881 177.073 26.7084 178.2 26.2108C179.327 25.7133 180.599 25.6314 181.782 25.9802C182.966 26.329 183.981 27.085 184.642 28.1094C185.162 28.9164 185.437 29.8515 185.437 30.806Z" fill="#6B29F8"/>
<path id="Vector_32" d="M184.642 28.1094L179.577 33.0777C179.258 32.5942 177.485 30.3471 177.485 30.3471C177.712 30.1217 177.955 29.9117 178.211 29.7184L179.682 31.6422L184.049 27.3577C184.27 27.5894 184.469 27.841 184.642 28.1094Z" fill="white"/>
<path id="my-reservation-2" d="M128.889 51.3434C128.888 52.5556 128.441 53.7268 127.63 54.6416C126.819 55.5564 125.699 56.1534 124.476 56.323C123.252 56.4926 122.007 56.2233 120.97 55.5646C119.933 54.9059 119.172 53.9021 118.829 52.7376C118.485 51.5731 118.582 50.3261 119.101 49.2258C119.619 48.1255 120.525 47.2457 121.652 46.7482C122.779 46.2507 124.051 46.1688 125.234 46.5175C126.418 46.8663 127.433 47.6224 128.094 48.6468C128.613 49.4538 128.889 50.3888 128.889 51.3434Z" fill="#6B29F8"/>
<path id="Vector_33" d="M128.094 48.6468L123.029 53.615C122.71 53.1315 120.937 50.8845 120.937 50.8845C121.164 50.6591 121.407 50.449 121.663 50.2557L123.133 52.1795L127.501 47.8951C127.722 48.1267 127.921 48.3784 128.094 48.6468Z" fill="white"/>
<path id="my-reservation-1" d="M100.615 51.3434C100.614 52.5557 100.167 53.7268 99.3559 54.6416C98.5452 55.5564 97.4251 56.1535 96.2016 56.323C94.978 56.4926 93.7332 56.2233 92.6958 55.5646C91.6585 54.9059 90.8982 53.9021 90.5548 52.7376C90.2114 51.5731 90.3079 50.3261 90.8265 49.2258C91.3451 48.1255 92.2511 47.2457 93.3779 46.7482C94.5047 46.2507 95.7767 46.1688 96.9602 46.5176C98.1436 46.8663 99.159 47.6224 99.8197 48.6468C100.339 49.4538 100.615 50.3888 100.615 51.3434Z" fill="#6B29F8"/>
<path id="Vector_34" d="M99.8198 48.6468L94.7546 53.615C94.4363 53.1315 92.6627 50.8845 92.6627 50.8845C92.89 50.6591 93.1326 50.449 93.3887 50.2557L94.8594 52.1795L99.2266 47.8951C99.4481 48.1267 99.6467 48.3784 99.8198 48.6468Z" fill="white"/>
</g>
<defs>
<clipPath id="clip0">
<rect width="200" height="120" fill="white"/>
</clipPath>
</defs>
</svg>
