<svg width="131" height="95" viewBox="0 0 131 95" fill="none" xmlns="http://www.w3.org/2000/svg">
<g clip-path="url(#clip0)">
<path opacity="0.24" d="M2.1581 88.0511C1.7417 88.0914 1.34747 88.2577 1.02803 88.5278C0.0279589 89.5645 1.81141 90.9713 3.2215 91.2347C7.33178 92.0014 11.5354 92.098 15.719 92.1914C27.2753 92.4425 38.8316 92.6648 50.388 92.8581C54.3249 92.9214 58.4285 92.9481 61.9721 91.2313C61.3433 90.3101 60.488 89.5662 59.4886 89.0712L75.073 88.9712C76.103 88.9712 77.2231 88.9912 78.0165 89.6379C78.8099 90.2846 78.8865 91.818 77.9265 92.1881C94.289 95.2383 111.06 95.3951 127.476 92.6514C129.143 92.3714 131.327 91.2813 130.783 89.6712C130.397 88.5245 128.897 88.2978 127.686 88.2711C94.6509 87.4944 61.6087 86.8077 28.5765 85.8943C24.1146 85.7603 19.6487 85.8716 15.199 86.2277C10.9387 86.5944 6.38172 88.0511 2.1581 88.0511Z" fill="#DDDDDD"/>
<path d="M40.574 66.5663C42.0307 68.3398 41.9074 70.8733 41.9474 73.1701C41.9778 75.409 42.211 77.6405 42.6441 79.8372C42.7408 80.3206 42.8841 80.8573 43.3108 81.104C43.5736 81.2299 43.8629 81.2905 44.1542 81.2807L46.761 81.394C47.4277 81.424 48.1778 81.414 48.6078 80.914C48.8294 80.6089 48.9683 80.2518 49.0112 79.8772C49.7045 76.3384 50.1014 72.748 50.1979 69.1432C50.293 67.7244 50.1807 66.2993 49.8646 64.9129C49.4945 63.5428 48.7245 62.2461 47.5311 61.4693C46.2177 60.6326 44.5809 60.5493 43.0274 60.5026C41.3607 60.4526 39.6606 60.4226 38.0838 60.9593C36.7837 61.4027 34.3269 62.8128 36.127 64.0828C37.5738 65.1162 39.3472 65.0662 40.574 66.5663Z" fill="#606161"/>
<path d="M40.574 66.5663C42.0307 68.3398 41.9074 70.8733 41.9474 73.1701C41.9778 75.409 42.211 77.6405 42.6441 79.8372C42.7408 80.3206 42.8841 80.8573 43.3108 81.104C43.5736 81.2299 43.8629 81.2905 44.1542 81.2807L46.761 81.394C47.4277 81.424 48.1778 81.414 48.6078 80.914C48.8294 80.6089 48.9683 80.2518 49.0112 79.8772C49.7045 76.3384 50.1014 72.748 50.1979 69.1432C50.293 67.7244 50.1807 66.2993 49.8646 64.9129C49.4945 63.5428 48.7245 62.2461 47.5311 61.4693C46.2177 60.6326 44.5809 60.5493 43.0274 60.5026C41.3607 60.4526 39.6606 60.4226 38.0838 60.9593C36.7837 61.4027 34.3269 62.8128 36.127 64.0828C37.5738 65.1162 39.3472 65.0662 40.574 66.5663Z" fill="url(#paint0_linear)"/>
<path d="M44.7542 83.4008C44.7423 83.6455 44.7785 83.8901 44.8609 84.1208C44.9459 84.2905 45.0586 84.4448 45.1942 84.5775C46.4265 85.9581 48.0654 86.9118 49.8745 87.301C50.071 87.3657 50.2788 87.389 50.4848 87.3695C50.6907 87.35 50.8904 87.2881 51.0713 87.1877C51.2121 87.0624 51.3243 86.9082 51.4002 86.7356C51.4761 86.563 51.514 86.3762 51.5113 86.1876C51.5368 85.5511 51.3739 84.9212 51.043 84.3769C50.7121 83.8325 50.228 83.3979 49.6512 83.1274C49.2145 82.9308 48.7378 82.8374 48.2978 82.6474C48.071 82.5674 47.8641 82.4393 47.6915 82.2719C47.5189 82.1044 47.3845 81.9016 47.2977 81.6774C47.131 81.1206 47.3777 80.3939 46.9277 80.0272C46.2876 79.5105 45.1342 79.5772 44.7909 80.3273C44.4242 81.114 44.7342 82.5374 44.7542 83.4008Z" fill="#606161"/>
<path d="M84.6634 55.559C77.2163 62.8561 80.3098 72.8468 80.3298 77.2871C80.3298 78.4405 84.1067 80.5973 84.6634 75.427C84.6968 75.1269 85.1301 61.846 95.2141 62.4961C99.0244 62.7428 103.821 57.7658 100.805 53.0021C98.5044 49.3685 86.9803 53.2988 84.6634 55.559Z" fill="#606161"/>
<path d="M84.6634 55.559C77.2163 62.8561 80.3098 72.8468 80.3298 77.2871C80.3298 78.4405 84.1067 80.5973 84.6634 75.427C84.6968 75.1269 85.1301 61.846 95.2141 62.4961C99.0244 62.7428 103.821 57.7658 100.805 53.0021C98.5044 49.3685 86.9803 53.2988 84.6634 55.559Z" fill="url(#paint1_linear)"/>
<path d="M81.0134 78.1871C81.2434 79.0505 80.8734 79.9439 80.54 80.7706C79.9674 82.0795 79.575 83.4599 79.3733 84.8742C79.3223 85.0991 79.3506 85.3346 79.4533 85.5409C79.6899 85.9176 80.26 85.8443 80.67 85.6676C81.3396 85.3787 81.9321 84.9368 82.4001 84.3775C82.9482 83.6543 83.3873 82.8546 83.7035 82.004C83.919 81.5583 84.0758 81.0866 84.1702 80.6006C84.2367 79.8432 84.1552 79.0801 83.9302 78.3538C83.9134 78.2083 83.8434 78.0741 83.7335 77.9771C83.631 77.9238 83.5151 77.9018 83.4002 77.9138C82.8468 77.9138 82.3135 78.1738 81.7568 78.1738L81.0134 78.1871Z" fill="#606161"/>
<path d="M26.0296 89.7045C29.929 89.7045 33.09 88.4538 33.09 86.911C33.09 85.3682 29.929 84.1175 26.0296 84.1175C22.1302 84.1175 18.9691 85.3682 18.9691 86.911C18.9691 88.4538 22.1302 89.7045 26.0296 89.7045Z" fill="#DDDDDD"/>
<path d="M26.0296 89.7045C29.929 89.7045 33.09 88.4538 33.09 86.911C33.09 85.3682 29.929 84.1175 26.0296 84.1175C22.1302 84.1175 18.9691 85.3682 18.9691 86.911C18.9691 88.4538 22.1302 89.7045 26.0296 89.7045Z" fill="url(#paint2_linear)"/>
<path d="M111.229 89.7045C115.128 89.7045 118.289 88.4538 118.289 86.911C118.289 85.3682 115.128 84.1175 111.229 84.1175C107.329 84.1175 104.168 85.3682 104.168 86.911C104.168 88.4538 107.329 89.7045 111.229 89.7045Z" fill="#DDDDDD"/>
<path d="M111.229 89.7045C115.128 89.7045 118.289 88.4538 118.289 86.911C118.289 85.3682 115.128 84.1175 111.229 84.1175C107.329 84.1175 104.168 85.3682 104.168 86.911C104.168 88.4538 107.329 89.7045 111.229 89.7045Z" fill="url(#paint3_linear)"/>
<path d="M109.238 66.063H112.979V85.1509C112.979 85.6451 112.782 86.1191 112.433 86.4686C112.083 86.818 111.609 87.0144 111.115 87.0144V87.0144C110.621 87.0144 110.147 86.818 109.798 86.4686C109.448 86.1191 109.252 85.6451 109.252 85.1509V66.063H109.238Z" fill="#DDDDDD"/>
<path d="M109.238 66.063H112.979V85.1509C112.979 85.6451 112.782 86.1191 112.433 86.4686C112.083 86.818 111.609 87.0144 111.115 87.0144V87.0144C110.621 87.0144 110.147 86.818 109.798 86.4686C109.448 86.1191 109.252 85.6451 109.252 85.1509V66.063H109.238Z" fill="url(#paint4_linear)"/>
<path d="M27.9163 67.9264C27.9163 66.8973 27.0828 66.063 26.0545 66.063C25.0263 66.063 24.1927 66.8973 24.1927 67.9264V85.1509C24.1927 86.1801 25.0263 87.0144 26.0545 87.0144C27.0828 87.0144 27.9163 86.1801 27.9163 85.1509V67.9264Z" fill="#DDDDDD"/>
<path d="M27.9163 67.9264C27.9163 66.8973 27.0828 66.063 26.0545 66.063C25.0263 66.063 24.1927 66.8973 24.1927 67.9264V85.1509C24.1927 86.1801 25.0263 87.0144 26.0545 87.0144C27.0828 87.0144 27.9163 86.1801 27.9163 85.1509V67.9264Z" fill="url(#paint5_linear)"/>
<path d="M11.8953 43.0748C8.89512 45.0949 8.26841 49.3052 8.79845 52.8887C10.2652 62.8027 18.9958 71.1733 28.9631 72.2234C31.8933 72.53 35.1035 72.1733 37.297 70.2232C39.7505 68.0531 40.3705 64.3228 39.5005 61.1626C38.6304 58.0024 36.5003 55.3389 34.1668 53.0454C30.9479 49.888 27.2497 47.2598 23.2094 45.2582C19.6925 43.5048 15.8856 40.3946 11.8953 43.0748Z" fill="#DDDDDD"/>
<path d="M11.8953 43.0748C8.89512 45.0949 8.26841 49.3052 8.79845 52.8887C10.2652 62.8027 18.9958 71.1733 28.9631 72.2234C31.8933 72.53 35.1035 72.1733 37.297 70.2232C39.7505 68.0531 40.3705 64.3228 39.5005 61.1626C38.6304 58.0024 36.5003 55.3389 34.1668 53.0454C30.9479 49.888 27.2497 47.2598 23.2094 45.2582C19.6925 43.5048 15.8856 40.3946 11.8953 43.0748Z" fill="url(#paint6_linear)"/>
<path d="M125.183 43.0748C128.183 45.0949 128.81 49.3052 128.28 52.8887C126.813 62.8027 118.083 71.1733 108.115 72.2234C105.185 72.53 101.975 72.1733 99.7813 70.2232C97.3278 68.0531 96.7078 64.3228 97.5812 61.1626C98.4545 58.0024 100.581 55.3389 102.915 53.0454C106.134 49.8872 109.834 47.2589 113.876 45.2582C117.389 43.5048 121.193 40.3946 125.183 43.0748Z" fill="#DDDDDD"/>
<path d="M125.183 43.0748C128.183 45.0949 128.81 49.3052 128.28 52.8887C126.813 62.8027 118.083 71.1733 108.115 72.2234C105.185 72.53 101.975 72.1733 99.7813 70.2232C97.3278 68.0531 96.7078 64.3228 97.5812 61.1626C98.4545 58.0024 100.581 55.3389 102.915 53.0454C106.134 49.8872 109.834 47.2589 113.876 45.2582C117.389 43.5048 121.193 40.3946 125.183 43.0748Z" fill="url(#paint7_linear)"/>
<path d="M87.5204 22.8701C87.1979 23.5017 87.0353 24.2028 87.047 24.9119C87.0586 25.621 87.2441 26.3164 87.5871 26.937C87.9184 27.5813 88.4894 28.0697 89.1772 28.2971C89.7932 28.4165 90.4292 28.3798 91.0273 28.1905C92.2907 27.8873 93.5297 27.4906 94.7343 27.0037C95.441 26.717 96.1944 26.337 96.5011 25.6436C96.7511 25.0769 96.6444 24.4236 96.5011 23.8202C96.1877 22.3734 95.741 20.9167 94.8343 19.7366C94.2905 19.0064 93.5589 18.4373 92.7175 18.0898C91.7007 17.6864 91.4074 17.7564 90.9307 18.6065C90.0573 20.2333 88.3805 21.2333 87.5204 22.8701Z" fill="#606161"/>
<path d="M65.3422 35.9243C64.5235 39.0167 63.4279 42.0291 62.0687 44.9249C61.0319 47.1084 59.6852 49.3786 57.4383 50.2586C54.8582 51.2587 51.628 50.202 49.4378 51.8554C48.7211 52.3854 48.2144 53.1588 47.6277 53.8289C44.7175 57.2591 40.0872 58.6025 35.7236 59.6526C31.48 60.676 26.883 61.5694 22.8694 59.8493C22.0804 59.5095 21.3332 59.0799 20.6426 58.5692C18.3491 56.9024 16.5856 54.5256 14.9755 52.1321C14.7988 51.8687 14.6222 51.6154 14.4455 51.3487C13.5754 50.0386 12.672 48.6818 12.3854 47.1484C11.932 44.8149 12.9354 42.4314 14.1488 40.3713C15.4812 38.1849 16.9614 36.0921 18.5791 34.1075C20.8826 31.2107 23.3527 28.3205 26.5796 26.5137C28.9131 25.2236 31.52 24.5502 34.1001 23.8902C38.8604 22.6768 43.1007 23.5368 47.361 26.0403C50.1179 27.6471 51.2746 31.0207 51.758 34.1642C51.948 35.3776 52.068 36.601 52.2213 37.8311C52.4747 39.7913 52.828 41.7214 53.7014 43.4982C55.7616 42.3848 56.5883 39.9146 57.3683 37.7111C57.6018 36.8657 58.0196 36.0824 58.5918 35.4176C58.8363 35.1747 59.1161 34.9702 59.4218 34.8109C60.8652 34.0409 62.8254 34.3276 64.5255 34.6809C64.6884 34.6897 64.8475 34.7336 64.9919 34.8095C65.1363 34.8855 65.2626 34.9917 65.3622 35.1209C65.4571 35.3817 65.45 35.6686 65.3422 35.9243Z" fill="#DDDDDD"/>
<path d="M61.7487 39.3879C60.7997 42.1057 59.41 44.6487 57.6351 46.9151C56.9932 47.8146 56.1949 48.5914 55.2783 49.2086C53.8782 50.102 52.1914 50.3553 50.548 50.6087C48.7845 50.862 48.5845 50.312 48.7279 48.8786C48.9179 47.0151 48.5412 44.9883 48.4312 43.1115C48.2112 39.1546 48.0678 35.1976 48.1245 31.2274C49.7539 33.2444 51.1267 35.4559 52.2114 37.8112C52.4648 39.7713 52.8181 41.7014 53.6915 43.4782C55.7516 42.3648 56.5784 39.8946 57.3584 37.6911C57.5919 36.8457 58.0097 36.0625 58.5818 35.3977C58.8264 35.1548 59.1062 34.9502 59.4119 34.7909C59.7366 34.7142 60.0742 34.709 60.4012 34.7758C60.7281 34.8426 61.0367 34.9797 61.3053 35.1776C62.4987 36.101 62.2454 37.9645 61.7487 39.3879Z" fill="url(#paint8_linear)"/>
<path d="M47.4377 52.5387C47.2448 52.6783 47.0084 52.7445 46.771 52.7254L39.9805 53.0221C37.8537 53.1121 35.6469 53.2221 33.7535 54.1488C33.1901 54.4222 32.6601 54.7755 32.0867 55.0089C31.383 55.2559 30.6664 55.464 29.9399 55.6323C28.6264 56.0089 23.8428 58.0591 22.5094 58.3658C21.8985 58.5058 21.2724 58.5685 20.6459 58.5525C18.3524 56.8857 16.589 54.5089 14.9789 52.1154C15.9789 51.7087 16.979 51.322 17.139 51.2886C18.4913 51.1096 19.8567 51.0505 21.2193 51.112C23.4328 51.1353 25.6596 51.1686 27.8864 51.202C28.5488 51.25 29.2145 51.1754 29.8499 50.9819C30.5595 50.6515 31.1878 50.169 31.69 49.5685C31.81 49.4585 31.9333 49.3052 31.9 49.1518C31.8579 49.0371 31.7748 48.9421 31.6666 48.8851C31.1394 48.5705 30.6966 48.1323 30.3766 47.6084C30.1699 47.1884 30.2799 46.6483 30.0032 46.275C29.6399 45.8116 28.4931 45.5149 27.9631 45.2749L25.6063 44.1482C25.2064 43.9739 24.8372 43.7364 24.5128 43.4448C23.7961 42.6814 23.8461 41.4447 24.2828 40.4879C24.7195 39.5312 25.4062 38.7378 25.9263 37.8211C26.3663 37.0277 26.663 36.1543 27.103 35.3743C27.543 34.5942 28.1731 33.8442 29.0331 33.5575C29.9832 33.2241 31.0066 33.5241 31.9667 33.8108C35.3502 34.8109 38.7471 35.8109 42.1307 36.831C43.5641 37.2477 45.1609 37.8111 45.8243 39.1645C46.1576 39.8512 46.1876 40.6446 46.2309 41.4147C46.3696 44.8346 46.8091 48.2358 47.5444 51.5787C47.6277 51.9087 47.681 52.2987 47.4377 52.5387Z" fill="url(#paint9_linear)"/>
<path d="M46.7242 15.2596C46.9609 15.713 47.3909 16.1297 47.3276 16.6397C47.2709 17.2764 46.5475 17.6064 46.1975 18.1398C45.6475 18.9799 46.0642 20.2399 45.4074 20.9967C44.9541 21.5134 44.1907 21.57 43.5473 21.81C42.3472 22.2567 41.5272 23.3968 41.0772 24.5969C40.8938 25.0903 40.7138 25.5803 40.5105 26.067C39.0904 29.4739 35.7935 24.4636 35.9468 23.5402C36.1002 22.6168 36.9469 20.57 37.1502 19.6699C37.4836 18.2665 37.2902 16.8031 37.3636 15.3663C37.4276 14.12 37.6793 12.8905 38.1103 11.7194C38.3352 11.0135 38.7248 10.3713 39.247 9.84592C40.0538 9.1192 41.2138 8.91586 42.3006 8.94253C43.1173 8.96253 43.9907 9.12587 44.5607 9.70925C44.915 10.1339 45.1742 10.6295 45.3208 11.1627C45.438 11.5397 45.5909 11.9047 45.7775 12.2527C45.9697 12.5406 46.1159 12.8566 46.2108 13.1895C46.3908 13.8829 46.4009 14.6096 46.7242 15.2596Z" fill="#F5C7C8"/>
<path d="M41.0638 8.0725C42.5806 8.19917 44.1707 8.71921 45.0641 9.94595C45.2224 10.1253 45.3353 10.34 45.3933 10.572C45.4513 10.8041 45.4527 11.0467 45.3975 11.2794C45.2677 11.5792 45.0474 11.831 44.7674 11.9994C44.3326 12.3 43.8503 12.5254 43.3407 12.6661C42.4573 12.9162 41.4072 12.9662 40.8505 13.6929C40.3505 14.3429 40.4705 15.263 40.2271 16.0464C40.1971 16.1497 40.1371 16.2664 40.0304 16.2764C39.9686 16.2764 39.9086 16.2553 39.8604 16.2164C39.4304 15.9263 39.0637 15.433 38.547 15.453C38.0303 15.473 37.6403 16.1197 37.727 16.6731C37.8694 17.211 38.1647 17.6961 38.577 18.0698C38.8157 18.2847 38.9899 18.5617 39.0804 18.8699C39.1871 19.4132 38.7104 19.9433 38.1703 20.06C37.6145 20.1351 37.0506 20.0021 36.5869 19.6866C35.3935 18.9765 34.5601 17.7865 33.92 16.5497C33.6334 16.0286 33.4288 15.4664 33.3133 14.8829C33.24 14.3008 33.2535 13.711 33.3533 13.1328C33.53 11.7994 33.9334 10.5027 35.2468 9.92595C36.3635 9.43592 37.3003 8.59253 38.487 8.25918C39.3281 8.04495 40.2006 7.98175 41.0638 8.0725V8.0725Z" fill="#606161"/>
<path d="M61.8387 30.2173C62.6721 28.8839 63.8888 27.7571 65.3922 27.3371C65.2783 27.9548 65.0365 28.5419 64.6822 29.0606C66.5486 28.1627 68.513 27.4848 70.5359 27.0404C70.7659 26.9871 71.0493 26.9604 71.2026 27.1471C71.266 27.2461 71.2941 27.3635 71.2826 27.4804C71.2472 28.0305 71.0654 28.5611 70.7559 29.0172C69.87 30.4969 68.5436 31.6625 66.9623 32.3508C66.1723 32.6841 65.3122 32.9175 64.6455 33.4609C64.1088 33.9042 63.7454 34.5143 63.3121 35.0476C62.8787 35.581 62.082 36.2377 61.2786 36.0477C60.9707 35.9691 60.6934 35.8001 60.4825 35.5624C60.2715 35.3248 60.1366 35.0293 60.0952 34.7143C60.0552 34.0476 60.4719 33.2575 60.6986 32.6575C60.9966 31.8082 61.3785 30.9908 61.8387 30.2173V30.2173Z" fill="#F5C7C8"/>
<path d="M21.1359 43.3714C24.5471 43.2852 27.9604 43.4076 31.3566 43.7381C31.4045 43.7332 31.4529 43.7388 31.4985 43.7544C31.5441 43.77 31.5857 43.7954 31.6206 43.8286C31.6555 43.8619 31.6827 43.9023 31.7004 43.9471C31.7181 43.9919 31.7259 44.04 31.7233 44.0882C31.8395 45.2487 31.807 46.4194 31.6266 47.5717C31.6013 47.8421 31.5146 48.1032 31.3733 48.3351C31.1489 48.6014 30.8431 48.7865 30.5032 48.8618C29.8909 49.0177 29.2643 49.1104 28.6331 49.1385C24.2694 49.4719 19.8892 49.8385 15.5155 49.5985C14.937 49.6123 14.3642 49.4817 13.8487 49.2185C13.4962 48.9777 13.1995 48.6639 12.9787 48.2984C12.6845 47.8707 12.4595 47.3994 12.312 46.9017C12.1945 46.4618 12.167 46.0026 12.2311 45.5518C12.2953 45.1011 12.4498 44.6678 12.6853 44.2782C13.2338 43.449 14.062 42.8445 15.0188 42.5747C15.9656 42.3086 16.9548 42.2271 17.9324 42.3347C18.4248 42.3605 18.9109 42.4571 19.3758 42.6214C20.2492 42.9547 21.0692 43.6748 21.9826 43.4881" fill="#DDDDDD"/>
<path d="M35.2436 46.0983C37.3404 46.0983 39.6006 46.305 41.2007 47.6651C41.4011 47.8151 41.5585 48.0151 41.6574 48.2451C41.7008 48.3603 41.7078 48.486 41.6774 48.6053C41.647 48.7245 41.5807 48.8315 41.4874 48.9118C41.3489 48.9923 41.1908 49.0327 41.0307 49.0285C39.4706 49.0985 37.9005 48.6485 36.3637 48.8885C35.597 49.0052 34.8569 49.2918 34.0835 49.3585C32.6134 49.4818 31.2067 48.8085 29.8866 48.1551C29.7933 48.1185 29.7123 48.0561 29.6533 47.9751C29.6272 47.9084 29.6162 47.8369 29.6208 47.7655C29.6254 47.694 29.6456 47.6245 29.6799 47.5617C29.8033 47.2284 29.9833 46.635 30.2533 46.4083C30.5233 46.1817 31.3 46.245 31.6967 46.2217C32.8735 46.1583 34.0569 46.1016 35.2436 46.0983Z" fill="#F5C7C8"/>
<path d="M45.5676 36.371H44.3042C43.682 36.371 43.1775 36.8754 43.1775 37.4977V43.6748C43.1775 44.2971 43.682 44.8016 44.3042 44.8016H45.5676C46.1899 44.8016 46.6944 44.2971 46.6944 43.6748V37.4977C46.6944 36.8754 46.1899 36.371 45.5676 36.371Z" fill="#DDDDDD"/>
<path d="M20.8559 56.6724C25.0028 53.7088 31.3832 54.0055 36.4802 53.8855C40.0705 53.7988 43.6807 53.8055 47.2343 54.3389C48.8544 54.5822 50.4878 54.9422 51.9179 55.7356C53.348 56.529 54.5848 57.7958 55.7082 59.0692C59.8651 63.7762 63.312 69.1865 65.2755 75.1569C64.187 75.6506 63.0226 75.9561 61.8319 76.0603C61.4221 76.1159 61.0052 76.0841 60.6085 75.967C60.1788 75.7827 59.7926 75.5101 59.4751 75.1669C56.5849 72.4601 53.6647 69.7699 50.5378 67.3397C49.3044 66.383 47.9843 65.4396 46.4476 65.1563C45.5528 65.0345 44.6456 65.0345 43.7507 65.1563C41.5773 65.3629 39.4138 65.6641 37.2603 66.0596C33.26 66.7964 28.8631 68.3131 25.5029 65.9996C19.8925 62.1194 19.7458 57.4657 20.8559 56.6724Z" fill="#606161"/>
<path d="M20.8559 56.6724C25.0028 53.7088 31.3832 54.0055 36.4802 53.8855C40.0705 53.7988 43.6807 53.8055 47.2343 54.3389C48.8544 54.5822 50.4878 54.9422 51.9179 55.7356C53.348 56.529 54.5848 57.7958 55.7082 59.0692C59.8651 63.7762 63.312 69.1865 65.2755 75.1569C64.187 75.6506 63.0226 75.9561 61.8319 76.0603C61.4221 76.1159 61.0052 76.0841 60.6085 75.967C60.1788 75.7827 59.7926 75.5101 59.4751 75.1669C56.5849 72.4601 53.6647 69.7699 50.5378 67.3397C49.3044 66.383 47.9843 65.4396 46.4476 65.1563C45.5528 65.0345 44.6456 65.0345 43.7507 65.1563C41.5773 65.3629 39.4138 65.6641 37.2603 66.0596C33.26 66.7964 28.8631 68.3131 25.5029 65.9996C19.8925 62.1194 19.7458 57.4657 20.8559 56.6724Z" fill="url(#paint10_linear)"/>
<path d="M90.1173 23.6701C87.4038 24.7069 86.0471 27.6704 85.047 30.4139C83.6002 34.3575 82.3068 38.4311 82.2035 42.6281C82.1435 45.0116 82.6535 47.7118 84.647 49.0185C86.0937 49.9619 87.9439 49.9286 89.6673 49.8586L95.8444 49.6319C95.9434 49.609 96.0462 49.6078 96.1458 49.6283C96.2453 49.6488 96.3393 49.6906 96.4212 49.7507C96.5032 49.8108 96.5712 49.8879 96.6207 49.9767C96.6701 50.0655 96.6998 50.1639 96.7078 50.2653C96.9611 51.042 100.291 51.492 100.548 52.2654C100.725 52.8054 97.8478 53.7022 98.2845 54.0622C98.7212 54.4222 99.3946 54.5155 99.998 54.5622C104.372 54.8914 108.767 54.7965 113.122 54.2789C114.009 54.1722 114.966 54.0122 115.579 53.3655C116.439 52.4554 116.246 51.012 116.012 49.7819C118.379 49.6185 120.943 48.6518 121.936 46.4983C122.533 45.2149 122.463 43.7048 122.059 42.3481C121.656 40.9913 120.946 39.7379 120.279 38.4945C119.059 36.2543 117.913 33.9408 116.246 32.0107C114.579 30.0806 112.525 28.6538 110.465 27.2171C108.842 26.087 107.198 24.9436 105.342 24.2635C102.768 23.3235 100.098 23.5068 97.4245 23.2301C95.1277 22.9934 92.2775 22.8368 90.1173 23.6701Z" fill="#DDDDDD"/>
<path d="M117.402 49.1419C114.119 49.8353 110.735 49.8086 107.382 49.7486C103.908 49.7019 100.418 49.6519 96.9977 49.0552C96.5765 49.029 96.1804 48.8458 95.8876 48.5419C95.7377 48.2926 95.6539 48.0092 95.6443 47.7185C95.5109 46.5617 95.4309 45.2383 96.241 44.4049C96.7277 43.9049 97.4377 43.7015 98.1111 43.5182L105.778 41.4314C106.958 41.098 108.238 40.7247 108.932 39.7146C110.265 37.7812 108.678 34.7543 110.162 32.9375C109.728 32.427 109.184 32.0202 108.572 31.7467C107.96 31.4733 107.295 31.3403 106.625 31.3574C105.222 31.3307 103.845 31.6907 102.488 32.0741L91.6407 35.0343C90.7373 35.281 89.8072 35.541 89.0672 36.1144C88.1671 36.8111 87.6537 37.9012 87.377 39.0046C87.0731 40.2348 87.0323 41.5154 87.2574 42.7626C87.4826 44.0097 87.9685 45.1952 88.6835 46.2415C89.3985 47.2879 90.3263 48.1714 91.4064 48.8344C92.4864 49.4973 93.6943 49.9248 94.9509 50.0886C95.7243 50.1853 96.6177 50.2353 97.0944 50.8454C97.4111 51.2454 97.4677 51.7854 97.7011 52.2354C98.3411 53.4555 99.9846 53.6255 101.368 53.6422L109.702 53.7355C111.615 53.7555 113.702 53.7356 115.212 52.5621C116.459 51.6321 116.829 50.5853 117.402 49.1419Z" fill="url(#paint11_linear)"/>
<path d="M90.0072 17.133C89.8538 17.4097 89.6405 17.7497 89.8238 18.0064C89.9005 18.1131 90.0305 18.1698 90.1205 18.2598C90.2421 18.4054 90.3124 18.5869 90.3205 18.7765C90.3905 19.4032 90.2905 20.1099 90.7139 20.5899C91.0839 20.9933 91.6973 21.0333 92.244 21.0433L94.3408 21.0866C94.4962 21.0737 94.6516 21.1111 94.7841 21.1933C94.8871 21.2892 94.9572 21.4152 94.9842 21.5533C95.3775 22.8501 95.3575 24.2802 96.0009 25.4736C96.1428 25.771 96.36 26.0261 96.6309 26.2136C96.8367 26.3311 97.063 26.4081 97.2977 26.4403C98.0394 26.5346 98.7909 26.3689 99.4243 25.9714C100.058 25.5739 100.534 24.9692 100.771 24.2602C100.839 24.0597 100.864 23.8474 100.845 23.6368C100.783 23.3369 100.655 23.0545 100.471 22.8101C99.783 21.8375 99.2842 20.7439 99.0011 19.5865C98.8938 18.8886 98.8248 18.1852 98.7944 17.4797C98.7125 16.6247 98.5393 15.781 98.2777 14.9629C98.1765 14.5955 98.013 14.2483 97.7944 13.9362C97.5855 13.6837 97.3445 13.4595 97.0776 13.2694C96.1376 12.5327 95.1542 11.7793 93.9941 11.506C93.0912 11.3327 92.1635 11.3327 91.2606 11.506C90.9092 11.5174 90.574 11.656 90.3172 11.896C90.0138 12.256 90.1405 12.7427 90.2405 13.1528C90.3266 13.5104 90.3581 13.8791 90.3338 14.2462C90.3172 15.2096 90.4872 16.2563 90.0072 17.133Z" fill="#F5C7C8"/>
<path d="M90.6539 9.75258C89.3904 10.6493 88.6737 12.4194 89.3204 13.8229C89.4315 14.0921 89.6178 14.3236 89.8571 14.4896C90.1509 14.6472 90.4807 14.7253 90.8139 14.7162C91.5978 14.772 92.3846 14.6583 93.1207 14.3829C93.8609 14.0963 94.4641 13.5384 94.8075 12.8228C94.8768 13.8641 95.145 14.8826 95.5975 15.823L96.5976 15.0063C96.63 14.9724 96.6687 14.9453 96.7116 14.9264C96.7545 14.9075 96.8007 14.8973 96.8476 14.8963C96.8901 14.9044 96.9305 14.9213 96.9661 14.946C97.0017 14.9707 97.0318 15.0026 97.0543 15.0396C97.4676 15.5863 97.3876 16.3897 97.0376 16.9831C96.9034 17.1553 96.8212 17.3623 96.8009 17.5798C96.8179 17.7119 96.8622 17.839 96.9309 17.9531L98.071 20.1733C98.5574 21.3128 99.4685 22.2179 100.611 22.6968C101.761 23.3991 102.977 23.9875 104.241 24.4536C105.513 24.9175 106.889 25.0179 108.215 24.7436C108.875 24.6005 109.495 24.3088 110.025 23.8906C110.556 23.4724 110.985 22.9387 111.279 22.3301C111.514 21.7423 111.641 21.1165 111.652 20.4833C111.715 19.7336 111.569 18.981 111.229 18.3098C110.853 17.7231 110.334 17.2413 109.722 16.9097C108.388 16.103 106.888 15.6396 105.492 14.9529C104.896 14.6889 104.354 14.3184 103.891 13.8595C103.491 13.3655 103.134 12.838 102.825 12.2828C102.098 11.2225 101.123 10.3559 99.9849 9.75862C98.8466 9.16133 97.5796 8.85141 96.2942 8.85586C95.8875 8.85586 95.4775 8.94586 95.0808 8.9192C94.626 8.86576 94.1687 8.83572 93.7107 8.82919C92.6232 8.83011 91.56 9.15127 90.6539 9.75258Z" fill="#606161"/>
<path d="M85.3436 0.561987C85.2036 1.25536 85.6769 1.8954 86.1436 2.44877C86.6103 3.00214 87.1837 4.08555 87.8104 4.3489C88.5605 4.68225 88.6138 4.28889 88.4471 3.71885C88.2504 3.05215 87.5904 2.35543 87.1137 1.8754C86.9637 1.72873 85.3503 0.541986 85.3436 0.561987Z" fill="#DDDDDD"/>
<path d="M81.7767 5.25233C81.6367 5.49902 81.9634 5.7457 82.2334 5.84571C83.6635 6.37907 85.1536 7.11579 86.6371 7.45914C87.9438 5.96238 82.5568 5.18233 81.7767 5.25233Z" fill="#DDDDDD"/>
<path d="M80.9033 10.4293C80.7099 10.4693 80.4799 10.5493 80.4499 10.7426C80.4199 10.936 80.6532 11.1027 80.8566 11.166C81.55 11.386 84.7835 11.8327 84.7235 10.956C84.6101 9.36922 81.6666 10.2726 80.9033 10.4293Z" fill="#DDDDDD"/>
<path d="M101.181 51.2153C99.5913 51.882 93.8876 55.2156 92.8175 56.7257C91.8175 58.1424 91.4208 59.9992 91.1108 61.8027C90.2062 67.0867 89.7966 72.4436 89.8873 77.8037C89.904 78.7771 90.0374 79.9406 90.7907 80.3673C91.2908 80.6506 91.8975 80.4839 92.3908 80.1772C94.7843 78.6971 95.0577 74.9402 96.0311 71.99C97.1278 68.6565 97.1445 64.8929 100.005 63.6261C102.338 62.5894 107.245 63.5528 109.715 63.0561C112.185 62.5594 114.762 61.4827 116.179 59.0758C118.669 54.8455 115.719 50.9853 112.062 50.9086C106.985 50.8053 105.968 49.2485 101.181 51.2153Z" fill="#606161"/>
<path d="M101.181 51.2153C99.5913 51.882 93.8876 55.2156 92.8175 56.7257C91.8175 58.1424 91.4208 59.9992 91.1108 61.8027C90.2062 67.0867 89.7966 72.4436 89.8873 77.8037C89.904 78.7771 90.0374 79.9406 90.7907 80.3673C91.2908 80.6506 91.8975 80.4839 92.3908 80.1772C94.7843 78.6971 95.0577 74.9402 96.0311 71.99C97.1278 68.6565 97.1445 64.8929 100.005 63.6261C102.338 62.5894 107.245 63.5528 109.715 63.0561C112.185 62.5594 114.762 61.4827 116.179 59.0758C118.669 54.8455 115.719 50.9853 112.062 50.9086C106.985 50.8053 105.968 49.2485 101.181 51.2153Z" fill="url(#paint12_linear)"/>
<path d="M63.6588 78.8772C63.7539 79.057 63.8856 79.2148 64.0455 79.3405C64.3534 79.5005 64.7092 79.5421 65.0456 79.4572C65.8808 79.3199 66.7086 79.1408 67.5258 78.9205L70.886 78.0738C71.1193 78.0138 71.3994 77.9071 71.436 77.6704C71.438 77.5875 71.4224 77.5051 71.3902 77.4287C71.3581 77.3523 71.31 77.2836 71.2494 77.227C70.1893 75.9803 68.4125 75.5603 66.7791 75.687C66.0757 75.7436 65.3223 75.8803 64.6989 75.5469C64.5643 75.4548 64.4157 75.385 64.2589 75.3403C64.0767 75.3234 63.8934 75.3568 63.7288 75.4369C62.9321 75.737 62.0387 75.747 62.2488 76.6337C62.4221 77.3304 63.2755 78.3005 63.6588 78.8772Z" fill="#606161"/>
<path d="M123.719 49.2519H10.5352C9.67731 49.2519 8.98181 49.9466 8.98181 50.8036C8.98181 51.6607 9.67731 52.3554 10.5352 52.3554H123.719C124.577 52.3554 125.273 51.6607 125.273 50.8036C125.273 49.9466 124.577 49.2519 123.719 49.2519Z" fill="#DDDDDD"/>
<path d="M123.719 49.2519H10.5352C9.67731 49.2519 8.98181 49.9466 8.98181 50.8036C8.98181 51.6607 9.67731 52.3554 10.5352 52.3554H123.719C124.577 52.3554 125.273 51.6607 125.273 50.8036C125.273 49.9466 124.577 49.2519 123.719 49.2519Z" fill="url(#paint13_linear)"/>
<path d="M88.2771 45.6316C87.3303 45.8975 86.4233 46.2888 85.5803 46.7951C84.9135 47.1684 84.2468 47.5484 83.5801 47.9418C83.382 48.038 83.2104 48.181 83.0801 48.3585C83.0181 48.449 82.9892 48.5581 82.9984 48.6674C83.0075 48.7767 83.054 48.8795 83.1301 48.9585C83.2507 49.0401 83.3947 49.0799 83.5401 49.0719C86.3203 49.2119 89.1038 48.6218 91.874 48.8119C93.0908 48.8952 94.3508 49.1252 95.5043 48.7285C95.7462 48.668 95.9696 48.5492 96.1549 48.3824C96.3403 48.2156 96.482 48.006 96.5677 47.7718C96.7043 47.2251 96.2343 46.3917 95.7643 46.105C95.2109 45.7717 94.1642 45.905 93.5208 45.8217C91.7873 45.6016 90.0039 45.2216 88.2771 45.6316Z" fill="#F5C7C8"/>
<path d="M89.4472 44.3282C90.1265 44.3503 90.7911 44.5319 91.3873 44.8582C91.7799 44.9944 92.1109 45.2663 92.3207 45.625C92.3638 45.7127 92.3845 45.8098 92.381 45.9075C92.3775 46.0052 92.3499 46.1005 92.3007 46.185C92.2097 46.3017 92.0834 46.3859 91.9407 46.425C91.4838 46.5369 91.0097 46.5606 90.5439 46.495C89.0375 46.4048 87.5269 46.5786 86.0803 47.0084C85.7324 47.1418 85.3628 47.2096 84.9902 47.2084C84.9482 47.2094 84.9065 47.2013 84.8679 47.1846C84.8294 47.1679 84.7949 47.1431 84.7669 47.1117C84.7497 47.0817 84.739 47.0483 84.7356 47.0139C84.7322 46.9794 84.736 46.9446 84.7469 46.9117C84.8118 46.6994 84.9341 46.509 85.1002 46.3617C85.4336 46.0117 85.767 45.675 86.1003 45.3449C86.2099 45.2164 86.3457 45.1127 86.4987 45.0408C86.6516 44.969 86.8181 44.9306 86.987 44.9282C87.8371 44.8249 88.6105 44.3549 89.4472 44.3282Z" fill="#F5C7C8"/>
<path d="M89.2772 82.6341C88.4671 83.7242 87.6804 84.9276 87.6104 86.2843C87.5833 86.4778 87.6246 86.6747 87.727 86.841C87.838 86.9706 87.9896 87.0588 88.1571 87.091C88.5804 87.1734 89.0171 87.156 89.4325 87.0403C89.848 86.9246 90.2308 86.7137 90.5506 86.4243C91.1866 85.8458 91.7276 85.1708 92.154 84.4242L93.7574 81.9307C93.8518 81.8115 93.9066 81.6658 93.9141 81.514C93.9141 81.3073 93.7274 81.154 93.5808 80.994C93.1041 80.4239 93.1707 79.6339 93.1607 78.9505C90.9739 79.2639 90.5039 81.004 89.2772 82.6341Z" fill="#606161"/>
<path d="M52.5181 2.35877C52.6248 2.89547 52.2514 3.40217 51.8981 3.8222C51.5447 4.24223 51.088 5.09228 50.6147 5.29563C50.0346 5.54565 49.9913 5.2523 50.1213 4.80893C50.2713 4.29557 50.788 3.74886 51.1514 3.3755C51.2747 3.2655 52.5148 2.34544 52.5181 2.35877Z" fill="#DDDDDD"/>
<path d="M55.2749 5.99567C55.3849 6.18902 55.1282 6.37903 54.9215 6.45904C53.8115 6.8724 52.6547 7.45911 51.5046 7.70912C50.5046 6.55904 54.6782 5.94233 55.2749 5.99567Z" fill="#DDDDDD"/>
<path d="M55.965 10.0159C56.1117 10.0459 56.2984 10.1059 56.315 10.2559C56.3317 10.406 56.1584 10.536 55.9817 10.5893C55.445 10.7626 52.9348 11.096 52.9815 10.426C53.0815 9.19254 55.3716 9.89259 55.965 10.0159Z" fill="#DDDDDD"/>
</g>
<defs>
<linearGradient id="paint0_linear" x1="53.1414" y1="83.1108" x2="35.4469" y2="55.3323" gradientUnits="userSpaceOnUse">
<stop stop-color="#010101" stop-opacity="0"/>
<stop offset="0.95" stop-color="#010101"/>
</linearGradient>
<linearGradient id="paint1_linear" x1="6928.28" y1="8171.9" x2="8390.78" y2="8171.9" gradientUnits="userSpaceOnUse">
<stop stop-color="#010101" stop-opacity="0"/>
<stop offset="0.95" stop-color="#010101"/>
</linearGradient>
<linearGradient id="paint2_linear" x1="2127.08" y1="1806.32" x2="2120.17" y2="2019.1" gradientUnits="userSpaceOnUse">
<stop stop-color="#010101" stop-opacity="0"/>
<stop offset="0.95" stop-color="#010101"/>
</linearGradient>
<linearGradient id="paint3_linear" x1="5821.31" y1="1806.32" x2="5814.42" y2="2019.1" gradientUnits="userSpaceOnUse">
<stop stop-color="#010101" stop-opacity="0"/>
<stop offset="0.95" stop-color="#010101"/>
</linearGradient>
<linearGradient id="paint4_linear" x1="1593.3" y1="6414.54" x2="1635.08" y2="6414.54" gradientUnits="userSpaceOnUse">
<stop stop-color="#010101" stop-opacity="0"/>
<stop offset="0.95" stop-color="#010101"/>
</linearGradient>
<linearGradient id="paint5_linear" x1="551.676" y1="6414.54" x2="593.268" y2="6414.54" gradientUnits="userSpaceOnUse">
<stop stop-color="#010101" stop-opacity="0"/>
<stop offset="0.95" stop-color="#010101"/>
</linearGradient>
<linearGradient id="paint6_linear" x1="3524.27" y1="8693.1" x2="5545.13" y2="7918.88" gradientUnits="userSpaceOnUse">
<stop stop-color="#010101" stop-opacity="0"/>
<stop offset="0.95" stop-color="#010101"/>
</linearGradient>
<linearGradient id="paint7_linear" x1="31147.3" y1="8693.1" x2="29126.5" y2="7918.93" gradientUnits="userSpaceOnUse">
<stop stop-color="#010101" stop-opacity="0"/>
<stop offset="0.95" stop-color="#010101"/>
</linearGradient>
<linearGradient id="paint8_linear" x1="3377.16" y1="3992.51" x2="2180.62" y2="10590" gradientUnits="userSpaceOnUse">
<stop stop-color="#010101" stop-opacity="0"/>
<stop offset="0.95" stop-color="#010101"/>
</linearGradient>
<linearGradient id="paint9_linear" x1="6303.84" y1="5623.71" x2="3367.12" y2="10541.2" gradientUnits="userSpaceOnUse">
<stop stop-color="#010101" stop-opacity="0"/>
<stop offset="0.95" stop-color="#010101"/>
</linearGradient>
<linearGradient id="paint10_linear" x1="9449.66" y1="7499.14" x2="8961.51" y2="4561.21" gradientUnits="userSpaceOnUse">
<stop stop-color="#010101" stop-opacity="0"/>
<stop offset="0.95" stop-color="#010101"/>
</linearGradient>
<linearGradient id="paint11_linear" x1="11284.6" y1="4784.45" x2="12232.6" y2="9151.71" gradientUnits="userSpaceOnUse">
<stop stop-color="#010101" stop-opacity="0"/>
<stop offset="0.95" stop-color="#010101"/>
</linearGradient>
<linearGradient id="paint12_linear" x1="9443.76" y1="8731.5" x2="11188.9" y2="9363.76" gradientUnits="userSpaceOnUse">
<stop stop-color="#010101" stop-opacity="0"/>
<stop offset="0.95" stop-color="#010101"/>
</linearGradient>
<linearGradient id="paint13_linear" x1="31439" y1="782.835" x2="31439" y2="674.643" gradientUnits="userSpaceOnUse">
<stop stop-color="#010101" stop-opacity="0"/>
<stop offset="0.95" stop-color="#010101"/>
</linearGradient>
<clipPath id="clip0">
<rect width="130.985" height="95" fill="white"/>
</clipPath>
</defs>
</svg>
