<svg width="129" height="95" viewBox="0 0 129 95" fill="none" xmlns="http://www.w3.org/2000/svg">
<path d="M81.4586 47.3615V19.1306C81.4589 18.5245 81.3373 17.9245 81.101 17.3662C80.8647 16.808 80.5186 16.303 80.0832 15.8813C79.6478 15.4596 79.1321 15.1297 78.5666 14.9114C78.0011 14.693 77.3975 14.5906 76.7917 14.6102L52.0481 15.3544C51.4341 15.3727 50.8302 15.5159 50.2733 15.7752C49.7164 16.0345 49.2181 16.4045 48.8089 16.8626C48.3996 17.3208 48.088 17.8575 47.8929 18.44C47.6978 19.0225 47.6234 19.6386 47.6742 20.2508L50.1244 49.59L81.4586 47.3615Z" fill="#231F20"/>
<path d="M50.1363 49.784C50.0868 49.7852 50.0387 49.7674 50.002 49.7342C49.9652 49.7011 49.9424 49.6552 49.9384 49.6059L47.5001 20.2667C47.4471 19.6288 47.5244 18.9868 47.7273 18.3797C47.9301 17.7727 48.2543 17.2131 48.68 16.7352C49.1058 16.2573 49.6242 15.8708 50.2039 15.5995C50.7836 15.3281 51.4124 15.1773 52.0521 15.1565L76.7917 14.4163C77.4229 14.3972 78.0515 14.505 78.6402 14.7333C79.229 14.9616 79.7659 15.3058 80.2192 15.7454C80.6724 16.1851 81.0329 16.7112 81.2791 17.2927C81.5253 17.8742 81.6523 18.4992 81.6525 19.1306V47.3615C81.6527 47.4113 81.634 47.4594 81.6003 47.4961C81.5665 47.5328 81.5202 47.5554 81.4705 47.5594L50.1442 49.784H50.1363ZM76.9421 14.8081H76.7917L52.0482 15.5523C51.4634 15.5733 50.8889 15.7128 50.3596 15.9624C49.8303 16.2119 49.3572 16.5664 48.969 17.0042C48.5807 17.4421 48.2854 17.9542 48.101 18.5095C47.9165 19.0649 47.8467 19.6519 47.8959 20.235L50.3263 49.3802L81.2765 47.1794V19.1306C81.2765 17.9842 80.8211 16.8848 80.0105 16.0742C79.1998 15.2635 78.1004 14.8081 76.954 14.8081H76.9421Z" fill="#231F20"/>
<path d="M105.747 29.2085C105.747 29.2085 102.145 30.5623 102.37 35.336C102.596 40.1098 101.373 45.2715 105.497 44.8796L105.747 47.69L114.455 48.6162C114.455 48.6162 115.366 34.0179 113.731 31.5954C112.096 29.1729 105.747 29.2085 105.747 29.2085Z" fill="white"/>
<path d="M114.463 48.8102H114.443L105.735 47.884C105.689 47.8796 105.647 47.8594 105.614 47.8269C105.582 47.7944 105.561 47.7516 105.557 47.7059L105.327 45.0934C104.962 45.138 104.592 45.1062 104.239 44.9999C103.887 44.8936 103.561 44.7151 103.281 44.4759C102.093 43.3834 102.145 41.0756 102.192 38.4038C102.192 37.4023 102.228 36.3652 102.192 35.3479C102.074 32.8107 103.028 31.2313 103.851 30.3486C104.367 29.7828 104.995 29.3311 105.695 29.0225C105.719 29.0188 105.743 29.0188 105.767 29.0225C106.032 29.0225 112.247 29.0502 113.921 31.5123C115.595 33.9744 114.713 48.0384 114.681 48.64C114.679 48.6667 114.672 48.6928 114.66 48.7166C114.647 48.7404 114.63 48.7615 114.61 48.7786C114.567 48.8071 114.514 48.8184 114.463 48.8102V48.8102ZM105.929 47.5L114.281 48.3867C114.38 46.6054 115.049 33.8834 113.573 31.7102C112.096 29.5371 106.305 29.3986 105.783 29.3946C105.41 29.545 102.363 30.9384 102.564 35.3321C102.616 36.3652 102.596 37.4063 102.564 38.4157C102.521 40.8856 102.481 43.2211 103.53 44.1909C103.978 44.6065 104.611 44.7688 105.466 44.6896C105.518 44.6852 105.571 44.7007 105.612 44.7331C105.652 44.7672 105.678 44.8154 105.684 44.8677L105.929 47.5Z" fill="#231F20"/>
<path d="M111.736 44.5867C116.386 44.5867 120.155 40.445 120.155 35.3361C120.155 30.2271 116.386 26.0854 111.736 26.0854C107.086 26.0854 103.317 30.2271 103.317 35.3361C103.317 40.445 107.086 44.5867 111.736 44.5867Z" fill="white"/>
<path d="M111.736 44.7846C106.986 44.7846 103.119 40.5452 103.119 35.3361C103.119 30.1269 106.986 25.8915 111.736 25.8915C116.486 25.8915 120.333 30.1269 120.333 35.3361C120.333 40.5452 116.486 44.7846 111.736 44.7846ZM111.736 26.2834C107.204 26.2834 103.514 30.3446 103.514 35.3361C103.514 40.3275 107.204 44.3927 111.736 44.3927C116.268 44.3927 119.957 40.3315 119.957 35.3361C119.957 30.3406 116.268 26.2834 111.736 26.2834V26.2834Z" fill="#231F20"/>
<path d="M72.018 4.43733C68.313 -0.75996 60.4161 0.403791 56.719 5.07858C54.7715 7.54067 53.9244 10.83 51.5732 12.9161C50.3263 14.0284 48.7548 14.7013 47.2823 15.4969C45.8098 16.2925 44.3531 17.3019 43.6129 18.8021C42.8727 20.3023 43.1063 22.3963 44.5194 23.2948C45.7623 24.0865 47.4723 23.758 48.7311 24.5298C47.1477 24.7396 46.0909 26.7386 46.8192 28.1675C47.4367 29.3828 48.8854 29.8815 50.2075 30.21C54.8704 31.3975 59.8461 31.8171 64.4575 30.4396C67.9013 29.4144 71.4163 27.1305 73.348 24.0271C75.1807 21.0821 74.5157 15.5286 74.2584 12.1521C74.0723 9.694 73.6805 7.18442 72.4296 5.06275C72.303 4.85296 72.1644 4.63921 72.018 4.43733Z" fill="white"/>
<path d="M58.2865 31.4846C55.5462 31.4564 52.8196 31.0922 50.168 30.4C48.7944 30.0596 47.3021 29.5331 46.653 28.2586C46.4711 27.8714 46.3842 27.4464 46.3993 27.019C46.4145 26.5915 46.5313 26.1738 46.7401 25.8004C47.0448 25.1983 47.5563 24.7261 48.1809 24.4704C47.6752 24.2981 47.1523 24.1813 46.6213 24.1221C45.8494 24.0589 45.0995 23.8336 44.4205 23.4611C42.8609 22.4675 42.6986 20.2231 43.4428 18.7111C44.2582 17.0683 45.8771 16.0352 47.1992 15.3227C47.5317 15.1406 47.8682 14.9665 48.2086 14.7923C49.3722 14.2566 50.464 13.5771 51.4584 12.7696C52.7923 11.5821 53.6553 9.94731 54.4905 8.36793C55.0821 7.17114 55.7788 6.02929 56.5726 4.95585C57.6329 3.64082 58.9798 2.58556 60.5103 1.87071C62.0409 1.15585 63.7146 0.800317 65.4036 0.831267C66.729 0.834326 68.0348 1.1525 69.213 1.75953C70.3913 2.36655 71.4084 3.24504 72.1803 4.32252C72.3267 4.52835 72.4692 4.75002 72.6038 4.97564C73.9298 7.22398 74.2861 9.86418 74.4603 12.1481C74.484 12.4569 74.5117 12.7854 74.5394 13.1298C74.8126 16.625 75.2084 21.4027 73.5182 24.1458C71.6973 27.079 68.3328 29.5054 64.5169 30.6454C62.4917 31.2254 60.393 31.5081 58.2865 31.4846V31.4846ZM65.1463 1.22314C63.5604 1.22957 61.9956 1.58797 60.565 2.27249C59.1343 2.95701 57.8735 3.95057 56.8734 5.18148C56.0928 6.23511 55.4091 7.35726 54.8309 8.53418C53.9798 10.1452 53.0971 11.8077 51.7117 13.0427C50.6963 13.8751 49.579 14.5748 48.3867 15.1248C48.0503 15.299 47.7138 15.4731 47.3853 15.6513C46.1146 16.34 44.559 17.3256 43.799 18.8694C43.1261 20.2271 43.2567 22.234 44.6303 23.1127C45.2622 23.4648 45.9605 23.6818 46.6807 23.75C47.4356 23.8152 48.1701 24.0291 48.8419 24.3794C48.8765 24.4007 48.9036 24.4322 48.9197 24.4694C48.9357 24.5067 48.9399 24.548 48.9317 24.5878C48.9235 24.6275 48.9033 24.6638 48.8738 24.6917C48.8442 24.7195 48.8069 24.7376 48.7667 24.7436C48.4113 24.8155 48.0763 24.9657 47.7862 25.1833C47.4961 25.4009 47.258 25.6803 47.0893 26.0014C46.9207 26.3224 46.8256 26.677 46.8111 27.0393C46.7965 27.4017 46.8629 27.7627 47.0053 28.0963C47.5832 29.2363 48.9844 29.7192 50.263 30.0398C55.6503 31.3856 60.4082 31.4648 64.4061 30.2734C68.1309 29.1611 71.4123 26.794 73.1857 23.94C74.8126 21.3196 74.4286 16.6131 74.1476 13.1773C74.1199 12.8329 74.0921 12.5044 74.0684 12.1956C73.8982 9.95523 73.5498 7.37043 72.2634 5.18939C72.1367 4.97564 71.9982 4.76585 71.8676 4.56793C71.1302 3.5407 70.1592 2.70349 69.0346 2.12537C67.91 1.54725 66.6641 1.24479 65.3996 1.24293L65.1463 1.22314Z" fill="#231F20"/>
<path d="M76.8709 19.6136C76.7759 19.0159 61.7263 16.4469 54.1659 20.0094C51.4584 30.3763 52.9546 50.6667 52.9546 50.6667L79.8396 50.4608C79.8396 50.4608 80.089 39.2825 76.8709 19.6136Z" fill="#DDDDDD"/>
<path d="M60.2656 20.2746C60.2656 20.2746 59.7946 50.1798 59.7907 50.3896C59.7867 50.5994 67.8854 50.3896 68.1031 50.0373C68.3208 49.685 68.1031 23.9875 68.1031 23.9875L61.4175 22.5625" fill="#231F20"/>
<path d="M61.3226 50.6667C60.8057 50.6847 60.2882 50.6622 59.7749 50.5994C59.7235 50.5909 59.6769 50.5642 59.6435 50.5243C59.6101 50.4843 59.5921 50.4337 59.5928 50.3817C59.5928 50.1758 60.0638 20.5675 60.0678 20.2667C60.0678 20.2409 60.0729 20.2153 60.0829 20.1915C60.0929 20.1677 60.1076 20.1462 60.126 20.1281C60.1444 20.11 60.1663 20.0958 60.1903 20.0863C60.2143 20.0768 60.2399 20.0722 60.2657 20.0727C60.2917 20.0732 60.3173 20.0789 60.3412 20.0893C60.365 20.0997 60.3865 20.1147 60.4045 20.1335C60.4225 20.1522 60.4367 20.1743 60.4461 20.1985C60.4556 20.2228 60.4602 20.2486 60.4597 20.2746C60.4597 20.5596 60.0243 47.9473 59.9886 50.2392C60.9861 50.354 67.2086 50.1758 67.9053 49.9067C68.0359 48.8854 67.929 31.1719 67.8736 24.1458L61.3543 22.7288C61.3283 22.7233 61.3036 22.7128 61.2817 22.6978C61.2598 22.6828 61.241 22.6636 61.2265 22.6414C61.212 22.6192 61.202 22.5943 61.1971 22.5682C61.1922 22.5421 61.1924 22.5153 61.1979 22.4893C61.2034 22.4633 61.2139 22.4386 61.2289 22.4167C61.2439 22.3948 61.263 22.376 61.2853 22.3615C61.3075 22.347 61.3324 22.337 61.3585 22.3321C61.3846 22.3272 61.4114 22.3275 61.4374 22.3329L68.1111 23.7817C68.1548 23.7908 68.194 23.8146 68.2221 23.8492C68.2502 23.8838 68.2655 23.9271 68.2655 23.9717C68.3288 31.7142 68.4476 49.7602 68.2417 50.1204C68.1745 50.2352 68.0478 50.4529 64.1013 50.5994C63.1751 50.6667 62.1459 50.6667 61.3226 50.6667Z" fill="#231F20"/>
<path d="M67.8657 19.8154L68.0636 24.7317C68.0636 24.7317 67.5134 27.0038 64.1924 26.3704C60.8713 25.7371 60.2776 23.4967 60.2776 23.4967L60.2419 14.3134C60.2419 14.3134 65.2571 11.3288 64.2834 6.08002C64.2834 6.08002 66.4763 10.1413 71.3253 9.28231C71.3253 9.28231 71.6221 13.9967 71.349 16.5577C71.0759 19.1188 67.8657 19.8154 67.8657 19.8154Z" fill="white"/>
<path d="M65.2848 26.6792C64.906 26.6763 64.5283 26.6379 64.1567 26.5644C60.7486 25.9152 60.1113 23.6431 60.0836 23.5481C60.0815 23.531 60.0815 23.5138 60.0836 23.4967L60.048 14.3133C60.0482 14.2793 60.057 14.2458 60.0736 14.216C60.0902 14.1863 60.1141 14.1612 60.143 14.1431C60.1905 14.1154 65.0276 11.1665 64.1013 6.11564C64.093 6.06944 64.1013 6.02179 64.1249 5.9812C64.1484 5.9406 64.1857 5.90969 64.2299 5.89399C64.2741 5.8783 64.3225 5.87883 64.3664 5.8955C64.4103 5.91218 64.4468 5.9439 64.4694 5.98501C65.1437 7.14778 66.1624 8.07243 67.3849 8.63119C68.6073 9.18994 69.9732 9.35522 71.2936 9.10418C71.3207 9.09864 71.3486 9.09932 71.3754 9.10618C71.4021 9.11304 71.4269 9.12589 71.448 9.14376C71.4702 9.16055 71.4884 9.18202 71.5014 9.20664C71.5144 9.23127 71.5219 9.25845 71.5232 9.28626C71.5232 9.33376 71.8161 14.0363 71.5469 16.5973C71.2936 18.9723 68.7524 19.7996 68.0715 19.9817L68.2615 24.7317C68.2634 24.7488 68.2634 24.766 68.2615 24.7831C68.2496 24.799 67.7628 26.6792 65.2848 26.6792ZM60.4755 23.469C60.5467 23.7104 61.2196 25.5985 64.228 26.1725C67.1532 26.7346 67.7905 24.9335 67.8617 24.7079L67.6876 19.8233C67.6857 19.7764 67.7006 19.7303 67.7296 19.6933C67.7586 19.6563 67.7998 19.6308 67.8459 19.6215C67.8736 19.6215 70.9176 18.9248 71.1709 16.5379C71.4044 14.3331 71.2144 10.4698 71.1709 9.51189C69.9402 9.70745 68.6795 9.5643 67.524 9.09778C66.3685 8.63126 65.3618 7.85897 64.6119 6.86376C64.9444 11.2892 61.1286 13.9888 60.4676 14.4242L60.4755 23.469Z" fill="#231F20"/>
<path d="M61.7817 13.9769C61.646 13.5298 61.368 13.1393 60.9901 12.8646C60.627 12.6238 60.2254 12.4471 59.8025 12.3421C59.5803 12.2592 59.342 12.228 59.1059 12.2511C58.9418 12.2857 58.7859 12.3515 58.6467 12.445C58.3008 12.6353 58.0342 12.9427 57.8946 13.3119C57.8175 13.6212 57.8175 13.9447 57.8946 14.254C57.9508 14.5944 58.0519 14.9259 58.1955 15.2396C58.3459 15.55 58.5567 15.8273 58.8154 16.0555C59.0741 16.2836 59.3756 16.4581 59.7023 16.5686C60.0291 16.6791 60.3745 16.7235 60.7186 16.6992C61.0627 16.6749 61.3985 16.5824 61.7065 16.4271" fill="white"/>
<path d="M60.5626 16.9021C60.0359 16.9047 59.5193 16.7572 59.0734 16.4768C58.6275 16.1964 58.2708 15.7947 58.0451 15.3187C57.8932 14.9889 57.7867 14.6401 57.7284 14.2817C57.6452 13.9423 57.6452 13.5879 57.7284 13.2485C57.8792 12.8335 58.1743 12.4865 58.5597 12.2708C58.7207 12.1646 58.9008 12.0906 59.0901 12.0531C59.3578 12.0231 59.6288 12.0557 59.8818 12.1481C60.3246 12.2606 60.745 12.448 61.1247 12.7023C61.5342 13.0037 61.8343 13.4303 61.9797 13.9175C61.9944 13.97 61.9876 14.0262 61.9609 14.0737C61.9342 14.1212 61.8897 14.1561 61.8372 14.1708C61.7847 14.1855 61.7285 14.1788 61.681 14.152C61.6335 14.1253 61.5985 14.0808 61.5838 14.0283C61.4619 13.6236 61.2119 13.2694 60.8713 13.0189C60.5335 12.7979 60.1618 12.6335 59.7709 12.5321C59.5766 12.4585 59.3685 12.4287 59.1613 12.445C59.0198 12.474 58.8853 12.5305 58.7655 12.6112C58.4631 12.7806 58.2282 13.049 58.1005 13.3712C58.0333 13.6496 58.0333 13.94 58.1005 14.2183C58.1524 14.5413 58.2483 14.8556 58.3855 15.1525C58.5251 15.4385 58.7199 15.6941 58.9588 15.9045C59.1976 16.1149 59.4758 16.2758 59.7772 16.3781C60.0786 16.4804 60.3972 16.5221 60.7148 16.5006C61.0324 16.4791 61.3425 16.3949 61.6274 16.2529C61.6735 16.2337 61.7252 16.2326 61.7721 16.25C61.819 16.2673 61.8575 16.3017 61.8801 16.3463C61.9026 16.3909 61.9075 16.4424 61.8937 16.4904C61.8798 16.5384 61.8483 16.5794 61.8055 16.6052C61.4196 16.7986 60.9942 16.9002 60.5626 16.9021Z" fill="#231F20"/>
<path d="M68.0438 12.1086C68.0438 12.1086 69.9755 14.5271 69.6034 15.0061C69.2313 15.485 68.0676 15.2871 68.0676 15.2871" fill="white"/>
<path d="M68.6019 15.5285C68.4125 15.528 68.2233 15.5135 68.0359 15.485C67.9843 15.4753 67.9385 15.446 67.9082 15.4031C67.8779 15.3602 67.8655 15.3073 67.8736 15.2554C67.8775 15.2298 67.8864 15.2052 67.8999 15.1831C67.9134 15.161 67.9312 15.1418 67.9522 15.1267C67.9732 15.1115 67.9971 15.1008 68.0223 15.095C68.0476 15.0893 68.0737 15.0886 68.0992 15.0931C68.3724 15.1406 69.2076 15.2 69.449 14.8873C69.5717 14.6696 68.8434 13.4267 67.8894 12.2352C67.8728 12.2148 67.8604 12.1912 67.853 12.166C67.8456 12.1407 67.8433 12.1142 67.8462 12.088C67.8492 12.0619 67.8573 12.0365 67.8702 12.0135C67.883 11.9906 67.9004 11.9704 67.9211 11.9542C67.9621 11.9218 68.0143 11.907 68.0662 11.9129C68.1181 11.9188 68.1655 11.945 68.1982 11.9858C68.8078 12.7498 70.1774 14.5825 69.7815 15.1287C69.6262 15.2778 69.4401 15.3908 69.2362 15.4599C69.0324 15.529 68.8158 15.5524 68.6019 15.5285V15.5285Z" fill="#231F20"/>
<path d="M66.5951 11.1642C66.6087 10.8344 66.4302 10.5592 66.1965 10.5496C65.9628 10.5399 65.7623 10.7995 65.7487 11.1293C65.7351 11.4591 65.9136 11.7343 66.1473 11.744C66.381 11.7536 66.5815 11.494 66.5951 11.1642Z" fill="#231F20"/>
<path d="M69.6953 11.1223C69.7453 10.796 69.5983 10.5028 69.3671 10.4674C69.1358 10.432 68.9079 10.6678 68.858 10.9941C68.8081 11.3205 68.955 11.6137 69.1862 11.649C69.4175 11.6844 69.6454 11.4486 69.6953 11.1223Z" fill="#231F20"/>
<path d="M69.5954 16.3519C69.5954 16.3519 65.4075 18.8891 64.6633 14.9942Z" fill="white"/>
<path d="M66.9592 17.3613C66.5965 17.3662 66.2367 17.2961 65.9023 17.1554C65.1581 16.8229 64.6752 16.1104 64.4694 15.0298C64.4643 15.0043 64.4643 14.978 64.4695 14.9525C64.4748 14.927 64.4851 14.9029 64.4999 14.8814C64.5146 14.86 64.5336 14.8418 64.5555 14.8278C64.5775 14.8139 64.6021 14.8045 64.6277 14.8002C64.6786 14.7909 64.7311 14.8018 64.774 14.8306C64.8169 14.8595 64.8468 14.904 64.8573 14.9546C65.0394 15.9007 65.4431 16.5379 66.0646 16.7913C67.4461 17.4088 69.4727 16.1975 69.4925 16.1817C69.5377 16.1544 69.5918 16.1462 69.643 16.1588C69.6942 16.1714 69.7384 16.2038 69.7657 16.249C69.7929 16.2941 69.8012 16.3483 69.7886 16.3995C69.776 16.4507 69.7435 16.4948 69.6984 16.5221C68.8647 17.0149 67.9258 17.3025 66.9592 17.3613V17.3613Z" fill="#231F20"/>
<path d="M67.8656 19.8154C67.8656 19.8154 65.3125 19.859 64.1091 19.1821C64.1091 19.1821 65.1462 22.0836 67.9369 22.7723L67.8656 19.8154Z" fill="#231F20"/>
<path d="M67.9369 22.9584H67.8894C65.0315 22.2498 63.9706 19.3642 63.931 19.2415C63.916 19.2037 63.9132 19.1621 63.923 19.1226C63.9329 19.0831 63.9549 19.0478 63.986 19.0215C64.0171 18.9952 64.0556 18.9794 64.0962 18.9763C64.1368 18.9731 64.1773 18.9828 64.2121 19.004C65.3521 19.6452 67.8419 19.6096 67.8656 19.6096C67.9181 19.6072 67.9696 19.6245 68.0099 19.6582C68.0503 19.692 68.0765 19.7396 68.0833 19.7917L68.1546 22.7525C68.1551 22.7788 68.1504 22.805 68.1407 22.8295C68.131 22.8539 68.1165 22.8762 68.098 22.895C68.0796 22.9138 68.0576 22.9288 68.0333 22.939C68.0091 22.9491 67.983 22.9544 67.9567 22.9544L67.9369 22.9584ZM64.5208 19.574C64.9167 20.3656 65.9221 21.949 67.7548 22.5111L67.6875 20.0094C66.6163 20.0211 65.5492 19.8744 64.5208 19.574Z" fill="#231F20"/>
<path d="M101.361 22.0875C100.621 21.4265 95.8194 24.4625 95.8194 24.4625C96.0253 22.5665 96.2747 21.1256 95.8194 21.0821C95.3642 21.0386 93.5117 26.1409 93.5117 26.1409C93.5117 26.1409 87.3684 35.1104 86.8736 35.3598C86.3788 35.6092 76.8709 19.6136 76.8709 19.6136C71.4638 25.5115 75.5132 33.7963 75.5132 33.7963C75.5132 33.7963 85.5317 46.4115 87.6336 46.2888C89.3317 46.1898 94.9921 36.0604 97.098 32.1852C97.098 32.1852 98.5586 29.8102 99.1524 28.9315C99.7461 28.0527 101.69 26.2121 102.557 25.179C103.423 24.1458 102.125 22.7486 101.361 22.0875Z" fill="white"/>
<path d="M87.6059 46.4709C85.409 46.4709 76.3959 35.2015 75.3707 33.9111C75.3073 33.7923 71.3094 25.4086 76.7403 19.4909C76.7593 19.4705 76.7828 19.4549 76.8089 19.4453C76.835 19.4357 76.863 19.4323 76.8907 19.4354C76.9186 19.4374 76.9456 19.4465 76.9692 19.4617C76.9927 19.4769 77.012 19.4978 77.0253 19.5225C80.568 25.46 86.0067 34.3742 86.8696 35.1619C87.4871 34.5484 91.0338 29.4738 93.3653 26.0577C95.2613 20.8525 95.7007 20.8882 95.8551 20.9119C95.9052 20.916 95.9539 20.9304 95.9982 20.9542C96.0425 20.9781 96.0813 21.0108 96.1123 21.0504C96.3657 21.3632 96.2905 22.1232 96.1123 23.6788C96.1123 23.8213 96.0807 23.9677 96.0609 24.1182C97.474 23.2354 100.763 21.3038 101.488 21.945C102.972 23.2671 103.4 24.4546 102.699 25.2898C102.335 25.7252 101.793 26.2913 101.219 26.8732C100.539 27.5463 99.9002 28.2602 99.3067 29.0107C98.7209 29.8617 97.2721 32.2327 97.2563 32.2565C94.4023 37.5052 89.3396 46.3442 87.6455 46.4471L87.6059 46.4709ZM76.8432 19.9184C71.828 25.6421 75.6557 33.6379 75.6755 33.7171C79.6338 38.6967 86.074 46.1107 87.594 46.1107H87.6217C88.7103 46.0434 92.2807 40.6759 96.9396 32.0982C96.9594 32.0665 98.4121 29.6915 99.0059 28.8286C99.6042 28.0624 100.249 27.334 100.938 26.6475C101.508 26.0538 102.046 25.4917 102.402 25.0642C103.154 24.1696 101.987 22.899 101.215 22.2221C100.819 21.8698 98.1509 23.1998 95.9065 24.6327C95.8772 24.6502 95.8437 24.6594 95.8095 24.6594C95.7754 24.6594 95.7419 24.6502 95.7125 24.6327C95.6834 24.6148 95.6601 24.5888 95.6454 24.5579C95.6306 24.527 95.6251 24.4925 95.6294 24.4586C95.6611 24.1775 95.6928 23.9044 95.7205 23.6471C95.8273 22.7248 95.9738 21.47 95.8155 21.2959C95.479 21.6046 94.4776 23.9994 93.6701 26.2161C93.6707 26.2306 93.6707 26.2451 93.6701 26.2596C92.6369 27.7638 87.4753 35.2807 86.9646 35.534C86.743 35.6488 86.5094 35.7675 81.5338 27.6807C79.4438 24.2686 77.3657 20.7971 76.8432 19.9184Z" fill="#231F20"/>
<path d="M97.0306 27.5065C97.0084 27.5116 96.9854 27.5116 96.9633 27.5065C96.9197 27.4881 96.8849 27.4534 96.8664 27.4098C96.848 27.3662 96.8472 27.3171 96.8643 27.2729C97.4581 25.7846 95.8075 24.6921 95.7402 24.6486C95.7168 24.6375 95.696 24.6217 95.6793 24.602C95.6625 24.5823 95.6501 24.5593 95.6429 24.5345C95.6357 24.5097 95.6339 24.4836 95.6376 24.458C95.6413 24.4324 95.6503 24.4079 95.6642 24.3861C95.6781 24.3643 95.6964 24.3457 95.7181 24.3315C95.7397 24.3174 95.7641 24.308 95.7896 24.304C95.8151 24.3 95.8412 24.3014 95.8662 24.3083C95.8911 24.3152 95.9142 24.3273 95.9341 24.3438C95.9539 24.3438 97.9133 25.6421 97.2008 27.4075C97.1849 27.4386 97.1604 27.4644 97.1302 27.482C97.1 27.4995 97.0654 27.508 97.0306 27.5065V27.5065Z" fill="#231F20"/>
<path d="M95.9975 43.3755H31.4569V93.9748H95.9975V43.3755Z" fill="white"/>
<path d="M95.9975 94.1569H31.4767C31.4284 94.1569 31.3821 94.1377 31.3479 94.1036C31.3138 94.0694 31.2946 94.0231 31.2946 93.9748V43.3754C31.2946 43.3517 31.2993 43.3282 31.3085 43.3063C31.3177 43.2845 31.3312 43.2647 31.3482 43.2481C31.3651 43.2315 31.3852 43.2184 31.4073 43.2097C31.4294 43.201 31.453 43.1968 31.4767 43.1973H95.9975C96.0451 43.1973 96.0909 43.2159 96.1249 43.2492C96.1589 43.2825 96.1786 43.3278 96.1796 43.3754V93.9748C96.1786 94.0228 96.1591 94.0685 96.1251 94.1025C96.0912 94.1364 96.0455 94.1559 95.9975 94.1569V94.1569ZM31.635 93.8125H95.8154V43.5417H31.635V93.8125Z" fill="#231F20"/>
<path d="M61.4928 80.56L40.8382 79.7367C40.8122 79.7357 40.7866 79.7295 40.763 79.7186C40.7394 79.7077 40.7181 79.6923 40.7005 79.6732C40.6829 79.6541 40.6691 79.6316 40.6602 79.6072C40.6512 79.5828 40.6471 79.5569 40.6482 79.5309L41.2103 65.4273C41.2136 65.3749 41.2362 65.3256 41.2736 65.2888C41.313 65.2545 41.3638 65.2361 41.4161 65.2373L62.0707 66.0567C62.1228 66.0598 62.1717 66.0829 62.2072 66.1213C62.2426 66.1597 62.2618 66.2103 62.2607 66.2625L61.6907 80.3542C61.6879 80.4056 61.6651 80.4539 61.6273 80.4888C61.611 80.5093 61.5907 80.5262 61.5675 80.5385C61.5443 80.5507 61.5189 80.5581 61.4928 80.56ZM41.044 79.3488L61.3028 80.1404L61.849 66.4288L41.5903 65.6371L41.044 79.3488Z" fill="#D1D3D4"/>
<path d="M64.5526 62.2646L50.4886 61.9281C50.4365 61.927 50.3869 61.9057 50.3501 61.8688C50.3147 61.8297 50.2949 61.779 50.2947 61.7263L50.6232 48.1413C50.6237 48.1153 50.6294 48.0896 50.6398 48.0658C50.6502 48.042 50.6652 48.0205 50.684 48.0025C50.7027 47.9845 50.7248 47.9703 50.7491 47.9608C50.7733 47.9514 50.7991 47.9468 50.8251 47.9473L64.8891 48.2838C64.9151 48.2848 64.9406 48.2909 64.9642 48.3018C64.9878 48.3127 65.0091 48.3282 65.0267 48.3473C65.0444 48.3664 65.0581 48.3888 65.0671 48.4132C65.076 48.4377 65.0801 48.4636 65.0791 48.4896L64.7545 62.0746C64.7525 62.1265 64.7314 62.1759 64.6951 62.2131C64.6551 62.2465 64.6047 62.2647 64.5526 62.2646ZM50.6984 61.5363L64.3626 61.8648L64.6793 48.6756L51.0151 48.3511L50.6984 61.5363Z" fill="#D1D3D4"/>
<path d="M78.5096 62.601L64.4457 62.2646C64.4197 62.2635 64.3941 62.2574 64.3705 62.2465C64.3469 62.2356 64.3256 62.2202 64.308 62.201C64.2903 62.1819 64.2766 62.1595 64.2676 62.1351C64.2587 62.1107 64.2546 62.0847 64.2557 62.0587L64.5802 48.4777C64.5804 48.4518 64.5857 48.4262 64.5959 48.4024C64.6061 48.3786 64.621 48.3571 64.6396 48.3392C64.6582 48.3206 64.6805 48.306 64.705 48.2965C64.7296 48.287 64.7558 48.2826 64.7821 48.2837L78.8461 48.6202C78.8722 48.6211 78.8979 48.6271 78.9217 48.638C78.9455 48.6489 78.9668 48.6644 78.9846 48.6835C79.0026 48.7016 79.0165 48.7233 79.0254 48.7472C79.0343 48.7711 79.0379 48.7966 79.0361 48.8221L78.7115 62.4071C78.7094 62.4592 78.6873 62.5086 78.6496 62.5447C78.612 62.5809 78.5618 62.6011 78.5096 62.601V62.601ZM64.6554 61.8727L78.3196 62.2012L78.6363 49.0121L64.9682 48.6875L64.6554 61.8727Z" fill="#D1D3D4"/>
<path d="M62.2607 59.8777L53.9482 59.6798C53.8957 59.6798 53.8453 59.659 53.8082 59.6218C53.7711 59.5847 53.7502 59.5344 53.7502 59.4819C53.7502 59.4294 53.7711 59.3791 53.8082 59.342C53.8453 59.3048 53.8957 59.284 53.9482 59.284L62.2607 59.4819C62.3128 59.4839 62.3622 59.5061 62.3983 59.5438C62.4345 59.5814 62.4547 59.6316 62.4546 59.6838C62.4536 59.7349 62.4329 59.7836 62.3967 59.8198C62.3605 59.8559 62.3118 59.8767 62.2607 59.8777V59.8777Z" fill="#D1D3D4"/>
<path d="M62.3161 57.5819L54.0036 57.38C53.9774 57.3801 53.9515 57.3748 53.9275 57.3645C53.9034 57.3543 53.8817 57.3393 53.8635 57.3204C53.8454 57.3016 53.8313 57.2793 53.822 57.2548C53.8128 57.2304 53.8085 57.2043 53.8096 57.1782C53.8101 57.1522 53.8158 57.1265 53.8262 57.1027C53.8366 57.0789 53.8516 57.0574 53.8704 57.0394C53.8891 57.0213 53.9112 57.0072 53.9354 56.9977C53.9597 56.9883 53.9855 56.9837 54.0115 56.9842L62.324 57.1861C62.3765 57.1861 62.4268 57.2069 62.4639 57.244C62.501 57.2812 62.5219 57.3315 62.5219 57.384C62.5219 57.4365 62.501 57.4868 62.4639 57.5239C62.4268 57.5611 62.3765 57.5819 62.324 57.5819H62.3161Z" fill="#D1D3D4"/>
<path d="M62.3715 55.2821L54.059 55.0842C54.033 55.0837 54.0074 55.078 53.9835 55.0676C53.9597 55.0572 53.9382 55.0422 53.9202 55.0234C53.9022 55.0047 53.888 54.9826 53.8786 54.9583C53.8691 54.9341 53.8645 54.9083 53.865 54.8823C53.8689 54.8308 53.8916 54.7825 53.9289 54.7467C53.9661 54.7109 54.0153 54.6901 54.0669 54.6883L62.3794 54.8863C62.4319 54.8893 62.4813 54.9123 62.5173 54.9506C62.5534 54.9889 62.5735 55.0395 62.5734 55.0921C62.5713 55.1439 62.549 55.1928 62.5113 55.2283C62.4735 55.2639 62.4233 55.2832 62.3715 55.2821Z" fill="#D1D3D4"/>
<path d="M62.4229 52.9863L54.1104 52.7844C54.0842 52.7844 54.0583 52.7791 54.0343 52.7689C54.0102 52.7587 53.9885 52.7437 53.9704 52.7248C53.9522 52.7059 53.9381 52.6836 53.9288 52.6592C53.9196 52.6347 53.9154 52.6086 53.9164 52.5825C53.9211 52.5313 53.9441 52.4835 53.9812 52.4479C54.0183 52.4123 54.0669 52.3912 54.1183 52.3885L62.4308 52.5904C62.4566 52.5909 62.4821 52.5966 62.5057 52.6071C62.5293 52.6175 62.5505 52.6326 62.5682 52.6514C62.5859 52.6702 62.5997 52.6924 62.6087 52.7166C62.6177 52.7407 62.6218 52.7665 62.6208 52.7923C62.6198 52.8441 62.5984 52.8934 62.5614 52.9297C62.5244 52.966 62.4747 52.9863 62.4229 52.9863Z" fill="#D1D3D4"/>
<path d="M62.4784 50.6865L54.1659 50.4886C54.1141 50.4865 54.0652 50.4642 54.0296 50.4264C53.9941 50.3887 53.9748 50.3385 53.9759 50.2867C53.9797 50.2352 54.0025 50.1869 54.0397 50.1511C54.077 50.1153 54.1261 50.0945 54.1777 50.0927L62.4902 50.2906C62.5162 50.2917 62.5418 50.2978 62.5654 50.3087C62.589 50.3196 62.6103 50.335 62.6279 50.3542C62.6456 50.3733 62.6593 50.3957 62.6683 50.4201C62.6772 50.4445 62.6813 50.4705 62.6803 50.4965C62.6797 50.5223 62.6741 50.5477 62.6636 50.5713C62.6531 50.5949 62.6381 50.6162 62.6193 50.6339C62.6005 50.6516 62.5783 50.6654 62.5541 50.6744C62.5299 50.6834 62.5042 50.6875 62.4784 50.6865Z" fill="#D1D3D4"/>
<path d="M75.6952 53.3029L67.3827 53.105C67.3567 53.1045 67.3311 53.0988 67.3073 53.0884C67.2835 53.078 67.2619 53.063 67.2439 53.0442C67.2259 53.0255 67.2118 53.0034 67.2023 52.9792C67.1928 52.9549 67.1882 52.9291 67.1888 52.9031C67.1882 52.8768 67.193 52.8507 67.2031 52.8263C67.2131 52.802 67.2281 52.78 67.2471 52.7618C67.2661 52.7435 67.2886 52.7294 67.3133 52.7204C67.3381 52.7113 67.3644 52.7075 67.3906 52.7092L75.7032 52.9071C75.755 52.9091 75.8039 52.9314 75.8394 52.9692C75.8749 53.0069 75.8942 53.0571 75.8932 53.1089C75.8932 53.1348 75.888 53.1603 75.878 53.1841C75.868 53.2079 75.8534 53.2295 75.835 53.2475C75.8165 53.2656 75.7947 53.2798 75.7707 53.2893C75.7467 53.2988 75.721 53.3034 75.6952 53.3029V53.3029Z" fill="#D1D3D4"/>
<path d="M75.7507 51.0071L67.4382 50.8053C67.4124 50.8048 67.3869 50.7991 67.3633 50.7886C67.3397 50.7782 67.3185 50.7631 67.3008 50.7443C67.2831 50.7255 67.2693 50.7033 67.2603 50.6791C67.2513 50.6549 67.2472 50.6292 67.2482 50.6034C67.2487 50.5774 67.2544 50.5517 67.2648 50.5279C67.2752 50.5041 67.2902 50.4826 67.309 50.4646C67.3277 50.4466 67.3498 50.4324 67.374 50.423C67.3983 50.4135 67.4241 50.4089 67.4501 50.4094L75.7626 50.6113C75.8151 50.6113 75.8654 50.6321 75.9025 50.6693C75.9397 50.7064 75.9605 50.7567 75.9605 50.8092C75.9605 50.8617 75.9397 50.912 75.9025 50.9492C75.8654 50.9863 75.8151 51.0071 75.7626 51.0071H75.7507Z" fill="#D1D3D4"/>
<path d="M75.5171 60.7525L66.9711 60.5625C66.9183 60.5604 66.8683 60.5377 66.8321 60.4992C66.7958 60.4607 66.7761 60.4095 66.7771 60.3567L66.9078 54.9733C66.9089 54.9212 66.9302 54.8716 66.9671 54.8348C67.0062 54.7994 67.0569 54.7796 67.1096 54.7794L75.6517 54.9852C75.6777 54.9857 75.7033 54.9914 75.7272 55.0018C75.751 55.0122 75.7725 55.0272 75.7905 55.046C75.8085 55.0647 75.8227 55.0868 75.8321 55.111C75.8416 55.1352 75.8462 55.1611 75.8457 55.1871L75.715 60.5625C75.7131 60.6144 75.6919 60.6638 75.6557 60.701C75.6167 60.7335 75.5678 60.7517 75.5171 60.7525V60.7525ZM67.1769 60.1667L75.3232 60.3606L75.4459 55.3731L67.2996 55.1752L67.1769 60.1667Z" fill="#D1D3D4"/>
<path d="M54.4429 20.1875C54.4429 20.1875 43.3794 33.4558 41.9583 37.9169C40.5373 42.3779 51.0229 56.3667 51.0229 56.3667C51.0229 56.3667 54.4429 60.8158 56.0777 59.8698C57.7125 58.9237 56.0777 54.0154 56.0777 54.0154C56.0777 54.0154 58.9554 55.6502 58.334 54.3123C57.7125 52.9744 53.9204 51.8779 53.9204 51.8779L49.2377 37.8773L53.0417 33.1629" fill="white"/>
<path d="M55.5711 60.1667C53.7977 60.1667 51.2169 56.8773 50.8923 56.4577C50.4609 55.8838 40.375 42.3384 41.7882 37.8536C43.2013 33.3688 53.8452 20.619 54.2965 20.0767C54.3109 20.0557 54.3295 20.038 54.3511 20.0246C54.3728 20.0113 54.397 20.0027 54.4222 19.9992C54.4474 19.9958 54.473 19.9977 54.4975 20.0048C54.5219 20.0119 54.5445 20.0241 54.564 20.0404C54.5834 20.0568 54.5992 20.0771 54.6104 20.1C54.6215 20.1229 54.6277 20.1478 54.6286 20.1732C54.6295 20.1986 54.6251 20.224 54.6156 20.2476C54.6061 20.2712 54.5918 20.2925 54.5736 20.3102C54.4627 20.4409 43.5179 33.5904 42.1325 37.9604C40.7471 42.3304 51.0704 56.1094 51.1734 56.2479C52.0956 57.4354 54.7636 60.42 55.9906 59.7036C57.2177 58.9871 56.3509 55.389 55.9075 54.0669C55.8968 54.0317 55.8966 53.9942 55.9072 53.9589C55.9178 53.9237 55.9385 53.8924 55.9669 53.869C55.9948 53.846 56.0289 53.8319 56.0648 53.8284C56.1008 53.8249 56.137 53.8321 56.1688 53.8492C57.1029 54.3796 58.0925 54.7556 58.2429 54.6409C58.2429 54.6409 58.2627 54.5775 58.1717 54.3875C57.6927 53.3504 54.9061 52.349 53.8729 52.0482C53.8452 52.0403 53.8198 52.0258 53.7991 52.0057C53.7784 51.9857 53.7629 51.9608 53.7542 51.9334L49.0834 37.9367C49.0737 37.908 49.0716 37.8773 49.0771 37.8475C49.0827 37.8177 49.0957 37.7898 49.115 37.7665L52.8913 33.0521C52.9059 33.0334 52.9242 33.0178 52.9449 33.0063C52.9657 32.9948 52.9885 32.9875 53.0121 32.9849C53.0357 32.9823 53.0596 32.9845 53.0823 32.9913C53.1051 32.9981 53.1263 33.0093 53.1446 33.0244C53.1814 33.0546 53.205 33.098 53.2102 33.1454C53.2153 33.1928 53.2018 33.2403 53.1723 33.2777L49.4594 37.9129L54.0788 51.7315C54.6804 51.9136 57.9104 52.9467 58.5121 54.2371C58.6546 54.5459 58.6506 54.7715 58.5121 54.91C58.1717 55.2227 57.1148 54.7556 56.4102 54.3875C56.7744 55.6344 57.6571 59.1771 56.1965 60.0242C56.005 60.1282 55.7887 60.1775 55.5711 60.1667Z" fill="#231F20"/>
<path d="M34.113 31.6113C34.113 31.6113 33.6419 28.3536 31.0136 27.5381C28.3852 26.7227 20.8169 26.8731 20.0134 32.684C19.2098 38.4948 22.0598 42.6432 24.4388 43.8663L30.2457 43.2686L34.113 31.6113Z" fill="white"/>
<path d="M24.4388 44.0761C24.4087 44.082 24.3778 44.082 24.3477 44.0761C22.1469 42.944 18.9684 38.851 19.8194 32.6879C19.9191 31.813 20.2183 30.9726 20.6939 30.2314C21.1694 29.4903 21.8087 28.8681 22.5625 28.4129C25.2423 26.7108 29.2363 26.7702 31.0888 27.3481C33.8042 28.1952 34.303 31.445 34.3227 31.5835C34.3305 31.6134 34.3305 31.6447 34.3227 31.6746L30.4555 43.3438C30.4435 43.3798 30.4215 43.4116 30.3921 43.4354C30.3626 43.4593 30.3269 43.4742 30.2892 43.4783L24.4823 44.0761H24.4388ZM28.1873 27.3719C26.418 27.3719 24.3477 27.736 22.7605 28.7454C22.0636 29.1692 21.4721 29.7457 21.0306 30.4314C20.589 31.1171 20.3089 31.894 20.2113 32.7038C19.3959 38.6135 22.3765 42.5363 24.4784 43.6565L30.0834 43.0983L33.8952 31.5954C33.828 31.1996 33.254 28.4288 30.9463 27.7281C30.0484 27.4783 29.1193 27.3583 28.1873 27.3719Z" fill="#231F20"/>
<path d="M30.2852 32.8859L30.7958 35.9298C30.7958 35.9298 29.6519 33.6142 28.5237 35.6013C27.3956 37.5884 30.6375 40.193 30.6375 40.193L29.9606 43.0113L23.9756 43.609L23.184 49.5465C23.184 49.5465 32.0665 50.8409 31.92 50.6152C31.8685 50.54 32.5217 44.753 32.5217 44.753C32.5217 44.753 34.1446 45.4061 35.0471 42.8252C35.9496 40.2444 34.1248 31.5955 34.1248 31.5955L30.2852 32.8859Z" fill="white"/>
<path d="M31.7142 50.8369C31.0571 50.8369 29.1215 50.6271 23.1444 49.7563C23.0932 49.7484 23.0471 49.7208 23.016 49.6794C22.9849 49.6379 22.9713 49.586 22.9782 49.5346L23.7698 43.5971C23.7751 43.5531 23.7952 43.5122 23.8269 43.4813C23.8586 43.4503 23.8999 43.4311 23.944 43.4269L29.7905 42.845L30.4079 40.284C29.8498 39.8129 27.2413 37.4498 28.3377 35.534C28.6861 34.9204 29.1017 34.6196 29.5252 34.6315C29.7031 34.6497 29.8756 34.7032 30.0326 34.7888C30.1896 34.8745 30.328 34.9905 30.4396 35.1302L30.0755 32.9532C30.0672 32.9067 30.0759 32.8588 30.0998 32.8182C30.1238 32.7776 30.1615 32.7468 30.2061 32.7315L34.0338 31.4569C34.059 31.4444 34.0868 31.4378 34.1149 31.4378C34.1431 31.4378 34.1709 31.4444 34.1961 31.4569C34.22 31.471 34.2409 31.4898 34.2572 31.5123C34.2736 31.5348 34.2851 31.5604 34.2911 31.5875C34.3663 31.9398 36.1159 40.2959 35.2054 42.9202C34.8532 43.9336 34.3425 44.5986 33.6973 44.8994C33.3745 45.0476 33.0147 45.0958 32.6642 45.0379C32.4188 47.219 32.0823 50.3382 32.0863 50.6232C32.0953 50.6737 32.0854 50.7258 32.0586 50.7696C32.0625 50.7894 32.019 50.8369 31.7142 50.8369ZM23.4017 49.3961C26.3507 49.8236 30.8552 50.4371 31.7142 50.4609C31.7142 49.9898 31.8607 48.6677 32.304 44.745C32.3081 44.7151 32.3188 44.6865 32.3352 44.6612C32.3516 44.6359 32.3734 44.6145 32.399 44.5986C32.426 44.585 32.4558 44.5779 32.4861 44.5779C32.5163 44.5779 32.5461 44.585 32.5732 44.5986C32.8948 44.7008 33.2435 44.6752 33.5469 44.5273C34.0892 44.278 34.5246 43.6921 34.8413 42.7896C35.6329 40.5136 34.2277 33.2382 33.9546 31.8844L30.499 33.0363L30.9859 35.914C30.9927 35.9604 30.9828 36.0077 30.9579 36.0475C30.9331 36.0873 30.8949 36.117 30.8502 36.1313C30.8055 36.1455 30.7572 36.1435 30.7139 36.1254C30.6706 36.1074 30.6351 36.0745 30.6138 36.0327C30.4752 35.7517 30.0082 35.0234 29.5213 35.0115C29.2363 35.0115 28.9552 35.2371 28.6861 35.7161C27.653 37.5329 30.7246 40.0307 30.7563 40.0702C30.786 40.0937 30.8081 40.1253 30.8201 40.1611C30.832 40.197 30.8333 40.2356 30.8236 40.2721L30.1467 43.0904C30.1364 43.1303 30.1143 43.166 30.0831 43.1929C30.052 43.2198 30.0134 43.2365 29.9725 43.2409L24.1459 43.7911L23.4017 49.3961Z" fill="#231F20"/>
<path d="M34.386 36.1357C34.386 36.1357 36.6581 39.0925 36.3177 39.5398C35.9773 39.9871 34.8056 40.0029 34.8056 40.0029" fill="white"/>
<path d="M34.8057 40.2009C34.7539 40.2009 34.7041 40.1806 34.6671 40.1443C34.6301 40.108 34.6088 40.0587 34.6078 40.0069C34.6087 39.955 34.6292 39.9053 34.6651 39.8679C34.7011 39.8305 34.7499 39.808 34.8017 39.805C35.1975 39.805 35.9536 39.6863 36.1594 39.4092C36.2346 39.1321 35.2253 37.5448 34.2278 36.2425C34.1973 36.2002 34.1843 36.1477 34.1917 36.096C34.1991 36.0443 34.2262 35.9976 34.2673 35.9654C34.3095 35.9354 34.3615 35.9224 34.4128 35.929C34.4642 35.9357 34.5112 35.9614 34.5444 36.0011C35.6211 37.4063 36.8323 39.1677 36.4721 39.6467C36.1119 40.1257 34.9403 40.189 34.8096 40.189L34.8057 40.2009Z" fill="#231F20"/>
<path d="M33.109 35.8715C33.2681 35.832 33.3048 35.4284 33.1909 34.9702C33.0769 34.5119 32.8556 34.1725 32.6965 34.212C32.5374 34.2516 32.5007 34.6551 32.6146 35.1134C32.7286 35.5716 32.9499 35.9111 33.109 35.8715Z" fill="#231F20"/>
<path d="M34.489 42.9558C34.4277 42.9569 34.3665 42.9502 34.3069 42.936C33.7013 42.7896 33.6894 41.519 33.7013 41.135C33.7019 41.1055 33.7094 41.0766 33.7231 41.0505C33.7368 41.0243 33.7565 41.0018 33.7804 40.9846C33.8032 40.9656 33.8302 40.9524 33.8592 40.9462C33.8881 40.94 33.9182 40.9409 33.9467 40.949L35.3004 41.2736C35.3516 41.2867 35.3955 41.3193 35.4229 41.3644C35.4503 41.4095 35.4589 41.4636 35.4469 41.515C35.4409 41.5406 35.4298 41.5647 35.4144 41.586C35.3989 41.6073 35.3794 41.6252 35.3569 41.6389C35.3344 41.6525 35.3094 41.6615 35.2834 41.6654C35.2574 41.6693 35.2309 41.6679 35.2054 41.6615L34.0971 41.3923C34.0971 41.9504 34.2317 42.5085 34.4019 42.5521C34.4437 42.5635 34.4874 42.5663 34.5303 42.5601C34.5732 42.554 34.6144 42.5391 34.6513 42.5165C34.8155 42.3741 34.9293 42.1825 34.9759 41.9702C34.9815 41.9447 34.9921 41.9205 35.0071 41.8991C35.0221 41.8777 35.0412 41.8595 35.0633 41.8455C35.0853 41.8315 35.11 41.8221 35.1357 41.8176C35.1615 41.8132 35.1879 41.814 35.2134 41.8198C35.2637 41.8329 35.3069 41.8649 35.3342 41.9092C35.3615 41.9534 35.3707 42.0065 35.3598 42.0573C35.2926 42.3719 35.1159 42.6525 34.8611 42.849C34.7499 42.9196 34.6207 42.9567 34.489 42.9558V42.9558Z" fill="#231F20"/>
<path d="M44.844 71.6696C44.844 71.6696 47.0527 73.5617 48.735 72.6671C50.4173 71.7725 50.8883 70.8265 50.8883 70.8265C50.8883 70.8265 51.4663 73.3004 52.0996 72.6156C52.1847 72.527 52.251 72.422 52.2945 72.307C52.3379 72.1921 52.3577 72.0695 52.3525 71.9467C52.3473 71.8239 52.3173 71.7035 52.2644 71.5926C52.2114 71.4817 52.1365 71.3826 52.0442 71.3015C52.0442 71.3015 53.2 73.1421 53.3069 72.1406C53.4138 71.1392 52.6221 70.0902 52.6221 70.0902C52.6221 70.0902 56.0421 72.6156 55.8838 71.0917C55.7254 69.5677 52.7171 67.6202 50.4688 67.6202C48.2204 67.6202 44.0009 68.8315 44.0009 68.8315" fill="white"/>
<path d="M47.7256 73.1065C46.2373 73.1065 44.7885 71.8834 44.7133 71.82C44.674 71.785 44.65 71.736 44.6463 71.6835C44.6426 71.631 44.6596 71.5792 44.6935 71.539C44.7116 71.5205 44.7331 71.5059 44.7569 71.4959C44.7807 71.4859 44.8063 71.4808 44.8321 71.4808C44.8579 71.4808 44.8834 71.4859 44.9072 71.4959C44.931 71.5059 44.9526 71.5205 44.9706 71.539C44.9944 71.539 47.0962 73.3321 48.64 72.5127C50.1837 71.6934 50.7062 70.7671 50.7102 70.7592C50.7291 70.7231 50.7585 70.6935 50.7946 70.6744C50.8306 70.6554 50.8716 70.6477 50.9121 70.6523C50.9527 70.6563 50.9909 70.673 51.0215 70.7C51.0521 70.727 51.0733 70.7629 51.0823 70.8027C51.2683 71.5944 51.6246 72.4929 51.8739 72.5563C51.8739 72.5563 51.9254 72.5563 51.965 72.5009C52.0592 72.4138 52.126 72.3011 52.1569 72.1766C52.1879 72.0521 52.1817 71.9213 52.1392 71.8002C52.0481 71.6696 51.961 71.539 51.8898 71.4044C51.8659 71.3639 51.8573 71.3162 51.8654 71.2699C51.8735 71.2236 51.8979 71.1817 51.9341 71.1517C51.9703 71.1217 52.0159 71.1055 52.063 71.1061C52.11 71.1067 52.1552 71.1241 52.1906 71.155C52.3185 71.2751 52.4196 71.4208 52.4875 71.5825C52.6501 71.8349 52.8582 72.0551 53.101 72.2317C53.1062 72.1949 53.1062 72.1576 53.101 72.1208C53.196 71.2144 52.4637 70.2208 52.4558 70.209C52.427 70.1711 52.4131 70.124 52.4167 70.0766C52.4204 70.0291 52.4413 69.9847 52.4756 69.9517C52.5094 69.9189 52.5537 69.8989 52.6007 69.8953C52.6477 69.8917 52.6945 69.9046 52.7329 69.9319C53.861 70.7671 55.286 71.5509 55.6225 71.3569C55.6858 71.3213 55.6898 71.2025 55.6779 71.1115C55.5275 69.6667 52.6023 67.8181 50.4608 67.8181C48.2521 67.8181 44.0919 69.0056 44.0483 69.0056C43.9974 69.0191 43.9433 69.0122 43.8974 68.9863C43.8516 68.9604 43.8177 68.9176 43.8029 68.8671C43.7894 68.8172 43.7959 68.7641 43.8211 68.719C43.8462 68.6739 43.888 68.6404 43.9375 68.6256C44.1117 68.5742 48.1967 67.4065 50.4608 67.4065C52.8081 67.4065 55.9035 69.4173 56.0698 71.0561C56.0985 71.1739 56.0899 71.2977 56.0452 71.4104C56.0005 71.5231 55.922 71.6192 55.8204 71.6854C55.2979 71.9823 54.0708 71.2896 53.2198 70.7394C53.4309 71.1778 53.5263 71.6629 53.4969 72.1486C53.4692 72.4138 53.3623 72.5721 53.1881 72.6117C53.0139 72.6513 52.7487 72.4929 52.5192 72.2554C52.4619 72.4347 52.3644 72.5985 52.2342 72.7344C52.1785 72.806 52.1032 72.8598 52.0174 72.8894C51.9317 72.9189 51.8392 72.9228 51.7512 72.9006C51.304 72.7819 50.9596 71.8834 50.7973 71.2817C50.2478 71.9238 49.5747 72.4488 48.8181 72.8254C48.4829 73.0084 48.1075 73.1049 47.7256 73.1065V73.1065Z" fill="#231F20"/>
<path d="M31.4569 87.0834C31.4569 87.0834 31.4569 79.5071 31.9201 71.1471C32.3832 62.7871 35.538 59.4384 32.8582 51.2367C30.1784 43.035 22.424 44.0642 18.5765 47.2546C10.7509 53.7423 3.53485 73.5538 7.62381 87.594C7.62381 87.5742 16.5657 91.3584 31.4569 87.0834Z" fill="#DDDDDD"/>
<path d="M23.3542 53.3742C23.3542 53.7938 19.0436 74.1911 21.8817 76.0831C24.7198 77.9752 45.5367 73.6686 45.5367 73.6686L45.3269 67.9884L33.0244 66.6227C33.0244 66.6227 36.4959 51.1852 30.4 47.0725C24.3042 42.9598 23.3542 53.3742 23.3542 53.3742Z" fill="#DDDDDD"/>
<path d="M25.2027 77.2627C22.9346 77.2627 20.6982 76.764 19.7996 75.0184C17.7927 71.1075 23.2315 50.4173 23.465 49.5386C23.4715 49.5126 23.4831 49.4881 23.499 49.4666C23.515 49.4451 23.535 49.4269 23.558 49.4131C23.581 49.3993 23.6064 49.3902 23.6329 49.3863C23.6594 49.3823 23.6864 49.3836 23.7124 49.3901C23.7384 49.3966 23.7629 49.4082 23.7844 49.4241C23.8059 49.4401 23.8241 49.4601 23.8379 49.4831C23.8517 49.5061 23.8608 49.5315 23.8647 49.558C23.8687 49.5845 23.8674 49.6115 23.8609 49.6375C23.8015 49.8513 18.2242 71.06 20.1638 74.8363C22.0638 78.5413 31.0927 76.0238 31.1838 76C31.2363 75.9853 31.2925 75.9921 31.34 76.0188C31.3875 76.0455 31.4224 76.09 31.4371 76.1425C31.4518 76.195 31.4451 76.2512 31.4183 76.2987C31.3916 76.3462 31.3471 76.3812 31.2946 76.3959C29.3071 76.933 27.2612 77.2241 25.2027 77.2627V77.2627Z" fill="#231F20"/>
<path d="M33.0125 66.8206C32.494 66.8008 29.9052 66.6623 29.6717 65.7242C29.4579 64.8692 32.2644 56.62 32.8384 54.9931C32.8552 54.9433 32.8911 54.9021 32.9382 54.8787C32.9854 54.8553 33.0399 54.8516 33.0897 54.8684C33.1396 54.8852 33.1807 54.9212 33.2041 54.9683C33.2275 55.0154 33.2312 55.0699 33.2144 55.1198C31.92 58.8802 29.9211 65.0552 30.0477 65.6292C30.1665 66.1081 31.8567 66.3812 33.0165 66.4208C33.069 66.4208 33.1193 66.4417 33.1564 66.4788C33.1936 66.5159 33.2144 66.5663 33.2144 66.6187C33.2144 66.6712 33.1936 66.7216 33.1564 66.7587C33.1193 66.7958 33.069 66.8167 33.0165 66.8167L33.0125 66.8206Z" fill="#231F20"/>
<path d="M5.09042 54.7992C8.03542 54.9219 11.6415 55.0921 14.3213 55.2227C15.387 55.274 16.3985 55.7076 17.1706 56.444C17.9426 57.1805 18.4234 58.1704 18.525 59.2325L20.7377 82.0127H31.4569V91.0021L4.18792 90.1867L0.498754 59.7708C0.422024 59.1319 0.484931 58.4839 0.683128 57.8717C0.881325 57.2595 1.21009 56.6976 1.64669 56.2248C2.0833 55.7521 2.61734 55.3798 3.21192 55.1336C3.8065 54.8875 4.44743 54.7734 5.09042 54.7992V54.7992Z" fill="#231F20"/>
<path d="M31.4569 91.2L4.18794 90.3806C4.14105 90.38 4.09596 90.3625 4.06102 90.3312C4.02609 90.2999 4.00368 90.257 3.99794 90.2104L0.308776 59.8025C0.231162 59.1369 0.298541 58.4624 0.506285 57.8253C0.714028 57.1882 1.05721 56.6036 1.51227 56.1117C1.96732 55.6198 2.52346 55.2322 3.14248 54.9756C3.7615 54.719 4.42874 54.5994 5.09836 54.625C8.09086 54.7477 11.7721 54.9219 14.3292 55.0446C15.4406 55.104 16.4943 55.5587 17.2999 56.3267C18.1056 57.0946 18.6103 58.1252 18.7229 59.2325L20.9159 81.8346H31.4569C31.4827 81.8346 31.5083 81.8397 31.532 81.8497C31.5558 81.8597 31.5774 81.8744 31.5955 81.8928C31.6135 81.9112 31.6277 81.9331 31.6372 81.9571C31.6468 81.9811 31.6514 82.0067 31.6509 82.0325V91.0021C31.6515 91.0287 31.6465 91.0551 31.6363 91.0796C31.6261 91.1042 31.6108 91.1263 31.5915 91.1446C31.5555 91.1798 31.5073 91.1997 31.4569 91.2ZM4.36211 90.0125L31.259 90.8042V82.2146H20.7377C20.6892 82.2139 20.6426 82.1953 20.6068 82.1625C20.5711 82.1296 20.5486 82.0848 20.5438 82.0365L18.3311 59.2563C18.2304 58.2419 17.7699 57.297 17.033 56.5927C16.296 55.8885 15.3313 55.4713 14.3134 55.4167C11.7523 55.29 8.07503 55.1158 5.08253 54.9931C4.46798 54.9681 3.85533 55.0769 3.28693 55.3119C2.71854 55.5469 2.20797 55.9025 1.79052 56.3542C1.37307 56.8059 1.05871 57.3429 0.869169 57.928C0.679627 58.5132 0.619427 59.1325 0.692735 59.7431L4.36211 90.0125Z" fill="#231F20"/>
<path d="M99.275 48.7271C95.095 50.2115 81.4625 71.8319 83.8375 75.6873C86.2125 79.5427 96.1875 77.3221 96.1875 77.3221L96.0015 84.2769L121.731 83.8533C121.731 83.8533 127.522 58.4092 123.71 51.9571C119.882 45.5802 103.451 47.2388 99.275 48.7271Z" fill="#DDDDDD"/>
<path d="M122.491 54.7952C119.486 54.9179 115.762 55.0921 113.018 55.2267C111.981 55.277 110.997 55.6992 110.245 56.4159C109.494 57.1325 109.025 58.0958 108.926 59.1296L106.705 82.0127H95.9857V91.002L123.255 90.1866L126.96 59.6402C127.035 59.0179 126.975 58.3865 126.782 57.7899C126.59 57.1933 126.27 56.6456 125.845 56.1848C125.42 55.724 124.9 55.361 124.321 55.1211C123.742 54.8812 123.117 54.77 122.491 54.7952V54.7952Z" fill="#231F20"/>
<path d="M95.9856 91.2C95.9353 91.1997 95.887 91.1799 95.8511 91.1446C95.8317 91.1264 95.8165 91.1042 95.8062 91.0797C95.796 91.0551 95.7911 91.0287 95.7917 91.0021V82.0127C95.7912 81.9869 95.7958 81.9613 95.8053 81.9373C95.8148 81.9133 95.829 81.8915 95.8471 81.873C95.8651 81.8546 95.8867 81.84 95.9105 81.83C95.9343 81.82 95.9598 81.8148 95.9856 81.8148H106.527L108.728 59.1138C108.836 58.033 109.328 57.0266 110.113 56.2762C110.898 55.5257 111.926 55.0805 113.01 55.0209C115.663 54.8942 119.459 54.7121 122.483 54.5894C123.138 54.5635 123.791 54.6801 124.396 54.9311C125.002 55.1822 125.545 55.5617 125.99 56.0435C126.434 56.5252 126.769 57.0978 126.971 57.7215C127.172 58.3452 127.236 59.0053 127.158 59.6561L123.453 90.2025C123.447 90.2491 123.424 90.292 123.389 90.3233C123.354 90.3546 123.309 90.3721 123.263 90.3727L95.9936 91.1921L95.9856 91.2ZM96.1835 82.2107V90.8003L123.08 90.0086L126.766 59.6323C126.839 59.0381 126.781 58.4352 126.598 57.8653C126.414 57.2955 126.109 56.7724 125.703 56.3325C125.297 55.8926 124.8 55.5463 124.246 55.3178C123.693 55.0892 123.097 54.9838 122.499 55.009C119.478 55.1317 115.682 55.3098 113.03 55.4404C112.042 55.4937 111.104 55.8982 110.387 56.581C109.67 57.2639 109.221 58.1803 109.119 59.1652L106.899 82.0484C106.894 82.0967 106.871 82.1415 106.836 82.1744C106.8 82.2072 106.753 82.2258 106.705 82.2265L96.1835 82.2107Z" fill="#231F20"/>
<path d="M96.1876 77.52C96.1615 77.5171 96.1363 77.509 96.1134 77.4962C96.0905 77.4834 96.0703 77.4662 96.0541 77.4456C96.0379 77.425 96.026 77.4014 96.019 77.3761C96.012 77.3508 96.0101 77.3244 96.0134 77.2983C96.1757 75.8654 97.8897 60.0083 97.9055 59.85C97.9113 59.7975 97.9377 59.7495 97.9789 59.7164C98.0201 59.6834 98.0727 59.6681 98.1252 59.6739C98.1777 59.6796 98.2257 59.706 98.2588 59.7472C98.2918 59.7884 98.3071 59.8411 98.3013 59.8935C98.2815 60.0519 96.5715 75.909 96.4053 77.3458C96.3984 77.3973 96.3719 77.4441 96.3313 77.4766C96.2908 77.509 96.2393 77.5246 96.1876 77.52Z" fill="#231F20"/>
<path d="M103.376 38.5938C103.296 38.2317 103.31 37.8553 103.416 37.5001C103.522 37.1449 103.717 36.8224 103.982 36.5631C104.121 36.4107 104.311 36.3126 104.516 36.286C104.637 36.286 104.757 36.3164 104.863 36.3745C104.97 36.4326 105.06 36.5165 105.125 36.6185C105.254 36.8238 105.34 37.0526 105.379 37.2915C105.536 37.9398 105.558 38.6136 105.442 39.2706C105.324 39.9366 104.977 40.5402 104.46 40.9767" fill="white"/>
<path d="M104.46 41.1904C104.431 41.1912 104.401 41.1848 104.374 41.1717C104.347 41.1586 104.324 41.1392 104.306 41.1152C104.273 41.0747 104.258 41.0228 104.263 40.971C104.268 40.9191 104.294 40.8713 104.334 40.8381C104.816 40.435 105.14 39.874 105.248 39.2548C105.361 38.619 105.341 37.9666 105.189 37.339C105.153 37.1271 105.076 36.9242 104.963 36.7412C104.917 36.667 104.853 36.6053 104.777 36.5618C104.701 36.5183 104.615 36.4943 104.528 36.4919C104.374 36.5164 104.233 36.595 104.132 36.7135C103.89 36.9484 103.712 37.2411 103.615 37.5639C103.518 37.8867 103.505 38.2289 103.578 38.5581C103.584 38.5831 103.585 38.6091 103.581 38.6346C103.577 38.6601 103.568 38.6845 103.555 38.7064C103.541 38.7282 103.523 38.747 103.502 38.7617C103.481 38.7764 103.457 38.7866 103.431 38.7917C103.38 38.8036 103.327 38.7949 103.282 38.7674C103.238 38.74 103.206 38.696 103.194 38.6452C103.106 38.2497 103.122 37.8384 103.238 37.4504C103.354 37.0624 103.568 36.7106 103.859 36.4285C104.031 36.2434 104.264 36.1255 104.516 36.096C104.67 36.09 104.824 36.1231 104.962 36.1923C105.101 36.2615 105.22 36.3645 105.307 36.4919C105.453 36.7177 105.552 36.9709 105.596 37.236C105.762 37.9168 105.783 38.6246 105.66 39.3142C105.533 40.0256 105.16 40.67 104.607 41.135C104.588 41.1539 104.565 41.1686 104.539 41.1781C104.514 41.1877 104.487 41.1919 104.46 41.1904V41.1904Z" fill="#231F20"/>
<path d="M110.374 29.9685C110.748 31.0959 111.434 32.0938 112.353 32.8463C113.376 33.7579 114.689 34.2757 116.058 34.3069C117.127 34.3069 118.334 33.7092 118.509 32.6523C118.627 31.9477 118.251 31.255 117.828 30.6731C116.55 28.8774 114.706 27.564 112.591 26.9444C111.95 26.7781 111.051 26.6079 110.525 27.1304C109.875 27.7994 110.129 29.1848 110.374 29.9685Z" fill="#231F20"/>
<path d="M116.011 34.5048C114.617 34.4587 113.283 33.925 112.243 32.9967C111.287 32.2239 110.573 31.1937 110.184 30.0279V30.0279C110.026 29.5252 109.575 27.8192 110.402 26.9958C110.984 26.4179 111.91 26.5644 112.658 26.7583C114.815 27.3928 116.697 28.7305 118.006 30.5583C118.378 31.0729 118.861 31.8488 118.718 32.6879C118.524 33.8754 117.242 34.489 116.074 34.5048H116.011ZM111.542 26.984C111.386 26.9741 111.229 26.9953 111.081 27.0462C110.933 27.0972 110.796 27.1769 110.679 27.2808C110.149 27.8113 110.283 28.9869 110.56 29.9131C110.931 31.001 111.602 31.9617 112.496 32.684C113.479 33.561 114.741 34.0617 116.058 34.0971C117.036 34.0971 118.16 33.5588 118.319 32.6088C118.406 32.0863 118.204 31.5044 117.673 30.78C116.419 29.0256 114.615 27.7399 112.547 27.1265C112.219 27.0371 111.882 26.9879 111.542 26.98V26.984Z" fill="#231F20"/>
<path d="M121.659 31.1095C123.141 28.5422 122.002 25.1098 119.115 23.4429C116.228 21.7759 112.686 22.5058 111.204 25.073C109.722 27.6403 110.861 31.0727 113.748 32.7396C116.635 34.4066 120.177 33.6767 121.659 31.1095Z" fill="white"/>
<path d="M117.012 33.8358C115.829 33.828 114.669 33.51 113.648 32.9135C112.24 32.1188 111.173 30.8359 110.647 29.3075C110.401 28.5991 110.309 27.8463 110.377 27.0995C110.445 26.3527 110.673 25.6291 111.043 24.9771C112.579 22.321 116.248 21.5571 119.225 23.275C122.202 24.9929 123.373 28.5515 121.841 31.1917C121.46 31.838 120.945 32.3953 120.331 32.8261C119.716 33.2569 119.017 33.5512 118.279 33.6894C117.863 33.7807 117.438 33.8298 117.012 33.8358ZM115.845 22.7525C114.951 22.7261 114.067 22.9367 113.281 23.3629C112.495 23.7891 111.837 24.4157 111.372 25.179C111.03 25.7835 110.822 26.4543 110.762 27.146C110.702 27.8378 110.791 28.5344 111.023 29.1888C111.531 30.6174 112.531 31.8184 113.844 32.5765C115.157 33.3345 116.697 33.6 118.188 33.3252C118.87 33.1981 119.518 32.9264 120.086 32.5283C120.655 32.1303 121.132 31.6151 121.485 31.0175C122.914 28.5475 121.806 25.2265 119.015 23.6194C118.053 23.055 116.96 22.7546 115.845 22.7485V22.7525Z" fill="#231F20"/>
<path d="M86.8855 88.3302H69.5203C69.4678 88.3302 69.4175 88.3094 69.3804 88.2723C69.3432 88.2351 69.3224 88.1848 69.3224 88.1323V78.0742C69.3224 78.0217 69.3432 77.9714 69.3804 77.9342C69.4175 77.8971 69.4678 77.8763 69.5203 77.8763H86.8855C86.938 77.8763 86.9883 77.8971 87.0254 77.9342C87.0626 77.9714 87.0834 78.0217 87.0834 78.0742V88.1323C87.0834 88.1848 87.0626 88.2351 87.0254 88.2723C86.9883 88.3094 86.938 88.3302 86.8855 88.3302ZM69.7182 87.9344H86.6876V78.2721H69.7182V87.9344Z" fill="#D1D3D4"/>
<path d="M86.8855 90.1115H69.5203C69.4678 90.1115 69.4175 90.0906 69.3804 90.0535C69.3432 90.0164 69.3224 89.966 69.3224 89.9135V88.1323C69.3224 88.0798 69.3432 88.0295 69.3804 87.9924C69.4175 87.9552 69.4678 87.9344 69.5203 87.9344H86.8855C86.938 87.9344 86.9883 87.9552 87.0254 87.9924C87.0626 88.0295 87.0834 88.0798 87.0834 88.1323V89.9135C87.0834 89.966 87.0626 90.0164 87.0254 90.0535C86.9883 90.0906 86.938 90.1115 86.8855 90.1115ZM69.7182 89.7156H86.6876V88.3302H69.7182V89.7156Z" fill="#D1D3D4"/>
<path d="M74.5513 86.2917H71.6459C71.5934 86.2917 71.5431 86.2708 71.506 86.2337C71.4689 86.1966 71.448 86.1463 71.448 86.0938V79.7842C71.448 79.7317 71.4689 79.6814 71.506 79.6442C71.5431 79.6071 71.5934 79.5863 71.6459 79.5863H74.5553C74.6078 79.5863 74.6581 79.6071 74.6952 79.6442C74.7323 79.6814 74.7532 79.7317 74.7532 79.7842V86.0977C74.7527 86.1237 74.747 86.1494 74.7366 86.1732C74.7262 86.197 74.7112 86.2185 74.6924 86.2365C74.6737 86.2545 74.6516 86.2687 74.6274 86.2782C74.6032 86.2876 74.5773 86.2922 74.5513 86.2917V86.2917ZM71.8399 85.8959H74.3534V79.9821H71.8399V85.8959Z" fill="#D1D3D4"/>
<path d="M76.8551 73.1065H70.4584C70.4062 73.1055 70.3565 73.0843 70.3196 73.0474C70.2827 73.0105 70.2615 72.9607 70.2605 72.9086V68.5979C70.2605 68.5454 70.2814 68.4951 70.3185 68.458C70.3556 68.4209 70.4059 68.4 70.4584 68.4H76.8511C76.9036 68.4 76.954 68.4209 76.9911 68.458C77.0282 68.4951 77.049 68.5454 77.049 68.5979V72.9086C77.0481 72.9601 77.0274 73.0093 76.9914 73.0461C76.9553 73.0828 76.9066 73.1045 76.8551 73.1065V73.1065ZM70.6603 72.7106H76.6572V68.7959H70.6603V72.7106Z" fill="#D1D3D4"/>
</svg>
