<svg width="125" height="95" viewBox="0 0 125 95" fill="none" xmlns="http://www.w3.org/2000/svg">
<path d="M111.602 31.9001L107.643 39.7272L95.8065 45.1015C94.5425 47.235 90.5257 47.3983 90.2336 46.0186C89.9059 44.4708 95.1113 41.9796 95.1113 41.9796L105.012 35.2916L105.878 29.5341L111.602 31.9001Z" fill="#A0616A"/>
<path d="M111.135 84.4264L111.865 90.2595L107.631 90.5512L107.193 84.4264H111.135Z" fill="#A0616A"/>
<path d="M110.551 89.3847C110.929 88.9849 111.279 88.5584 111.596 88.1085C112.203 87.2698 112.741 91.5721 112.741 91.5721C112.741 91.5721 113.325 93.322 113.179 94.1969C113.033 95.0719 109.675 95.0719 109.091 94.9261C108.507 94.7802 105.586 94.9261 105.586 94.9261H101.206C97.4097 93.1762 101.206 92.0095 101.206 92.0095C102.374 91.8637 106.316 88.218 106.316 88.218L107.193 86.614C107.777 86.4681 108.361 88.6555 108.361 88.6555L110.551 89.3847Z" fill="#999999"/>
<path d="M122.086 84.4994L122.816 90.3325L118.582 90.6242L118.144 84.4994H122.086Z" fill="#A0616A"/>
<path d="M121.502 89.4576C121.88 89.0578 122.229 88.6313 122.547 88.1814C123.153 87.3427 123.692 91.645 123.692 91.645C123.692 91.645 124.276 93.2491 124.13 94.124C123.984 94.999 120.626 94.999 120.042 94.8532C119.458 94.7074 116.537 94.999 116.537 94.999H112.157C108.361 93.2491 112.157 92.0825 112.157 92.0825C113.325 91.9366 117.267 88.291 117.267 88.291L118.143 86.6869C118.728 86.541 119.312 88.7285 119.312 88.7285L121.502 89.4576Z" fill="#999999"/>
<path d="M117.267 46.8762C117.851 47.6053 117.559 50.0844 117.559 50.0844C117.559 50.0844 118.582 58.1049 118.143 58.834C117.705 59.5632 118.436 60.1464 118.874 61.1672C119.312 62.188 119.75 64.6671 119.75 64.6671C122.232 66.7086 122.086 76.0415 122.086 76.0415L122.962 84.3537C122.67 85.2286 118.582 85.3744 117.997 85.2286C117.413 85.0828 115.661 71.9584 115.661 71.9584L111.719 64.5212C111.719 64.5212 112.011 84.3536 112.011 85.2286C112.011 86.1036 108.069 85.6661 107.193 85.6661C106.317 85.6661 106.317 71.0834 106.317 71.0834L105.44 67.292L100.768 49.9386V47.897L101.498 46.8762C101.498 46.8762 116.683 46.1471 117.267 46.8762Z" fill="#666666"/>
<path d="M110.843 13.7736C113.343 13.7736 115.369 11.7496 115.369 9.25293C115.369 6.75625 113.343 4.7323 110.843 4.7323C108.343 4.7323 106.316 6.75625 106.316 9.25293C106.316 11.7496 108.343 13.7736 110.843 13.7736Z" fill="#A0616A"/>
<path d="M108.58 11.3674C109.497 13.4079 108.954 16.2579 107.12 19.3879L114.566 15.888L113.398 14.8673L113.69 11.9507L108.58 11.3674Z" fill="#A0616A"/>
<path d="M108.58 16.0339C107.605 16.6129 107.021 17.6767 106.686 18.7592C106.066 20.7634 105.693 22.8355 105.575 24.9299L105.221 31.1999L100.841 47.8241C104.637 51.0323 106.828 50.3032 111.938 47.6783C117.048 45.0534 117.632 48.5532 117.632 48.5532C117.632 48.5532 118.07 48.4074 117.632 47.9699C117.194 47.5324 117.632 47.9699 118.07 47.5324C118.508 47.0949 118.07 47.5324 117.924 47.0949C117.778 46.6575 117.924 46.9491 118.07 46.8033C118.216 46.6575 117.486 45.345 117.486 45.345L118.655 34.408L120.115 18.9504C118.362 16.763 113.398 14.8672 113.398 14.8672L108.872 18.0754C107.412 18.6587 108.58 16.3255 108.58 16.3255V16.0339Z" fill="#E5E5E5"/>
<path d="M122.524 28.2104L123.108 36.96L115.661 47.6053C115.661 50.0844 114.347 50.6677 114.347 50.6677C113.849 49.8743 113.41 49.0457 113.033 48.1886C112.303 46.5845 113.471 45.2721 113.471 45.2721L118.581 34.4809L116.391 29.0853L122.524 28.2104Z" fill="#A0616A"/>
<path d="M120.042 19.0233C122.524 19.8982 122.962 29.377 122.962 29.377C120.042 27.7729 116.537 30.3978 116.537 30.3978C116.537 30.3978 115.807 27.9187 114.931 24.7105C114.667 23.8081 114.635 22.8535 114.839 21.9356C115.044 21.0177 115.477 20.1663 116.099 19.4608C116.099 19.4608 117.56 18.1483 120.042 19.0233Z" fill="#E5E5E5"/>
<path d="M115.004 10.6382C114.428 10.1778 113.642 11.0147 113.642 11.0147L113.181 6.87113C113.181 6.87113 110.3 7.21644 108.456 6.75604C106.612 6.29564 106.324 8.42497 106.324 8.42497C106.229 7.56508 106.209 6.69851 106.266 5.83524C106.381 4.79935 107.88 3.76345 110.53 3.07286C113.181 2.38226 114.564 5.37484 114.564 5.37484C116.408 6.29564 115.58 11.0986 115.004 10.6382Z" fill="#444444"/>
<path d="M96.5443 34.5501H41.1912V45.4649H96.5443V34.5501Z" fill="#E6E6E6"/>
<path d="M96.5443 17.3034H41.1912V28.2183H96.5443V17.3034Z" fill="#E6E6E6"/>
<path d="M96.5443 0H41.1912V10.9148H96.5443V0Z" fill="#E6E6E6"/>
<path d="M42.3711 9.73625H95.3643V1.17854H42.3711V9.73625Z" fill="white"/>
<path d="M42.3711 27.0778H95.3643V18.5201H42.3711V27.0778Z" fill="white"/>
<path d="M42.3711 44.2864H95.3643V35.7286H42.3711V44.2864Z" fill="white"/>
<path d="M47.0103 8.64683C48.8131 8.64683 50.2747 7.18715 50.2747 5.38655C50.2747 3.58596 48.8131 2.12628 47.0103 2.12628C45.2074 2.12628 43.7458 3.58596 43.7458 5.38655C43.7458 7.18715 45.2074 8.64683 47.0103 8.64683Z" fill="#E5E5E5"/>
<path d="M87.0348 4.11079H54.8164V4.81955H87.0348V4.11079Z" fill="#E5E5E5"/>
<path d="M87.0348 5.95357H54.8164V6.66232H87.0348V5.95357Z" fill="#E5E5E5"/>
<path d="M47.0103 26.092C48.8131 26.092 50.2747 24.6323 50.2747 22.8317C50.2747 21.0311 48.8131 19.5715 47.0103 19.5715C45.2074 19.5715 43.7458 21.0311 43.7458 22.8317C43.7458 24.6323 45.2074 26.092 47.0103 26.092Z" fill="#CCCCCC"/>
<path d="M87.0348 21.556H54.8164V22.2647H87.0348V21.556Z" fill="#CCCCCC"/>
<path d="M87.0348 23.3987H54.8164V24.1075H87.0348V23.3987Z" fill="#CCCCCC"/>
<path d="M47.0103 43.3387C48.8132 43.3387 50.2747 41.879 50.2747 40.0784C50.2747 38.2778 48.8132 36.8181 47.0103 36.8181C45.2074 36.8181 43.7458 38.2778 43.7458 40.0784C43.7458 41.879 45.2074 43.3387 47.0103 43.3387Z" fill="#CCCCCC"/>
<path d="M87.0348 38.8026H54.8164V39.5114H87.0348V38.8026Z" fill="#CCCCCC"/>
<path d="M87.0348 40.6454H54.8164V41.3541H87.0348V40.6454Z" fill="#CCCCCC"/>
<path d="M8.38095 31.4848C8.38095 31.4848 7.61774 36.2761 10.7796 35.8405C10.7796 35.8405 23.3182 33.0093 23.9724 33.6627C24.6266 34.316 28.6936 34.5384 28.4814 31.7839C28.2685 29.0201 24.1904 30.6137 24.1904 30.6137C24.1904 30.6137 17.8666 31.4848 16.5583 30.8314C15.2499 30.1781 11.5429 30.3959 11.5429 30.3959L8.38095 31.4848Z" fill="#A0616A"/>
<path d="M16.9493 47.1096L15.2107 63.5845C15.2107 63.5845 14.6656 70.1181 13.0301 71.5337C13.0301 71.5337 13.0301 73.6026 12.485 74.256L11.7217 82.8585C11.7217 82.8585 12.812 86.0164 12.703 86.5608C12.594 87.1053 13.1392 88.8476 13.0301 89.0654C12.9211 89.2832 7.79663 89.0654 7.79663 89.0654L8.88694 71.5337L12.2669 47.1418L16.9493 47.1096Z" fill="#777777"/>
<path d="M7.39728 88.1748C7.39728 88.1748 5.11069 93.9336 6.30369 94.6286C7.49669 95.3236 20.0232 94.8272 20.0232 94.8272C20.0232 94.8272 22.1109 93.5364 19.7249 92.6428C19.7249 92.6428 17.7366 92.5435 16.4442 91.7492C15.1518 90.9549 13.6605 89.4655 13.6605 89.4655C13.6605 89.4655 13.5611 87.2811 12.7658 87.7776C12.5278 87.9342 12.3253 88.1387 12.1712 88.3781C12.0171 88.6175 11.9149 88.8864 11.871 89.1676L7.39728 88.1748Z" fill="#777777"/>
<path d="M3.87133 87.3939C3.87133 87.3939 1.36362 93.7097 2.67199 94.4719C3.98035 95.2341 17.7182 94.6897 17.7182 94.6897C17.7182 94.6897 20.0079 93.2741 17.3912 92.294C17.3912 92.294 15.2105 92.1852 13.7931 91.314C12.3757 90.4429 10.7403 88.8095 10.7403 88.8095C10.7403 88.8095 10.6313 86.4139 9.759 86.9583C9.49804 87.13 9.27592 87.3544 9.10693 87.6169C8.93793 87.8795 8.8258 88.1744 8.77773 88.4828L3.87133 87.3939Z" fill="#777777"/>
<path d="M14.0113 46.8859C14.0113 46.8859 12.8119 58.1018 12.2668 60.4974C11.924 62.0751 11.7053 63.677 11.6126 65.2887C11.6126 65.2887 11.5036 68.7733 10.5223 69.7533C10.2352 70.0372 10.0096 70.377 9.85953 70.7517C9.70948 71.1264 9.63817 71.5278 9.65002 71.9312C9.65002 71.9312 8.66874 82.9293 9.21389 84.236C9.75904 85.5427 10.4991 87.2404 9.95398 88.1115C9.40883 88.9826 3.2172 88.3739 3.2172 87.7206C3.2172 87.0672 3.2172 86.5227 2.8901 86.1961C2.56301 85.8694 2.8901 83.8004 2.8901 83.8004C2.8901 83.8004 1.58173 74.109 2.78107 71.2778C3.98042 68.4466 4.52557 60.7152 4.52557 60.7152C4.52557 60.7152 3.65333 51.8949 2.56301 50.4793C1.4727 49.0637 2.78107 44.0547 2.78107 44.0547L14.0113 46.8859Z" fill="#777777"/>
<path d="M10.9419 12.0556C11.0686 12.344 11.372 12.5045 11.6482 12.6565C13.249 13.5373 14.589 14.8143 15.9091 16.0766C15.5797 14.9616 15.6499 13.7669 16.1076 12.6981C16.2653 12.3336 16.4718 11.9417 16.3592 11.5609C16.248 11.2887 16.0548 11.0578 15.8063 10.9003C15.2676 10.4842 14.7046 10.1005 14.1202 9.75137C13.7119 9.50744 12.8726 8.85806 12.4041 8.92873C12.3795 9.56091 12.3667 10.1261 12.0895 10.7169C12.0237 10.8571 10.9903 12.1658 10.9419 12.0556Z" fill="#A0616A"/>
<path d="M16.5191 13.4558C18.988 13.4558 20.9894 11.457 20.9894 8.99125C20.9894 6.52552 18.988 4.52666 16.5191 4.52666C14.0502 4.52666 12.0488 6.52552 12.0488 8.99125C12.0488 11.457 14.0502 13.4558 16.5191 13.4558Z" fill="#A0616A"/>
<path d="M16.7372 19.5538C16.7372 19.5538 17.5004 15.7426 15.3198 14.4359C13.1392 13.1292 10.6315 11.6047 10.6315 11.6047C10.6315 11.6047 9.86829 11.4958 9.5412 13.1292C9.5412 13.1292 3.32643 14.327 2.67225 20.2072C2.01806 26.0874 3.10838 34.6899 3.10838 34.6899C3.10838 34.6899 2.1271 42.2035 0.927763 46.2325C0.927763 46.2325 -0.0535167 47.1037 4.30773 45.7969C8.66897 44.4902 16.3011 49.4993 16.3011 49.4993C16.3011 49.4993 17.0643 48.737 17.0643 48.1926C17.0643 47.6481 18.6998 31.0965 19.0269 29.572C19.354 28.0475 17.7185 19.7716 16.7372 19.5538Z" fill="#E6E6E6"/>
<path d="M15.4656 9.45121C15.7341 9.30255 16.0353 9.22245 16.3423 9.21802C16.6497 9.21343 16.9498 9.12411 17.2096 8.95993C17.6318 8.63616 17.6628 8.01045 17.9717 7.57744C18.419 6.95054 19.3112 6.87508 20.0813 6.90645C20.5523 6.92563 21.0595 6.95373 21.4562 6.6993C21.8634 6.4381 22.0479 5.94596 22.1852 5.48249C22.3476 4.93441 22.4526 4.26416 22.0503 3.85767C21.7709 3.57541 21.3299 3.51957 21.0195 3.27169C20.8516 3.13752 18.6312 2.59879 16.5468 2.11438C15.5091 1.8736 14.419 2.0209 13.4827 2.52842C12.5464 3.03594 11.8287 3.8685 11.4653 4.86869C10.984 6.19047 10.5715 7.43243 10.6141 7.70071C10.8179 8.98458 11.9548 10.0051 12.0331 11.3027C12.1078 10.9444 12.2703 10.6102 12.5062 10.3301C12.742 10.05 13.0438 9.83273 13.3844 9.69782C13.4698 9.6561 13.5668 9.64435 13.6598 9.66446C13.7727 9.70051 13.8387 9.81321 13.91 9.90786C14.0968 10.1558 14.6835 10.5321 15.0161 10.3562C15.3136 10.1987 15.0915 9.70463 15.4656 9.45121Z" fill="#3F3D56"/>
<path d="M18.5099 32.9239C18.4163 33.0155 18.3628 33.1403 18.3609 33.2712C18.359 33.4021 18.4089 33.5284 18.4997 33.6227L21.6432 36.872C21.6889 36.9192 21.7435 36.9569 21.804 36.9829C21.8644 37.0088 21.9294 37.0225 21.9952 37.0232C22.0609 37.0238 22.1262 37.0114 22.1871 36.9866C22.248 36.9618 22.3034 36.9252 22.35 36.8788L31.942 27.3405C31.9944 27.2884 32.0345 27.2252 32.0593 27.1557C32.0841 27.0861 32.093 27.0119 32.0854 26.9384C32.0778 26.865 32.0539 26.7941 32.0154 26.7311C31.9768 26.6681 31.9247 26.6144 31.8627 26.5741L28.0909 24.1206C27.9966 24.0586 27.8838 24.0308 27.7715 24.0418C27.6591 24.0529 27.5539 24.1021 27.4735 24.1813L18.5099 32.9239Z" fill="#3F3D56"/>
<path d="M32.0075 26.719C31.9885 26.7482 31.9665 26.7753 31.9418 26.7999L22.3724 36.5184C22.3257 36.5648 22.2704 36.6014 22.2094 36.6262C22.1485 36.651 22.0833 36.6634 22.0175 36.6628C21.9517 36.6621 21.8867 36.6485 21.8263 36.6225C21.7658 36.5965 21.7112 36.5588 21.6655 36.5116L18.4544 33.1272C18.4325 33.1045 18.4129 33.0797 18.3957 33.0533C18.3421 33.1449 18.3231 33.2527 18.3422 33.3572C18.3612 33.4616 18.417 33.5558 18.4995 33.6227L21.6429 36.872C21.6886 36.9192 21.7433 36.9569 21.8037 36.9829C21.8642 37.0088 21.9292 37.0225 21.9949 37.0232C22.0607 37.0238 22.126 37.0114 22.1869 36.9866C22.2478 36.9618 22.3032 36.9252 22.3498 36.8788L31.9418 27.3405C32.0225 27.2602 32.0731 27.1546 32.0851 27.0414C32.097 26.9283 32.0697 26.8144 32.0075 26.719H32.0075Z" fill="#E5E5E5"/>
<path d="M31.1194 26.8366L30.7291 26.588C30.7702 26.6612 30.7853 26.7461 30.7719 26.829C30.7585 26.9118 30.7175 26.9877 30.6554 27.0442C30.5933 27.1008 30.5139 27.1347 30.4301 27.1404C30.3463 27.1461 30.263 27.1233 30.1938 27.0757L27.6679 25.3414C27.6105 25.302 27.5653 25.2473 27.5375 25.1836C27.5096 25.1198 27.5003 25.0495 27.5106 24.9807C27.5208 24.9119 27.5502 24.8474 27.5954 24.7945C27.6406 24.7415 27.6997 24.7024 27.7661 24.6814L27.565 24.5533C27.539 24.5367 27.5079 24.5295 27.4772 24.533C27.4464 24.5364 27.4178 24.5503 27.396 24.5723L18.8987 32.9123C18.886 32.9251 18.876 32.9403 18.8693 32.9571C18.8626 32.9738 18.8593 32.9917 18.8596 33.0097C18.86 33.0277 18.8639 33.0455 18.8712 33.0619C18.8785 33.0784 18.889 33.0933 18.9021 33.1056L21.9881 36.1088C22.0137 36.1329 22.0477 36.1461 22.0829 36.1456C22.118 36.1451 22.1516 36.131 22.1765 36.1062L31.1422 27.0463C31.1565 27.032 31.1675 27.0147 31.1742 26.9956C31.181 26.9765 31.1834 26.9561 31.1812 26.936C31.179 26.9159 31.1723 26.8965 31.1616 26.8793C31.1509 26.8621 31.1365 26.8475 31.1194 26.8366V26.8366Z" fill="white"/>
<path d="M21.3123 31.0707L23.919 33.5254L30.1192 27.4073L26.9725 25.3618L21.3123 31.0707Z" fill="#E6E6E6"/>
<path d="M29.8784 28.9172C29.8956 28.9336 29.9184 28.9427 29.9422 28.9427C29.966 28.9427 29.9888 28.9336 30.006 28.9172L30.5482 28.3757C30.5651 28.3588 30.5746 28.3359 30.5746 28.312C30.5746 28.2881 30.5651 28.2652 30.5482 28.2483C30.531 28.2319 30.5082 28.2228 30.4844 28.2228C30.4607 28.2228 30.4378 28.2319 30.4206 28.2483L29.8784 28.7898C29.8615 28.8067 29.8521 28.8296 29.8521 28.8535C29.8521 28.8774 29.8615 28.9003 29.8784 28.9172V28.9172Z" fill="#3F3D56"/>
<path d="M28.9649 29.8295C28.9818 29.8463 29.0047 29.8558 29.0286 29.8558C29.0526 29.8558 29.0755 29.8463 29.0924 29.8295L29.6347 29.2879C29.6515 29.271 29.6609 29.2481 29.6609 29.2243C29.6608 29.2004 29.6513 29.1776 29.6344 29.1607C29.6176 29.1439 29.5947 29.1344 29.5708 29.1343C29.5469 29.1343 29.524 29.1437 29.5071 29.1605L28.9649 29.702C28.948 29.719 28.9385 29.7419 28.9385 29.7658C28.9385 29.7896 28.948 29.8126 28.9649 29.8295V29.8295Z" fill="#3F3D56"/>
<path d="M21.3724 33.7858C21.7087 33.7858 21.9813 33.5136 21.9813 33.1777C21.9813 32.8418 21.7087 32.5695 21.3724 32.5695C21.0361 32.5695 20.7634 32.8418 20.7634 33.1777C20.7634 33.5136 21.0361 33.7858 21.3724 33.7858Z" fill="#E5E5E5"/>
<path d="M5.19858 29.7897C5.19858 29.7897 4.43536 34.581 7.59726 34.1454C7.59726 34.1454 20.1358 31.3142 20.79 31.9676C21.4442 32.6209 25.5112 32.8434 25.299 30.0889C25.0862 27.3251 21.0081 28.9186 21.0081 28.9186C21.0081 28.9186 14.6843 29.7897 13.3759 29.1364C12.0675 28.483 8.36048 28.7008 8.36048 28.7008L5.19858 29.7897Z" fill="#A0616A"/>
<path d="M9.66883 14.6537C9.66883 14.6537 4.76245 15.1982 4.76245 22.2762V31.3142L10.7592 28.8097C10.7592 28.8097 13.2669 22.9295 13.0488 21.2961C12.8308 19.6628 12.9398 14.8715 9.66883 14.6537Z" fill="#E6E6E6"/>
</svg>
