<svg width="139" height="94" viewBox="0 0 139 94" fill="none" xmlns="http://www.w3.org/2000/svg">
<path opacity="0.5" d="M90.0173 0H54.8795C53.2162 0 51.8678 1.34839 51.8678 3.01172V27.0992C51.8678 28.7625 53.2162 30.1109 54.8795 30.1109H90.0173C91.6806 30.1109 93.029 28.7625 93.029 27.0992V3.01172C93.029 1.34839 91.6806 0 90.0173 0Z" fill="#DDDDDD"/>
<path d="M55.6175 58.9477C57.7084 59.3923 59.7456 58.0741 61.3634 56.6771C63.174 55.1151 64.8185 53.3703 66.2705 51.4704C67.9703 49.2629 69.5881 46.68 72.2214 45.7497C73.7257 45.2168 75.4539 45.2767 76.7878 44.4031C76.914 43.7377 76.4094 43.0818 75.7913 42.8011C75.1509 42.5689 74.4669 42.4817 73.7887 42.5456L70.8937 42.6024C70.1904 42.6182 69.4556 42.6245 68.8281 42.3123C68.2005 42.0001 67.7243 41.2558 67.9545 40.5935C67.0526 40.4737 66.4282 41.4419 66.0056 42.2492C64.1054 45.8785 61.3894 49.0177 58.071 51.42C57.809 51.6417 57.4939 51.7917 57.1565 51.8552C56.6645 51.9056 56.2104 51.606 55.7752 51.3853C53.883 50.4392 50.3951 51.3317 50.8082 53.9712C51.1015 55.9391 53.7159 58.544 55.6175 58.9477Z" fill="url(#paint0_linear)"/>
<path d="M115.275 79.5598L119.292 92.6569C109.201 91.6887 98.9641 95.1545 88.9954 93.3538C88.3647 93.2403 87.6236 93.0006 87.4659 92.3825C87.4129 92.0175 87.4781 91.6451 87.652 91.3197C89.0491 87.9111 90.701 84.6125 92.5937 81.452C95.6464 82.3035 98.1883 82.2877 101.282 81.6065C106.353 80.487 110.163 78.6327 115.275 79.5598Z" fill="#3E3E54"/>
<path d="M91.3356 41.8266C88.2166 43.6084 86.8606 47.3329 85.7946 50.7672C82.0439 62.8417 78.9176 75.1014 76.4283 87.4975C78.6548 88.2828 81.3007 89.0207 83.2307 87.6584C84.6026 86.6902 85.1513 84.9494 85.6117 83.3316L87.6647 76.1539C89.7808 68.7492 91.8969 61.3318 94.2054 53.9933C95.3564 50.332 97.1256 46.5634 97.9077 42.8137C98.2925 40.972 98.1537 40.663 96.1385 40.5841C94.4567 40.5732 92.8011 41.0015 91.3356 41.8266V41.8266Z" fill="#DDDDDD"/>
<path d="M81.124 86.8132C81.124 86.8132 82.622 85.9964 83.4514 83.3253C84.2808 80.6541 91.0958 50.7356 91.0958 50.7356L91.6477 63.2587C91.6477 63.2587 86.2644 81.1366 85.9396 82.2278C85.6148 83.319 84.8327 87.6615 81.9787 88.0305L81.124 86.8132Z" fill="url(#paint1_linear)"/>
<path d="M107.343 38.2157C105.423 38.2157 103.474 38.2882 101.642 38.8716C98.7781 39.783 92.1555 40.1867 90.5409 42.7254C88.9262 45.264 92.269 49.9188 91.6982 52.8706C90.9603 56.655 90.7521 60.5529 90.544 64.4192C90.2728 69.4839 90.0016 74.5581 90.175 79.626C90.2255 81.1271 90.3233 82.663 90.913 84.0411C91.468 85.3341 111.096 87.5385 114.357 82.4832C116.842 78.6452 117.716 73.9684 117.993 69.4114C118.233 65.4851 118.072 61.5462 117.908 57.6137C117.788 54.7155 117.668 51.8047 117.098 48.9633C116.486 45.9263 119.151 44.318 117.798 41.527C116.688 39.2375 109.56 38.2094 107.343 38.2157Z" fill="#DDDDDD"/>
<path d="M92.4455 74.8609L104.745 74.1892C105.283 74.1914 105.817 74.0974 106.322 73.9117C106.626 73.7758 106.896 73.575 107.114 73.3232C107.332 73.0715 107.492 72.775 107.583 72.4547C110.235 73.5316 113.025 74.2322 115.871 74.5361C116.268 74.5771 116.728 74.596 117.015 74.3122C117.198 74.0903 117.302 73.8142 117.312 73.5269C117.463 72.2655 118.378 66.6772 117.87 65.5104C114.351 65.4789 111.509 65.0184 108.93 62.6248C108.488 62.2148 106.23 65.0941 105.628 65.1477C105.161 65.1824 104.783 65.523 104.448 65.851C103.404 66.8854 102.417 67.9955 101.203 68.8249C99.6263 69.9003 97.7815 70.449 95.9587 70.9851C94.5395 71.4014 91.736 71.6568 90.7268 72.83C89.4401 74.287 90.9728 74.9429 92.4455 74.8609Z" fill="url(#paint2_linear)"/>
<path d="M103.42 55.6931C103.81 55.6767 104.198 55.7569 104.549 55.9265C105.24 56.3333 105.331 57.2763 105.347 58.0773L105.603 71.5685L89.292 73.6373C89.2011 73.6689 89.1038 73.6772 89.009 73.6614C88.9142 73.6456 88.8248 73.6062 88.7492 73.5468C88.6735 73.4875 88.614 73.4101 88.576 73.3218C88.538 73.2334 88.5229 73.137 88.5319 73.0413C87.6161 68.6458 87.3947 64.1339 87.876 59.6699C88.0557 58.0174 88.3711 56.2608 88.3711 56.2608C90.2286 55.999 94.0192 55.8477 95.8988 55.7531C98.4059 55.6269 100.916 55.608 103.42 55.6931Z" fill="white"/>
<path d="M107.123 63.3092C106.731 63.0662 106.291 62.9143 105.833 62.8645C105.603 62.8443 105.373 62.8987 105.177 63.0198C104.981 63.1408 104.83 63.322 104.745 63.5362C104.647 63.8894 104.783 64.331 104.521 64.5864C104.354 64.7164 104.146 64.7834 103.934 64.7756L98.1442 65.2108C97.8462 65.2076 97.5526 65.2826 97.2927 65.4284C97.1285 65.5603 97.0022 65.7334 96.9268 65.9302C96.8515 66.1269 96.8297 66.3401 96.8638 66.5479C96.9322 66.94 97.0947 67.3096 97.3375 67.6249C97.5804 67.9403 97.8961 68.1919 98.2577 68.3581C98.986 68.6792 99.7704 68.8539 100.566 68.8722C102.688 69.0164 104.819 68.8732 106.902 68.4464C107.498 68.3703 108.061 68.1301 108.529 67.7526C108.75 67.5201 108.92 67.2442 109.029 66.9423C109.138 66.6404 109.182 66.3193 109.16 65.9992C109.1 64.3562 108.472 64.0093 107.123 63.3092Z" fill="url(#paint3_linear)"/>
<path d="M106.883 40.3066C107.041 41.0751 107.034 41.8686 106.861 42.634C106.679 43.2072 106.381 43.7366 105.984 44.1887C105.15 45.2187 103.997 45.9429 102.707 46.248C102.237 46.374 101.74 46.3531 101.282 46.1881C101.01 46.0623 100.765 45.8857 100.56 45.6677C100.105 45.2133 99.7468 44.6719 99.5063 44.0759C99.2657 43.4798 99.1477 42.8414 99.1595 42.1987C99.1713 41.5561 99.3125 40.9224 99.5748 40.3355C99.8371 39.7487 100.215 39.2208 100.686 38.7834C101.705 37.8373 103.635 36.9637 105.06 37.1466C106.656 37.3548 106.681 38.9537 106.883 40.3066Z" fill="url(#paint4_linear)"/>
<path d="M101.906 43.0313C102.465 43.681 103.168 44.2675 104.032 44.3748C104.377 44.4159 104.727 44.3773 105.055 44.262C105.383 44.1466 105.681 43.9576 105.924 43.7093C106.631 42.9777 106.754 41.8739 106.779 40.8711C106.816 40.4863 106.765 40.0981 106.631 39.7358C106.465 39.421 106.231 39.1473 105.946 38.9347C105.383 38.4648 104.763 38.0665 104.101 37.749C103.524 37.4303 102.868 37.2806 102.209 37.3169C99.0871 37.6544 100.695 41.6122 101.906 43.0313Z" fill="url(#paint5_linear)"/>
<path d="M52.7287 82.5242C53.3058 85.4003 53.6433 88.3742 53.1639 91.2692C53.1488 91.5335 53.0365 91.7829 52.8485 91.9693C52.635 92.0992 52.384 92.1536 52.1358 92.1239L25.2196 91.859C24.6884 85.6787 25.4223 79.455 27.3767 73.5679C27.8718 72.0857 28.4457 70.6003 28.553 69.0393C28.6318 67.8724 28.471 66.5984 29.1206 65.6271C29.8964 64.4634 31.4795 64.2363 32.8734 64.1133L39.2595 63.5551C40.9089 63.4132 43.4602 63.0632 44.9613 64.0187C46.4624 64.9743 47.3896 67.5855 48.1559 69.1307C50.2625 73.3748 51.8 77.8781 52.7287 82.5242V82.5242Z" fill="#3E3E54"/>
<path d="M48.9254 18.5749C49.5611 19.0845 50.0531 19.7509 50.3528 20.5085C50.6525 21.2662 50.7497 22.0888 50.6347 22.8954C50.4203 24.4879 49.4647 25.9418 48.1875 26.9951C47.3297 27.7173 46.1629 28.3007 45.0591 27.9948C44.6191 27.8504 44.2081 27.6294 43.8449 27.342C42.7489 26.6101 41.7715 25.7146 40.9467 24.6866C39.6853 23.0057 39.2059 20.6878 40.1646 18.7641C40.9846 17.1179 43.8355 17.304 45.4564 17.4333C46.6864 17.5216 47.9415 17.8212 48.9254 18.5749Z" fill="#3E3E54"/>
<path d="M46.4025 48.5502C47.8279 54.3119 46.3867 58.0111 44.4693 63.6435C44.1098 64.6968 43.6714 65.7659 42.8515 66.5196C42.151 67.1639 41.2851 67.6006 40.3506 67.781C38.6436 68.1203 36.8985 68.2264 35.1629 68.0964C30.8961 67.7526 29.1363 65.7785 29.1111 65.5893C28.7957 63.0664 27.8055 60.7894 26.6513 58.5945C24.2892 54.0911 21.2112 49.9378 21.6054 44.7185C21.7789 42.6624 20.5616 39.1934 22.2141 37.9319C23.2106 37.1561 29.5211 34.4251 30.7794 34.3115C32.7945 34.1318 45.4217 37.9855 47.0805 39.4236C48.8528 40.9468 45.8758 46.3805 46.4025 48.5502Z" fill="#DDDDDD"/>
<path d="M35.1725 68.1185C30.9057 67.7747 29.1459 65.8005 29.1207 65.6113C28.8054 63.0884 27.8151 60.8115 26.6609 58.6166C26.6293 57.9417 26.6388 57.2668 26.6609 56.5888C26.7397 53.5613 26.9416 50.537 27.1434 47.5158C27.1562 47.0426 27.225 46.5726 27.3484 46.1156C27.9255 46.2417 28.3544 46.7148 28.7171 47.1783C30.5445 49.5195 31.776 52.2694 32.3059 55.1917C32.9871 58.9761 32.4888 63.0317 34.0751 66.5448C34.2313 66.8977 34.4214 67.2346 34.6427 67.5508C34.7342 67.6801 35.0275 67.9135 35.1725 68.1185Z" fill="url(#paint6_linear)"/>
<path d="M40.0322 36.2983C39.9952 36.7585 40.0249 37.2216 40.1205 37.6733C40.2865 38.2448 40.4887 38.8052 40.726 39.351C41.0633 40.3598 41.2824 41.4043 41.3788 42.4637C41.4781 43.0778 41.4781 43.7039 41.3788 44.318C41.3315 44.6255 41.2176 44.9189 41.0449 45.1777C40.8722 45.4365 40.6449 45.6544 40.3791 45.816C39.9953 45.998 39.5676 46.0669 39.146 46.0146C38.3189 45.9382 37.5415 45.5862 36.9385 45.0149C36.6686 44.7454 36.4237 44.452 36.2068 44.1382C35.004 42.4855 34.0213 40.6833 33.2834 38.7771C32.9915 38.1003 32.8074 37.3821 32.7378 36.6484C32.7216 36.4891 32.7377 36.3282 32.7851 36.1753C32.9153 35.9206 33.1086 35.7034 33.3465 35.5446C33.9242 34.9825 34.4247 34.3462 34.835 33.6524C35.2464 32.9614 35.791 32.359 36.437 31.8801C36.7628 31.6444 37.1441 31.4972 37.5438 31.453C37.9434 31.4088 38.3477 31.469 38.7171 31.6278C39.3321 31.9431 40.4674 32.9491 40.5778 33.665C40.7071 34.4629 40.0952 35.4689 40.0322 36.2983Z" fill="url(#paint7_linear)"/>
<path d="M56.3491 13.3052C56.7089 11.6357 57.5067 10.0922 58.6605 8.83311C59.8143 7.57404 61.2825 6.64487 62.9143 6.14106C64.546 5.63725 66.2825 5.57698 67.9453 5.96643C69.6081 6.35587 71.1372 7.18101 72.3755 8.35704C73.6138 9.53307 74.5167 11.0176 74.9914 12.6581C75.4661 14.2986 75.4954 16.0358 75.0764 17.6914C74.6574 19.347 73.8052 20.8612 72.6073 22.0784C71.4094 23.2955 69.9091 24.1719 68.2604 24.6172H68.1942L65.687 15.333L56.3491 13.3052Z" fill="url(#paint8_linear)"/>
<path d="M56.4688 17.8401C56.065 16.3601 56.0238 14.8045 56.349 13.3052L65.6869 15.3487L68.1941 24.633C65.7387 25.2787 63.1277 24.9268 60.9309 23.6541C58.7341 22.3814 57.13 20.2913 56.4688 17.8401V17.8401Z" fill="url(#paint9_linear)"/>
<path d="M46.1975 29.7861C46.1975 31.1138 46.1502 32.495 45.5384 33.6745C45.3963 33.9826 45.1795 34.2504 44.9077 34.4534C44.4314 34.7067 43.8865 34.8007 43.3529 34.7215C41.7799 34.6768 40.2268 34.3566 38.7644 33.7754C37.2948 33.1863 36.067 32.1185 35.2796 30.7448C34.8225 29.8329 34.5512 28.8391 34.4818 27.8214C34.2894 25.7305 34.7719 23.4063 36.4402 22.1164C37.216 21.5746 38.097 21.2017 39.0262 21.0221C41.3598 20.4639 43.7724 21.0221 45.365 22.9427C45.92 23.6081 45.9515 24.4312 45.9957 25.2638C46.1092 26.7744 46.1849 28.2786 46.1975 29.7861Z" fill="url(#paint10_linear)"/>
<path d="M44.5608 22.6241C45.4406 21.5708 45.7623 20.1675 45.9705 18.8083C46.1001 18.1661 46.1119 17.5057 46.0051 16.8593C45.8463 16.1498 45.4307 15.5242 44.8383 15.1027C44.1287 14.6013 43.2426 14.4436 42.3848 14.2986C41.1233 14.081 39.7736 13.8697 38.5594 14.2986C37.5345 14.6644 36.724 15.4528 35.9797 16.2443C35.5824 15.7272 34.8381 15.6325 34.1885 15.6925C32.2206 15.8691 30.4262 17.0927 29.3319 18.7357C28.2718 20.4209 27.7585 22.3925 27.8623 24.3807C27.9096 25.9071 28.225 27.5343 27.5469 28.8873C26.4905 30.9655 23.5513 31.5048 22.4538 33.5641C21.7569 34.8697 21.9808 36.4528 22.2268 37.9098C23.3085 36.784 25.0461 36.6074 26.6009 36.7461C28.1556 36.8849 29.7229 37.2696 31.2588 36.9952C32.93 36.6443 34.401 35.6613 35.3648 34.2516C36.3134 32.8336 36.8923 31.201 37.0488 29.5022C37.1278 28.3348 37.3319 27.1792 37.6575 26.0553C37.9508 25.1723 38.2598 25.0524 39.187 24.8885C41.1107 24.551 43.2489 24.201 44.5608 22.6241Z" fill="#3E3E54"/>
<path d="M21.7254 65.9992C21.3406 68.9006 22.129 71.8145 22.4349 74.7253C22.7779 78.0157 22.5019 81.3411 21.6213 84.53C21.3059 85.6937 20.8486 86.9046 19.8962 87.6458C18.4771 88.7432 16.1434 88.6644 15.3109 90.2538C15.228 90.385 15.1794 90.5348 15.1695 90.6896C15.1596 90.8445 15.1887 90.9993 15.2541 91.14C15.437 91.4364 15.8312 91.5026 16.1781 91.5373C19.1033 91.8073 22.0502 91.7321 24.9578 91.3134C25.2798 91.3015 25.589 91.184 25.8377 90.9791C26.0385 90.7198 26.1492 90.402 26.1531 90.074C26.4526 87.0939 26.5977 84.0821 27.2757 81.1682C27.7614 79.0773 28.5183 77.0432 28.7737 74.9114C29.0891 72.3538 28.6633 69.771 28.2408 67.2291C27.9632 65.5419 28.4962 53.6275 26.4526 53.3153C24.4091 53.0031 21.9493 64.3089 21.7254 65.9992Z" fill="url(#paint11_linear)"/>
<path d="M50.8176 42.2902C52.8674 44.7279 53.9428 47.8248 54.8889 50.8681C55.0176 51.1836 55.0547 51.5289 54.9961 51.8646C54.8763 52.1838 54.6645 52.4604 54.3875 52.6593C53.0711 53.8045 51.6499 54.8234 50.1427 55.7026L45.9358 52.3471C45.5933 52.1185 45.3179 51.8029 45.1379 51.4325C45.0475 51.1085 45.0229 50.7697 45.0654 50.436C45.1169 48.44 44.8224 46.4501 44.195 44.5545C43.8165 43.3246 42.1672 40.7859 42.8294 39.5591C44.3842 36.6893 49.6886 40.9404 50.8176 42.2902Z" fill="#DDDDDD"/>
<path d="M116.186 26.194C116.047 27.0865 115.48 27.8402 114.95 28.5719C114.42 29.3035 113.893 30.1046 113.865 31.0033C113.887 31.2995 113.871 31.5974 113.818 31.8895C113.654 32.4351 113.064 32.6937 112.484 32.6527C112.215 32.6409 111.954 32.5594 111.727 32.4162C111.027 31.9683 110.677 31.1547 110.364 30.3726C109.34 31.1673 108.277 31.981 107.022 32.3152C105.766 32.6495 104.262 32.3941 103.483 31.3692C103.133 30.9024 102.96 30.3222 102.603 29.8586C102.247 29.395 101.578 29.0702 101.083 29.3729C100.487 29.7387 100.613 30.6344 100.818 31.2966C100.213 30.8677 99.4182 32.6243 98.9704 33.9236C98.672 33.8142 98.3971 33.6494 98.1599 33.4379C97.554 32.8808 97.1224 32.1601 96.9174 31.3628C96.5705 30.1014 96.6178 28.7296 96.2866 27.446C95.9555 26.1625 95.268 24.9042 95.4604 23.5891C95.7158 21.861 97.4535 20.59 97.5733 18.8587C97.6143 18.228 97.4346 17.5972 97.5039 16.9665C97.7089 15.1153 99.8219 14.2008 101.626 13.7498C103.59 13.261 105.864 12.9393 107.466 14.1787C108.043 14.6202 108.567 15.2699 109.292 15.2699C109.784 15.2699 110.238 14.9545 110.727 14.9545C111.32 14.9545 111.821 15.3771 112.222 15.8123C113.228 16.9313 113.991 18.2466 114.463 19.6752C114.935 21.1037 115.106 22.6146 114.966 24.1127C115.858 24.2451 116.328 25.3173 116.186 26.194Z" fill="#3E3E54"/>
<path d="M112.484 32.6527V32.6842C112.27 35.6413 110.927 38.4031 108.734 40.398C107.492 41.5365 105.896 42.4447 104.202 42.2902C102.509 42.1357 101.143 41.0035 100.147 39.6822C99.1187 38.3135 98.3429 36.7966 98.6235 35.0968C98.6467 34.9713 98.6762 34.8471 98.7118 34.7247L98.2514 35.122C98.1735 34.5568 98.143 33.9861 98.1599 33.4159C98.3971 33.6274 98.6721 33.7922 98.9704 33.9016C99.4182 32.6023 100.213 30.8457 100.818 31.2746C100.613 30.606 100.487 29.7167 101.083 29.3509C101.578 29.0355 102.25 29.3729 102.603 29.8365C102.957 30.3001 103.133 30.8804 103.483 31.3471C104.262 32.3847 105.77 32.6433 107.022 32.2932C108.274 31.9431 109.34 31.1453 110.365 30.3506C110.68 31.1232 111.027 31.9463 111.727 32.3941C111.952 32.5451 112.213 32.6343 112.484 32.6527V32.6527Z" fill="url(#paint12_linear)"/>
<path d="M68.4969 90.5975C68.3665 90.6763 68.2691 90.7995 68.2225 90.9444C68.1468 91.3386 68.7082 91.4995 69.1055 91.4868L80.6699 91.1147C81.0491 91.1395 81.4273 91.0529 81.7579 90.8656C82.9184 90.0393 81.903 87.5291 81.1272 86.8163C79.9036 85.6936 78.9638 86.0689 77.5825 86.6744C75.9615 87.3808 74.6181 88.349 72.9088 88.882C71.3919 89.3708 69.7962 89.6136 68.4969 90.5975Z" fill="url(#paint13_linear)"/>
<path d="M119.176 42.4132C121.024 44.277 122.232 46.6674 123.408 49.0137L129.084 60.3037C130.406 62.9433 131.762 65.9614 130.772 68.746C130.053 70.7643 128.176 72.215 126.136 72.8804C124.095 73.5458 121.904 73.5301 119.765 73.3598C115.237 72.9969 110.785 71.9793 106.549 70.3386L107.832 64.4571C107.993 63.7349 108.233 62.9055 108.917 62.6248C109.374 62.4945 109.861 62.5066 110.311 62.6595L118.677 64.6085C118.066 59.323 117.202 54.0764 116.085 48.8687C115.869 47.6208 115.493 46.4061 114.966 45.2546C114.335 44.0279 111.389 40.7922 113.297 39.6727C114.836 38.7644 118.217 41.4482 119.176 42.4132Z" fill="#DDDDDD"/>
<path d="M22.4161 37.9634C20.6248 38.96 19.7512 41.0414 19.2624 43.0282C17.5658 49.7044 18.6317 56.7338 19.7229 63.5268C19.7408 63.8071 19.8517 64.0735 20.0382 64.2836C20.2538 64.4416 20.5152 64.5247 20.7825 64.5201C22.2632 64.6416 23.7515 64.6416 25.2322 64.5201C26.2449 64.4363 27.1943 63.9933 27.909 63.271C28.6238 62.5487 29.0569 61.5948 29.1301 60.5813C29.2216 59.2 28.7233 53.2869 28.9661 51.9245C29.4234 49.2282 25.1912 36.4213 22.4161 37.9634Z" fill="#DDDDDD"/>
<path d="M138.567 91.5657H0V95H138.567V91.5657Z" fill="#3E3E54"/>
<path d="M97.7215 32.5707C97.5074 32.8911 97.4084 33.2747 97.4409 33.6587C97.4351 34.1655 97.5848 34.6619 97.8698 35.081C97.9302 35.177 98.0139 35.2563 98.1132 35.3114C98.2124 35.3665 98.3239 35.3958 98.4374 35.3963C98.5547 35.3787 98.6643 35.3272 98.7528 35.2481C99.1533 34.9328 99.2605 34.4093 99.3425 33.9268C99.4522 33.5615 99.5334 33.1882 99.5853 32.8104C99.5822 32.6173 99.5201 32.4299 99.4073 32.2732C99.2946 32.1165 99.1366 31.998 98.9546 31.9337C98.5667 31.839 97.9486 32.2553 97.7215 32.5707Z" fill="url(#paint14_linear)"/>
<path d="M98.797 33.3844C98.8427 33.231 98.8427 33.0678 98.797 32.9145C98.7468 32.8293 98.6659 32.7665 98.571 32.739C98.476 32.7114 98.3741 32.7212 98.2861 32.7662C98.1996 32.8152 98.125 32.8827 98.0678 32.964C98.0105 33.0452 97.972 33.1382 97.955 33.2361C97.8942 33.6658 97.9857 34.1031 98.2136 34.4724C98.2924 34.6206 98.3934 34.7877 98.5573 34.8098C98.6396 34.817 98.7221 34.7984 98.7933 34.7566C98.8645 34.7148 98.9209 34.6518 98.9547 34.5764C99.0179 34.425 99.0439 34.2606 99.0304 34.0971C99.0335 33.8038 98.7529 33.6903 98.797 33.3844Z" fill="url(#paint15_linear)"/>
<path d="M53.3405 53.2238L46.6201 47.1468L46.7557 53.0851L50.149 55.7026C50.149 55.7026 52.8359 54.4191 53.3405 53.2238Z" fill="url(#paint16_linear)"/>
<path d="M117.753 59.2536L117.958 53.5235C117.958 53.5235 123.14 63.8138 122.036 65.1919C120.932 66.57 118.665 64.6053 118.665 64.6053L117.753 59.2536Z" fill="url(#paint17_linear)"/>
<path d="M90.0614 8.56528H79.2161C78.9113 8.56528 78.6642 8.81236 78.6642 9.11716C78.6642 9.42196 78.9113 9.66905 79.2161 9.66905H90.0614C90.3662 9.66905 90.6133 9.42196 90.6133 9.11716C90.6133 8.81236 90.3662 8.56528 90.0614 8.56528Z" fill="#DDDDDD"/>
<path d="M90.0614 11.4193H79.2161C78.9113 11.4193 78.6642 11.6664 78.6642 11.9712C78.6642 12.276 78.9113 12.5231 79.2161 12.5231H90.0614C90.3662 12.5231 90.6133 12.276 90.6133 11.9712C90.6133 11.6664 90.3662 11.4193 90.0614 11.4193Z" fill="#DDDDDD"/>
<path d="M90.0614 14.2733H79.2161C78.9113 14.2733 78.6642 14.5204 78.6642 14.8252C78.6642 15.13 78.9113 15.3771 79.2161 15.3771H90.0614C90.3662 15.3771 90.6133 15.13 90.6133 14.8252C90.6133 14.5204 90.3662 14.2733 90.0614 14.2733Z" fill="#DDDDDD"/>
<defs>
<linearGradient id="paint0_linear" x1="50.7609" y1="49.8084" x2="76.8099" y2="49.8084" gradientUnits="userSpaceOnUse">
<stop stop-color="#E5C5D5"/>
<stop offset="0.42" stop-color="#EAD4D1"/>
<stop offset="1" stop-color="#F0E9CB"/>
</linearGradient>
<linearGradient id="paint1_linear" x1="94.8297" y1="113.685" x2="61.4296" y2="-58.3169" gradientUnits="userSpaceOnUse">
<stop stop-opacity="0"/>
<stop offset="0.99"/>
</linearGradient>
<linearGradient id="paint2_linear" x1="9268.04" y1="3614.55" x2="9383.53" y2="2101.45" gradientUnits="userSpaceOnUse">
<stop stop-opacity="0"/>
<stop offset="0.99"/>
</linearGradient>
<linearGradient id="paint3_linear" x1="3951.91" y1="1510.66" x2="4432.29" y2="1510.66" gradientUnits="userSpaceOnUse">
<stop stop-color="#E5C5D5"/>
<stop offset="0.42" stop-color="#EAD4D1"/>
<stop offset="1" stop-color="#F0E9CB"/>
</linearGradient>
<linearGradient id="paint4_linear" x1="2609.45" y1="1528.95" x2="2804.21" y2="1528.95" gradientUnits="userSpaceOnUse">
<stop stop-color="#E5C5D5"/>
<stop offset="0.42" stop-color="#EAD4D1"/>
<stop offset="1" stop-color="#F0E9CB"/>
</linearGradient>
<linearGradient id="paint5_linear" x1="2169.24" y1="1495.19" x2="2389.33" y2="593.919" gradientUnits="userSpaceOnUse">
<stop stop-opacity="0"/>
<stop offset="0.99"/>
</linearGradient>
<linearGradient id="paint6_linear" x1="1198.92" y1="5526.16" x2="-124.333" y2="5004.66" gradientUnits="userSpaceOnUse">
<stop stop-opacity="0"/>
<stop offset="0.99"/>
</linearGradient>
<linearGradient id="paint7_linear" x1="989.312" y1="2256.53" x2="1230.46" y2="2256.53" gradientUnits="userSpaceOnUse">
<stop stop-color="#E5C5D5"/>
<stop offset="0.42" stop-color="#EAD4D1"/>
<stop offset="1" stop-color="#F0E9CB"/>
</linearGradient>
<linearGradient id="paint8_linear" x1="80.9766" y1="3.83483" x2="61.7487" y2="18.3493" gradientUnits="userSpaceOnUse">
<stop offset="0.02" stop-color="white" stop-opacity="0"/>
<stop offset="0.32" stop-color="white" stop-opacity="0.39"/>
<stop offset="0.68" stop-color="white" stop-opacity="0.68"/>
<stop offset="1" stop-color="white"/>
</linearGradient>
<linearGradient id="paint9_linear" x1="-55534.9" y1="109152" x2="-55037.2" y2="109002" gradientUnits="userSpaceOnUse">
<stop offset="0.02" stop-color="white" stop-opacity="0"/>
<stop offset="0.32" stop-color="white" stop-opacity="0.39"/>
<stop offset="0.68" stop-color="white" stop-opacity="0.68"/>
<stop offset="1" stop-color="white"/>
</linearGradient>
<linearGradient id="paint10_linear" x1="1387.03" y1="1662.04" x2="1825.39" y2="1662.04" gradientUnits="userSpaceOnUse">
<stop stop-color="#E5C5D5"/>
<stop offset="0.42" stop-color="#EAD4D1"/>
<stop offset="1" stop-color="#F0E9CB"/>
</linearGradient>
<linearGradient id="paint11_linear" x1="754.977" y1="10018.9" x2="1351.6" y2="10018.9" gradientUnits="userSpaceOnUse">
<stop stop-color="#E5C5D5"/>
<stop offset="0.42" stop-color="#EAD4D1"/>
<stop offset="1" stop-color="#F0E9CB"/>
</linearGradient>
<linearGradient id="paint12_linear" x1="16208.6" y1="2650.67" x2="16857" y2="2549.59" gradientUnits="userSpaceOnUse">
<stop stop-color="#E5C5D5"/>
<stop offset="0.42" stop-color="#EAD4D1"/>
<stop offset="1" stop-color="#F0E9CB"/>
</linearGradient>
<linearGradient id="paint13_linear" x1="3193.54" y1="1764.92" x2="3820.93" y2="1764.92" gradientUnits="userSpaceOnUse">
<stop stop-color="#E5C5D5"/>
<stop offset="0.42" stop-color="#EAD4D1"/>
<stop offset="1" stop-color="#F0E9CB"/>
</linearGradient>
<linearGradient id="paint14_linear" x1="785.639" y1="508.773" x2="764.025" y2="501.919" gradientUnits="userSpaceOnUse">
<stop stop-color="#E5C5D5"/>
<stop offset="0.42" stop-color="#EAD4D1"/>
<stop offset="1" stop-color="#F0E9CB"/>
</linearGradient>
<linearGradient id="paint15_linear" x1="440.568" y1="315.252" x2="461.341" y2="317.882" gradientUnits="userSpaceOnUse">
<stop stop-opacity="0"/>
<stop offset="0.99"/>
</linearGradient>
<linearGradient id="paint16_linear" x1="1201.12" y1="1667.53" x2="956.241" y2="1719.74" gradientUnits="userSpaceOnUse">
<stop stop-opacity="0"/>
<stop offset="0.99"/>
</linearGradient>
<linearGradient id="paint17_linear" x1="1868.42" y1="3327.02" x2="841.766" y2="1397.56" gradientUnits="userSpaceOnUse">
<stop stop-opacity="0"/>
<stop offset="0.99"/>
</linearGradient>
</defs>
</svg>
