<svg width="148" height="91" viewBox="0 0 148 91" fill="none" xmlns="http://www.w3.org/2000/svg">
<g clip-path="url(#clip0)">
<path d="M144.807 74.5963H4.43334C4.37066 74.5963 4.31056 74.5714 4.26624 74.5271C4.22192 74.4827 4.19702 74.4226 4.19702 74.36C4.19702 74.2973 4.22192 74.2372 4.26624 74.1929C4.31056 74.1486 4.37066 74.1237 4.43334 74.1237H144.807C144.869 74.1237 144.929 74.1486 144.974 74.1929C145.018 74.2372 145.043 74.2973 145.043 74.36C145.043 74.4226 145.018 74.4827 144.974 74.5271C144.929 74.5714 144.869 74.5963 144.807 74.5963Z" fill="#D1D3D4"/>
<path d="M89.092 84.9848C89.0047 84.9852 88.9181 84.9692 88.8367 84.9376L75.6029 79.8189L62.3691 84.9376C62.1936 85.0053 61.9984 85.0005 61.8265 84.9242C61.6545 84.848 61.5199 84.7066 61.4522 84.5311C61.3845 84.3556 61.3893 84.1604 61.4655 83.9885C61.5417 83.8165 61.6832 83.6819 61.8586 83.6142L75.1492 78.4577C75.4272 78.3489 75.7361 78.3489 76.0141 78.4577L89.3283 83.6142C89.4829 83.6736 89.6118 83.7854 89.6926 83.9299C89.7734 84.0745 89.8011 84.2428 89.7707 84.4057C89.7404 84.5685 89.654 84.7156 89.5266 84.8214C89.3992 84.9272 89.2387 84.985 89.0731 84.9848H89.092Z" fill="#231F20"/>
<path d="M74.6199 53.9987H76.7089V77.1201C76.7089 77.2455 76.6592 77.3657 76.5705 77.4543C76.4819 77.543 76.3617 77.5928 76.2363 77.5928H75.1303C75.005 77.5928 74.8848 77.543 74.7961 77.4543C74.7075 77.3657 74.6577 77.2455 74.6577 77.1201V53.9987H74.6199Z" fill="white"/>
<path d="M76.2126 77.848H75.1067C74.9145 77.8468 74.7305 77.7695 74.5951 77.6332C74.4596 77.4968 74.3835 77.3124 74.3835 77.1201V53.9988C74.3835 53.9361 74.4084 53.876 74.4528 53.8317C74.4971 53.7873 74.5572 53.7624 74.6199 53.7624H76.7042C76.7669 53.7624 76.827 53.7873 76.8713 53.8317C76.9156 53.876 76.9405 53.9361 76.9405 53.9988V77.1201C76.9405 77.3132 76.8638 77.4983 76.7273 77.6348C76.5908 77.7713 76.4057 77.848 76.2126 77.848V77.848ZM74.8562 54.2162V77.1012C74.8562 77.1681 74.8824 77.2323 74.9293 77.2801C74.9761 77.3278 75.0398 77.3552 75.1067 77.3565H76.2126C76.2803 77.3565 76.3453 77.3296 76.3931 77.2817C76.441 77.2338 76.4679 77.1689 76.4679 77.1012V54.2351L74.8562 54.2162Z" fill="#231F20"/>
<path d="M76.0661 77.6117H75.2532C74.5145 77.6117 73.9156 78.2095 73.9156 78.9469C73.9156 79.6843 74.5145 80.2821 75.2532 80.2821H76.0661C76.8049 80.2821 77.4037 79.6843 77.4037 78.9469C77.4037 78.2095 76.8049 77.6117 76.0661 77.6117Z" fill="white"/>
<path d="M76.0945 80.5184H75.2768C75.0632 80.5301 74.8494 80.4982 74.6485 80.4245C74.4477 80.3508 74.264 80.237 74.1086 80.0899C73.9532 79.9428 73.8295 79.7656 73.7449 79.5691C73.6603 79.3726 73.6167 79.1609 73.6167 78.9469C73.6167 78.733 73.6603 78.5213 73.7449 78.3247C73.8295 78.1282 73.9532 77.951 74.1086 77.8039C74.264 77.6569 74.4477 77.543 74.6485 77.4693C74.8494 77.3956 75.0632 77.3637 75.2768 77.3754H76.0945C76.4963 77.3974 76.8745 77.5726 77.1512 77.8649C77.4279 78.1572 77.5821 78.5444 77.5821 78.9469C77.5821 79.3494 77.4279 79.7366 77.1512 80.0289C76.8745 80.3212 76.4963 80.4964 76.0945 80.5184V80.5184ZM75.2768 77.848C75.1264 77.8382 74.9756 77.8593 74.8338 77.91C74.6919 77.9608 74.5619 78.0401 74.4519 78.1431C74.3419 78.2461 74.2543 78.3706 74.1943 78.5089C74.1344 78.6471 74.1034 78.7962 74.1034 78.9469C74.1034 79.0976 74.1344 79.2467 74.1943 79.3849C74.2543 79.5232 74.3419 79.6477 74.4519 79.7507C74.5619 79.8537 74.6919 79.933 74.8338 79.9838C74.9756 80.0346 75.1264 80.0557 75.2768 80.0458H76.0945C76.3734 80.0275 76.635 79.9037 76.8261 79.6997C77.0173 79.4956 77.1236 79.2265 77.1236 78.9469C77.1236 78.6673 77.0173 78.3982 76.8261 78.1941C76.635 77.9901 76.3734 77.8663 76.0945 77.848H75.2768Z" fill="#231F20"/>
<path d="M113.688 2.62314H35.5801V53.0866H113.688V2.62314Z" fill="white"/>
<path d="M113.683 53.3229H35.5801C35.5174 53.3229 35.4573 53.298 35.413 53.2537C35.3686 53.2094 35.3438 53.1493 35.3438 53.0866V2.62314C35.3438 2.56047 35.3686 2.50036 35.413 2.45604C35.4573 2.41172 35.5174 2.38683 35.5801 2.38683H113.683C113.746 2.38683 113.806 2.41172 113.85 2.45604C113.895 2.50036 113.92 2.56047 113.92 2.62314V53.0866C113.92 53.1493 113.895 53.2094 113.85 53.2537C113.806 53.298 113.746 53.3229 113.683 53.3229ZM35.8164 52.8503H113.433V2.85946H35.8164V52.8503Z" fill="#231F20"/>
<path d="M115.645 0.264679H33.595V2.62314H115.645V0.264679Z" fill="white"/>
<path d="M115.64 2.85946H33.595C33.5323 2.85946 33.4722 2.83456 33.4279 2.79024C33.3835 2.74592 33.3586 2.68581 33.3586 2.62314V0.259954C33.3586 0.197279 33.3835 0.13717 33.4279 0.0928517C33.4722 0.0485334 33.5323 0.0236359 33.595 0.0236359H115.64C115.703 0.0236359 115.763 0.0485334 115.807 0.0928517C115.851 0.13717 115.876 0.197279 115.876 0.259954V2.62314C115.876 2.68581 115.851 2.74592 115.807 2.79024C115.763 2.83456 115.703 2.85946 115.64 2.85946ZM33.8313 2.38682H115.404V0.496273H33.8313V2.38682Z" fill="#231F20"/>
<path d="M115.645 53.0866H33.595V55.445H115.645V53.0866Z" fill="white"/>
<path d="M115.64 55.6813H33.595C33.5323 55.6813 33.4722 55.6564 33.4279 55.6121C33.3835 55.5678 33.3586 55.5077 33.3586 55.445V53.0818C33.3586 53.0192 33.3835 52.9591 33.4279 52.9147C33.4722 52.8704 33.5323 52.8455 33.595 52.8455H115.64C115.703 52.8455 115.763 52.8704 115.807 52.9147C115.851 52.9591 115.876 53.0192 115.876 53.0818V55.445C115.876 55.5077 115.851 55.5678 115.807 55.6121C115.763 55.6564 115.703 55.6813 115.64 55.6813ZM33.8313 55.2087H115.404V53.3182H33.8313V55.2087Z" fill="#231F20"/>
<path d="M75.6596 84.9848C75.4716 84.9848 75.2913 84.9101 75.1583 84.7772C75.0254 84.6442 74.9507 84.4639 74.9507 84.2759V78.9303C74.9507 78.7423 75.0254 78.562 75.1583 78.429C75.2913 78.2961 75.4716 78.2214 75.6596 78.2214C75.8477 78.2214 76.028 78.2961 76.1609 78.429C76.2939 78.562 76.3686 78.7423 76.3686 78.9303V84.257C76.3711 84.3516 76.3546 84.4459 76.3201 84.5341C76.2857 84.6223 76.2338 84.7027 76.1677 84.7705C76.1017 84.8384 76.0227 84.8923 75.9354 84.9291C75.8481 84.9659 75.7544 84.9849 75.6596 84.9848V84.9848Z" fill="#231F20"/>
<path d="M17.3079 2.69402C15.9429 2.88657 14.6902 3.55597 13.7715 4.58366C12.8528 5.61136 12.3274 6.93103 12.2885 8.30895C12.2223 9.65596 12.5437 11.1448 11.8158 12.2649C11.2392 13.1629 10.1522 13.5836 9.4054 14.3445C8.95951 14.8037 8.64192 15.3719 8.48433 15.9923C8.32675 16.6126 8.3347 17.2635 8.50739 17.8798C8.69172 18.4895 9.03674 19.0709 9.00838 19.7042C8.97057 20.6164 8.2049 21.297 7.67555 22.039C5.81336 24.6527 7.01858 28.6087 9.61336 30.4945C12.2081 32.3803 15.7009 32.5694 18.8487 31.9691C21.6432 31.486 24.2741 30.3167 26.5054 28.5662C27.7862 27.5264 28.9678 25.9572 28.5472 24.3597C28.1265 22.7622 26.3636 21.8973 25.9335 20.3423C25.6121 19.1843 26.1131 17.9791 26.4061 16.8259C27.1907 13.7065 26.4676 10.398 25.5223 7.31641C25.0497 5.78034 24.7046 3.87561 23.0835 3.31317C22.3887 3.07685 21.538 3.62511 21.538 3.62511C21.2071 2.63258 18.3666 2.50969 17.3079 2.69402Z" fill="white"/>
<path d="M15.7577 32.4891C13.5257 32.5618 11.3281 31.9247 9.48109 30.6694C6.9194 28.7789 5.47313 24.7473 7.49602 21.9162C7.62363 21.7366 7.76542 21.557 7.91194 21.3774C8.34676 20.8338 8.76268 20.3187 8.79104 19.6948C8.77665 19.2874 8.68019 18.8871 8.50746 18.5179C8.43184 18.3241 8.36094 18.1351 8.30422 17.9413C8.1166 17.2888 8.10523 16.5981 8.27127 15.9398C8.43732 15.2814 8.77485 14.6788 9.2495 14.1933C9.57618 13.8814 9.93054 13.5998 10.3082 13.352C10.8204 13.0377 11.2679 12.6287 11.6269 12.1468C12.1231 11.3716 12.0995 10.4216 12.0711 9.41493C12.0711 9.04627 12.0711 8.66344 12.0711 8.29478C12.1174 6.86962 12.6637 5.50617 13.6142 4.4433C14.5648 3.38042 15.859 2.68588 17.2701 2.48135C18.1445 2.3301 20.9284 2.32538 21.6279 3.32737C22.092 3.06256 22.6397 2.98481 23.1592 3.10995C24.6811 3.63458 25.1443 5.23682 25.5555 6.65C25.6169 6.85324 25.6736 7.05647 25.7351 7.25498C26.6425 10.1617 27.4555 13.5789 26.6189 16.8779C26.5622 17.1095 26.496 17.3505 26.4298 17.5679C26.1699 18.4754 25.9052 19.4112 26.1463 20.2808C26.4157 20.9986 26.8458 21.6453 27.4035 22.1714C28.0185 22.7567 28.4838 23.4813 28.7599 24.2841C29.2893 26.3022 27.4602 28.0652 26.6473 28.7174C24.39 30.49 21.7313 31.6798 18.9055 32.1818C17.8684 32.3841 16.8143 32.487 15.7577 32.4891ZM17.3458 2.90672C16.0318 3.09843 14.8268 3.74508 13.9407 4.73399C13.0545 5.72291 12.5435 6.99139 12.4965 8.31841C12.4965 8.66816 12.4965 9.04154 12.4965 9.40075C12.5249 10.4311 12.5532 11.4945 11.9861 12.3831C11.5947 12.9124 11.1053 13.3617 10.5445 13.7065C10.189 13.939 9.85519 14.2031 9.54726 14.4958C9.13413 14.9281 8.83996 15.4601 8.69336 16.0399C8.54676 16.6196 8.55273 17.2275 8.71069 17.8042C8.76741 17.9886 8.83358 18.1682 8.90447 18.3478C9.10257 18.7715 9.21041 19.2318 9.22114 19.6995C9.18805 20.4652 8.71069 21.0607 8.24751 21.6373C8.10572 21.8075 7.96865 21.9776 7.84577 22.1525C6.34278 24.2605 6.74452 28.1313 9.73631 30.3055C11.953 31.9266 15.1764 32.4323 18.8062 31.7234C21.5657 31.2476 24.1641 30.0946 26.3684 28.3677C27.1152 27.758 28.8025 26.1557 28.3393 24.3786C28.076 23.6442 27.6437 22.9821 27.0774 22.4455C26.4728 21.8655 26.0102 21.1539 25.7256 20.3659C25.4515 19.3781 25.7256 18.3808 26.0092 17.4167C26.0754 17.1898 26.1415 16.944 26.1983 16.7408C27.0017 13.5458 26.1983 10.1995 25.3192 7.34951L25.1348 6.7398C24.7378 5.3597 24.3219 3.93707 23.0174 3.48806C22.5457 3.40749 22.0609 3.50883 21.6609 3.77164C21.6334 3.79006 21.602 3.8018 21.5692 3.80594C21.5364 3.81008 21.503 3.8065 21.4718 3.79548C21.4406 3.78447 21.4124 3.76633 21.3894 3.74249C21.3665 3.71866 21.3494 3.6898 21.3395 3.65821C21.0843 2.89254 18.5415 2.66567 17.3505 2.87363L17.3458 2.90672Z" fill="#231F20"/>
<path d="M22.488 83.3873L22.9607 88.8983C22.9607 88.8983 30.9955 90.3162 33.0704 90.3162C35.1453 90.3162 34.9609 89.0684 31.7659 87.1637C30.4159 86.314 28.9078 85.7465 27.3326 85.4953L27.0821 82.9289L22.488 83.3873Z" fill="white"/>
<path d="M33.0467 90.543C30.9718 90.543 23.2253 89.1677 22.8992 89.1251C22.8521 89.1154 22.8093 89.0909 22.777 89.0552C22.7447 89.0195 22.7246 88.9745 22.7196 88.9266L22.2753 83.4157C22.2713 83.3595 22.2893 83.304 22.3255 83.2608C22.3616 83.2176 22.4131 83.1901 22.4691 83.1841L27.0348 82.7398C27.0631 82.7366 27.0918 82.739 27.1191 82.7471C27.1465 82.7551 27.172 82.7686 27.194 82.7866C27.216 82.8047 27.2342 82.827 27.2475 82.8523C27.2607 82.8775 27.2688 82.9052 27.2711 82.9336L27.5074 85.3251C29.0466 85.6108 30.5194 86.1797 31.851 87.003C33.2405 87.8301 34.8475 89.0022 34.6064 89.8861C34.5024 90.3162 33.9589 90.543 33.0467 90.543ZM23.1592 88.7139C24.3124 88.9172 31.194 90.1318 33.0845 90.1318C33.7415 90.1318 34.1669 89.9995 34.2283 89.7774C34.3228 89.4276 33.7084 88.5958 31.6666 87.3811C30.3458 86.5473 28.8699 85.9894 27.3278 85.7411C27.2785 85.7351 27.2326 85.7127 27.1975 85.6776C27.1624 85.6425 27.14 85.5966 27.134 85.5473L26.9024 83.1841L22.7621 83.5906L23.1592 88.7139Z" fill="#231F20"/>
<path d="M11.5371 83.4724C11.2709 84.6243 11.18 85.8098 11.2677 86.9888C11.4709 88.506 11.5749 90.5478 11.2157 91.7719C10.8565 92.996 9.29205 94.2863 8.06792 93.4734C6.84379 92.6604 6.91469 88.7801 7.12265 87.7592C7.33061 86.7383 7.86941 84.0868 7.80324 82.6547L11.5371 83.4724Z" fill="white"/>
<path d="M8.89966 93.946C8.56249 93.9442 8.23348 93.8422 7.95438 93.653C6.53647 92.7077 6.75388 88.5013 6.90985 87.7167V87.6032C7.12254 86.5304 7.62826 84.0207 7.56209 82.6689C7.56059 82.6359 7.56663 82.6031 7.57973 82.5728C7.59283 82.5425 7.61266 82.5155 7.63771 82.494C7.66318 82.4717 7.69363 82.4557 7.72651 82.4475C7.7594 82.4393 7.79377 82.439 7.82677 82.4468L11.5653 83.2644C11.5933 83.2704 11.6197 83.2818 11.6433 83.2981C11.6668 83.3143 11.6869 83.335 11.7024 83.359C11.7186 83.3829 11.7296 83.4101 11.7344 83.4386C11.7393 83.4671 11.7381 83.4964 11.7307 83.5244C11.47 84.6499 11.3792 85.8081 11.4613 86.9605C11.5606 87.712 11.8584 90.2689 11.4046 91.8333C11.2621 92.2786 11.0235 92.6871 10.7059 93.0301C10.3882 93.3731 9.9991 93.6422 9.56607 93.8184C9.35288 93.8988 9.12746 93.942 8.89966 93.946V93.946ZM8.03473 82.9241C7.94122 84.5278 7.71676 86.1212 7.36359 87.6883V87.8018C7.1509 88.8463 7.12727 92.5612 8.22379 93.2938C8.40606 93.4123 8.61432 93.485 8.83078 93.5056C9.04725 93.5262 9.26547 93.494 9.46682 93.4119C9.837 93.2597 10.1696 93.0286 10.4414 92.7347C10.7132 92.4409 10.9177 92.0914 11.0407 91.7105C11.4708 90.2406 11.1825 87.745 11.0832 87.0172C10.9909 85.8855 11.0689 84.7463 11.3148 83.6378L8.03473 82.9241Z" fill="#231F20"/>
<path d="M16.6746 36.6105C17.3741 36.1709 27.5452 35.8542 27.5452 35.8542C27.5452 35.8542 28.2305 69.6903 27.3609 84.342H22.2753C22.2753 84.342 17.1992 62.4542 18.0736 54.7266C18.0736 54.7266 12.4681 76.4679 12.2696 85.0226H6.48923C6.48923 85.0226 5.63849 65.0396 7.74172 56.1918C9.84496 47.344 16.6746 36.6105 16.6746 36.6105Z" fill="#231F20"/>
<path d="M12.2885 85.2306H6.48928C6.43573 85.2307 6.38422 85.2101 6.34548 85.1731C6.30674 85.1361 6.28376 85.0856 6.28132 85.0321C6.28132 84.8336 5.45421 64.9167 7.53854 56.1445C9.62286 47.3724 16.4288 36.6057 16.5186 36.497C16.5383 36.4727 16.5605 36.4505 16.5848 36.4309C17.2985 35.9866 25.8485 35.703 27.5547 35.6463C27.5829 35.6446 27.6111 35.6492 27.6373 35.6598C27.6635 35.6705 27.6869 35.6868 27.706 35.7077C27.7268 35.726 27.7435 35.7485 27.7549 35.7738C27.7664 35.7991 27.7722 35.8265 27.7721 35.8542C27.7721 36.1898 28.448 69.8605 27.5878 84.3515C27.5843 84.4046 27.5609 84.4545 27.5224 84.4912C27.4839 84.528 27.433 84.549 27.3798 84.55H22.2754C22.2285 84.5494 22.1832 84.5332 22.1464 84.5042C22.1097 84.4751 22.0836 84.4348 22.0721 84.3893C22.0296 84.1861 17.7711 65.7438 17.7664 56.811C16.3816 62.4212 12.6383 78.1458 12.4776 85.0274C12.4766 85.0786 12.4568 85.1276 12.4219 85.1652C12.387 85.2027 12.3395 85.226 12.2885 85.2306V85.2306ZM6.71142 84.8147H12.0664C12.3453 76.2174 17.8184 54.8873 17.8704 54.6746C17.875 54.6476 17.885 54.6218 17.8996 54.5987C17.9142 54.5755 17.9333 54.5554 17.9557 54.5396C17.978 54.5238 18.0033 54.5126 18.03 54.5066C18.0568 54.5005 18.0844 54.4998 18.1114 54.5045C18.1384 54.5092 18.1642 54.5191 18.1874 54.5337C18.2106 54.5483 18.2306 54.5674 18.2464 54.5898C18.2622 54.6122 18.2735 54.6374 18.2795 54.6642C18.2855 54.6909 18.2862 54.7185 18.2816 54.7455C17.4592 62.0052 21.9823 82.1207 22.4455 84.1294H27.1719C27.9801 70.1582 27.4035 38.9453 27.3515 36.0717C23.5089 36.1945 17.5206 36.4828 16.8306 36.7664C16.3249 37.551 9.92535 47.8309 7.94028 56.2438C5.98356 64.4866 6.61689 82.7115 6.69252 84.8147H6.71142Z" fill="#231F20"/>
<path d="M19.9641 18.0736C19.9641 18.0736 24.8748 20.8338 25.8248 25.5886C26.7748 30.3433 25.7067 41.0249 25.7067 41.0249L13.5599 40.5191C13.5599 40.5191 14.7462 27.0537 13.5599 23.2774C12.3736 19.501 12.5863 20.4415 13.7395 20.0823C14.8927 19.7231 17.8278 15.7057 19.9641 18.0736Z" fill="#231F20"/>
<path d="M25.7067 41.2376L13.5599 40.7318C13.5312 40.7311 13.5029 40.7244 13.4769 40.7122C13.4508 40.7 13.4276 40.6826 13.4087 40.6609C13.3907 40.6395 13.3772 40.6146 13.3691 40.5878C13.361 40.561 13.3584 40.5328 13.3614 40.505C13.3614 40.3726 14.5288 27.0396 13.3614 23.3435L13.1534 22.6866C12.5721 20.8575 12.4539 20.4794 12.6288 20.21C12.6918 20.1374 12.7705 20.08 12.859 20.0424C12.9474 20.0047 13.0433 19.9877 13.1393 19.9925C13.3209 19.9798 13.5002 19.9448 13.6733 19.8886C14.1193 19.6543 14.5312 19.3601 14.8975 19.0142C16.3154 17.8468 18.4139 16.0838 20.0965 17.9129C20.5691 18.1729 25.097 20.9 26.0281 25.5555C26.9733 30.2818 25.9241 40.9445 25.9146 41.0532C25.9088 41.1042 25.8844 41.1512 25.846 41.1852C25.8076 41.2193 25.758 41.2379 25.7067 41.2376V41.2376ZM13.7821 40.3206L25.5176 40.7933C25.6547 39.3187 26.4865 29.9226 25.6216 25.6122C24.7 21.0229 19.9074 18.2816 19.8507 18.2532C19.8303 18.2433 19.8125 18.2287 19.7987 18.2107C18.3808 16.6415 16.4903 18.2107 15.1527 19.3308C14.7527 19.7149 14.295 20.0339 13.7962 20.2761C13.5943 20.337 13.3869 20.3781 13.1771 20.399C13.1032 20.4018 13.0301 20.4146 12.9597 20.4368C12.9124 20.5597 13.1487 21.3112 13.541 22.5542L13.749 23.2112C14.8738 26.7701 13.938 38.5104 13.7821 40.3206Z" fill="#231F20"/>
<path d="M19.8224 16.4809C19.8224 16.4809 20.7677 16.4809 21.642 18.3714C22.4597 19.9075 23.4522 58.607 23.4522 58.607H31.7801C31.7801 58.607 28.3582 29.5256 27.5264 25.3522C27.1643 23.3152 26.2566 21.4144 24.9 19.8522C23.5434 18.29 21.7886 17.1249 19.8224 16.4809V16.4809Z" fill="#DDDDDD"/>
<path d="M21.2024 17.0149C21.2024 17.0149 25.1678 18.4754 26.7606 19.9595C28.3534 21.4435 35.2444 34.2945 35.2444 34.2945L30.7497 36.6577L25.2907 30.0408" fill="#DDDDDD"/>
<path d="M29.138 34.5025C28.9253 34.5025 28.4811 34.4647 26.9497 23.9201C26.9429 23.8633 26.9582 23.806 26.9926 23.7603C27.0269 23.7145 27.0776 23.6837 27.1341 23.6744C27.1909 23.6675 27.2481 23.6829 27.2939 23.7172C27.3397 23.7515 27.3705 23.8022 27.3798 23.8587C27.8855 27.3657 28.7977 32.9522 29.1947 33.9779C29.2213 33.973 29.2485 33.973 29.2751 33.9779C29.3027 33.9833 29.3288 33.9944 29.3519 34.0105C29.3749 34.0266 29.3944 34.0473 29.4091 34.0713C29.4237 34.0952 29.4333 34.122 29.437 34.1499C29.4408 34.1777 29.4388 34.2061 29.4311 34.2331C29.3554 34.4741 29.2231 34.5025 29.138 34.5025Z" fill="#231F20"/>
<path d="M21.8169 16.15V19.8649C21.8169 19.8649 21.4388 21.9398 19.1796 21.2828C18.5134 21.0895 17.8985 20.7505 17.3794 20.2902C16.8603 19.83 16.4501 19.2602 16.1783 18.6219L16.4336 12.1893C16.7285 11.0641 16.8544 9.90129 16.8069 8.73905C19.5766 8.72014 21.7413 6.64999 21.7413 6.64999C21.7413 6.64999 22.6866 8.06791 23.093 8.51218C23.4204 8.85021 23.706 9.22628 23.9438 9.63233C24.2584 10.3911 24.3786 11.2164 24.2935 12.0333C24.2834 12.9724 24.19 13.9087 24.0147 14.8313C23.6318 16.5801 21.8169 16.15 21.8169 16.15Z" fill="white"/>
<path d="M20.0067 21.6421C19.7155 21.639 19.4261 21.596 19.1465 21.5144C18.4453 21.3147 17.798 20.9594 17.253 20.475C16.7081 19.9906 16.2793 19.3895 15.9988 18.7164C15.9939 18.6899 15.9939 18.6626 15.9988 18.6361C15.9988 18.6361 16.254 12.2508 16.2587 12.2035C16.2685 12.0896 16.2907 11.977 16.3249 11.8679C16.5766 10.8547 16.6785 9.81016 16.6274 8.76743C16.6261 8.73894 16.6307 8.71047 16.6408 8.68382C16.651 8.65716 16.6665 8.63288 16.6865 8.61249C16.7064 8.5921 16.7304 8.57603 16.7568 8.56528C16.7832 8.55454 16.8116 8.54934 16.8401 8.55002C19.4727 8.50748 21.5664 6.51295 21.5995 6.49405C21.6225 6.47182 21.6501 6.45482 21.6803 6.44422C21.7104 6.43361 21.7425 6.42965 21.7744 6.43261C21.8054 6.43724 21.8351 6.44799 21.8619 6.46421C21.8887 6.48044 21.9119 6.50183 21.9304 6.52713C21.9304 6.52713 22.8756 7.94504 23.2632 8.37042C23.6056 8.71803 23.9012 9.1089 24.1423 9.5331C24.4756 10.3234 24.6041 11.185 24.5157 12.0381C24.5096 12.9901 24.4147 13.9395 24.2321 14.8739C24.1927 15.124 24.1018 15.3632 23.9651 15.5764C23.8284 15.7895 23.6489 15.972 23.4381 16.1122C23.0178 16.3548 22.5306 16.4558 22.0485 16.4005V19.8649C21.9405 20.4645 21.6009 20.9976 21.1033 21.349C20.774 21.5511 20.3929 21.6529 20.0067 21.6421V21.6421ZM16.4194 18.6077C16.6835 19.2035 17.0739 19.7348 17.5635 20.1649C18.0532 20.5949 18.6304 20.9135 19.2552 21.0985C19.4919 21.2038 19.7496 21.2535 20.0085 21.2437C20.2673 21.234 20.5205 21.1651 20.7487 21.0424C20.9768 20.9197 21.1738 20.7463 21.3245 20.5357C21.4753 20.325 21.5758 20.0827 21.6184 19.8271L21.5901 16.15C21.5899 16.1174 21.597 16.0853 21.6109 16.0558C21.6248 16.0264 21.6451 16.0004 21.6704 15.9799C21.6958 15.959 21.7256 15.9444 21.7576 15.937C21.7896 15.9296 21.8228 15.9297 21.8547 15.9373C22.3074 16.0331 22.7794 15.9662 23.1876 15.7483C23.3466 15.6397 23.4818 15.4999 23.585 15.3374C23.6882 15.1749 23.7572 14.9931 23.7878 14.803C23.9625 13.8947 24.0543 12.9724 24.062 12.0475C24.1481 11.2686 24.0376 10.4805 23.7406 9.75524C23.5112 9.36525 23.2367 9.00357 22.9229 8.67763C22.5968 8.32315 21.9776 7.40624 21.6846 6.99504C20.3823 8.12143 18.762 8.81512 17.048 8.98012C17.0829 9.99224 16.9747 11.0042 16.7266 11.9861C16.7021 12.0663 16.6847 12.1486 16.6747 12.2319C16.6747 12.2319 16.6699 12.3358 16.4194 18.6077Z" fill="#231F20"/>
<path d="M21.7932 17.9602C20.8767 17.9758 19.9896 17.6372 19.3166 17.0149C19.041 16.7583 18.8244 16.445 18.6816 16.0966C18.5388 15.7482 18.4733 15.373 18.4895 14.9968C19.483 15.6397 20.619 16.0292 21.7979 16.1311L21.7932 17.9602Z" fill="#231F20"/>
<path d="M21.7413 18.1823C20.7892 18.1887 19.8708 17.8301 19.1749 17.1803C18.8762 16.9018 18.6426 16.5609 18.4907 16.1819C18.3387 15.8029 18.2722 15.395 18.2958 14.9873C18.3009 14.9523 18.3149 14.9191 18.3364 14.891C18.3579 14.8629 18.3862 14.8407 18.4187 14.8266C18.4493 14.8105 18.4833 14.802 18.5179 14.802C18.5525 14.802 18.5866 14.8105 18.6172 14.8266C19.5838 15.4471 20.6868 15.8234 21.8311 15.9231C21.8854 15.9244 21.9371 15.9468 21.9751 15.9857C22.0131 16.0246 22.0344 16.0767 22.0343 16.1311V17.9555C22.035 17.9822 22.0303 18.0087 22.0207 18.0336C22.0111 18.0585 21.9966 18.0813 21.9782 18.1006C21.9597 18.1199 21.9377 18.1354 21.9132 18.1462C21.8888 18.1569 21.8625 18.1628 21.8358 18.1634L21.7413 18.1823ZM18.7164 15.3938C18.7989 15.9631 19.0663 16.4896 19.4774 16.892C20.0564 17.4289 20.8103 17.7379 21.5995 17.7617V16.3438C20.579 16.2354 19.593 15.9116 18.707 15.3938H18.7164Z" fill="#231F20"/>
<path d="M20.9188 10.6107C20.9188 10.6107 22.1146 12.3973 21.831 12.7092C21.5474 13.0211 20.7534 12.8132 20.7534 12.8132" fill="white"/>
<path d="M21.2686 13.0873C21.0744 13.0842 20.8811 13.0604 20.692 13.0164C20.6385 13.002 20.5928 12.9672 20.5645 12.9195C20.5363 12.8719 20.5277 12.8151 20.5407 12.7612C20.5473 12.7344 20.5592 12.7092 20.5757 12.687C20.5922 12.6648 20.6129 12.6461 20.6366 12.6321C20.6604 12.618 20.6867 12.6088 20.7141 12.605C20.7414 12.6012 20.7693 12.6029 20.796 12.61C21.0654 12.6808 21.5333 12.7139 21.6703 12.5674C21.7081 12.4067 21.278 11.5371 20.7251 10.7289C20.6971 10.6831 20.6879 10.6283 20.6993 10.5759C20.7108 10.5236 20.7421 10.4776 20.7866 10.4477C20.8311 10.4179 20.8855 10.4063 20.9383 10.4155C20.9911 10.4248 21.0383 10.4541 21.0701 10.4973C21.6562 11.3716 22.2895 12.4918 21.9634 12.8604C21.8684 12.9425 21.7581 13.0048 21.6388 13.0437C21.5195 13.0827 21.3937 13.0975 21.2686 13.0873Z" fill="#231F20"/>
<path d="M22.4274 10.612C22.5395 10.6076 22.6236 10.4306 22.6152 10.2167C22.6068 10.0029 22.5091 9.83306 22.3969 9.83746C22.2848 9.84187 22.2007 10.0188 22.2091 10.2327C22.2175 10.4466 22.3152 10.6164 22.4274 10.612Z" fill="#231F20"/>
<path d="M19.7609 10.0547C19.7673 9.84077 19.6815 9.66463 19.5693 9.6613C19.4571 9.65797 19.361 9.82871 19.3546 10.0427C19.3483 10.2566 19.4341 10.4328 19.5463 10.4361C19.6585 10.4394 19.7546 10.2687 19.7609 10.0547Z" fill="#231F20"/>
<path d="M17.7002 10.3082C17.5613 9.84621 17.3279 9.41809 17.0149 9.051C16.8535 8.87009 16.641 8.74248 16.4055 8.68509C16.17 8.62769 15.9227 8.64322 15.6962 8.72961C15.4753 8.87961 15.2992 9.08678 15.1869 9.32901C15.0745 9.57124 15.03 9.83944 15.0581 10.105C15.0768 10.7119 15.1867 11.3126 15.3843 11.8868C15.4687 12.2412 15.6447 12.5671 15.8947 12.8321C16.0201 12.9592 16.1838 13.0415 16.3607 13.0663C16.5375 13.0911 16.7176 13.0569 16.8731 12.9692" fill="white"/>
<path d="M16.5045 13.2764C16.2203 13.271 15.9479 13.1617 15.7388 12.9692C15.4635 12.6863 15.2679 12.3358 15.1716 11.953C14.9607 11.3592 14.8474 10.7351 14.8361 10.105C14.8361 9.74579 14.907 8.87141 15.5923 8.53584C15.8588 8.43063 16.1509 8.40864 16.4302 8.47276C16.7095 8.53688 16.9628 8.68411 17.1567 8.89505C17.495 9.28404 17.7478 9.73972 17.8988 10.2326C17.9093 10.2586 17.9145 10.2865 17.914 10.3146C17.9135 10.3426 17.9073 10.3703 17.8958 10.3959C17.8843 10.4215 17.8678 10.4445 17.8472 10.4636C17.8266 10.4826 17.8023 10.4973 17.7759 10.5067C17.7499 10.5193 17.7217 10.5264 17.6929 10.5277C17.6641 10.5289 17.6354 10.5244 17.6084 10.5142C17.5814 10.504 17.5568 10.4885 17.5361 10.4685C17.5153 10.4486 17.4988 10.4246 17.4876 10.398C17.3551 9.96392 17.1346 9.56172 16.84 9.21644C16.7096 9.06943 16.5385 8.96445 16.3483 8.9148C16.1581 8.86516 15.9575 8.87309 15.7719 8.93758C15.2992 9.1739 15.2567 9.88286 15.2567 10.1192C15.2809 10.6991 15.3958 11.2716 15.597 11.8159C15.6806 12.1292 15.8434 12.4156 16.0696 12.6478C16.1599 12.7402 16.277 12.8018 16.4043 12.8239C16.5315 12.8459 16.6625 12.8273 16.7786 12.7707C16.8017 12.7536 16.8279 12.7415 16.8558 12.7348C16.8837 12.7282 16.9127 12.7273 16.9409 12.7322C16.9692 12.737 16.9962 12.7476 17.0202 12.7631C17.0443 12.7787 17.065 12.7989 17.0811 12.8227C17.0973 12.8462 17.1086 12.8728 17.1145 12.9007C17.1204 12.9287 17.1207 12.9576 17.1155 12.9857C17.1102 13.0138 17.0994 13.0405 17.0838 13.0645C17.0682 13.0884 17.048 13.109 17.0244 13.1251C16.8719 13.2302 16.6895 13.2833 16.5045 13.2764V13.2764Z" fill="#231F20"/>
<path d="M15.9185 17.4498C15.9185 17.4498 16.2068 26.1132 16.2068 31.3264C16.2068 37.3241 15.304 58.1863 15.304 58.1863L4.25378 56.9953C4.25378 56.9953 6.36174 46.5216 6.9809 39.5644C7.37319 35.1642 9.05105 25.5507 8.87145 22.4266C8.69184 19.3025 15.9185 17.4498 15.9185 17.4498Z" fill="#DDDDDD"/>
<path d="M28.1644 32.0731L22.1241 45.6142H33.855L39.7393 32.3756L28.1644 32.0731Z" fill="white"/>
<path d="M33.8502 45.8458H22.1241C22.0878 45.8467 22.052 45.8384 22.0198 45.8217C21.9877 45.8049 21.9604 45.7802 21.9405 45.7499C21.9206 45.7195 21.9088 45.6847 21.9062 45.6485C21.9036 45.6124 21.9102 45.5761 21.9256 45.5433L27.9659 31.9975C27.9844 31.9594 28.0133 31.9272 28.0492 31.9046C28.0851 31.8821 28.1267 31.87 28.1691 31.8699L39.744 32.1771C39.7799 32.1767 39.8154 32.1857 39.8469 32.203C39.8783 32.2204 39.9048 32.2457 39.9236 32.2764C39.9397 32.3078 39.9482 32.3426 39.9482 32.378C39.9482 32.4133 39.9397 32.4482 39.9236 32.4796L34.0298 45.704C34.0165 45.7423 33.9925 45.776 33.9607 45.8011C33.9289 45.8262 33.8905 45.8417 33.8502 45.8458ZM22.4549 45.4109H33.7131L39.4131 32.5978L28.3014 32.3047L22.4549 45.4109Z" fill="#231F20"/>
<path d="M17.634 43.648C20.1012 43.7378 22.6912 43.1376 25.0261 44.0403L26.6236 44.6547C26.6133 44.4741 26.5555 44.2993 26.4559 44.1483C26.3563 43.9972 26.2184 43.8751 26.0564 43.7945C25.7317 43.6393 25.423 43.4525 25.1348 43.2368L26.4912 43.8843C26.7512 44.012 27.1388 44.1065 27.2806 43.8465C26.7517 43.3261 26.1612 42.8721 25.5223 42.4948C26.0101 42.7307 26.512 42.9359 27.0253 43.1092C27.3514 43.2227 27.7674 43.2983 27.9706 43.0383C27.4197 42.6137 26.8014 42.2846 26.1415 42.0647L27.4129 42.4475C27.5626 42.508 27.7253 42.5292 27.8855 42.509C27.9629 42.498 28.0341 42.4604 28.0868 42.4026C28.1394 42.3448 28.1702 42.2704 28.1738 42.1923C28.1595 42.1281 28.1319 42.0677 28.0928 42.0148C28.0537 41.9619 28.0041 41.9177 27.947 41.8851C27.0866 41.2247 26.0881 40.7675 25.0261 40.5475C25.1253 40.2734 25.6594 38.8366 25.4656 38.5861C25.2718 38.3356 24.5582 39.6637 23.438 39.796C22.3179 39.9284 18.5179 40.1033 18.5179 40.1033" fill="white"/>
<path d="M26.6236 44.8722C26.597 44.877 26.5698 44.877 26.5432 44.8722L24.9505 44.253C23.3908 43.6528 21.642 43.7425 19.9972 43.8276C19.2174 43.8654 18.4139 43.908 17.634 43.8796C17.5772 43.8772 17.5236 43.8525 17.4847 43.811C17.4458 43.7695 17.4248 43.7143 17.4261 43.6575C17.4267 43.6287 17.4331 43.6004 17.4449 43.5741C17.4568 43.5479 17.4738 43.5244 17.495 43.5049C17.5162 43.4855 17.5411 43.4706 17.5683 43.461C17.5954 43.4515 17.6242 43.4476 17.6529 43.4495C18.4186 43.4779 19.2126 43.4495 19.983 43.3975C21.6987 43.3077 23.4664 43.2179 25.1112 43.8702L26.3069 44.3428C26.2103 44.2141 26.09 44.105 25.9525 44.0214C25.8485 43.9552 25.7445 43.9032 25.6358 43.8465C25.4049 43.74 25.1901 43.6016 24.9977 43.4353C24.9593 43.4008 24.9347 43.3535 24.9286 43.3021C24.9225 43.2508 24.9353 43.199 24.9646 43.1565C24.9943 43.1138 25.0379 43.0829 25.088 43.0691C25.1381 43.0552 25.1914 43.0594 25.2388 43.0809L26.5905 43.7331C26.6941 43.7821 26.8038 43.8171 26.9166 43.8371C26.4641 43.4122 25.9664 43.0382 25.4325 42.7217C25.3856 42.6923 25.3514 42.6464 25.3365 42.5931C25.3217 42.5397 25.3273 42.4828 25.3522 42.4333C25.3793 42.384 25.4242 42.3467 25.4777 42.3292C25.5312 42.3116 25.5894 42.3151 25.6405 42.3388C26.1193 42.5751 26.6136 42.7788 27.1199 42.9485C27.2698 43.0097 27.4305 43.0402 27.5925 43.0383C27.1283 42.7172 26.6206 42.4641 26.0848 42.2868C26.0541 42.2819 26.0248 42.2703 25.9989 42.2531C25.973 42.2358 25.9511 42.2132 25.9347 42.1867C25.9183 42.1603 25.9078 42.1306 25.9038 42.0997C25.8999 42.0689 25.9026 42.0375 25.9119 42.0078C25.9211 41.978 25.9366 41.9506 25.9573 41.9274C25.978 41.9042 26.0035 41.8857 26.032 41.8732C26.0605 41.8607 26.0913 41.8544 26.1225 41.8548C26.1536 41.8552 26.1843 41.8623 26.2124 41.8756L27.4838 42.2632C27.5984 42.3063 27.7207 42.3256 27.843 42.3199C27.9092 42.3199 27.9612 42.2537 27.9564 42.2301C27.9517 42.2065 27.9092 42.145 27.8146 42.0741C26.979 41.4334 26.0097 40.9891 24.9788 40.7744C24.9485 40.7682 24.9198 40.7558 24.8946 40.7379C24.8693 40.72 24.8481 40.697 24.8323 40.6704C24.8087 40.6129 24.8087 40.5483 24.8323 40.4908C25.0472 39.977 25.2057 39.4413 25.3049 38.8933L25.1348 39.054C24.7063 39.5503 24.1268 39.8923 23.4853 40.0276C22.3699 40.16 18.7022 40.3301 18.5462 40.3396C18.5176 40.3429 18.4886 40.3401 18.4612 40.3314C18.4337 40.3227 18.4084 40.3083 18.387 40.2891C18.3655 40.2699 18.3484 40.2463 18.3368 40.22C18.3251 40.1936 18.3192 40.1651 18.3194 40.1363C18.3181 40.1078 18.3225 40.0792 18.3322 40.0524C18.342 40.0255 18.357 40.0008 18.3763 39.9798C18.3956 39.9587 18.4189 39.9416 18.4448 39.9296C18.4707 39.9175 18.4988 39.9107 18.5273 39.9095C18.5651 39.9095 22.3084 39.7299 23.4333 39.6022C23.9863 39.4758 24.4836 39.1741 24.8512 38.7421C25.1112 38.4916 25.2482 38.345 25.4562 38.3592C25.4983 38.3616 25.5393 38.3734 25.5761 38.3939C25.6129 38.4143 25.6446 38.4429 25.6689 38.4774C25.7492 38.5766 25.9194 38.8035 25.3475 40.4057C26.3502 40.6525 27.2913 41.1029 28.1124 41.7291C28.1944 41.7814 28.2642 41.8506 28.3172 41.9321C28.3702 42.0137 28.4051 42.1056 28.4196 42.2018C28.4207 42.3344 28.3733 42.4629 28.2863 42.5631C28.1992 42.6632 28.0785 42.728 27.947 42.7453L28.1691 42.9154C28.1924 42.9326 28.2116 42.9545 28.2255 42.9798C28.2393 43.0051 28.2475 43.0332 28.2495 43.062C28.2526 43.0905 28.25 43.1195 28.2419 43.147C28.2338 43.1746 28.2203 43.2003 28.2022 43.2226C27.9753 43.4921 27.602 43.5488 27.0915 43.3928C27.2191 43.5062 27.342 43.6197 27.4649 43.7426C27.497 43.7759 27.5179 43.8184 27.5246 43.8641C27.5314 43.9099 27.5238 43.9566 27.5027 43.9978C27.4281 44.1162 27.3152 44.2056 27.1829 44.2511C27.0505 44.2967 26.9065 44.2957 26.7748 44.2483C26.8479 44.3946 26.8806 44.5578 26.8694 44.7209C26.867 44.755 26.8568 44.7881 26.8396 44.8176C26.8224 44.8471 26.7986 44.8722 26.7701 44.8911C26.7205 44.9002 26.6693 44.8936 26.6236 44.8722Z" fill="#231F20"/>
<path d="M9.07932 20.796C9.07932 20.796 -2.47665 43.1234 0.902703 44.2766C2.2828 44.7492 19.9972 45.6095 19.9972 45.6095L20.3612 39.5455L12.7186 38.5199L9.07932 20.796Z" fill="#DDDDDD"/>
<path d="M9.81658 38.4679C9.75972 38.4631 9.70703 38.4361 9.66989 38.3928C9.63276 38.3494 9.61414 38.2932 9.61807 38.2363L10.8989 23.5846C10.9049 23.5286 10.9324 23.4771 10.9756 23.4409C11.0188 23.4048 11.0743 23.3868 11.1305 23.3908C11.1589 23.3926 11.1866 23.4 11.2121 23.4127C11.2375 23.4254 11.2602 23.4431 11.2787 23.4646C11.2972 23.4862 11.3112 23.5113 11.3198 23.5384C11.3285 23.5655 11.3316 23.5941 11.329 23.6224L10.0482 38.2741C10.0422 38.3301 10.0147 38.3816 9.9715 38.4178C9.92831 38.4539 9.87276 38.4719 9.81658 38.4679V38.4679Z" fill="#231F20"/>
<path d="M17.8892 46.2239L6.30491 45.3731C6.24766 45.3683 6.19451 45.3415 6.15661 45.2983C6.11872 45.2551 6.09903 45.1989 6.10168 45.1415C6.10346 45.1132 6.11091 45.0854 6.12359 45.06C6.13628 45.0345 6.15394 45.0119 6.17553 44.9934C6.19713 44.9748 6.22221 44.9609 6.2493 44.9522C6.2764 44.9436 6.30495 44.9404 6.33327 44.943L17.9081 45.7891C17.9597 45.7967 18.0068 45.8226 18.0408 45.8621C18.0749 45.9016 18.0936 45.952 18.0936 46.0041C18.0936 46.0562 18.0749 46.1066 18.0408 46.1461C18.0068 46.1856 17.9597 46.2115 17.9081 46.2191L17.8892 46.2239Z" fill="#231F20"/>
<path d="M36.8326 41.592C36.7617 41.8047 36.6719 42.0127 36.6058 42.197C36.4784 42.6383 36.2484 43.0432 35.9346 43.3786C35.5463 43.7053 35.0688 43.9078 34.564 43.9599C34.0063 44.0545 33.4533 44.1537 32.9003 44.2577C32.6226 44.3443 32.3226 44.324 32.059 44.201C32.0066 44.1709 31.9677 44.1218 31.9503 44.0639C31.9501 44.0224 31.9599 43.9814 31.9788 43.9443C31.9977 43.9073 32.0252 43.8754 32.059 43.8512C32.6734 43.2935 33.6329 43.3502 34.3324 42.906C33.7579 43.0669 33.1591 43.1229 32.5647 43.0714C32.414 43.077 32.2642 43.0464 32.1277 42.9823C31.9912 42.9182 31.872 42.8223 31.7802 42.7027C32.5175 42.1828 33.5525 42.3719 34.3702 41.9938C33.6547 42.1301 32.9147 42.0461 32.2481 41.7527C32.1299 41.7007 32.0023 41.5589 32.0921 41.4739C32.1302 41.4453 32.1768 41.4303 32.2244 41.4313L34.8428 41.2706C34.3389 41.2667 33.8419 41.1522 33.3871 40.9351C33.1461 40.8169 32.9145 40.6326 32.8719 40.3679C32.8679 40.344 32.8688 40.3195 32.8745 40.296C32.8802 40.2724 32.8906 40.2503 32.905 40.2308C32.9362 40.2053 32.9732 40.1876 33.0127 40.1794C33.0522 40.1712 33.0931 40.1726 33.1319 40.1836C33.4627 40.2356 34.8381 40.4293 35.1973 40.4955C35.3474 40.5416 35.5052 40.5566 35.6613 40.5395C35.8173 40.5224 35.9682 40.4737 36.1048 40.3963C36.2308 40.2882 36.3323 40.1544 36.4025 40.004C36.5551 40.1207 36.6824 40.2671 36.7766 40.4345C36.8709 40.6019 36.9301 40.7866 36.9508 40.9776C36.948 41.1878 36.908 41.3958 36.8326 41.592V41.592Z" fill="white"/>
<path d="M32.4702 44.5082C32.2836 44.5143 32.0994 44.4649 31.9408 44.3664C31.8904 44.3366 31.8464 44.297 31.8115 44.2499C31.7766 44.2028 31.7515 44.1492 31.7376 44.0923C31.7303 44.0135 31.7429 43.9341 31.7743 43.8614C31.8057 43.7888 31.8548 43.7251 31.9172 43.6764C32.1087 43.5044 32.3318 43.3711 32.5741 43.2841H32.5458C32.3613 43.2905 32.1781 43.2506 32.013 43.168C31.8479 43.0855 31.7061 42.9629 31.6005 42.8115C31.5761 42.7656 31.5694 42.7124 31.5816 42.6619C31.5938 42.6114 31.6241 42.5671 31.6667 42.5373C31.974 42.3331 32.3226 42.1992 32.6876 42.1451C32.5113 42.097 32.3391 42.0354 32.1724 41.9607C32.0978 41.9286 32.0314 41.8801 31.9782 41.8187C31.925 41.7573 31.8864 41.6847 31.8652 41.6062C31.8557 41.556 31.859 41.5041 31.8747 41.4554C31.8904 41.4067 31.918 41.3627 31.955 41.3274C32.0288 41.261 32.1252 41.2255 32.2244 41.2281L33.3493 41.1572H33.3067C32.8341 40.9162 32.6876 40.6184 32.6687 40.4105C32.6579 40.3055 32.6884 40.2004 32.7537 40.1174C32.8097 40.0646 32.8776 40.0262 32.9518 40.0056C33.0259 39.9851 33.1039 39.9829 33.1791 39.9993L33.5241 40.0513C34.0629 40.1269 34.942 40.2592 35.254 40.3112C35.4979 40.388 35.762 40.3677 35.9913 40.2545C36.0889 40.1608 36.1689 40.0503 36.2276 39.9284C36.2427 39.9007 36.2636 39.8767 36.2889 39.8579C36.3142 39.8392 36.3433 39.8261 36.3741 39.8197C36.4057 39.8138 36.4382 39.815 36.4692 39.8232C36.5003 39.8313 36.5291 39.8463 36.5537 39.8669C36.7303 40.0032 36.8772 40.1741 36.9853 40.3691C37.0934 40.5642 37.1605 40.7793 37.1823 41.0013C37.1789 41.2342 37.1341 41.4646 37.05 41.6819C37.0075 41.8048 36.9602 41.9276 36.9177 42.0458L36.8231 42.2868C36.6864 42.7606 36.4385 43.1949 36.1 43.5535C35.6787 43.9103 35.1601 44.1326 34.6112 44.1916C34.0566 44.2861 33.5037 44.3854 32.9522 44.4893C32.7925 44.5104 32.6311 44.5167 32.4702 44.5082V44.5082ZM32.1913 44.0072C32.4068 44.084 32.6422 44.084 32.8577 44.0072C33.4154 43.9033 33.9684 43.804 34.5261 43.7095C34.9893 43.6627 35.4283 43.4802 35.7881 43.1849C36.0741 42.8694 36.2843 42.4927 36.4025 42.0836C36.4308 42.0017 36.4639 41.9166 36.5017 41.8284L36.6294 41.4881C36.6934 41.3169 36.7301 41.1366 36.7381 40.954C36.7137 40.7161 36.6106 40.4932 36.445 40.3207C36.3872 40.4047 36.3171 40.4796 36.2371 40.5428C36.0768 40.6392 35.8982 40.7012 35.7127 40.7248C35.5272 40.7484 35.3388 40.7331 35.1595 40.6799C34.8806 40.6279 33.9826 40.4956 33.4485 40.4199L33.1035 40.3727C33.182 40.5298 33.3171 40.6514 33.4816 40.713C33.9083 40.9177 34.3743 41.0273 34.8475 41.0344C34.8991 41.042 34.9462 41.0679 34.9802 41.1074C35.0142 41.1469 35.033 41.1973 35.033 41.2494C35.033 41.3015 35.0142 41.3519 34.9802 41.3914C34.9462 41.4309 34.8991 41.4568 34.8475 41.4645L32.4843 41.6062C33.0642 41.8211 33.6918 41.8734 34.2993 41.7575C34.3532 41.7406 34.4116 41.7457 34.4617 41.7719C34.5117 41.798 34.5494 41.843 34.5663 41.8969C34.5832 41.9508 34.578 42.0092 34.5519 42.0593C34.5257 42.1094 34.4808 42.147 34.4269 42.164C34.0341 42.3229 33.62 42.4232 33.198 42.4617C32.8204 42.4952 32.4495 42.5827 32.0968 42.7217C32.2451 42.7902 32.406 42.8272 32.5694 42.8304C33.1382 42.8828 33.7118 42.83 34.2614 42.6744C34.311 42.663 34.3629 42.6693 34.4083 42.6922C34.4536 42.7151 34.4895 42.7531 34.5098 42.7997C34.53 42.8464 34.5332 42.8986 34.519 42.9474C34.5047 42.9961 34.4738 43.0383 34.4316 43.0667C34.0899 43.2568 33.722 43.3954 33.3398 43.4779C32.9224 43.5506 32.5285 43.7224 32.1913 43.9789V44.0072Z" fill="#231F20"/>
<path d="M20.3612 39.7771L8.54528 38.4679C8.51687 38.4656 8.48921 38.4575 8.46397 38.4443C8.43872 38.431 8.4164 38.4129 8.39832 38.3908C8.38024 38.3688 8.36678 38.3433 8.35874 38.316C8.3507 38.2886 8.34823 38.2599 8.3515 38.2316C8.35862 38.1743 8.38776 38.122 8.43276 38.0859C8.47775 38.0497 8.53506 38.0325 8.59254 38.0378L20.4085 39.347C20.46 39.3547 20.5071 39.3806 20.5411 39.4201C20.5752 39.4596 20.5939 39.5099 20.5939 39.5621C20.5939 39.6142 20.5752 39.6646 20.5411 39.704C20.5071 39.7435 20.46 39.7694 20.4085 39.7771H20.3612Z" fill="#231F20"/>
<path d="M21.2686 14.4485C21.1946 14.4532 21.1204 14.4532 21.0464 14.4485C19.8318 14.3115 18.9858 13.0637 18.9527 13.007C18.922 12.9612 18.9108 12.9052 18.9214 12.8511C18.932 12.797 18.9637 12.7494 19.0094 12.7187C19.0562 12.6889 19.1127 12.6783 19.1672 12.6888C19.2217 12.6994 19.27 12.7303 19.3024 12.7754C19.3024 12.7754 20.0728 13.9192 21.0984 14.0326C21.368 14.0509 21.6382 14.0086 21.8893 13.9088C22.1404 13.809 22.3659 13.6543 22.5494 13.456C22.5688 13.4348 22.5923 13.4178 22.6185 13.4061C22.6447 13.3944 22.673 13.3883 22.7017 13.3881C22.7304 13.3879 22.7588 13.3936 22.7852 13.4049C22.8115 13.4162 22.8353 13.4329 22.8549 13.4538C22.8745 13.4747 22.8896 13.4995 22.8992 13.5265C22.9088 13.5536 22.9126 13.5823 22.9106 13.6109C22.9085 13.6395 22.9006 13.6674 22.8872 13.6928C22.8739 13.7182 22.8554 13.7406 22.833 13.7585C22.4218 14.1841 21.8602 14.4318 21.2686 14.4485V14.4485Z" fill="#231F20"/>
<path d="M122.437 87.4378L121.184 93.3694C121.184 93.3694 113.078 93.8042 113.362 93.0527C113.972 91.4458 116.325 90.6896 116.325 90.6896L117.271 85.1597" fill="white"/>
<path d="M116.878 93.7239C115.073 93.7239 113.442 93.6246 113.187 93.2512C113.152 93.206 113.13 93.1526 113.123 93.0962C113.115 93.0398 113.123 92.9825 113.144 92.9298C113.702 91.4505 115.583 90.6706 116.117 90.4769L117.02 85.0841C117.03 85.0214 117.065 84.9653 117.116 84.9281C117.167 84.8908 117.232 84.8755 117.294 84.8856C117.357 84.8956 117.413 84.9301 117.45 84.9815C117.487 85.0329 117.503 85.097 117.493 85.1597L116.547 90.6896C116.541 90.7329 116.522 90.7735 116.494 90.8069C116.465 90.8402 116.428 90.8651 116.387 90.8786C116.387 90.8786 114.232 91.5876 113.617 93.0007C114.227 93.2749 117.729 93.2749 120.981 93.1047L122.195 87.3527C122.21 87.2916 122.248 87.2383 122.3 87.204C122.353 87.1697 122.417 87.157 122.479 87.1684C122.51 87.1751 122.538 87.1878 122.564 87.2057C122.589 87.2236 122.611 87.2464 122.628 87.2728C122.645 87.2991 122.656 87.3285 122.661 87.3593C122.666 87.3901 122.666 87.4216 122.659 87.452L121.406 93.3789C121.397 93.4303 121.37 93.477 121.33 93.5113C121.291 93.5456 121.241 93.5656 121.189 93.5679C120.154 93.6483 118.447 93.7239 116.878 93.7239Z" fill="#231F20"/>
<path d="M140.562 86.0199L140.605 92.5234C140.605 92.5234 134.527 95.5814 133.298 94.3572C133.392 92.495 135.481 90.9732 135.481 90.9732L134.498 85.4055" fill="white"/>
<path d="M134.267 94.8582C133.857 94.8952 133.448 94.7715 133.128 94.5132C133.104 94.4897 133.086 94.4615 133.075 94.4306C133.064 94.3996 133.059 94.3665 133.061 94.3336C133.151 92.6179 134.763 91.2237 135.226 90.8597L134.281 85.4338C134.275 85.4034 134.275 85.372 134.281 85.3416C134.287 85.3111 134.3 85.2823 134.317 85.2567C134.335 85.2311 134.357 85.2093 134.384 85.1927C134.41 85.176 134.439 85.1648 134.47 85.1597C134.531 85.1487 134.595 85.1623 134.646 85.1978C134.697 85.2332 134.733 85.2875 134.744 85.3488L135.727 90.9164C135.736 90.9596 135.732 91.0043 135.716 91.0453C135.7 91.0863 135.673 91.1219 135.637 91.148C135.614 91.148 133.723 92.5659 133.553 94.2391C134.498 94.8771 138.142 93.4734 140.383 92.3485L140.326 86.0199C140.326 85.9572 140.351 85.8971 140.395 85.8528C140.439 85.8085 140.499 85.7836 140.562 85.7836C140.593 85.783 140.624 85.7885 140.652 85.7999C140.681 85.8112 140.707 85.8282 140.729 85.8497C140.751 85.8713 140.768 85.897 140.78 85.9255C140.792 85.9539 140.798 85.9844 140.798 86.0152L140.841 92.5187C140.841 92.563 140.829 92.6064 140.805 92.644C140.782 92.6816 140.748 92.7119 140.709 92.7314C140.193 92.9819 136.384 94.8582 134.267 94.8582Z" fill="#231F20"/>
<path d="M121.713 43.9552L116.042 87.6316L123.741 87.9482L130.301 55.8846C130.301 55.8846 133.421 88.4303 133.884 88.2696C134.347 88.1089 141.881 87.8584 141.881 87.8584L139.518 43.4826L121.713 43.9552Z" fill="#231F20"/>
<path d="M133.874 88.4965C133.825 88.497 133.776 88.484 133.733 88.4587C133.26 88.1562 131.582 71.7983 130.202 57.4632L123.954 87.9908C123.944 88.0454 123.914 88.0946 123.871 88.1293C123.827 88.164 123.773 88.1819 123.717 88.1799L116.018 87.8632C115.985 87.8616 115.953 87.8532 115.924 87.8385C115.895 87.8239 115.869 87.8033 115.848 87.7781C115.827 87.7536 115.812 87.7249 115.803 87.6939C115.794 87.6629 115.791 87.6304 115.796 87.5985L121.468 43.9174C121.475 43.8618 121.501 43.8106 121.543 43.7733C121.585 43.7359 121.639 43.7149 121.695 43.7142L139.503 43.2415C139.534 43.2389 139.565 43.2427 139.594 43.2527C139.623 43.2627 139.65 43.2786 139.673 43.2995C139.696 43.3204 139.714 43.3458 139.726 43.3741C139.738 43.4023 139.745 43.4329 139.745 43.4637L142.108 87.8443C142.109 87.8753 142.105 87.9064 142.094 87.9356C142.084 87.9648 142.067 87.9916 142.046 88.0144C142.025 88.0378 142 88.0565 141.971 88.0695C141.943 88.0826 141.912 88.0895 141.881 88.0901C139.012 88.1846 134.319 88.3736 133.955 88.4871L133.874 88.4965ZM130.287 55.6435C130.343 55.6468 130.396 55.6701 130.436 55.7092C130.476 55.7483 130.5 55.8005 130.504 55.8562C131.672 67.9888 133.52 86.1381 133.997 87.9955C135.151 87.8443 140.071 87.6741 141.607 87.6221L139.286 43.7142L121.907 44.1868L116.283 87.4095L123.524 87.7072L130.041 55.8373C130.052 55.7806 130.082 55.7296 130.127 55.6939C130.173 55.6582 130.23 55.6403 130.287 55.6435Z" fill="#231F20"/>
<path d="M141.422 28.8308L146.12 27.1577C145.912 26.8505 143.459 20.0303 140.756 18.6928C138.393 17.1236 134.002 17.4167 129.044 17.7475C127.454 17.8192 125.885 18.1381 124.393 18.6928C118.802 20.9142 118.003 28.2778 118.003 28.2778L123.145 30.0502C123.145 30.0502 121.085 39.5644 120.31 44.7965C120.31 44.7965 127.976 49.0833 142.023 46.7532C142.013 46.791 141.446 30.2866 141.422 28.8308Z" fill="#DDDDDD"/>
<path d="M129.006 20.7251L127.045 48.4925L133.907 49.5938L135.018 20.1816L129.006 20.7251Z" fill="#231F20"/>
<path d="M133.907 49.8301H133.87L127.007 48.7288C126.948 48.7206 126.894 48.69 126.857 48.6433C126.821 48.5967 126.803 48.5376 126.808 48.4783L128.77 20.7157C128.774 20.6597 128.797 20.6068 128.836 20.5663C128.875 20.5257 128.927 20.5 128.982 20.4935L134.994 19.9547C135.028 19.9496 135.062 19.9525 135.094 19.9632C135.126 19.9738 135.155 19.992 135.179 20.0162C135.203 20.0392 135.223 20.067 135.236 20.098C135.249 20.1289 135.255 20.1622 135.254 20.1958L134.139 49.6268C134.138 49.6604 134.13 49.6934 134.116 49.7236C134.101 49.7538 134.08 49.7805 134.054 49.8017C134.009 49.8264 133.958 49.8364 133.907 49.8301V49.8301ZM127.29 48.294L133.68 49.3196L134.772 20.4415L129.224 20.9425L127.29 48.294Z" fill="#231F20"/>
<path d="M130.372 23.6035L131.199 24.1707L129.729 35.6179L131.474 37.1256L133.317 34.961L132.05 24.2605L133.071 23.7264L131.71 22.3794L130.372 23.6035Z" fill="white"/>
<path d="M131.473 37.3619C131.416 37.3625 131.361 37.3424 131.317 37.3052L129.573 35.7928C129.544 35.7675 129.522 35.7351 129.509 35.6987C129.495 35.6622 129.492 35.6231 129.498 35.5848L130.944 24.2841L130.24 23.8114C130.21 23.7915 130.186 23.7652 130.168 23.7345C130.15 23.7037 130.14 23.6694 130.137 23.6339C130.134 23.5985 130.139 23.5629 130.152 23.5298C130.165 23.4967 130.185 23.467 130.211 23.4428L131.549 22.2139C131.594 22.1731 131.652 22.1504 131.712 22.1504C131.772 22.1504 131.831 22.1731 131.875 22.2139L133.236 23.5609C133.262 23.5876 133.281 23.6197 133.292 23.6549C133.304 23.6901 133.307 23.7274 133.301 23.764C133.296 23.8005 133.282 23.8353 133.261 23.8657C133.24 23.896 133.212 23.9211 133.18 23.9391L132.305 24.4117L133.548 34.9515C133.553 34.9841 133.551 35.0174 133.542 35.0492C133.533 35.0809 133.517 35.1104 133.496 35.1358L131.653 37.3005C131.611 37.3481 131.551 37.377 131.488 37.3808L131.473 37.3619ZM129.98 35.5187L131.445 36.7948L133.071 34.9042L131.814 24.3077C131.808 24.2599 131.817 24.2115 131.84 24.1692C131.863 24.1268 131.898 24.0926 131.941 24.0714L132.674 23.6886L131.7 22.7433L130.755 23.6177L131.336 24.0147C131.373 24.038 131.401 24.0715 131.419 24.1109C131.437 24.1504 131.442 24.1941 131.436 24.2368L129.98 35.5187Z" fill="#231F20"/>
<path d="M135.803 13.1062C136.362 11.7679 136.697 10.3468 136.795 8.89975C136.946 6.53657 135.018 6.00249 135.018 6.00249C135.018 6.00249 134.947 4.32463 132.697 3.67239C130.448 3.02015 127.451 3.40298 126.345 4.85871C123.925 8.049 127.423 8.87139 127.423 8.87139C127.423 8.87139 126.326 12.3878 128.288 13.5269C130.249 14.6659 135.803 13.1062 135.803 13.1062Z" fill="white"/>
<path d="M130.476 14.1791C129.682 14.224 128.89 14.0714 128.17 13.7348C126.35 12.6808 126.917 9.86864 127.135 9.0368C126.748 8.92908 126.39 8.73838 126.084 8.47799C125.779 8.2176 125.534 7.89378 125.367 7.52909C125.079 6.73506 125.367 5.78979 126.156 4.72163C127.38 3.10521 130.542 2.80272 132.773 3.45024C134.768 4.02685 135.165 5.36442 135.245 5.81342C135.843 6.05742 136.344 6.4925 136.669 7.05079C136.993 7.60908 137.124 8.2592 137.041 8.89974C136.944 10.3764 136.602 11.8266 136.03 13.1913C136.016 13.2231 135.995 13.2515 135.969 13.2743C135.943 13.2972 135.912 13.314 135.878 13.3236C134.116 13.8126 132.303 14.0996 130.476 14.1791ZM130.448 3.60148C128.85 3.60148 127.267 4.04576 126.544 5.01939C125.821 5.99302 125.598 6.74452 125.821 7.38257C126.161 8.32785 127.475 8.65869 127.489 8.66342C127.521 8.67116 127.55 8.6852 127.576 8.70469C127.602 8.72418 127.624 8.74873 127.64 8.77685C127.653 8.80587 127.66 8.83726 127.66 8.86902C127.66 8.90077 127.653 8.93217 127.64 8.96118C127.64 8.99426 126.624 12.3122 128.397 13.3378C130.169 14.3634 134.843 13.1346 135.623 12.9266C136.145 11.643 136.464 10.2861 136.568 8.90446C136.705 6.76342 135.037 6.26715 134.966 6.24825C134.918 6.23461 134.875 6.20636 134.844 6.16741C134.813 6.12846 134.794 6.08073 134.791 6.03083C134.791 5.96939 134.687 4.51367 132.641 3.91815C131.928 3.71182 131.19 3.60525 130.448 3.60148V3.60148Z" fill="#231F20"/>
<path d="M129.502 17.0149L129.03 20.7251C129.03 20.7251 130.334 22.9843 132.74 22.2234C135.146 21.4624 135.425 19.5719 135.425 19.5719L135.358 12.3642C135.358 12.3642 133.468 11.5229 133.737 7.54802C131.798 8.54787 129.624 9.00511 127.446 8.8714C127.446 8.8714 126.633 13.2197 127.064 15.0913C127.494 16.9629 129.502 17.0149 129.502 17.0149Z" fill="white"/>
<path d="M131.752 22.6157C129.862 22.6157 128.812 20.8669 128.798 20.8433C128.775 20.7965 128.765 20.7441 128.77 20.6921L129.243 17.204C128.67 17.1554 128.128 16.9286 127.691 16.5556C127.254 16.1826 126.946 15.682 126.808 15.1244C126.374 13.2338 127.158 8.98011 127.191 8.80996C127.201 8.75277 127.231 8.70115 127.276 8.66528C127.322 8.6294 127.379 8.61189 127.437 8.61618C129.564 8.74149 131.685 8.29601 133.581 7.32588C133.618 7.30376 133.659 7.29205 133.702 7.29205C133.744 7.29205 133.786 7.30376 133.822 7.32588C133.859 7.34751 133.889 7.37879 133.909 7.41631C133.929 7.45382 133.938 7.49612 133.936 7.53857C133.695 11.2724 135.401 12.1137 135.42 12.1231C135.46 12.1424 135.494 12.1725 135.519 12.2101C135.543 12.2476 135.556 12.2912 135.557 12.3358L135.647 19.5672C135.647 19.6901 135.311 21.6515 132.811 22.4503C132.469 22.5616 132.112 22.6174 131.752 22.6157V22.6157ZM129.252 20.6731C129.484 21.0324 130.67 22.6299 132.646 22.0013C134.867 21.297 135.155 19.605 135.169 19.5341L135.098 12.5013C134.664 12.2224 133.364 11.1306 133.458 7.94976C131.63 8.79871 129.626 9.19894 127.612 9.11718C127.461 9.99156 126.898 13.4607 127.257 15.0393C127.64 16.703 129.432 16.755 129.507 16.7597C129.541 16.7591 129.574 16.7661 129.604 16.78C129.634 16.7939 129.661 16.8144 129.682 16.8401C129.705 16.8645 129.722 16.8938 129.731 16.9257C129.741 16.9577 129.744 16.9914 129.739 17.0244L129.252 20.6731Z" fill="#231F20"/>
<path d="M134.148 14.1508C134.638 14.324 135.176 14.2985 135.647 14.0799C135.966 13.9143 136.237 13.6697 136.435 13.3693C136.633 13.0689 136.75 12.7229 136.776 12.3642C136.817 12.1002 136.798 11.8304 136.72 11.5749C136.679 11.4474 136.611 11.3301 136.522 11.2307C136.432 11.1313 136.322 11.0521 136.2 10.9983C135.886 10.9178 135.554 10.941 135.254 11.0644C134.782 11.1968 134.749 11.4331 134.441 11.7403C134.475 11.7119 134.512 11.6269 134.541 11.5985" fill="white"/>
<path d="M134.81 14.5005C134.558 14.5004 134.307 14.4572 134.068 14.3729C134.038 14.363 134.011 14.3472 133.987 14.3264C133.963 14.3056 133.944 14.2802 133.93 14.2518C133.916 14.2234 133.908 14.1925 133.906 14.1609C133.905 14.1294 133.909 14.0978 133.92 14.0681C133.931 14.0384 133.947 14.0111 133.969 13.9879C133.99 13.9647 134.016 13.9461 134.045 13.9331C134.074 13.9201 134.105 13.913 134.137 13.9122C134.168 13.9115 134.2 13.917 134.229 13.9286C134.658 14.0789 135.129 14.0569 135.543 13.8672C135.826 13.7176 136.066 13.4986 136.242 13.2308C136.417 12.963 136.521 12.655 136.545 12.3358C136.577 12.1066 136.561 11.8731 136.498 11.6505C136.466 11.5565 136.416 11.4699 136.351 11.396C136.285 11.322 136.204 11.2623 136.115 11.2204C135.851 11.1597 135.574 11.1845 135.325 11.2913C135.13 11.3444 134.961 11.4693 134.853 11.641C134.783 11.7284 134.709 11.812 134.631 11.8915L134.602 11.9199C134.555 11.9576 134.496 11.976 134.436 11.9712C134.376 11.9664 134.32 11.9389 134.279 11.8943C134.239 11.8496 134.217 11.7912 134.218 11.7309C134.219 11.6707 134.243 11.6132 134.286 11.5701V11.5701C134.309 11.5157 134.345 11.4673 134.39 11.4284C134.404 11.4162 134.42 11.4066 134.437 11.4L134.475 11.3575C134.642 11.1089 134.894 10.9293 135.184 10.8517C135.531 10.7104 135.916 10.6904 136.275 10.795C136.429 10.8605 136.568 10.958 136.681 11.081C136.794 11.2041 136.88 11.3499 136.932 11.5087C137.026 11.7985 137.05 12.1059 137.003 12.4067C136.971 12.8038 136.838 13.1862 136.617 13.5171C136.395 13.8481 136.092 14.1167 135.737 14.2973C135.446 14.431 135.13 14.5004 134.81 14.5005Z" fill="#231F20"/>
<path d="M129.247 18.9574C129.674 19.0103 130.107 18.9583 130.509 18.8059C130.911 18.6536 131.269 18.4054 131.554 18.0831C132.556 16.9724 132.414 16.1075 132.414 16.1075C131.597 16.7737 130.554 17.0988 129.503 17.0149L129.247 18.9574Z" fill="#231F20"/>
<path d="M129.564 19.2127C129.444 19.2124 129.324 19.2045 129.205 19.1891C129.145 19.1724 129.094 19.134 129.062 19.0814C129.03 19.0289 129.018 18.9661 129.03 18.9055L129.299 16.944C129.309 16.8826 129.341 16.8271 129.391 16.7892C129.44 16.7514 129.502 16.734 129.564 16.7408C130.541 16.8213 131.513 16.5235 132.277 15.909C132.309 15.8819 132.348 15.8636 132.389 15.8562C132.431 15.8487 132.474 15.8523 132.513 15.8664C132.552 15.8806 132.586 15.9046 132.613 15.9361C132.639 15.9676 132.657 16.0055 132.665 16.046C132.665 16.0886 132.816 17.0386 131.748 18.2249C131.475 18.536 131.14 18.7852 130.763 18.9556C130.386 19.126 129.977 19.2137 129.564 19.2127V19.2127ZM129.512 18.7401C129.868 18.7503 130.221 18.6823 130.548 18.5411C130.875 18.3998 131.166 18.1886 131.403 17.9224C131.764 17.5471 132.026 17.0872 132.164 16.5848C131.442 17.049 130.596 17.28 129.739 17.2465L129.512 18.7401Z" fill="#231F20"/>
<path d="M130.377 11.0786C130.377 11.0786 129.157 13.0353 129.474 13.3614C129.791 13.6876 130.637 13.4323 130.637 13.4323" fill="white"/>
<path d="M130.018 13.7632C129.89 13.774 129.761 13.7587 129.639 13.718C129.517 13.6774 129.405 13.6124 129.309 13.5269C129.011 13.2244 129.309 12.3594 130.178 10.9557C130.194 10.9289 130.216 10.9055 130.241 10.887C130.266 10.8684 130.294 10.855 130.325 10.8475C130.355 10.84 130.387 10.8387 130.417 10.8434C130.448 10.8482 130.478 10.8591 130.505 10.8754C130.557 10.9093 130.594 10.9623 130.608 11.0231C130.622 11.084 130.612 11.1479 130.58 11.2015C130.032 12.0806 129.602 13.0259 129.663 13.2196C129.725 13.4134 130.282 13.2905 130.571 13.2196C130.631 13.2034 130.695 13.211 130.75 13.241C130.804 13.2709 130.845 13.3209 130.864 13.3803C130.873 13.4101 130.876 13.4415 130.873 13.4725C130.87 13.5036 130.861 13.5337 130.846 13.5611C130.831 13.5885 130.811 13.6125 130.786 13.6318C130.761 13.6511 130.733 13.6652 130.703 13.6734C130.48 13.7347 130.249 13.7649 130.018 13.7632Z" fill="#231F20"/>
<path d="M131.968 11.3413C132.142 11.3205 132.258 11.1041 132.229 10.8578C132.2 10.6116 132.035 10.4288 131.861 10.4496C131.688 10.4704 131.571 10.6868 131.6 10.933C131.63 11.1793 131.794 11.362 131.968 11.3413Z" fill="#231F20"/>
<path d="M129.228 11.0684C129.272 10.8244 129.169 10.6012 128.997 10.5699C128.825 10.5386 128.649 10.711 128.605 10.955C128.56 11.199 128.664 11.4221 128.836 11.4534C129.008 11.4848 129.184 11.3123 129.228 11.0684Z" fill="#231F20"/>
<path d="M129.904 16.3674C129.738 16.373 129.572 16.3449 129.417 16.2848C129.262 16.2247 129.121 16.1338 129.002 16.0177C128.382 15.3513 128.553 14.1933 128.562 14.1271C128.572 14.0732 128.599 14.0241 128.641 13.988C128.682 13.952 128.734 13.931 128.789 13.9286C131.738 13.8625 131.752 13.8814 131.847 13.9806C131.891 14.0335 131.913 14.1011 131.908 14.1697C131.862 14.6299 131.71 15.0732 131.464 15.4647C131.309 15.7091 131.102 15.9156 130.856 16.0686C130.611 16.2216 130.334 16.3173 130.046 16.3485L129.904 16.3674ZM129.03 14.4107C128.978 14.8639 129.095 15.3204 129.361 15.6916C129.449 15.7703 129.554 15.8288 129.667 15.8631C129.781 15.8973 129.9 15.9066 130.018 15.8901C130.236 15.8646 130.445 15.7907 130.631 15.6738C130.817 15.5568 130.974 15.3998 131.091 15.2142C131.253 14.9591 131.363 14.675 131.417 14.3776C130.921 14.3776 129.824 14.3965 129.03 14.4107Z" fill="#231F20"/>
<path d="M131.265 15.3465C130.66 16.2587 129.583 16.2918 129.172 15.857C129.246 15.6693 129.362 15.501 129.511 15.365C129.66 15.229 129.838 15.1289 130.032 15.0724C130.462 15.0172 130.899 15.1142 131.265 15.3465Z" fill="#231F20"/>
<path d="M129.904 16.3627C129.738 16.3692 129.573 16.342 129.418 16.2827C129.262 16.2234 129.121 16.1332 129.002 16.0177C128.968 15.9821 128.947 15.9372 128.94 15.889C128.933 15.8407 128.942 15.7916 128.964 15.7483C129.049 15.528 129.185 15.331 129.361 15.1733C129.536 15.0156 129.747 14.9017 129.975 14.8408C130.469 14.7708 130.971 14.878 131.393 15.1433C131.42 15.1602 131.444 15.1823 131.463 15.2084C131.481 15.2345 131.494 15.264 131.501 15.2952C131.508 15.3265 131.509 15.3588 131.504 15.3903C131.498 15.4219 131.486 15.452 131.469 15.4789C131.314 15.7227 131.106 15.9284 130.86 16.0806C130.615 16.2328 130.338 16.3276 130.051 16.358L129.904 16.3627ZM129.479 15.7955C129.639 15.8777 129.82 15.9105 129.999 15.8901C130.35 15.8537 130.675 15.6847 130.906 15.4174C130.647 15.2969 130.358 15.2542 130.074 15.2945C129.95 15.3354 129.836 15.4008 129.738 15.4869C129.639 15.573 129.559 15.6779 129.503 15.7955H129.479Z" fill="#231F20"/>
<path d="M124.776 21.6562C124.776 21.8831 123.16 30.0692 123.16 30.0692Z" fill="#231F20"/>
<path d="M123.145 30.3055H123.098C123.037 30.2919 122.984 30.2552 122.95 30.2032C122.916 30.1512 122.903 30.0879 122.914 30.0266C123.557 26.8363 124.511 21.9918 124.526 21.661C124.522 21.631 124.525 21.6007 124.534 21.5719C124.543 21.5432 124.557 21.5164 124.577 21.4935C124.596 21.4705 124.62 21.4517 124.647 21.4382C124.674 21.4248 124.703 21.4169 124.734 21.4152C124.797 21.4099 124.86 21.4298 124.908 21.4705C124.957 21.5112 124.988 21.5694 124.994 21.6326C125.022 21.8642 123.992 27.049 123.377 30.1401C123.362 30.1891 123.331 30.2317 123.289 30.2615C123.247 30.2914 123.197 30.3068 123.145 30.3055V30.3055Z" fill="#231F20"/>
<path d="M118.003 28.2968C118.003 28.3298 116.935 33.5903 116.935 33.5903L108.12 27.654C107.251 25.8958 107.123 25.0403 106.528 25.1348C105.819 25.2435 106.258 26.6709 106.32 26.9214C105.847 26.5055 104.221 24.492 103.64 24.8134C103.354 24.9502 103.102 25.1482 102.901 25.3936C102.701 25.6389 102.557 25.9255 102.479 26.2328C102.402 26.5402 102.394 26.8608 102.455 27.1718C102.516 27.4828 102.644 27.7765 102.832 28.0321C103.257 28.552 106.065 30.7497 106.065 30.7497C106.065 30.7497 115.012 40.6231 119.771 42.5657C121.104 43.1092 123.136 30.0502 123.136 30.0502L118.003 28.2968Z" fill="white"/>
<path d="M119.865 42.8351C119.806 42.8352 119.746 42.824 119.691 42.802C115.011 40.8831 106.485 31.5769 105.904 30.9246C105.663 30.7356 103.068 28.7032 102.647 28.1833C102.447 27.9305 102.304 27.6374 102.228 27.3241C102.153 27.0108 102.145 26.6847 102.208 26.3684C102.282 25.9955 102.44 25.644 102.668 25.3398C102.896 25.0355 103.189 24.7863 103.526 24.6102C104.075 24.303 104.897 25.0828 105.918 26.1699C105.847 25.8377 105.89 25.4913 106.041 25.1868C106.09 25.109 106.156 25.0429 106.233 24.9931C106.311 24.9433 106.398 24.911 106.49 24.8985C107.1 24.804 107.336 25.3381 107.756 26.3164C107.903 26.6473 108.078 27.0443 108.305 27.5075L116.774 33.2122L117.772 28.2637C117.778 28.2305 117.792 28.1991 117.812 28.1715C117.831 28.1438 117.856 28.1205 117.885 28.103C117.915 28.089 117.949 28.0817 117.982 28.0817C118.015 28.0817 118.048 28.089 118.079 28.103L123.221 29.8754C123.273 29.8935 123.318 29.9295 123.346 29.977C123.375 30.0246 123.386 30.0806 123.377 30.1353C123.07 32.1157 121.487 42.0316 120.111 42.7973C120.033 42.829 119.949 42.842 119.865 42.8351V42.8351ZM103.796 25.0072C103.777 25.0024 103.758 25.0024 103.739 25.0072C103.465 25.1493 103.226 25.35 103.039 25.5951C102.852 25.8402 102.722 26.1237 102.657 26.4251C102.609 26.6721 102.615 26.9263 102.674 27.1708C102.733 27.4153 102.843 27.6445 102.997 27.843C103.337 28.2495 105.422 29.9132 106.192 30.5182C106.31 30.6458 115.172 40.4057 119.856 42.3341C120.56 42.197 121.959 35.9677 122.867 30.2015L118.159 28.6087L117.148 33.6376C117.141 33.6757 117.124 33.7113 117.099 33.7411C117.074 33.7709 117.042 33.7938 117.006 33.8077C116.972 33.8272 116.934 33.8375 116.895 33.8375C116.856 33.8375 116.818 33.8272 116.784 33.8077L107.969 27.8714C107.935 27.8486 107.908 27.8177 107.889 27.7816C107.643 27.309 107.459 26.8647 107.307 26.5149C106.92 25.6358 106.769 25.3522 106.542 25.39C106.517 25.3929 106.493 25.4011 106.472 25.4142C106.451 25.4273 106.433 25.4448 106.419 25.4657C106.334 25.6027 106.277 25.9383 106.513 26.8221V26.8836C106.528 26.9333 106.527 26.9867 106.508 27.0353C106.49 27.0839 106.456 27.1252 106.412 27.1526C106.368 27.1801 106.316 27.1922 106.264 27.1872C106.212 27.1821 106.164 27.1601 106.126 27.1246C106.008 27.0159 105.838 26.8363 105.62 26.6047C104.675 25.5224 104.056 25.0072 103.81 25.0072H103.796Z" fill="#231F20"/>
<path d="M139.934 28.9726L140.302 35.1169L130.249 37.8109C129.28 37.0878 127.168 35.6037 127.106 36.2938C127.026 37.1965 127.929 38.1843 127.929 38.1843C127.929 38.1843 123.349 37.2863 123.145 38.1843C122.942 39.0823 123.576 39.9 123.954 40.6373C124.332 41.3746 131.743 41.7433 131.743 41.7433C134.668 41.9796 143.152 42.5657 145.775 41.6582C148.961 40.5522 145.733 27.153 145.733 27.153" fill="white"/>
<path d="M140.444 42.3672C137.277 42.3672 133.69 42.1167 131.724 41.9607C129.46 41.8473 124.138 41.4881 123.741 40.7224C123.67 40.5853 123.59 40.4388 123.505 40.2923C123.141 39.6495 122.73 38.9264 122.914 38.1134C123.117 37.2249 125.75 37.5415 127.371 37.8204C127.041 37.3694 126.865 36.8241 126.87 36.2654C126.874 36.1899 126.898 36.1168 126.941 36.0543C126.983 35.9917 127.042 35.9421 127.111 35.9109C127.281 35.8353 127.725 35.6368 130.301 37.5415L140.052 34.9751L139.697 28.9963C139.695 28.9652 139.7 28.9341 139.71 28.9047C139.72 28.8753 139.736 28.8482 139.756 28.8249C139.777 28.8016 139.802 28.7826 139.83 28.7691C139.858 28.7555 139.888 28.7476 139.919 28.7458C139.982 28.7443 140.042 28.7664 140.088 28.8076C140.135 28.8488 140.164 28.9061 140.17 28.9679L140.539 35.1122C140.542 35.1669 140.526 35.2211 140.494 35.2658C140.463 35.3105 140.416 35.343 140.364 35.358L130.311 38.0142C130.276 38.0233 130.24 38.0247 130.205 38.0182C130.17 38.0116 130.136 37.9973 130.107 37.9764C128.359 36.6719 127.56 36.3316 127.338 36.3269C127.3 37.1067 128.099 37.9811 128.104 37.9905C128.138 38.0266 128.159 38.0728 128.165 38.1221C128.171 38.1715 128.161 38.2215 128.137 38.2647C128.113 38.3082 128.075 38.3431 128.03 38.3643C127.985 38.3855 127.935 38.392 127.886 38.3828C125.395 37.9102 123.448 37.8866 123.377 38.2032C123.231 38.8366 123.58 39.451 123.916 40.0465C124.006 40.1978 124.091 40.349 124.162 40.5191C124.478 40.9067 128.274 41.3226 131.752 41.4975C134.371 41.7102 143.096 42.3246 145.7 41.4219C148.143 40.5759 146.385 30.8679 145.506 27.2002C145.498 27.1704 145.496 27.1394 145.501 27.1089C145.505 27.0784 145.516 27.0491 145.532 27.0227C145.547 26.9963 145.568 26.9733 145.593 26.9551C145.618 26.9369 145.646 26.9238 145.676 26.9167C145.707 26.9089 145.738 26.9073 145.769 26.9119C145.8 26.9166 145.83 26.9273 145.857 26.9436C145.884 26.9599 145.907 26.9814 145.926 27.0068C145.944 27.0322 145.957 27.061 145.964 27.0915C146.487 29.3569 146.894 31.6475 147.184 33.9542C147.742 38.7089 147.293 41.3699 145.851 41.8709C144.759 42.2395 142.708 42.3672 140.444 42.3672Z" fill="#231F20"/>
<path d="M139.934 29.209C139.875 29.2093 139.818 29.1876 139.774 29.1483C139.731 29.109 139.703 29.0548 139.697 28.9963L139.125 22.403C139.123 22.3719 139.126 22.3407 139.136 22.311C139.145 22.2813 139.161 22.2539 139.181 22.2301C139.201 22.2064 139.226 22.1869 139.254 22.1728C139.281 22.1587 139.312 22.1502 139.343 22.1478C139.404 22.1437 139.465 22.1635 139.513 22.2031C139.56 22.2427 139.591 22.299 139.598 22.3605L140.17 28.9774C140.172 29.0084 140.169 29.0397 140.159 29.0693C140.15 29.099 140.134 29.1265 140.114 29.1502C140.094 29.1739 140.069 29.1934 140.042 29.2076C140.014 29.2217 139.984 29.2302 139.952 29.2326L139.934 29.209Z" fill="#231F20"/>
<path d="M105.828 28.2684C105.779 28.2684 105.732 28.2534 105.692 28.2255C105.653 28.1976 105.622 28.1581 105.606 28.1124C105.536 27.9571 105.504 27.7876 105.512 27.6176C105.521 27.4476 105.569 27.282 105.653 27.1341C105.738 27.0238 105.844 26.9327 105.967 26.8667C106.089 26.8007 106.224 26.7614 106.362 26.7513C106.425 26.7513 106.485 26.7761 106.529 26.8205C106.574 26.8648 106.598 26.9249 106.598 26.9876C106.598 27.0502 106.574 27.1104 106.529 27.1547C106.485 27.199 106.425 27.2239 106.362 27.2239C106.296 27.2283 106.231 27.2465 106.173 27.2775C106.114 27.3084 106.063 27.3514 106.022 27.4035C105.982 27.4903 105.962 27.5846 105.962 27.68C105.962 27.7754 105.982 27.8697 106.022 27.9565C106.04 28.0167 106.035 28.0816 106.006 28.1379C105.978 28.1941 105.93 28.2375 105.871 28.259C105.857 28.2636 105.842 28.2668 105.828 28.2684Z" fill="#231F20"/>
<path d="M95.2931 37.6361C95.2463 37.6335 95.2013 37.6175 95.1635 37.5898C95.1257 37.5621 95.0969 37.524 95.0804 37.4801L84.7769 8.7816L73.3911 30.9388C73.3722 30.9738 73.3452 31.0036 73.3123 31.0259C73.2793 31.0481 73.2415 31.062 73.202 31.0664C73.1625 31.071 73.1225 31.0651 73.086 31.0493C73.0495 31.0336 73.0178 31.0085 72.9941 30.9766L61.75 16.2871L54.6605 27.6587C54.6445 27.6855 54.6233 27.7089 54.5982 27.7274C54.5731 27.746 54.5445 27.7594 54.5142 27.7669C54.4839 27.7744 54.4524 27.7758 54.4215 27.771C54.3906 27.7662 54.361 27.7553 54.3344 27.7391L48.4028 24.1659C48.3756 24.1508 48.3519 24.1303 48.333 24.1057C48.3141 24.081 48.3004 24.0528 48.2929 24.0226C48.2854 23.9925 48.2841 23.9612 48.2892 23.9305C48.2943 23.8999 48.3056 23.8706 48.3224 23.8445C48.338 23.8179 48.3587 23.7946 48.3834 23.7761C48.4081 23.7576 48.4363 23.7442 48.4662 23.7367C48.4962 23.7292 48.5273 23.7278 48.5578 23.7325C48.5883 23.7372 48.6175 23.748 48.6438 23.7642L54.3816 27.2144L61.5326 15.7483C61.5531 15.7159 61.5809 15.6889 61.6137 15.6692C61.6465 15.6495 61.6835 15.6377 61.7217 15.6348C61.7607 15.6329 61.7996 15.6406 61.835 15.657C61.8704 15.6735 61.9012 15.6983 61.9249 15.7294L73.1359 30.3811L84.602 8.08209C84.6232 8.04095 84.656 8.00692 84.6963 7.98424C84.7367 7.96155 84.7827 7.95121 84.8289 7.95448C84.875 7.9573 84.9193 7.97358 84.9563 8.0013C84.9932 8.02902 85.0212 8.06697 85.0369 8.11045L95.3309 36.7853L100.421 25.995C100.448 25.9389 100.496 25.8956 100.554 25.8743C100.612 25.8531 100.677 25.8557 100.733 25.8816C100.762 25.8948 100.787 25.9135 100.808 25.9366C100.829 25.9597 100.845 25.9868 100.856 26.0162C100.867 26.0457 100.871 26.0769 100.87 26.1082C100.868 26.1394 100.86 26.1701 100.847 26.1983L95.5105 37.4943C95.4916 37.5362 95.461 37.5718 95.4225 37.5969C95.384 37.6221 95.3391 37.6356 95.2931 37.6361V37.6361Z" fill="#D1D3D4"/>
<path d="M54.4524 28.9159C55.2303 28.9159 55.8609 28.2854 55.8609 27.5075C55.8609 26.7296 55.2303 26.099 54.4524 26.099C53.6745 26.099 53.0439 26.7296 53.0439 27.5075C53.0439 28.2854 53.6745 28.9159 54.4524 28.9159Z" fill="white"/>
<path d="M54.4524 29.1475C54.1269 29.1475 53.8087 29.0509 53.5381 28.87C53.2675 28.6891 53.0567 28.4319 52.9324 28.1311C52.808 27.8303 52.7757 27.4993 52.8396 27.1801C52.9034 26.8609 53.0605 26.5679 53.291 26.338C53.5215 26.1082 53.815 25.9519 54.1344 25.889C54.4538 25.8261 54.7846 25.8593 55.0851 25.9845C55.3856 26.1097 55.6421 26.3213 55.8223 26.5924C56.0024 26.8635 56.0981 27.182 56.0972 27.5075C56.0959 27.9429 55.9221 28.36 55.6137 28.6675C55.3054 28.9749 54.8878 29.1475 54.4524 29.1475V29.1475ZM54.4524 26.3117C54.2206 26.3117 53.9939 26.3804 53.8012 26.5092C53.6084 26.638 53.4582 26.8211 53.3695 27.0353C53.2808 27.2495 53.2575 27.4851 53.3028 27.7125C53.348 27.9399 53.4596 28.1487 53.6236 28.3127C53.7875 28.4766 53.9963 28.5882 54.2237 28.6335C54.4511 28.6787 54.6868 28.6555 54.9009 28.5668C55.1151 28.478 55.2982 28.3278 55.427 28.1351C55.5558 27.9423 55.6245 27.7157 55.6245 27.4838C55.6183 27.1771 55.4921 26.885 55.273 26.6703C55.0538 26.4555 54.7592 26.3353 54.4524 26.3353V26.3117Z" fill="#D1D3D4"/>
<path d="M61.7311 17.2796C62.509 17.2796 63.1395 16.649 63.1395 15.8712C63.1395 15.0933 62.509 14.4627 61.7311 14.4627C60.9532 14.4627 60.3226 15.0933 60.3226 15.8712C60.3226 16.649 60.9532 17.2796 61.7311 17.2796Z" fill="white"/>
<path d="M61.731 17.5159C61.4055 17.5169 61.0871 17.4212 60.816 17.241C60.5449 17.0609 60.3333 16.8043 60.2081 16.5039C60.0829 16.2034 60.0496 15.8726 60.1126 15.5532C60.1755 15.2338 60.3318 14.9403 60.5616 14.7098C60.7914 14.4793 61.0845 14.3222 61.4037 14.2583C61.7229 14.1945 62.0538 14.2268 62.3546 14.3511C62.6555 14.4755 62.9126 14.6863 63.0936 14.9569C63.2745 15.2275 63.3711 15.5457 63.3711 15.8712C63.3711 16.3066 63.1985 16.7242 62.891 17.0325C62.5836 17.3408 62.1664 17.5147 61.731 17.5159V17.5159ZM61.731 14.6801C61.4988 14.6792 61.2715 14.7473 61.0781 14.8757C60.8846 15.0041 60.7336 15.1871 60.6443 15.4015C60.555 15.6159 60.5314 15.852 60.5765 16.0798C60.6216 16.3076 60.7333 16.5169 60.8975 16.6811C61.0617 16.8453 61.271 16.957 61.4988 17.0021C61.7266 17.0472 61.9627 17.0236 62.1771 16.9343C62.3914 16.845 62.5745 16.694 62.7029 16.5005C62.8313 16.307 62.8994 16.0798 62.8985 15.8475C62.8911 15.5424 62.765 15.2522 62.547 15.0386C62.329 14.825 62.0362 14.7049 61.731 14.7038V14.6801Z" fill="#D1D3D4"/>
<path d="M84.8099 9.59926C85.5878 9.59926 86.2184 8.96868 86.2184 8.19081C86.2184 7.41294 85.5878 6.78235 84.8099 6.78235C84.0321 6.78235 83.4015 7.41294 83.4015 8.19081C83.4015 8.96868 84.0321 9.59926 84.8099 9.59926Z" fill="white"/>
<path d="M84.8099 9.83084C84.4842 9.83177 84.1655 9.73598 83.8943 9.55561C83.6231 9.37524 83.4116 9.11841 83.2865 8.81768C83.1614 8.51694 83.1285 8.18584 83.1918 7.86634C83.2551 7.54685 83.4118 7.25335 83.6421 7.02304C83.8725 6.79273 84.166 6.63598 84.4855 6.57267C84.805 6.50935 85.1361 6.54232 85.4368 6.6674C85.7375 6.79247 85.9944 7.00402 86.1747 7.27522C86.3551 7.54643 86.4509 7.86508 86.45 8.19079C86.4487 8.62537 86.2755 9.0418 85.9682 9.3491C85.6609 9.6564 85.2445 9.82959 84.8099 9.83084V9.83084ZM84.8099 6.99502C84.5779 6.99408 84.3508 7.06203 84.1574 7.19026C83.964 7.31848 83.8131 7.50122 83.7236 7.71531C83.6342 7.92941 83.6103 8.16524 83.655 8.39292C83.6997 8.6206 83.8109 8.8299 83.9747 8.9943C84.1384 9.1587 84.3473 9.2708 84.5748 9.31642C84.8023 9.36203 85.0382 9.33909 85.2526 9.25051C85.4671 9.16194 85.6504 9.01171 85.7794 8.81885C85.9084 8.62599 85.9773 8.39918 85.9773 8.16715C85.9712 7.86121 85.8456 7.56982 85.6275 7.35521C85.4093 7.14061 85.1159 7.01982 84.8099 7.01865V6.99502Z" fill="#D1D3D4"/>
<path d="M95.293 38.8082C96.0708 38.8082 96.7014 38.1776 96.7014 37.3998C96.7014 36.6219 96.0708 35.9913 95.293 35.9913C94.5151 35.9913 93.8845 36.6219 93.8845 37.3998C93.8845 38.1776 94.5151 38.8082 95.293 38.8082Z" fill="white"/>
<path d="M95.293 39.0398C94.9675 39.0398 94.6493 38.9432 94.3787 38.7623C94.1081 38.5813 93.8973 38.3242 93.7729 38.0234C93.6486 37.7225 93.6163 37.3916 93.6801 37.0724C93.744 36.7532 93.9011 36.4602 94.1316 36.2303C94.3621 36.0005 94.6556 35.8442 94.975 35.7813C95.2944 35.7183 95.6252 35.7516 95.9257 35.8768C96.2261 36.002 96.4827 36.2136 96.6628 36.4847C96.843 36.7558 96.9387 37.0742 96.9377 37.3998C96.9365 37.8352 96.7626 38.2523 96.4543 38.5597C96.146 38.8672 95.7284 39.0398 95.293 39.0398V39.0398ZM95.293 36.2276C95.0611 36.2276 94.8345 36.2964 94.6418 36.4252C94.449 36.5539 94.2988 36.737 94.21 36.9512C94.1213 37.1654 94.0981 37.4011 94.1433 37.6284C94.1886 37.8558 94.3002 38.0646 94.4641 38.2286C94.6281 38.3925 94.8369 38.5041 95.0643 38.5494C95.2917 38.5946 95.5273 38.5714 95.7415 38.4827C95.9557 38.3939 96.1388 38.2437 96.2676 38.051C96.3964 37.8582 96.4651 37.6316 96.4651 37.3998C96.4651 37.0889 96.3416 36.7907 96.1218 36.5709C95.902 36.3511 95.6038 36.2276 95.293 36.2276Z" fill="#D1D3D4"/>
<path d="M73.1688 32.2385C73.9467 32.2385 74.5773 31.608 74.5773 30.8301C74.5773 30.0522 73.9467 29.4216 73.1688 29.4216C72.391 29.4216 71.7604 30.0522 71.7604 30.8301C71.7604 31.608 72.391 32.2385 73.1688 32.2385Z" fill="white"/>
<path d="M73.1688 32.4749C72.8435 32.4749 72.5255 32.3784 72.255 32.1977C71.9846 32.0169 71.7737 31.7601 71.6492 31.4595C71.5248 31.159 71.4922 30.8283 71.5557 30.5092C71.6191 30.1902 71.7758 29.8971 72.0058 29.6671C72.2358 29.437 72.5289 29.2804 72.8479 29.2169C73.167 29.1535 73.4977 29.186 73.7982 29.3105C74.0988 29.435 74.3557 29.6458 74.5364 29.9163C74.7171 30.1868 74.8136 30.5048 74.8136 30.8301C74.8136 31.2663 74.6403 31.6847 74.3319 31.9931C74.0234 32.3016 73.605 32.4749 73.1688 32.4749ZM73.1688 29.6627C72.9368 29.6627 72.71 29.7315 72.5171 29.8606C72.3243 29.9896 72.174 30.1729 72.0855 30.3874C71.9969 30.6018 71.974 30.8377 72.0196 31.0652C72.0652 31.2927 72.1773 31.5016 72.3417 31.6653C72.5061 31.8291 72.7154 31.9403 72.9431 31.985C73.1707 32.0297 73.4066 32.0058 73.6207 31.9164C73.8348 31.8269 74.0175 31.676 74.1457 31.4826C74.2739 31.2892 74.3419 31.0621 74.341 30.8301C74.3397 30.52 74.2157 30.2231 73.996 30.0043C73.7763 29.7855 73.4789 29.6627 73.1688 29.6627Z" fill="#D1D3D4"/>
<path d="M56.7164 9.31569H50.1798C50.1171 9.31569 50.057 9.29079 50.0127 9.24647C49.9684 9.20215 49.9435 9.14204 49.9435 9.07937C49.9435 9.01669 49.9684 8.95658 50.0127 8.91226C50.057 8.86795 50.1171 8.84305 50.1798 8.84305H56.7164C56.779 8.84305 56.8391 8.86795 56.8835 8.91226C56.9278 8.95658 56.9527 9.01669 56.9527 9.07937C56.9527 9.14204 56.9278 9.20215 56.8835 9.24647C56.8391 9.29079 56.779 9.31569 56.7164 9.31569Z" fill="#D1D3D4"/>
<path d="M56.7164 11.003H50.1798C50.1171 11.003 50.057 10.9781 50.0127 10.9338C49.9684 10.8895 49.9435 10.8294 49.9435 10.7667C49.9435 10.704 49.9684 10.6439 50.0127 10.5996C50.057 10.5553 50.1171 10.5304 50.1798 10.5304H56.7164C56.779 10.5304 56.8391 10.5553 56.8835 10.5996C56.9278 10.6439 56.9527 10.704 56.9527 10.7667C56.9515 10.829 56.9262 10.8884 56.8821 10.9324C56.8381 10.9765 56.7787 11.0018 56.7164 11.003V11.003Z" fill="#D1D3D4"/>
<path d="M56.7164 12.6903H50.1798C50.1171 12.6903 50.057 12.6654 50.0127 12.6211C49.9684 12.5768 49.9435 12.5167 49.9435 12.454C49.9435 12.3913 49.9684 12.3312 50.0127 12.2869C50.057 12.2426 50.1171 12.2177 50.1798 12.2177H56.7164C56.779 12.2177 56.8391 12.2426 56.8835 12.2869C56.9278 12.3312 56.9527 12.3913 56.9527 12.454C56.9515 12.5163 56.9262 12.5757 56.8821 12.6198C56.8381 12.6638 56.7787 12.6891 56.7164 12.6903Z" fill="#D1D3D4"/>
<path d="M54.4052 14.3729H50.1798C50.1171 14.3729 50.057 14.348 50.0127 14.3037C49.9684 14.2594 49.9435 14.1993 49.9435 14.1366C49.9435 14.0739 49.9684 14.0138 50.0127 13.9695C50.057 13.9252 50.1171 13.9003 50.1798 13.9003H54.4052C54.4678 13.9003 54.528 13.9252 54.5723 13.9695C54.6166 14.0138 54.6415 14.0739 54.6415 14.1366C54.6415 14.1993 54.6166 14.2594 54.5723 14.3037C54.528 14.348 54.4678 14.3729 54.4052 14.3729Z" fill="#D1D3D4"/>
<path d="M100.714 15.8286H94.1965C94.1338 15.8286 94.0737 15.8037 94.0294 15.7594C93.9851 15.7151 93.9602 15.655 93.9602 15.5923C93.9602 15.5296 93.9851 15.4695 94.0294 15.4252C94.0737 15.3809 94.1338 15.356 94.1965 15.356H100.714C100.777 15.356 100.837 15.3809 100.881 15.4252C100.926 15.4695 100.951 15.5296 100.951 15.5923C100.951 15.655 100.926 15.7151 100.881 15.7594C100.837 15.8037 100.777 15.8286 100.714 15.8286V15.8286Z" fill="#D1D3D4"/>
<path d="M100.714 17.5159H94.1965C94.1342 17.5147 94.0748 17.4894 94.0308 17.4454C93.9867 17.4013 93.9614 17.3419 93.9602 17.2796C93.9602 17.2169 93.9851 17.1568 94.0294 17.1125C94.0737 17.0682 94.1338 17.0433 94.1965 17.0433H100.714C100.777 17.0433 100.837 17.0682 100.881 17.1125C100.926 17.1568 100.951 17.2169 100.951 17.2796C100.951 17.3106 100.944 17.3414 100.933 17.37C100.921 17.3987 100.903 17.4248 100.881 17.4467C100.859 17.4686 100.833 17.486 100.805 17.4979C100.776 17.5098 100.745 17.5159 100.714 17.5159Z" fill="#D1D3D4"/>
<path d="M98.5212 19.1985H94.1965C94.1338 19.1985 94.0737 19.1736 94.0294 19.1293C93.9851 19.085 93.9602 19.0249 93.9602 18.9622C93.9614 18.8999 93.9867 18.8405 94.0308 18.7964C94.0748 18.7524 94.1342 18.7271 94.1965 18.7259H98.5212C98.5838 18.7259 98.644 18.7508 98.6883 18.7951C98.7326 18.8394 98.7575 18.8995 98.7575 18.9622C98.7575 19.0249 98.7326 19.085 98.6883 19.1293C98.644 19.1736 98.5838 19.1985 98.5212 19.1985Z" fill="#D1D3D4"/>
<path d="M102.52 42.7878H46.7153C46.6526 42.7878 46.5925 42.7629 46.5482 42.7186C46.5039 42.6743 46.479 42.6142 46.479 42.5515C46.479 42.4888 46.5039 42.4287 46.5482 42.3844C46.5925 42.3401 46.6526 42.3152 46.7153 42.3152H102.52C102.582 42.3152 102.642 42.3401 102.687 42.3844C102.731 42.4287 102.756 42.4888 102.756 42.5515C102.756 42.6142 102.731 42.6743 102.687 42.7186C102.642 42.7629 102.582 42.7878 102.52 42.7878Z" fill="#D1D3D4"/>
<path d="M102.52 46.0112H46.7153C46.6526 46.0112 46.5925 45.9863 46.5482 45.942C46.5039 45.8977 46.479 45.8376 46.479 45.7749C46.479 45.7122 46.5039 45.6521 46.5482 45.6078C46.5925 45.5635 46.6526 45.5386 46.7153 45.5386H102.52C102.582 45.5386 102.642 45.5635 102.687 45.6078C102.731 45.6521 102.756 45.7122 102.756 45.7749C102.756 45.8376 102.731 45.8977 102.687 45.942C102.642 45.9863 102.582 46.0112 102.52 46.0112Z" fill="#D1D3D4"/>
<path d="M93.3173 49.2346H46.7153C46.6526 49.2346 46.5925 49.2097 46.5482 49.1654C46.5039 49.1211 46.479 49.0609 46.479 48.9983C46.479 48.9356 46.5039 48.8755 46.5482 48.8312C46.5925 48.7868 46.6526 48.7619 46.7153 48.7619H93.3173C93.38 48.7619 93.4401 48.7868 93.4844 48.8312C93.5287 48.8755 93.5536 48.9356 93.5536 48.9983C93.5536 49.0609 93.5287 49.1211 93.4844 49.1654C93.4401 49.2097 93.38 49.2346 93.3173 49.2346Z" fill="#D1D3D4"/>
<path d="M95.3355 69.4398C94.517 68.7061 93.5909 68.102 92.5895 67.6485C92.5044 70.5883 93.7002 73.2918 94.8014 75.1398H98.384" fill="white"/>
<path d="M98.3841 75.3761H94.8015C94.7607 75.3764 94.7205 75.366 94.6849 75.3462C94.6493 75.3263 94.6195 75.2975 94.5982 75.2627C93.5254 73.462 92.2681 70.6781 92.3532 67.6438C92.3536 67.605 92.3638 67.5669 92.3828 67.533C92.4018 67.4992 92.429 67.4706 92.4619 67.45C92.4955 67.4326 92.5328 67.4235 92.5706 67.4235C92.6085 67.4235 92.6457 67.4326 92.6793 67.45C93.7066 67.911 94.6554 68.5298 95.4915 69.2838C95.5384 69.3257 95.5672 69.3841 95.5716 69.4468C95.576 69.5095 95.5557 69.5714 95.5152 69.6194C95.4702 69.663 95.41 69.6874 95.3474 69.6874C95.2847 69.6874 95.2246 69.663 95.1796 69.6194C94.4645 68.9853 93.6702 68.4467 92.8164 68.0172C92.84 70.7396 93.9507 73.2162 94.9338 74.9035H98.3794C98.442 74.9035 98.5021 74.9284 98.5465 74.9727C98.5908 75.017 98.6157 75.0771 98.6157 75.1398C98.6157 75.2017 98.5914 75.2611 98.5481 75.3053C98.5048 75.3494 98.4459 75.3749 98.3841 75.3761Z" fill="#231F20"/>
<path d="M100.473 70.2338C99.5939 65.6351 95.9924 62.7473 95.9924 62.7473C95.3222 64.9105 95.0987 67.1875 95.3355 69.4398C95.5206 71.3857 95.9379 73.3025 96.5785 75.1493H100.43" fill="white"/>
<path d="M100.431 75.3761H96.5786C96.5293 75.3771 96.4808 75.3626 96.4401 75.3346C96.3995 75.3066 96.3685 75.2666 96.3518 75.2202C95.7126 73.3611 95.2923 71.434 95.0993 69.4776C94.8565 67.1935 95.0833 64.8838 95.7657 62.6906C95.7779 62.6535 95.7988 62.6199 95.8268 62.5928C95.8548 62.5656 95.889 62.5456 95.9264 62.5346C95.9627 62.5249 96.0008 62.5238 96.0377 62.5311C96.0746 62.5385 96.1092 62.5542 96.1391 62.5771C96.2903 62.7 99.8162 65.5736 100.705 70.2008C100.711 70.2318 100.71 70.2637 100.704 70.2946C100.698 70.3255 100.685 70.3549 100.667 70.381C100.65 70.4071 100.627 70.4295 100.6 70.4468C100.574 70.4641 100.544 70.4761 100.513 70.482C100.482 70.4879 100.45 70.4876 100.419 70.4812C100.389 70.4747 100.359 70.4623 100.333 70.4445C100.307 70.4267 100.285 70.404 100.267 70.3776C100.25 70.3512 100.238 70.3216 100.232 70.2906C99.5184 66.5615 96.9237 63.9478 96.1013 63.1774C95.5259 65.2101 95.343 67.3339 95.5625 69.4351C95.7409 71.3021 96.1359 73.1419 96.7393 74.9177H100.421C100.484 74.9177 100.544 74.9426 100.588 74.9869C100.633 75.0312 100.657 75.0913 100.657 75.154C100.654 75.2126 100.629 75.2678 100.587 75.3088C100.545 75.3499 100.489 75.3739 100.431 75.3761Z" fill="#231F20"/>
<path d="M102.378 75.1493H98.9654C98.9323 74.1425 99.1592 72.6112 100.256 70.6261L100.473 70.2433C102.453 66.897 104.254 66.9348 104.254 66.9348C105.025 70.4465 103.408 73.5848 102.378 75.1493Z" fill="white"/>
<path d="M102.378 75.3761H98.9654C98.9043 75.3762 98.8456 75.3526 98.8016 75.3103C98.7575 75.268 98.7315 75.2103 98.7291 75.1493C98.696 74.1804 98.8992 72.5828 100.048 70.5032L100.27 70.1157C102.298 66.6843 104.198 66.6891 104.264 66.6843C104.317 66.6862 104.368 66.7058 104.409 66.7401C104.451 66.7743 104.479 66.8212 104.491 66.8734C105.275 70.4843 103.626 73.6841 102.576 75.2721C102.554 75.3043 102.524 75.3305 102.49 75.3486C102.455 75.3667 102.417 75.3762 102.378 75.3761V75.3761ZM99.197 74.9035H102.25C103.243 73.3816 104.699 70.4607 104.075 67.1853C103.602 67.2846 102.184 67.7998 100.676 70.352L100.464 70.7301C99.7018 71.9946 99.2666 73.4288 99.197 74.9035V74.9035Z" fill="#231F20"/>
<path d="M101.754 80.5562H95.0615L93.9839 75.1445H102.836L101.754 80.5562Z" fill="#231F20"/>
</g>
<defs>
<clipPath id="clip0">
<rect width="147.463" height="95" fill="white"/>
</clipPath>
</defs>
</svg>
