<svg width="131" height="95" viewBox="0 0 131 95" fill="none" xmlns="http://www.w3.org/2000/svg">
<g clip-path="url(#clip0)">
<path d="M54.6207 67.2515C54.7988 70.1112 54.3137 72.9895 54.5778 75.8431C54.6699 76.7706 54.8388 77.7413 54.5317 78.6255C54.2478 79.3839 53.6879 80.0051 52.9657 80.363C51.286 81.2287 49.1028 80.6722 47.7916 79.2964C46.4804 77.9206 45.9492 75.9389 46.0567 74.0407C46.1642 72.1424 46.8213 70.3307 47.6074 68.5994C48.3136 67.0536 49.505 64.0022 51.2522 63.3437C53.5092 62.5151 54.5225 65.6315 54.6207 67.2515Z" fill="#3E3E54"/>
<path d="M51.6392 62.0731C50.936 60.7931 48.9923 60.2583 47.589 60.9601C47.1727 61.2232 46.7387 61.4566 46.2901 61.6588C45.7619 61.8381 45.1877 61.7917 44.635 61.8474C42.8571 62.0329 41.2819 63.4272 41.0147 65.0472C40.8642 65.9747 41.0976 66.9022 40.9502 67.8296C40.6032 70.0185 38.2296 71.6694 37.9901 73.8675C37.9133 74.5817 38.073 75.2928 38.1344 76.0038C38.2422 77.3394 38.0119 78.6807 37.465 79.9024C37.0751 80.7773 36.5254 81.612 36.3811 82.5426C36.0955 84.3975 37.6401 86.1783 39.5746 86.7472C41.5091 87.316 43.6831 86.8677 45.5163 85.9928C47.5368 85.0282 49.3362 83.4484 49.9442 81.4482C50.8961 78.3287 48.8049 75.0114 49.7446 71.8889C50.0049 71.1633 50.3127 70.4559 50.6658 69.7712C51.587 67.7431 52.7753 64.1475 51.6392 62.0731Z" fill="#3E3E54"/>
<path d="M43.8029 73.9726C43.8243 73.1286 43.6923 72.1177 44.331 71.5828C44.385 71.5311 44.4537 71.4976 44.5275 71.487C44.5995 71.4905 44.6694 71.5129 44.7302 71.5519C45.4283 71.937 46.0522 72.4448 46.5726 73.0513C47.2113 73.7964 47.7087 74.6992 48.5317 75.2155C48.8633 75.4288 49.2348 75.571 49.5788 75.7565C50.2896 76.1433 50.8869 76.7116 51.3106 77.4043C51.3726 77.4869 51.4173 77.5812 51.4421 77.6816C51.4669 77.782 51.4713 77.8865 51.4549 77.9886C51.3782 78.2514 51.0772 78.3658 50.8101 78.4184C50.0415 78.5493 49.2605 78.5908 48.4825 78.542C47.4221 78.5132 46.3628 78.4699 45.3044 78.4122C44.622 78.3989 43.9433 78.3086 43.2808 78.1432C42.9983 78.0628 42.4794 77.865 42.4088 77.5249C42.3381 77.1848 42.8018 76.8386 42.9891 76.551C43.4892 75.7825 43.7706 74.8908 43.8029 73.9726V73.9726Z" fill="url(#paint0_linear)"/>
<path d="M130.392 89.1555H0.0614319V93.9692H130.392V89.1555Z" fill="#DDDDDD"/>
<path d="M130.392 89.1555H0.0614319V91.6968H130.392V89.1555Z" fill="url(#paint1_linear)"/>
<path d="M54.9892 81.7666L55.981 90.0428C48.8414 90.4108 41.6863 90.3488 34.554 89.8573C34.3944 88.3703 34.9379 86.9048 35.5059 85.5291C36.9184 82.1036 38.9021 78.4369 42.4118 77.3147C45.0956 76.4552 47.4508 77.528 50.0885 77.7939C51.3966 77.9268 52.8306 77.4847 53.8654 78.5328C54.6576 79.3366 54.8572 80.6783 54.9892 81.7666Z" fill="#DDDDDD"/>
<path d="M54.9892 81.7666L55.981 90.0428C48.8414 90.4108 41.6863 90.3488 34.554 89.8573C34.3944 88.3703 34.9379 86.9048 35.5059 85.5291C36.9184 82.1036 38.9021 78.4369 42.4118 77.3147C45.0956 76.4552 47.4508 77.528 50.0885 77.7939C51.3966 77.9268 52.8306 77.4847 53.8654 78.5328C54.6576 79.3366 54.8572 80.6783 54.9892 81.7666Z" fill="url(#paint2_linear)"/>
<path d="M23.4813 76.8757C24.3165 77.0766 25.1732 77.3209 25.8457 77.8588C26.3637 78.3109 26.7965 78.8534 27.1231 79.4602C28.765 82.2267 29.8111 85.3097 30.1937 88.5094C30.2477 88.7686 30.2264 89.038 30.1323 89.2854C29.902 89.7553 29.2695 89.814 28.7474 89.8079L4.52001 89.5451L1.78406 89.7182C2.39819 86.9729 4.18531 77.865 8.03283 76.684C9.57469 76.2948 11.1445 76.0281 12.7279 75.8864C14.3758 75.8178 16.0262 75.8405 17.6716 75.9544C19.6293 76.1063 21.572 76.4143 23.4813 76.8757V76.8757Z" fill="#DDDDDD"/>
<path d="M23.4813 76.8757C24.3165 77.0766 25.1732 77.3209 25.8457 77.8588C26.3637 78.3109 26.7965 78.8534 27.1231 79.4602C28.765 82.2267 29.8111 85.3097 30.1937 88.5094C30.2477 88.7686 30.2264 89.038 30.1323 89.2854C29.902 89.7553 29.2695 89.814 28.7474 89.8079L4.52001 89.5451L1.78406 89.7182C2.39819 86.9729 4.18531 77.865 8.03283 76.684C9.57469 76.2948 11.1445 76.0281 12.7279 75.8864C14.3758 75.8178 16.0262 75.8405 17.6716 75.9544C19.6293 76.1063 21.572 76.4143 23.4813 76.8757V76.8757Z" fill="url(#paint3_linear)"/>
<path d="M19.6921 76.0842C19.6998 76.4885 19.648 76.8917 19.5386 77.2807C19.2008 78.2916 18.0339 78.879 16.9868 78.7245C16.4646 78.6243 15.9728 78.4028 15.5506 78.0776C15.1284 77.7523 14.7874 77.3323 14.5549 76.8509C14.1001 75.8871 13.8892 74.8251 13.9408 73.7593C13.909 73.2753 14.0305 72.7937 14.2877 72.3836C14.4618 72.1891 14.6744 72.0336 14.9119 71.9271C15.1494 71.8206 15.4065 71.7654 15.6665 71.7652C16.6003 71.7079 17.5197 72.0183 18.2305 72.6309C18.5774 72.9401 19.253 73.1936 19.4587 73.5275C19.7105 73.9881 19.7136 75.5216 19.6921 76.0842Z" fill="url(#paint4_linear)"/>
<path d="M14.2693 72.9277C14.2693 72.9277 17.4935 78.0381 18.6665 76.5851C19.0102 76.1606 19.2575 75.6656 19.3912 75.1348C19.5248 74.6039 19.5416 74.0501 19.4403 73.512L14.2693 72.9277Z" fill="url(#paint5_linear)"/>
<path d="M26.0023 76.4707L24.0893 77.7877C23.941 77.878 23.8066 77.9894 23.6901 78.1185C23.5253 78.359 23.4201 78.6356 23.383 78.9254C22.7812 81.8746 22.4961 84.8805 22.5324 87.8911C22.5147 88.2065 22.5617 88.5222 22.6706 88.8185C22.8457 89.163 23.1345 89.4352 23.4874 89.5884C24.1906 89.9315 24.9982 89.9594 25.7781 89.981L28.8764 90.0645C29.1869 90.0923 29.4999 90.0587 29.7976 89.9655C30.5131 89.6873 30.7925 88.7938 30.7372 88.024C30.6335 87.2133 30.3969 86.4256 30.0371 85.6929L27.9307 80.7216C27.4209 79.4881 26.9787 77.4012 26.0023 76.4707Z" fill="#DDDDDD"/>
<path d="M46.5572 87.7488C47.178 87.7381 47.7975 87.8098 48.3996 87.9622C48.6991 88.0413 48.9752 88.1923 49.2041 88.4023C49.4329 88.6122 49.6079 88.875 49.7139 89.1679C49.9442 89.9964 49.3423 90.8714 48.5716 91.2393C47.8008 91.6072 46.9134 91.5948 46.0598 91.5763L39.1815 91.4124C38.3811 91.431 37.5821 91.3363 36.8079 91.1311C36.4213 91.0251 36.0609 90.8389 35.75 90.5844C35.439 90.3299 35.1844 90.0127 35.0024 89.6533C34.5049 88.5341 35.1037 87.1367 36.1293 86.472C37.6861 85.4672 39.3443 85.9712 40.9103 86.5648C42.719 87.2561 44.6248 87.6557 46.5572 87.7488V87.7488Z" fill="#DDDDDD"/>
<path d="M99.3141 89.8851C100.681 86.3483 103.527 81.3987 104.893 77.8619C105.532 76.211 106.257 74.4611 107.746 73.5027C108.75 72.8597 109.969 72.6865 111.151 72.5258L117.032 71.7127C118.61 71.4994 119.878 72.0218 121.162 72.971C122.445 73.9201 123.403 75.2526 124.232 76.6252C126.156 79.7987 127.521 83.2825 128.267 86.9234C128.43 87.7272 128.525 88.6825 127.945 89.2606C127.524 89.6842 126.873 89.7615 126.277 89.7924C117.769 90.2778 107.85 89.4369 99.3141 89.8851Z" fill="#DDDDDD"/>
<path d="M99.3141 89.8851C100.681 86.3483 103.527 81.3987 104.893 77.8619C105.532 76.211 106.257 74.4611 107.746 73.5027C108.75 72.8597 109.969 72.6865 111.151 72.5258L117.032 71.7127C118.61 71.4994 119.878 72.0218 121.162 72.971C122.445 73.9201 123.403 75.2526 124.232 76.6252C126.156 79.7987 127.521 83.2825 128.267 86.9234C128.43 87.7272 128.525 88.6825 127.945 89.2606C127.524 89.6842 126.873 89.7615 126.277 89.7924C117.769 90.2778 107.85 89.4369 99.3141 89.8851Z" fill="url(#paint6_linear)"/>
<path d="M115.361 73.6078C115.04 74.0344 114.599 74.3534 114.095 74.5233C113.591 74.6932 113.048 74.706 112.536 74.56C112.378 74.5188 112.232 74.4428 112.106 74.3374C111.99 74.2167 111.899 74.0737 111.839 73.917C111.376 72.8349 111.354 71.623 111.336 70.4451C111.295 69.9668 111.36 69.4852 111.526 69.0354C112.1 67.774 114.812 66.5064 115.684 68.046C116.418 69.3445 116.221 72.4237 115.361 73.6078Z" fill="url(#paint7_linear)"/>
<path d="M27.9675 54.749C27.7214 54.5989 27.4321 54.537 27.1466 54.5735C26.8611 54.61 26.5964 54.7427 26.3953 54.95C26.0045 55.3812 25.7972 55.9495 25.818 56.5329C25.7979 56.873 25.8712 57.212 26.0299 57.5129C26.1118 57.6614 26.2315 57.7852 26.3767 57.8716C26.5218 57.958 26.6873 58.0039 26.8559 58.0045C27.1115 57.9729 27.3482 57.8526 27.5253 57.6644C27.7158 57.4613 27.864 57.2219 27.9613 56.9604C28.0585 56.6988 28.1029 56.4203 28.0917 56.1412C28.0806 55.8621 28.0141 55.588 27.8963 55.3352C27.7785 55.0823 27.6116 54.8557 27.4056 54.6687" fill="white"/>
<path d="M33.0034 51.0298C32.6318 51.5894 32.6963 52.4674 33.2797 52.8199C33.562 52.9718 33.8819 53.0383 34.2009 53.0115C34.5764 52.9988 34.9483 52.9343 35.3064 52.8199C35.416 52.7702 35.5374 52.7531 35.6564 52.7704C35.7606 52.8155 35.8531 52.8843 35.9266 52.9714C36.2035 53.2095 36.5631 53.3272 36.9261 53.2985C37.2892 53.2698 37.6261 53.0971 37.8627 52.8183C38.0993 52.5395 38.2161 52.1776 38.1876 51.812C38.1591 51.4464 37.9876 51.1073 37.7107 50.8691C37.6339 50.8072 37.5387 50.733 37.551 50.6341C37.5602 50.5823 37.5836 50.5341 37.6186 50.495C37.7916 50.2264 37.8562 49.9014 37.7991 49.5865C37.742 49.2716 37.5676 48.9905 37.3115 48.8008C36.2061 48.0279 35.985 49.1254 35.506 49.7283C34.8857 50.5166 33.6482 50.0714 33.0034 51.0298Z" fill="white"/>
<path d="M46.4375 45.3444C46.8889 45.3134 47.3863 45.1898 47.6227 44.8033C47.7357 44.5892 47.7937 44.3501 47.7916 44.1077C47.8122 43.7195 47.7958 43.3303 47.7425 42.9453C47.5613 41.6468 45.7374 41.0161 45.068 42.2775C44.3986 43.5389 44.7025 45.468 46.4375 45.3444Z" fill="white"/>
<path d="M57.8019 50.4919C57.6914 50.4053 57.5471 50.5506 57.4949 50.6774C57.3349 51.0602 57.2661 51.4754 57.2938 51.8898C57.3215 52.3042 57.4451 52.7063 57.6546 53.0641C57.6997 53.1489 57.7638 53.222 57.8419 53.2774C57.9208 53.321 58.0099 53.3424 58.0998 53.3393C58.3295 53.3224 58.5476 53.2311 58.7215 53.0789C58.8953 52.9267 59.0155 52.722 59.064 52.4953C59.1053 52.2673 59.0993 52.0331 59.0465 51.8075C58.9936 51.582 58.895 51.3698 58.7569 51.1844C58.5094 50.8109 58.1469 50.5296 57.7252 50.3837" fill="white"/>
<path d="M82.1952 54.242C82.3662 54.2374 82.529 54.1674 82.6505 54.0462C82.772 53.925 82.8431 53.7618 82.8492 53.5897C83.0887 52.2232 81.4367 49.8798 80.0089 51.1968C78.581 52.5138 80.7827 54.4584 82.1952 54.242Z" fill="white"/>
<path d="M95.9671 42.8773C96.1263 42.5909 96.1788 42.2567 96.1152 41.9348C96.0516 41.613 95.876 41.3245 95.6201 41.1212C95.4618 40.9936 95.2679 40.9187 95.0654 40.9071C94.8629 40.8955 94.6618 40.9476 94.4901 41.0563C94.1155 41.3376 94.0909 41.8818 94.1001 42.3517C93.7439 42.1786 93.2956 42.5248 93.2557 42.9205C93.2535 43.1207 93.2996 43.3183 93.39 43.4966C93.4803 43.6748 93.6123 43.8283 93.7746 43.9439C93.9372 44.088 94.1272 44.1975 94.3331 44.2655C94.5389 44.3335 94.7564 44.3587 94.9722 44.3396C95.187 44.3154 95.3885 44.223 95.5475 44.0756C95.7065 43.9283 95.8148 43.7338 95.8565 43.5203C95.8934 43.2266 95.7767 42.9236 95.835 42.633" fill="white"/>
<path d="M101.028 48.0619C100.674 47.8887 100.272 47.8428 99.8883 47.932C99.7381 47.9574 99.6002 48.0312 99.4952 48.1423C99.3931 48.2927 99.3454 48.4739 99.3601 48.6555C99.3599 48.9267 99.394 49.1968 99.4615 49.4593C99.4925 49.6395 99.5796 49.8052 99.7102 49.9323C99.9958 50.1704 100.423 50.0251 100.76 49.8705C101.021 49.7499 101.316 49.5922 101.374 49.3078C101.399 49.1292 101.367 48.9475 101.282 48.7884C101.128 48.4187 100.93 48.0689 100.693 47.7465" fill="white"/>
<path d="M108.802 49.1439C108.66 49.3522 108.592 49.6027 108.61 49.8547C108.627 50.1067 108.728 50.3455 108.898 50.5321C108.973 50.6191 109.068 50.686 109.175 50.727C109.283 50.768 109.398 50.7817 109.512 50.767C109.647 50.7238 109.767 50.6427 109.859 50.5332C109.95 50.4238 110.009 50.2904 110.028 50.1487C110.087 49.7913 110.011 49.4245 109.816 49.1202C109.621 48.816 109.319 48.5962 108.971 48.504" fill="white"/>
<path d="M60.2093 1.44355C58.9715 2.3563 57.9975 3.58455 57.3874 5.00199C57.2625 5.32373 57.0733 5.61625 56.8316 5.86145C56.2758 6.34993 55.4375 6.19226 54.7067 6.09951C53.3811 5.92743 52.034 6.06205 50.7678 6.49313C49.5017 6.9242 48.3498 7.64038 47.4 8.58716C46.4502 9.53394 45.7273 10.6864 45.2865 11.9568C44.8457 13.2272 44.6985 14.5821 44.8561 15.9185C42.2614 16.0143 40.29 18.4845 39.6575 21.0196C39.3141 22.3729 39.2606 23.7843 39.5004 25.16C39.7403 26.5357 40.2679 27.8443 41.0485 28.999C41.8459 30.1391 42.9036 31.0698 44.1326 31.7127C45.3616 32.3556 46.726 32.6919 48.111 32.6935C47.9359 34.6629 48.8234 36.5611 49.8183 38.2584C50.4907 39.4085 51.24 40.5431 52.2748 41.3871C53.3096 42.2311 54.6545 42.7598 55.9596 42.5279C56.1561 45.4742 58.8521 47.8579 61.7539 48.269C64.6556 48.6802 67.6065 47.4219 69.8328 45.502C71.0334 46.6645 72.9188 46.8747 74.5186 46.4079C76.1184 45.9411 77.4848 44.893 78.7315 43.7831C81.0652 44.4571 83.491 43.3039 85.6497 42.1848C87.0223 41.4706 88.4593 40.7008 89.2792 39.3838C90.0991 38.0667 90.1666 36.4344 89.8258 34.9442C89.4849 33.4541 88.7603 32.0814 88.0448 30.7303C89.2884 30.0007 90.5689 29.2371 91.4041 28.0561C92.2393 26.8751 92.5003 25.1531 91.6252 24.0061C91.401 23.7124 91.1093 23.4496 91.0325 23.0786C90.9435 22.6674 91.1677 22.2624 91.3396 21.8822C92.1871 20.0272 91.9353 17.8043 91.0663 15.9617C90.1973 14.1191 88.7756 12.6012 87.271 11.2347C86.141 10.2113 84.9312 9.24058 83.5217 8.67482C82.1123 8.10905 80.4511 7.99466 79.1 8.67482C78.7223 7.48455 78.32 6.251 77.4695 5.34206C76.6189 4.43313 75.1818 3.94466 74.0918 4.56607C74.4725 4.34657 71.9577 1.85782 71.7028 1.67542C70.6101 0.900513 69.3445 0.408862 68.018 0.244003C65.7856 -0.0126001 62.1131 0.129613 60.2093 1.44355Z" fill="white"/>
<path d="M76.843 77.3549C75.3384 78.9811 74.4664 81.0864 73.6219 83.1393L71.2207 89.0133C71.1418 89.1472 71.0934 89.2972 71.0791 89.4522C71.0647 89.6073 71.0848 89.7636 71.1378 89.9099C71.2297 90.0255 71.3454 90.1199 71.4768 90.1866C71.6081 90.2533 71.7523 90.2907 71.8993 90.2963C73.1287 90.4833 74.3667 90.6071 75.6086 90.6673C81.8584 91.061 88.1144 91.2053 94.3765 91.1002C95.1257 91.1002 95.9118 91.0631 96.5751 90.723C98.3008 89.8419 98.4389 87.4273 98.1319 85.5043C97.7782 83.2716 97.1533 81.0911 96.2711 79.012C95.9624 78.1851 95.509 77.4207 94.9323 76.7551C93.5013 75.2464 91.226 75.0052 89.1564 74.9465C85.1921 74.8228 79.8093 74.1427 76.843 77.3549Z" fill="#DDDDDD"/>
<path d="M72.2463 76.01C72.1771 75.7756 72.0363 75.569 71.844 75.4195C71.6771 75.3333 71.4912 75.2907 71.3036 75.2959C70.7584 75.2722 70.2122 75.2918 69.67 75.3546C69.3226 75.3656 68.9887 75.4929 68.7212 75.7163C68.5265 75.9515 68.4067 76.2402 68.3773 76.5449C67.9382 78.9409 68.4418 81.3925 68.6383 83.8194C68.7703 85.4734 68.7857 87.2202 69.6731 88.63C70.0727 89.2461 70.6193 89.7515 71.2631 90.0998C71.9068 90.4482 72.6271 90.6284 73.3579 90.6241C73.972 90.6241 74.6783 90.3953 74.9147 89.8233C75.0078 89.5343 75.0341 89.2276 74.9915 88.9268C74.7059 84.5707 74.0825 80.0167 72.2463 76.01Z" fill="#DDDDDD"/>
<path d="M71.9362 73.8768C72.2279 73.243 72.6209 72.6649 72.9679 72.0589C73.0672 71.9095 73.1312 71.7393 73.1552 71.5612C73.1661 71.4715 73.1492 71.3806 73.1069 71.3009C73.0646 71.2213 72.9989 71.1567 72.9188 71.116C72.5718 70.9831 72.3047 71.4653 71.9331 71.5395C71.5616 71.6137 71.319 71.3262 71.0795 71.082C70.0535 70.0507 68.84 69.2278 67.5052 68.6582C67.4378 68.6168 67.3626 68.59 67.2844 68.5793C67.2062 68.5687 67.1266 68.5745 67.0508 68.5963C66.9034 68.6582 66.8635 68.9055 67.0139 68.9611C66.8711 68.9713 66.7288 68.9344 66.6086 68.856C66.4766 68.8004 66.2862 68.7973 66.2278 68.9271C66.1695 69.057 66.3414 69.2363 66.2985 69.4094C66.1378 69.416 65.9773 69.3919 65.8256 69.3383C65.669 69.3074 65.4632 69.36 65.4325 69.5207C65.4281 69.5811 65.4344 69.6418 65.451 69.7C65.4724 69.9428 65.4724 70.1869 65.451 70.4297C65.451 71.0758 65.8409 71.6663 66.2217 72.1764C67.0323 73.2863 67.9228 74.3405 68.5523 75.5772C68.7204 75.9645 68.9393 76.3274 69.2033 76.6561C69.5841 77.0611 70.9904 77.6455 71.3528 76.9344C71.5278 76.6005 71.3835 75.8678 71.4449 75.4752C71.5356 74.9223 71.7009 74.3846 71.9362 73.8768V73.8768Z" fill="url(#paint8_linear)"/>
<path d="M90.9865 83.6988C91.1093 84.2986 91.1278 84.985 90.7409 85.4611C90.354 85.9372 89.6354 86.0516 89.0029 86.0794C85.9322 86.2401 82.7817 85.7084 79.7909 86.4133C79.3593 86.4705 78.9609 86.6771 78.664 86.9976C78.3569 87.415 78.3968 87.99 78.4583 88.5094L78.7162 90.7292L75.7162 90.1789C75.6373 90.1758 75.5599 90.1567 75.4886 90.1226C75.4173 90.0886 75.3536 90.0403 75.3014 89.9808C75.2492 89.9213 75.2094 89.8517 75.1847 89.7763C75.1599 89.7008 75.1506 89.6211 75.1573 89.542C74.9177 88.3855 74.8147 87.2046 74.8502 86.0237C74.8896 84.8418 75.3482 83.7132 76.143 82.8425C76.8646 82.1252 77.8441 81.745 78.8175 81.4636C81.1359 80.7989 83.5586 80.6011 85.9599 80.4063C87.0008 80.3228 88.7235 80.0971 89.6232 80.802C90.354 81.3709 90.8023 82.8085 90.9865 83.6988Z" fill="url(#paint9_linear)"/>
<path d="M119.384 82.4127C119.077 82.9043 118.374 82.9476 117.787 82.9476C115.215 82.9592 112.652 83.2421 110.138 83.7916C109.211 83.9529 108.317 84.2662 107.491 84.7191C107.08 84.9465 106.719 85.2556 106.43 85.6275C106.14 85.9995 105.929 86.4267 105.809 86.8832C105.615 87.8107 106.011 88.8804 106.853 89.2977C107.374 89.5052 107.937 89.5877 108.495 89.5389L125.215 89.3565C125.598 89.3788 125.981 89.3231 126.342 89.1926C127.171 88.8247 127.527 87.7798 127.478 86.8677C126.907 75.9451 121.46 72.8349 120.554 72.9741C119.829 73.0823 119.709 78.7183 119.507 79.5252C119.276 80.4403 119.961 81.5193 119.384 82.4127Z" fill="#DDDDDD"/>
<path d="M104.933 87.0841C104.253 86.9866 103.56 87.0244 102.894 87.1954C101.548 87.5166 100.313 88.1982 99.3202 89.1679C99.2038 89.2679 99.1124 89.3938 99.0531 89.5358C99.0185 89.7026 99.044 89.8762 99.125 90.0258C99.206 90.1753 99.3373 90.291 99.4952 90.352C99.8152 90.4651 100.158 90.497 100.493 90.4447L103.634 90.2221C104.098 90.2163 104.558 90.1284 104.992 89.9624C105.511 89.7306 105.953 89.2699 106.527 89.2452C106.694 89.2604 106.861 89.2489 107.024 89.2112C107.525 89.0226 107.396 88.2126 107.11 87.9127C106.674 87.4551 105.526 87.1707 104.933 87.0841Z" fill="url(#paint10_linear)"/>
<path d="M23.4598 66.4848C23.4598 69.2889 22.4741 72.433 19.9531 73.6264C18.1414 74.4828 15.909 74.0778 14.2693 72.9277C12.6296 71.7776 11.5272 69.9783 10.8517 68.0831C10.0748 65.9005 9.8138 63.4797 10.4678 61.2569C11.1219 59.034 12.78 57.0554 14.9725 56.3505C21.08 54.3997 23.4659 61.8505 23.4598 66.4848Z" fill="url(#paint11_linear)"/>
<path d="M14.4996 60.4067C14.7126 60.3525 14.9187 60.2736 15.1137 60.1717C15.4699 59.946 15.6542 59.5225 15.9797 59.2442C16.3405 59.0092 16.7483 58.8572 17.1742 58.799C18.2911 58.5333 19.3485 58.0582 20.2909 57.3985C21.2121 56.7524 22.0718 55.6672 21.7095 54.6161C21.563 54.2416 21.3178 53.9145 21.0002 53.6701C20.5211 53.2781 19.9566 53.006 19.353 52.8759C18.7494 52.7459 18.1237 52.7616 17.5273 52.9219C15.8937 53.3856 14.7637 54.8511 13.3973 55.8527C11.7821 57.0306 9.60807 57.7634 8.88032 59.6338C8.48728 60.6478 8.61625 61.8226 8.15565 62.8089C7.93456 63.2819 7.56916 63.7673 7.71348 64.2712C7.84552 64.7195 8.35524 65.0163 8.37367 65.4831C8.35857 65.7059 8.29683 65.9229 8.1925 66.12C7.79024 67.134 8.00212 68.315 8.49956 69.2827C9.04928 70.2275 9.73772 71.0833 10.5415 71.8209C11.4627 72.7484 12.648 73.7717 13.9469 73.5337C14.0236 73.5233 14.097 73.4959 14.1618 73.4533C14.4259 73.2523 14.1618 72.835 13.9315 72.6124C13.0509 71.7588 12.3983 70.6955 12.0339 69.5207C11.9772 69.3816 11.9654 69.228 12.0001 69.0817C12.052 68.9737 12.1406 68.8878 12.2498 68.8397C12.359 68.7915 12.4817 68.7841 12.5958 68.819C12.8226 68.8944 13.028 69.0238 13.1946 69.1961C13.32 69.0719 13.3995 68.9083 13.4202 68.7324C13.4408 68.5565 13.4013 68.3787 13.3082 68.2285C12.8998 67.4586 12.2028 66.9918 11.8435 66.1447C11.5248 65.5048 11.411 64.7811 11.518 64.0733C11.7852 62.4379 12.8906 60.9168 14.4996 60.4067Z" fill="#3E3E54"/>
<path d="M22.9132 70.9769C22.0989 70.9195 21.2925 71.1685 20.6501 71.6756C20.3615 71.8827 20.0606 72.2104 20.168 72.5536C20.2364 72.6936 20.345 72.8097 20.4797 72.8869C20.6143 72.964 20.7689 72.9987 20.9234 72.9864C21.2316 72.956 21.5427 72.9759 21.8446 73.0452C21.2863 73.7917 20.9202 74.6659 20.7791 75.5896C20.644 76.4892 20.7791 77.5404 21.5314 78.0628C22.064 78.379 22.6895 78.4982 23.3001 78.3998C23.7887 78.3723 24.2674 78.2495 24.7095 78.0381C25.1802 77.7663 25.5668 77.3684 25.8265 76.8887C26.0861 76.409 26.2086 75.8662 26.1804 75.3206C26.1435 74.2664 25.6184 73.3698 24.9337 72.6062C24.3288 71.9353 23.905 71.0944 22.9132 70.9769Z" fill="url(#paint12_linear)"/>
<path d="M80.9823 66.627C80.6241 67.2989 80.3645 68.0195 80.2116 68.7664C80.1178 69.4399 80.1851 70.1262 80.4078 70.7682C80.6305 71.4102 81.0022 71.9895 81.492 72.4578C82.2075 73.141 83.1901 73.6449 83.5002 74.5879C83.7827 75.4504 83.402 76.4429 83.7674 77.2838C84.1328 78.1247 85.1307 78.4709 85.9905 78.2885C86.8458 78.0571 87.5801 77.5037 88.0417 76.7427C88.4889 75.9801 88.8642 75.1769 89.1625 74.3437C89.6139 73.2548 90.1403 72.199 90.7377 71.184C91.1833 70.4924 91.5784 69.7692 91.9199 69.0199C92.2674 68.1283 92.4485 67.1798 92.4542 66.222C92.4972 64.0084 91.6958 61.6742 89.924 60.3634C89.1105 59.774 88.1316 59.461 87.1294 59.4699C86.1272 59.4788 85.1538 59.8091 84.3508 60.4129C83.5309 61.0312 83.2515 61.8566 82.8155 62.7718C82.2034 64.0496 81.5923 65.3347 80.9823 66.627Z" fill="url(#paint13_linear)"/>
<path d="M84.8298 55.3519C84.5228 55.0644 84.1051 54.7336 83.7551 54.9562C83.6266 55.0502 83.53 55.182 83.4787 55.3334C83.2551 55.8782 83.2237 56.4838 83.3897 57.0492C83.0463 56.8794 82.6531 56.842 82.2843 56.9441C81.7285 57.1821 81.6425 57.9581 81.8206 58.5393C81.9987 59.1206 82.3426 59.6647 82.3457 60.2707C82.3457 60.5798 82.2535 60.889 82.2474 61.2167C82.2324 61.3751 82.2626 61.5346 82.3344 61.6764C82.4062 61.8182 82.5166 61.9365 82.6527 62.0174C83.0304 62.1874 83.4358 61.8876 83.7797 61.6526C85.6036 60.416 88.3856 60.9879 89.5863 62.8521C90.7869 64.7164 90.3355 67.1186 89.8595 69.2672C89.9793 69.4527 90.2065 69.1714 90.3509 69.0044C90.6579 68.6489 91.3212 68.9395 91.4133 69.4033C91.4355 69.639 91.3921 69.8764 91.288 70.0888C91.1839 70.3012 91.0231 70.4802 90.8237 70.6059C90.443 70.8841 89.9885 71.0418 89.5955 71.2953C89.5414 71.3219 89.4932 71.3592 89.4537 71.4048C89.4141 71.4505 89.384 71.5037 89.3652 71.5612C89.354 71.6628 89.3744 71.7654 89.4235 71.8549C89.5502 72.1465 89.6937 72.4304 89.8534 72.7051C89.9052 72.8229 89.9809 72.9286 90.0755 73.0154C90.1701 73.1021 90.2817 73.1681 90.403 73.209C90.5819 73.2239 90.761 73.1829 90.9159 73.0915C92.1717 72.4732 93.0254 71.2644 93.7286 70.0463C94.4317 68.8282 94.9937 67.3721 94.3089 66.1973C94.1738 65.9654 94.0019 65.7613 93.8698 65.5264C93.6767 65.0755 93.5624 64.5943 93.532 64.1042C93.1837 61.8619 92.093 59.8039 90.4368 58.2642C89.6538 57.5346 88.8217 56.8977 87.7623 56.7184C86.5617 56.5236 85.7357 56.2547 84.8298 55.3519Z" fill="#B7A451"/>
<path d="M107.835 65.8108C107.743 66.9578 107.94 68.2841 108.882 68.921C109.561 69.3847 110.445 69.3693 111.268 69.3352C112.423 69.2889 113.617 69.2301 114.646 68.7169C116.221 67.944 117.161 66.29 117.876 64.6762C118.42 63.5756 118.77 62.3883 118.911 61.1672C119.003 59.9306 118.699 58.6445 117.864 57.7479C117.33 57.207 116.67 56.8095 115.945 56.5916C110.838 54.9005 108.145 61.8195 107.835 65.8108Z" fill="url(#paint14_linear)"/>
<path d="M111.213 54.8603C111.232 54.4444 111.347 54.0388 111.551 53.6763C111.802 53.3157 112.168 53.0528 112.588 52.9312C113.872 52.5231 115.232 53.1321 116.439 53.7288L119.571 55.2746C120.159 55.4683 120.694 55.7992 121.131 56.2403C121.568 56.6814 121.895 57.2202 122.086 57.8128C122.273 58.1982 122.397 58.6117 122.451 59.0371C122.461 59.6084 122.324 60.1725 122.055 60.6756C121.887 61.1205 121.6 61.51 121.226 61.801C121.549 61.9494 121.641 62.3729 121.601 62.7285C121.51 63.3546 121.222 63.9347 120.778 64.3825C120.335 64.8262 119.846 65.221 119.319 65.5604L118.306 66.2653C118.128 66.3889 117.904 66.5188 117.692 66.4291C117.619 66.388 117.558 66.3265 117.519 66.252C117.479 66.1774 117.461 66.093 117.468 66.0087C117.483 65.8403 117.528 65.676 117.6 65.5233C118.126 64.1854 118.36 62.7495 118.288 61.3125C118.289 61.0633 118.241 60.8163 118.146 60.586C118.037 60.3908 117.897 60.2144 117.732 60.0635L116.27 58.5888C115.908 58.1882 115.495 57.8369 115.042 57.5439C114.612 57.2964 114.132 57.1531 113.638 57.1252C113.143 57.0973 112.65 57.1856 112.195 57.3831C111.993 57.4727 111.63 57.7108 111.4 57.649C111.093 57.5655 111.176 57.2718 111.158 56.9688C111.115 56.2657 111.134 55.5602 111.213 54.8603V54.8603Z" fill="#3E3E54"/>
<path d="M119.031 65.344C119.055 65.5349 119.04 65.7287 118.987 65.9136C118.934 66.0985 118.844 66.2708 118.724 66.4199C118.474 66.7556 118.14 67.0182 117.756 67.1804C117.584 67.2718 117.383 67.2949 117.194 67.2453C117.067 67.179 116.961 67.0775 116.888 66.9527C116.816 66.8278 116.781 66.6848 116.786 66.5404C116.777 66.2157 116.848 65.8937 116.992 65.6031C117.136 65.3124 117.349 65.062 117.612 64.874C118.134 64.5309 118.902 64.6205 119.031 65.344Z" fill="url(#paint15_linear)"/>
<path d="M107.725 63.6529C108.019 63.5598 108.323 63.4987 108.63 63.4705C108.834 63.4432 109.041 63.4432 109.245 63.4705C109.499 63.5284 109.746 63.6177 109.978 63.7363C110.593 64.0208 111.259 64.3547 111.557 64.973C111.635 65.1841 111.725 65.3906 111.827 65.5913C112.091 65.9172 112.45 66.1517 112.853 66.2622C113.181 66.3889 113.218 66.8341 113.494 67.0505C113.826 67.3102 114.308 67.2051 114.68 67.0165C115.098 66.8088 115.467 66.5137 115.764 66.1509C115.943 65.8754 116.171 65.6355 116.436 65.4429C116.573 65.3543 116.738 65.3237 116.897 65.3579C117.056 65.3921 117.195 65.4882 117.284 65.6253C117.313 65.7358 117.318 65.8513 117.3 65.9641C117.282 66.077 117.241 66.1849 117.179 66.2807C116.73 67.1971 116.119 68.0236 115.377 68.72C115.134 68.962 114.861 69.17 114.563 69.3383C114.109 69.5488 113.623 69.6805 113.126 69.7279C112.135 69.87 111.136 69.9474 110.135 69.9597C109.556 69.9979 108.975 69.9169 108.428 69.7217C108.26 69.6523 108.105 69.5563 107.967 69.4373C107.637 69.0866 107.422 68.6417 107.353 68.1635C106.981 66.5373 107.19 65.2018 107.725 63.6529Z" fill="#3E3E54"/>
<path d="M110.906 67.0969C110.927 67.2891 110.889 67.4832 110.798 67.6534C110.599 67.9626 110.166 68.0089 109.8 67.9626C109.462 67.9158 109.134 67.8112 108.83 67.6534C108.711 67.5962 108.606 67.5127 108.523 67.4092C108.412 67.2234 108.365 67.0063 108.388 66.7908C108.391 66.488 108.412 66.1856 108.449 65.885C108.468 65.6605 108.522 65.4404 108.609 65.2327C108.75 64.9235 108.984 64.6947 109.315 64.8308C109.612 64.9576 109.882 65.1402 110.11 65.3687C110.578 65.8268 110.861 66.442 110.906 67.0969Z" fill="url(#paint16_linear)"/>
<path d="M53.0547 77.0426C53.2997 76.2133 53.6761 75.4293 54.1694 74.7208L55.7907 72.1084C55.8331 72.0183 55.9045 71.9453 55.9933 71.9013C56.0468 71.891 56.1018 71.8923 56.1548 71.9051C56.2077 71.9179 56.2574 71.9419 56.3004 71.9755C57.0558 72.4485 57.24 73.4811 57.1479 74.3715C57.0558 75.2619 56.761 76.143 56.8408 77.0334C56.9397 77.5143 57.0114 78.0004 57.0558 78.4895C57.0398 78.8524 56.9469 79.2076 56.7832 79.5313C56.6196 79.855 56.389 80.1396 56.1069 80.3661C55.416 80.9504 53.8592 81.7512 53.2758 80.7C52.7876 79.7942 52.8398 77.9948 53.0547 77.0426Z" fill="url(#paint17_linear)"/>
<path d="M54.7712 79.7509C53.9759 79.9673 53.1438 80.3537 52.8029 81.1081C52.6613 81.4833 52.5895 81.8815 52.591 82.2829C52.4744 84.3769 52.4293 86.473 52.4559 88.5712C52.4181 88.9972 52.5171 89.4242 52.7384 89.7893C53.0455 90.1881 53.6013 90.2871 54.1049 90.3025C55.0515 90.3307 55.9933 90.1568 56.8685 89.7924C57.1468 89.7086 57.3856 89.5264 57.5409 89.2792C57.6244 89.0673 57.6519 88.8372 57.6208 88.6114C57.5133 86.5308 57.0312 84.4316 57.0066 82.3602C56.9759 80.8948 56.7426 79.2129 54.7712 79.7509Z" fill="#DDDDDD"/>
<path d="M49.1734 89.0535C49.0525 89.0523 48.9336 89.0844 48.8295 89.1463C48.721 89.2547 48.6536 89.398 48.6391 89.5513C48.5286 90.1201 48.4733 90.8095 48.9186 91.1744C49.1427 91.3287 49.401 91.4253 49.6709 91.4557C50.3219 91.5793 50.9759 91.6937 51.6269 91.805C51.8366 91.8591 52.0575 91.8505 52.2625 91.7803C52.414 91.6863 52.5596 91.583 52.6985 91.4711C52.9562 91.3534 53.2443 91.321 53.5215 91.3784C54.2277 91.4495 54.934 91.5484 55.6341 91.6876C55.8699 91.7465 56.1146 91.7612 56.3557 91.7308C56.4758 91.7136 56.5888 91.6627 56.6816 91.584C56.7744 91.5053 56.8434 91.4019 56.8808 91.2856C56.9667 90.9301 56.6351 90.6179 56.328 90.4169C54.1417 88.9608 51.6914 88.8804 49.1734 89.0535Z" fill="url(#paint18_linear)"/>
<path d="M46.7169 79.1511C47.1929 79.6921 48.7958 80.193 49.4344 79.8622C49.8582 79.6427 49.895 78.4586 50.0854 78.0072C50.232 77.6531 50.3441 77.2856 50.4201 76.9097C50.5713 76.3909 50.6029 75.8442 50.5122 75.3113C50.4633 75.046 50.3407 74.8 50.1587 74.602C49.9766 74.4039 49.7425 74.2618 49.4836 74.1921C48.98 74.0994 45.9216 73.7531 46.2133 74.1767C47.4201 75.942 45.5777 77.8619 46.7169 79.1511Z" fill="url(#paint19_linear)"/>
<path d="M47.7026 77.2497C47.8408 77.6721 48.0295 78.0759 48.2645 78.4524C48.3842 78.6399 48.5427 78.7992 48.7293 78.9193C48.9159 79.0394 49.126 79.1174 49.3454 79.148C49.45 79.1586 49.5555 79.1426 49.6524 79.1016C49.9288 78.9718 50.0025 78.6193 50.0424 78.3163L50.2604 76.6778C50.2867 76.5546 50.2804 76.4267 50.242 76.3068C50.188 76.2055 50.1086 76.1203 50.0117 76.0595C49.7793 75.8842 49.5373 75.7222 49.287 75.5741C48.7681 75.2649 48.0895 74.9249 47.4631 75.0454C47.3598 75.0599 47.2624 75.1028 47.1817 75.1694C47.101 75.2359 47.04 75.3235 47.0055 75.4226C46.9288 75.6916 47.1376 75.9667 47.245 76.1955C47.4109 76.5325 47.5613 76.888 47.7026 77.2497Z" fill="url(#paint20_linear)"/>
<path d="M53.3587 67.5328C53.3587 67.5328 54.8357 73.546 53.1591 75.639C51.4826 77.732 48.7957 77.6671 47.7241 76.517C46.6524 75.367 42.6667 70.3338 44.1437 67.3071C45.6207 64.2804 51.3904 60.6416 53.3587 67.5328Z" fill="url(#paint21_linear)"/>
<path d="M47.2051 65.8386C47.0915 66.5373 47.1867 67.2731 46.9411 67.9347C46.5112 69.0848 45.1724 69.6846 44.7302 70.8285C44.6227 71.1067 44.5736 71.4066 44.4446 71.6756C44.3916 71.8152 44.3039 71.9388 44.1899 72.0346C44.076 72.1304 43.9395 72.1952 43.7936 72.2228C43.6465 72.2254 43.5016 72.1861 43.3756 72.1096C43.2496 72.033 43.1476 71.9222 43.0813 71.79C42.9508 71.5241 42.8785 71.2331 42.8694 70.9367C42.679 68.9581 42.9062 66.8527 44.0025 65.2018C44.4226 64.5566 44.9828 64.016 45.6408 63.6207C46.2988 63.2254 47.0374 62.9859 47.8009 62.9201C48.7221 62.8707 49.0291 63.0654 48.3843 63.7518C47.807 64.3639 47.3464 64.9637 47.2051 65.8386Z" fill="#3E3E54"/>
<path d="M44.549 72.9215C44.4765 72.9247 44.4063 72.9483 44.3464 72.9895C44.3091 73.0234 44.2788 73.0644 44.2573 73.1101C44.1347 73.2984 44.0785 73.5226 44.0976 73.7469C44.1467 73.9155 44.2422 74.0666 44.3733 74.1827C44.5043 74.2987 44.6653 74.3749 44.8377 74.4024C45.2101 74.5005 45.6022 74.493 45.9707 74.3807C46.0068 74.3727 46.0398 74.3545 46.0659 74.3282C46.0839 74.2961 46.0934 74.2599 46.0934 74.223C46.0934 74.1862 46.0839 74.15 46.0659 74.1179C45.9246 73.7866 45.7307 73.4807 45.4917 73.2121C45.3736 73.0849 45.2243 72.9911 45.0589 72.9401C44.8935 72.8891 44.7177 72.8827 44.549 72.9215Z" fill="url(#paint22_linear)"/>
<path d="M72.1388 89.8511C71.973 90.0552 71.8317 90.3674 72.0098 90.5498C72.0721 90.5962 72.1434 90.629 72.219 90.646C72.2946 90.6631 72.3729 90.664 72.4489 90.6488L77.9577 90.3211C78.0489 90.3205 78.1394 90.3038 78.2248 90.2716C78.4981 90.1479 78.5319 89.7708 78.4981 89.4678C78.4674 88.9886 78.4367 88.5125 78.4029 88.0364C78.3692 87.5603 78.4766 87.3593 77.9792 87.2913C77.2914 87.1954 76.4254 87.4211 75.7683 87.6004C74.3581 87.9586 73.0911 88.7443 72.1388 89.8511V89.8511Z" fill="url(#paint23_linear)"/>
<path opacity="0.43" d="M61.6464 21.8512C59.804 19.007 59.5645 14.8889 61.8368 12.3693C62.9148 11.2306 64.3208 10.4617 65.8563 10.1711C68.5277 9.60848 71.5861 10.3968 73.2258 12.5888C74.1947 13.9451 74.6519 15.6045 74.5155 17.2695C74.3771 18.9249 73.8509 20.5236 72.9802 21.9347C72.4919 22.7663 71.9055 23.5671 71.6905 24.51C71.5523 25.1283 71.5769 25.7467 71.4602 26.365C71.2768 27.2204 70.8304 27.9959 70.1844 28.5814C69.5384 29.1669 68.7256 29.5326 67.8614 29.6266C66.3261 29.7596 64.1766 28.7424 63.8696 27.0791C63.7037 26.1795 63.8696 25.487 63.4397 24.5842C62.9729 23.5949 62.239 22.7602 61.6464 21.8512Z" fill="#DDDDDD"/>
<path d="M64.8675 27.5769C65.2145 25.8703 64.8675 24.1143 64.6556 22.3861C64.5489 21.815 64.5741 21.2269 64.7293 20.6672C64.9259 20.123 65.4417 19.6531 66.0129 19.6964C66.6639 19.7489 67.0968 20.3982 67.3087 21.0196C67.5671 21.7845 67.646 22.5994 67.539 23.4001C67.4806 23.8237 67.324 24.3029 66.9249 24.4637C66.5579 23.9183 66.4065 23.2546 66.5002 22.6026C66.594 21.9507 66.9261 21.3575 67.4315 20.9392C67.6414 20.7558 67.9122 20.6586 68.19 20.6672C68.6383 20.7166 68.9269 21.1804 69.0344 21.6225C69.1603 22.1322 69.1444 22.667 68.9883 23.1683C68.9536 23.3157 68.8742 23.4486 68.7611 23.5485C68.7017 23.5932 68.6282 23.6146 68.5542 23.6089C68.4803 23.6032 68.4109 23.5708 68.3589 23.5176C68.3187 23.445 68.2996 23.3626 68.3036 23.2796C68.2545 22.315 68.3036 21.2422 68.9699 20.5435C69.0688 20.4203 69.2082 20.337 69.363 20.3085C69.4904 20.2974 69.6182 20.3265 69.7284 20.392C70.3578 20.763 70.5636 21.6039 70.45 22.3273C70.3364 23.0508 69.974 23.7062 69.7069 24.3864C69.2761 25.4858 69.0845 26.6655 69.1449 27.8459" stroke="white" stroke-width="0.78" stroke-miterlimit="10"/>
<path d="M63.1664 28.6095C63.0958 28.7239 62.9975 28.8166 62.9299 28.9186C62.7058 29.2927 62.8348 29.7719 62.9729 30.1893C63.2432 31.0086 63.5472 31.8804 64.2319 32.4029C64.716 32.7308 65.2728 32.9336 65.8532 32.9934C66.9845 33.1693 68.1374 33.1483 69.2616 32.9315C69.7748 32.8533 70.2686 32.6781 70.7171 32.4153C70.9403 32.2827 71.1347 32.1062 71.2887 31.8964C71.4428 31.6866 71.5533 31.4478 71.6138 31.1941C71.6299 31.0374 71.6587 30.8823 71.6997 30.7303C71.7458 30.5974 71.8287 30.4799 71.887 30.3532C71.9497 30.2067 71.9821 30.0489 71.9821 29.8894C71.9821 29.7299 71.9497 29.5721 71.887 29.4257C71.7865 29.2513 71.7041 29.0669 71.6414 28.8754C71.6211 28.6869 71.6346 28.4963 71.6813 28.3127C71.786 27.6009 71.637 26.8747 71.2606 26.263C70.3429 27.0383 69.2343 27.5499 68.0518 27.7438C66.9315 27.9159 65.7867 27.6884 64.8153 27.1008C64.4069 26.838 63.9893 26.3681 63.6178 26.9369C63.28 27.4378 63.4673 28.121 63.1664 28.6095Z" fill="#3E3E54"/>
</g>
<defs>
<linearGradient id="paint0_linear" x1="45.9216" y1="81.4018" x2="48.9473" y2="70.502" gradientUnits="userSpaceOnUse">
<stop stop-opacity="0"/>
<stop offset="0.99"/>
</linearGradient>
<linearGradient id="paint1_linear" x1="26.1276" y1="905.954" x2="55343.7" y2="905.954" gradientUnits="userSpaceOnUse">
<stop stop-opacity="0"/>
<stop offset="0.99"/>
</linearGradient>
<linearGradient id="paint2_linear" x1="43.8397" y1="82.5333" x2="50.3618" y2="102.686" gradientUnits="userSpaceOnUse">
<stop stop-opacity="0"/>
<stop offset="0.8"/>
</linearGradient>
<linearGradient id="paint3_linear" x1="1799.4" y1="4221.99" x2="1959.72" y2="5280.38" gradientUnits="userSpaceOnUse">
<stop stop-opacity="0"/>
<stop offset="0.8"/>
</linearGradient>
<linearGradient id="paint4_linear" x1="13.9346" y1="75.2464" x2="19.7013" y2="75.2464" gradientUnits="userSpaceOnUse">
<stop stop-color="#E5C5D5"/>
<stop offset="0.42" stop-color="#EAD4D1"/>
<stop offset="1" stop-color="#F0E9CB"/>
</linearGradient>
<linearGradient id="paint5_linear" x1="393.741" y1="1211.49" x2="403.681" y2="1060.74" gradientUnits="userSpaceOnUse">
<stop stop-opacity="0"/>
<stop offset="0.99"/>
</linearGradient>
<linearGradient id="paint6_linear" x1="11691.6" y1="5441.36" x2="11445.3" y2="6778.52" gradientUnits="userSpaceOnUse">
<stop stop-opacity="0"/>
<stop offset="0.99"/>
</linearGradient>
<linearGradient id="paint7_linear" x1="111.336" y1="71.0016" x2="116.135" y2="71.0016" gradientUnits="userSpaceOnUse">
<stop stop-color="#867580"/>
<stop offset="0.57" stop-color="#9B8F8E"/>
</linearGradient>
<linearGradient id="paint8_linear" x1="1858.17" y1="2432.72" x2="2052.66" y2="2432.72" gradientUnits="userSpaceOnUse">
<stop stop-color="#E5C5D5"/>
<stop offset="0.42" stop-color="#EAD4D1"/>
<stop offset="1" stop-color="#F0E9CB"/>
</linearGradient>
<linearGradient id="paint9_linear" x1="4667.13" y1="3125.55" x2="4823.38" y2="4050.56" gradientUnits="userSpaceOnUse">
<stop stop-opacity="0"/>
<stop offset="0.99"/>
</linearGradient>
<linearGradient id="paint10_linear" x1="2941.16" y1="1197.77" x2="3166.83" y2="1197.77" gradientUnits="userSpaceOnUse">
<stop stop-color="#867580"/>
<stop offset="0.57" stop-color="#9B8F8E"/>
</linearGradient>
<linearGradient id="paint11_linear" x1="702.316" y1="4505.67" x2="1283.89" y2="4505.67" gradientUnits="userSpaceOnUse">
<stop stop-color="#E5C5D5"/>
<stop offset="0.42" stop-color="#EAD4D1"/>
<stop offset="1" stop-color="#F0E9CB"/>
</linearGradient>
<linearGradient id="paint12_linear" x1="530.589" y1="2143.45" x2="649.307" y2="2143.45" gradientUnits="userSpaceOnUse">
<stop stop-color="#E5C5D5"/>
<stop offset="0.42" stop-color="#EAD4D1"/>
<stop offset="1" stop-color="#F0E9CB"/>
</linearGradient>
<linearGradient id="paint13_linear" x1="3519.84" y1="4943.36" x2="4011.74" y2="4943.36" gradientUnits="userSpaceOnUse">
<stop stop-color="#E5C5D5"/>
<stop offset="0.42" stop-color="#EAD4D1"/>
<stop offset="1" stop-color="#F0E9CB"/>
</linearGradient>
<linearGradient id="paint14_linear" x1="4219.65" y1="3171.97" x2="4622.24" y2="3171.97" gradientUnits="userSpaceOnUse">
<stop stop-color="#867580"/>
<stop offset="0.57" stop-color="#9B8F8E"/>
</linearGradient>
<linearGradient id="paint15_linear" x1="1017.54" y1="710.712" x2="1034.26" y2="710.712" gradientUnits="userSpaceOnUse">
<stop stop-color="#867580"/>
<stop offset="0.57" stop-color="#9B8F8E"/>
</linearGradient>
<linearGradient id="paint16_linear" x1="1048.96" y1="863.971" x2="1069.78" y2="863.971" gradientUnits="userSpaceOnUse">
<stop stop-color="#867580"/>
<stop offset="0.57" stop-color="#9B8F8E"/>
</linearGradient>
<linearGradient id="paint17_linear" x1="869.582" y1="2714.78" x2="929.135" y2="2714.78" gradientUnits="userSpaceOnUse">
<stop stop-color="#E5C5D5"/>
<stop offset="0.42" stop-color="#EAD4D1"/>
<stop offset="1" stop-color="#F0E9CB"/>
</linearGradient>
<linearGradient id="paint18_linear" x1="1524.11" y1="1025.91" x2="1750.27" y2="1025.91" gradientUnits="userSpaceOnUse">
<stop stop-color="#E5C5D5"/>
<stop offset="0.42" stop-color="#EAD4D1"/>
<stop offset="1" stop-color="#F0E9CB"/>
</linearGradient>
<linearGradient id="paint19_linear" x1="786.134" y1="1783.34" x2="848.393" y2="1783.34" gradientUnits="userSpaceOnUse">
<stop stop-color="#E5C5D5"/>
<stop offset="0.42" stop-color="#EAD4D1"/>
<stop offset="1" stop-color="#F0E9CB"/>
</linearGradient>
<linearGradient id="paint20_linear" x1="611.765" y1="1285.71" x2="682.952" y2="1198.19" gradientUnits="userSpaceOnUse">
<stop stop-opacity="0"/>
<stop offset="0.99"/>
</linearGradient>
<linearGradient id="paint21_linear" x1="1682.81" y1="3683.71" x2="2017.65" y2="3683.71" gradientUnits="userSpaceOnUse">
<stop stop-color="#E5C5D5"/>
<stop offset="0.42" stop-color="#EAD4D1"/>
<stop offset="1" stop-color="#F0E9CB"/>
</linearGradient>
<linearGradient id="paint22_linear" x1="369.027" y1="504.896" x2="382.063" y2="504.896" gradientUnits="userSpaceOnUse">
<stop stop-color="#E5C5D5"/>
<stop offset="0.42" stop-color="#EAD4D1"/>
<stop offset="1" stop-color="#F0E9CB"/>
</linearGradient>
<linearGradient id="paint23_linear" x1="1738.07" y1="1185.27" x2="1879.12" y2="1185.27" gradientUnits="userSpaceOnUse">
<stop stop-color="#E5C5D5"/>
<stop offset="0.42" stop-color="#EAD4D1"/>
<stop offset="1" stop-color="#F0E9CB"/>
</linearGradient>
<clipPath id="clip0">
<rect width="130.765" height="95" fill="white"/>
</clipPath>
</defs>
</svg>
