<svg width="133" height="88" viewBox="0 0 133 88" fill="none" xmlns="http://www.w3.org/2000/svg">
<path d="M120.427 0.280731H14.5444V64.0238H120.427V0.280731Z" fill="white"/>
<path d="M120.427 64.2303H14.5444C14.4897 64.2303 14.4372 64.2085 14.3985 64.1698C14.3598 64.1311 14.338 64.0786 14.338 64.0238V0.280732C14.338 0.225986 14.3598 0.173481 14.3985 0.13477C14.4372 0.0960581 14.4897 0.0743103 14.5444 0.0743103H120.427C120.481 0.0743103 120.534 0.0960581 120.572 0.13477C120.611 0.173481 120.633 0.225986 120.633 0.280732V64.0238C120.633 64.0786 120.611 64.1311 120.572 64.1698C120.534 64.2085 120.481 64.2303 120.427 64.2303ZM14.7385 63.8174H120.22V0.487154H14.7509L14.7385 63.8174Z" fill="#231F20"/>
<path d="M109.234 12.8147H100.024V22.0252H109.234V12.8147Z" fill="white"/>
<path d="M109.234 22.2316H100.024C99.9691 22.2316 99.9166 22.2099 99.8778 22.1712C99.8391 22.1325 99.8174 22.08 99.8174 22.0252V12.7982C99.8174 12.7434 99.8391 12.6909 99.8778 12.6522C99.9166 12.6135 99.9691 12.5917 100.024 12.5917H109.234C109.289 12.5928 109.341 12.6149 109.379 12.6534C109.418 12.6918 109.44 12.7437 109.441 12.7982V22.0252C109.441 22.08 109.419 22.1325 109.38 22.1712C109.342 22.2099 109.289 22.2316 109.234 22.2316ZM100.23 21.8188H109.028V13.0211H100.23V21.8188Z" fill="#D1D3D4"/>
<path d="M107.554 14.9986H101.7C101.646 14.9976 101.594 14.9755 101.555 14.937C101.517 14.8985 101.495 14.8466 101.494 14.7922C101.494 14.7375 101.515 14.685 101.554 14.6462C101.593 14.6075 101.645 14.5858 101.7 14.5858H107.554C107.609 14.5858 107.661 14.6075 107.7 14.6462C107.739 14.685 107.76 14.7375 107.76 14.7922C107.76 14.847 107.739 14.8995 107.7 14.9382C107.661 14.9769 107.609 14.9986 107.554 14.9986Z" fill="#D1D3D4"/>
<path d="M107.554 16.7161H101.7C101.645 16.7161 101.593 16.6943 101.554 16.6556C101.515 16.6169 101.494 16.5644 101.494 16.5096C101.495 16.4552 101.517 16.4033 101.555 16.3648C101.594 16.3264 101.646 16.3043 101.7 16.3032H107.554C107.609 16.3032 107.661 16.325 107.7 16.3637C107.739 16.4024 107.76 16.4549 107.76 16.5096C107.76 16.5644 107.739 16.6169 107.7 16.6556C107.661 16.6943 107.609 16.7161 107.554 16.7161Z" fill="#D1D3D4"/>
<path d="M107.554 18.4376H101.7C101.645 18.4376 101.593 18.4159 101.554 18.3771C101.515 18.3384 101.494 18.2859 101.494 18.2312C101.495 18.1768 101.517 18.1249 101.555 18.0864C101.594 18.0479 101.646 18.0258 101.7 18.0248H107.554C107.609 18.0248 107.661 18.0465 107.7 18.0852C107.739 18.1239 107.76 18.1764 107.76 18.2312C107.76 18.2859 107.739 18.3384 107.7 18.3771C107.661 18.4159 107.609 18.4376 107.554 18.4376Z" fill="#D1D3D4"/>
<path d="M105.275 20.1592H101.721C101.666 20.1592 101.613 20.1374 101.575 20.0987C101.536 20.06 101.514 20.0075 101.514 19.9528C101.515 19.8983 101.537 19.8465 101.576 19.808C101.614 19.7695 101.666 19.7474 101.721 19.7463H105.275C105.33 19.7474 105.381 19.7695 105.42 19.808C105.458 19.8465 105.481 19.8983 105.482 19.9528C105.482 20.0075 105.46 20.06 105.421 20.0987C105.382 20.1374 105.33 20.1592 105.275 20.1592Z" fill="#D1D3D4"/>
<path d="M28.0156 13.8261H18.8051V23.0367H28.0156V13.8261Z" fill="white"/>
<path d="M28.0156 23.2431H18.8051C18.7503 23.2431 18.6978 23.2214 18.6591 23.1827C18.6204 23.1439 18.5986 23.0914 18.5986 23.0367V13.8261C18.5986 13.7714 18.6204 13.7189 18.6591 13.6802C18.6978 13.6415 18.7503 13.6197 18.8051 13.6197H28.0156C28.0704 13.6197 28.1229 13.6415 28.1616 13.6802C28.2003 13.7189 28.222 13.7714 28.222 13.8261V23.0367C28.221 23.0911 28.1989 23.143 28.1604 23.1815C28.1219 23.22 28.07 23.2421 28.0156 23.2431ZM19.0115 22.8303H27.8092V14.0367H19.0115V22.8303Z" fill="#D1D3D4"/>
<path d="M26.3353 16.006H20.4812C20.4265 16.006 20.374 15.9842 20.3352 15.9455C20.2965 15.9068 20.2748 15.8543 20.2748 15.7995C20.2748 15.7448 20.2965 15.6923 20.3352 15.6536C20.374 15.6149 20.4265 15.5931 20.4812 15.5931H26.3353C26.3901 15.5931 26.4426 15.6149 26.4813 15.6536C26.52 15.6923 26.5417 15.7448 26.5417 15.7995C26.5417 15.8543 26.52 15.9068 26.4813 15.9455C26.4426 15.9842 26.3901 16.006 26.3353 16.006Z" fill="#D1D3D4"/>
<path d="M26.3353 17.7275H20.4812C20.4265 17.7275 20.374 17.7058 20.3352 17.6671C20.2965 17.6283 20.2748 17.5758 20.2748 17.5211C20.2748 17.4663 20.2965 17.4138 20.3352 17.3751C20.374 17.3364 20.4265 17.3147 20.4812 17.3147H26.3353C26.3901 17.3147 26.4426 17.3364 26.4813 17.3751C26.52 17.4138 26.5417 17.4663 26.5417 17.5211C26.5417 17.5758 26.52 17.6283 26.4813 17.6671C26.4426 17.7058 26.3901 17.7275 26.3353 17.7275Z" fill="#D1D3D4"/>
<path d="M26.3353 19.4491H20.4812C20.4265 19.4491 20.374 19.4273 20.3352 19.3886C20.2965 19.3499 20.2748 19.2974 20.2748 19.2427C20.2748 19.1879 20.2965 19.1354 20.3352 19.0967C20.374 19.058 20.4265 19.0362 20.4812 19.0362H26.3353C26.3901 19.0362 26.4426 19.058 26.4813 19.0967C26.52 19.1354 26.5417 19.1879 26.5417 19.2427C26.5417 19.2974 26.52 19.3499 26.4813 19.3886C26.4426 19.4273 26.3901 19.4491 26.3353 19.4491Z" fill="#D1D3D4"/>
<path d="M24.0358 21.1706H20.4812C20.4265 21.1706 20.374 21.1489 20.3352 21.1102C20.2965 21.0715 20.2748 21.019 20.2748 20.9642C20.2748 20.9095 20.2965 20.857 20.3352 20.8183C20.374 20.7795 20.4265 20.7578 20.4812 20.7578H24.0358C24.0905 20.7578 24.143 20.7795 24.1818 20.8183C24.2205 20.857 24.2422 20.9095 24.2422 20.9642C24.2412 21.0186 24.2191 21.0705 24.1806 21.109C24.1421 21.1475 24.0902 21.1696 24.0358 21.1706Z" fill="#D1D3D4"/>
<path d="M37.8784 28.9073H28.6678V38.1179H37.8784V28.9073Z" fill="#D1D3D4"/>
<path d="M36.1981 31.3761H30.344C30.2892 31.3761 30.2367 31.3544 30.198 31.3157C30.1593 31.277 30.1376 31.2245 30.1376 31.1697C30.1386 31.1153 30.1607 31.0634 30.1992 31.0249C30.2377 30.9864 30.2896 30.9644 30.344 30.9633H36.1981C36.2529 30.9633 36.3054 30.9851 36.3441 31.0238C36.3828 31.0625 36.4045 31.115 36.4045 31.1697C36.4045 31.2245 36.3828 31.277 36.3441 31.3157C36.3054 31.3544 36.2529 31.3761 36.1981 31.3761Z" fill="white"/>
<path d="M36.1981 33.8119H30.344C30.2892 33.8119 30.2367 33.7902 30.198 33.7515C30.1593 33.7127 30.1376 33.6602 30.1376 33.6055C30.1386 33.5511 30.1607 33.4992 30.1992 33.4607C30.2377 33.4222 30.2896 33.4001 30.344 33.3991H36.1981C36.2529 33.3991 36.3054 33.4208 36.3441 33.4595C36.3828 33.4982 36.4045 33.5508 36.4045 33.6055C36.4045 33.6602 36.3828 33.7127 36.3441 33.7515C36.3054 33.7902 36.2529 33.8119 36.1981 33.8119Z" fill="white"/>
<path d="M33.8986 36.2518H30.344C30.2892 36.2518 30.2367 36.2301 30.198 36.1914C30.1593 36.1527 30.1376 36.1002 30.1376 36.0454C30.1386 35.991 30.1607 35.9391 30.1992 35.9006C30.2377 35.8621 30.2896 35.84 30.344 35.839H33.8986C33.953 35.84 34.0049 35.8621 34.0434 35.9006C34.0819 35.9391 34.104 35.991 34.105 36.0454C34.105 36.1002 34.0833 36.1527 34.0445 36.1914C34.0058 36.2301 33.9533 36.2518 33.8986 36.2518Z" fill="white"/>
<path d="M39.922 59.9821C39.8673 59.9821 39.8148 59.9604 39.776 59.9216C39.7373 59.8829 39.7156 59.8304 39.7156 59.7757V2.2211C39.7166 2.16669 39.7387 2.11479 39.7772 2.07631C39.8157 2.03782 39.8676 2.01574 39.922 2.01468C39.9767 2.01468 40.0293 2.03643 40.068 2.07514C40.1067 2.11385 40.1284 2.16635 40.1284 2.2211V59.7757C40.1284 59.8304 40.1067 59.8829 40.068 59.9216C40.0293 59.9604 39.9767 59.9821 39.922 59.9821Z" fill="#D1D3D4"/>
<path d="M67.4875 59.9821C67.4328 59.9821 67.3803 59.9604 67.3416 59.9216C67.3029 59.8829 67.2811 59.8304 67.2811 59.7757V2.2211C67.2811 2.16635 67.3029 2.11385 67.3416 2.07514C67.3803 2.03643 67.4328 2.01468 67.4875 2.01468C67.542 2.01574 67.5939 2.03782 67.6323 2.07631C67.6708 2.11479 67.6929 2.16669 67.694 2.2211V59.7757C67.694 59.8304 67.6722 59.8829 67.6335 59.9216C67.5948 59.9604 67.5423 59.9821 67.4875 59.9821Z" fill="#D1D3D4"/>
<path d="M95.0491 59.9821C94.9943 59.9821 94.9418 59.9604 94.9031 59.9216C94.8644 59.8829 94.8427 59.8304 94.8427 59.7757V2.2211C94.8437 2.16669 94.8658 2.11479 94.9043 2.07631C94.9428 2.03782 94.9947 2.01574 95.0491 2.01468C95.1038 2.01468 95.1563 2.03643 95.195 2.07514C95.2337 2.11385 95.2555 2.16635 95.2555 2.2211V59.7757C95.2555 59.8304 95.2337 59.8829 95.195 59.9216C95.1563 59.9604 95.1038 59.9821 95.0491 59.9821Z" fill="#D1D3D4"/>
<path d="M100.115 74.5803C100.115 74.5803 95.3917 72.1858 92.9972 73.383C90.6027 74.5803 89.1908 74.5803 89.2816 75.4472C89.3724 76.3142 90.4788 76.3183 90.4788 76.3183C90.4788 76.3183 89.0628 76.9583 89.9339 77.5569C90.4405 77.9171 91.0557 78.092 91.6761 78.0523C91.6761 78.0523 89.3889 78.8161 90.4788 79.4683C91.5688 80.1206 93.8889 79.9307 94.6857 80.0794C95.4825 80.228 102.555 82.5151 102.555 82.5151L100.115 74.5803Z" fill="white"/>
<path d="M102.571 82.7298C102.549 82.7342 102.527 82.7342 102.505 82.7298C102.435 82.7092 95.4372 80.4468 94.661 80.3023C94.3091 80.2573 93.9548 80.2325 93.6 80.228C92.5225 80.1908 91.1849 80.1454 90.384 79.6665C90.0289 79.4518 89.9711 79.2124 89.9918 79.0514C90.0289 78.7087 90.4418 78.4156 90.8463 78.2257C90.4823 78.1374 90.1379 77.982 89.8308 77.7674C89.7144 77.706 89.6178 77.613 89.552 77.499C89.4863 77.3851 89.4541 77.2549 89.4592 77.1234C89.4877 76.9877 89.5428 76.8591 89.6215 76.745C89.7002 76.6309 89.8008 76.5336 89.9174 76.4587C89.7026 76.3976 89.5101 76.2753 89.3635 76.1067C89.2169 75.9381 89.1225 75.7305 89.0918 75.5092C89.0051 74.795 89.6491 74.5555 90.7142 74.1592C91.4569 73.8795 92.1833 73.5583 92.8899 73.1972C95.3463 71.9587 99.995 74.2954 100.189 74.3945C100.238 74.4211 100.275 74.4654 100.292 74.5183L102.749 82.4615C102.76 82.4971 102.762 82.5353 102.753 82.5717C102.744 82.6082 102.726 82.6415 102.699 82.6679C102.665 82.7022 102.619 82.724 102.571 82.7298ZM91.6927 77.8541C91.7392 77.8541 91.7843 77.8701 91.8204 77.8994C91.8565 77.9287 91.8813 77.9696 91.8908 78.0151C91.9027 78.0654 91.8954 78.1183 91.8701 78.1634C91.8449 78.2085 91.8037 78.2425 91.7546 78.2587C91.1271 78.4693 90.4335 78.8491 90.4087 79.0844C90.4087 79.167 90.5408 79.2619 90.6028 79.2991C91.3087 79.7119 92.667 79.7697 93.6207 79.8069C93.995 79.807 94.3688 79.8332 94.7395 79.8853C95.4413 80.0174 100.763 81.7225 102.253 82.2014L99.9413 74.7248C99.3262 74.4275 95.1977 72.5119 93.0881 73.5688C92.3631 73.925 91.6188 74.2406 90.8587 74.5142C89.7977 74.9064 89.4592 75.0674 89.5046 75.4266C89.5872 76.1037 90.4583 76.1161 90.4954 76.1161C90.5419 76.1168 90.5867 76.1332 90.6227 76.1625C90.6587 76.1919 90.6837 76.2325 90.6938 76.2779C90.7038 76.3233 90.6982 76.3707 90.678 76.4125C90.6577 76.4543 90.6239 76.488 90.5821 76.5083C90.2973 76.6362 89.8927 76.9211 89.8762 77.1275C89.8762 77.2101 89.934 77.3009 90.0702 77.3959C90.5365 77.7236 91.0987 77.8863 91.6679 77.8583L91.6927 77.8541Z" fill="#231F20"/>
<path d="M94.8799 81.4335L92.2707 70.844L82.9115 72.8752L84.9675 83.8239L94.8799 81.4335Z" fill="white"/>
<path d="M84.9674 84.0303C84.9276 84.0321 84.8884 84.0204 84.856 83.9972C84.8314 83.983 84.8105 83.9633 84.7947 83.9397C84.779 83.916 84.7689 83.8891 84.7651 83.861L82.7009 72.9124C82.6912 72.8593 82.7025 72.8046 82.7326 72.7598C82.7627 72.7151 82.8091 72.6839 82.8619 72.6729L92.217 70.6417C92.2695 70.6305 92.3243 70.6402 92.3697 70.6687C92.4152 70.6972 92.4478 70.7424 92.4605 70.7945L95.0697 81.3839C95.0775 81.4101 95.0797 81.4375 95.0761 81.4646C95.0726 81.4916 95.0633 81.5176 95.0491 81.5408C95.02 81.5868 94.9741 81.6194 94.9211 81.6316L85.0128 84.0261L84.9674 84.0303ZM83.155 73.0362L85.1284 83.572L94.6238 81.2807L92.1138 71.0917L83.155 73.0362Z" fill="#D1D3D4"/>
<path d="M94.7559 73.9693C94.7559 73.9693 89.4468 74.4358 89.9752 75.4307C90.5037 76.4257 93.8848 76.211 93.8848 76.211C93.8848 76.211 93.9426 78.4115 95.7344 78.1183" fill="white"/>
<path d="M95.4206 78.3537C95.0612 78.3618 94.7109 78.2402 94.4339 78.011C94.0039 77.5911 93.7413 77.0291 93.6949 76.4298C92.894 76.4628 90.3055 76.4959 89.7936 75.5298C89.753 75.4588 89.7317 75.3784 89.7317 75.2966C89.7317 75.2147 89.753 75.1344 89.7936 75.0633C90.2601 74.1963 93.9963 73.8248 94.7477 73.7628C94.8024 73.7579 94.8569 73.7749 94.8991 73.8102C94.9413 73.8454 94.9678 73.8959 94.9727 73.9507C94.9776 74.0054 94.9606 74.0599 94.9254 74.1021C94.8901 74.1443 94.8396 74.1708 94.7848 74.1757C93.0261 74.3326 90.4293 74.7702 90.1651 75.2615C90.1561 75.2725 90.1511 75.2864 90.1511 75.3007C90.1511 75.315 90.1561 75.3288 90.1651 75.3399C90.5037 75.9798 92.6215 76.0913 93.8807 76.0087C93.9366 76.0064 93.9913 76.0256 94.0335 76.0624C94.054 76.0814 94.0704 76.1044 94.0818 76.1299C94.0931 76.1555 94.0991 76.1831 94.0995 76.211C94.0995 76.211 94.1325 77.2266 94.7064 77.6972C94.8467 77.8063 95.0095 77.8828 95.183 77.9214C95.3564 77.9599 95.5363 77.9595 95.7096 77.9202C95.7367 77.9158 95.7644 77.9169 95.7911 77.9233C95.8178 77.9296 95.843 77.9412 95.8652 77.9573C95.8875 77.9734 95.9063 77.9937 95.9207 78.0171C95.9351 78.0405 95.9447 78.0665 95.9491 78.0936C95.9534 78.1207 95.9524 78.1484 95.946 78.1751C95.9396 78.2018 95.9281 78.227 95.912 78.2492C95.8959 78.2714 95.8755 78.2903 95.8522 78.3047C95.8288 78.3191 95.8028 78.3287 95.7757 78.333C95.6579 78.3481 95.5393 78.355 95.4206 78.3537Z" fill="#231F20"/>
<path d="M128.423 62.4385C128.423 62.4385 134.756 79.7243 130.236 81.4748C125.715 83.2252 108.277 77.5899 108.277 77.5899L109.957 69.2876L128.423 62.4385Z" fill="white"/>
<path d="M127.771 82.0197C121.388 82.0197 108.83 77.9862 108.215 77.7881C108.167 77.772 108.127 77.7395 108.101 77.6964C108.075 77.6532 108.066 77.6023 108.074 77.5527L109.755 69.2505C109.762 69.2161 109.778 69.1842 109.801 69.1576C109.825 69.1309 109.854 69.1104 109.887 69.0977L128.353 62.2445C128.403 62.2238 128.46 62.2238 128.51 62.2445C128.559 62.2677 128.598 62.3091 128.617 62.3601C128.882 63.0743 134.967 79.8605 130.31 81.6647C129.491 81.9301 128.632 82.0503 127.771 82.0197ZM108.516 77.4495C110.357 78.0316 125.996 82.8949 130.157 81.2849C131.899 80.6078 132.131 77.1564 130.826 71.3477C130.144 68.4216 129.301 65.5355 128.299 62.7027L110.134 69.4445L108.516 77.4495Z" fill="#231F20"/>
<path d="M122.458 45.9578C122.458 45.9578 125.467 47.6092 130.603 65.5803L121.335 68.9449L122.458 45.9578Z" fill="#DDDDDD"/>
<path d="M86.2967 33.6509H77.0862V42.8615H86.2967V33.6509Z" fill="white"/>
<path d="M86.2844 43.0679H77.0862C77.0314 43.0679 76.9789 43.0461 76.9402 43.0074C76.9015 42.9687 76.8798 42.9162 76.8798 42.8615V33.6509C76.8798 33.5962 76.9015 33.5437 76.9402 33.5049C76.9789 33.4662 77.0314 33.4445 77.0862 33.4445H86.2844C86.3391 33.4445 86.3916 33.4662 86.4303 33.5049C86.469 33.5437 86.4908 33.5962 86.4908 33.6509V42.8615C86.4908 42.9162 86.469 42.9687 86.4303 43.0074C86.3916 43.0461 86.3391 43.0679 86.2844 43.0679ZM77.2802 42.655H86.0779V33.8532H77.2926L77.2802 42.655Z" fill="#D1D3D4"/>
<path d="M84.633 35.8307H78.7623C78.7079 35.8297 78.656 35.8076 78.6175 35.7691C78.5791 35.7306 78.557 35.6787 78.5559 35.6243C78.5559 35.5696 78.5777 35.5171 78.6164 35.4784C78.6551 35.4396 78.7076 35.4179 78.7623 35.4179H84.633C84.6877 35.4179 84.7402 35.4396 84.7789 35.4784C84.8176 35.5171 84.8394 35.5696 84.8394 35.6243C84.8383 35.6787 84.8163 35.7306 84.7778 35.7691C84.7393 35.8076 84.6874 35.8297 84.633 35.8307Z" fill="#D1D3D4"/>
<path d="M84.633 37.5688H78.7623C78.7079 37.5677 78.656 37.5457 78.6175 37.5072C78.5791 37.4687 78.557 37.4168 78.5559 37.3624C78.5559 37.3076 78.5777 37.2551 78.6164 37.2164C78.6551 37.1777 78.7076 37.156 78.7623 37.156H84.633C84.6877 37.156 84.7402 37.1777 84.7789 37.2164C84.8176 37.2551 84.8394 37.3076 84.8394 37.3624C84.8383 37.4168 84.8163 37.4687 84.7778 37.5072C84.7393 37.5457 84.6874 37.5677 84.633 37.5688Z" fill="#D1D3D4"/>
<path d="M84.633 39.2738H78.7623C78.7079 39.2728 78.656 39.2507 78.6175 39.2122C78.5791 39.1737 78.557 39.1218 78.5559 39.0674C78.5559 39.0127 78.5777 38.9602 78.6164 38.9215C78.6551 38.8828 78.7076 38.861 78.7623 38.861H84.633C84.6877 38.861 84.7402 38.8828 84.7789 38.9215C84.8176 38.9602 84.8394 39.0127 84.8394 39.0674C84.8383 39.1218 84.8163 39.1737 84.7778 39.2122C84.7393 39.2507 84.6874 39.2728 84.633 39.2738Z" fill="#D1D3D4"/>
<path d="M82.3169 40.9954H78.7623C78.7079 40.9944 78.656 40.9723 78.6175 40.9338C78.5791 40.8953 78.557 40.8434 78.5559 40.789C78.5559 40.7342 78.5777 40.6817 78.6164 40.643C78.6551 40.6043 78.7076 40.5826 78.7623 40.5826H82.3169C82.3717 40.5826 82.4242 40.6043 82.4629 40.643C82.5016 40.6817 82.5233 40.7342 82.5233 40.789C82.5223 40.8434 82.5002 40.8953 82.4617 40.9338C82.4232 40.9723 82.3713 40.9944 82.3169 40.9954Z" fill="#D1D3D4"/>
<path d="M99.2766 61.2C99.2766 61.2 90.9578 67.8427 86.6972 66.6206C82.4367 65.3986 79.266 49.9706 76.3761 44.2858C73.2426 38.0931 75.6289 35.7482 76.7889 34.9596C77.6146 34.4064 78.3247 38.5472 79.1009 39.4803C79.3651 38.2706 78.9234 37.2427 79.9513 37.9569C80.6821 38.4647 81.0701 43.6541 81.0701 43.6541C81.0701 43.6541 90.9412 56.1427 91.3912 56.1881L95.1068 53.4839" fill="white"/>
<path d="M87.8697 66.9757C87.4598 66.9798 87.0513 66.9271 86.656 66.8188C83.7413 65.9931 81.4624 59.1316 79.2619 52.5138C78.1968 49.3101 77.1977 46.2839 76.2275 44.3807C73.1931 38.3986 75.2161 35.806 76.694 34.7904C76.7522 34.7464 76.8203 34.7175 76.8922 34.7059C76.9642 34.6944 77.0379 34.7007 77.1069 34.7243C77.5693 34.8771 77.8995 35.7729 78.3908 37.2261C78.5931 37.8248 78.8037 38.4316 79.0018 38.8775C79.0018 38.7248 79.0225 38.5761 79.0266 38.444C79.0266 38.0023 79.0555 37.6844 79.3032 37.5605C79.5509 37.4367 79.8234 37.606 80.0959 37.7959C80.8514 38.3202 81.2188 42.5725 81.2972 43.5757C84.9839 48.2408 90.5491 55.1642 91.4243 55.9362L95.0037 53.3188C95.0483 53.2874 95.1034 53.2747 95.1573 53.2831C95.2112 53.2916 95.2598 53.3207 95.2926 53.3642C95.3087 53.3861 95.3202 53.411 95.3267 53.4375C95.3331 53.4639 95.3342 53.4913 95.33 53.5181C95.3257 53.545 95.3163 53.5707 95.3021 53.5939C95.2879 53.6171 95.2692 53.6373 95.2472 53.6532L91.5523 56.3532C91.5118 56.383 91.4621 56.3976 91.4119 56.3945C90.9537 56.3491 85.4587 49.5124 80.9339 43.7821C80.9071 43.7493 80.8912 43.7089 80.8885 43.6665C80.7316 41.5569 80.3064 38.4399 79.8605 38.1261C79.5716 37.928 79.4849 37.9238 79.4766 37.928C79.4539 38.1019 79.4415 38.2769 79.4394 38.4523C79.4349 38.8129 79.3962 39.1723 79.3238 39.5257C79.3157 39.5635 79.297 39.5983 79.27 39.6261C79.243 39.6538 79.2087 39.6734 79.1711 39.6826C79.1336 39.6913 79.0943 39.6894 79.0579 39.677C79.0214 39.6645 78.9891 39.6422 78.9647 39.6124C78.6261 39.1995 78.3248 38.3078 78.0028 37.3583C77.6807 36.4087 77.2761 35.2156 76.9748 35.1165C76.9748 35.1165 76.9748 35.1165 76.9335 35.1165C75.567 36.0537 73.705 38.4812 76.5991 44.1991C77.5775 46.1312 78.589 49.1532 79.6583 52.3858C81.7225 58.5991 84.0674 65.6463 86.7757 66.4225C90.8628 67.5991 99.0702 61.105 99.161 61.0555C99.2041 61.0269 99.2563 61.0154 99.3074 61.0235C99.3585 61.0315 99.4047 61.0585 99.4368 61.099C99.469 61.1394 99.4848 61.1905 99.4812 61.2421C99.4775 61.2937 99.4546 61.342 99.417 61.3775C99.0825 61.6128 92.316 66.9757 87.8697 66.9757Z" fill="#231F20"/>
<path d="M106.047 32.1358C106.047 32.1358 103.723 35.5335 104.181 36.2642C104.639 36.9949 106.208 36.5367 106.208 36.5367" fill="white"/>
<path d="M105.226 36.8752C104.996 36.8999 104.764 36.8663 104.552 36.7775C104.339 36.6888 104.152 36.5477 104.008 36.3674C103.512 35.5913 105.316 32.8417 105.878 32.0202C105.893 31.9975 105.913 31.9782 105.936 31.9632C105.959 31.9482 105.984 31.9379 106.011 31.9329C106.038 31.9279 106.066 31.9283 106.092 31.9341C106.119 31.9399 106.144 31.9509 106.167 31.9665C106.211 31.9981 106.241 32.0452 106.251 32.0982C106.261 32.1512 106.25 32.2061 106.221 32.2514C105.139 33.8326 104.119 35.7729 104.355 36.1445C104.664 36.6275 105.758 36.4417 106.15 36.3303C106.205 36.3149 106.264 36.322 106.313 36.3499C106.363 36.3777 106.399 36.4241 106.415 36.4789C106.43 36.5336 106.423 36.5922 106.395 36.6418C106.367 36.6913 106.321 36.7278 106.266 36.7431C105.926 36.8305 105.577 36.8748 105.226 36.8752Z" fill="#231F20"/>
<path d="M106.605 27.6027C105.143 28.7587 105.523 31.2605 105.506 32.883C105.49 35.1647 105.524 37.4463 105.61 39.728C105.663 41.1771 109.408 41.2679 110.077 40.8468L109.404 46.5523L117.322 43.6624L117.177 37.0569C117.177 37.0569 114.7 37.0569 113.284 34.0638C111.868 31.0706 112.005 26.5624 112.005 26.5624C112.005 26.5624 108.037 26.4716 106.605 27.6027Z" fill="white"/>
<path d="M109.404 46.7587C109.357 46.7581 109.312 46.7422 109.276 46.7133C109.248 46.6916 109.226 46.6632 109.212 46.6307C109.198 46.5981 109.193 46.5626 109.197 46.5275L109.837 41.1606C108.974 41.3711 107.178 41.3051 106.188 40.7849C105.973 40.7005 105.787 40.5581 105.649 40.3736C105.511 40.1891 105.427 39.9698 105.407 39.7404C105.321 37.4697 105.288 35.1619 105.304 32.8872C105.304 32.6147 105.304 32.3174 105.304 32.0078C105.255 30.4307 105.197 28.4697 106.497 27.4665C107.967 26.3023 111.864 26.3807 112.021 26.3807C112.076 26.3829 112.128 26.4066 112.166 26.4467C112.204 26.4869 112.224 26.5403 112.223 26.5954C112.223 26.6408 112.108 31.1119 113.462 34.0018C114.808 36.8216 117.149 36.8918 117.177 36.8918C117.231 36.8928 117.283 36.9143 117.321 36.9519C117.359 36.9895 117.382 37.0404 117.384 37.0941L117.528 43.6996C117.529 43.7425 117.516 43.7846 117.491 43.82C117.467 43.8554 117.432 43.8825 117.392 43.8977L109.474 46.7876C109.449 46.7823 109.425 46.7725 109.404 46.7587ZM110.081 40.6404C110.12 40.6392 110.16 40.6508 110.192 40.6734C110.225 40.6945 110.251 40.7242 110.268 40.7591C110.284 40.7941 110.291 40.833 110.287 40.8716L109.647 46.2385L117.111 43.5096L116.975 37.2427C116.335 37.1725 114.333 36.739 113.099 34.1505C111.835 31.5 111.786 27.706 111.794 26.7647C110.968 26.7647 107.913 26.8349 106.737 27.7596C105.601 28.6596 105.659 30.5051 105.705 31.9872C105.705 32.3009 105.705 32.6064 105.705 32.883C105.705 35.1496 105.705 37.4491 105.808 39.7197C105.808 39.9881 106.006 40.2193 106.369 40.4133C107.43 40.9707 109.523 40.9418 109.957 40.6693C109.992 40.6463 110.035 40.6361 110.077 40.6404H110.081Z" fill="#231F20"/>
<path d="M125.31 89.7193L125.319 78.1266L99.0247 77.9862L96.3206 89.7193H125.31Z" fill="#231F20"/>
<path d="M125.311 89.9257H96.3206C96.2898 89.9251 96.2596 89.9177 96.2319 89.9041C96.2043 89.8905 96.18 89.871 96.1607 89.847C96.1414 89.823 96.1276 89.7951 96.1203 89.7651C96.113 89.7352 96.1123 89.704 96.1184 89.6738L98.8225 77.9367C98.8336 77.8916 98.8597 77.8516 98.8964 77.8231C98.9331 77.7946 98.9783 77.7794 99.0248 77.7798L125.319 77.9202C125.373 77.9212 125.425 77.9433 125.464 77.9818C125.502 78.0203 125.524 78.0722 125.525 78.1266V89.7193C125.525 89.7471 125.52 89.7746 125.509 89.8002C125.498 89.8258 125.482 89.8489 125.462 89.8682C125.442 89.8875 125.418 89.9025 125.392 89.9124C125.366 89.9223 125.338 89.9268 125.311 89.9257ZM96.5807 89.5128H125.092V78.333L99.1693 78.1927L96.5807 89.5128Z" fill="#231F20"/>
<path d="M105.04 45.1362C108.776 41.9119 120.864 41.3628 122.458 45.9619C124.051 50.561 126.417 79.1628 126.417 79.1628C117.578 82.1642 97.4022 79.2165 97.4022 79.2165L100.234 65.411C100.234 65.411 101.01 48.6165 105.04 45.1362Z" fill="#DDDDDD"/>
<path d="M110.077 40.8468C110.077 40.8468 112 40.7849 112.925 39.4679C112.925 39.4679 112.805 41.7674 109.812 42.7252L110.077 40.8468Z" fill="#231F20"/>
<path d="M109.816 42.9358C109.769 42.9358 109.722 42.9198 109.684 42.8904C109.657 42.8676 109.636 42.8382 109.623 42.805C109.61 42.7718 109.605 42.7358 109.61 42.7004L109.874 40.822C109.882 40.7741 109.906 40.7303 109.942 40.698C109.978 40.6656 110.024 40.6467 110.072 40.6445C110.093 40.6445 111.905 40.5702 112.76 39.3564C112.785 39.3191 112.822 39.2911 112.864 39.2769C112.907 39.2627 112.953 39.2631 112.995 39.278C113.038 39.2929 113.074 39.321 113.099 39.3581C113.125 39.3953 113.137 39.4395 113.136 39.4844C113.136 39.5835 112.971 41.9367 109.878 42.9275C109.858 42.9343 109.837 42.9371 109.816 42.9358ZM110.262 41.0449L110.068 42.4238C110.618 42.2505 111.124 41.9605 111.552 41.5736C111.979 41.1867 112.318 40.7121 112.545 40.1821C111.877 40.6738 111.085 40.971 110.258 41.0408L110.262 41.0449Z" fill="#231F20"/>
<path d="M106.887 31.8546C107.064 31.845 107.189 31.4717 107.164 31.0209C107.14 30.5701 106.976 30.2125 106.798 30.2221C106.621 30.2317 106.497 30.605 106.521 31.0558C106.546 31.5065 106.709 31.8642 106.887 31.8546Z" fill="#231F20"/>
<path d="M105.04 45.1362L91.6431 53.7234L96.7582 67.5495L106.91 63.4459L105.04 45.1362Z" fill="#DDDDDD"/>
<path d="M99.9082 66.3275C99.8715 66.3276 99.8355 66.3181 99.8036 66.3C99.7718 66.2819 99.7452 66.2558 99.7265 66.2243C99.6994 66.1772 99.6921 66.1212 99.706 66.0687C99.7199 66.0161 99.754 65.9711 99.8008 65.9436C99.8669 65.9064 106.064 62.2858 109.011 58.9252C109.029 58.9046 109.05 58.8877 109.074 58.8754C109.098 58.8632 109.125 58.8559 109.152 58.854C109.178 58.852 109.206 58.8555 109.231 58.8642C109.257 58.8729 109.28 58.8866 109.3 58.9046C109.341 58.9411 109.366 58.9922 109.37 59.0469C109.374 59.1017 109.356 59.1558 109.321 59.1977C106.332 62.6284 100.073 66.2821 100.011 66.3193C99.978 66.3296 99.9428 66.3325 99.9082 66.3275Z" fill="#231F20"/>
<path d="M125.781 72.1816C125.73 72.1829 125.679 72.1643 125.641 72.1298C125.603 72.0952 125.579 72.0473 125.575 71.9959C125.162 67.2358 123.667 54.6193 123.651 54.4913C123.646 54.4369 123.662 54.3827 123.696 54.3397C123.73 54.2967 123.779 54.2683 123.833 54.2601C123.887 54.2542 123.942 54.2699 123.985 54.3039C124.028 54.3378 124.056 54.3873 124.064 54.4417C124.064 54.5697 125.558 67.1945 125.988 71.9587C125.991 72.0133 125.973 72.067 125.938 72.1086C125.902 72.1502 125.852 72.1764 125.798 72.1816H125.781Z" fill="#231F20"/>
<path d="M105.539 37.4573C105.539 37.4573 108.52 37.3459 108.52 37.4573C108.184 38.1461 107.591 38.6754 106.869 38.9312C106.598 39.0015 106.31 38.9637 106.067 38.8258C105.823 38.6879 105.643 38.4607 105.564 38.1922L105.539 37.4573Z" fill="#231F20"/>
<path d="M106.547 39.1748C106.277 39.1638 106.017 39.0682 105.804 38.9015C105.592 38.7348 105.437 38.5054 105.362 38.2459C105.36 38.228 105.36 38.21 105.362 38.1922L105.341 37.4656C105.34 37.4111 105.36 37.3583 105.397 37.3183C105.434 37.2783 105.485 37.2541 105.539 37.2509C108.508 37.1394 108.594 37.222 108.669 37.2922C108.71 37.3339 108.734 37.3902 108.735 37.4491C108.573 37.8426 108.327 38.1962 108.015 38.4856C107.702 38.775 107.331 38.9932 106.927 39.1252C106.803 39.1575 106.675 39.1742 106.547 39.1748ZM105.766 38.1468C105.795 38.2547 105.845 38.3557 105.913 38.4437C105.982 38.5318 106.068 38.605 106.165 38.659C106.263 38.713 106.37 38.7467 106.481 38.758C106.592 38.7693 106.704 38.758 106.811 38.7248C107.386 38.5214 107.876 38.1302 108.202 37.6142C107.74 37.6142 106.724 37.6142 105.754 37.6555L105.766 38.1468Z" fill="#231F20"/>
<path d="M121.987 24.3826C124.646 27.1362 125.525 31.1408 125.843 34.9555C126.161 38.7702 126.05 42.6798 127.201 46.3335C128.221 49.5826 130.244 52.7904 129.571 56.1303C129.158 58.0954 127.85 59.7881 126.215 60.9482C124.538 62.058 122.667 62.841 120.699 63.2559C118.189 63.8711 114.151 64.6142 111.897 62.8431C111.104 62.1788 110.488 61.3276 110.105 60.366C108.9 57.6 108.904 54.4128 109.639 51.4858C110.547 47.8775 112.884 44.9876 113.961 41.4908C114.234 40.5991 114.457 39.6371 114.213 38.7371C113.97 37.8371 113.222 37.0404 112.636 36.2601C110.865 33.8326 110.721 31.05 111.278 28.2179C109.755 28.1147 105.738 28.5812 106.192 25.8605C106.34 24.9771 107.017 24.2793 107.703 23.7179C108.083 23.414 108.484 23.1381 108.904 22.8922C112.938 20.4729 118.684 20.9642 121.987 24.3826Z" fill="white"/>
<path d="M115.906 64.156C114.403 64.156 112.876 63.8835 111.777 63.0207C110.954 62.3365 110.317 61.4543 109.928 60.4569C108.805 57.8807 108.636 54.6771 109.449 51.4445C109.936 49.4959 110.849 47.7289 111.732 46.0321C112.548 44.5648 113.231 43.0269 113.771 41.4372C114.101 40.5988 114.188 39.6847 114.023 38.7991C113.782 38.1089 113.404 37.4743 112.913 36.933C112.764 36.7473 112.62 36.5615 112.479 36.3716C110.919 34.233 110.448 31.6239 111.038 28.3995H110.423C109.049 28.3995 107.162 28.3706 106.349 27.4005C106.175 27.1804 106.052 26.924 105.991 26.6503C105.929 26.3766 105.93 26.0926 105.994 25.8193C106.167 24.7913 106.984 24.0317 107.583 23.5528C107.975 23.2389 108.389 22.9533 108.821 22.6982C113.041 20.1963 118.899 20.8734 122.16 24.2463C124.415 26.583 125.657 29.9807 126.074 34.9473C126.157 35.9257 126.21 36.9248 126.264 37.8908C126.417 40.6899 126.574 43.584 127.42 46.2798C127.697 47.1509 128.048 48.0344 128.39 48.8931C129.332 51.2463 130.302 53.6821 129.798 56.1798C129.31 58.2013 128.07 59.9609 126.33 61.1009C124.898 62.1165 123.122 62.8596 120.744 63.4418C119.165 63.8674 117.541 64.1071 115.906 64.156ZM114.469 21.5917C112.546 21.5766 110.654 22.0785 108.991 23.045C108.58 23.292 108.186 23.5679 107.814 23.8706C106.947 24.5684 106.493 25.2083 106.377 25.8853C106.326 26.0981 106.322 26.3198 106.367 26.5341C106.412 26.7484 106.504 26.95 106.638 27.1239C107.331 27.9495 109.181 27.9495 110.399 27.9784C110.737 27.9784 111.034 27.9784 111.274 27.9784C111.304 27.98 111.333 27.9882 111.359 28.0025C111.386 28.0168 111.409 28.0368 111.427 28.061C111.444 28.0845 111.456 28.1113 111.462 28.1397C111.469 28.1681 111.469 28.1976 111.464 28.2262C110.832 31.4381 111.261 34.006 112.789 36.1073C112.925 36.2931 113.066 36.4748 113.202 36.6564C113.73 37.2403 114.133 37.9259 114.387 38.6711C114.577 39.6324 114.488 40.628 114.131 41.5404C113.585 43.1533 112.894 44.7133 112.066 46.2014C111.199 47.8817 110.295 49.6239 109.821 51.5271C109.028 54.6729 109.189 57.7817 110.275 60.2711C110.639 61.2041 111.233 62.0304 112 62.6739C114.416 64.5523 119.093 63.4129 120.629 63.0372C122.953 62.4674 124.683 61.745 126.074 60.7583C127.715 59.6607 128.883 57.9868 129.348 56.0684C129.827 53.6904 128.877 51.3165 127.961 49.017C127.618 48.1541 127.259 47.2583 126.983 46.3748C126.12 43.6294 125.959 40.7106 125.806 37.8867C125.752 36.9206 125.699 35.9257 125.616 34.9514C125.203 30.0881 124.002 26.7688 121.818 24.5064C120.846 23.5591 119.697 22.8138 118.435 22.3135C117.174 21.8132 115.826 21.5679 114.469 21.5917Z" fill="#231F20"/>
<path d="M110.394 33.5147C110.467 32.9442 110.697 32.4053 111.059 31.9582C111.281 31.5773 111.56 31.2321 111.885 30.9344C112.052 30.7876 112.25 30.6796 112.464 30.6182C112.678 30.5569 112.903 30.5436 113.123 30.5793C113.313 30.6305 113.49 30.7213 113.643 30.8458C113.795 30.9704 113.919 31.1258 114.007 31.3018C114.18 31.6568 114.272 32.0462 114.275 32.4413C114.3 33.2983 114.098 34.1468 113.692 34.9017C113.286 35.6566 112.688 36.2916 111.959 36.7431L112.087 36.6069" fill="white"/>
<path d="M111.959 36.9537C111.918 36.9539 111.878 36.9421 111.844 36.9197C111.81 36.8973 111.784 36.8653 111.768 36.8278C111.752 36.7902 111.748 36.7488 111.755 36.7088C111.763 36.6688 111.782 36.6319 111.811 36.6028L111.938 36.4706C111.959 36.4477 111.985 36.4301 112.013 36.4193C112.042 36.4086 112.073 36.4049 112.104 36.4087C112.732 35.9605 113.24 35.3653 113.585 34.6751C113.93 33.9849 114.1 33.2208 114.081 32.4495C114.08 32.0861 113.997 31.7276 113.838 31.4009C113.764 31.2505 113.66 31.1174 113.531 31.0107C113.402 30.9039 113.252 30.8258 113.09 30.7817C112.901 30.753 112.708 30.7663 112.525 30.8205C112.342 30.8747 112.172 30.9686 112.029 31.0954C111.717 31.3812 111.447 31.7108 111.228 32.0739C110.893 32.4917 110.676 32.9923 110.601 33.5229C110.6 33.5502 110.594 33.5771 110.583 33.602C110.572 33.6269 110.556 33.6493 110.536 33.6678C110.516 33.6864 110.492 33.7006 110.466 33.7098C110.441 33.7189 110.413 33.7228 110.386 33.7211C110.359 33.72 110.332 33.7136 110.308 33.7023C110.283 33.6909 110.261 33.6748 110.243 33.6549C110.224 33.6349 110.21 33.6115 110.201 33.5861C110.191 33.5606 110.187 33.5335 110.188 33.5064C110.264 32.9022 110.505 32.3307 110.886 31.855C111.125 31.4578 111.423 31.0987 111.769 30.7899C111.958 30.619 112.183 30.4931 112.428 30.4216C112.672 30.3502 112.93 30.3349 113.181 30.3771C113.401 30.4316 113.607 30.5339 113.783 30.6765C113.959 30.8192 114.102 30.9989 114.201 31.2028C114.393 31.5876 114.493 32.0114 114.494 32.4413C114.516 33.3367 114.304 34.2223 113.878 35.0102C113.452 35.7981 112.828 36.461 112.066 36.933C112.033 36.9498 111.996 36.957 111.959 36.9537Z" fill="#231F20"/>
<path d="M59.5857 33.7294H50.6353V42.6798H59.5857V33.7294Z" fill="white"/>
<path d="M59.5857 42.8862H50.6353C50.5805 42.8862 50.528 42.8645 50.4893 42.8258C50.4506 42.7871 50.4288 42.7346 50.4288 42.6798V33.7294C50.4288 33.6746 50.4506 33.6221 50.4893 33.5834C50.528 33.5447 50.5805 33.5229 50.6353 33.5229H59.5857C59.6405 33.5229 59.693 33.5447 59.7317 33.5834C59.7704 33.6221 59.7921 33.6746 59.7921 33.7294V42.6798C59.7921 42.7346 59.7704 42.7871 59.7317 42.8258C59.693 42.8645 59.6405 42.8862 59.5857 42.8862ZM50.8417 42.4734H59.3793V33.9358H50.8417V42.4734Z" fill="#D1D3D4"/>
<path d="M57.955 35.8514H52.266C52.2112 35.8514 52.1587 35.8296 52.12 35.7909C52.0813 35.7522 52.0596 35.6997 52.0596 35.6449C52.0596 35.5902 52.0813 35.5377 52.12 35.499C52.1587 35.4603 52.2112 35.4385 52.266 35.4385H57.955C58.0097 35.4385 58.0622 35.4603 58.1009 35.499C58.1397 35.5377 58.1614 35.5902 58.1614 35.6449C58.1614 35.6997 58.1397 35.7522 58.1009 35.7909C58.0622 35.8296 58.0097 35.8514 57.955 35.8514Z" fill="#D1D3D4"/>
<path d="M57.955 37.5234H52.266C52.2112 37.5234 52.1587 37.5017 52.12 37.4629C52.0813 37.4242 52.0596 37.3717 52.0596 37.317C52.0596 37.2622 52.0813 37.2097 52.12 37.171C52.1587 37.1323 52.2112 37.1105 52.266 37.1105H57.955C58.0097 37.1105 58.0622 37.1323 58.1009 37.171C58.1397 37.2097 58.1614 37.2622 58.1614 37.317C58.1614 37.3717 58.1397 37.4242 58.1009 37.4629C58.0622 37.5017 58.0097 37.5234 57.955 37.5234Z" fill="#D1D3D4"/>
<path d="M57.955 39.2202H52.266C52.2112 39.2202 52.1587 39.1984 52.12 39.1597C52.0813 39.121 52.0596 39.0685 52.0596 39.0138C52.0596 38.959 52.0813 38.9065 52.12 38.8678C52.1587 38.8291 52.2112 38.8073 52.266 38.8073H57.955C58.0097 38.8073 58.0622 38.8291 58.1009 38.8678C58.1397 38.9065 58.1614 38.959 58.1614 39.0138C58.1614 39.0685 58.1397 39.121 58.1009 39.1597C58.0622 39.1984 58.0097 39.2202 57.955 39.2202Z" fill="#D1D3D4"/>
<path d="M55.7339 40.8716H52.266C52.2112 40.8716 52.1587 40.8498 52.12 40.8111C52.0813 40.7724 52.0596 40.7199 52.0596 40.6651C52.0596 40.6104 52.0813 40.5579 52.12 40.5192C52.1587 40.4805 52.2112 40.4587 52.266 40.4587H55.7339C55.7886 40.4587 55.8411 40.4805 55.8798 40.5192C55.9186 40.5579 55.9403 40.6104 55.9403 40.6651C55.9403 40.7199 55.9186 40.7724 55.8798 40.8111C55.8411 40.8498 55.7886 40.8716 55.7339 40.8716Z" fill="#D1D3D4"/>
<path d="M64.1106 47.6959H54.9V56.9064H64.1106V47.6959Z" fill="white"/>
<path d="M64.1105 57.1128H54.9082C54.8535 57.1128 54.801 57.0911 54.7622 57.0524C54.7235 57.0137 54.7018 56.9612 54.7018 56.9064V47.6959C54.7018 47.6411 54.7235 47.5886 54.7622 47.5499C54.801 47.5112 54.8535 47.4894 54.9082 47.4894H64.1188C64.1735 47.4894 64.226 47.5112 64.2647 47.5499C64.3034 47.5886 64.3252 47.6411 64.3252 47.6959V56.9064C64.3252 56.9342 64.3196 56.9618 64.3087 56.9874C64.2978 57.013 64.2819 57.0361 64.2618 57.0554C64.2418 57.0747 64.218 57.0897 64.192 57.0996C64.166 57.1094 64.1383 57.1139 64.1105 57.1128ZM55.1064 56.7H63.9041V47.8899H55.1064V56.7Z" fill="#D1D3D4"/>
<path d="M62.4344 49.8757H56.5596C56.5048 49.8757 56.4523 49.8539 56.4136 49.8152C56.3749 49.7765 56.3531 49.724 56.3531 49.6693C56.3531 49.6145 56.3749 49.562 56.4136 49.5233C56.4523 49.4846 56.5048 49.4628 56.5596 49.4628H62.4178C62.4726 49.4628 62.5251 49.4846 62.5638 49.5233C62.6025 49.562 62.6243 49.6145 62.6243 49.6693C62.6243 49.724 62.6025 49.7765 62.5638 49.8152C62.5251 49.8539 62.4726 49.8757 62.4178 49.8757H62.4344Z" fill="#D1D3D4"/>
<path d="M62.4344 51.6055H56.5596C56.5048 51.6055 56.4523 51.5838 56.4136 51.5451C56.3749 51.5063 56.3531 51.4538 56.3531 51.3991C56.3531 51.3443 56.3749 51.2918 56.4136 51.2531C56.4523 51.2144 56.5048 51.1927 56.5596 51.1927H62.4178C62.4726 51.1927 62.5251 51.2144 62.5638 51.2531C62.6025 51.2918 62.6243 51.3443 62.6243 51.3991C62.6243 51.4538 62.6025 51.5063 62.5638 51.5451C62.5251 51.5838 62.4726 51.6055 62.4178 51.6055H62.4344Z" fill="#D1D3D4"/>
<path d="M62.4344 53.3188H56.5596C56.5048 53.3188 56.4523 53.2971 56.4136 53.2583C56.3749 53.2196 56.3531 53.1671 56.3531 53.1124C56.3531 53.0576 56.3749 53.0051 56.4136 52.9664C56.4523 52.9277 56.5048 52.906 56.5596 52.906H62.4178C62.4726 52.906 62.5251 52.9277 62.5638 52.9664C62.6025 53.0051 62.6243 53.0576 62.6243 53.1124C62.6243 53.1671 62.6025 53.2196 62.5638 53.2583C62.5251 53.2971 62.4726 53.3188 62.4178 53.3188H62.4344Z" fill="#D1D3D4"/>
<path d="M60.1307 55.0404H56.5596C56.5048 55.0404 56.4523 55.0186 56.4136 54.9799C56.3749 54.9412 56.3531 54.8887 56.3531 54.834C56.3531 54.7792 56.3749 54.7267 56.4136 54.688C56.4523 54.6493 56.5048 54.6275 56.5596 54.6275H60.1142C60.1689 54.6275 60.2214 54.6493 60.2601 54.688C60.2988 54.7267 60.3206 54.7792 60.3206 54.834C60.3206 54.8887 60.2988 54.9412 60.2601 54.9799C60.2214 55.0186 60.1689 55.0404 60.1142 55.0404H60.1307Z" fill="#D1D3D4"/>
<path d="M37.416 68.1193C37.416 68.1193 46.1931 73.4284 48.7857 73.2922C51.3784 73.156 53.9256 44.5046 54.0536 43.4683C54.1486 42.7335 55.577 39.9798 55.899 39.2532C56.2931 38.2908 56.4707 37.2534 56.4192 36.2147C56.3201 35.1784 54.4665 34.394 53.9917 34.489C52.5302 34.778 51.8078 36.995 50.9243 38.2046C50.6601 37.9362 50.6559 36.4872 50.5114 36.1404C48.6454 38.1014 49.1738 40.8963 49.3183 43.3197C49.3926 44.5087 44.1371 59.8335 44.1371 59.8335L41.6972 58.4257" fill="white"/>
<path d="M48.6867 73.5151C45.9454 73.5151 37.6638 68.5238 37.3087 68.3092C37.2616 68.2807 37.2278 68.2347 37.2146 68.1813C37.2015 68.1278 37.2101 68.0714 37.2385 68.0243C37.267 67.9772 37.313 67.9434 37.3664 67.9302C37.4199 67.9171 37.4763 67.9257 37.5234 67.9541C37.6101 68.0078 46.2881 73.2427 48.7734 73.0982C49.2812 73.0734 51.1473 70.9225 53.7523 44.4344C53.806 43.8936 53.839 43.5509 53.8514 43.456C53.9174 42.9193 54.5697 41.5445 55.2922 40.0624C55.4739 39.6826 55.6266 39.3647 55.7051 39.183C56.0866 38.2535 56.2586 37.2513 56.2087 36.2477C56.1189 35.8645 55.8815 35.5322 55.5482 35.3229C55.1122 34.9741 54.5845 34.759 54.0289 34.7037C53.0794 34.8894 52.4519 36.0083 51.8408 37.094C51.6145 37.5219 51.3622 37.9355 51.0853 38.3326C51.0676 38.3572 51.0448 38.3776 51.0184 38.3926C50.9921 38.4076 50.9628 38.4167 50.9326 38.4193C50.9029 38.4206 50.8733 38.4158 50.8456 38.4052C50.8179 38.3945 50.7927 38.3782 50.7716 38.3573C50.5858 38.1674 50.5197 37.7298 50.4372 37.0362C50.4372 36.8876 50.4 36.7349 50.3794 36.5986C49.0996 38.2046 49.2688 40.3142 49.4298 42.3537C49.4546 42.6839 49.4835 43.006 49.5 43.328C49.5743 44.5252 44.8473 58.3514 44.3064 59.9243C44.2954 59.9526 44.2785 59.9783 44.2569 59.9996C44.2352 60.0208 44.2093 60.0373 44.1808 60.0478C44.1523 60.0584 44.1219 60.0627 44.0916 60.0607C44.0613 60.0586 44.0318 60.0501 44.0051 60.0358L41.5858 58.6238C41.5389 58.5963 41.5048 58.5513 41.4909 58.4988C41.477 58.4462 41.4844 58.3903 41.5115 58.3431C41.5398 58.296 41.5855 58.2618 41.6388 58.2479C41.692 58.234 41.7486 58.2415 41.7963 58.2688L44.0009 59.5651C46.1064 53.3972 49.1285 44.1743 49.0954 43.3486C49.0762 43.0294 49.0514 42.7073 49.0211 42.3826C48.8519 40.2275 48.6578 37.7876 50.3422 36.0124C50.3658 35.9889 50.3944 35.9712 50.4259 35.9604C50.4574 35.9497 50.4909 35.9463 50.5239 35.9505C50.5567 35.9563 50.5876 35.9698 50.6142 35.9899C50.6407 36.01 50.6621 36.0361 50.6766 36.0661C50.7755 36.3623 50.8338 36.6706 50.85 36.9826C50.8748 37.1972 50.9161 37.5316 50.9697 37.7752C51.1431 37.5069 51.3124 37.2055 51.4858 36.8917C52.1092 35.7812 52.8152 34.522 53.9629 34.2991C54.3509 34.2206 55.2014 34.5468 55.8124 34.9927C56.0267 35.1266 56.2108 35.3037 56.353 35.5126C56.4952 35.7216 56.5922 35.9579 56.6381 36.2064C56.6959 37.2819 56.5125 38.3568 56.1014 39.3523C56.0188 39.5381 55.8619 39.856 55.6885 40.2399C55.1849 41.272 54.3468 42.9936 54.2849 43.5055C54.2849 43.6005 54.2395 43.939 54.1858 44.4757C51.3454 73.3748 49.4463 73.478 48.8188 73.511L48.6867 73.5151Z" fill="#231F20"/>
<path d="M11.0477 89.7193L11.7991 65.122L2.81561 67.0417L2.43579 89.7193H11.0477Z" fill="white"/>
<path d="M11.0477 89.9257H2.43579C2.40872 89.926 2.38188 89.9207 2.35699 89.91C2.33211 89.8994 2.30973 89.8836 2.2913 89.8638C2.25178 89.8244 2.22951 89.7709 2.22937 89.7151L2.60919 67.0376C2.6099 66.9913 2.62617 66.9466 2.65538 66.9106C2.68458 66.8747 2.72502 66.8496 2.77019 66.8394L11.7578 64.9197C11.7883 64.9135 11.8197 64.9143 11.8498 64.9222C11.8799 64.9301 11.9077 64.9447 11.9312 64.9651C11.9558 64.9839 11.9754 65.0084 11.9883 65.0364C12.0013 65.0645 12.0072 65.0953 12.0055 65.1261L11.2541 89.7234C11.252 89.7771 11.2295 89.828 11.1911 89.8656C11.1527 89.9032 11.1014 89.9247 11.0477 89.9257ZM2.64634 89.5129H10.8496L11.5844 65.378L3.0179 67.211L2.64634 89.5129Z" fill="#231F20"/>
<path d="M8.6697 47.2995C8.6697 47.2995 4.2564 51.2917 3.11695 55.1436C1.9775 58.9954 0.247681 68.1193 0.247681 68.1193L15.1101 69.7087L8.6697 47.2995Z" fill="#DDDDDD"/>
<path d="M25.0803 33.2092C24.6759 33.2131 24.279 33.1008 23.9366 32.8856C23.5943 32.6703 23.3211 32.3612 23.1494 31.9951C22.9778 31.629 22.915 31.2212 22.9685 30.8204C23.022 30.4196 23.1896 30.0426 23.4513 29.7344C23.713 29.4261 24.0578 29.1995 24.4446 29.0816C24.8314 28.9638 25.2439 28.9595 25.633 29.0694C26.0222 29.1793 26.3715 29.3988 26.6395 29.7016C26.9075 30.0044 27.0827 30.3779 27.1445 30.7775C27.1907 31.0765 27.172 31.3819 27.0898 31.6731C27.0076 31.9642 26.8637 32.2343 26.6679 32.4649C26.4721 32.6956 26.229 32.8814 25.9551 33.0098C25.6811 33.1382 25.3828 33.2062 25.0803 33.2092ZM25.0803 29.4027C24.9937 29.3966 24.9068 29.3966 24.8202 29.4027C24.4883 29.4532 24.1788 29.6009 23.9309 29.8273C23.683 30.0537 23.5079 30.3485 23.4276 30.6744C23.3473 31.0004 23.3655 31.3428 23.4799 31.6585C23.5943 31.9741 23.7997 32.2486 24.0702 32.4475C24.3407 32.6463 24.6641 32.7604 24.9994 32.7754C25.3348 32.7904 25.667 32.7055 25.9542 32.5316C26.2413 32.3577 26.4704 32.1025 26.6125 31.7984C26.7545 31.4942 26.8032 31.1547 26.7523 30.8229C26.6869 30.4273 26.4835 30.0676 26.1782 29.8076C25.8729 29.5477 25.4854 29.4042 25.0844 29.4027H25.0803Z" fill="#231F20"/>
<path d="M12.8311 41.3339C11.9765 41.4289 11.1137 41.4124 10.1146 41.4784C9.18983 41.5445 7.96368 41.3835 7.80267 40.4711C7.66643 39.6908 8.50863 38.9023 8.18662 38.1757C8.08002 37.9846 7.94022 37.814 7.77377 37.672C4.9334 34.8771 3.84762 29.9147 5.68478 26.3312C6.48197 24.7899 7.74448 23.5389 9.29304 22.756C12.2395 21.326 15.5488 20.8181 18.7885 21.2986C21.2655 21.6248 24.4031 23.0738 24.5311 25.9844C24.5807 27.033 23.9284 28.1642 22.8797 28.3706C22.8219 31.5165 21.538 33.8573 19.8618 36.3922C18.742 38.1241 17.21 39.5511 15.4031 40.5454C14.6067 40.9766 13.7323 41.2447 12.8311 41.3339Z" fill="white"/>
<path d="M9.74314 41.6973C8.50461 41.6973 7.73259 41.2844 7.60048 40.5041C7.56415 40.0922 7.64577 39.6783 7.83581 39.311C7.99681 38.8982 8.13718 38.5679 7.99681 38.2541C7.91279 38.0987 7.80244 37.959 7.67067 37.8413L7.63351 37.8041C4.62801 34.8482 3.69085 29.7578 5.50737 26.2445C6.32172 24.6635 7.61497 23.3804 9.20232 22.5784C12.1864 21.1368 15.5339 20.622 18.8133 21.1005C21.6743 21.4679 24.6138 23.1193 24.7376 25.9762C24.7831 27.0165 24.1886 28.2179 23.0863 28.5317C22.9831 31.7931 21.5876 34.167 20.0395 36.5078C18.8975 38.2688 17.3373 39.7198 15.4982 40.7312C14.6706 41.179 13.763 41.4596 12.8271 41.5569C12.3234 41.6106 11.8197 41.6312 11.2872 41.6477C10.9115 41.6477 10.5193 41.6766 10.1064 41.7014C9.99498 41.6973 9.867 41.6973 9.74314 41.6973ZM16.4064 21.344C13.9751 21.3193 11.5716 21.8636 9.3881 22.9335C7.8816 23.7011 6.65309 24.921 5.8748 26.422C4.13672 29.8032 5.04911 34.6789 7.93902 37.5193L7.97617 37.5564C8.14683 37.7057 8.28701 37.8865 8.38902 38.089C8.45864 38.3166 8.48064 38.5562 8.45365 38.7927C8.42666 39.0292 8.35126 39.2577 8.23214 39.4638C8.07498 39.7621 8.00084 40.0972 8.01746 40.434C8.17434 41.3298 9.66883 41.3009 10.1147 41.2596C10.5606 41.2184 10.9404 41.2142 11.3078 41.2018C11.8363 41.2018 12.3317 41.1647 12.8188 41.111C13.7023 41.0277 14.56 40.768 15.3413 40.3473C17.1165 39.3675 18.6214 37.9633 19.7216 36.2601C21.5711 33.4651 22.6528 31.2771 22.7064 28.35C22.7058 28.3027 22.7221 28.2567 22.7524 28.2204C22.7826 28.184 22.8249 28.1597 22.8716 28.1518C23.8294 27.9578 24.3785 26.872 24.3372 25.9803C24.2092 22.9954 20.7785 21.7528 18.772 21.4844C17.9873 21.3874 17.1971 21.3419 16.4064 21.3482V21.344Z" fill="#231F20"/>
<path d="M24.4073 32.7014C24.4073 32.7014 27.1528 35.967 26.7523 36.7555C26.3518 37.544 24.6881 37.2427 24.6881 37.2427" fill="white"/>
<path d="M25.3774 37.5069C25.1352 37.5084 24.8934 37.4877 24.655 37.445C24.6279 37.4401 24.602 37.4299 24.5788 37.415C24.5556 37.4002 24.5356 37.3808 24.5199 37.3582C24.4881 37.3126 24.4758 37.2561 24.4857 37.2014C24.4955 37.1466 24.5268 37.098 24.5724 37.0663C24.6181 37.0346 24.6745 37.0223 24.7293 37.0321C25.1421 37.1064 26.2981 37.189 26.5664 36.6523C26.777 36.2395 25.5261 34.3445 24.2504 32.8252C24.2292 32.8053 24.2126 32.781 24.2015 32.7542C24.1904 32.7273 24.185 32.6984 24.1859 32.6693C24.1867 32.6402 24.1937 32.6117 24.2063 32.5855C24.219 32.5593 24.237 32.5361 24.2593 32.5174C24.2815 32.4986 24.3074 32.4848 24.3354 32.4768C24.3634 32.4688 24.3927 32.4668 24.4215 32.4709C24.4503 32.475 24.4778 32.4852 24.5024 32.5007C24.527 32.5163 24.548 32.5368 24.5641 32.561C25.2288 33.3495 27.3632 35.9959 26.938 36.8422C26.6614 37.3913 25.9348 37.5069 25.3774 37.5069Z" fill="#231F20"/>
<path d="M23.3711 28.0734C24.9977 29.1179 24.8614 31.7353 25.0224 33.4032C25.2729 35.7564 25.4711 38.1124 25.6169 40.4711C25.7078 41.9656 21.8559 42.4404 21.1252 42.0771L22.4256 47.8899L13.9706 45.7142L13.7435 40.8179C13.7435 40.8179 16.3692 40.533 17.5252 37.3294C18.6811 34.1257 17.7068 27.5573 17.7068 27.5573C17.7068 27.5573 21.7816 27.0702 23.3711 28.0734Z" fill="white"/>
<path d="M22.4256 48.1046H22.3761L13.921 45.9289C13.8783 45.9177 13.8401 45.8934 13.8119 45.8593C13.7838 45.8252 13.7671 45.7831 13.7642 45.739L13.5371 40.8385C13.5346 40.7864 13.552 40.7353 13.5857 40.6955C13.6194 40.6556 13.6669 40.6301 13.7187 40.6238C13.822 40.6238 16.233 40.306 17.3311 37.2716C18.4541 34.1505 17.5128 27.6647 17.5045 27.5986C17.4997 27.5717 17.501 27.544 17.5081 27.5176C17.5152 27.4912 17.5281 27.4667 17.5458 27.4459C17.5619 27.4238 17.5823 27.4051 17.6056 27.3909C17.629 27.3767 17.655 27.3673 17.682 27.3633C17.8513 27.3633 21.8518 26.872 23.4619 27.9165C24.9027 28.8413 25.0431 30.8642 25.1545 32.4908C25.1545 32.8128 25.1958 33.1183 25.2247 33.3991C25.4765 35.7399 25.6788 38.122 25.8233 40.4752C25.8248 40.7124 25.7603 40.9453 25.6371 41.148C25.5139 41.3506 25.3368 41.5151 25.1256 41.6229C24.1596 42.2628 22.3018 42.5105 21.41 42.3784L22.6197 47.8569C22.6271 47.8915 22.6257 47.9274 22.6156 47.9613C22.6055 47.9952 22.587 48.026 22.5619 48.0509C22.5241 48.0842 22.4759 48.1032 22.4256 48.1046ZM14.1687 45.5615L22.149 47.6257L20.9394 42.1431C20.9316 42.1052 20.9344 42.0659 20.9475 42.0295C20.9606 41.993 20.9835 41.9609 21.0137 41.9367C21.0451 41.9143 21.0819 41.9005 21.1203 41.8969C21.1588 41.8933 21.1975 41.8999 21.2325 41.9161C21.7114 42.1555 23.8747 41.9697 24.9151 41.2844C25.0624 41.2132 25.1878 41.1034 25.2779 40.9668C25.368 40.8302 25.4195 40.6717 25.427 40.5083C25.2825 38.1592 25.0843 35.7853 24.8325 33.4527C24.7995 33.1679 24.7788 32.8541 24.7582 32.528C24.6509 30.9922 24.5187 29.0849 23.2554 28.2716C21.9467 27.4459 18.7802 27.6771 17.938 27.7596C18.099 28.9362 18.7637 34.489 17.7151 37.4161C16.6995 40.2358 14.6022 40.8798 13.9541 41.0119L14.1687 45.5615Z" fill="#231F20"/>
<path d="M25.3775 38.7372C25.3775 38.7372 23.6889 40.0665 22.4875 38.2954L25.3775 38.7372Z" fill="white"/>
<path d="M24.0275 39.4225C23.9294 39.4237 23.8313 39.4168 23.7343 39.4018C23.4429 39.3472 23.1667 39.2304 22.9245 39.0594C22.6823 38.8884 22.4798 38.6673 22.3307 38.411C22.3004 38.366 22.2891 38.3109 22.2991 38.2576C22.3091 38.2043 22.3398 38.157 22.3844 38.1261C22.407 38.1107 22.4326 38.0999 22.4595 38.0945C22.4864 38.089 22.5141 38.089 22.541 38.0944C22.5679 38.0998 22.5935 38.1104 22.6162 38.1258C22.6389 38.1412 22.6583 38.161 22.6733 38.1839C22.7918 38.3929 22.9531 38.5745 23.1466 38.7168C23.3401 38.8591 23.5615 38.9589 23.7963 39.0096C24.3148 39.0542 24.8318 38.9073 25.2495 38.5968C25.2933 38.5638 25.3481 38.5488 25.4026 38.555C25.4571 38.5611 25.5072 38.5879 25.5426 38.6298C25.5761 38.6738 25.591 38.7291 25.5841 38.784C25.5771 38.8388 25.5489 38.8887 25.5054 38.9229C25.0732 39.2324 24.5588 39.4063 24.0275 39.4225Z" fill="#231F20"/>
<path d="M14.9491 35.4385H14.9243C14.8972 35.4355 14.8711 35.4271 14.8474 35.4137C14.8237 35.4003 14.8029 35.3823 14.7864 35.3607C14.7698 35.3391 14.7577 35.3144 14.7509 35.2881C14.7441 35.2617 14.7427 35.2343 14.7468 35.2073C14.8995 33.9688 15.1348 33.9358 15.2339 33.9151C15.428 33.8656 22.9541 31.7353 26.905 30.6124C26.9321 30.6048 26.9605 30.6026 26.9884 30.606C27.0164 30.6093 27.0434 30.6182 27.0679 30.632C27.0924 30.6458 27.114 30.6643 27.1314 30.6864C27.1488 30.7086 27.1616 30.7339 27.1692 30.761C27.1768 30.7881 27.179 30.8165 27.1756 30.8444C27.1723 30.8724 27.1635 30.8994 27.1497 30.9239C27.1358 30.9484 27.1173 30.97 27.0952 30.9874C27.0731 31.0048 27.0477 31.0176 27.0206 31.0252C25.877 31.3472 16.1546 34.105 15.3743 34.328C15.2596 34.6362 15.186 34.9583 15.1555 35.2858C15.1427 35.3304 15.1156 35.3696 15.0783 35.3973C15.0409 35.4249 14.9955 35.4394 14.9491 35.4385Z" fill="#231F20"/>
<path d="M20.0765 34.7243C19.9488 34.1458 19.6629 33.6141 19.2508 33.1885C18.9773 32.8186 18.6487 32.4928 18.2765 32.2225C18.0898 32.0881 17.8755 31.9968 17.6491 31.9554C17.4228 31.914 17.1901 31.9234 16.9678 31.983C16.7804 32.0559 16.6103 32.1669 16.4681 32.309C16.326 32.4512 16.2149 32.6213 16.1421 32.8087C16.0014 33.1911 15.9478 33.6002 15.9852 34.006C16.0483 34.8941 16.3439 35.75 16.8425 36.4878C17.3411 37.2255 18.025 37.819 18.8256 38.2087L18.677 38.0807" fill="white"/>
<path d="M18.7967 38.4234C18.7668 38.4296 18.7359 38.4296 18.7059 38.4234C17.8745 38.0149 17.1643 37.3962 16.6457 36.6286C16.1272 35.8609 15.8184 34.9711 15.7499 34.0473C15.7109 33.6103 15.7702 33.1702 15.9233 32.7592C16.0052 32.5382 16.1334 32.3373 16.2993 32.1699C16.4652 32.0026 16.665 31.8727 16.8853 31.789C17.1375 31.7172 17.4027 31.7037 17.6609 31.7494C17.9191 31.7952 18.1635 31.8991 18.3756 32.0532C18.7655 32.3355 19.1119 32.6735 19.4036 33.0564C19.8474 33.5135 20.1548 34.0855 20.2912 34.7078C20.2983 34.7625 20.2834 34.8179 20.2497 34.8616C20.2161 34.9054 20.1664 34.9339 20.1116 34.9411C20.0569 34.9482 20.0016 34.9333 19.9578 34.8996C19.9141 34.8659 19.8855 34.8162 19.8784 34.7615C19.7456 34.2213 19.4704 33.7267 19.0816 33.3289C18.8245 32.9738 18.5155 32.6593 18.1651 32.3959C18.0046 32.2777 17.8198 32.1967 17.6242 32.1589C17.4285 32.121 17.2269 32.1272 17.0339 32.1771C16.8717 32.2402 16.7246 32.3368 16.6023 32.4606C16.4799 32.5843 16.385 32.7325 16.3238 32.8954C16.191 33.2481 16.1415 33.6268 16.1793 34.0018C16.2376 34.8005 16.4914 35.5725 16.9183 36.2499C17.3453 36.9274 17.9322 37.4895 18.6275 37.8867C18.6579 37.8808 18.6893 37.8817 18.7193 37.8896C18.7494 37.8975 18.7772 37.912 18.8009 37.9321L18.9454 38.0601C18.9828 38.0928 19.0075 38.1376 19.015 38.1867C19.0226 38.2358 19.0125 38.286 18.9866 38.3284C18.9656 38.3591 18.9372 38.3839 18.904 38.4005C18.8708 38.4171 18.8338 38.425 18.7967 38.4234Z" fill="#231F20"/>
<path d="M23.9101 31.9211C24.0907 31.89 24.1727 31.4898 24.0932 31.027C24.0138 30.5643 23.803 30.2143 23.6224 30.2453C23.4418 30.2763 23.3598 30.6766 23.4393 31.1393C23.5187 31.6021 23.7296 31.9521 23.9101 31.9211Z" fill="#231F20"/>
<path d="M12.505 47.3615L12.8931 44.6904L23.3174 44.1L24.8862 47.8156C20.8109 48.9434 16.4867 48.7847 12.505 47.3615Z" fill="white"/>
<path d="M19.5027 48.7445C17.0967 48.747 14.7075 48.3451 12.4348 47.5555C12.3899 47.5398 12.3517 47.509 12.3269 47.4683C12.3021 47.4277 12.2921 47.3797 12.2986 47.3326L12.6908 44.6615C12.6966 44.6136 12.7194 44.5694 12.755 44.5369C12.7906 44.5043 12.8366 44.4856 12.8848 44.4839L23.3091 43.8936C23.3509 43.8912 23.3924 43.9018 23.4279 43.924C23.4634 43.9462 23.4911 43.9788 23.5073 44.0174L25.0761 47.733C25.0882 47.7589 25.0945 47.7871 25.0945 47.8156C25.0945 47.8441 25.0882 47.8723 25.0761 47.8982C25.0652 47.9242 25.0489 47.9476 25.0283 47.9668C25.0076 47.9861 24.9831 48.0006 24.9564 48.0096C23.1846 48.5217 21.3468 48.7694 19.5027 48.7445ZM12.732 47.2211C16.5615 48.5297 20.69 48.6905 24.6096 47.6835L23.1853 44.3106L13.0747 44.8885L12.732 47.2211Z" fill="#231F20"/>
<path d="M35.6573 89.7193L34.9843 83.1839L8.14948 83.7L8.04626 89.7193H35.6573Z" fill="#231F20"/>
<path d="M35.6573 89.9257H8.04627C8.01857 89.9261 7.99109 89.9208 7.96553 89.9101C7.93996 89.8995 7.91686 89.8837 7.89764 89.8638C7.86071 89.823 7.84013 89.7701 7.83984 89.7151L7.94305 83.6959C7.94305 83.6422 7.96437 83.5908 8.0023 83.5528C8.04024 83.5149 8.0917 83.4936 8.14535 83.4936L34.9802 82.9775C35.0318 82.9763 35.082 82.9949 35.1203 83.0294C35.1587 83.0639 35.1824 83.1118 35.1866 83.1633L35.8637 89.6986C35.8674 89.7268 35.8649 89.7555 35.8564 89.7826C35.8478 89.8097 35.8334 89.8346 35.8142 89.8555C35.7946 89.8778 35.7704 89.8956 35.7434 89.9077C35.7163 89.9198 35.6869 89.9259 35.6573 89.9257ZM8.25682 89.5128H35.4302L34.7986 83.3945L8.35177 83.9023L8.25682 89.5128Z" fill="#231F20"/>
<path d="M33.7169 51.0193C33.7169 51.0193 32.3545 46.4326 18.4417 45.5697C14.6931 45.3344 11.0889 46.0982 8.64491 47.2995C8.38069 49.4587 7.67886 73.2138 7.10913 84.5257C16.8785 85.2046 26.6894 84.9959 36.4211 83.9023C36.4211 83.9023 32.7467 53.389 33.7169 51.0193Z" fill="#DDDDDD"/>
<path d="M31.9871 49.0748C31.9871 49.0748 41.0036 56.7991 44.0339 58.6899C44.0339 58.6899 42.4197 62.4055 38.0642 71.0339C31.8178 66.8394 22.6486 59.9945 22.6486 59.9945L31.9871 49.0748Z" fill="#DDDDDD"/>
<path d="M7.17939 81.3303C7.15225 81.3282 7.12579 81.3208 7.10153 81.3084C7.07728 81.2961 7.05571 81.279 7.03805 81.2583C7.0204 81.2376 7.00703 81.2136 6.99869 81.1877C6.99035 81.1618 6.98722 81.1345 6.98948 81.1073C7.31976 76.8096 7.95141 55.3913 7.95966 55.1725C7.96283 55.1188 7.9864 55.0684 8.02555 55.0315C8.0647 54.9947 8.11646 54.9742 8.17022 54.9743C8.19732 54.9749 8.22406 54.9807 8.2489 54.9916C8.27374 55.0025 8.2962 55.0181 8.31498 55.0377C8.33377 55.0572 8.34852 55.0803 8.35839 55.1056C8.36826 55.1308 8.37306 55.1578 8.37251 55.1849C8.37251 55.4037 7.7326 76.8344 7.40232 81.1404C7.40024 81.1675 7.39281 81.194 7.38046 81.2182C7.36811 81.2425 7.35109 81.2641 7.33037 81.2817C7.30965 81.2994 7.28564 81.3127 7.25973 81.3211C7.23382 81.3294 7.20651 81.3325 7.17939 81.3303Z" fill="#231F20"/>
<path d="M38.0683 71.2404C38.026 71.2416 37.9843 71.2301 37.9486 71.2073L25.3197 62.5665C25.2816 62.5333 25.2571 62.4873 25.2507 62.4371C25.2443 62.387 25.2565 62.3363 25.285 62.2946C25.3135 62.2529 25.3563 62.2231 25.4053 62.2108C25.4543 62.1985 25.5061 62.2046 25.5509 62.228L38.1839 70.8647C38.2279 70.897 38.258 70.9449 38.2679 70.9985C38.2779 71.0522 38.2671 71.1077 38.2376 71.1537C38.2181 71.1804 38.1927 71.2021 38.1633 71.2172C38.1339 71.2323 38.1013 71.2402 38.0683 71.2404Z" fill="#231F20"/>
<path d="M21.1459 42.1101C21.1459 42.1101 18.0041 41.4372 17.1991 40.5661C17.4634 41.3934 18.0214 42.0954 18.7679 42.5394C19.6246 43.0622 20.5463 43.4703 21.5092 43.7532L21.1459 42.1101Z" fill="#231F20"/>
<path d="M21.5092 43.939H21.4679C20.4862 43.65 19.5465 43.2336 18.673 42.7005C17.8835 42.228 17.2957 41.4814 17.0216 40.6032C17.0083 40.5587 17.0113 40.5109 17.0303 40.4685C17.0492 40.426 17.0828 40.3918 17.1248 40.372C17.1647 40.35 17.2109 40.3421 17.2558 40.3496C17.3008 40.3571 17.3419 40.3795 17.3725 40.4133C17.9959 41.0862 20.3532 41.7096 21.2119 41.8954C21.2505 41.9034 21.2859 41.9226 21.3138 41.9504C21.3417 41.9783 21.3608 42.0137 21.3688 42.0523L21.7321 43.7037C21.7385 43.7383 21.7366 43.7739 21.7265 43.8076C21.7165 43.8414 21.6986 43.8722 21.6743 43.8977C21.6511 43.9155 21.6244 43.9283 21.596 43.9354C21.5676 43.9425 21.5381 43.9437 21.5092 43.939ZM17.6986 41.1523C17.989 41.6379 18.3927 42.0458 18.8752 42.3413C19.6185 42.7904 20.409 43.1559 21.2326 43.4312L20.9725 42.2628C19.8423 42.0192 18.7438 41.6466 17.6986 41.1523Z" fill="#231F20"/>
<path d="M119.675 8.8844H15.2959C15.2415 8.88334 15.1896 8.86126 15.1511 8.82277C15.1126 8.78429 15.0905 8.7324 15.0895 8.67798C15.0895 8.62323 15.1112 8.57073 15.1499 8.53202C15.1886 8.49331 15.2412 8.47156 15.2959 8.47156H119.675C119.73 8.47156 119.783 8.49331 119.821 8.53202C119.86 8.57073 119.882 8.62323 119.882 8.67798C119.882 8.73273 119.86 8.78523 119.821 8.82394C119.783 8.86265 119.73 8.8844 119.675 8.8844Z" fill="#D1D3D4"/>
<path d="M62.166 5.53623H45.3427C45.2332 5.53623 45.1282 5.49273 45.0507 5.41531C44.9733 5.33789 44.9298 5.23288 44.9298 5.12338C44.9298 5.01389 44.9733 4.90888 45.0507 4.83146C45.1282 4.75404 45.2332 4.71054 45.3427 4.71054H62.166C62.2755 4.71054 62.3805 4.75404 62.458 4.83146C62.5354 4.90888 62.5789 5.01389 62.5789 5.12338C62.5789 5.23288 62.5354 5.33789 62.458 5.41531C62.3805 5.49273 62.2755 5.53623 62.166 5.53623Z" fill="#D1D3D4"/>
<path d="M36.4252 5.53623H19.6018C19.4923 5.53623 19.3873 5.49273 19.3099 5.41531C19.2325 5.33789 19.189 5.23288 19.189 5.12338C19.189 5.01389 19.2325 4.90888 19.3099 4.83146C19.3873 4.75404 19.4923 4.71054 19.6018 4.71054H36.4252C36.5347 4.71054 36.6397 4.75404 36.7171 4.83146C36.7945 4.90888 36.838 5.01389 36.838 5.12338C36.838 5.23288 36.7945 5.33789 36.7171 5.41531C36.6397 5.49273 36.5347 5.53623 36.4252 5.53623Z" fill="#D1D3D4"/>
<path d="M89.711 5.53623H72.8876C72.7781 5.53623 72.6731 5.49273 72.5957 5.41531C72.5182 5.33789 72.4747 5.23288 72.4747 5.12338C72.4747 5.01389 72.5182 4.90888 72.5957 4.83146C72.6731 4.75404 72.7781 4.71054 72.8876 4.71054H89.711C89.8205 4.71054 89.9255 4.75404 90.0029 4.83146C90.0803 4.90888 90.1238 5.01389 90.1238 5.12338C90.1238 5.23288 90.0803 5.33789 90.0029 5.41531C89.9255 5.49273 89.8205 5.53623 89.711 5.53623Z" fill="#D1D3D4"/>
<path d="M116.257 5.53623H99.4335C99.324 5.53623 99.219 5.49273 99.1415 5.41531C99.0641 5.33789 99.0206 5.23288 99.0206 5.12338C99.0206 5.01389 99.0641 4.90888 99.1415 4.83146C99.219 4.75404 99.324 4.71054 99.4335 4.71054H116.257C116.366 4.71054 116.471 4.75404 116.549 4.83146C116.626 4.90888 116.67 5.01389 116.67 5.12338C116.67 5.23288 116.626 5.33789 116.549 5.41531C116.471 5.49273 116.366 5.53623 116.257 5.53623Z" fill="#D1D3D4"/>
<path d="M52.811 18.3303H43.6005V27.5408H52.811V18.3303Z" fill="white"/>
<path d="M52.811 27.7472H43.6005C43.5457 27.7472 43.4932 27.7255 43.4545 27.6868C43.4158 27.6481 43.394 27.5956 43.394 27.5408V18.3303C43.394 18.2755 43.4158 18.223 43.4545 18.1843C43.4932 18.1456 43.5457 18.1239 43.6005 18.1239H52.811C52.8658 18.1239 52.9183 18.1456 52.957 18.1843C52.9957 18.223 53.0174 18.2755 53.0174 18.3303V27.5408C53.0174 27.5679 53.0121 27.5948 53.0017 27.6198C52.9914 27.6449 52.9761 27.6676 52.957 27.6868C52.9378 27.706 52.9151 27.7212 52.89 27.7315C52.865 27.7419 52.8381 27.7472 52.811 27.7472ZM43.8069 27.3344H52.6046V18.5367H43.8069V27.3344Z" fill="#D1D3D4"/>
<path d="M51.1349 20.5101H45.2766C45.2219 20.5101 45.1694 20.4883 45.1307 20.4496C45.0919 20.4109 45.0702 20.3584 45.0702 20.3037C45.0712 20.2493 45.0933 20.1974 45.1318 20.1589C45.1703 20.1204 45.2222 20.0983 45.2766 20.0972H51.1349C51.1893 20.0983 51.2412 20.1204 51.2797 20.1589C51.3182 20.1974 51.3402 20.2493 51.3413 20.3037C51.3413 20.3584 51.3195 20.4109 51.2808 20.4496C51.2421 20.4883 51.1896 20.5101 51.1349 20.5101Z" fill="#D1D3D4"/>
<path d="M51.1349 22.2317H45.2766C45.2219 22.2317 45.1694 22.2099 45.1307 22.1712C45.0919 22.1325 45.0702 22.08 45.0702 22.0252C45.0712 21.9708 45.0933 21.9189 45.1318 21.8804C45.1703 21.842 45.2222 21.8199 45.2766 21.8188H51.1349C51.1893 21.8199 51.2412 21.842 51.2797 21.8804C51.3182 21.9189 51.3402 21.9708 51.3413 22.0252C51.3413 22.08 51.3195 22.1325 51.2808 22.1712C51.2421 22.2099 51.1896 22.2317 51.1349 22.2317Z" fill="#D1D3D4"/>
<path d="M51.1349 23.945H45.2766C45.2219 23.945 45.1694 23.9232 45.1307 23.8845C45.0919 23.8458 45.0702 23.7933 45.0702 23.7385C45.0712 23.6841 45.0933 23.6322 45.1318 23.5937C45.1703 23.5552 45.2222 23.5332 45.2766 23.5321H51.1349C51.1893 23.5332 51.2412 23.5552 51.2797 23.5937C51.3182 23.6322 51.3402 23.6841 51.3413 23.7385C51.3413 23.7933 51.3195 23.8458 51.2808 23.8845C51.2421 23.9232 51.1896 23.945 51.1349 23.945Z" fill="#D1D3D4"/>
<path d="M48.8312 25.6748H45.2766C45.2219 25.6748 45.1694 25.653 45.1307 25.6143C45.0919 25.5756 45.0702 25.5231 45.0702 25.4683C45.0712 25.4139 45.0933 25.362 45.1318 25.3235C45.1703 25.2851 45.2222 25.263 45.2766 25.2619H48.8312C48.8856 25.263 48.9375 25.2851 48.976 25.3235C49.0145 25.362 49.0366 25.4139 49.0376 25.4683C49.0376 25.4954 49.0323 25.5223 49.0219 25.5473C49.0115 25.5724 48.9963 25.5951 48.9772 25.6143C48.958 25.6335 48.9352 25.6487 48.9102 25.659C48.8852 25.6694 48.8583 25.6748 48.8312 25.6748Z" fill="#D1D3D4"/>
<path d="M64.7339 12.2284H55.5233V21.439H64.7339V12.2284Z" fill="#D1D3D4"/>
<path d="M63.0577 14.7963H57.2036C57.1489 14.7963 57.0964 14.7746 57.0577 14.7359C57.0189 14.6972 56.9972 14.6447 56.9972 14.5899C56.9972 14.5352 57.0189 14.4827 57.0577 14.4439C57.0964 14.4052 57.1489 14.3835 57.2036 14.3835H63.0577C63.1125 14.3835 63.165 14.4052 63.2037 14.4439C63.2424 14.4827 63.2642 14.5352 63.2642 14.5899C63.2642 14.6447 63.2424 14.6972 63.2037 14.7359C63.165 14.7746 63.1125 14.7963 63.0577 14.7963Z" fill="white"/>
<path d="M63.0577 16.5138H57.2036C57.1489 16.5138 57.0964 16.492 57.0577 16.4533C57.0189 16.4146 56.9972 16.3621 56.9972 16.3073C56.9972 16.2526 57.0189 16.2001 57.0577 16.1614C57.0964 16.1227 57.1489 16.1009 57.2036 16.1009H63.0577C63.1125 16.1009 63.165 16.1227 63.2037 16.1614C63.2424 16.2001 63.2642 16.2526 63.2642 16.3073C63.2642 16.3621 63.2424 16.4146 63.2037 16.4533C63.165 16.492 63.1125 16.5138 63.0577 16.5138Z" fill="white"/>
<path d="M61.5798 18.2394H57.2036C57.1489 18.2394 57.0964 18.2177 57.0577 18.179C57.0189 18.1403 56.9972 18.0878 56.9972 18.033C56.9972 17.9783 57.0189 17.9258 57.0577 17.8871C57.0964 17.8483 57.1489 17.8266 57.2036 17.8266H61.5798C61.6345 17.8266 61.687 17.8483 61.7257 17.8871C61.7644 17.9258 61.7862 17.9783 61.7862 18.033C61.7862 18.0878 61.7644 18.1403 61.7257 18.179C61.687 18.2177 61.6345 18.2394 61.5798 18.2394Z" fill="white"/>
<path d="M81.2972 11.1922H72.0867V20.4028H81.2972V11.1922Z" fill="white"/>
<path d="M81.2972 20.6092H72.0867C72.0319 20.6092 71.9794 20.5874 71.9407 20.5487C71.902 20.51 71.8802 20.4575 71.8802 20.4028V11.1922C71.8813 11.1378 71.9034 11.0859 71.9419 11.0474C71.9804 11.0089 72.0323 10.9868 72.0867 10.9858H81.2972C81.352 10.9858 81.4045 11.0075 81.4432 11.0462C81.4819 11.0849 81.5036 11.1375 81.5036 11.1922V20.4028C81.5036 20.4299 81.4983 20.4567 81.4879 20.4817C81.4776 20.5068 81.4624 20.5295 81.4432 20.5487C81.424 20.5679 81.4013 20.5831 81.3762 20.5935C81.3512 20.6038 81.3243 20.6092 81.2972 20.6092ZM72.2931 20.1963H81.0908V11.3986H72.2931V20.1963Z" fill="#D1D3D4"/>
<path d="M79.6211 13.372H73.767C73.7122 13.372 73.6597 13.3503 73.621 13.3116C73.5823 13.2729 73.5605 13.2204 73.5605 13.1656C73.5605 13.1109 73.5823 13.0584 73.621 13.0196C73.6597 12.9809 73.7122 12.9592 73.767 12.9592H79.6211C79.6759 12.9592 79.7284 12.9809 79.7671 13.0196C79.8058 13.0584 79.8275 13.1109 79.8275 13.1656C79.8275 13.2204 79.8058 13.2729 79.7671 13.3116C79.7284 13.3503 79.6759 13.372 79.6211 13.372Z" fill="#D1D3D4"/>
<path d="M79.6211 15.0936H73.767C73.7122 15.0936 73.6597 15.0718 73.621 15.0331C73.5823 14.9944 73.5605 14.9419 73.5605 14.8871C73.5605 14.8324 73.5823 14.7799 73.621 14.7412C73.6597 14.7025 73.7122 14.6807 73.767 14.6807H79.6211C79.6759 14.6807 79.7284 14.7025 79.7671 14.7412C79.8058 14.7799 79.8275 14.8324 79.8275 14.8871C79.8275 14.9419 79.8058 14.9944 79.7671 15.0331C79.7284 15.0718 79.6759 15.0936 79.6211 15.0936Z" fill="#D1D3D4"/>
<path d="M79.6211 16.8151H73.767C73.7122 16.8151 73.6597 16.7934 73.621 16.7547C73.5823 16.716 73.5605 16.6635 73.5605 16.6087C73.5605 16.554 73.5823 16.5015 73.621 16.4628C73.6597 16.424 73.7122 16.4023 73.767 16.4023H79.6211C79.6759 16.4023 79.7284 16.424 79.7671 16.4628C79.8058 16.5015 79.8275 16.554 79.8275 16.6087C79.8275 16.6635 79.8058 16.716 79.7671 16.7547C79.7284 16.7934 79.6759 16.8151 79.6211 16.8151Z" fill="#D1D3D4"/>
<path d="M77.3174 18.5367H73.767C73.7122 18.5367 73.6597 18.5149 73.621 18.4762C73.5823 18.4375 73.5605 18.385 73.5605 18.3303C73.5605 18.2755 73.5823 18.223 73.621 18.1843C73.6597 18.1456 73.7122 18.1239 73.767 18.1239H77.3174C77.3722 18.1239 77.4247 18.1456 77.4634 18.1843C77.5021 18.223 77.5239 18.2755 77.5239 18.3303C77.5239 18.385 77.5021 18.4375 77.4634 18.4762C77.4247 18.5149 77.3722 18.5367 77.3174 18.5367Z" fill="#D1D3D4"/>
<path d="M92.6959 19.1436H83.4854V28.3541H92.6959V19.1436Z" fill="#D1D3D4"/>
<path d="M91.0155 21.3234H85.1614C85.1066 21.3234 85.0541 21.3016 85.0154 21.2629C84.9767 21.2242 84.955 21.1717 84.955 21.117C84.955 21.0622 84.9767 21.0097 85.0154 20.971C85.0541 20.9323 85.1066 20.9106 85.1614 20.9106H91.0155C91.0703 20.9106 91.1228 20.9323 91.1615 20.971C91.2002 21.0097 91.2219 21.0622 91.2219 21.117C91.2219 21.1717 91.2002 21.2242 91.1615 21.2629C91.1228 21.3016 91.0703 21.3234 91.0155 21.3234Z" fill="white"/>
<path d="M91.0155 23.045H85.1614C85.1066 23.045 85.0541 23.0232 85.0154 22.9845C84.9767 22.9458 84.955 22.8933 84.955 22.8385C84.955 22.7838 84.9767 22.7313 85.0154 22.6926C85.0541 22.6539 85.1066 22.6321 85.1614 22.6321H91.0155C91.0703 22.6321 91.1228 22.6539 91.1615 22.6926C91.2002 22.7313 91.2219 22.7838 91.2219 22.8385C91.2219 22.8933 91.2002 22.9458 91.1615 22.9845C91.1228 23.0232 91.0703 23.045 91.0155 23.045Z" fill="white"/>
<path d="M91.0155 24.7706H85.1614C85.1066 24.7706 85.0541 24.7489 85.0154 24.7102C84.9767 24.6715 84.955 24.619 84.955 24.5642C84.955 24.5095 84.9767 24.457 85.0154 24.4183C85.0541 24.3796 85.1066 24.3578 85.1614 24.3578H91.0155C91.0703 24.3578 91.1228 24.3796 91.1615 24.4183C91.2002 24.457 91.2219 24.5095 91.2219 24.5642C91.2219 24.619 91.2002 24.6715 91.1615 24.7102C91.1228 24.7489 91.0703 24.7706 91.0155 24.7706Z" fill="white"/>
<path d="M88.7119 26.4881H85.1614C85.1066 26.4881 85.0541 26.4663 85.0154 26.4276C84.9767 26.3889 84.955 26.3364 84.955 26.2816C84.955 26.2269 84.9767 26.1744 85.0154 26.1357C85.0541 26.097 85.1066 26.0752 85.1614 26.0752H88.7119C88.7666 26.0752 88.8191 26.097 88.8578 26.1357C88.8965 26.1744 88.9183 26.2269 88.9183 26.2816C88.9183 26.3364 88.8965 26.3889 88.8578 26.4276C88.8191 26.4663 88.7666 26.4881 88.7119 26.4881Z" fill="white"/>
</svg>
