<svg width="102" height="95" viewBox="0 0 102 95" fill="none" xmlns="http://www.w3.org/2000/svg">
<g clip-path="url(#clip0)">
<path d="M27.3371 84.5932C32.7299 84.5932 37.1017 82.7985 37.1017 80.5847C37.1017 78.3708 32.7299 76.5762 27.3371 76.5762C21.9443 76.5762 17.5725 78.3708 17.5725 80.5847C17.5725 82.7985 21.9443 84.5932 27.3371 84.5932Z" fill="#666666"/>
<path d="M28.5711 62.2464H26.8667V81.9482H28.5711V62.2464Z" fill="#666666"/>
<path d="M19.8594 75.5104C20.0665 75.8038 19.5616 78.5955 20.567 79.4542C21.5724 80.3128 23.8636 81.5339 23.363 82.3926C22.8625 83.2513 15.0439 80.2352 15.0439 80.2352L15.7602 74.7855" fill="#999999"/>
<path d="M25.8528 73.0293C26.0599 73.3227 25.555 76.1145 26.5604 76.9731C27.5658 77.8318 29.857 79.0529 29.3565 79.9115C28.8559 80.7702 21.0374 77.7541 21.0374 77.7541L21.7536 72.3044" fill="#999999"/>
<path d="M8.50693 73.2753C12.1196 73.2753 15.0483 72.1413 15.0483 70.7424C15.0483 69.3436 12.1196 68.2096 8.50693 68.2096C4.89424 68.2096 1.96558 69.3436 1.96558 70.7424C1.96558 72.1413 4.89424 73.2753 8.50693 73.2753Z" fill="#666666"/>
<path d="M9.6202 57.9963H7.3894V69.983H9.6202V57.9963Z" fill="#666666"/>
<path d="M1.46516 58.3976C1.26151 57.9145 1.0942 57.4169 0.964641 56.9089C-0.0191517 53.0255 -0.6707 38.5189 5.85771 39.1101C13.0204 39.7573 10.6041 57.6986 17.8617 57.1462C25.1193 56.5939 28.0966 58.4839 25.128 61.2972C19.195 66.9151 5.10261 67.0403 1.46516 58.3976Z" fill="#DDDDDD"/>
<path d="M7.10892 57.1247C7.10892 57.1247 6.78962 60.5766 8.40338 61.9746C10.0171 63.3726 15.8422 65.0252 15.8422 65.0252C15.8422 65.0252 13.8746 74.518 14.2328 75.3809C14.5909 76.2439 18.8152 76.7013 21.0244 75.3809C21.0244 75.3809 24.2606 76.218 26.4094 74.2375C26.4094 74.2375 30.556 62.501 29.2356 58.678C27.9153 54.8551 20.6706 53.7677 20.6706 53.7677L7.10892 57.1247Z" fill="#FFE0DE"/>
<path d="M8.32994 35.1792C7.85098 34.3421 6.36235 33.2461 5.49506 34.2083C5.32966 34.4174 5.25243 34.6828 5.27983 34.948C5.30724 35.2131 5.4371 35.4571 5.64177 35.6279C6.07325 36.0594 6.81973 36.1673 7.36772 36.3399C7.43589 36.3615 7.50817 36.3668 7.57876 36.3554C7.64936 36.344 7.71629 36.3162 7.7742 36.2742C7.8321 36.2323 7.87936 36.1773 7.91218 36.1138C7.94499 36.0503 7.96246 35.9799 7.96317 35.9084C8.0442 35.9004 8.12188 35.8719 8.189 35.8258C8.25612 35.7797 8.31049 35.7174 8.34708 35.6447C8.38367 35.5719 8.40128 35.4911 8.39829 35.4097C8.39529 35.3284 8.37178 35.2491 8.32994 35.1792V35.1792Z" fill="#FBB5AD"/>
<path d="M18.9964 51.0234L6.21143 47.8952C6.21143 47.8952 6.6084 53.4398 7.10892 57.1463C9.39581 58.1732 12.1832 58.1516 14.6082 57.7978C16.3308 57.5982 18.0095 57.1203 19.5789 56.3825C20.0875 56.1182 20.5751 55.8153 21.0373 55.4764C20.8432 54.1129 19.1517 52.374 18.9964 51.0234Z" fill="#999999"/>
<path d="M19.9412 52.689L18.6122 48.6891C17.4127 45.0775 15.5185 40.1586 12.1399 38.1478C9.25327 37.9968 7.79916 39.0885 5.12825 40.3959C4.76337 40.7652 4.438 41.1716 4.1574 41.6084C3.79191 42.641 3.66361 43.7426 3.78201 44.8316C4.563 52.8529 16.2304 56.7493 21.6111 58.2077C21.6672 57.2067 21.9433 54.7558 21.9347 53.7289L19.9412 52.689Z" fill="#999999"/>
<path d="M17.4473 57.0556C13.1544 55.7675 9.28213 53.3593 6.22857 50.0785C6.03009 49.8671 5.7151 50.1864 5.90927 50.3978C9.02281 53.7362 12.9697 56.1848 17.3437 57.4915C17.4 57.5013 17.458 57.4893 17.5057 57.4578C17.5535 57.4264 17.5874 57.3779 17.6007 57.3223C17.6139 57.2667 17.6054 57.2081 17.5769 57.1585C17.5483 57.109 17.502 57.0722 17.4473 57.0556V57.0556Z" fill="#777777"/>
<path d="M22.1764 53.4484C19.1949 52.2427 16.3768 50.6669 13.7883 48.7581C13.5553 48.5855 13.3309 48.9782 13.5596 49.1465C16.1812 51.0788 19.0357 52.6735 22.0556 53.8928C22.3231 53.9921 22.4396 53.5563 22.1764 53.4484Z" fill="#777777"/>
<path d="M11.9631 38.0831C11.9631 38.0831 15.8681 38.5146 17.8961 42.1132C19.9241 45.7118 25.02 49.5995 25.2314 49.6729C25.4428 49.7462 27.7081 50.9026 27.7081 50.9026C27.7081 50.9026 28.0317 54.471 26.8452 55.1441C25.6586 55.8173 18.2758 51.4765 18.2758 51.4765" fill="#999999"/>
<path d="M12.9986 32.3616C12.9986 32.3616 14.4139 38.9202 12.2478 39.7573C10.0818 40.5944 7.87687 39.0799 7.50148 37.8415C7.12608 36.6031 7.35046 34.7132 7.35046 34.7132C7.35046 34.7132 8.95559 32.3961 12.9986 32.3616Z" fill="#FBB5AD"/>
<path d="M13.2275 31.2009C13.2965 29.6044 11.07 28.612 10.0431 29.9496C9.78714 29.7278 9.48559 29.5649 9.15977 29.4724C8.83394 29.38 8.49179 29.3602 8.15748 29.4145C7.21253 29.5742 6.8846 30.2473 6.96227 31.1405C6.69033 31.1359 6.42116 31.1957 6.17671 31.3149C5.93226 31.4341 5.71944 31.6094 5.55561 31.8265C5.37179 32.0881 5.27314 32.4 5.27314 32.7197C5.27314 33.0394 5.37179 33.3513 5.55561 33.6129C5.22059 33.7466 4.94106 33.9903 4.76303 34.304C4.58501 34.6177 4.51909 34.9827 4.57614 35.3389C4.59944 35.6614 4.70329 35.973 4.87818 36.245C4.83641 36.3463 4.80602 36.4519 4.78757 36.56C4.74201 36.8566 4.78483 37.16 4.91068 37.4324C5.03653 37.7048 5.23983 37.9342 5.49521 38.0917C5.7917 38.2926 6.14249 38.398 6.50057 38.3938C6.61815 38.6199 6.79713 38.8083 7.01695 38.9373C7.23676 39.0663 7.4885 39.1306 7.74326 39.123C8.06318 39.112 8.36769 38.9829 8.59799 38.7606C8.82829 38.5383 8.96804 38.2385 8.99026 37.9191C9.00447 37.7394 8.98095 37.5586 8.92122 37.3884C9.22013 36.7269 9.27517 35.981 9.07656 35.2828C9.17253 35.2519 9.26396 35.2084 9.34839 35.1533C9.60397 34.9716 9.7849 34.7033 9.85755 34.3982C10.1574 34.5058 10.4804 34.5325 10.7939 34.4759C10.9419 34.4449 11.0793 34.3757 11.1921 34.2749C11.3049 34.1742 11.3893 34.0456 11.4368 33.902C12.2048 34.1048 13.2922 33.8114 13.6848 33.1124C13.8529 32.7924 13.8992 32.4223 13.8151 32.0707C13.731 31.7192 13.5222 31.4101 13.2275 31.2009V31.2009Z" fill="#444444"/>
<path d="M9.51658 36.8793C9.47916 36.6694 9.39942 36.4694 9.28222 36.2914C9.16501 36.1133 9.01279 35.961 8.83483 35.8437C8.75111 35.7719 8.65382 35.7176 8.54873 35.684C8.44364 35.6505 8.33289 35.6384 8.22304 35.6485C8.11318 35.6585 8.00647 35.6905 7.90922 35.7426C7.81197 35.7947 7.72616 35.8657 7.65687 35.9516C7.55099 36.1171 7.49911 36.3115 7.50838 36.5078C7.51766 36.7041 7.58763 36.8927 7.70865 37.0476C7.99775 37.4273 8.47238 37.4316 8.8823 37.5956C9.12825 37.6948 9.27495 37.4488 9.22317 37.2417C9.26678 37.2386 9.30928 37.2266 9.34804 37.2063C9.3868 37.1861 9.42099 37.1581 9.4485 37.1242C9.47601 37.0902 9.49624 37.0509 9.50796 37.0088C9.51967 36.9667 9.5226 36.9226 9.51658 36.8793V36.8793Z" fill="#FBB5AD"/>
<path d="M12.55 35.231C12.5198 35.08 12.2868 35.1447 12.317 35.2957L12.5198 36.3226C12.5652 36.4778 12.5969 36.6366 12.6147 36.7973C12.6147 37.0777 12.4766 37.1338 12.2609 37.2633C12.2375 37.2812 12.2214 37.307 12.2157 37.3359C12.21 37.3648 12.215 37.3947 12.2298 37.4202C12.2447 37.4456 12.2683 37.4648 12.2963 37.474C12.3242 37.4833 12.3546 37.482 12.3817 37.4704C12.6622 37.3021 12.8952 37.2201 12.8693 36.8663C12.7967 36.3151 12.6901 35.769 12.55 35.231V35.231Z" fill="#56403D"/>
<path d="M13.1108 34.9505C13.0788 34.9505 13.048 34.9632 13.0254 34.9859C13.0027 35.0086 12.99 35.0393 12.99 35.0713C12.99 35.1034 13.0027 35.1341 13.0254 35.1568C13.048 35.1794 13.0788 35.1922 13.1108 35.1922C13.1428 35.1922 13.1736 35.1794 13.1962 35.1568C13.2189 35.1341 13.2316 35.1034 13.2316 35.0713C13.2316 35.0393 13.2189 35.0086 13.1962 34.9859C13.1736 34.9632 13.1428 34.9505 13.1108 34.9505Z" fill="#56403D"/>
<path d="M10.7766 35.7401C10.7445 35.7401 10.7138 35.7529 10.6911 35.7755C10.6685 35.7982 10.6558 35.8289 10.6558 35.8609C10.6558 35.893 10.6685 35.9237 10.6911 35.9464C10.7138 35.969 10.7445 35.9818 10.7766 35.9818C10.8086 35.9818 10.8394 35.969 10.862 35.9464C10.8847 35.9237 10.8974 35.893 10.8974 35.8609C10.8974 35.8289 10.8847 35.7982 10.862 35.7755C10.8394 35.7529 10.8086 35.7401 10.7766 35.7401Z" fill="#56403D"/>
<path d="M12.0106 37.9407C11.8255 38.02 11.6178 38.0292 11.4264 37.9664C11.235 37.9037 11.073 37.7734 10.9708 37.5999C10.9529 37.5765 10.9271 37.5604 10.8982 37.5547C10.8693 37.5489 10.8393 37.554 10.8138 37.5688C10.7884 37.5837 10.7693 37.6073 10.76 37.6353C10.7508 37.6632 10.7521 37.6936 10.7636 37.7207C10.8992 37.9488 11.1141 38.1189 11.3673 38.1985C11.6204 38.2781 11.894 38.2616 12.1358 38.1522C12.2738 38.0875 12.153 37.8803 12.0106 37.9407Z" fill="#56403D"/>
<path d="M75.9915 36.8361L79.0119 65.8968C79.2804 66.0957 79.6024 66.2093 79.9363 66.2232C80.2701 66.237 80.6004 66.1504 80.8845 65.9745L77.6743 36.6981L75.9915 36.8361Z" fill="#666666"/>
<path d="M94.593 14.7008L99.3005 58.212L83.0981 49.8282L94.593 14.7008Z" fill="#666666"/>
<path d="M85.1348 80.9946L94.606 15.2358L93.1519 14.6965L83.3269 80.4509C83.5382 80.7134 83.824 80.9057 84.1467 81.0028C84.4693 81.0998 84.8138 81.0969 85.1348 80.9946Z" fill="#DDDDDD"/>
<path d="M61.6145 70.1427L71.0856 4.38393L69.6315 3.84457L59.8152 69.599C60.0259 69.8598 60.3102 70.0511 60.6311 70.1481C60.952 70.245 61.2947 70.2431 61.6145 70.1427V70.1427Z" fill="#DDDDDD"/>
<path d="M95.2013 20.7632H93.6221L99.417 76.2223C99.6855 76.4212 100.008 76.5348 100.341 76.5487C100.675 76.5625 101.006 76.4759 101.29 76.3L95.2013 20.7632Z" fill="#666666"/>
<path d="M94.5931 14.7008C82.8265 7.77109 71.6682 1.23836 69.7222 0.245941L63.4268 45.3062L88.1855 59.9509L94.5931 14.7008Z" fill="#DDDDDD"/>
<path d="M28.3509 52.922C20.3511 52.922 13.6803 55.4376 12.0191 58.7945L11.6265 58.3846V60.4083C11.6265 64.5376 19.1128 67.886 28.3509 67.886C37.5891 67.886 45.0754 64.5376 45.0754 60.4083C45.0754 56.279 37.5848 52.922 28.3509 52.922Z" fill="#DDDDDD"/>
<path opacity="0.43" d="M28.3509 52.922C20.3511 52.922 13.6803 55.4376 12.0191 58.7945L11.6265 58.3846V60.4083C11.6265 64.5376 19.1128 67.886 28.3509 67.886C37.5891 67.886 45.0754 64.5376 45.0754 60.4083C45.0754 56.279 37.5848 52.922 28.3509 52.922Z" fill="black"/>
<path d="M28.3509 65.8623C37.5876 65.8623 45.0754 62.5144 45.0754 58.3846C45.0754 54.2548 37.5876 50.9069 28.3509 50.9069C19.1143 50.9069 11.6265 54.2548 11.6265 58.3846C11.6265 62.5144 19.1143 65.8623 28.3509 65.8623Z" fill="#DDDDDD"/>
<path d="M38.5125 25.7382L41.5416 20.2454L43.2891 17.4235L36.532 14.1398L32.1956 23.0371L38.5125 25.7382Z" fill="#CCCCCC"/>
<path d="M45.563 24.7286L43.6386 22.5927C43.4779 22.4539 43.3332 22.2976 43.2071 22.1267C43.0973 21.8395 43.053 21.5314 43.0777 21.2249C43.0424 20.7851 42.957 20.3508 42.8231 19.9304C42.7876 19.8099 42.7101 19.706 42.6047 19.6376C42.4992 19.5692 42.3728 19.5408 42.2483 19.5575C42.1237 19.5741 42.0092 19.6348 41.9255 19.7285C41.8418 19.8223 41.7944 19.9429 41.7918 20.0685C41.7918 20.3403 41.7918 20.6165 41.8177 20.8883C41.6624 20.7474 41.5056 20.6035 41.3474 20.4568C40.7131 21.6046 40.0529 22.7437 39.3755 23.857C39.7509 23.8829 40.1392 23.8829 40.5189 23.857C41.903 24.6819 43.1301 25.7454 44.1434 26.9982C44.2001 27.0625 44.2727 27.1108 44.354 27.1381C44.4353 27.1654 44.5223 27.1708 44.6063 27.1537C44.6904 27.1366 44.7684 27.0977 44.8326 27.0409C44.8967 26.984 44.9448 26.9113 44.9719 26.8299C45.0269 26.819 45.0805 26.8016 45.1315 26.7781H45.1574C45.2754 26.7063 45.361 26.5917 45.3964 26.4582C45.4318 26.3247 45.4142 26.1827 45.3473 26.0619V26.036C45.3247 25.9781 45.2899 25.9257 45.2452 25.8825C45.2005 25.8394 45.147 25.8063 45.0884 25.7857C44.9805 25.6649 44.8813 25.5398 44.782 25.4103L44.8468 25.4794C45.2739 25.9713 46.0118 25.2291 45.563 24.7286Z" fill="#999999"/>
<path d="M41.6365 23.0889C41.4252 22.7938 41.289 22.4517 41.2395 22.0922C41.258 21.7332 41.3945 21.3904 41.6279 21.117C41.7142 20.9919 41.507 20.8711 41.4207 20.9962C41.1603 21.3041 41.0087 21.6893 40.9893 22.0922C41.0388 22.4946 41.187 22.8785 41.4207 23.2097C41.4287 23.2239 41.4393 23.2364 41.4521 23.2464C41.4648 23.2565 41.4794 23.2639 41.4951 23.2683C41.5107 23.2727 41.527 23.274 41.5431 23.2721C41.5593 23.2702 41.5749 23.2651 41.589 23.2572C41.6032 23.2493 41.6157 23.2386 41.6257 23.2259C41.6358 23.2131 41.6432 23.1985 41.6476 23.1829C41.652 23.1673 41.6533 23.1509 41.6514 23.1348C41.6495 23.1187 41.6444 23.1031 41.6365 23.0889V23.0889Z" fill="#333333"/>
<path d="M75.6421 21.8204C75.3443 21.8937 75.0509 21.9714 74.7532 22.0534C74.9562 21.9006 75.0947 21.6774 75.1415 21.4277C75.1751 21.3409 75.1797 21.2455 75.1546 21.1558C75.1295 21.0661 75.0761 20.987 75.0023 20.9302C74.9285 20.8734 74.8383 20.842 74.7452 20.8407C74.6521 20.8393 74.5611 20.8682 74.4857 20.9229C73.6889 21.3256 72.8906 21.7211 72.0909 22.1095C72.0909 22.049 72.1211 21.9886 72.1341 21.9282C72.2607 21.5582 72.3092 21.1659 72.2765 20.7762C72.1039 20.103 71.4955 20.4741 71.2452 21.0048C70.9086 21.7168 70.8137 22.4762 70.201 23.0372C69.8268 23.2899 69.4032 23.4605 68.9583 23.5377C68.5268 23.6671 68.0608 23.7879 67.6078 23.9001C67.4933 23.9001 67.3836 23.9456 67.3026 24.0265C67.2217 24.1074 67.1763 24.2172 67.1763 24.3316C67.1763 24.4461 67.2217 24.5558 67.3026 24.6367C67.3836 24.7176 67.4933 24.7631 67.6078 24.7631C67.5421 24.8038 67.4885 24.8613 67.4527 24.9298C67.4168 24.9982 67.4 25.075 67.404 25.1521C67.4079 25.2293 67.4325 25.304 67.4752 25.3683C67.5179 25.4327 67.5771 25.4845 67.6466 25.5182C67.4481 25.8418 67.6768 26.3812 68.1083 26.1913C69.1614 25.7644 70.2541 25.4421 71.3703 25.2291C72.4692 25.1687 73.5652 25.0767 74.6583 24.953C75.2192 24.8882 75.2365 24.0123 74.6583 24.0598H74.572L75.5558 23.8915C76.0433 23.8095 75.9355 22.9509 75.4393 23.0285H75.3228L74.9948 23.076L75.4652 22.9207C75.7543 22.8214 76.0218 22.7524 76.1685 22.4633C76.2225 22.3862 76.2499 22.2936 76.2463 22.1995C76.2428 22.1054 76.2086 22.0151 76.149 21.9423C76.0894 21.8694 76.0076 21.8181 75.916 21.7961C75.8245 21.7741 75.7283 21.7826 75.6421 21.8204V21.8204Z" fill="#999999"/>
<path d="M72.0909 22.5711C72.0816 22.5489 72.0646 22.5309 72.0429 22.5203C72.0213 22.5098 71.9965 22.5074 71.9733 22.5138C71.9501 22.5201 71.9299 22.5347 71.9167 22.5547C71.9034 22.5748 71.8978 22.5991 71.9011 22.6229C71.9792 22.9041 71.9761 23.2017 71.8921 23.4812C71.8081 23.7607 71.6467 24.0106 71.4264 24.2022C71.3315 24.2885 71.4696 24.4265 71.5645 24.3402C71.8107 24.1254 71.9909 23.8451 72.0841 23.532C72.1773 23.2188 72.1796 22.8856 72.0909 22.5711Z" fill="#333333"/>
<path d="M74.8094 21.9023C74.0874 22.0922 73.3754 22.3122 72.6735 22.5625C72.5527 22.6057 72.6045 22.7955 72.7253 22.7524C73.4272 22.505 74.1391 22.2849 74.8612 22.0922C74.8834 22.0829 74.9014 22.0658 74.912 22.0442C74.9225 22.0225 74.9249 21.9978 74.9185 21.9746C74.9122 21.9513 74.8976 21.9312 74.8775 21.9179C74.8575 21.9046 74.8332 21.8991 74.8094 21.9023Z" fill="#333333"/>
<path d="M75.3099 22.912L73.036 23.2615C72.9108 23.2615 72.9626 23.4729 73.0878 23.4514L75.3617 23.1019C75.4868 23.0846 75.435 22.8948 75.3099 22.912Z" fill="#333333"/>
<path d="M74.8999 23.926C74.2872 23.9634 73.6745 23.9907 73.0618 24.008C72.9367 24.008 72.9323 24.2108 73.0618 24.2065C73.6745 24.1892 74.2872 24.1619 74.8999 24.1245C75.0294 24.1159 75.0294 23.9174 74.8999 23.926Z" fill="#333333"/>
<path d="M46.8531 59.9768C46.8531 59.9768 46.797 62.8807 46.4562 63.3381C46.1153 63.7955 43.0647 65.4136 42.8964 66.1514C42.7281 66.8892 43.2675 67.9507 44.7216 67.5537C46.1757 67.1568 49.6707 64.8915 49.6707 64.8915V58.5831" fill="#333333"/>
<path d="M58.5205 63.2691L58.8959 66.4232C58.8959 66.4232 57.5583 71.2861 58.0934 71.8729C58.6284 72.4598 60.5529 73.1027 61.2993 71.8729C62.0458 70.6432 60.9714 66.1039 60.9714 66.1039L60.9196 62.6822" fill="#333333"/>
<path d="M51.5133 29.8978C51.5133 29.8978 47.7335 45.2372 47.5652 47.5888C47.3969 49.9404 46.2708 61.3964 46.2708 61.3964C46.2708 61.3964 49.8607 62.9929 52.2814 62.186L54.1713 47.7657L56.2899 32.6636C56.2899 32.6636 52.4108 28.8105 51.5133 29.8978Z" fill="#666666"/>
<path d="M58.7623 33.5223C61.4289 44.8359 61.7439 53.3707 63.1031 63.295C63.1031 63.295 57.3212 65.4049 56.0483 63.3597C55.1853 53.2758 54.4863 43.1704 54.167 33.052L58.7623 33.5223Z" fill="#666666"/>
<path d="M69.3638 21.5312C66.9346 22.4546 64.0479 23.296 62.0717 23.0328C59.5838 22.6974 57.1401 22.0911 54.7839 21.2249C54.4646 21.117 51.0083 19.7967 49.7311 20.9358C48.4539 22.0749 48.7948 25.7857 48.7948 25.7857L44.1434 21.747C42.4174 22.3683 41.727 24.1547 41.5544 25.9324C41.6321 26.0101 41.6968 26.0748 41.7314 26.118C42.065 26.512 42.4045 26.9018 42.7497 27.2873C44.2814 29.0132 46.0333 30.9895 48.2813 31.7359C49.1712 31.9933 50.1229 31.9338 50.9738 31.5676C51.6426 31.3174 52.6178 30.5062 53.347 30.7737C53.5369 30.8427 53.7138 30.9808 53.9079 30.9549C54.443 30.8902 55.1636 30.0315 55.6684 29.7683C57.0664 29.0391 58.6888 28.9313 60.2551 28.8536C61.9394 28.796 63.6169 28.6114 65.2733 28.3013C65.7609 28.202 70.9215 26.8817 71.0337 27.1017C70.0327 25.0263 69.7694 23.8009 69.3638 21.5312Z" fill="#BBBBBB"/>
<path d="M51.1853 18.0707C50.8444 19.6888 51.1292 21.9282 52.8638 22.1828C55.0946 22.5151 55.6469 20.9962 55.5304 19.1279C55.4354 17.6436 54.6674 15.3265 52.661 15.9953C52.1691 16.1832 51.7677 16.5522 51.5391 17.0265C51.3752 17.3573 51.2562 17.7085 51.1853 18.0707Z" fill="#EEEEEE"/>
<path d="M51.0472 18.4245C50.6055 18.1907 50.241 17.8341 49.9975 17.3977C49.754 16.9613 49.642 16.4637 49.6751 15.965C49.77 14.9726 50.7323 13.704 51.8325 14.1787C52.592 14.5023 52.3849 14.5239 52.3849 14.5239C52.5621 14.3142 52.7913 14.1548 53.0495 14.0617C53.3078 13.9685 53.586 13.9449 53.8562 13.9931C54.9134 14.0837 55.0989 14.7267 55.0989 14.7267C55.0989 14.7267 56.2985 15.1279 56.6178 15.8917C56.9802 16.7547 56.1561 19.3738 55.7548 20.103C55.3535 20.8322 55.1334 19.3479 54.9954 18.7524C54.9489 18.5124 54.8438 18.2875 54.6895 18.0978C54.5352 17.9081 54.3364 17.7595 54.1108 17.6651C53.4593 17.4882 53.14 18.0664 52.6222 18.3123C52.3841 18.4457 52.1195 18.5249 51.8472 18.5443C51.575 18.5637 51.3018 18.5228 51.0472 18.4245V18.4245Z" fill="#999999"/>
<path d="M55.2672 34.1566C56.6696 34.0703 57.4462 34.0487 58.7623 33.518L58.9953 26.1093L50.0635 30.2991C50.0635 30.2991 50.4 32.0941 50.7797 33.751C52.2398 34.1508 53.7592 34.2881 55.2672 34.1566V34.1566Z" fill="#BBBBBB"/>
<path d="M40.4715 84.0193L41.1619 87.2339C41.1619 87.2339 39.0735 86.8456 38.3529 86.9448C37.6323 87.044 36.7133 88.3213 37.6108 89.1885C38.5083 90.0558 40.0444 89.9739 41.5805 90.332C43.1166 90.6901 43.3539 90.7635 44.3377 90.4873C45.3215 90.2112 45.4682 88.8736 45.4682 88.8736L44.7001 83.2642" fill="#999999"/>
<path d="M45.5544 80.8867L46.4174 85.6935C46.4174 85.6935 45.0366 87.1131 40.3766 86.9448C35.7165 86.7765 40.3766 78.4445 40.3766 78.4445" fill="#EDBAB9"/>
<path d="M51.5952 94.5563C55.2555 94.5563 58.2228 93.4551 58.2228 92.0968C58.2228 90.7384 55.2555 89.6373 51.5952 89.6373C47.9348 89.6373 44.9675 90.7384 44.9675 92.0968C44.9675 93.4551 47.9348 94.5563 51.5952 94.5563Z" fill="#777777"/>
<path d="M52.7129 81.0852L52.454 90.9922H50.4778V81.0852" fill="#777777"/>
<path d="M35.0821 86.6557L35.7725 89.8703C35.7725 89.8703 33.6841 89.4819 32.9635 89.5812C32.2429 89.6804 31.3239 90.9576 32.2214 91.8249C33.1189 92.6922 34.655 92.6102 36.1911 92.9684C37.7272 93.3265 37.9645 93.3999 38.9483 93.1237C39.9321 92.8476 40.0788 91.5099 40.0788 91.5099L39.3107 85.9006" fill="#999999"/>
<path d="M38.8534 66.7814C40.8382 67.2157 42.8389 67.5509 44.8554 67.7867C44.8999 67.7913 44.9431 67.8048 44.9823 67.8263C45.0216 67.8478 45.0562 67.8769 45.0841 67.9119C45.3171 67.2129 45.5141 66.5038 45.6752 65.7846C45.7658 65.3747 46.3958 65.5473 46.3052 65.9572C45.9343 67.5953 45.383 69.1871 44.6612 70.7036C44.48 71.0833 43.9191 70.7511 44.096 70.3757C44.3937 69.7414 44.6612 69.0812 44.8985 68.4426H44.8554C42.7785 68.1981 40.7189 67.8543 38.6765 67.4113C38.2666 67.3121 38.4435 66.6908 38.8534 66.7814Z" fill="#777777"/>
<path d="M44.2125 71.381C44.742 72.2626 45.4227 73.044 46.2232 73.6895C46.5512 73.9527 46.0851 74.4144 45.7615 74.1512C44.9211 73.4681 44.207 72.643 43.6515 71.7133C43.6182 71.6397 43.6132 71.5564 43.6375 71.4794C43.6618 71.4023 43.7136 71.3369 43.7831 71.2958C43.8526 71.2546 43.9349 71.2405 44.0141 71.2563C44.0933 71.272 44.164 71.3164 44.2125 71.381V71.381Z" fill="#777777"/>
<path d="M48.2729 69.2581C48.2729 69.2581 43.095 65.0899 39.6431 64.598C36.1912 64.1061 34.3962 67.8471 34.6422 70.3498C34.8881 72.8524 43.1425 74.2332 43.1425 74.2332" fill="#EDBAB9"/>
<path d="M45.5071 70.6432C44.8339 70.0175 36.0143 65.8968 32.9119 67.7824C29.8095 69.668 30.0037 71.0531 30.3963 73.34C30.789 75.6269 33.7878 87.9631 33.7878 87.9631C36.0411 88.8296 38.5136 88.9461 40.8384 88.2954L39.9754 79.1392L51.7205 72.7273" fill="#FFE0DE"/>
<path d="M51.9319 55.9165C51.4659 56.2617 47.4401 56.745 46.5987 58.6004C45.7573 60.4558 44.4758 70.0219 44.4758 70.0219C44.4758 70.0219 46.8922 73.6205 51.0733 72.339C52.316 71.9592 58.7494 60.1969 58.922 58.9628C59.3794 55.7957 51.9319 55.9165 51.9319 55.9165Z" fill="#CCCCCC"/>
<path d="M59.8711 76.5804C60.0748 76.0974 60.2421 75.5998 60.3716 75.0918C61.3554 71.2084 62.007 56.7018 55.4786 57.2929C48.3159 57.9402 50.7322 75.8814 43.4746 75.3291C36.217 74.7768 33.2397 76.6667 36.2083 79.48C42.1413 85.098 56.225 85.2231 59.8711 76.5804Z" fill="#999999"/>
<path d="M50.3958 49.7247C50.3397 50.0699 49.727 54.9586 51.1811 56.0589C52.6352 57.1592 55.8757 54.5573 55.9577 53.2672C56.0397 51.977 57.1356 49.2889 55.7549 48.6114C54.3741 47.934 50.7841 47.3126 50.3958 49.7247Z" fill="#999999"/>
<path d="M50.3957 49.7247C50.3957 49.7247 49.1832 48.7883 48.9674 47.9383C48.7517 47.0883 49.8002 46.4756 50.8228 46.4756C51.8455 46.4756 52.7127 46.7388 53.593 46.2124C54.0652 45.9442 54.599 45.8032 55.142 45.8032C55.6851 45.8032 56.2188 45.9442 56.6911 46.2124C57.5195 46.7776 57.6619 48.1411 58.2185 48.8401C58.7751 49.5391 59.8452 49.6168 59.815 50.9242C59.7848 52.2316 57.869 52.3654 57.7353 53.237C57.6015 54.1086 57.1312 55.3944 55.9532 55.6102C54.7753 55.8259 53.1615 55.8561 53.0277 55.6835C52.894 55.5109 53.7699 52.5854 52.9587 52.3913C52.1475 52.1971 50.3396 51.7786 50.3957 49.7247Z" fill="#777777"/>
<path d="M36.4586 65.5516L33.2397 64.2313C33.2397 64.2313 32.2559 63.7394 32.0704 63.9897C31.8848 64.2399 29.7835 63.4934 29.1751 63.9897C28.5667 64.4859 29.9172 66.639 31.147 67.0101C32.3767 67.3811 36.4543 68.2096 36.4543 68.2096" fill="#999999"/>
<path d="M46.6029 58.6004C46.6029 58.6004 44.4455 65.5991 42.8921 66.1428C41.9429 66.4793 39.0087 65.5775 36.8858 64.8483C36.1979 65.2847 35.6095 65.861 35.159 66.5397C34.7085 67.2184 34.4059 67.9844 34.271 68.7878C37.5158 70.5828 43.0906 72.5676 45.2092 72.7359C48.2641 72.9819 49.6622 64.0026 49.6622 64.0026L46.6029 58.6004Z" fill="#CCCCCC"/>
<path opacity="0.57" d="M79.9225 64.7275L54.3784 77.8879L76.1427 91.0439L101.29 76.3" fill="url(#paint0_linear)"/>
</g>
<defs>
<linearGradient id="paint0_linear" x1="11966.1" y1="5645.92" x2="13684.2" y2="3138.44" gradientUnits="userSpaceOnUse">
<stop stop-opacity="0"/>
<stop offset="1" stop-color="#7F47DD"/>
</linearGradient>
<clipPath id="clip0">
<rect width="101.786" height="95" fill="white"/>
</clipPath>
</defs>
</svg>
