<svg width="178" height="90" viewBox="0 0 178 90" fill="none" xmlns="http://www.w3.org/2000/svg">
<g clip-path="url(#clip0)">
<path d="M140.217 43.255H138.698V82.2987H140.217V43.255Z" fill="#DDDDDD"/>
<path d="M140.217 43.255H138.698V82.2987H140.217V43.255Z" fill="#BCDBF2"/>
<path d="M87.9565 79.5449L118.177 80.7149C119.598 80.7706 121.088 80.8342 122.271 81.1208C124.173 81.5824 124.697 82.5242 123.996 83.2697C123.295 84.0151 121.614 84.5961 119.841 85.071C108.838 88.0317 93.4104 87.9628 79.2503 87.7611L12.456 86.8193C9.87859 86.7822 7.21381 86.7397 4.87452 86.3418C2.53523 85.9439 0.606103 85.0923 0.934239 84.2194C1.23062 83.4235 3.19414 82.8558 5.16825 82.4552C10.9636 81.2799 17.8412 80.9059 24.5521 80.5716C34.7261 80.0622 44.9212 79.5971 55.1376 79.1761" fill="url(#paint0_linear)"/>
<path d="M164.793 80.431L175.587 81.2667C176.1 81.2637 176.604 81.3915 177.053 81.6381C177.733 82.0944 177.924 83.0627 177.678 83.8454C177.432 84.628 176.836 85.2488 176.201 85.7688C172.285 88.9762 166.775 89.0982 161.718 89.0664L137.86 88.9205C136.939 88.9205 135.986 88.9046 135.15 88.5199C134.314 88.1352 133.62 87.2756 133.734 86.3604C133.837 85.5353 134.528 84.9198 135.24 84.4768C137.304 83.1874 139.76 82.7125 142.155 82.2801C145.785 81.6239 149.424 81.0138 153.07 80.4496" fill="url(#paint1_linear)"/>
<path d="M164.282 1.22404H113.109V48.4203H164.282V1.22404Z" fill="white"/>
<path opacity="0.18" d="M161.176 7.55403H139.455V44.4223H161.176V7.55403Z" fill="#DDDDDD"/>
<path d="M160.178 11.0931H141.167V28.7565H160.178V11.0931Z" fill="white"/>
<path d="M165.193 0.0965271H111.622V2.11544H165.193V0.0965271Z" fill="#DDDDDD"/>
<path d="M165.193 47.7226H111.622V49.7415H165.193V47.7226Z" fill="#DDDDDD"/>
<path d="M53.5128 79.2398H54.6824V68.3945H53.5128V79.2398Z" fill="#4C506D"/>
<path d="M48.4055 80.5398H61.396V79.0196H48.4055V80.5398Z" fill="#4C506D"/>
<path d="M48.4055 80.5398H61.396V79.0196H48.4055V80.5398Z" fill="#2F3554"/>
<path d="M49.8821 68.3971H57.1434C58.2337 68.3971 59.1175 67.5111 59.1175 66.418C59.1175 65.325 58.2337 64.4389 57.1434 64.4389H49.8821C48.7918 64.4389 47.908 65.325 47.908 66.418C47.908 67.5111 48.7918 68.3971 49.8821 68.3971Z" fill="#4C506D"/>
<path d="M52.224 68.3971H59.4854C60.5756 68.3971 61.4595 67.5111 61.4595 66.418C61.4595 65.325 60.5756 64.4389 59.4854 64.4389H52.224C51.1338 64.4389 50.2499 65.325 50.2499 66.418C50.2499 67.5111 51.1338 68.3971 52.224 68.3971Z" fill="#2F3554"/>
<path d="M44.7245 49.8078V53.5777C44.7245 54.2461 44.9894 54.8872 45.4609 55.3598C45.9323 55.8325 46.5717 56.098 47.2385 56.098H50.9962C51.6631 56.098 52.3028 55.8325 52.7747 55.36C53.2466 54.8874 53.512 54.2464 53.5127 53.5777V49.8078C53.5127 49.1387 53.2476 48.4969 52.7757 48.0238C52.3037 47.5506 51.6636 47.2848 50.9962 47.2848H47.2385C47.126 47.2847 47.0137 47.2927 46.9024 47.3087C46.2991 47.3903 45.7458 47.6886 45.3453 48.1482C44.9448 48.6078 44.7242 49.1975 44.7245 49.8078Z" fill="#4C506D"/>
<path d="M45.7672 53.5989C45.8177 53.9972 45.9629 54.3775 46.1906 54.7078C46.8706 55.6417 48.1938 55.7557 49.3449 55.7849C50.2023 55.8061 53.1926 56.4508 52.9782 55.0103C52.8644 54.2542 52.4119 53.4503 52.1843 52.7208C51.9568 51.9912 51.4751 51.0494 51.4751 50.3119C51.3159 49.6116 51.1017 48.925 50.8347 48.2585C50.6827 47.9104 50.4871 47.5833 50.2526 47.2848H47.2358C47.1304 47.2798 47.0249 47.2924 46.9236 47.322C47.0453 48.3354 46.3758 49.0517 46.008 49.9378C45.6772 50.7337 45.6825 51.6065 45.6931 52.4581C45.6913 52.8396 45.7161 53.2208 45.7672 53.5989Z" fill="#2F3554"/>
<path d="M50.9565 53.7528C51.1568 54.1853 51.3137 54.6368 51.4248 55.1005C51.5254 55.6682 51.6895 56.2227 51.798 56.7931C51.9966 57.9397 52.0914 59.102 52.0811 60.2658C52.0811 60.7248 52.0811 61.2447 52.4093 61.5631C52.6506 61.7555 52.9415 61.8752 53.2481 61.908C53.8435 62.0274 54.3807 62.2635 54.9735 62.3643C55.6201 62.4576 56.2733 62.4966 56.9264 62.481C58.8529 62.481 62.4386 62.2661 62.3195 59.5628C62.1898 56.5013 61.9517 53.5246 61.5256 50.4737C61.3801 49.4523 61.351 48.2744 61.0413 47.2902C60.7767 46.4651 59.8214 46.4571 59.0249 46.542L58.8741 46.5579C58.7206 46.5738 58.5671 46.5924 58.4163 46.6137C57.3553 46.7228 56.2877 46.7538 55.2222 46.7065C54.0208 46.6694 52.1023 46.55 50.9221 47.6828C50.84 47.7608 50.7631 47.8441 50.6918 47.9322C49.5037 49.3701 50.1441 51.6994 50.9565 53.7528Z" fill="white"/>
<path d="M66.4926 53.0312C66.596 53.6751 66.649 54.3262 66.6514 54.9784C66.6691 55.2067 66.6204 55.4353 66.5112 55.6364C66.31 55.9441 65.8893 56.0051 65.5215 55.9972C64.3619 55.9852 63.2529 55.5197 62.4306 54.6999C61.6638 53.9363 60.9627 53.1092 60.3348 52.2273C60.1604 52.0216 60.0286 51.7831 59.9473 51.5257C59.8659 51.2683 59.8367 50.9973 59.8611 50.7284C59.8611 49.9882 59.8902 49.2454 59.9564 48.5079C59.9723 48.3354 61.1604 48.4707 61.2795 48.5079C61.7232 48.6353 62.1465 48.8256 62.5365 49.0729C62.5815 48.5875 62.4439 48.033 62.4042 47.5395C62.3776 47.3936 62.3951 47.243 62.4545 47.1071C62.5894 46.8657 62.9255 46.8418 63.2033 46.8683C63.7987 46.9108 64.4577 47.0116 64.8281 47.4785C64.9847 47.6995 65.1012 47.9465 65.1722 48.2081C65.7067 49.7813 66.2386 51.389 66.4926 53.0312Z" fill="white"/>
<path d="M64.7303 53.652C64.7917 53.8934 64.7664 54.1489 64.6588 54.3736C64.3942 54.7768 63.7855 54.6389 63.3542 54.4425C62.7764 54.1646 62.2262 53.8324 61.7109 53.4503C61.668 53.4082 61.6171 53.3751 61.5611 53.3533C61.5052 53.3314 61.4454 53.3211 61.3854 53.323C61.2979 53.3513 61.2218 53.4071 61.1684 53.4822C60.3632 54.3707 59.3804 55.0794 58.2839 55.5621C57.9108 55.7266 57.4186 55.8274 57.1487 55.5329C56.8788 55.2384 57.0931 54.6866 57.3313 54.3178L60.1681 49.9245C60.2006 49.8603 60.2537 49.8089 60.3189 49.7786C60.4274 49.7415 60.5359 49.8237 60.6232 49.898C61.0139 50.2363 61.4472 50.5218 61.912 50.747C62.0753 50.8487 62.2714 50.8839 62.4598 50.8451C62.7244 50.7549 62.8144 50.4313 62.8488 50.1553C62.9047 49.6959 62.9172 49.2322 62.8858 48.7705C62.8554 48.58 62.8681 48.3851 62.9228 48.2001C62.9614 48.1195 63.0166 48.0479 63.0846 47.9901C63.1526 47.9323 63.232 47.8894 63.3176 47.8644C63.4033 47.8394 63.4932 47.8327 63.5816 47.8448C63.6699 47.857 63.7548 47.8876 63.8305 47.9348C64.1798 48.2001 64.1243 49.2029 64.1825 49.6301L64.7303 53.652Z" fill="#D8DAE1"/>
<path d="M54.9232 53.4981C55.1801 53.9684 55.5262 54.3838 55.942 54.7211C56.4051 55.0819 57.4768 56.5012 58.141 56.0688C57.849 56.3253 57.5051 56.5154 57.1328 56.6259C58.1596 57.3502 59.4536 57.5439 60.6867 57.7747C61.0077 57.815 61.3173 57.9196 61.5971 58.0824C61.7363 58.1648 61.8494 58.285 61.9233 58.4292C61.9973 58.5733 62.0292 58.7354 62.0152 58.8969C61.9252 59.454 61.2213 59.6211 60.655 59.6556C59.271 59.7405 57.8791 59.7697 56.503 59.9395C55.3307 60.0827 54.0685 60.3905 53.346 61.327C53.2949 61.4085 53.2227 61.4745 53.137 61.518C53.0639 61.5359 52.987 61.5277 52.9193 61.4947C52.8517 61.4618 52.7976 61.4062 52.7665 61.3376C52.7078 61.1977 52.6816 61.0462 52.6898 60.8946C52.6677 59.7421 52.4897 58.5979 52.1605 57.4934C52.0282 57.0478 52.0123 56.5941 51.8826 56.167C51.7239 55.6364 51.4354 55.1403 51.2555 54.6176C50.8961 53.5625 50.6538 52.4708 50.5331 51.3624C50.4484 50.5851 50.5039 49.646 51.1708 49.2401C51.4229 49.1104 51.7072 49.057 51.989 49.0862C52.2709 49.1154 52.5382 49.226 52.7586 49.4046C53.1923 49.7666 53.5274 50.233 53.7324 50.7602C54.132 51.6543 54.4336 52.6544 54.9232 53.4981Z" fill="#D8DAE1"/>
<path d="M57.7812 48.6511C57.7414 48.7005 57.7117 48.7573 57.6938 48.8183C57.6901 48.8852 57.7038 48.9519 57.7335 49.0119C58.3424 50.6587 58.8306 52.3478 59.1943 54.0658C59.5489 55.57 59.9061 57.0849 59.9881 58.6316C60.0002 58.7435 59.9921 58.8567 59.9643 58.9658C59.8479 59.3479 59.3504 59.4673 59.1334 59.8015L58.411 58.9764C58.3648 58.9284 58.3272 58.8728 58.2998 58.812C58.28 58.7247 58.28 58.634 58.2998 58.5467C58.5459 56.8939 58.276 55.2092 57.8897 53.5856C57.5589 52.1902 57.1381 50.7921 57.1646 49.3568C57.1784 49.2713 57.174 49.1838 57.1517 49.1001C57.1293 49.0164 57.0895 48.9384 57.0349 48.8713C56.9611 48.8219 56.881 48.7827 56.7968 48.7546C56.699 48.7089 56.6116 48.6438 56.5398 48.5631C56.468 48.4824 56.4134 48.388 56.3792 48.2854C56.3451 48.1829 56.3321 48.0745 56.3411 47.9668C56.3501 47.8591 56.3809 47.7543 56.4316 47.6589C56.5848 47.6575 56.7354 47.6193 56.8709 47.5475C57.0073 47.4752 57.1651 47.4545 57.3154 47.4891C57.6409 47.6138 57.9717 48.3354 57.7812 48.6511Z" fill="#DDDDDD"/>
<path d="M50.9168 47.6907C52.097 46.5579 54.0156 46.6773 55.217 46.7144C56.2825 46.7618 57.35 46.7307 58.411 46.6216C58.5618 46.6004 58.7153 46.5818 58.8688 46.5659C58.2363 46.3006 57.3366 46.481 56.6592 46.5022C55.6342 46.5358 54.6101 46.5986 53.5869 46.6906C52.6157 46.7781 51.5466 46.9452 50.9168 47.6907Z" fill="white"/>
<path d="M54.5527 43.4539C54.7475 43.9623 55.1259 44.3786 55.6128 44.6199C56.0997 44.8613 56.6593 44.9101 57.1805 44.7566C57.1805 44.7566 56.683 46.2794 57.3075 47.1999C57.3075 47.1999 56.892 48.2611 54.1002 46.6932C54.1002 46.6932 54.8544 46.6296 54.648 45.0776C54.5874 44.5429 54.3995 44.0306 54.1002 43.5839C54.1335 43.6195 54.176 43.6452 54.2229 43.6581C54.2697 43.6711 54.3193 43.6708 54.3661 43.6574C54.4128 43.644 54.455 43.6179 54.4879 43.582C54.5209 43.5461 54.5433 43.5018 54.5527 43.4539Z" fill="#D68369"/>
<path d="M55.9235 45.4118C57.3975 45.8469 58.5989 44.6292 59.144 42.8305C59.2022 42.6342 59.2525 42.4299 59.2948 42.2203C59.4193 41.6221 59.4735 41.0113 59.4563 40.4004C59.3769 37.4503 55.1455 37.7474 55.1455 37.7474C51.7212 38.5168 53.3593 44.6584 55.9235 45.4118Z" fill="#EC9C7D"/>
<path d="M65.0848 63.7677L64.9975 63.6775C65.3442 64.0675 65.577 64.3487 65.6485 64.4363C65.4738 64.2055 65.2833 63.9826 65.0848 63.7677Z" fill="#DC9BD5"/>
<path d="M58.0934 37.2672C58.633 37.4008 59.1042 37.7296 59.4165 38.1905C59.578 38.4319 59.6812 38.7051 59.877 38.9306C60.1416 39.2517 60.5333 39.4825 60.6709 39.8751C60.0031 39.9826 59.3187 39.8581 58.7312 39.5223C58.6833 39.6027 58.6155 39.6694 58.5344 39.7159C58.4532 39.7624 58.3615 39.7871 58.2681 39.7876C58.0809 39.785 57.8956 39.75 57.7203 39.6841C57.6241 39.6438 57.5177 39.6345 57.416 39.6576C57.3396 39.6917 57.2711 39.7414 57.2149 39.8035C57.0416 39.9516 56.8339 40.0535 56.611 40.0999C56.3881 40.1462 56.1571 40.1355 55.9394 40.0688C55.6747 39.9892 55.4101 39.8273 55.164 39.9096C54.9179 39.9918 54.7565 40.3526 54.7565 40.6577C54.7937 40.9605 54.7857 41.2672 54.7327 41.5677C54.5474 41.5995 54.5104 41.3024 54.3463 41.191C54.1822 41.0795 54.0261 41.2202 53.9414 41.3608C53.8719 41.4817 53.842 41.6215 53.8557 41.7604C53.8695 41.8994 53.9263 42.0305 54.0182 42.1354C54.0747 42.183 54.1184 42.2442 54.1452 42.3132C54.156 42.3832 54.1439 42.4549 54.1108 42.5175L53.825 43.2417C53.4306 42.3342 52.9586 41.4626 52.4145 40.6365C52.187 40.3049 51.9223 39.9255 52.0255 39.5355C52.1287 39.1455 52.5548 38.859 52.4595 38.4743C52.4347 38.4038 52.4135 38.3321 52.396 38.2594C52.3874 38.1509 52.4103 38.0421 52.4622 37.9464C52.6604 37.5571 52.9434 37.2175 53.2901 36.9525C53.6368 36.6876 54.0385 36.5041 54.4654 36.4156C55.3207 36.2471 56.2013 36.2553 57.0534 36.4395C57.9108 36.5881 58.7576 36.803 59.6256 36.8693C59.697 36.8693 59.7791 36.8879 59.8108 36.9515C59.8201 36.9827 59.8201 37.0159 59.8108 37.047C59.7764 37.2328 59.6018 37.3574 59.4615 37.4874C59.3213 37.6174 59.1969 37.827 59.3001 37.9888" fill="#2F3554"/>
<path d="M54.8994 60.348C54.8994 60.348 56.6909 64.8369 58.1305 65.3091C59.57 65.7813 64.8943 67.4076 64.8943 67.4076L72.3038 81.3914L75.2147 79.5953L68.6785 63.2371L62.8779 60.2578C62.8779 60.2578 61.3933 60.3003 54.8994 60.348Z" fill="#2F3554"/>
<path d="M52.4145 61.2103C52.4145 61.2103 52.0785 65.3038 53.518 65.776C54.9576 66.2482 60.2792 67.8772 60.2792 67.8772L68.1969 83.0468L71.4862 81.7204L64.0766 63.7094L58.2787 60.7301C58.2787 60.7301 54.91 59.4991 52.4145 61.2103Z" fill="#4C506D"/>
<path d="M76.4055 80.1153C76.7854 80.1253 77.1639 80.1634 77.5381 80.2294C77.8885 80.2664 78.2214 80.4015 78.4987 80.6193C78.6559 80.7568 78.7615 80.944 78.7978 81.1499C78.8136 81.2531 78.8058 81.3585 78.7751 81.4582C78.7444 81.5579 78.6915 81.6494 78.6205 81.7256C78.4863 81.8433 78.3269 81.9286 78.1547 81.975C77.7551 82.1183 77.3608 82.2562 76.9533 82.3968C76.1055 82.7343 75.2148 82.9513 74.3071 83.0415C74.2536 83.0482 74.1993 83.0427 74.1483 83.0256C74.1092 83.0045 74.0736 82.9777 74.0424 82.946C73.4973 82.4154 72.9839 81.784 72.8516 81.0306C72.845 81.0053 72.845 80.9788 72.8516 80.9536C72.8646 80.9242 72.8869 80.9 72.9151 80.8846C73.4634 80.5131 74.066 80.2294 74.7013 80.0436C75.2835 79.8792 75.8154 80.102 76.4055 80.1153Z" fill="#2F3554"/>
<path d="M72.0604 81.8371C72.4402 81.8472 72.8187 81.8853 73.193 81.9511C73.5431 81.9891 73.8757 82.1242 74.1536 82.3411C74.3108 82.4781 74.4156 82.6657 74.4499 82.8717C74.4662 82.9749 74.4586 83.0804 74.4279 83.1802C74.3971 83.28 74.344 83.3714 74.2726 83.4474C74.1388 83.5656 73.9793 83.651 73.8069 83.6968C73.4073 83.8401 73.013 83.978 72.6055 84.116C71.7584 84.4561 70.8674 84.6741 69.9592 84.7633C69.9049 84.7701 69.8498 84.7646 69.7978 84.7474C69.7596 84.7263 69.7248 84.6994 69.6946 84.6678C69.1495 84.1372 68.6361 83.5058 68.5038 82.7523C68.4972 82.7262 68.4972 82.6989 68.5038 82.6727C68.5185 82.6452 68.5405 82.6223 68.5673 82.6064C69.1159 82.2354 69.7184 81.9517 70.3535 81.7654C70.9384 81.6089 71.4676 81.8371 72.0604 81.8371Z" fill="#2F3554"/>
<path d="M50.2182 49.8158C50.2182 49.8158 52.7453 55.4931 55.4234 56.2598C58.1014 57.0265 61.3272 49.0703 61.3272 49.0703L59.1784 48.2585L55.5715 51.893C55.5715 51.893 53.3355 47.1336 52.4278 47.3512C51.5201 47.5687 49.8768 48.8395 50.2182 49.8158Z" fill="white"/>
<path d="M61.8749 45.0935C61.9029 45.315 61.9949 45.5234 62.1395 45.6931C62.3085 46.0481 62.4202 46.4278 62.4703 46.8179C62.53 47.2094 62.6864 47.5797 62.9255 47.895C63.0489 48.049 63.2182 48.1593 63.4087 48.2099C63.5991 48.2605 63.8007 48.2487 63.984 48.1762C64.1032 48.1057 64.2045 48.0083 64.2798 47.8918C64.3551 47.7754 64.4024 47.643 64.418 47.505C64.4454 47.2283 64.4138 46.9489 64.3254 46.6853C64.2295 46.3393 64.0982 46.0041 63.9337 45.6851C63.7876 45.3814 63.5814 45.1106 63.3277 44.8892C62.9599 44.5735 61.9252 44.3029 61.8749 45.0935Z" fill="#D68369"/>
<path d="M60.8005 45.4357C60.9334 45.1948 61.1304 44.9955 61.3695 44.86C61.5976 44.7715 61.843 44.737 62.0866 44.7592C62.5629 44.7592 63.1187 44.8468 63.3462 45.2633C63.4171 45.4301 63.4447 45.6121 63.4267 45.7925C63.4087 45.973 63.3455 46.1459 63.243 46.2953C63.0605 46.6057 62.8011 46.8657 62.6132 47.1761C62.3486 47.6165 62.2216 48.1683 61.8194 48.4893C61.6488 48.6208 61.4506 48.7115 61.2398 48.7546C60.5412 48.9164 59.6283 48.5821 59.7923 47.7464C59.9918 46.9233 60.333 46.1413 60.8005 45.4357Z" fill="#EC9C7D"/>
<path d="M24.8141 79.0912H25.9837V68.2459H24.8141V79.0912Z" fill="#4C506D"/>
<path d="M19.7041 80.3885H32.6946V78.8684H19.7041V80.3885Z" fill="#4C506D"/>
<path d="M19.7041 80.3885H32.6946V78.8684H19.7041V80.3885Z" fill="#2F3554"/>
<path d="M21.1834 68.2459H28.4447C29.535 68.2459 30.4188 67.3598 30.4188 66.2668C30.4188 65.1738 29.535 64.2877 28.4447 64.2877H21.1834C20.0931 64.2877 19.2093 65.1738 19.2093 66.2668C19.2093 67.3598 20.0931 68.2459 21.1834 68.2459Z" fill="#4C506D"/>
<path d="M23.5253 68.2459H30.7867C31.8769 68.2459 32.7608 67.3598 32.7608 66.2668C32.7608 65.1738 31.8769 64.2877 30.7867 64.2877H23.5253C22.4351 64.2877 21.5512 65.1738 21.5512 66.2668C21.5512 67.3598 22.4351 68.2459 23.5253 68.2459Z" fill="#2F3554"/>
<path d="M16.0232 49.6566V53.4265C16.0232 54.0951 16.288 54.7364 16.7594 55.2095C17.2307 55.6826 17.8702 55.9487 18.5372 55.9494H22.2975C22.9649 55.9494 23.605 55.6836 24.077 55.2105C24.5489 54.7373 24.8141 54.0956 24.8141 53.4265V49.6566C24.8141 49.3254 24.749 48.9974 24.6225 48.6915C24.496 48.3855 24.3105 48.1076 24.0768 47.8735C23.8431 47.6394 23.5657 47.4539 23.2603 47.3274C22.955 47.2009 22.6278 47.1359 22.2975 47.1363H18.5424C18.4301 47.1354 18.3178 47.1425 18.2064 47.1575C17.6026 47.239 17.0487 47.5371 16.6473 47.9966C16.2459 48.456 16.0242 49.0458 16.0232 49.6566Z" fill="#4C506D"/>
<path d="M17.0685 53.4503C17.119 53.8486 17.2642 54.2289 17.4919 54.5593C18.172 55.4931 19.4924 55.6072 20.6462 55.6364C21.5036 55.6602 24.4912 56.3023 24.2769 54.8617C24.1657 54.1056 23.7132 53.3044 23.483 52.5748C23.2528 51.8453 22.7738 50.9035 22.7738 50.1659C22.6141 49.4649 22.4 48.7775 22.1334 48.1099C21.9814 47.7627 21.7857 47.4364 21.5512 47.1389H18.5424C18.4372 47.1329 18.3316 47.1445 18.2302 47.1734C18.3519 48.1895 17.6824 48.9031 17.3119 49.7892C16.9838 50.5851 16.9891 51.4579 16.9997 52.3122C16.9949 52.6927 17.0179 53.0731 17.0685 53.4503Z" fill="#2F3554"/>
<path d="M23.5518 43.0321C24.126 43.828 25.8699 44.5788 25.8699 44.5788C26.071 43.8015 25.645 43.5176 25.645 43.5176C25.1951 43.5574 24.6103 42.4565 24.8008 42.1195C25.039 41.6924 25.3671 41.8542 25.5947 42.0293C25.8208 41.8523 26.0079 41.6303 26.1445 41.3775C26.2811 41.1246 26.3642 40.8461 26.3886 40.5596C26.4177 40.2227 25.8382 39.2702 26.9496 38.859C28.061 38.4478 29.6276 38.859 29.6276 38.859C29.6276 38.859 30.0325 37.8191 28.7385 37.323C25.8276 36.2008 22.3398 38.1189 22.5356 41.3979C22.5859 42.2867 22.6468 43.2974 22.0302 43.9395C21.6658 44.2602 21.2359 44.4974 20.7706 44.6345C20.1691 44.8264 19.6239 45.1635 19.1828 45.6161C18.7727 46.0937 18.598 46.8232 18.9182 47.3618C19.0743 47.6271 19.3416 47.8685 19.2728 48.1577C19.2286 48.2894 19.1522 48.408 19.0505 48.5026C18.3791 49.2246 17.9473 50.1376 17.8147 51.1157C17.7535 51.6029 17.7975 52.0976 17.9436 52.5663C18.0897 53.035 18.3345 53.4668 18.6615 53.8324C19.5613 54.7768 20.9982 55.0236 22.2869 54.8299C23.3421 54.7011 24.3217 54.2143 25.0628 53.4503C26.1372 52.2565 26.2748 50.5321 26.5765 48.9403C26.5941 48.7446 26.6717 48.5593 26.7988 48.4097C27.1137 48.1152 27.6165 48.354 28.0478 48.3434C28.7888 48.3275 29.2862 47.513 29.3048 46.7702C29.3233 46.0273 29.0216 45.319 28.8734 44.5921C28.7252 43.8652 28.7676 43.0003 29.3286 42.5201C29.5403 42.3371 29.8049 42.2283 30.0298 42.0638C31.0328 41.3395 30.9719 39.6761 30.1172 38.7874C29.2624 37.8987 27.889 37.6758 26.677 37.888C25.7006 38.0578 23.5015 38.6017 23.0411 39.5064C22.5806 40.411 22.9749 42.2416 23.5518 43.0321Z" fill="#555555"/>
<path d="M20.5668 48.7387C20.4951 47.9379 20.7329 47.1402 21.231 46.5102C21.8159 45.8284 22.7077 45.5233 23.5386 45.1837C23.8905 45.0431 24.2716 44.8627 24.4224 44.5125C24.4909 44.2705 24.53 44.0211 24.5389 43.7697C24.5786 43.5203 24.7241 43.2391 24.9729 43.2152C25.0503 43.211 25.1278 43.2221 25.201 43.2481C25.2741 43.274 25.3414 43.3143 25.3989 43.3664C25.9282 43.7723 26.0949 44.5205 25.9758 45.1784C25.8162 45.8277 25.5253 46.4372 25.121 46.9691C24.7167 47.5001 24.3864 48.0838 24.1393 48.7042C23.9779 49.1844 23.9329 49.6964 23.8164 50.1898C23.5518 51.2749 22.6494 51.9196 21.583 51.3041C20.842 50.8823 20.6118 49.4974 20.5668 48.7387Z" fill="#555555"/>
<path d="M30.3236 46.42C29.0586 46.5349 27.7883 46.5828 26.5183 46.5632C25.2348 46.5261 23.1337 46.3908 21.9879 47.7889C20.5642 49.524 21.7894 52.5643 22.7818 54.8617C23.1522 55.716 23.3322 58.4804 23.1416 60.5019C23.1416 60.5019 27.1322 61.9 30.6411 61.1731L31.8452 56.6339C31.8452 56.6339 35.1927 51.6596 30.3236 46.42Z" fill="#4C506D"/>
<path d="M28.7279 37.3203C28.7279 37.3203 30.4215 37.4185 30.9243 39.8777C31.4271 42.337 28.9819 42.2946 28.9819 42.2946L27.4974 38.0286L28.7279 37.3203Z" fill="#555555"/>
<path d="M27.6006 45.4251C29.1328 45.5525 30.0643 44.1199 30.2468 42.2416C30.2656 42.0334 30.2735 41.8244 30.2707 41.6155C30.2738 41.0045 30.2045 40.3954 30.0643 39.8008C29.3921 36.925 25.301 38.0764 25.301 38.0764C22.099 39.5196 24.9384 45.2049 27.6006 45.4251Z" fill="#EC9C7D"/>
<path d="M25.8541 43.3027C26.1187 44.1517 27.2328 45.6506 28.5003 45.3004C28.3508 45.5717 28.2809 45.8798 28.2987 46.1891C28.3165 46.4985 28.4213 46.7965 28.6009 47.0487C28.6009 47.0487 28.1881 48.1099 25.3963 46.5447C25.3963 46.5447 26.1504 46.481 25.944 44.9263C25.8837 44.3924 25.6958 43.881 25.3963 43.4354C25.4295 43.4725 25.4725 43.4995 25.5203 43.5132C25.5681 43.527 25.6189 43.5269 25.6667 43.513C25.7145 43.4992 25.7574 43.4721 25.7905 43.4349C25.8237 43.3977 25.8457 43.3519 25.8541 43.3027Z" fill="#D68369"/>
<path d="M28.6961 38.0154C28.2965 39.4055 27.7647 41.3793 26.4098 42.1407C26.2253 42.2661 26.0081 42.3343 25.7853 42.337C25.5788 42.2946 25.5974 42.1301 25.4386 41.9842C25.3861 41.9311 25.3184 41.8957 25.2449 41.8829C25.1714 41.87 25.0958 41.8804 25.0284 41.9126C24.9722 41.9552 24.9275 42.0113 24.8984 42.0757C24.8693 42.1401 24.8567 42.2108 24.8617 42.2813C24.8613 42.4517 24.9047 42.6193 24.9877 42.768C25.0706 42.9167 25.1904 43.0414 25.3354 43.1303C25.4695 43.1912 25.5979 43.264 25.7191 43.3478C25.8533 43.4816 25.9342 43.6599 25.9467 43.8492C25.9693 44.1041 25.9188 44.3601 25.8011 44.5871C25.6834 44.8141 25.5035 45.0027 25.2825 45.1306C25.2561 45.1493 25.2247 45.1594 25.1925 45.1598C25.1534 45.1522 25.118 45.1316 25.0919 45.1014L24.4859 44.547C24.1984 44.3008 23.9392 44.0232 23.7132 43.7192C23.4339 43.3076 23.2837 42.8216 23.2819 42.3238C23.2819 42.0983 23.3692 41.8728 23.3666 41.6552C23.3294 41.3695 23.2538 41.0902 23.1416 40.8249C23.0068 40.4828 22.9377 40.1182 22.9379 39.7504C22.9855 39.0288 23.5836 38.4584 24.2293 38.1374C25.2507 37.6307 26.4283 37.575 27.5662 37.5617C27.794 37.5461 28.0226 37.5768 28.2383 37.6519C28.4342 37.7342 28.5135 37.949 28.6961 38.0154Z" fill="#555555"/>
<path d="M25.9837 55.509L24.8141 58.0877C24.8141 58.0877 22.2895 54.9413 21.3395 51.5455C20.5033 48.545 21.9879 47.7889 21.9879 47.7889C23.1205 47.3724 23.8932 48.9933 25.0099 52.2724C25.6238 54.0764 25.9837 55.509 25.9837 55.509Z" fill="#EC9C7D"/>
<path d="M24.8141 58.0877C24.8141 58.0877 24.7691 55.9919 25.7879 55.5753C26.8067 55.1588 33.9463 54.0366 33.9463 54.0366L34.6158 54.8113C34.6158 54.8113 27.6059 58.8624 24.8141 58.0877Z" fill="#EC9C7D"/>
<path d="M36.3835 63.6192C36.3571 63.5873 36.328 63.5581 36.2988 63.529C36.6455 63.9189 36.8784 64.2002 36.9498 64.2877C36.7725 64.0622 36.5846 63.834 36.3835 63.6192Z" fill="#DC9BD5"/>
<path d="M22.7103 64.0304C22.9194 65.2534 23.7503 66.3013 24.7612 67.0123C25.772 67.7233 26.9549 68.1425 28.1378 68.5006C28.839 68.7155 29.273 69.6149 29.9055 69.9889C30.1354 70.1008 30.3344 70.2675 30.485 70.4744C30.7152 70.8485 30.5988 71.3287 30.485 71.7505C29.9558 73.6146 29.4186 75.4797 28.8734 77.3456C28.6088 78.2715 28.3442 79.2531 28.5929 80.1843C28.8417 81.1155 29.8235 81.9167 30.7338 81.6089C32.5173 78.7243 34.2992 75.8405 36.0792 72.9576C36.0792 72.9576 36.9578 69.4769 35.1133 66.5162C34.3194 65.2401 28.0822 59.9766 28.0822 59.9766C26.4945 59.7458 24.867 59.6371 23.3189 59.5469C23.1443 61.0564 22.4563 62.5367 22.7103 64.0304Z" fill="#DDDDDD"/>
<path d="M28.069 59.9766C28.069 59.9766 34.42 65.1685 35.1001 66.5162C36.9525 70.2754 36.066 72.9576 36.066 72.9576L40.7419 80.4894C41.8242 80.5132 43.2744 80.2241 43.3273 79.1363C43.3213 78.8308 43.2491 78.5303 43.1156 78.2556C41.9424 75.3231 40.7692 72.3925 39.5961 69.4636C38.9001 67.7206 38.1803 65.9405 37.0662 64.4442L36.9657 64.3142L36.9525 64.2983C36.881 64.2108 36.6481 63.9295 36.3015 63.5396C35.2906 62.4041 33.3165 60.3772 31.4906 59.5601C31.4906 59.5601 29.3736 60.1491 28.0954 59.9899L28.069 59.9766Z" fill="#DDDDDD"/>
<path d="M28.069 59.9766C28.069 59.9766 34.42 65.1685 35.1001 66.5162C36.9525 70.2754 36.066 72.9576 36.066 72.9576L40.7419 80.4894C41.8242 80.5132 43.2744 80.2241 43.3273 79.1363C43.3213 78.8308 43.2491 78.5303 43.1156 78.2556C41.9424 75.3231 40.7692 72.3925 39.5961 69.4636C38.9001 67.7206 38.1803 65.9405 37.0662 64.4442L36.9657 64.3142L36.9525 64.2983C36.881 64.2108 36.6481 63.9295 36.3015 63.5396C35.2906 62.4041 33.3165 60.3772 31.4906 59.5601C31.4906 59.5601 29.3736 60.1491 28.0954 59.9899L28.069 59.9766Z" fill="url(#paint2_linear)"/>
<path d="M31.3345 83.2537C31.7526 83.6411 32.3083 84.0258 32.2871 84.5961C32.2894 84.6527 32.2737 84.7084 32.2421 84.7553C32.2135 84.7835 32.1796 84.8058 32.1423 84.8208C32.1051 84.8359 32.0653 84.8433 32.0251 84.8429C30.7417 84.9861 29.5509 84.2035 28.5532 83.3811C28.2791 83.1999 28.0761 82.9289 27.979 82.6144C27.9669 82.2813 28.0595 81.9528 28.2436 81.6752C28.4816 81.1954 28.6747 80.6945 28.8205 80.179C28.7782 80.3328 29.4239 80.8767 29.5323 80.9748C29.7599 81.1765 30.1013 81.3224 30.2812 81.5691C30.4134 81.823 30.5309 82.0843 30.6332 82.3517C30.818 82.6876 31.0546 82.9921 31.3345 83.2537Z" fill="#EC9C7D"/>
<path d="M44.5843 80.8475C45.0341 81.0067 45.5581 81.0942 45.8439 81.4789C45.8986 81.5472 45.9318 81.6304 45.9391 81.7177C45.9391 81.9538 45.6745 82.0838 45.4337 82.1315C44.5075 82.3199 43.5496 82.1873 42.6154 82.052C42.4942 82.0435 42.3765 82.0072 42.2714 81.9458C42.1474 81.8349 42.0621 81.6871 42.028 81.524L41.6575 80.3859C41.647 80.3513 41.647 80.3144 41.6575 80.2798C41.6716 80.2443 41.6979 80.2152 41.7316 80.1975C41.9811 80.0205 42.247 79.8677 42.5255 79.7412C42.9065 79.5688 42.9303 79.5767 43.187 79.8765C43.5606 80.3165 44.0422 80.6512 44.5843 80.8475Z" fill="#EC9C7D"/>
<path d="M34.7137 53.8854C35.4494 53.7687 36.2803 53.6732 36.8784 54.1215C37.1626 54.3652 37.3948 54.6639 37.5611 54.9997C37.6479 55.0765 37.7086 55.1786 37.7347 55.2917C37.7608 55.4048 37.751 55.5232 37.7067 55.6304C37.6624 55.7377 37.5858 55.8283 37.4875 55.8898C37.3893 55.9513 37.2744 55.9805 37.1589 55.9733C36.4788 56.1378 35.7458 56.2943 35.0921 56.037C34.6105 55.8486 34.2215 55.448 33.7187 55.3286C33.6329 55.3161 33.5503 55.2873 33.4753 55.2437C33.4059 55.1865 33.3567 55.1084 33.335 55.0209C33.0334 54.0154 34.0442 53.9809 34.7137 53.8854Z" fill="#EC9C7D"/>
<path d="M42.6234 82.9168C42.6495 82.9693 42.6887 83.0141 42.7372 83.0468C42.813 83.0708 42.8943 83.0708 42.9701 83.0468C43.3882 82.9893 43.8111 82.9742 44.2323 83.0017C45.0892 82.9881 45.9437 82.9091 46.7886 82.7656C47.1591 82.7125 47.5692 82.633 47.7836 82.3279C47.8111 82.2935 47.8285 82.2522 47.8339 82.2085C47.8323 82.142 47.8058 82.0786 47.7598 82.0307C47.3877 81.5843 46.8995 81.25 46.3493 81.065C46.1445 80.9789 45.9256 80.9313 45.7036 80.9244C45.5928 80.9234 45.483 80.9465 45.382 80.9923C45.281 81.0382 45.1912 81.1055 45.1188 81.1897C44.9653 81.3834 44.9442 81.662 44.7722 81.8371C44.6733 81.9149 44.5597 81.9717 44.4382 82.0041C44.3167 82.0365 44.19 82.0437 44.0656 82.0254C43.7741 82.0144 43.4839 81.9807 43.1976 81.9246C42.978 81.8822 42.6684 81.7336 42.4435 81.792C41.946 81.9193 42.4752 82.6621 42.6234 82.9168Z" fill="#DDDDDD"/>
<path d="M27.6641 83.275C27.6532 83.3414 27.6615 83.4095 27.6879 83.4713C27.7413 83.5441 27.8179 83.5965 27.9049 83.6199C28.3388 83.8335 28.7502 84.0903 29.1328 84.3866C29.9532 84.9203 30.8131 85.3903 31.7049 85.7926C32.0913 85.9783 32.5306 86.1667 32.9275 86.0128C32.976 85.9979 33.0191 85.9694 33.0519 85.9306C33.0914 85.8664 33.1064 85.7901 33.0942 85.7157C33.0236 85.0547 32.7728 84.4259 32.3692 83.8984C32.2262 83.6909 32.0469 83.5111 31.8399 83.3678C31.7358 83.2956 31.6172 83.2471 31.4924 83.2255C31.3676 83.204 31.2397 83.21 31.1175 83.2431C30.8528 83.328 30.6517 83.5801 30.3765 83.6358C30.2332 83.648 30.0888 83.6307 29.9523 83.5851C29.8158 83.5395 29.69 83.4665 29.5826 83.3705C29.3132 83.1737 29.0584 82.9573 28.8205 82.7232C28.6432 82.5428 28.4368 82.1926 28.1907 82.113C27.6535 81.8954 27.6826 82.9407 27.6641 83.275Z" fill="#DDDDDD"/>
<path d="M20.887 48.8156C20.7079 49.3647 20.5864 49.9311 20.5245 50.5055L20.4134 51.2828C20.3753 51.443 20.3845 51.6107 20.4398 51.7657C20.5668 52.031 21.0829 51.9275 21.3369 51.9673L22.705 52.1849C23.6153 52.3246 24.5283 52.459 25.4439 52.5881C25.4961 52.1211 25.4872 51.6493 25.4174 51.1847C25.3354 50.7443 25.1528 50.3304 25.0364 49.8954C24.949 49.5425 24.9173 49.1764 24.8273 48.8342C24.6348 48.0903 24.194 47.4349 23.5783 46.9771C22.6177 46.2714 21.1966 47.9773 20.9135 48.7466C20.9031 48.769 20.8942 48.792 20.887 48.8156Z" fill="#4C506D"/>
<path d="M81.317 79.0435H82.4866V68.1982H81.317V79.0435Z" fill="#4C506D"/>
<path d="M76.2097 80.3408H89.2002V78.8206H76.2097V80.3408Z" fill="#4C506D"/>
<path d="M76.2097 80.3408H89.2002V78.8206H76.2097V80.3408Z" fill="#2F3554"/>
<path d="M77.6863 68.2008H84.9477C86.0379 68.2008 86.9218 67.3147 86.9218 66.2217C86.9218 65.1287 86.0379 64.2426 84.9477 64.2426H77.6863C76.5961 64.2426 75.7122 65.1287 75.7122 66.2217C75.7122 67.3147 76.5961 68.2008 77.6863 68.2008Z" fill="#4C506D"/>
<path d="M80.0283 68.2008H87.2896C88.3799 68.2008 89.2637 67.3147 89.2637 66.2217C89.2637 65.1287 88.3799 64.2426 87.2896 64.2426H80.0283C78.938 64.2426 78.0542 65.1287 78.0542 66.2217C78.0542 67.3147 78.938 68.2008 80.0283 68.2008Z" fill="#2F3554"/>
<path d="M72.5261 49.6088V53.3787C72.5258 53.7099 72.5905 54.0379 72.7167 54.344C72.8429 54.6501 73.028 54.9282 73.2615 55.1625C73.495 55.3969 73.7722 55.5827 74.0774 55.7096C74.3826 55.8364 74.7097 55.9017 75.0401 55.9017H78.7978C79.2238 55.9027 79.6429 55.794 80.015 55.586C80.3242 55.4155 80.5945 55.1824 80.8089 54.9015C81.1424 54.4645 81.322 53.9289 81.3196 53.3787V49.6088C81.3196 49.2776 81.2545 48.9497 81.128 48.6437C81.0015 48.3378 80.8161 48.0598 80.5824 47.8258C80.3487 47.5917 80.0712 47.4061 79.7659 47.2796C79.4606 47.1531 79.1334 47.0882 78.8031 47.0885H75.0454C74.933 47.0875 74.8207 47.0946 74.7093 47.1097C74.105 47.1901 73.5505 47.4879 73.1489 47.9476C72.7473 48.4074 72.526 48.9977 72.5261 49.6088Z" fill="#4C506D"/>
<path d="M73.5846 53.3999C73.6351 53.7982 73.7803 54.1785 74.008 54.5089C74.6881 55.4427 76.0112 55.5568 77.1624 55.586C78.0197 55.6072 81.01 56.2519 80.7957 54.8113C80.6819 54.0552 80.2294 53.254 80.0018 52.5244C79.7742 51.7949 79.2926 50.8504 79.2926 50.1129C79.1329 49.4127 78.9188 48.7262 78.6522 48.0595C78.5008 47.712 78.3051 47.3856 78.07 47.0885H75.0427C74.9366 47.0825 74.8301 47.0941 74.7278 47.123C74.8522 48.1391 74.1827 48.8527 73.8122 49.7388C73.4814 50.5347 73.4893 51.4075 73.4999 52.2591C73.5003 52.641 73.5286 53.0222 73.5846 53.3999Z" fill="#2F3554"/>
<path d="M80.0547 42.9844C80.629 43.7803 82.3755 44.531 82.3755 44.531C82.5766 43.7511 82.1479 43.4699 82.1479 43.4699C81.7007 43.5097 81.1133 42.4087 81.3038 42.0717C81.5419 41.642 81.8701 41.8065 82.0977 41.9815C82.3238 41.8046 82.5111 41.5827 82.6477 41.3298C82.7843 41.0769 82.8673 40.7984 82.8915 40.5118C82.918 40.1749 82.3385 39.2225 83.4499 38.8113C84.5613 38.4001 86.1306 38.8113 86.1306 38.8113C86.1306 38.8113 86.5328 37.7686 85.2388 37.2725C84.1803 36.8693 82.6137 37.1054 81.5181 37.2327C80.9259 37.2634 80.3501 37.4382 79.8404 37.7421C79.1074 38.2462 78.7819 39.1668 78.6416 40.0475C78.5014 40.9283 78.504 41.8383 78.2235 42.6846C78.0701 43.1542 77.8266 43.6052 77.8134 44.0986C77.8001 44.5921 78.1336 45.1598 78.6258 45.1465C78.8163 45.1465 79.0253 45.0616 79.1894 45.1625C79.3535 45.2633 79.3852 45.5339 79.5334 45.693C79.7981 45.9583 80.2453 45.693 80.6184 45.6082C81.1053 45.5073 81.6478 45.7779 82.0871 45.5498C82.2697 45.4543 82.4205 45.2845 82.6163 45.258C82.8809 45.2314 83.1006 45.4755 83.3652 45.5073C83.8177 45.563 84.1591 45.0033 84.609 45.0165C84.8103 45.0495 85.0045 45.1168 85.1832 45.2155C85.3471 45.268 85.52 45.2866 85.6913 45.2701C85.8627 45.2536 86.0288 45.2023 86.1798 45.1194C86.3308 45.0366 86.4634 44.9238 86.5695 44.788C86.6757 44.6522 86.7532 44.4962 86.7974 44.3294C86.8312 44.3553 86.87 44.3737 86.9113 44.3835C86.9527 44.3932 86.9956 44.3941 87.0373 44.3861C87.079 44.3781 87.1186 44.3614 87.1534 44.337C87.1882 44.3126 87.2175 44.2811 87.2393 44.2445C87.3223 44.0923 87.3574 43.9184 87.3399 43.7458C87.3399 42.2628 87.7527 39.9441 86.6201 38.7635C85.7654 37.8695 84.3946 37.6493 83.18 37.8615C82.2035 38.0339 80.0045 38.5752 79.5414 39.4825C79.0783 40.3898 79.4805 42.1938 80.0547 42.9844Z" fill="#32384F"/>
<path d="M89.2955 56.2598C88.3746 53.8722 87.496 51.0945 87.496 51.0945L86.8159 46.3722C89.1367 46.213 89.8565 49.1552 90.3593 50.747C90.78 52.0734 91.8994 55.257 92.2566 56.2598H89.2955Z" fill="#D68369"/>
<path d="M99.0602 55.7027C98.4595 56.4402 97.3745 56.4986 96.4139 56.4986L91.7512 56.4827C91.5685 56.5012 91.3843 56.4652 91.2219 56.3792C91.0922 56.2774 90.9933 56.1415 90.9362 55.9866C90.7324 55.5462 89.8327 53.7422 90.2031 53.3336C90.5736 52.925 92.381 53.705 92.8494 53.835C94.9329 54.4187 97.0031 55.0412 99.0602 55.7027Z" fill="#D68369"/>
<path d="M88.3402 46.6428C88.7633 46.9867 89.1217 47.4036 89.3987 47.8738L92.5133 52.5059C92.6578 52.7748 92.8567 53.0104 93.0973 53.1978C93.3379 53.3851 93.6149 53.5199 93.9105 53.5936L96.9855 54.7476C97.094 54.7874 97.2131 54.8405 97.2501 54.9466C97.2872 55.0527 97.1893 55.2119 97.094 55.3154L95.9614 56.5039C95.8518 56.6406 95.7059 56.7436 95.5406 56.801C95.3739 56.8262 95.2034 56.8041 95.0484 56.7373L89.0282 54.798C88.835 54.7482 88.6546 54.6578 88.4989 54.5327C88.2343 54.2833 88.1893 53.8721 88.1655 53.5034C88.1215 52.4677 87.9436 51.4422 87.6363 50.4525C87.2843 49.4099 86.6916 48.4203 86.5566 47.314C86.509 46.9399 86.4216 46.4385 86.7974 46.2343C87.1732 46.03 88.0173 46.412 88.3402 46.6428Z" fill="#DDDDDD"/>
<path d="M86.8159 46.3722C85.5509 46.4872 84.2807 46.535 83.0106 46.5155C81.7298 46.4783 79.626 46.343 78.4802 47.7412C77.0592 49.4762 78.2844 52.5165 79.2741 54.814C79.6446 55.6656 79.8271 58.4326 79.634 60.4542C79.634 60.4542 83.6245 61.8523 87.1335 61.1227L88.3375 56.5941C88.3375 56.5941 91.6956 51.6092 86.8159 46.3722Z" fill="#DDDDDD"/>
<path d="M85.2282 37.2672C85.2282 37.2672 86.9218 37.368 87.4245 39.8247C87.9273 42.2813 85.4822 42.2442 85.4822 42.2442L83.9977 37.9782L85.2282 37.2672Z" fill="#32384F"/>
<path d="M84.1035 45.3774C85.6357 45.5047 86.5672 44.0694 86.7498 42.1938C86.7683 41.9895 86.7762 41.7799 86.7762 41.5677C86.7784 40.9567 86.7082 40.3475 86.5672 39.7531C85.8977 36.8772 81.8039 38.0286 81.8039 38.0286C78.6125 39.4718 81.4414 45.1572 84.1035 45.3774Z" fill="#EC9C7D"/>
<path d="M82.3596 43.255C82.6242 44.1039 83.7383 45.6029 85.0059 45.2527C84.8561 45.524 84.7863 45.8323 84.8046 46.1418C84.8229 46.4513 84.9285 46.7493 85.1091 47.001C85.1091 47.001 84.6936 48.0622 81.9018 46.4943C81.9018 46.4943 82.656 46.4332 82.4496 44.8786C82.3907 44.3443 82.2027 43.8325 81.9018 43.3876C81.935 43.4248 81.978 43.4517 82.0259 43.4655C82.0737 43.4792 82.1244 43.4791 82.1722 43.4653C82.22 43.4514 82.2629 43.4244 82.2961 43.3872C82.3292 43.35 82.3512 43.3042 82.3596 43.255Z" fill="#D68369"/>
<path d="M85.199 37.9676C84.8021 39.3578 84.2676 41.3316 82.9153 42.093C82.7297 42.218 82.5118 42.2862 82.2882 42.2893C82.0817 42.2469 82.1029 42.0824 81.9415 41.9365C81.8892 41.883 81.8215 41.8474 81.7479 41.8345C81.6743 41.8217 81.5986 41.8323 81.5313 41.8648C81.4753 41.9077 81.4307 41.9638 81.4016 42.0282C81.3725 42.0925 81.3598 42.1631 81.3646 42.2336C81.3639 42.404 81.4075 42.5716 81.491 42.72C81.5745 42.8684 81.6951 42.9924 81.8409 43.0799C81.9743 43.1417 82.1018 43.2154 82.222 43.3001C82.3566 43.4336 82.4376 43.6121 82.4496 43.8015C82.4724 44.0561 82.4223 44.3119 82.3051 44.5389C82.1879 44.7659 82.0085 44.9546 81.788 45.0829C81.7607 45.1016 81.7285 45.1118 81.6954 45.1121C81.6563 45.1045 81.6209 45.0839 81.5948 45.0537L80.9941 44.4992C80.7051 44.2538 80.4449 43.9761 80.2188 43.6715C79.9406 43.2593 79.7905 42.7737 79.7874 42.276C79.7874 42.0505 79.8748 41.8224 79.8721 41.6075C79.8346 41.3221 79.7598 41.043 79.6498 40.7771C79.5151 40.4349 79.4451 40.0706 79.4434 39.7027C79.4937 38.9811 80.0891 38.408 80.7348 38.0897C81.7563 37.5829 82.9338 37.5246 84.0744 37.514C84.3013 37.4986 84.529 37.5293 84.7439 37.6042C84.9371 37.6864 85.0191 37.9013 85.199 37.9676Z" fill="#32384F"/>
<path d="M82.4866 55.4613L81.317 58.0373C81.317 58.0373 78.7925 54.8935 77.8451 51.4977C77.0062 48.4946 78.4908 47.7412 78.4908 47.7412C79.626 47.3246 80.3987 48.9456 81.5128 52.2247C82.1267 54.0287 82.4866 55.4613 82.4866 55.4613Z" fill="#EC9C7D"/>
<path d="M81.317 58.0373C81.317 58.0373 81.272 55.9441 82.2908 55.5276C83.3096 55.1111 90.4493 53.9889 90.4493 53.9889L91.1214 54.7635C91.1214 54.7635 84.1088 58.8146 81.317 58.0373Z" fill="#EC9C7D"/>
<path d="M77.2894 50.7655C77.1274 52.1937 77.4379 53.6357 78.1732 54.8697C78.3447 55.181 78.5654 55.4623 78.8269 55.7027C79.1463 55.9588 79.5146 56.1466 79.9092 56.2545C80.9058 56.5166 81.9364 56.6248 82.9656 56.5755C84.7995 56.5755 86.628 56.4561 88.4566 56.3474C88.7028 56.3513 88.9468 56.3005 89.1711 56.1988C89.3878 56.0562 89.5688 55.8656 89.7003 55.6417C89.7547 55.5747 89.7919 55.4955 89.8088 55.4109C89.8096 55.3172 89.7839 55.2252 89.7347 55.1456L89.1393 53.9119C89.1212 53.8516 89.0892 53.7963 89.0461 53.7505C89.0029 53.7047 88.9497 53.6695 88.8906 53.6479C88.8315 53.6263 88.7683 53.6188 88.7058 53.6259C88.6433 53.633 88.5834 53.6547 88.5307 53.6891C87.037 54.0808 85.5124 54.3427 83.9738 54.4717C83.8045 54.4998 83.6308 54.4814 83.471 54.4187C83.3641 54.3513 83.2736 54.2606 83.2064 54.1534C82.7804 53.5697 82.5845 52.8534 82.3808 52.1583C81.9759 50.7629 81.5234 49.325 80.748 48.0834C80.4411 47.5926 79.9409 47.0222 79.3058 47.2875C78.7342 47.5209 78.2764 48.224 77.9827 48.7387C77.623 49.3629 77.3875 50.0513 77.2894 50.7655Z" fill="#DDDDDD"/>
<path d="M94.7891 51.2271H109.701C109.929 51.2239 110.148 51.1372 110.317 50.9832C110.485 50.8293 110.592 50.6188 110.616 50.3914L111.617 39.058C111.628 38.9514 111.616 38.8437 111.583 38.7419C111.549 38.6402 111.495 38.5468 111.422 38.468C111.35 38.3891 111.262 38.3267 111.163 38.2848C111.065 38.2429 110.959 38.2225 110.852 38.2249H95.9402C95.7128 38.2282 95.4945 38.3146 95.3263 38.4681C95.1582 38.6215 95.0518 38.8313 95.0273 39.058L94.0243 50.3914C94.013 50.4981 94.0245 50.606 94.058 50.7078C94.0915 50.8097 94.1462 50.9033 94.2186 50.9823C94.2909 51.0614 94.3792 51.1241 94.4776 51.1663C94.5759 51.2085 94.6821 51.2292 94.7891 51.2271Z" fill="#DDDDDD"/>
<path d="M95.366 51.2271H110.278C110.505 51.2239 110.724 51.137 110.892 50.983C111.061 50.829 111.167 50.6186 111.191 50.3915L112.194 39.058C112.205 38.9514 112.193 38.8437 112.16 38.7419C112.126 38.6402 112.072 38.5468 111.999 38.468C111.927 38.3891 111.839 38.3267 111.74 38.2848C111.642 38.2429 111.536 38.2225 111.429 38.2249H96.5171C96.2894 38.2281 96.0708 38.3145 95.9021 38.4679C95.7335 38.6213 95.6266 38.8311 95.6015 39.058L94.6012 50.3915C94.5895 50.4982 94.6007 50.6062 94.634 50.7083C94.6673 50.8104 94.722 50.9041 94.7944 50.9833C94.8669 51.0624 94.9553 51.1251 95.0539 51.1672C95.1525 51.2092 95.2589 51.2297 95.366 51.2271Z" fill="white"/>
<path d="M106.721 55.7478H102.392V48.6299C102.392 48.0543 102.62 47.5024 103.026 47.0954C103.432 46.6884 103.982 46.4598 104.556 46.4598C105.131 46.4598 105.681 46.6884 106.087 47.0954C106.493 47.5024 106.721 48.0543 106.721 48.6299V55.7478Z" fill="#DDDDDD"/>
<path d="M107.727 55.7478H103.403V48.6299C103.403 48.0543 103.631 47.5024 104.037 47.0954C104.443 46.6884 104.993 46.4598 105.567 46.4598C106.141 46.4598 106.692 46.6884 107.098 47.0954C107.504 47.5024 107.732 48.0543 107.732 48.6299V55.7478H107.727Z" fill="white"/>
<path d="M92.9023 63.5714L92.815 63.4812C93.1616 63.8712 93.3945 64.1524 93.4659 64.2373C93.2781 64.0091 93.0875 63.7969 92.9023 63.5714Z" fill="#DC9BD5"/>
<path d="M79.2159 63.9826C79.4249 65.2056 80.2532 66.2509 81.2641 66.9645C82.2749 67.6782 83.4605 68.092 84.6433 68.4528C85.3419 68.6677 85.7759 69.5644 86.4084 69.9385C86.6377 70.0512 86.8365 70.2178 86.9879 70.424C87.2181 70.7981 87.1017 71.2809 86.9879 71.7027C86.4587 73.5669 85.9224 75.431 85.379 77.2952C85.1144 78.2237 84.8497 79.2053 85.0958 80.1339C85.3419 81.0624 86.3264 81.8689 87.2393 81.5612L92.5821 72.9072C92.5821 72.9072 93.4607 69.4291 91.6162 66.4684C90.8224 65.1923 84.5878 59.9289 84.5878 59.9289C83 59.6954 81.3699 59.5893 79.8245 59.4991C79.6472 61.0086 78.9618 62.4863 79.2159 63.9826Z" fill="#4C506D"/>
<path d="M84.5798 59.9289C84.5798 59.9289 90.9309 65.1207 91.6083 66.4684C93.4766 70.2277 92.5742 72.9072 92.5742 72.9072L97.2501 80.4416C98.3325 80.4655 99.7826 80.1763 99.8382 79.0886C99.8308 78.7832 99.7587 78.483 99.6265 78.2078C98.4515 75.2772 97.2784 72.3465 96.1069 69.4159C95.4083 67.6702 94.6886 65.8927 93.5745 64.3965L93.4766 64.2665L93.4633 64.2479C93.3919 64.163 93.159 63.8818 92.8124 63.4918C91.8015 62.3563 89.8247 60.3295 87.9988 59.5124C87.9988 59.5124 85.8818 60.0987 84.6037 59.9421L84.5798 59.9289Z" fill="#2F3554"/>
<path d="M87.84 83.206C88.2555 83.5907 88.8112 83.978 88.7927 84.5325C88.795 84.589 88.7792 84.6448 88.7477 84.6917C88.6901 84.7494 88.6121 84.7818 88.5307 84.7819C87.2472 84.9251 86.0538 84.1398 85.0562 83.3174C84.7822 83.1366 84.58 82.8653 84.4846 82.5507C84.4716 82.2183 84.5643 81.8904 84.7492 81.6142C84.9849 81.1334 85.1779 80.6327 85.3261 80.1179C85.2811 80.2718 85.9268 80.8157 86.0353 80.9138C86.2655 81.1155 86.6042 81.2614 86.7842 81.5081C86.9168 81.7618 87.0343 82.0231 87.1361 82.2907C87.322 82.6305 87.5595 82.9393 87.84 83.206Z" fill="#EC9C7D"/>
<path d="M101.087 80.7997C101.537 80.9589 102.061 81.0465 102.347 81.4285C102.403 81.4967 102.437 81.5813 102.442 81.6699C102.442 81.906 102.177 82.036 101.937 82.0838C101.01 82.2721 100.055 82.1368 99.121 82.0042C98.9986 81.9953 98.88 81.9581 98.7744 81.8954C98.6504 81.7856 98.565 81.6386 98.5309 81.4763L98.1604 80.3355C98.15 80.3009 98.15 80.264 98.1604 80.2294C98.1762 80.1957 98.2021 80.1679 98.2345 80.1498C98.4847 79.9729 98.7504 79.8192 99.0284 79.6908C99.4068 79.521 99.4333 79.529 99.6873 79.8288C100.062 80.2686 100.545 80.6032 101.087 80.7997Z" fill="#EC9C7D"/>
<path d="M91.2166 53.835C91.955 53.7183 92.7832 53.6228 93.3813 54.0738C93.6648 54.317 93.897 54.6147 94.064 54.9493C94.1519 55.0258 94.2135 55.1282 94.2403 55.2418C94.267 55.3554 94.2575 55.4745 94.213 55.5824C94.1686 55.6903 94.0915 55.7814 93.9926 55.843C93.8937 55.9046 93.7779 55.9335 93.6618 55.9255C92.9817 56.09 92.2487 56.2466 91.5977 55.9892C91.1161 55.8009 90.7244 55.4003 90.2217 55.2809C90.1359 55.2683 90.0532 55.2395 89.9782 55.196C89.9093 55.1387 89.861 55.0605 89.8406 54.9731C89.5389 53.965 90.5498 53.9411 91.2166 53.835Z" fill="#EC9C7D"/>
<path d="M99.129 82.8664C99.1535 82.9199 99.193 82.9651 99.2427 82.9964C99.3172 83.0229 99.3985 83.0229 99.473 82.9964C99.8921 82.9398 100.316 82.9256 100.738 82.954C101.594 82.9402 102.447 82.8613 103.292 82.7179C103.662 82.6648 104.072 82.5852 104.289 82.2801C104.316 82.2443 104.333 82.2023 104.339 82.1581C104.335 82.0926 104.308 82.0307 104.263 81.983C103.891 81.536 103.403 81.2016 102.852 81.0173C102.648 80.9314 102.43 80.8838 102.209 80.8767C102.098 80.8757 101.988 80.899 101.886 80.9448C101.785 80.9906 101.695 81.0578 101.622 81.142C101.471 81.3383 101.45 81.6169 101.275 81.792C101.176 81.8693 101.063 81.9259 100.942 81.9582C100.821 81.9906 100.695 81.9981 100.571 81.9803C100.279 81.9682 99.9879 81.9345 99.7005 81.8795C99.4836 81.8371 99.1713 81.6885 98.9464 81.7442C98.4595 81.8715 98.9887 82.6144 99.129 82.8664Z" fill="#DDDDDD"/>
<path d="M84.1697 83.2272C84.1585 83.2938 84.1677 83.3623 84.1961 83.4235C84.2498 83.496 84.3262 83.5483 84.4131 83.5721C84.8467 83.7848 85.2573 84.0417 85.6383 84.3388C86.4608 84.8705 87.3215 85.3405 88.2131 85.7449C88.5968 85.9306 89.0361 86.1189 89.4357 85.9651C89.4834 85.9485 89.5261 85.9202 89.5601 85.8828C89.5986 85.8183 89.6127 85.742 89.5998 85.6679C89.532 85.0062 89.2809 84.3767 88.8747 83.8507C88.7325 83.6425 88.5531 83.4626 88.3454 83.3201C88.2415 83.2474 88.123 83.1984 87.9983 83.1764C87.8735 83.1544 87.7454 83.16 87.623 83.1927C87.3584 83.2803 87.1599 83.5323 86.8821 83.588C86.7386 83.6013 86.594 83.5846 86.4573 83.539C86.3207 83.4933 86.195 83.4197 86.0882 83.3227C85.8175 83.1265 85.5627 82.9092 85.3261 82.6727C85.1461 82.495 84.9397 82.1421 84.6963 82.0652C84.1696 81.8371 84.1882 82.8982 84.1697 83.2272Z" fill="#DDDDDD"/>
<path d="M4.85069 58.7032V83.7658C4.85069 84.2459 5.16824 84.6386 5.55989 84.6386H16.4492C16.8409 84.6386 17.1584 84.2459 17.1584 83.7658V58.7032C17.1547 58.6594 17.168 58.6158 17.1957 58.5817C17.2233 58.5475 17.2631 58.5255 17.3066 58.5201H101.794C101.837 58.5255 101.877 58.5475 101.905 58.5817C101.932 58.6158 101.946 58.6594 101.942 58.7032V80.5981C102.063 80.6639 102.188 80.7232 102.315 80.7759L102.503 80.8369V58.7032C102.503 58.6418 102.498 58.5806 102.487 58.5201H113.543C113.587 58.5255 113.626 58.5475 113.654 58.5817C113.682 58.6158 113.695 58.6594 113.691 58.7032V83.7658C113.695 83.8099 113.682 83.8538 113.654 83.8883C113.627 83.9229 113.587 83.9455 113.543 83.9515H102.651C102.607 83.9455 102.568 83.9229 102.54 83.8883C102.512 83.8538 102.499 83.8099 102.503 83.7658V83.1237C102.32 83.1757 102.129 83.1857 101.942 83.1529V83.7658C101.942 84.2459 102.259 84.6386 102.651 84.6386H113.543C113.935 84.6386 114.252 84.2459 114.252 83.7658V58.7032C114.252 58.223 113.935 57.833 113.543 57.833H5.57577C5.16824 57.833 4.85069 58.2257 4.85069 58.7032ZM5.40905 58.7032C5.40535 58.659 5.41906 58.6151 5.44725 58.5808C5.47544 58.5466 5.51587 58.5248 5.55989 58.5201H16.6133C16.6025 58.5806 16.5972 58.6418 16.5974 58.7032V83.7658C16.6012 83.8099 16.588 83.8538 16.5604 83.8883C16.5328 83.9229 16.493 83.9455 16.4492 83.9515H5.55989C5.51565 83.9461 5.47521 83.9238 5.44707 83.8891C5.41894 83.8545 5.40531 83.8103 5.40905 83.7658V58.7032Z" fill="white"/>
<path d="M4.85069 58.7032V83.7658C4.85069 84.2459 5.16824 84.6386 5.55989 84.6386H16.4492C16.8409 84.6386 17.1584 84.2459 17.1584 83.7658V58.7032C17.1547 58.6594 17.168 58.6158 17.1957 58.5817C17.2233 58.5475 17.2631 58.5255 17.3066 58.5201H101.794C101.837 58.5255 101.877 58.5475 101.905 58.5817C101.932 58.6158 101.946 58.6594 101.942 58.7032V80.5981C102.063 80.6639 102.188 80.7232 102.315 80.7759L102.503 80.8369V58.7032C102.503 58.6418 102.498 58.5806 102.487 58.5201H113.543C113.587 58.5255 113.626 58.5475 113.654 58.5817C113.682 58.6158 113.695 58.6594 113.691 58.7032V83.7658C113.695 83.8099 113.682 83.8538 113.654 83.8883C113.627 83.9229 113.587 83.9455 113.543 83.9515H102.651C102.607 83.9455 102.568 83.9229 102.54 83.8883C102.512 83.8538 102.499 83.8099 102.503 83.7658V83.1237C102.32 83.1757 102.129 83.1857 101.942 83.1529V83.7658C101.942 84.2459 102.259 84.6386 102.651 84.6386H113.543C113.935 84.6386 114.252 84.2459 114.252 83.7658V58.7032C114.252 58.223 113.935 57.833 113.543 57.833H5.57577C5.16824 57.833 4.85069 58.2257 4.85069 58.7032ZM5.40905 58.7032C5.40535 58.659 5.41906 58.6151 5.44725 58.5808C5.47544 58.5466 5.51587 58.5248 5.55989 58.5201H16.6133C16.6025 58.5806 16.5972 58.6418 16.5974 58.7032V83.7658C16.6012 83.8099 16.588 83.8538 16.5604 83.8883C16.5328 83.9229 16.493 83.9455 16.4492 83.9515H5.55989C5.51565 83.9461 5.47521 83.9238 5.44707 83.8891C5.41894 83.8545 5.40531 83.8103 5.40905 83.7658V58.7032Z" fill="url(#paint3_linear)"/>
<path d="M5.55989 84.6386H16.4492C16.8409 84.6386 17.1584 84.2459 17.1584 83.7658V58.7032C17.1547 58.6594 17.168 58.6158 17.1957 58.5817C17.2233 58.5475 17.2631 58.5255 17.3066 58.5201H113.543C113.587 58.5248 113.628 58.5466 113.656 58.5809C113.684 58.6151 113.698 58.659 113.694 58.7032V83.7658C113.698 83.81 113.684 83.8539 113.656 83.8881C113.628 83.9223 113.587 83.9441 113.543 83.9488C113.464 83.9658 113.394 84.0094 113.344 84.0721C113.293 84.1349 113.265 84.2131 113.265 84.2937C113.265 84.3743 113.293 84.4525 113.344 84.5153C113.394 84.578 113.464 84.6216 113.543 84.6386C113.935 84.6386 114.252 84.2459 114.252 83.7658V58.7032C114.252 58.223 113.935 57.8304 113.543 57.8304H17.3066C16.915 57.8304 16.5974 58.223 16.5974 58.7032V83.7658C16.6012 83.8096 16.5878 83.8531 16.5602 83.8873C16.5326 83.9214 16.4928 83.9435 16.4492 83.9488H5.55989C5.51587 83.9441 5.47544 83.9223 5.44725 83.8881C5.41906 83.8539 5.40535 83.81 5.40905 83.7658V58.7032C5.40535 58.659 5.41906 58.6151 5.44725 58.5809C5.47544 58.5466 5.51587 58.5248 5.55989 58.5201C5.63851 58.5031 5.70894 58.4596 5.75945 58.3969C5.80996 58.3341 5.83751 58.2559 5.83751 58.1753C5.83751 58.0946 5.80996 58.0164 5.75945 57.9537C5.70894 57.8909 5.63851 57.8474 5.55989 57.8304C5.16824 57.8304 4.85069 58.223 4.85069 58.7032V83.7658C4.85069 84.2459 5.16824 84.6386 5.55989 84.6386Z" fill="white"/>
<path d="M5.55989 84.6386H16.4492C16.8409 84.6386 17.1584 84.2459 17.1584 83.7658V58.7032C17.1547 58.6594 17.168 58.6158 17.1957 58.5817C17.2233 58.5475 17.2631 58.5255 17.3066 58.5201H113.543C113.587 58.5248 113.628 58.5466 113.656 58.5809C113.684 58.6151 113.698 58.659 113.694 58.7032V83.7658C113.698 83.81 113.684 83.8539 113.656 83.8881C113.628 83.9223 113.587 83.9441 113.543 83.9488C113.464 83.9658 113.394 84.0094 113.344 84.0721C113.293 84.1349 113.265 84.2131 113.265 84.2937C113.265 84.3743 113.293 84.4525 113.344 84.5153C113.394 84.578 113.464 84.6216 113.543 84.6386C113.935 84.6386 114.252 84.2459 114.252 83.7658V58.7032C114.252 58.223 113.935 57.8304 113.543 57.8304H17.3066C16.915 57.8304 16.5974 58.223 16.5974 58.7032V83.7658C16.6012 83.8096 16.5878 83.8531 16.5602 83.8873C16.5326 83.9214 16.4928 83.9435 16.4492 83.9488H5.55989C5.51587 83.9441 5.47544 83.9223 5.44725 83.8881C5.41906 83.8539 5.40535 83.81 5.40905 83.7658V58.7032C5.40535 58.659 5.41906 58.6151 5.44725 58.5809C5.47544 58.5466 5.51587 58.5248 5.55989 58.5201C5.63851 58.5031 5.70894 58.4596 5.75945 58.3969C5.80996 58.3341 5.83751 58.2559 5.83751 58.1753C5.83751 58.0946 5.80996 58.0164 5.75945 57.9537C5.70894 57.8909 5.63851 57.8474 5.55989 57.8304C5.16824 57.8304 4.85069 58.223 4.85069 58.7032V83.7658C4.85069 84.2459 5.16824 84.6386 5.55989 84.6386Z" fill="url(#paint4_linear)"/>
<path d="M114.21 57.8224L16.1846 57.8224V56.5145L114.999 56.5145V57.0318C114.997 57.2411 114.914 57.4414 114.766 57.5893C114.618 57.7373 114.419 57.821 114.21 57.8224Z" fill="white"/>
<path d="M16.182 57.8224H4.89304C4.68249 57.8224 4.48056 57.7386 4.33168 57.5893C4.1828 57.4401 4.09916 57.2376 4.09916 57.0265V56.1855H16.182V57.8171V57.8224Z" fill="white"/>
<path d="M14.6075 55.8088H115.597C115.655 55.8161 115.709 55.8459 115.746 55.892C115.783 55.938 115.8 55.9966 115.795 56.0555V56.7824C115.8 56.8413 115.783 56.9 115.746 56.946C115.709 56.992 115.655 57.0218 115.597 57.0292H14.6075V55.8088Z" fill="#DDDDDD"/>
<path d="M3.53815 55.8088H16.6371C16.6957 55.8161 16.7491 55.8459 16.7861 55.892C16.8231 55.938 16.8409 55.9966 16.8356 56.0555V56.7824C16.8409 56.8413 16.8231 56.9 16.7861 56.946C16.7491 56.992 16.6957 57.0218 16.6371 57.0292H3.53815C3.46979 57.0211 3.40724 56.9867 3.36376 56.9332C3.32029 56.8798 3.29931 56.8114 3.30528 56.7426V56.1033C3.30123 56.0686 3.30404 56.0335 3.31356 55.9999C3.32307 55.9663 3.33911 55.9349 3.36074 55.9076C3.38238 55.8802 3.40918 55.8574 3.43963 55.8405C3.47007 55.8235 3.50355 55.8128 3.53815 55.8088Z" fill="#DDDDDD"/>
<path d="M3.53815 55.8088H16.6371C16.6957 55.8161 16.7491 55.8459 16.7861 55.892C16.8231 55.938 16.8409 55.9966 16.8356 56.0555V56.7824C16.8409 56.8413 16.8231 56.9 16.7861 56.946C16.7491 56.992 16.6957 57.0218 16.6371 57.0292H3.53815C3.46979 57.0211 3.40724 56.9867 3.36376 56.9332C3.32029 56.8798 3.29931 56.8114 3.30528 56.7426V56.1033C3.30123 56.0686 3.30404 56.0335 3.31356 55.9999C3.32307 55.9663 3.33911 55.9349 3.36074 55.9076C3.38238 55.8802 3.40918 55.8574 3.43963 55.8405C3.47007 55.8235 3.50355 55.8128 3.53815 55.8088Z" fill="url(#paint5_linear)"/>
<path d="M86.7815 40.3075C86.7766 40.3498 86.765 40.391 86.7471 40.4296C86.7121 40.4791 86.6612 40.515 86.6029 40.5314C86.5447 40.5478 86.4825 40.5437 86.4269 40.5198C86.3168 40.467 86.2206 40.3888 86.1464 40.2916C86.1534 40.3408 86.1436 40.3908 86.1186 40.4337C86.0936 40.4765 86.0549 40.5097 86.0088 40.5277C85.9144 40.5608 85.8125 40.5663 85.7151 40.5437C85.4914 40.5065 85.2763 40.4292 85.08 40.3155C85.0733 40.4155 85.0368 40.5112 84.9753 40.5903C84.9137 40.6693 84.83 40.728 84.7348 40.7589C84.6397 40.7897 84.5375 40.7912 84.4415 40.7633C84.3455 40.7353 84.26 40.6792 84.1961 40.602L84.0612 40.8673C83.9368 40.8036 83.7965 40.8673 83.6536 40.8514C83.5148 40.825 83.3898 40.7499 83.301 40.6396C83.2123 40.5292 83.1656 40.3908 83.1694 40.2492C83.1837 39.9669 83.2557 39.6906 83.3811 39.4374C83.5555 38.9932 83.6858 38.5329 83.7701 38.0631C83.7851 37.9105 83.833 37.763 83.9103 37.6307C84.0083 37.5091 84.1429 37.4225 84.294 37.384C85.0032 37.1744 85.8209 37.6493 86.2682 38.1799C86.7036 38.7975 86.8873 39.5586 86.7815 40.3075Z" fill="#32384F"/>
<path d="M157.881 82.5772C157.9 83.1352 157.796 83.6904 157.577 84.2035C157.304 84.6813 156.892 85.0644 156.397 85.3018C155.336 85.8549 154.104 85.9765 152.956 85.6414C152.799 85.6113 152.657 85.5257 152.557 85.4C152.5 85.2955 152.475 85.1764 152.485 85.0578C152.512 84.4237 152.938 83.8798 153.39 83.4341C153.843 82.9884 154.351 82.5746 154.632 82.0069C155.161 80.9457 154.767 78.0884 156.778 78.5447C158.453 78.9188 157.926 81.3861 157.881 82.5772Z" fill="#FDB9A9"/>
<path d="M158.159 84.5059C158.159 84.5059 158.445 85.209 158.093 85.6202C157.741 86.0314 154.123 88.2732 151.702 86.4718C149.281 84.6704 154.999 84.4263 154.999 84.4263L158.159 84.5059Z" fill="#DDDDDD"/>
<path d="M158.019 82.8664C157.907 82.8147 157.782 82.8033 157.663 82.8343C157.544 82.8653 157.44 82.9366 157.368 83.0362C157.131 83.3072 156.829 83.5132 156.49 83.6348C156.152 83.7564 155.788 83.7896 155.433 83.7313C154.64 83.5403 154.325 82.625 153.93 82.6197C153.536 82.6144 151.435 84.4104 151.318 85.1798C151.202 85.9492 152.271 86.5063 153.459 86.5912C154.647 86.6761 157.333 85.8404 157.844 85.2169C158.355 84.5935 158.291 83.2617 158.019 82.8664Z" fill="white"/>
<path d="M164.775 83.6941C164.793 84.252 164.69 84.8073 164.47 85.3204C164.197 85.7976 163.785 86.1806 163.29 86.4187C162.229 86.9707 160.998 87.0923 159.85 86.7583C159.692 86.7282 159.551 86.6426 159.45 86.5169C159.393 86.4125 159.369 86.2931 159.382 86.1747C159.405 85.5406 159.831 84.9967 160.284 84.551C160.737 84.1053 161.247 83.6915 161.525 83.1211C162.054 82.0599 161.66 79.2053 163.671 79.6722C165.346 80.0304 164.82 82.4897 164.775 83.6941Z" fill="#FDB9A9"/>
<path d="M165.053 85.6069C165.053 85.6069 165.338 86.3126 164.986 86.7238C164.634 87.135 161.017 89.3768 158.596 87.5728C156.174 85.7688 161.893 85.5273 161.893 85.5273L165.053 85.6069Z" fill="#DDDDDD"/>
<path d="M164.912 83.9594C164.801 83.9074 164.676 83.8957 164.557 83.9261C164.438 83.9566 164.334 84.0275 164.261 84.1266C164.024 84.3976 163.722 84.6036 163.384 84.7252C163.045 84.8468 162.682 84.88 162.327 84.8216C161.533 84.6333 161.218 83.718 160.824 83.7127C160.43 83.7074 158.328 85.5008 158.212 86.2728C158.096 87.0448 159.165 87.5993 160.353 87.6842C161.541 87.7691 164.227 86.9334 164.738 86.3073C165.248 85.6812 165.185 84.3627 164.912 83.9594Z" fill="white"/>
<path d="M166.204 53.9252C166.204 53.9252 166.579 74.6183 165.05 81.5346L161.176 82.0148L158.49 53.6679L166.204 53.9252Z" fill="#473F47"/>
<path d="M154.219 51.6649C154.219 51.6649 152.393 62.8312 154.608 80.7679L158.49 81.2481L161.176 52.9012L154.219 51.6649Z" fill="#473F47"/>
<path d="M149.675 42.7589C149.717 43.507 149.958 44.1596 150.607 44.3772C150.661 44.3957 150.717 44.4108 150.773 44.4223C151.964 44.6611 153.528 43.7511 154.618 42.9579C155.072 42.6285 155.506 42.2742 155.92 41.8967V33.8979L150.122 39.8486C150.122 39.8486 149.593 41.4483 149.675 42.7589Z" fill="#DDDDDD"/>
<path d="M154.576 42.9313C154.576 43.3054 154.528 43.6874 154.528 44.0615C154.528 46.1281 155.005 48.2585 154.391 50.2827C154.253 50.7363 154.06 51.2192 154.219 51.6649C154.396 52.038 154.703 52.334 155.081 52.4979C156.897 53.4928 158.998 53.7979 161.046 54.0897C162.589 54.3046 164.775 54.7635 166.201 53.9305C166.807 53.5777 167.013 52.9171 167.207 52.2591C167.823 50.1633 168 47.9109 168.167 45.7408C168.191 45.4543 168.21 45.1678 168.225 44.8812C168.345 42.9039 168.386 40.9248 168.347 38.9439C168.318 37.5086 168.207 35.9567 167.27 34.8716C166.024 33.4284 163.618 32.4839 161.792 32.1364C161.2 32.0142 160.593 31.9803 159.99 32.0356C159.137 32.1728 158.313 32.4536 157.553 32.866C156.645 33.3143 155.838 33.6963 155.391 34.5957C154.902 35.6337 154.562 36.7359 154.38 37.8694C154.213 38.9334 154.193 40.0153 154.319 41.0848C154.375 41.6154 154.513 42.1301 154.56 42.6501C154.56 42.7429 154.573 42.8385 154.576 42.9313Z" fill="#DDDDDD"/>
<path opacity="0.1" d="M162.983 54.6309C163.581 54.8086 164.96 54.2595 165.418 54.1772C165.682 54.1295 165.947 53.9942 166.212 53.9252C167.577 53.5856 167.738 49.7415 167.873 48.7068C168.225 45.9716 168.771 43.1356 168.802 40.4004C168.802 39.3392 168.786 38.2647 168.44 37.2672C168.093 36.2697 167.381 35.3465 166.394 34.9883C164.65 34.3569 164.132 39.883 163.893 41.0291L162.584 47.2795C162.4 48.0473 162.281 48.8291 162.226 49.6168C162.179 50.7125 162.528 51.4739 162.808 52.4634C162.967 53.0073 162.544 54.0552 162.745 54.4531C162.771 54.4973 162.805 54.5359 162.846 54.5664C162.887 54.597 162.934 54.6189 162.983 54.6309Z" fill="#020202"/>
<path d="M158.794 30.4199C159.015 30.6578 159.314 30.8076 159.636 30.8418C159.905 30.87 160.176 30.8745 160.445 30.855H160.596C160.634 30.8487 160.673 30.8553 160.707 30.8736C160.723 30.8897 160.735 30.9088 160.744 30.9297C160.752 30.9507 160.756 30.9731 160.755 30.9956C160.815 31.5356 160.825 32.08 160.787 32.6219C160.787 32.7201 160.771 32.8156 160.76 32.9137C160.741 33.0168 160.75 33.1232 160.787 33.2215C160.865 33.3326 160.982 33.4095 161.115 33.4364C161.351 33.5161 161.599 33.5582 161.848 33.561C162.381 33.5091 162.894 33.3269 163.34 33.0305C163.303 32.1038 163.351 31.1757 163.486 30.2581C163.658 29.0722 163.968 27.8864 163.838 26.6952C163.811 26.2247 163.641 25.7738 163.351 25.4032C162.925 24.923 162.234 24.7665 161.591 24.7691C160.739 24.7544 159.901 24.9845 159.175 25.4324C158.911 25.6154 158.876 25.8462 158.815 26.1487C158.723 26.6156 158.649 27.0905 158.598 27.5627C158.54 28.0933 158.506 28.6451 158.498 29.189C158.485 29.6214 158.511 30.1042 158.794 30.4199Z" fill="#FDB9A9"/>
<path d="M159.726 25.7136C160.332 25.8144 160.996 25.7136 161.578 25.9444C162.372 26.2707 162.716 27.3107 162.451 28.1357C162.682 28.218 162.716 27.8015 162.904 27.6317C163.092 27.4619 163.483 27.69 163.512 27.9792C163.493 28.2718 163.402 28.5551 163.248 28.8043C163.029 29.3165 162.991 29.8883 163.139 30.4252C163.176 30.5499 163.269 30.6905 163.404 30.6667C163.539 30.6428 163.618 30.4199 163.695 30.3244C163.818 30.1764 163.954 30.0388 164.1 29.9132C164.38 29.6665 164.69 29.4489 164.978 29.2075C165.489 28.7804 165.963 28.1967 165.934 27.5282C165.916 27.2567 165.825 26.9952 165.669 26.7721C165.538 26.5777 165.369 26.4124 165.172 26.2866C165.09 26.2362 164.997 26.1805 164.978 26.085C164.975 26.0319 164.982 25.9787 165 25.9285C165.174 25.252 164.799 24.525 164.243 24.1032C163.661 23.7119 162.996 23.4646 162.3 23.3816C161.856 23.2994 161.406 23.2384 160.956 23.1853C160.583 23.1641 160.217 23.0741 159.877 22.92C159.966 22.6749 160.086 22.4422 160.234 22.2276C159.915 22.3226 159.611 22.4629 159.331 22.6441C159.347 22.4884 159.387 22.3361 159.45 22.1931C158.964 22.3602 158.445 22.5486 158.127 22.9518C157.938 23.2124 157.832 23.5243 157.824 23.8464C157.815 24.1685 157.905 24.4857 158.08 24.7558C158.426 25.305 158.974 25.5252 159.575 25.6711L159.726 25.7136Z" fill="#444444"/>
<path d="M160.438 30.855H160.588C160.626 30.8487 160.665 30.8553 160.699 30.8736C160.715 30.8897 160.728 30.9088 160.736 30.9297C160.744 30.9507 160.748 30.9731 160.747 30.9956C160.807 31.5356 160.817 32.08 160.779 32.6219C160.779 32.6219 162.33 32.2266 162.277 30.3138C161.687 30.5579 161.075 30.7402 160.448 30.8577L160.438 30.855Z" fill="#DE9F93"/>
<path d="M144.84 40.6949C145.601 41.7761 146.543 42.7168 147.624 43.4752C148.403 44.0064 149.304 44.3305 150.241 44.417C150.365 44.4279 150.489 44.4143 150.607 44.3772C150.807 44.3162 150.983 44.1937 151.109 44.027C151.5 43.558 151.735 42.9783 151.782 42.3689C151.845 40.7771 150.122 39.8486 150.122 39.8486C150.122 39.8486 146.201 38.5964 145.735 38.7874C145.47 38.8988 145.237 39.4506 145.068 39.9308C144.93 40.3447 144.84 40.6949 144.84 40.6949Z" fill="#DDDDDD"/>
<path opacity="0.1" d="M144.84 40.6949C145.601 41.7761 146.543 42.7168 147.624 43.4752C148.403 44.0064 149.304 44.3305 150.241 44.417C150.365 44.4279 150.489 44.4144 150.607 44.3772C150.661 44.3957 150.717 44.4108 150.773 44.4223C151.964 44.6611 153.528 43.7511 154.618 42.9579V42.9313L154.248 40.5437C153.534 41.2825 152.705 41.8991 151.792 42.3689C151.145 42.718 150.404 42.8544 149.675 42.7589C149.479 42.7296 149.289 42.6724 149.109 42.5891C147.652 41.8854 146.294 40.9935 145.068 39.9361C144.93 40.3447 144.84 40.6949 144.84 40.6949Z" fill="#020202"/>
<path d="M170.803 43.2974C171.332 44.7008 171.774 46.1891 171.565 47.6695C171.3 49.4656 170.117 50.9671 168.972 52.3706C168.069 52.5059 166.886 52.4873 166.569 51.633C166.488 51.3578 166.467 51.0682 166.508 50.7841L166.635 48.927C166.693 48.0993 166.746 47.2503 166.508 46.4571C166.243 45.5524 165.614 44.8043 165.119 44.0005C164.312 42.6902 163.834 41.2038 163.724 39.6682C163.621 38.2302 164.706 33.5663 166.826 34.9724C167.704 35.5481 168.482 37.9411 168.943 38.9015C169.636 40.3358 170.256 41.8011 170.803 43.2974Z" fill="#DDDDDD"/>
<path d="M166.026 53.6334C165.976 53.7033 165.949 53.7883 165.952 53.8748C165.952 53.9597 166.056 54.0393 166.132 53.9995C166.347 54.6654 165.899 55.3631 165.899 56.0635C165.896 56.1263 165.904 56.1892 165.923 56.2492C165.955 56.3264 166.01 56.392 166.079 56.4376C166.197 56.5119 166.331 56.5554 166.47 56.5642C166.609 56.573 166.747 56.5468 166.873 56.488C167.124 56.3694 167.348 56.2016 167.532 55.9945C167.934 55.6245 168.24 55.162 168.424 54.6468C168.491 54.4074 168.535 54.1623 168.556 53.9146L168.771 52.0867C167.397 51.6384 166.659 52.5457 166.026 53.6334Z" fill="#FDB9A9"/>
<path d="M145.081 37.2672C145.043 37.1437 144.974 37.0321 144.88 36.9436C144.831 36.9024 144.768 36.8818 144.705 36.8863C144.641 36.8907 144.581 36.9198 144.539 36.9674C144.506 37.0352 144.483 37.1077 144.473 37.1823C144.438 37.2635 144.379 37.3323 144.304 37.3796C144.23 37.4269 144.143 37.4506 144.055 37.4476C143.878 37.438 143.705 37.3957 143.544 37.3229C143.078 37.1477 142.603 36.9998 142.12 36.8799C142.008 36.8455 141.888 36.8455 141.776 36.8799C141.717 36.9109 141.666 36.9534 141.624 37.0049C141.582 37.0564 141.551 37.1159 141.533 37.1797C141.433 37.4741 141.408 37.7888 141.46 38.0953C141.511 38.4019 141.638 38.6908 141.829 38.9359C142.22 39.4218 142.753 39.7733 143.353 39.9414C143.95 40.1041 144.564 40.1932 145.182 40.2067C145.338 40.232 145.499 40.2098 145.642 40.143C146.402 39.7026 145.274 37.7607 145.081 37.2672Z" fill="#FDB9A9"/>
<path d="M118.108 12.5549H115.53V27.2921H118.108V12.5549Z" fill="#DDDDDD"/>
<path d="M121.72 18.6063H119.143V27.2921H121.72V18.6063Z" fill="#DDDDDD"/>
<path d="M125.33 21.3176H122.752V27.2947H125.33V21.3176Z" fill="#DDDDDD"/>
<path d="M128.939 16.7253H126.362V27.2921H128.939V16.7253Z" fill="#DDDDDD"/>
<path d="M132.549 14.1015H129.971V27.2921H132.549V14.1015Z" fill="#DDDDDD"/>
<path d="M136.158 12.5549H133.581V27.2921H136.158V12.5549Z" fill="#DDDDDD"/>
</g>
<defs>
<linearGradient id="paint0_linear" x1="66.6916" y1="35.7225" x2="57.6422" y2="140.431" gradientUnits="userSpaceOnUse">
<stop offset="0.01"/>
<stop offset="0.08" stop-opacity="0.69"/>
<stop offset="0.21" stop-opacity="0.32"/>
<stop offset="1" stop-opacity="0"/>
</linearGradient>
<linearGradient id="paint1_linear" x1="27958.7" y1="3108.17" x2="27924.9" y2="5434.21" gradientUnits="userSpaceOnUse">
<stop offset="0.01"/>
<stop offset="0.08" stop-opacity="0.69"/>
<stop offset="0.21" stop-opacity="0.32"/>
<stop offset="1" stop-opacity="0"/>
</linearGradient>
<linearGradient id="paint2_linear" x1="1529.18" y1="8843.5" x2="4841.6" y2="8736.51" gradientUnits="userSpaceOnUse">
<stop offset="0.01"/>
<stop offset="0.08" stop-opacity="0.69"/>
<stop offset="0.21" stop-opacity="0.32"/>
<stop offset="1" stop-opacity="0"/>
</linearGradient>
<linearGradient id="paint3_linear" x1="28867.2" y1="15630.8" x2="28723.8" y2="-3637.93" gradientUnits="userSpaceOnUse">
<stop offset="0.01"/>
<stop offset="0.08" stop-opacity="0.69"/>
<stop offset="0.21" stop-opacity="0.32"/>
<stop offset="1" stop-opacity="0"/>
</linearGradient>
<linearGradient id="paint4_linear" x1="28797.2" y1="6791.25" x2="28673.3" y2="27147.2" gradientUnits="userSpaceOnUse">
<stop offset="0.01"/>
<stop offset="0.08" stop-opacity="0.69"/>
<stop offset="0.21" stop-opacity="0.32"/>
<stop offset="1" stop-opacity="0"/>
</linearGradient>
<linearGradient id="paint5_linear" x1="1121.94" y1="468.692" x2="1118.64" y2="561.043" gradientUnits="userSpaceOnUse">
<stop offset="0.01"/>
<stop offset="0.08" stop-opacity="0.69"/>
<stop offset="0.21" stop-opacity="0.32"/>
<stop offset="1" stop-opacity="0"/>
</linearGradient>
<clipPath id="clip0">
<rect width="177.955" height="90" fill="white"/>
</clipPath>
</defs>
</svg>
