<svg width="148" height="98" viewBox="0 0 148 98" fill="none" xmlns="http://www.w3.org/2000/svg">
<g clip-path="url(#clip0)">
<path d="M33.1644 34.0897C33.264 34.0578 33.3691 34.0466 33.4733 34.0567C33.5774 34.0669 33.6784 34.0981 33.77 34.1486C33.8876 34.2606 33.9645 34.4086 33.9887 34.5692C34.1411 35.1578 34.2272 35.7616 34.2453 36.3694C34.2705 36.6345 34.23 36.9017 34.1275 37.1475C33.9803 37.3994 33.7738 37.6116 33.5261 37.7657C30.5079 39.9923 27.3403 42.0089 24.0457 43.8014C23.9069 43.8771 22.6451 39.5954 22.6241 39.1748C22.5568 38.0476 22.9143 37.5386 23.8859 37.0297C26.6661 35.5912 30.1192 34.6743 33.1644 34.0897Z" fill="#DDDDDD"/>
<path d="M33.1644 34.1233C33.2639 34.0905 33.3691 34.0787 33.4734 34.0889C33.5777 34.099 33.6787 34.1308 33.77 34.1822C33.8876 34.2943 33.9645 34.4422 33.9888 34.6028C34.1411 35.1914 34.2272 35.7953 34.2453 36.403C34.2701 36.6681 34.2297 36.9352 34.1275 37.1811C33.98 37.4317 33.7735 37.6425 33.5261 37.7952C30.5089 40.0245 27.3413 42.0426 24.0457 43.835C23.9069 43.9107 22.6451 39.629 22.6241 39.2084C22.5568 38.0812 22.9143 37.5723 23.8859 37.0633C26.6661 35.6207 30.1192 34.708 33.1644 34.1233Z" fill="url(#paint0_linear)"/>
<path d="M56.5708 73.786C56.9644 73.8588 57.3419 74.0012 57.6854 74.2066C57.8556 74.3123 57.9924 74.464 58.0802 74.644C58.168 74.8241 58.2032 75.0253 58.1817 75.2245C58.0555 75.8764 57.227 76.0657 56.5666 76.1035C53.9446 76.2483 51.3146 76.1229 48.7182 75.7292C48.4785 75.6913 48.1882 75.6703 48.0368 75.8596C47.8854 76.0488 47.9359 76.196 47.8812 76.3643C47.7003 76.9321 46.8381 76.9657 46.4007 76.562C46.0171 76.1059 45.781 75.5442 45.7235 74.9511C45.2478 72.6922 44.4429 70.5155 43.3345 68.4906C43.0456 68.0216 42.8194 67.5168 42.6615 66.9891C42.3082 65.5212 43.8266 64.2973 45.0968 65.2394C46.2367 66.0806 47.0064 67.8093 48.041 68.8397C50.4081 71.1992 53.3473 72.9035 56.5708 73.786Z" fill="#3E3E54"/>
<path d="M41.467 90.2694C41.3988 90.8312 41.4301 91.4008 41.5596 91.9518C41.6299 92.2264 41.7878 92.4707 42.0094 92.6475C42.2311 92.8244 42.5043 92.9242 42.7877 92.9318C43.5364 92.8645 43.8897 91.9896 44.0832 91.2494C46.7792 93.4491 50.6151 93.5921 54.0556 93.0537C54.2135 93.0519 54.3644 92.9885 54.4762 92.8771C54.6991 92.5953 54.3122 92.2336 53.9883 92.0779L48.3312 89.3903C46.9979 88.7552 45.6099 88.0738 44.7519 86.8667C44.1168 85.9792 42.9013 81.483 41.2315 83.9225C40.1169 85.5502 41.5301 88.5028 41.467 90.2694Z" fill="#3E3E54"/>
<path d="M22.5442 62.4256L31.0908 65.4665C31.6239 65.6013 32.1081 65.8842 32.4872 66.2825C32.7367 66.6618 32.895 67.0937 32.9499 67.5443C34.0485 73.2032 34.8502 78.9158 35.3515 84.6585C38.0133 85.312 40.7883 85.3552 43.4691 84.7847C43.5892 84.7745 43.7059 84.7392 43.8117 84.6813C43.9174 84.6233 44.0099 84.544 44.0832 84.4482C44.1413 84.3161 44.1645 84.1713 44.1505 84.0276C44.0411 77.3906 43.3093 70.6694 40.7857 64.5202C40.436 63.482 39.8483 62.54 39.0696 61.7694C38.2284 61.046 37.1475 60.7179 36.1254 60.3015C34.443 59.6034 32.7901 58.6191 30.9562 58.4635C28.256 58.2532 25.766 59.944 23.8607 61.8704C23.4737 61.8367 22.8849 62.2405 22.5442 62.4256Z" fill="#DDDDDD"/>
<path d="M22.4769 62.3625L31.0235 65.3992C31.556 65.5355 32.0397 65.8182 32.4199 66.2152C32.6722 66.5931 32.8308 67.0256 32.8826 67.477C33.9805 73.1348 34.7836 78.8459 35.2884 84.587C37.9484 85.2419 40.7221 85.2864 43.4018 84.7174C43.5223 84.7087 43.6395 84.6742 43.7455 84.6161C43.8515 84.5581 43.9437 84.4779 44.0159 84.381C44.0728 84.2484 44.0973 84.1042 44.0874 83.9604C43.978 77.3275 43.2209 70.6021 40.7226 64.4571C40.374 63.4162 39.7846 62.4723 39.0023 61.7022C38.1611 60.9829 37.0844 60.6549 36.0581 60.2385C34.3757 59.5403 32.7227 58.5561 30.8889 58.4004C28.1887 58.1859 25.6987 59.8809 23.7934 61.8073C23.4064 61.761 22.8218 62.1816 22.4769 62.3625Z" fill="url(#paint1_linear)"/>
<path d="M15.701 69.0879H14.0312V88.3514H15.701V69.0879Z" fill="#DDDDDD"/>
<path d="M19.9996 88.5112H8.22696V90.8666H19.9996V88.5112Z" fill="#DDDDDD"/>
<path d="M67.3003 61.7568H65.6306V81.0203H67.3003V61.7568Z" fill="#DDDDDD"/>
<path d="M71.5947 81.1802H59.8221V83.5355H71.5947V81.1802Z" fill="#DDDDDD"/>
<path d="M60.5202 54.3332C60.322 54.7877 60.1657 55.2593 60.0534 55.7422C60.0005 55.9845 60.0202 56.237 60.1099 56.4681C60.1997 56.6993 60.3556 56.8988 60.5581 57.0419C60.7073 57.117 60.8707 57.16 61.0376 57.1681C61.2776 57.1809 61.5175 57.1404 61.7401 57.0495C61.9626 56.9586 62.1622 56.8196 62.3246 56.6423C62.6437 56.2324 62.847 55.7443 62.9135 55.2291C63.1522 54.0091 63.2131 52.761 63.0943 51.5236C63.0018 50.5604 62.026 49.4206 61.2563 50.51C60.5749 51.49 60.903 53.2102 60.5202 54.3332Z" fill="#3E3E54"/>
<path d="M57.0167 53.4584C55.9315 54.4426 57.5088 58.3247 58.3668 59.5108C59.2248 60.6969 59.8978 62.0344 61.311 62.4088C63.0513 62.8038 64.8266 63.025 66.6106 63.0691C70.4507 63.2794 74.3034 63.3888 78.1477 63.2331C79.8468 63.2069 81.5384 63.0025 83.1949 62.6233C84.2632 62.3499 85.4072 61.8536 85.8278 60.8357C86.219 59.8894 85.8278 58.7622 85.117 58.0345C84.3575 57.3429 83.4384 56.8501 82.442 56.6003C78.9384 55.5109 75.2329 55.431 71.5905 55.3721C69.7987 55.3469 67.986 55.3721 66.1984 55.1828C65.067 55.0693 63.9734 54.8127 62.8336 54.8926C61.3236 55.002 58.1986 52.3943 57.0167 53.4584Z" fill="#3E3E54"/>
<path d="M63.9061 60.0324C65.3109 60.9661 67.0017 60.9535 68.6126 60.924L77.8322 60.7348C78.8879 60.7137 79.9772 60.6843 80.9446 60.1754C82.5766 59.3342 83.5944 56.9662 83.0771 54.9347C82.9886 54.4667 82.744 54.0426 82.3831 53.7318C81.9933 53.5138 81.5408 53.4351 81.1002 53.5088C76.318 53.778 70.2277 52.1209 65.4455 52.39C64.3267 52.4531 62.6737 53.9421 61.8788 55.2669C60.9493 56.819 62.8462 59.33 63.9061 60.0324Z" fill="#3E3E54"/>
<path d="M68.4612 80.0992C68.4991 80.6628 68.6042 81.319 69.1258 81.5755C69.3621 81.6703 69.6159 81.7133 69.8702 81.7017L73.0415 81.7985C73.2223 81.8227 73.4059 81.7857 73.5631 81.6933C73.6952 81.5704 73.7763 81.4022 73.7902 81.2222C74.4968 77.4789 74.4674 59.2963 75.052 54.6613C75.3254 52.3985 73.2476 51.6624 70.5306 51.2208C68.1836 50.838 67.6536 52.3943 67.6999 54.287C67.8471 59.8515 67.7462 65.4119 67.9775 70.9764C68.0869 74.0188 68.2481 77.0597 68.4612 80.0992Z" fill="#3E3E54"/>
<path d="M77.0204 83.5734C77.0625 84.158 77.1634 84.8352 77.6892 85.117C77.9242 85.2168 78.1785 85.2628 78.4336 85.2516L81.6007 85.3483C81.7829 85.377 81.9694 85.3398 82.1265 85.2432C82.2566 85.1106 82.3355 84.9363 82.3494 84.7511C83.0602 80.8269 83.0308 61.7779 83.6112 56.9241C83.8846 54.5519 81.8068 53.778 79.094 53.3154C76.7428 52.9158 76.2129 54.5477 76.2633 56.5288C76.4105 62.3583 76.3096 68.1836 76.5367 74.0131C76.6489 77.2013 76.8101 80.388 77.0204 83.5734Z" fill="#3E3E54"/>
<path d="M133.036 44.5164C132.334 54.4089 126.727 63.8093 127.892 73.6598C128.22 76.4736 129.108 79.2622 128.851 82.0718C128.578 85.0413 128.767 88.0359 128.767 91.018C128.745 91.2793 128.787 91.5419 128.889 91.7835C129.029 92.0042 129.229 92.1806 129.465 92.2924C130.316 92.7495 131.304 92.8825 132.245 92.6668C133.002 87.5848 133.436 82.46 133.545 77.3232C133.579 75.6955 133.583 74.0426 134.024 72.4779C134.371 71.3878 134.823 70.3341 135.375 69.3318C136.777 66.5867 138.165 63.8346 139.539 61.0754L140.905 58.3541C141.326 57.5129 141.747 56.6717 142.167 55.8305C143.181 53.7023 144.102 51.4479 144.068 49.1009C144.043 47.4522 143.446 45.6983 142.083 44.7729C141.099 44.1042 139.862 43.9317 138.676 43.8939C137.002 43.8098 134.689 44.3103 133.036 44.5164Z" fill="#3E3E54"/>
<path d="M142.992 57.269C142.731 59.5907 142.176 61.8704 141.915 64.1921C141.73 65.8745 141.696 67.5569 141.675 69.2393C141.574 76.5297 141.64 83.8201 141.873 91.1106C141.873 91.6531 141.873 92.2546 141.532 92.6626C140.985 93.2809 139.993 93.0832 139.206 92.8476C138.786 86.6732 136.998 79.5356 136.59 73.3654C136.355 69.8534 134.676 66.3245 134.786 62.8083C134.895 59.4435 138.151 57.0293 139.433 53.9126C139.82 52.9663 141.33 49.7066 142.844 51.0988C143.896 52.0872 143.139 55.9609 142.992 57.269Z" fill="#3E3E54"/>
<path d="M128.548 95.5437C128.266 95.796 127.863 96.0148 127.854 96.3849C127.864 96.5502 127.918 96.7099 128.01 96.8476C128.071 97.0069 128.192 97.1364 128.346 97.2093C128.457 97.2385 128.573 97.2385 128.683 97.2093L130.365 96.8391C130.64 96.7941 130.904 96.697 131.143 96.5531C131.686 96.1662 131.736 95.3965 131.741 94.7319V93.6972C131.741 93.0159 131.72 92.1326 131.047 91.7457C130.836 91.6067 130.579 91.5562 130.331 91.605C130.083 91.6538 129.864 91.7979 129.722 92.0064C129.032 93.0621 129.596 94.5889 128.548 95.5437Z" fill="url(#paint2_linear)"/>
<path d="M126.231 96.57C126.066 96.6652 125.939 96.8135 125.869 96.9906C125.846 97.1024 125.856 97.2186 125.897 97.3252C125.938 97.4318 126.008 97.5244 126.1 97.592C126.286 97.725 126.501 97.8102 126.727 97.8402C127.217 97.9173 127.712 97.9525 128.208 97.9453L130.891 97.979C131.1 98.0067 131.312 97.959 131.488 97.8444C131.628 97.6974 131.71 97.5047 131.72 97.3018C131.775 96.9033 131.786 96.4999 131.753 96.0989C131.754 96.0629 131.747 96.0272 131.733 95.9939C131.719 95.9607 131.699 95.9305 131.673 95.9054C131.645 95.8884 131.614 95.8777 131.581 95.8741C131.548 95.8705 131.515 95.874 131.484 95.8844C130.618 96.0316 129.339 96.8349 128.54 96.2251C128.266 96.0148 128.119 95.8591 127.736 95.9138C127.193 96.0214 126.679 96.2452 126.231 96.57V96.57Z" fill="#3E3E54"/>
<path d="M136.855 95.6488C136.704 95.7372 136.548 95.8844 136.573 96.0695C136.599 96.2545 136.868 96.3639 137.086 96.3849C137.908 96.4707 138.738 96.4295 139.547 96.2629C139.889 96.2116 140.216 96.0868 140.506 95.897C141.091 95.4764 141.246 94.6688 141.313 93.9454C141.439 93.2858 141.335 92.6031 141.019 92.0106C140.388 91.0685 139.253 92.7425 139.093 93.3608C139.019 93.916 138.785 94.4377 138.42 94.8623C137.982 95.2619 137.356 95.3502 136.855 95.6488Z" fill="url(#paint3_linear)"/>
<path d="M139.45 94.5973C139.261 94.4754 139.097 94.2819 138.87 94.2693C138.703 94.2738 138.543 94.3313 138.411 94.4333C137.696 94.8539 136.994 95.3376 136.308 95.8255C136.094 95.9577 135.909 96.1306 135.762 96.3344C135.687 96.4359 135.642 96.5558 135.631 96.681C135.62 96.8063 135.643 96.9323 135.698 97.0452C135.796 97.1949 135.946 97.3029 136.119 97.3481C136.455 97.4259 136.805 97.4259 137.141 97.3481C138.689 97.0915 140.485 96.9275 141.949 96.3554C143.046 95.9348 142.474 94.6394 141.452 94.6268C140.775 94.6142 140.111 95.0179 139.45 94.5973Z" fill="#3E3E54"/>
<path d="M56.411 35.3095L56.2133 43.2252C56.104 47.5027 56.0114 51.9106 57.2354 55.9021C57.4353 56.7665 57.8571 57.5638 58.4593 58.2154C59.1086 58.7272 59.9168 58.9951 60.7432 58.9725C62.8462 59.0944 65.1258 58.7243 66.6316 56.9073C67.9649 55.3217 68.4654 52.9326 68.6883 50.6446C68.9225 47.4783 68.9464 44.3 68.7598 41.1306C68.6589 38.342 68.5075 35.3641 67.17 33.1392C66.545 32.1769 65.7842 31.3099 64.9113 30.5651C61.0376 26.9479 56.5792 29.1477 56.411 35.3095Z" fill="#3E3E54"/>
<path d="M79.5987 52.3774C106.793 52.3774 128.838 50.0593 128.838 47.1998C128.838 44.3403 106.793 42.0222 79.5987 42.0222C52.4044 42.0222 30.359 44.3403 30.359 47.1998C30.359 50.0593 52.4044 52.3774 79.5987 52.3774Z" fill="#DDDDDD"/>
<path d="M128.834 48.8023C128.834 51.6624 106.791 53.9799 79.5945 53.9799C52.3985 53.9799 30.3548 51.6666 30.3548 48.8023C30.3548 48.5289 30.5567 48.2597 30.9436 47.999C34.607 50.4805 54.9936 52.3774 79.5945 52.3774C104.195 52.3774 124.599 50.4805 128.25 47.999C128.637 48.2597 128.834 48.5289 128.834 48.8023Z" fill="#DDDDDD"/>
<path d="M128.834 48.8023C128.834 51.6624 106.791 53.9799 79.5945 53.9799C52.3985 53.9799 30.3548 51.6666 30.3548 48.8023C30.3548 48.5289 30.5567 48.2597 30.9436 47.999C34.607 50.4805 54.9936 52.3774 79.5945 52.3774C104.195 52.3774 124.599 50.4805 128.25 47.999C128.637 48.2597 128.834 48.5289 128.834 48.8023Z" fill="url(#paint4_linear)"/>
<path d="M128.25 47.999C124.586 50.4805 104.195 52.3774 79.5945 52.3774C54.9936 52.3774 34.5902 50.4805 30.9436 47.999C34.607 45.5216 54.9936 43.6247 79.5945 43.6247C104.195 43.6247 124.586 45.5216 128.25 47.999Z" fill="#DDDDDD"/>
<path d="M128.834 47.1998C128.834 47.4732 128.637 47.7382 128.25 47.999C124.586 50.4805 104.195 52.3774 79.5945 52.3774C54.9936 52.3774 34.5902 50.4805 30.9436 47.999C30.5567 47.7382 30.3548 47.4732 30.3548 47.1998C30.3548 44.3397 52.4027 42.018 79.5945 42.018C106.786 42.018 128.834 44.3397 128.834 47.1998Z" fill="url(#paint5_linear)"/>
<path d="M144.203 24.8659C144.695 25.7946 145.008 26.8077 145.124 27.8522C145.126 28.8175 144.933 29.7732 144.556 30.6618C143.768 32.6762 142.845 34.635 141.793 36.525C142.054 36.0329 141.65 34.422 141.612 33.8626C141.553 32.9345 141.499 32.0035 141.448 31.0698C141.344 29.1631 141.256 27.2549 141.183 25.3454C141.149 24.4411 140.561 21.6483 141.919 21.2866C143.055 20.9838 143.803 23.9827 144.203 24.8659Z" fill="url(#paint6_linear)"/>
<path d="M131.114 35.5954C131.258 34.5943 131.31 33.582 131.27 32.5713C131.274 31.7011 131.198 30.8324 131.042 29.9762C130.676 28.2349 129.705 26.6114 129.781 24.8197C129.848 22.8344 131.173 21.1436 132.439 19.6084C132.926 18.9706 133.482 18.3881 134.096 17.8713C134.72 17.3589 135.493 17.0636 136.3 17.0301C137.764 17.0301 139.341 16.5759 140.531 17.4297C141.721 18.2835 142.138 19.8608 142.365 21.3203C143.299 27.3643 142.453 33.5681 143.206 39.6374C143.496 41.9886 144.047 44.3061 144.253 46.6657C144.284 46.7942 144.286 46.9279 144.259 47.0573C144.232 47.1866 144.177 47.3085 144.098 47.4143C143.942 47.5334 143.751 47.5971 143.555 47.5952C139.869 47.976 136.147 47.8201 132.506 47.1325C132.368 47.1203 132.236 47.0643 132.132 46.9727C132.059 46.873 132.015 46.755 132.006 46.632C131.392 43.0317 130.508 39.179 131.114 35.5954Z" fill="#DDDDDD"/>
<path d="M26.4264 19.8355C26.5107 20.0852 26.5107 20.3556 26.4264 20.6052C26.2876 20.8954 25.9469 21.0258 25.7072 21.2403C25.1099 21.7745 25.2108 22.7251 24.908 23.4653C24.686 23.9555 24.2872 24.344 23.7913 24.5529C23.2954 24.7619 22.7389 24.776 22.233 24.5925C22.1046 24.5215 21.9589 24.488 21.8124 24.4958C21.6962 24.5342 21.5967 24.6115 21.5306 24.7145C21.11 25.2865 21.11 26.1445 20.6053 26.6324C20.3961 26.8058 20.142 26.9164 19.8726 26.9514C19.6031 26.9864 19.3292 26.9443 19.0827 26.8301C18.5921 26.5912 18.1933 26.1983 17.9471 25.7113C17.1059 24.2308 17.3204 22.418 17.5265 20.7398C17.7326 19.0616 17.9471 17.476 18.578 15.9702C18.744 15.5061 19.0179 15.088 19.3771 14.7505C19.9744 14.2457 20.8071 14.1658 21.5853 14.1196C22.338 14.0371 23.0991 14.0754 23.8397 14.2331C26.1278 14.8388 26.0058 17.9176 26.4264 19.8355Z" fill="url(#paint7_linear)"/>
<path d="M26.3086 12.7694C26.4641 12.853 26.5967 12.9733 26.695 13.12C26.7932 13.2666 26.8541 13.4351 26.8722 13.6106C26.8796 13.8672 26.816 14.1208 26.6884 14.3435C26.5607 14.5662 26.3739 14.7493 26.1488 14.8724C25.6927 15.1138 25.1843 15.2395 24.6682 15.2384C24.1557 15.236 23.6438 15.2739 23.1373 15.3519C22.6304 15.4344 22.1767 15.7141 21.8754 16.13C21.5053 16.7063 21.6105 17.4549 21.6147 18.1405C21.6304 18.3375 21.5926 18.5352 21.5053 18.7125C21.4609 18.8018 21.3861 18.8724 21.2945 18.9117C21.2028 18.951 21.1001 18.9564 21.0048 18.927C20.9034 18.8724 20.819 18.7909 20.7609 18.6915C20.6026 18.4193 20.4284 18.1567 20.2393 17.905C20.1464 17.7812 20.0274 17.6793 19.8908 17.6067C19.7541 17.534 19.6032 17.4922 19.4486 17.4844C19.3074 17.4957 19.1702 17.5363 19.0456 17.6036C18.921 17.671 18.8119 17.7636 18.7252 17.8755C18.5507 18.0679 18.4379 18.3082 18.4013 18.5653C18.3298 19.1289 18.6957 19.6505 19.0406 20.1005C18.6902 20.7405 18.1572 21.2617 17.5096 21.5978C17.3314 21.7075 17.1258 21.7644 16.9166 21.7619C16.5506 21.7282 16.2941 21.3918 16.0754 21.0889L14.5276 18.8093C14.2483 18.4572 14.0617 18.0407 13.985 17.5979C13.9753 17.1257 14.0884 16.6591 14.313 16.2436C14.6386 15.39 15.0909 14.5903 15.6548 13.8714C16.0812 13.2827 16.4528 12.6562 16.7651 11.9997C16.9274 11.6641 17.1583 11.3663 17.4431 11.1257C17.7279 10.8852 18.0601 10.7072 18.4181 10.6033C19.1836 10.4561 19.9365 10.8683 20.702 11.0239C21.4675 11.1796 22.2876 11.0912 23.0658 11.2427C24.1046 11.4614 25.3706 12.2815 26.3086 12.7694Z" fill="#3E3E54"/>
<path d="M19.3981 25.5473C19.9124 25.8625 20.3447 26.2948 20.6599 26.8091C21.1058 27.6503 20.9501 28.6597 20.7819 29.5893C18.9492 28.6277 17.3364 27.2957 16.0459 25.6777C15.5664 25.0426 15.7473 23.8817 16.7483 23.9448C17.6232 23.9911 18.742 25.0804 19.3981 25.5473Z" fill="white"/>
<path d="M20.1047 29.0088C20.4427 29.3755 20.7363 29.7807 20.9796 30.216C21.3161 30.8595 24.6935 41.7404 24.7902 42.4134C24.8575 43.0501 24.849 43.6925 24.765 44.3271L23.8144 54.6108C23.8154 54.797 23.7628 54.9794 23.663 55.1366C23.5479 55.2577 23.4028 55.3462 23.2424 55.3931L16.4834 57.9167C15.4843 58.3249 14.4493 58.6389 13.3919 58.8547C12.5787 58.9864 11.8078 59.3077 11.1417 59.7926C9.98087 60.6338 9.60653 63.1869 8.59709 63.2037C7.82739 61.0166 10.3173 52.1335 10.7464 50.5058C12.2605 44.7309 10.2795 38.67 10.1954 32.6975C10.1588 31.7095 10.2435 30.7207 10.4477 29.7533C10.9272 27.7092 12.4203 25.5473 14.3888 24.6598C15.0365 24.3738 14.9482 24.3402 15.6211 24.8281C16.1511 25.2192 16.6684 25.644 17.1689 26.0899C18.215 26.9926 19.196 27.968 20.1047 29.0088V29.0088Z" fill="#DDDDDD"/>
<path d="M13.1396 37.7868L19.2677 50.1945L19.3981 57.0167C19.3981 57.0167 23.7093 55.6329 23.9196 53.5257C24.1299 51.4185 24.3192 46.8802 24.3192 46.8802L14.6832 35.2632L13.1396 37.7868Z" fill="url(#paint8_linear)"/>
<path d="M12.6685 30.2959C12.3602 32.253 12.2195 34.2327 12.2479 36.2137C12.2393 36.6712 12.2902 37.1279 12.3993 37.5723C12.5917 38.1366 12.8759 38.6652 13.2405 39.1369C15.6027 42.5343 18.2782 45.7027 21.2319 48.6004C21.4835 48.8974 21.8126 49.1187 22.1825 49.2397C22.441 49.288 22.7063 49.288 22.9648 49.2397L33.7364 47.6667C33.8482 47.6822 33.9622 47.6692 34.0678 47.6291C34.1733 47.5889 34.267 47.5229 34.3404 47.437C34.4137 47.3511 34.4642 47.2482 34.4873 47.1376C34.5104 47.0271 34.5053 46.9125 34.4724 46.8045L34.1991 43.5406C30.7426 43.8525 27.2589 43.6326 23.8691 42.8887C23.4948 42.8358 23.1394 42.6913 22.8344 42.4681C22.5918 42.213 22.4092 41.9069 22.3003 41.5722C20.7777 38.0181 19.2761 34.4598 17.7409 30.9142C17.3203 29.9047 16.8535 28.7312 15.6379 28.4663C14.2542 28.1466 12.9082 28.87 12.6685 30.2959Z" fill="#DDDDDD"/>
<path d="M34.708 44.0243C35.0697 43.9612 35.5197 43.936 35.7258 44.2388C35.7985 44.3676 35.8403 44.5116 35.8478 44.6594C35.9025 45.08 35.9445 45.5342 35.9698 45.9759C36.0295 46.4043 35.9698 46.841 35.7973 47.2377C35.1412 47.2377 34.4808 47.2167 33.8247 47.1746C33.7316 47.1748 33.6401 47.1501 33.5597 47.1031C33.5005 47.0441 33.4559 46.9721 33.4293 46.8928C33.2148 46.3376 32.7522 45.2104 32.9709 44.6215C33.1896 44.0327 34.2243 44.0958 34.708 44.0243Z" fill="white"/>
<path d="M37.3073 43.4565C37.7198 43.1635 38.1792 42.943 38.6658 42.8045C39.3948 42.7088 40.1327 42.897 40.7268 43.3303C41.3366 43.7257 41.8666 44.2304 42.4849 44.6173C43.1032 45.0043 43.8476 45.2987 44.4028 45.8076C44.4423 45.8366 44.4756 45.873 44.5008 45.9149C44.5261 45.9567 44.5428 46.0032 44.55 46.0516C44.55 46.1862 44.4323 46.2829 44.3103 46.3418C43.5995 46.6909 42.7541 46.468 41.9844 46.2787C41.3661 46.1273 40.6763 46.0095 40.1337 46.3334C39.6711 46.6068 39.3977 47.1746 38.8719 47.3386C38.5463 47.4207 38.2045 47.4119 37.8835 47.3134C37.0067 47.1135 36.1505 46.8319 35.3263 46.4722C35.2003 46.4246 35.0846 46.3532 34.9856 46.2619C34.565 45.8413 34.6911 44.7267 35.2001 44.4112C35.4704 44.2776 35.7519 44.1678 36.0413 44.0832C36.4785 43.9064 36.9017 43.6969 37.3073 43.4565Z" fill="url(#paint9_linear)"/>
<path d="M34.0014 51.0609C34.4112 50.8025 34.9066 50.7167 35.3794 50.8223C35.8523 50.9279 36.2641 51.2163 36.525 51.6245C39.8765 55.3883 42.9202 59.4152 45.6268 63.6664C45.7071 63.7731 45.7618 63.8968 45.7866 64.0281C45.7773 64.1707 45.7344 64.3091 45.6613 64.4319C45.5882 64.5548 45.487 64.6585 45.366 64.7347L42.3461 67.5106C42.2112 67.6657 42.0241 67.7659 41.8204 67.7925C41.6521 67.7681 41.4952 67.6933 41.3703 67.5779L33.3284 61.4288C33.1376 61.2497 32.8972 61.1324 32.6386 61.0923C32.4555 61.0971 32.2758 61.1431 32.1129 61.2269C30.7375 61.8283 29.5052 62.7158 28.1424 63.3551C25.1351 64.7641 21.6946 64.8693 18.3719 64.8104C15.1122 64.7515 11.7979 64.5454 8.75271 63.3888C8.13022 63.1532 10.637 58.6486 11.8399 58.5392C13.8699 58.3511 15.8573 57.8429 17.7283 57.0335C19.1794 56.4026 20.5632 55.5614 22.0984 55.1366C23.07 54.8674 22.9858 53.8748 23.9406 53.5257C26.9689 52.4615 30.9562 52.0872 34.0014 51.0609Z" fill="#DDDDDD"/>
<path d="M34.0014 51.0609C34.4112 50.8025 34.9066 50.7167 35.3794 50.8223C35.8523 50.9279 36.2641 51.2163 36.525 51.6245C39.8765 55.3883 42.9202 59.4152 45.6268 63.6664C45.7071 63.7731 45.7618 63.8968 45.7866 64.0281C45.7773 64.1707 45.7344 64.3091 45.6613 64.4319C45.5882 64.5548 45.487 64.6585 45.366 64.7347L42.3461 67.5106C42.2112 67.6657 42.0241 67.7659 41.8204 67.7925C41.6521 67.7681 41.4952 67.6933 41.3703 67.5779L33.3284 61.4288C33.1376 61.2497 32.8972 61.1324 32.6386 61.0923C32.4555 61.0971 32.2758 61.1431 32.1129 61.2269C30.7375 61.8283 29.5052 62.7158 28.1424 63.3551C25.1351 64.7641 21.6946 64.8693 18.3719 64.8104C15.1122 64.7515 11.7979 64.5454 8.75271 63.3888C8.13022 63.1532 10.637 58.6486 11.8399 58.5392C13.8699 58.3511 15.8573 57.8429 17.7283 57.0335C19.1794 56.4026 20.5632 55.5614 22.0984 55.1366C23.07 54.8674 22.9858 53.8748 23.9406 53.5257C26.9689 52.4615 30.9562 52.0872 34.0014 51.0609Z" fill="url(#paint10_linear)"/>
<path d="M6.68335 38.2074C7.49932 40.4534 7.56241 42.8929 7.61288 45.2819L7.94095 60.6254C7.92462 61.0651 7.98876 61.5042 8.13022 61.9209C8.66438 63.2542 10.4309 63.4602 11.8652 63.4602H23.4317C24.744 63.4602 26.1235 63.4603 27.2718 64.108C28.42 64.7557 29.236 66.211 28.685 67.3929C28.0625 68.7514 26.2455 68.9449 24.7524 68.9449H5.6697C5.16103 68.9869 4.65004 68.8986 4.18498 68.6883C3.34378 68.2257 3.17975 67.1405 3.08721 66.1984L0.391162 38.7121C0.239746 37.1517 -0.0294391 33.5808 2.07357 33.3494C4.06721 33.1602 6.1576 36.7647 6.68335 38.2074Z" fill="#3E3E54"/>
<path d="M32.4367 35.6333C33.6173 33.9518 35.1042 32.5078 36.8194 31.3768L36.6049 32.9793C38.3727 32.0366 40.2773 31.3767 42.2494 31.0235C42.5942 30.9646 43.0485 30.973 43.1663 31.3011C43.2588 31.5619 43.0527 31.8227 42.8634 32.0245C41.8697 33.1442 40.7742 34.1692 39.5912 35.0865C38.3984 36.0051 36.9747 36.5757 35.4777 36.7353C34.9136 36.8055 34.3417 36.6982 33.8415 36.4282C33.5968 36.2865 33.4044 36.0695 33.2929 35.8095C33.1815 35.5496 33.1571 35.2606 33.2233 34.9856" fill="url(#paint11_linear)"/>
<path d="M62.3498 24.8449C61.8533 24.9685 61.3943 25.211 61.0123 25.5515C60.6599 26.0108 60.4507 26.5638 60.4109 27.1414L57.9125 42.5732C57.7989 43.2756 57.698 44.0411 58.0807 44.651C58.535 45.3786 59.5066 45.6142 60.3856 45.7614C63.2711 46.2504 66.1952 46.4757 69.1215 46.4343C69.2695 46.447 69.4175 46.41 69.5421 46.3292C69.6482 46.2149 69.7069 46.0645 69.7061 45.9086C69.8402 44.7569 69.8161 43.5923 69.6346 42.4471L64.2215 41.7657C63.7546 41.7068 63.7757 41.7657 63.5654 41.3661C63.4741 41.1558 63.4407 40.9249 63.4686 40.6974C63.5612 38.5186 63.4434 36.1927 64.2173 34.1402C64.8819 36.2053 65.2898 40.1253 65.3277 42.283C70.56 42.0643 75.7586 41.9045 80.9951 42.14C80.9471 39.0136 81.1355 35.8881 81.5587 32.7901L83.6154 37.1769C83.9812 37.8195 84.1861 38.541 84.2127 39.2799C84.179 40.18 83.6154 41.0549 83.8215 41.9339L90.467 41.7194L89.5711 37.1475C89.3488 35.6402 88.833 34.1912 88.0528 32.8826L84.8057 26.8049C84.5663 26.2858 84.2391 25.812 83.8383 25.4043C83.4457 25.078 83.0043 24.8155 82.5303 24.6262C79.1227 23.1148 75.4478 22.2983 71.7208 22.2246C68.5453 22.1825 65.2772 23.8523 62.3498 24.8449Z" fill="#DDDDDD"/>
<path d="M73.0752 40.5165C75.2455 38.4387 75.8764 35.3473 76.4021 32.4536L77.3317 27.3391C77.597 26.1292 77.7254 24.8932 77.7144 23.6546C77.7214 23.521 77.6795 23.3895 77.5966 23.2845C77.4664 23.1875 77.3034 23.1452 77.1424 23.1667C74.7366 23.1667 70.8839 22.2498 70.4801 25.3412C70.0946 28.6227 70.3402 31.9477 71.2035 35.137C71.3507 35.6838 73.235 40.3483 73.0752 40.5165Z" fill="white"/>
<path d="M71.3003 21.804C71.2103 22.241 71.189 22.6894 71.2372 23.1331C71.3025 23.4499 71.4282 23.7512 71.6073 24.0205C71.7983 24.3748 72.0625 24.6843 72.3823 24.9287C72.7021 25.1731 73.0702 25.3467 73.4621 25.4379C74.1519 25.5389 74.8333 25.2234 75.481 24.8996C75.7781 24.7761 76.0428 24.5862 76.2549 24.3444C76.5177 23.9751 76.6641 23.5357 76.6755 23.0826C76.7041 22.4803 76.6675 21.8768 76.5662 21.2824L76.2718 19.0742C76.265 18.9792 76.2362 18.8871 76.1876 18.8051C76.1334 18.744 76.0585 18.7051 75.9773 18.6957C74.8543 18.4265 73.3065 17.9302 72.1709 18.334C71.0353 18.7378 71.4517 20.702 71.3003 21.804Z" fill="url(#paint12_linear)"/>
<path d="M76.2634 19.0995C76.2634 19.0995 74.3917 22.8849 72.5116 22.5526C70.6315 22.2203 71.4475 19.3645 71.4475 19.3645L76.2634 19.0995Z" fill="url(#paint13_linear)"/>
<path d="M77.0709 15.0365C77.319 14.6622 77.6976 14.2373 78.1434 14.3509C78.236 14.3875 78.3204 14.4421 78.3917 14.5115C78.4631 14.5809 78.52 14.6637 78.5591 14.7553C78.5982 14.8468 78.6188 14.9452 78.6196 15.0447C78.6205 15.1442 78.6016 15.2429 78.564 15.3351C78.3926 15.6989 78.1656 16.0338 77.8911 16.3277C77.0835 17.4045 76.9405 18.8892 75.9437 19.8103C75.1475 20.4546 74.1451 20.7893 73.1214 20.7525C72.7163 20.7761 72.3102 20.7262 71.9227 20.6052C71.0142 20.2856 70.4675 19.4023 70.1436 18.5359C69.7857 17.5215 69.5678 16.4631 69.4959 15.3898C69.3783 14.4369 69.4526 13.4702 69.7146 12.5465C69.856 12.0796 70.098 11.6494 70.4235 11.2861C70.7491 10.9228 71.1503 10.6352 71.5989 10.4435C73.0499 9.88413 74.7744 10.6833 75.6745 11.9072C76.5746 13.1312 76.8396 14.6706 77.0246 16.1595" fill="url(#paint14_linear)"/>
<path d="M69.5043 13.3036C69.5043 13.4676 69.4159 13.6359 69.5043 13.7831C69.5502 13.8552 69.6202 13.9087 69.7018 13.9341C69.7834 13.9595 69.8714 13.9552 69.9501 13.9219C70.1063 13.8489 70.2378 13.732 70.3286 13.5854C70.6988 13.0807 70.9722 12.4919 71.4769 12.1091C71.9816 11.7264 72.848 11.6885 73.1929 12.1848C73.2142 12.2248 73.2444 12.2594 73.2813 12.2858C73.3437 12.3086 73.4123 12.3086 73.4747 12.2858C73.8672 12.1886 74.2784 12.1974 74.6664 12.3112C75.0543 12.425 75.4051 12.6397 75.6829 12.9335C76.2105 13.5209 76.4987 14.2848 76.4904 15.0743C76.4904 15.3099 76.7849 16.1385 77.0204 16.067C77.0877 16.0459 77.1087 15.3688 77.155 15.3183C77.319 15.1332 77.3274 15.0743 77.4915 14.8977C77.5402 14.8304 77.6053 14.7768 77.6807 14.7421C77.8616 14.6748 78.0467 14.8178 78.2401 14.8598C78.4118 14.8802 78.5852 14.8383 78.7287 14.7419C78.8722 14.6454 78.9764 14.5007 79.0225 14.3341C79.0945 14.0037 79.08 13.6604 78.9804 13.3373C78.8805 13.0152 78.8704 12.672 78.951 12.3446C79.1108 11.8652 79.6449 11.5034 79.6281 11.0113C79.6133 10.8638 79.5689 10.7208 79.4977 10.5907C79.2381 10.046 78.8568 9.56823 78.3831 9.19434C78.2233 8.8432 78.009 8.51955 77.748 8.23537C77.6128 8.09092 77.4472 7.97827 77.2632 7.90553C77.0792 7.8328 76.8814 7.8018 76.6839 7.81477C76.5073 7.84001 76.3348 7.91151 76.1582 7.92413C75.4558 7.97039 74.8964 7.12919 74.2066 7.28061C73.9837 7.33108 73.786 7.4825 73.5715 7.52035C73.1719 7.59185 72.7934 7.29743 72.3896 7.30584C71.9858 7.31425 71.6746 7.60447 71.3128 7.76009C70.9511 7.91571 70.4296 7.98722 70.2529 8.34893C70.1772 8.50035 70.1562 8.69803 70.0006 8.76954C69.8755 8.80497 69.743 8.80497 69.6178 8.76954C69.4333 8.7496 69.2468 8.77788 69.0765 8.8516C68.9062 8.92532 68.758 9.04197 68.6462 9.19014C68.1538 9.91076 67.9318 10.7822 68.0196 11.6507C68.0124 11.858 68.0629 12.0633 68.1654 12.2437C68.2678 12.4241 68.4183 12.5726 68.6 12.6727C68.8986 12.8031 69.479 12.8536 69.5043 13.3036Z" fill="#3E3E54"/>
<path d="M73.5547 24.6935C72.9776 24.8568 72.489 25.2426 72.1961 25.766C71.9209 26.2769 71.7171 26.8232 71.5905 27.3895C71.6367 27.2129 71.1699 26.5231 71.0816 26.3296C70.9133 25.9427 70.7661 25.5473 70.6231 25.1519C70.438 24.6346 69.8576 23.6167 70.131 23.0784C70.7829 21.804 73.071 24.1803 73.5547 24.6935Z" fill="white"/>
<path d="M74.3412 24.8575C75.2371 25.2024 75.7712 26.0688 76.5241 26.6493C76.5619 26.6796 76.6067 26.6999 76.6545 26.7082C76.7066 26.7034 76.7555 26.6812 76.7933 26.6451C77.2384 26.2699 77.5692 25.7774 77.7481 25.2234C77.9499 24.6809 78.2275 22.5652 77.0456 23.07C76.6035 23.3302 76.188 23.6331 75.8049 23.9743C75.3361 24.2993 74.8472 24.5943 74.3412 24.8575V24.8575Z" fill="white"/>
<path d="M73.1509 32.2391C73.0169 30.7873 73.0536 29.3248 73.2602 27.8816C73.3184 27.6049 73.3269 27.3201 73.2855 27.0404C73.1677 26.4726 72.6167 26.0142 72.6336 25.4379C72.6588 24.6809 73.6262 24.2518 74.3832 24.4706C74.5663 24.5251 74.7355 24.6182 74.8797 24.7434C75.0239 24.8687 75.1397 25.0233 75.2193 25.1969C75.2989 25.3705 75.3406 25.5591 75.3415 25.7501C75.3424 25.9411 75.3025 26.13 75.2244 26.3044C75.1277 26.4852 74.9847 26.6493 74.9048 26.8385C74.7921 27.2609 74.8385 27.7099 75.0352 28.1003C75.4305 29.2065 75.91 34.9688 75.8764 35.444C75.8764 35.7973 75.1277 37.3872 75.0057 37.7195C74.2823 39.6627 73.4285 40.3314 73.0836 40.4912C72.8144 38.1106 73.378 34.6491 73.1509 32.2391Z" fill="#DDDDDD"/>
<path d="M73.1509 32.2391C73.0169 30.7873 73.0536 29.3248 73.2602 27.8816C73.3184 27.6049 73.3269 27.3201 73.2855 27.0404C73.1677 26.4726 72.6167 26.0142 72.6336 25.4379C72.6588 24.6809 73.6262 24.2518 74.3832 24.4706C74.5663 24.5251 74.7355 24.6182 74.8797 24.7434C75.0239 24.8687 75.1397 25.0233 75.2193 25.1969C75.2989 25.3705 75.3406 25.5591 75.3415 25.7501C75.3424 25.9411 75.3025 26.13 75.2244 26.3044C75.1277 26.4852 74.9847 26.6493 74.9048 26.8385C74.7921 27.2609 74.8385 27.7099 75.0352 28.1003C75.4305 29.2065 75.91 34.9688 75.8764 35.444C75.8764 35.7973 75.1277 37.3872 75.0057 37.7195C74.2823 39.6627 73.4285 40.3314 73.0836 40.4912C72.8144 38.1106 73.378 34.6491 73.1509 32.2391Z" fill="url(#paint15_linear)"/>
<path d="M70.8881 42.9349C70.9638 42.9224 71.0415 42.928 71.1146 42.9514C71.1878 42.9748 71.2543 43.0153 71.3087 43.0695C71.3444 43.1295 71.3646 43.1975 71.3675 43.2672C71.4391 43.9058 71.4221 44.5512 71.3171 45.1852C71.3029 45.3827 71.2195 45.5688 71.0815 45.7109C70.8766 45.8406 70.6309 45.89 70.3917 45.8497L69.3991 45.8118C69.3263 45.8135 69.2542 45.7976 69.1888 45.7656C69.123 45.7194 69.0743 45.6529 69.05 45.5763C68.8019 45.0001 68.5327 43.9444 68.8271 43.3429C69.1215 42.7415 70.3245 42.9265 70.8881 42.9349Z" fill="white"/>
<path d="M73.7481 42.9097C73.7601 43.0029 73.7406 43.0975 73.6925 43.1783C73.6445 43.2591 73.5708 43.3215 73.4832 43.3555C73.8325 43.5252 74.2106 43.628 74.5978 43.6584C75.3526 43.7811 76.0844 44.0179 76.768 44.3608C77.2602 44.6089 77.7649 44.9664 77.8532 45.488C77.8741 45.5537 77.8741 45.6242 77.8532 45.6899C77.8204 45.744 77.7758 45.79 77.7228 45.8245C77.2061 46.095 76.6194 46.2021 76.0404 46.1315C74.358 46.1021 72.5831 46.1021 70.9932 45.4838C70.8652 45.4418 70.7476 45.373 70.6483 45.2819C70.5573 45.176 70.4988 45.046 70.4801 44.9076C70.3413 44.243 70.4801 43.7215 71.1068 43.4313C71.9343 43.0531 72.839 42.8744 73.7481 42.9097V42.9097Z" fill="url(#paint16_linear)"/>
<path d="M68.478 85.1969C68.6236 85.4897 68.837 85.7435 69.1005 85.9372C69.7664 86.5798 70.5356 87.1059 71.376 87.4934C72.4401 87.914 73.6262 87.914 74.7786 87.8845C75.1992 87.8845 75.6703 87.8341 75.8848 87.4976C76.0993 87.1611 75.9184 86.7279 75.7208 86.383C74.9384 85.016 73.8996 83.7374 73.5505 82.2148C73.4369 81.7354 73.378 81.2012 72.9953 80.8689C72.1541 80.1497 70.0258 80.4105 69.336 81.2475C69.029 81.6979 68.8303 82.2132 68.7556 82.7532C68.6084 83.4514 68.1878 84.4987 68.478 85.1969Z" fill="#3E3E54"/>
<path d="M77.8322 85.4997C78.2275 85.689 78.6313 85.8657 79.0393 86.0255C79.1454 86.0811 79.2686 86.0946 79.3842 86.0634C79.4636 86.0205 79.5281 85.9544 79.5692 85.8741L80.1202 85.0329C81.1381 86.1559 82.8878 86.2947 84.444 86.2652C85.1843 86.2652 85.9203 86.2358 86.6564 86.2021C86.9802 86.2021 87.3756 86.118 87.4976 85.8236C87.6195 85.5292 87.3462 85.2768 87.1064 85.1002C85.8194 84.1538 84.0192 83.893 82.9761 82.7069C82.5555 82.2191 82.2611 81.5881 81.7143 81.2475C81.1928 80.9889 80.6131 80.8701 80.0319 80.9026C79.0898 80.8773 78.0383 80.7848 77.9289 81.8279C77.8046 83.0477 77.7723 84.2751 77.8322 85.4997V85.4997Z" fill="#3E3E54"/>
<path d="M83.8384 43.5743L87.7416 28.1508H104.435L98.9758 43.242L98.816 44.9286L78.3243 45.488V44.2052L83.8384 43.5743Z" fill="#3E3E54"/>
<path d="M130.95 10.616C130.723 10.9146 130.407 11.2342 130.504 11.596C130.576 11.882 130.87 12.0166 131.063 12.2521C131.534 12.7821 131.383 13.6317 131.732 14.2457C131.883 14.4725 132.08 14.6648 132.311 14.8098C132.541 14.9548 132.8 15.0493 133.07 15.087C133.612 15.1599 134.159 15.1908 134.706 15.1795C134.896 15.1647 135.088 15.1895 135.268 15.2525C135.448 15.3155 135.613 15.4152 135.753 15.5454C136.174 16.0333 135.913 16.9754 136.493 17.2488C136.644 17.3103 136.807 17.3348 136.969 17.3203C137.598 17.3164 138.226 17.2686 138.849 17.1773C139.071 17.166 139.285 17.0851 139.459 16.946C139.626 16.7456 139.715 16.4919 139.711 16.231C139.986 13.2744 139.528 10.2956 138.378 7.55819C138.192 7.05908 137.92 6.59642 137.574 6.19124C137.153 5.76999 136.639 5.45312 136.073 5.26592C135.399 5.0149 134.689 4.87292 133.97 4.84532C133.362 4.77745 132.75 4.92641 132.241 5.26592C130.626 6.55716 132.178 9.00086 130.95 10.616Z" fill="url(#paint17_linear)"/>
<path d="M129.772 4.30694C129.761 4.62446 129.804 4.94155 129.898 5.24488C130.142 5.94728 130.824 6.43098 131.076 7.13338C131.265 6.51874 131.67 5.99304 132.216 5.65286C132.332 6.01355 132.562 6.3266 132.872 6.54454C132.999 6.61395 133.11 6.71009 133.196 6.82634C133.263 6.98868 133.282 7.16671 133.251 7.33947C133.241 7.71157 133.325 8.0801 133.496 8.41095C133.666 8.74179 133.918 9.02425 134.226 9.23218C134.491 9.40462 134.794 9.51398 135.068 9.69484C135.472 10.0139 135.809 10.4098 136.06 10.8599C136.72 11.8778 137.398 12.9629 137.507 14.1574C137.583 14.9986 137.372 15.8819 137.621 16.681C137.797 17.2006 138.145 17.6444 138.608 17.939C139.07 18.2335 139.62 18.361 140.165 18.3003C140.206 18.9315 140.407 19.5419 140.75 20.0739C141.092 20.6059 141.564 21.042 142.121 21.3413C142.684 21.6304 143.309 21.7794 143.943 21.7757C144.576 21.7721 145.199 21.6158 145.759 21.3202C146.275 21.0706 146.692 20.6561 146.945 20.1426C147.106 19.7191 147.172 19.2653 147.139 18.8135C147.101 17.4087 146.663 15.945 145.604 15.0281C145.465 14.9272 145.347 14.8018 145.254 14.6579C145.065 14.3004 145.254 13.8798 145.435 13.5097C145.816 12.5824 145.902 11.5604 145.683 10.5823C145.463 9.60418 144.948 8.7173 144.207 8.04188C144.011 7.89834 143.844 7.71843 143.715 7.51192C143.631 7.30652 143.591 7.08594 143.597 6.8642C143.538 5.45939 143.471 3.97887 142.727 2.78016C141.993 1.70441 140.888 0.938651 139.623 0.630891C138.366 0.33107 137.071 0.227496 135.783 0.323851C133.196 0.429001 129.776 1.1314 129.772 4.30694Z" fill="#999999"/>
<path d="M128.052 27.0026C127.711 27.3176 127.314 27.5671 126.883 27.7386C126.42 27.8718 125.937 27.9217 125.457 27.8858C121.528 27.7933 117.465 26.8512 114.437 24.3654C113.844 23.8817 113.251 23.3181 112.494 23.2046L113.192 24.664H110.349C110.044 24.6407 109.739 24.6897 109.457 24.807C109.318 24.8691 109.205 24.9766 109.135 25.112C109.065 25.2473 109.044 25.4024 109.074 25.5515C109.148 25.7221 109.269 25.868 109.424 25.9721C110.265 26.6535 111.152 27.3391 112.212 27.5325C112.738 27.6293 113.28 27.5956 113.815 27.6461C115.026 27.7639 116.145 28.3149 117.247 28.8322C119.257 29.7799 121.297 30.659 123.366 31.4694C124.393 31.89 125.499 32.2643 126.576 32.0161C127.113 31.8675 127.625 31.6393 128.094 31.339C131.038 29.6566 134.029 27.9531 136.342 25.48C137.242 24.5168 138.066 23.377 138.113 22.0395C138.151 20.9627 137.457 19.7346 136.363 19.4528C135.269 19.171 134.26 20.3613 133.499 21.0973C131.589 22.9943 130.109 25.2739 128.052 27.0026Z" fill="url(#paint18_linear)"/>
<path d="M32.2054 34.136C32.0431 34.1445 31.8861 34.1968 31.7511 34.2874C31.6695 34.3681 31.6061 34.4655 31.5655 34.5729C31.5248 34.6804 31.5078 34.7953 31.5156 34.9099C31.5318 35.4471 31.6623 35.9748 31.8983 36.4577C32.0318 36.7999 32.2369 37.1096 32.4998 37.3662C32.6318 37.4938 32.7941 37.5858 32.9714 37.6336C33.1487 37.6814 33.3352 37.6835 33.5135 37.6396C33.8823 37.4755 34.1722 37.1736 34.321 36.7984C34.3655 36.7295 34.3889 36.6491 34.3883 36.567C34.3883 36.4324 34.2621 36.3399 34.1654 36.2474C33.5261 35.6501 33.9845 35.0318 33.6733 34.4136C33.362 33.7953 32.7648 34.0603 32.2054 34.136Z" fill="white"/>
<path d="M81.9751 88.5112H70.2025V90.8666H81.9751V88.5112Z" fill="#DDDDDD"/>
<path d="M77.1634 53.9967H74.8459V89.8908H77.1634V53.9967Z" fill="#DDDDDD"/>
<path d="M77.563 15.6632C77.5713 15.6343 77.5713 15.6037 77.563 15.5748C77.5203 15.4379 77.5203 15.2912 77.563 15.1542C77.5941 15.1 77.6391 15.055 77.6934 15.0239C77.7748 14.974 77.8673 14.945 77.9626 14.9397C77.9888 14.933 78.0163 14.933 78.0425 14.9397C78.0734 14.9587 78.096 14.9888 78.1056 15.0239C78.1601 15.1819 78.1601 15.3537 78.1056 15.5118C78.0465 15.6962 77.9458 15.8646 77.8112 16.0039C77.7039 16.1276 77.5535 16.2058 77.3905 16.2226C77.3697 16.2266 77.3483 16.2266 77.3275 16.2226C77.3096 16.2123 77.2961 16.1958 77.2896 16.1763C77.2597 16.1338 77.2437 16.0831 77.2437 16.0312C77.2437 15.9793 77.2597 15.9286 77.2896 15.8861C77.3779 15.8146 77.5167 15.7725 77.563 15.6632Z" fill="url(#paint19_linear)"/>
</g>
<defs>
<linearGradient id="paint0_linear" x1="30.5482" y1="33.8626" x2="20.5085" y2="51.818" gradientUnits="userSpaceOnUse">
<stop stop-opacity="0"/>
<stop offset="0.99"/>
</linearGradient>
<linearGradient id="paint1_linear" x1="3238.65" y1="8080.23" x2="1569.28" y2="6347.16" gradientUnits="userSpaceOnUse">
<stop stop-opacity="0"/>
<stop offset="0.99"/>
</linearGradient>
<linearGradient id="paint2_linear" x1="127.854" y1="94.4081" x2="131.728" y2="94.4081" gradientUnits="userSpaceOnUse">
<stop stop-color="#E5C5D5"/>
<stop offset="0.42" stop-color="#EAD4D1"/>
<stop offset="1" stop-color="#F0E9CB"/>
</linearGradient>
<linearGradient id="paint3_linear" x1="1855.82" y1="1575.84" x2="1910.29" y2="1575.84" gradientUnits="userSpaceOnUse">
<stop stop-color="#E5C5D5"/>
<stop offset="0.42" stop-color="#EAD4D1"/>
<stop offset="1" stop-color="#F0E9CB"/>
</linearGradient>
<linearGradient id="paint4_linear" x1="10474.1" y1="1324.27" x2="33532.1" y2="1324.27" gradientUnits="userSpaceOnUse">
<stop stop-opacity="0"/>
<stop offset="0.99"/>
</linearGradient>
<linearGradient id="paint5_linear" x1="21876.1" y1="2385.94" x2="21880.1" y2="1741.63" gradientUnits="userSpaceOnUse">
<stop stop-opacity="0"/>
<stop offset="0.99"/>
</linearGradient>
<linearGradient id="paint6_linear" x1="1653.21" y1="2476.25" x2="1693.35" y2="2476.25" gradientUnits="userSpaceOnUse">
<stop stop-color="#E5C5D5"/>
<stop offset="0.42" stop-color="#EAD4D1"/>
<stop offset="1" stop-color="#F0E9CB"/>
</linearGradient>
<linearGradient id="paint7_linear" x1="704.194" y1="1830.37" x2="903.562" y2="1830.37" gradientUnits="userSpaceOnUse">
<stop stop-color="#E5C5D5"/>
<stop offset="0.42" stop-color="#EAD4D1"/>
<stop offset="1" stop-color="#F0E9CB"/>
</linearGradient>
<linearGradient id="paint8_linear" x1="756.469" y1="4505.38" x2="1257.39" y2="4389.49" gradientUnits="userSpaceOnUse">
<stop stop-opacity="0"/>
<stop offset="0.99"/>
</linearGradient>
<linearGradient id="paint9_linear" x1="1178.75" y1="962.571" x2="1407.2" y2="962.571" gradientUnits="userSpaceOnUse">
<stop stop-color="#E5C5D5"/>
<stop offset="0.42" stop-color="#EAD4D1"/>
<stop offset="1" stop-color="#F0E9CB"/>
</linearGradient>
<linearGradient id="paint10_linear" x1="4404.67" y1="4321.19" x2="3296.67" y2="2567.88" gradientUnits="userSpaceOnUse">
<stop stop-opacity="0"/>
<stop offset="0.99"/>
</linearGradient>
<linearGradient id="paint11_linear" x1="1226.38" y1="1025.83" x2="1501.21" y2="1025.83" gradientUnits="userSpaceOnUse">
<stop stop-color="#E5C5D5"/>
<stop offset="0.42" stop-color="#EAD4D1"/>
<stop offset="1" stop-color="#F0E9CB"/>
</linearGradient>
<linearGradient id="paint12_linear" x1="71.2035" y1="21.8334" x2="76.6839" y2="21.8334" gradientUnits="userSpaceOnUse">
<stop stop-color="#867580"/>
<stop offset="0.57" stop-color="#9B8F8E"/>
</linearGradient>
<linearGradient id="paint13_linear" x1="1103.53" y1="535.756" x2="1115.54" y2="466.18" gradientUnits="userSpaceOnUse">
<stop stop-opacity="0"/>
<stop offset="0.99"/>
</linearGradient>
<linearGradient id="paint14_linear" x1="1895.85" y1="1364.53" x2="2095.65" y2="1364.53" gradientUnits="userSpaceOnUse">
<stop stop-color="#867580"/>
<stop offset="0.57" stop-color="#9B8F8E"/>
</linearGradient>
<linearGradient id="paint15_linear" x1="734.198" y1="2510.99" x2="1073.07" y2="2681.48" gradientUnits="userSpaceOnUse">
<stop stop-opacity="0"/>
<stop offset="0.99"/>
</linearGradient>
<linearGradient id="paint16_linear" x1="1568.15" y1="685.905" x2="1699.35" y2="685.905" gradientUnits="userSpaceOnUse">
<stop stop-color="#867580"/>
<stop offset="0.57" stop-color="#9B8F8E"/>
</linearGradient>
<linearGradient id="paint17_linear" x1="3331.72" y1="1485.75" x2="3537.77" y2="1485.75" gradientUnits="userSpaceOnUse">
<stop stop-color="#E5C5D5"/>
<stop offset="0.42" stop-color="#EAD4D1"/>
<stop offset="1" stop-color="#F0E9CB"/>
</linearGradient>
<linearGradient id="paint18_linear" x1="8625.45" y1="1965.83" x2="10633" y2="1965.83" gradientUnits="userSpaceOnUse">
<stop stop-color="#E5C5D5"/>
<stop offset="0.42" stop-color="#EAD4D1"/>
<stop offset="1" stop-color="#F0E9CB"/>
</linearGradient>
<linearGradient id="paint19_linear" x1="276.943" y1="182.05" x2="270.081" y2="181.689" gradientUnits="userSpaceOnUse">
<stop stop-opacity="0"/>
<stop offset="0.99"/>
</linearGradient>
<clipPath id="clip0">
<rect width="147.98" height="98" fill="white"/>
</clipPath>
</defs>
</svg>
