<svg width="122" height="95" viewBox="0 0 122 95" fill="none" xmlns="http://www.w3.org/2000/svg">
<path opacity="0.03" d="M25.0343 1.57408V5.44713C25.0345 5.516 25.0211 5.58422 24.9949 5.64788C24.9686 5.71155 24.9301 5.76942 24.8814 5.81817C24.8328 5.86692 24.775 5.90561 24.7114 5.932C24.6478 5.95839 24.5796 5.97197 24.5107 5.97197H17.4204C18.9381 4.22283 20.5722 2.57818 22.3116 1.04924H24.512C24.5808 1.04941 24.6488 1.06312 24.7123 1.08958C24.7758 1.11605 24.8334 1.15475 24.8819 1.20349C24.9304 1.25223 24.9688 1.31003 24.995 1.37362C25.0211 1.43721 25.0345 1.50532 25.0343 1.57408V1.57408Z" stroke="white" stroke-miterlimit="10"/>
<path d="M111.799 1.56645V59.7479C111.799 60.1543 111.637 60.5441 111.35 60.8315C111.063 61.1188 110.673 61.2803 110.266 61.2803H6.37746C5.97102 61.2803 5.58122 61.1188 5.29383 60.8315C5.00643 60.5441 4.84497 60.1543 4.84497 59.7479V19.0878C5.3558 18.9997 5.86663 18.9346 6.37746 18.8924C6.78357 18.8592 7.19309 18.8401 7.60601 18.835C7.68136 18.835 7.75415 18.835 7.8295 18.835C8.28414 18.835 8.73622 18.8567 9.18448 18.8911C9.23173 18.7813 9.28281 18.6715 9.33006 18.5617C9.50885 18.1684 9.69403 17.7776 9.88048 17.392C9.88087 17.3886 9.88087 17.3852 9.88048 17.3818C9.91241 17.3154 9.94434 17.2541 9.97754 17.1838C10.1282 16.8697 10.2853 16.5581 10.4462 16.2491C10.5203 16.1061 10.5931 15.9643 10.6684 15.8226C10.685 15.7894 10.7016 15.7575 10.7208 15.7243C10.7974 15.5774 10.8753 15.4318 10.9545 15.2863C11.3487 14.5601 11.7586 13.845 12.1843 13.1409C12.2214 13.0809 12.2558 13.0209 12.2929 12.9622C12.3593 12.8536 12.4206 12.7451 12.4947 12.6378C12.6709 12.3518 12.8522 12.067 13.0349 11.7848C13.1626 11.5856 13.2903 11.3864 13.4282 11.1897C13.7602 10.6917 14.1008 10.2001 14.4499 9.71482C14.7989 9.22957 15.1616 8.74432 15.5379 8.25907C15.589 8.19267 15.6401 8.13137 15.6937 8.06114L16.239 7.3754L16.3144 7.28219L16.5123 7.04084C16.8048 6.68456 17.1049 6.33212 17.4063 5.9835C18.924 4.23436 20.5581 2.58971 22.2975 1.06077C22.3652 0.998201 22.4342 0.933075 22.5018 0.879442C22.8262 0.597231 23.1557 0.31885 23.4852 0.045578H89.6633C89.9621 0.291608 90.2567 0.54147 90.547 0.795162C90.8995 0.533808 91.2579 0.283946 91.6223 0.045578H110.268C110.672 0.0459035 111.06 0.20592 111.346 0.490778C111.633 0.775635 111.796 1.16226 111.799 1.56645V1.56645Z" fill="white"/>
<path d="M105.673 11.182V12.6301H12.5037C12.6799 12.3441 12.8612 12.0593 13.0451 11.7771C13.1728 11.5779 13.3006 11.3787 13.4372 11.182H105.673Z" fill="#3F3D56"/>
<path d="M85.6892 59.2537V4.10762H84.241V59.2537H85.6892Z" fill="#3F3D56"/>
<path d="M59.0454 59.2537V4.10762H57.5972V59.2537H59.0454Z" fill="#3F3D56"/>
<path d="M32.4019 59.2537V4.10762H30.9536L30.9536 59.2537H32.4019Z" fill="#3F3D56"/>
<path d="M15.7742 15.7165V21.4195H9.88428V17.3843C9.88428 17.3843 9.88428 17.3779 9.88428 17.374C9.9162 17.3076 9.94813 17.2464 9.98134 17.1761C10.1333 16.862 10.2891 16.5504 10.4513 16.2414C10.5241 16.0984 10.5969 15.9566 10.6722 15.8149C10.6888 15.7817 10.7067 15.7497 10.7246 15.7165H15.7742Z" fill="url(#paint0_linear)"/>
<path d="M15.6734 15.8149V21.3212H9.98657V17.1723C10.1385 16.8582 10.2943 16.5466 10.4565 16.2375C10.5293 16.0945 10.6021 15.9528 10.6775 15.811L15.6734 15.8149Z" fill="#7CFCFF"/>
<path d="M39.6314 13.9786H33.7402V19.6816H39.6314V13.9786Z" fill="url(#paint1_linear)"/>
<path d="M39.5304 14.0769H33.8423V19.5832H39.5304V14.0769Z" fill="#7CFCFF"/>
<path d="M66.2393 25.0512H60.3481V30.7542H66.2393V25.0512Z" fill="url(#paint2_linear)"/>
<path d="M66.1383 25.1496H60.4502V30.6559H66.1383V25.1496Z" fill="#7CFCFF"/>
<path d="M93.3899 28.8285H87.4988V34.5315H93.3899V28.8285Z" fill="url(#paint3_linear)"/>
<path d="M93.2877 28.9268H87.5996V34.4332H93.2877V28.9268Z" fill="#7CFCFF"/>
<path d="M100.664 32.5202H94.7729V38.2232H100.664V32.5202Z" fill="url(#paint4_linear)"/>
<path d="M100.563 32.6186H94.875V38.1249H100.563V32.6186Z" fill="#7CFCFF"/>
<path d="M109.788 22.6556H103.896V28.3586H109.788V22.6556Z" fill="url(#paint5_linear)"/>
<path d="M109.685 22.7539H103.997V28.2602H109.685V22.7539Z" fill="#7CFCFF"/>
<path d="M107.941 30.6571H102.05V36.3601H107.941V30.6571Z" fill="url(#paint6_linear)"/>
<path d="M107.839 30.7554H102.151V36.2618H107.839V30.7554Z" fill="#7CFCFF"/>
<path d="M47.6678 13.9786H41.7766V19.6816H47.6678V13.9786Z" fill="url(#paint7_linear)"/>
<path d="M47.567 14.0769H41.8789V19.5832H47.567V14.0769Z" fill="#7CFCFF"/>
<path d="M20.1419 27.8044H14.2507V33.5074H20.1419V27.8044Z" fill="url(#paint8_linear)"/>
<path d="M20.0399 27.9027H14.3518V33.409H20.0399V27.9027Z" fill="#FFFFA5"/>
<path d="M43.8829 22.1998H37.9917V27.9027H43.8829V22.1998Z" fill="url(#paint9_linear)"/>
<path d="M43.7818 22.2981H38.0938V27.8044H43.7818V22.2981Z" fill="#FFFFA5"/>
<path d="M74.5889 18.7915H68.6978V24.4945H74.5889V18.7915Z" fill="url(#paint10_linear)"/>
<path d="M74.4867 18.8898H68.7986V24.3961H74.4867V18.8898Z" fill="#FFFFA5"/>
<path d="M105.671 14.792H99.7803V20.495H105.671V14.792Z" fill="url(#paint11_linear)"/>
<path d="M105.571 14.8904H99.8826V20.3967H105.571V14.8904Z" fill="#FFFFA5"/>
<path d="M82.3609 13.9786H76.4697V19.6816H82.3609V13.9786Z" fill="url(#paint12_linear)"/>
<path d="M82.2589 14.0769H76.5708V19.5832H82.2589V14.0769Z" fill="#FFFFA5"/>
<path d="M82.0264 25.0512H76.1353V30.7542H82.0264V25.0512Z" fill="url(#paint13_linear)"/>
<path d="M81.9257 25.1496H76.2375V30.6559H81.9257V25.1496Z" fill="#FFFFA5"/>
<path d="M55.5782 16.733H49.687V22.436H55.5782V16.733Z" fill="url(#paint14_linear)"/>
<path d="M55.4774 16.8301H49.7893V22.3364H55.4774V16.8301Z" fill="#FFFFA5"/>
<path d="M24.2769 18.568H18.3857V24.271H24.2769V18.568Z" fill="url(#paint15_linear)"/>
<path d="M24.1761 18.6664H18.488V24.1727H24.1761V18.6664Z" fill="#FF69B4"/>
<path d="M27.2232 25.0512H21.332V30.7542H27.2232V25.0512Z" fill="url(#paint16_linear)"/>
<path d="M27.1212 25.1496H21.4331V30.6559H27.1212V25.1496Z" fill="#FF69B4"/>
<path d="M51.6587 25.977H45.7676V31.68H51.6587V25.977Z" fill="url(#paint17_linear)"/>
<path d="M51.5565 26.0754H45.8684V31.5817H51.5565V26.0754Z" fill="#FF69B4"/>
<path d="M94.773 14.792H88.8818V20.495H94.773V14.792Z" fill="url(#paint18_linear)"/>
<path d="M94.672 14.8904H88.9839V20.3967H94.672V14.8904Z" fill="#FF69B4"/>
<path d="M99.9861 22.6556H94.095V28.3586H99.9861V22.6556Z" fill="url(#paint19_linear)"/>
<path d="M99.8851 22.7539H94.197V28.2602H99.8851V22.7539Z" fill="#FF69B4"/>
<path d="M66.7537 13.9786H60.8625V19.6816H66.7537V13.9786Z" fill="url(#paint20_linear)"/>
<path d="M66.6529 14.0769H60.9648V19.5832H66.6529V14.0769Z" fill="#FF69B4"/>
<path d="M73.9221 30.6571H68.031V36.3601H73.9221V30.6571Z" fill="url(#paint21_linear)"/>
<path d="M73.8202 30.7554H68.1321V36.2618H73.8202V30.7554Z" fill="#FF69B4"/>
<path d="M90.2662 27.1838C90.2496 27.8312 90.0299 28.4607 89.9954 29.1069C91.911 29.2014 93.7871 28.2756 95.6759 28.5591C95.1484 28.2181 94.8662 27.6013 94.7002 26.9948C94.4879 26.2125 94.4246 25.3972 94.5137 24.5915C94.5185 24.5485 94.5262 24.5058 94.5367 24.4638C94.607 24.1471 94.7921 23.6976 94.7398 23.4486C94.6759 23.1192 94.3643 23.1843 94.0846 23.2034C93.2307 23.2688 92.3807 23.3783 91.5381 23.5316C91.3185 23.5699 89.1794 24.1037 89.1475 24.0488C89.4999 24.6579 89.8588 25.2913 90.0733 25.9553C90.2062 26.3511 90.2714 26.7664 90.2662 27.1838V27.1838Z" fill="#EE8E9E"/>
<path d="M71.3922 25.1815C71.5561 25.4055 71.7529 25.6035 71.9758 25.7689C72.1201 25.8876 72.2682 26.009 72.424 26.1175C72.7012 26.3297 73.0311 26.4622 73.378 26.5006C73.8327 26.5312 74.7981 26.2644 75.0804 25.8749C75.1994 25.6793 75.2559 25.4521 75.2426 25.2236C75.2378 24.9135 75.1852 24.606 75.0868 24.3119C74.9094 23.8338 74.661 23.3852 74.3499 22.9813C74.0217 22.5241 73.6564 22.0746 73.1673 21.7975C73.0044 21.7104 72.8364 21.6332 72.6641 21.5664L71.7702 21.2012C71.7193 21.177 71.6642 21.1627 71.608 21.159C71.3692 21.159 71.3258 21.5255 71.4611 21.7222C71.7319 22.1193 72.341 22.2329 72.5122 22.6799C72.3675 22.6833 72.2276 22.7326 72.1128 22.8208C71.998 22.9089 71.9142 23.0313 71.8736 23.1702C71.8669 23.244 71.837 23.3138 71.7881 23.3695C71.7102 23.432 71.5876 23.3963 71.4982 23.4435C71.3411 23.5278 71.41 23.7628 71.3934 23.9415C71.3781 24.0999 71.2785 24.2365 71.23 24.3885C71.1969 24.5244 71.1944 24.666 71.2224 24.8031C71.2504 24.9402 71.3084 25.0694 71.3922 25.1815V25.1815Z" fill="#EE8E9E"/>
<path d="M97.6999 90.1539C97.553 90.007 97.3168 90.0326 97.1073 90.0645C96.006 90.2385 94.893 90.3285 93.778 90.3339C93.6388 89.652 94.0436 88.9893 94.1739 88.3061C94.191 88.1305 94.2341 87.9583 94.3016 87.7953C94.4574 87.4939 94.8124 87.356 95.1445 87.2845C95.7447 87.1568 96.677 86.9346 97.0179 87.5399C97.4253 88.2691 97.5543 89.3443 97.6999 90.1539Z" fill="#65617D"/>
<path d="M85.5027 87.5795C85.9548 87.8885 86.5167 87.9843 87.0608 88.0545C87.6048 88.1248 88.1642 88.1759 88.6571 88.4185C89.0824 88.6279 89.4399 88.9727 89.8908 89.1234C90.2994 89.26 90.7464 89.223 91.1678 89.1438C91.6787 89.0493 92.2125 88.8641 92.4858 88.4274C92.7297 88.0443 92.7029 87.5476 92.6697 87.0904C92.6301 86.5796 92.5931 86.0561 92.5547 85.5389C92.5559 85.4076 92.5229 85.2782 92.459 85.1635C92.0924 84.631 91.2036 85.3869 90.7285 85.3857C89.9738 85.3857 89.1641 84.977 88.6213 84.4765C88.5742 84.4253 88.519 84.3821 88.4579 84.3488C88.2421 84.2517 88.0275 84.4305 87.8359 84.5863C87.8155 84.6042 87.7938 84.6208 87.7721 84.6374C87.3315 84.9873 86.7415 85.0575 86.1975 85.1992C85.6534 85.341 85.0698 85.6257 84.9012 86.1621C84.8903 86.1959 84.8818 86.2305 84.8757 86.2655C84.7786 86.7674 85.08 87.2896 85.5027 87.5795Z" fill="#3F3D56"/>
<path opacity="0.05" d="M85.5027 87.5795C85.9548 87.8885 86.5167 87.9843 87.0608 88.0545C87.6048 88.1248 88.1642 88.1759 88.6571 88.4185C89.0824 88.6279 89.4399 88.9727 89.8908 89.1234C90.2994 89.26 90.7464 89.223 91.1678 89.1438C91.6787 89.0493 92.2125 88.8641 92.4858 88.4274C92.7297 88.0443 92.7029 87.5476 92.6697 87.0904C92.6301 86.5796 92.5931 86.0561 92.5547 85.5389C92.5559 85.4076 92.5229 85.2782 92.459 85.1635C92.0924 84.631 91.2036 85.3869 90.7285 85.3857C89.9738 85.3857 89.1641 84.977 88.6213 84.4765C88.5742 84.4253 88.519 84.3821 88.4579 84.3488C88.2421 84.2517 88.0275 84.4305 87.8359 84.5863C87.8155 84.6042 87.7938 84.6208 87.7721 84.6374C87.3315 84.9873 86.7415 85.0575 86.1975 85.1992C85.6534 85.341 85.0698 85.6257 84.9012 86.1621C84.8903 86.1959 84.8818 86.2305 84.8757 86.2655C84.7786 86.7674 85.08 87.2896 85.5027 87.5795Z" fill="black"/>
<path d="M85.5026 87.7532C85.9547 88.0622 86.5166 88.158 87.0606 88.2282C87.6046 88.2984 88.164 88.3495 88.6569 88.5921C89.0822 88.8028 89.4398 89.1463 89.8906 89.297C90.2993 89.4337 90.7462 89.3966 91.1677 89.3175C91.7067 89.2026 92.1796 88.8819 92.4856 88.4236C92.7295 88.0405 92.7027 87.5437 92.6695 87.0866C92.6299 86.5758 92.5929 86.0522 92.5546 85.5351C92.5558 85.4037 92.5227 85.2744 92.4588 85.1596C92.0923 84.6271 91.2034 85.3831 90.7284 85.3818C89.9736 85.3818 89.1639 84.9732 88.6212 84.4726C88.574 84.4214 88.5188 84.3783 88.4577 84.3449C88.2419 84.2479 88.0274 84.4267 87.8358 84.5824C87.9619 84.9692 88.1402 85.337 88.3658 85.6755C88.7489 86.2361 89.3517 86.6652 90.026 86.715C90.3631 86.7393 90.7092 86.6729 91.0349 86.7597C91.3605 86.8465 91.6645 87.1798 91.5457 87.4965C91.4269 87.8132 91.0349 87.8796 90.7054 87.8911C90.2443 87.9153 89.7718 87.9383 89.3351 87.7953C89.0682 87.7059 88.8242 87.5591 88.5688 87.4505C87.4642 86.9921 86.0683 87.2488 85.1552 86.4749C85.069 86.3956 84.9759 86.3242 84.8768 86.2617C84.638 86.7673 85.0799 87.4633 85.5026 87.7532Z" fill="#E8EAF2"/>
<path opacity="0.05" d="M85.5026 87.7532C85.9547 88.0622 86.5166 88.158 87.0606 88.2282C87.6046 88.2984 88.164 88.3495 88.6569 88.5921C89.0822 88.8028 89.4398 89.1463 89.8906 89.297C90.2993 89.4337 90.7462 89.3966 91.1677 89.3175C91.7067 89.2026 92.1796 88.8819 92.4856 88.4236C92.7295 88.0405 92.7027 87.5437 92.6695 87.0866C92.6299 86.5758 92.5929 86.0522 92.5546 85.5351C92.5558 85.4037 92.5227 85.2744 92.4588 85.1596C92.0923 84.6271 91.2034 85.3831 90.7284 85.3818C89.9736 85.3818 89.1639 84.9732 88.6212 84.4726C88.574 84.4214 88.5188 84.3783 88.4577 84.3449C88.2419 84.2479 88.0274 84.4267 87.8358 84.5824C87.9619 84.9692 88.1402 85.337 88.3658 85.6755C88.7489 86.2361 89.3517 86.6652 90.026 86.715C90.3631 86.7393 90.7092 86.6729 91.0349 86.7597C91.3605 86.8465 91.6645 87.1798 91.5457 87.4965C91.4269 87.8132 91.0349 87.8796 90.7054 87.8911C90.2443 87.9153 89.7718 87.9383 89.3351 87.7953C89.0682 87.7059 88.8242 87.5591 88.5688 87.4505C87.4642 86.9921 86.0683 87.2488 85.1552 86.4749C85.069 86.3956 84.9759 86.3242 84.8768 86.2617C84.638 86.7673 85.0799 87.4633 85.5026 87.7532Z" fill="black"/>
<path d="M97.4946 53.9402C97.8469 55.669 97.5126 57.467 96.5623 58.9536C96.3069 59.3546 96.0004 59.7313 95.8063 60.1667C95.6788 60.4781 95.5796 60.8004 95.51 61.1296L94.6723 64.6017C94.4449 65.5389 94.2176 66.4941 94.2891 67.4557C94.3364 68.1261 94.505 68.8795 94.0925 69.4095C93.9908 69.5102 93.9047 69.6255 93.8371 69.7517C93.7974 69.8998 93.7974 70.0557 93.8371 70.2037C94.261 72.7245 94.5765 75.3589 93.8102 77.7979C93.1155 80.0083 93.0746 82.4576 92.4846 84.6935C92.4118 84.9719 92.3276 85.2644 92.1168 85.4597C91.9587 85.5904 91.7696 85.6784 91.5677 85.7151C90.6967 85.9233 89.7798 85.6794 88.965 85.3039C88.3942 85.0396 87.7799 84.5761 87.8284 83.9491C87.8527 83.6503 88.0264 83.3885 88.1451 83.1139C88.3763 82.5751 88.4006 81.9736 88.458 81.39C88.6151 79.9241 89.0672 78.5104 89.4082 77.0764C89.7491 75.6424 89.9816 74.1458 89.6929 72.7002C89.1046 69.7119 88.1614 66.8045 86.8834 64.0398C86.8282 63.8945 86.7409 63.7635 86.628 63.6567C86.513 63.5622 86.3611 63.5188 86.2627 63.4013C86.1644 63.2838 86.135 63.105 86.0967 62.948C85.969 62.4908 85.5923 62.1537 85.3394 61.7514C84.7009 60.7375 84.9026 59.4376 84.9269 58.2398C84.9499 57.0739 84.7826 55.8978 84.9729 54.7485C85.1632 53.5993 85.8221 52.4244 86.9306 52.0669C87.4798 51.8894 88.0736 51.929 88.6483 51.9864C91.6801 52.2891 94.6352 52.8471 97.4946 53.9402Z" fill="#303D5C"/>
<path opacity="0.05" d="M97.4946 53.9402C97.8469 55.669 97.5126 57.467 96.5623 58.9536C96.3069 59.3546 96.0004 59.7313 95.8063 60.1667C95.6788 60.4781 95.5796 60.8004 95.51 61.1296L94.6723 64.6017C94.4449 65.5389 94.2176 66.4941 94.2891 67.4557C94.3364 68.1261 94.505 68.8795 94.0925 69.4095C93.9908 69.5102 93.9047 69.6255 93.8371 69.7517C93.7974 69.8998 93.7974 70.0557 93.8371 70.2037C94.261 72.7245 94.5765 75.3589 93.8102 77.7979C93.1155 80.0083 93.0746 82.4576 92.4846 84.6935C92.4118 84.9719 92.3276 85.2644 92.1168 85.4597C91.9587 85.5904 91.7696 85.6784 91.5677 85.7151C90.6967 85.9233 89.7798 85.6794 88.965 85.3039C88.3942 85.0396 87.7799 84.5761 87.8284 83.9491C87.8527 83.6503 88.0264 83.3885 88.1451 83.1139C88.3763 82.5751 88.4006 81.9736 88.458 81.39C88.6151 79.9241 89.0672 78.5104 89.4082 77.0764C89.7491 75.6424 89.9816 74.1458 89.6929 72.7002C89.1046 69.7119 88.1614 66.8045 86.8834 64.0398C86.8282 63.8945 86.7409 63.7635 86.628 63.6567C86.513 63.5622 86.3611 63.5188 86.2627 63.4013C86.1644 63.2838 86.135 63.105 86.0967 62.948C85.969 62.4908 85.5923 62.1537 85.3394 61.7514C84.7009 60.7375 84.9026 59.4376 84.9269 58.2398C84.9499 57.0739 84.7826 55.8978 84.9729 54.7485C85.1632 53.5993 85.8221 52.4244 86.9306 52.0669C87.4798 51.8894 88.0736 51.929 88.6483 51.9864C91.6801 52.2891 94.6352 52.8471 97.4946 53.9402Z" fill="black"/>
<path d="M85.0966 61.2483C85.1062 61.7007 85.1575 62.1513 85.2498 62.5942C85.7862 65.6036 86.3579 68.6062 86.9649 71.602C87.0186 71.8574 87.0709 72.1217 87.1412 72.3771C87.3676 73.2107 87.7632 73.9888 88.3033 74.6629C90.8319 77.8145 91.0503 82.3924 92.4232 86.194C92.5151 86.4494 92.6083 86.7048 92.7067 86.9602C92.954 87.6048 93.2367 88.2353 93.5534 88.8488C93.5898 88.9384 93.6498 89.0165 93.727 89.0748C93.8124 89.1176 93.9078 89.1361 94.0029 89.1285C95.239 89.1368 96.4604 88.8602 97.5723 88.3201C97.7323 88.2624 97.8675 88.1515 97.9555 88.006C97.9974 87.89 98.011 87.7657 97.995 87.6433C97.9567 86.8899 97.9108 86.111 97.5519 85.4469C97.3129 85.0507 97.0169 84.6919 96.6733 84.382C96.566 82.017 96.3323 79.6469 95.8125 77.3369C95.5456 76.1557 95.2148 74.9617 94.5354 73.9631C94.0246 73.2263 93.3043 72.4997 93.3937 71.6097C93.4333 71.2266 93.5968 70.7337 93.2788 70.5038C93.1396 70.4029 92.934 70.3902 92.8408 70.2484C92.8031 70.1811 92.7821 70.1058 92.7795 70.0288C92.7138 69.4185 92.7518 68.8016 92.8918 68.204C92.9838 67.8081 93.1217 67.4199 93.1639 67.0151C93.206 66.6103 93.1345 66.1698 92.865 65.8658C92.8484 65.0537 92.865 64.2058 92.8535 63.4013C92.8459 62.9377 92.8369 62.4678 92.9672 62.0247C93.0298 61.8115 93.123 61.6084 93.1702 61.3862C93.3401 60.6073 92.9148 59.6725 93.4257 59.0545C93.6364 58.7991 93.9608 58.6714 94.2353 58.4849C94.7857 58.1172 95.1459 57.517 95.3464 56.8875C95.5469 56.2579 95.6018 55.5913 95.6618 54.9311C95.6765 54.7906 95.6765 54.649 95.6618 54.5084C95.6534 54.4359 95.6344 54.3649 95.6056 54.2977C95.4485 53.9453 95.0271 53.8087 94.6517 53.718C92.2677 53.1461 89.8239 52.8606 87.3723 52.8675C86.4656 52.2495 85.9548 52.4704 85.5704 53.1229C85.3588 53.5225 85.1877 53.9421 85.0595 54.3756C84.8833 54.9056 84.8731 57.8758 84.7019 58.4083C84.4631 59.1055 85.1055 60.5204 85.0966 61.2483Z" fill="#303D5C"/>
<path d="M101.493 34.225C101.561 34.6924 101.336 35.1521 101.31 35.6233C101.289 36.0345 101.42 36.4367 101.495 36.8428C101.788 38.4263 101.226 40.0289 100.653 41.5331C100.544 41.7758 100.477 42.0347 100.453 42.2993C100.438 42.7909 100.72 43.2404 100.798 43.7257C100.96 44.7473 100.209 45.7037 100.193 46.7368C100.193 47.2118 100.336 47.6958 100.217 48.1555C100.138 48.4633 99.9463 48.7263 99.8097 49.0136C99.5683 49.5244 99.5045 50.0978 99.2733 50.6098C98.8583 51.5369 97.9643 52.1422 97.1151 52.6977C96.6311 52.5368 96.1075 52.3453 95.838 51.9098C95.7216 51.6955 95.6466 51.4611 95.6171 51.219C95.4332 50.1629 95.4396 49.0851 95.4459 48.0138C95.4327 47.0954 95.4831 46.1772 95.5966 45.2657C95.7678 44.1011 96.1458 42.9787 96.4165 41.8332C96.7588 40.389 96.9273 38.8962 97.4663 37.5107C97.9337 36.2924 98.6629 35.1994 99.4304 34.1535C99.7229 33.7538 99.954 33.183 100.522 33.275C100.762 33.3154 100.983 33.4282 101.156 33.598C101.33 33.7678 101.447 33.9866 101.493 34.225V34.225Z" fill="#E5E5E5"/>
<path opacity="0.05" d="M101.493 34.225C101.561 34.6924 101.336 35.1521 101.31 35.6233C101.289 36.0345 101.42 36.4367 101.495 36.8428C101.788 38.4263 101.226 40.0289 100.653 41.5331C100.544 41.7758 100.477 42.0347 100.453 42.2993C100.438 42.7909 100.72 43.2404 100.798 43.7257C100.96 44.7473 100.209 45.7037 100.193 46.7368C100.193 47.2118 100.336 47.6958 100.217 48.1555C100.138 48.4633 99.9463 48.7263 99.8097 49.0136C99.5683 49.5244 99.5045 50.0978 99.2733 50.6098C98.8583 51.5369 97.9643 52.1422 97.1151 52.6977C96.6311 52.5368 96.1075 52.3453 95.838 51.9098C95.7216 51.6955 95.6466 51.4611 95.6171 51.219C95.4332 50.1629 95.4396 49.0851 95.4459 48.0138C95.4327 47.0954 95.4831 46.1772 95.5966 45.2657C95.7678 44.1011 96.1458 42.9787 96.4165 41.8332C96.7588 40.389 96.9273 38.8962 97.4663 37.5107C97.9337 36.2924 98.6629 35.1994 99.4304 34.1535C99.7229 33.7538 99.954 33.183 100.522 33.275C100.762 33.3154 100.983 33.4282 101.156 33.598C101.33 33.7678 101.447 33.9866 101.493 34.225V34.225Z" fill="black"/>
<path opacity="0.1" d="M89.1438 24.0437C89.4963 24.6528 89.8551 25.2862 90.0697 25.9502C90.4136 26.035 90.7665 26.0779 91.1207 26.0779C92.4961 26.0779 93.4705 25.2951 94.2789 24.3068C94.3492 23.9888 94.7898 23.6938 94.7361 23.4435C94.6723 23.1141 94.3607 23.1792 94.081 23.1984C93.227 23.2637 92.3771 23.3732 91.5345 23.5265C91.3148 23.5649 89.1796 24.0986 89.1438 24.0437Z" fill="black"/>
<path d="M91.1245 25.9579C93.5585 25.9579 95.5317 23.9849 95.5317 21.551C95.5317 19.1172 93.5585 17.1442 91.1245 17.1442C88.6905 17.1442 86.7173 19.1172 86.7173 21.551C86.7173 23.9849 88.6905 25.9579 91.1245 25.9579Z" fill="#EE8E9E"/>
<path opacity="0.1" d="M85.5549 53.1268C86.3212 53.0821 87.0874 53.1127 87.8537 53.1434C88.3323 53.1481 88.8094 53.1973 89.2789 53.2902C89.8574 53.4179 90.3989 53.6848 90.9697 53.8495C91.8841 54.1164 92.8496 54.1279 93.7959 54.2211C94.4178 54.2819 95.0357 54.3787 95.6464 54.511C95.6379 54.4384 95.619 54.3675 95.5902 54.3003C95.4331 53.9479 95.0117 53.8112 94.6362 53.7206C92.2522 53.1487 89.8085 52.8632 87.3569 52.8701C86.4502 52.252 85.9393 52.473 85.5549 53.1268Z" fill="black"/>
<path d="M88.5588 28.766C88.7516 28.9882 89.0096 29.2333 89.2944 29.1618C89.3972 29.1261 89.4937 29.0744 89.5804 29.0086C90.0913 28.6804 90.7119 28.6038 91.3096 28.5144C92.5144 28.3328 93.7047 28.0652 94.8714 27.7137C95.2099 27.5902 95.565 27.5179 95.9249 27.4992C96.672 27.4992 97.3297 27.9998 97.8023 28.5821C98.2748 29.1644 98.6017 29.845 99.0614 30.4337C99.3884 30.8538 99.7779 31.2241 100.083 31.6596C100.849 32.7591 101.02 34.1944 100.821 35.5237C100.622 36.853 100.091 38.1045 99.5646 39.3418C99.2632 40.0506 98.9593 40.7631 98.543 41.4093C98.7205 42.4193 98.6272 43.5737 98.1471 44.474C97.99 44.769 97.7984 45.0563 97.7473 45.387C97.7231 45.6102 97.7321 45.8357 97.7742 46.0562L97.9989 47.6511C98.0666 48.1376 98.1356 48.6229 98.2237 49.1056C98.3859 49.9892 98.6068 50.9483 98.1969 51.7476C97.7065 52.7041 98.2211 53.9313 98.0921 54.9988C96.7133 54.4658 95.2685 54.1221 93.7973 53.9772C92.8497 53.884 91.8817 53.8725 90.9712 53.6069C90.4003 53.4409 89.8601 53.1778 89.2803 53.045C88.8103 52.953 88.3328 52.9043 87.8538 52.8995C86.7977 52.8573 85.7339 52.8152 84.6892 52.971C84.6037 52.9837 84.5015 52.9901 84.4504 52.9212C84.4275 52.8827 84.4164 52.8383 84.4185 52.7935C84.4023 52.4018 84.4961 52.0134 84.6892 51.6723C84.8169 51.4373 85.0072 51.2062 85.0021 50.9368C84.9926 50.8107 84.9615 50.6871 84.9102 50.5715L84.4479 49.3354C84.0558 48.2934 84.2423 47.0816 84.0392 45.9872C83.8806 45.1312 83.7791 44.2657 83.7353 43.3962C83.6969 42.653 83.7212 41.8473 84.1695 41.2535C84.3007 41.1105 84.4143 40.9523 84.5079 40.7823C84.5725 40.6019 84.5999 40.4104 84.5883 40.2191C84.5986 38.7327 84.556 37.2468 84.4606 35.7612C84.8527 35.0589 85.2601 34.3399 85.6509 33.6376C86.1055 32.8204 86.5678 31.9865 86.7517 31.0696C86.8794 30.4618 86.8692 29.8373 86.956 29.2244C86.9646 29.0684 87.0188 28.9183 87.1118 28.7928C87.2613 28.6242 87.5128 28.6 87.7389 28.6063C88.0187 28.6175 88.2952 28.6713 88.5588 28.766V28.766Z" fill="#E5E5E5"/>
<path opacity="0.1" d="M72.4229 26.1175C72.7 26.3297 73.0299 26.4622 73.3768 26.5006C73.8315 26.5312 74.7969 26.2643 75.0792 25.8749C75.1982 25.6793 75.2547 25.4521 75.2414 25.2236C75.1801 25.2036 75.1166 25.1911 75.0524 25.1866C74.5581 25.1572 74.0537 25.1278 73.5735 25.2466C73.0933 25.3653 72.6285 25.6565 72.4241 26.1085L72.4229 26.1175Z" fill="black"/>
<path d="M87.0876 35.6501C86.8181 35.9834 86.5397 36.3282 86.1592 36.5248C85.7211 36.7521 85.2052 36.7573 84.7122 36.747C82.681 36.7037 80.6575 36.4815 78.6653 36.083C78.4384 36.044 78.2157 35.9842 77.9999 35.9042C77.7606 35.7902 77.5349 35.6497 77.3269 35.4854C76.6717 35.0142 76.0064 34.534 75.507 33.8981C74.9144 33.1307 74.5418 32.2165 74.4292 31.2535C73.9541 30.8168 73.7025 30.1949 73.465 29.5934C73.3482 29.3387 73.274 29.0665 73.2453 28.7877C73.2326 28.5029 73.4216 28.2041 73.3731 27.9232C73.2817 27.4396 73.0367 26.9985 72.6745 26.6653C72.5971 26.6108 72.5387 26.5336 72.5072 26.4444C72.4978 26.37 72.5121 26.2945 72.5481 26.2286C72.7498 25.7766 73.2147 25.4854 73.6974 25.3667C74.1802 25.2479 74.6821 25.2785 75.1763 25.3079C75.3551 25.3194 75.4853 25.4024 75.6603 25.4356L76.0051 26.3435C76.0518 26.4953 76.1287 26.636 76.2312 26.7573C76.3079 26.8267 76.3894 26.8907 76.4751 26.9488C76.6497 27.0976 76.7853 27.2869 76.8699 27.5002C76.9545 27.7134 76.9855 27.9441 76.9604 28.1722C77.2719 28.293 77.5257 28.5279 77.6702 28.8291C77.8147 29.1304 77.839 29.4754 77.7381 29.7939C77.9974 29.8497 78.238 29.971 78.437 30.1463C78.636 30.3215 78.7867 30.5449 78.8747 30.7951C78.8992 30.909 78.95 31.0157 79.0228 31.1066C79.136 31.1947 79.2767 31.24 79.42 31.2343C79.8031 31.2586 80.1492 31.5651 80.503 31.3991C80.9022 31.2118 81.3485 31.149 81.7839 31.219C81.8737 31.2404 81.9663 31.2486 82.0585 31.2433C82.1371 31.2295 82.213 31.2032 82.2832 31.1654C82.4425 31.073 82.6147 31.005 82.7941 30.9636C82.8843 30.9449 82.9779 30.9527 83.0638 30.986C83.1497 31.0193 83.2241 31.0767 83.2781 31.1513C83.4058 31.016 83.476 30.8423 83.5884 30.698C83.6382 30.6206 83.7085 30.5586 83.7915 30.5189C83.8745 30.4792 83.9669 30.4634 84.0584 30.4733C83.9409 30.3686 84.0584 30.1604 84.2129 30.1221C84.3674 30.0838 84.5258 30.14 84.6829 30.14C85.0903 30.14 85.4031 29.7671 85.799 29.6701C86.163 29.5819 86.6483 29.6879 86.8347 29.3623C86.9011 29.2474 86.9139 29.0916 87.0263 29.0214C87.1022 28.9835 87.1888 28.9731 87.2715 28.992C87.5303 29.0266 87.7817 29.103 88.016 29.218C88.3992 30.7108 88.1974 32.261 87.9062 33.7742C87.767 34.4932 87.5474 35.0755 87.0876 35.6501Z" fill="#E5E5E5"/>
<path opacity="0.1" d="M87.1003 40.9994L88.998 44.8303C88.7924 44.4766 88.3595 44.3386 88.0185 44.1126C87.5842 43.7999 87.2572 43.3606 87.0824 42.8548C86.9072 42.3504 86.7848 41.8291 86.7172 41.2994C86.6788 41.0568 86.5984 40.7159 86.7172 40.4962C86.9381 40.5409 87.0096 40.8193 87.1003 40.9994Z" fill="black"/>
<path opacity="0.1" d="M92.5597 44.2442C92.9875 44.6681 93.5124 44.9797 93.9836 45.3551C95.0845 46.2311 95.8686 47.434 96.6348 48.614C96.8512 48.9243 97.0328 49.2574 97.1763 49.6074C97.0869 49.6853 96.9528 49.6074 96.8647 49.527L95.3731 48.2168C95.1903 48.067 95.0238 47.8984 94.8763 47.7137C94.6209 47.3664 94.5034 46.9309 94.2684 46.5644C94.0334 46.1979 93.6912 45.9259 93.363 45.6412C93.0348 45.3564 91.4474 44.0181 91.8305 43.5022C92.1076 43.6401 92.3362 44.0232 92.5597 44.2442Z" fill="black"/>
<path d="M89.3031 27.6601C89.7756 27.3651 90.3324 27.2413 90.8803 27.1404C91.2093 27.0657 91.5478 27.0416 91.8841 27.0689C92.1944 27.1072 92.4919 27.2272 92.8048 27.2438C93.2429 27.2694 93.663 27.0906 94.0819 26.9757C94.5008 26.8607 94.995 26.8148 95.3513 27.0714C95.4271 27.146 95.523 27.197 95.6272 27.2183C95.7353 27.2051 95.8357 27.1556 95.9119 27.0778C96.2119 26.8634 96.5759 26.7572 96.9441 26.7767C97.3123 26.7962 97.663 26.9402 97.9387 27.1851C98.7471 27.9423 98.6564 29.4223 99.5989 29.9944C99.8607 30.1528 100.194 30.237 100.346 30.5052C100.382 30.5897 100.425 30.6712 100.474 30.7491C100.537 30.8188 100.614 30.8742 100.701 30.9113C100.976 31.0339 101.238 31.1841 101.483 31.3595C101.604 31.4483 101.707 31.5608 101.784 31.6903C101.862 31.8198 101.912 31.9635 101.932 32.1129C101.937 32.3337 101.889 32.5525 101.793 32.7514C101.33 33.8881 100.526 34.8534 99.4918 35.5147C98.4577 36.176 97.2441 36.5008 96.0179 36.4444C95.8021 36.4342 95.5684 36.4048 95.4126 36.2554C95.3215 36.1529 95.2497 36.0348 95.2006 35.9068C94.7562 34.9733 93.9235 34.2838 93.3884 33.3963C93.0717 32.8676 92.8687 32.2764 92.5392 31.7554C92.0488 30.9636 91.2889 30.375 90.5482 29.8144C90.1293 29.4951 89.6632 29.1606 89.1358 29.1823C88.6671 29.2027 88.3248 29.2282 88.4972 28.6523C88.6387 28.2359 88.9245 27.8839 89.3031 27.6601V27.6601Z" fill="#E5E5E5"/>
<path opacity="0.05" d="M89.3031 27.6601C89.7756 27.3651 90.3324 27.2413 90.8803 27.1404C91.2093 27.0657 91.5478 27.0416 91.8841 27.0689C92.1944 27.1072 92.4919 27.2272 92.8048 27.2438C93.2429 27.2694 93.663 27.0906 94.0819 26.9757C94.5008 26.8607 94.995 26.8148 95.3513 27.0714C95.4271 27.146 95.523 27.197 95.6272 27.2183C95.7353 27.2051 95.8357 27.1556 95.9119 27.0778C96.2119 26.8634 96.5759 26.7572 96.9441 26.7767C97.3123 26.7962 97.663 26.9402 97.9387 27.1851C98.7471 27.9423 98.6564 29.4223 99.5989 29.9944C99.8607 30.1528 100.194 30.237 100.346 30.5052C100.382 30.5897 100.425 30.6712 100.474 30.7491C100.537 30.8188 100.614 30.8742 100.701 30.9113C100.976 31.0339 101.238 31.1841 101.483 31.3595C101.604 31.4483 101.707 31.5608 101.784 31.6903C101.862 31.8198 101.912 31.9635 101.932 32.1129C101.937 32.3337 101.889 32.5525 101.793 32.7514C101.33 33.8881 100.526 34.8534 99.4918 35.5147C98.4577 36.176 97.2441 36.5008 96.0179 36.4444C95.8021 36.4342 95.5684 36.4048 95.4126 36.2554C95.3215 36.1529 95.2497 36.0348 95.2006 35.9068C94.7562 34.9733 93.9235 34.2838 93.3884 33.3963C93.0717 32.8676 92.8687 32.2764 92.5392 31.7554C92.0488 30.9636 91.2889 30.375 90.5482 29.8144C90.1293 29.4951 89.6632 29.1606 89.1358 29.1823C88.6671 29.2027 88.3248 29.2282 88.4972 28.6523C88.6387 28.2359 88.9245 27.8839 89.3031 27.6601V27.6601Z" fill="black"/>
<path d="M87.0095 91.5369C87.3287 91.8344 87.7681 91.9646 88.1933 92.0579C89.1626 92.2698 90.1536 92.3452 91.1421 92.4218L92.105 92.4959C93.0449 92.5661 93.9861 92.6389 94.9299 92.6427C96.0944 92.647 97.257 92.5465 98.4036 92.3426C98.4496 92.3474 98.4961 92.3413 98.5393 92.3247C98.5825 92.3082 98.6212 92.2816 98.6522 92.2473C98.6832 92.2129 98.7056 92.1717 98.7177 92.127C98.7297 92.0824 98.7311 92.0355 98.7216 91.9902C98.7018 90.816 98.5588 89.6471 98.295 88.5028C98.1852 88.0328 97.3423 89.0863 97.3053 89.131C97.0716 89.3966 96.8941 89.5141 96.539 89.5371C95.5697 89.5907 94.4829 89.0008 93.7129 88.4772C93.5481 88.3541 93.3729 88.2455 93.1893 88.1529C93.0554 88.0898 92.9129 88.0468 92.7665 88.0252C92.2672 87.9793 91.7655 88.0809 91.3234 88.3176C90.7449 88.6049 90.2367 89.0174 89.6632 89.3124C89.1975 89.5524 88.6945 89.7118 88.1754 89.7836C87.6506 89.8564 87.0261 89.8908 86.7541 90.3454C86.5306 90.726 86.6915 91.2368 87.0095 91.5369Z" fill="#3F3D56"/>
<path d="M87.0095 91.7105C87.3287 92.008 87.768 92.1383 88.1933 92.2315C89.1626 92.4435 90.1536 92.5188 91.1421 92.5955L92.105 92.6695C93.0449 92.7397 93.9861 92.8125 94.9299 92.8164C96.0944 92.8206 97.257 92.7202 98.4035 92.5163C98.4558 92.5149 98.5072 92.5029 98.5547 92.481C98.6021 92.459 98.6445 92.4276 98.6794 92.3886C98.7202 92.3247 98.8952 92.0706 98.8939 91.9953C98.8748 90.8217 98.5568 89.6508 98.2937 88.5079C98.1839 88.0379 97.341 89.0914 97.304 89.1361C97.0703 89.4017 96.8928 89.5192 96.5377 89.5422C95.5684 89.5958 94.4816 89.0059 93.7116 88.4823C93.5468 88.3592 93.3716 88.2506 93.188 88.158C93.0541 88.0949 92.9116 88.0519 92.7652 88.0303C92.893 88.7275 93.8904 89.5703 94.4063 89.827C95.4509 90.3454 96.6923 90.0824 97.8544 90.1475C97.9396 90.1452 98.0239 90.1659 98.0983 90.2075C98.2388 90.2995 98.2465 90.4974 98.2426 90.6647C98.2324 90.9431 98.1967 91.2687 97.9566 91.4104C97.8373 91.468 97.7058 91.4956 97.5734 91.4909C94.7008 91.6172 91.8227 91.5164 88.9659 91.1895C88.4846 91.1575 88.0109 91.0524 87.5612 90.8779C87.2676 90.7409 86.994 90.5647 86.7477 90.3544C86.385 90.6442 86.6915 91.413 87.0095 91.7105Z" fill="#E8EAF2"/>
<path d="M89.4091 21.5038C89.4257 21.9597 89.1154 22.8434 89.9672 22.5969C90.478 22.4488 90.6185 21.8473 91.2634 21.9814C91.9083 22.1155 92.0565 22.9098 92.2749 23.4295C92.4526 23.8427 92.7282 24.2064 93.078 24.4892C93.4278 24.7719 93.8412 24.9653 94.2824 25.0525C94.4643 25.0953 94.6536 25.0953 94.8354 25.0525C95.2517 24.9338 95.4893 24.5047 95.6591 24.1076C95.8054 23.7712 95.9271 23.4247 96.0231 23.0707C96.0881 22.8195 96.1308 22.5631 96.1508 22.3045V22.3045C96.1642 22.1294 96.1642 21.9535 96.1508 21.7784C96.0729 20.7427 95.4841 19.7978 94.7281 19.0827C93.9721 18.3676 93.0564 17.8529 92.151 17.3434C91.8551 17.1586 91.5349 17.0159 91.1996 16.9195C90.8692 16.8528 90.5304 16.839 90.1958 16.8786C89.7549 16.8964 89.3214 16.9982 88.9187 17.1787C88.7537 17.2603 88.6021 17.3667 88.4692 17.4941C88.2821 17.6698 88.1492 17.8953 88.086 18.1441C87.9226 18.8145 88.3491 19.4211 88.6965 19.9459C89.0043 20.4184 89.3861 20.9177 89.4091 21.5038Z" fill="#3F3D56"/>
<path opacity="0.1" d="M75.0664 31.2841C75.249 30.8257 76.0153 29.5564 75.7931 29.1197C75.5635 29.4455 75.3684 29.7943 75.2107 30.1604C75.0664 30.5154 75.1839 30.9917 75.0664 31.2841Z" fill="black"/>
<path opacity="0.1" d="M88.6774 19.9484C88.3301 19.4185 87.9022 18.8158 88.0657 18.1466C88.1468 17.8525 88.3205 17.5923 88.5612 17.4047C88.5045 17.5026 88.4615 17.6079 88.4335 17.7176C88.27 18.3867 88.6979 18.9945 89.0452 19.5194C89.353 19.9893 89.7348 20.4886 89.7578 21.0747C89.7744 21.5293 89.4628 22.4143 90.3159 22.1678C90.8267 22.021 90.9672 21.4182 91.6121 21.5536C92.2571 21.689 92.4039 22.4807 92.6223 23.0004C92.8009 23.414 93.0774 23.7779 93.4281 24.0606C93.7787 24.3434 94.193 24.5366 94.635 24.6234C94.8168 24.6662 95.0061 24.6662 95.188 24.6234C95.2799 24.596 95.3663 24.5528 95.4434 24.4957C95.3133 24.7562 95.0871 24.9558 94.8125 25.0525C94.6307 25.0953 94.4414 25.0953 94.2595 25.0525C93.8189 24.9645 93.4062 24.7708 93.057 24.4881C92.7077 24.2054 92.4323 23.8421 92.2545 23.4295C92.0361 22.9097 91.8944 22.118 91.2444 21.9814C90.5943 21.8447 90.4564 22.45 89.9481 22.5969C89.095 22.8433 89.4066 21.9584 89.39 21.5038C89.3683 20.9177 88.9852 20.4184 88.6774 19.9484Z" fill="black"/>
<path opacity="0.1" d="M88.4886 19.0431C88.5666 19.1721 88.6519 19.2966 88.744 19.416C88.9247 19.6428 89.1265 19.8518 89.3468 20.0404C89.4745 20.154 89.6137 20.26 89.7542 20.3596C90.016 20.5434 90.2908 20.7077 90.5766 20.8513C91.4106 21.2714 92.3122 21.5345 93.21 21.7937L94.9698 22.3045C95.1856 22.4679 95.5815 22.7629 96.0183 23.0707C96.0833 22.8195 96.126 22.5631 96.146 22.3045V22.3045C96.1594 22.1294 96.1594 21.9535 96.146 21.7784C96.0681 20.7427 95.4794 19.7978 94.7233 19.0827C93.9673 18.3676 93.0516 17.8529 92.1462 17.3434C91.8503 17.1586 91.5301 17.0159 91.1947 16.9195C90.8644 16.8528 90.5256 16.839 90.191 16.8786C89.75 16.8964 89.3166 16.9982 88.9139 17.1787C88.7488 17.2603 88.5972 17.3667 88.4643 17.4941C88.3642 17.6404 88.2879 17.8016 88.2383 17.9717C88.1387 18.3344 88.2919 18.7226 88.4886 19.0431Z" fill="black"/>
<path d="M88.4884 18.9243C88.5664 19.0533 88.6517 19.1778 88.7438 19.2972C88.9245 19.524 89.1263 19.7331 89.3466 19.9216C89.4743 20.0353 89.6135 20.1413 89.754 20.2409C90.0158 20.4246 90.2906 20.589 90.5764 20.7325C91.4104 21.1526 92.312 21.4157 93.2098 21.6762L94.9696 22.187C95.5838 22.6518 97.6387 24.1739 97.9847 23.9837C98.3921 23.7602 96.1611 22.1806 96.1611 22.1806L96.0576 22.2585C96.3846 22.0529 96.5557 21.5766 96.6298 21.1654C96.7575 20.4286 96.8213 19.6624 96.6464 18.9345C96.4714 18.2066 96.0347 17.5133 95.3693 17.1723C95.073 17.0203 94.7142 16.9169 94.5009 16.6832C94.4686 16.6487 94.4403 16.6105 94.4166 16.5696C94.4043 16.5503 94.3932 16.5302 94.3834 16.5096C94.3604 16.4453 94.329 16.3843 94.2902 16.3282C94.1625 16.1865 93.9454 16.2286 93.7602 16.2516L93.7014 16.258C93.6682 16.258 93.635 16.258 93.6018 16.258C92.9403 16.2733 92.2992 15.9043 91.63 15.9043C90.8957 15.9043 90.2725 16.3282 89.6263 16.6181C89.4986 16.6768 89.3709 16.7305 89.2559 16.7854C88.7898 17.0025 88.4386 17.2336 88.2458 17.8517C88.1385 18.2156 88.2917 18.6038 88.4884 18.9243Z" fill="#E5E5E5"/>
<path opacity="0.1" d="M93.6058 16.2618C93.5698 16.3235 93.5571 16.3959 93.5697 16.4661C93.5823 16.5363 93.6196 16.5997 93.6747 16.6449C93.7566 16.703 93.8529 16.7375 93.9531 16.7445C94.0247 16.7539 94.0968 16.7594 94.1689 16.7611C94.2669 16.7684 94.3652 16.7513 94.455 16.7113C94.4728 16.7026 94.4895 16.6919 94.5048 16.6794C94.4725 16.6448 94.4442 16.6067 94.4205 16.5657C94.4039 16.5785 94.3873 16.576 94.3209 16.5657C94.2001 16.5594 94.0805 16.5389 93.9646 16.5044C93.9028 16.4891 93.8464 16.4573 93.8014 16.4123C93.7564 16.3673 93.7245 16.3108 93.7092 16.2491L93.6058 16.2618Z" fill="black"/>
<path opacity="0.1" d="M96.1215 22.1627C96.0288 22.2205 95.9255 22.2592 95.8176 22.2764C95.7402 22.2968 95.6611 22.3096 95.5813 22.3147C95.3794 22.3058 95.1823 22.2503 95.0054 22.1525L96.1215 22.1627Z" fill="black"/>
<path d="M40.8037 35.6373L40.8701 35.6195L41.0425 35.9885L42.4639 39.0532C42.4024 39.1303 42.3461 39.2114 42.2954 39.2959L42.2953 39.2959C42.2775 39.3252 42.2596 39.3546 42.243 39.3891C42.2264 39.4236 42.2085 39.458 42.1932 39.4938C42.1868 39.5051 42.1816 39.5171 42.1779 39.5296C42.174 39.5372 42.1753 39.5372 42.1676 39.5551C42.16 39.573 42.1536 39.5921 42.1472 39.61C42.1375 39.6229 42.1324 39.6349 42.1219 39.6467L42.1204 39.6521L42.114 39.6675L42.1 39.7178V39.7224V39.7403L42.0923 39.7786C42.0922 39.7797 42.0922 39.7808 42.0921 39.7819C42.0922 39.7825 42.0922 39.7831 42.0923 39.7837C42.0922 39.7843 42.0921 39.7849 42.0921 39.7855C42.0921 39.7866 42.0922 39.7877 42.0923 39.7888V39.7901V39.7939V39.7952V39.8003C42.0929 39.8036 42.0929 39.8071 42.0923 39.8105V39.8207V39.8284V39.845C42.0888 39.8875 42.0888 39.9302 42.0923 39.9727V40.0046C42.0208 39.9842 41.9416 39.9088 41.8778 39.7224C41.8569 39.6611 41.8462 39.5968 41.8458 39.5321C41.8336 39.1329 42.1703 38.7116 42.2235 38.6451C42.2259 38.6421 42.2278 38.6397 42.2289 38.6382L40.9774 36.0013L40.8037 35.6373Z" fill="url(#paint22_linear)"/>
<path d="M42.4205 40.403H42.4282C42.452 40.3936 42.474 40.3802 42.4933 40.3634L42.4901 40.3685C42.4912 40.3677 42.4922 40.3668 42.4933 40.366L42.4741 40.3966L42.4627 40.4145C42.4564 40.4238 42.4508 40.4337 42.446 40.4439C42.4342 40.4621 42.4243 40.4812 42.4138 40.5013C42.4118 40.5051 42.4098 40.5089 42.4077 40.5128C42.4098 40.5089 42.4118 40.5051 42.4138 40.5013C42.4243 40.4812 42.4342 40.4621 42.446 40.4439L42.4346 40.4605L42.4077 40.5128C42.4098 40.5089 42.4118 40.5051 42.4138 40.5013C42.4118 40.5051 42.4098 40.5089 42.4077 40.5128C42.3836 40.5612 42.3652 40.6122 42.3528 40.6648C42.3526 40.6661 42.3525 40.6673 42.3524 40.6686C42.3525 40.6699 42.3526 40.6712 42.3528 40.6724C42.3528 40.6727 42.3527 40.6729 42.3527 40.6731C42.3527 40.6733 42.3528 40.6735 42.3528 40.6737C42.3528 40.6739 42.3528 40.6742 42.3527 40.6744C42.3528 40.6746 42.3528 40.6748 42.3528 40.675C42.3523 40.6784 42.3523 40.6818 42.3528 40.6852C42.3534 40.6864 42.3537 40.6877 42.3537 40.689C42.3537 40.6904 42.3534 40.6917 42.3528 40.6929C42.3207 40.6452 42.2795 40.6044 42.2315 40.5728C42.1932 40.5501 42.1621 40.5172 42.1415 40.4777C42.121 40.4382 42.1119 40.3937 42.1153 40.3494C42.1165 40.2984 42.1259 40.2479 42.1434 40.2C42.165 40.2537 42.1961 40.303 42.2353 40.3455L42.2545 40.3634C42.27 40.377 42.2877 40.3878 42.3068 40.3953C42.3143 40.3985 42.322 40.401 42.3298 40.403H42.3426C42.3682 40.4095 42.3949 40.4095 42.4205 40.403Z" fill="url(#paint23_linear)"/>
<path d="M47.3321 84.1955C47.3321 84.1955 49.2477 84.4305 50.171 84.1112C51.0943 83.792 49.8849 85.484 48.6296 85.885C47.742 86.1436 46.8275 86.2987 45.9043 86.3472L44.428 84.9592L42.861 85.0792L43.1343 86.6116L42.6477 86.6575L42.4587 84.6476L47.3321 84.1955Z" fill="#444053"/>
<path opacity="0.1" d="M47.3321 84.1955C47.3321 84.1955 49.2477 84.4305 50.171 84.1112C51.0943 83.792 49.8849 85.484 48.6296 85.885C47.742 86.1436 46.8275 86.2987 45.9043 86.3472L44.428 84.9592L42.861 85.0792L43.1343 86.6116L42.6477 86.6575L42.4587 84.6476L47.3321 84.1955Z" fill="black"/>
<path d="M50.092 87.7047C50.092 87.7047 52.3843 88.2065 53.5401 87.9243C54.6959 87.6421 53.0382 89.5575 51.4674 89.9023C49.8966 90.2471 48.1061 90.1577 48.1061 90.1577L46.4804 88.2997L44.5648 88.2678L44.7219 90.1641H44.1255V87.7047H50.092Z" fill="#444053"/>
<path opacity="0.1" d="M50.092 87.7047C50.092 87.7047 52.3843 88.2065 53.5401 87.9243C54.6959 87.6421 53.0382 89.5575 51.4674 89.9023C49.8966 90.2471 48.1061 90.1577 48.1061 90.1577L46.4804 88.2997L44.5648 88.2678L44.7219 90.1641H44.1255V87.7047H50.092Z" fill="black"/>
<path d="M41.6122 44.0845C41.6122 44.0845 37.6865 48.4492 40.0414 53.3796C40.0414 53.3796 40.1691 54.2594 40.0733 54.4165C39.9776 54.5736 40.4501 56.6142 40.4501 56.6142C40.4501 56.6142 40.5139 60.3174 40.4501 60.9482C40.3862 61.5791 40.3224 61.9213 40.3224 61.9213C40.3224 61.9213 39.445 68.762 39.7272 70.8052C40.0095 72.8483 40.1359 76.489 40.1359 76.489L41.2981 86.2872L47.3284 85.1571L44.5955 71.7157L44.501 69.329C44.501 69.329 45.6325 66.4086 45.1293 64.9324C44.6261 63.4562 45.257 44.6451 45.257 44.6451L41.6122 44.0845Z" fill="#303D5C"/>
<path opacity="0.05" d="M41.6122 44.0845C41.6122 44.0845 37.6865 48.4492 40.0414 53.3796C40.0414 53.3796 40.1691 54.2594 40.0733 54.4165C39.9776 54.5736 40.4501 56.6142 40.4501 56.6142C40.4501 56.6142 40.5139 60.3174 40.4501 60.9482C40.3862 61.5791 40.3224 61.9213 40.3224 61.9213C40.3224 61.9213 39.445 68.762 39.7272 70.8052C40.0095 72.8483 40.1359 76.489 40.1359 76.489L41.2981 86.2872L47.3284 85.1571L44.5955 71.7157L44.501 69.329C44.501 69.329 45.6325 66.4086 45.1293 64.9324C44.6261 63.4562 45.257 44.6451 45.257 44.6451L41.6122 44.0845Z" fill="black"/>
<path d="M44.5009 65.1865C45.1918 66.5056 44.7563 69.7083 44.7563 69.7083C43.8458 70.4936 44.3477 77.3395 44.3477 77.3395C44.3477 77.3395 43.7193 84.0921 43.3119 84.8736C42.9046 85.6551 42.9659 88.8935 42.9659 88.8935C47.5825 89.7414 50.5977 87.9205 50.5977 87.9205C50.5977 87.9205 49.1214 84.5595 49.0907 84.4037C49.0728 84.3156 48.8774 84.5544 48.8187 84.6233C48.8493 84.5812 48.9298 84.4714 49.0907 84.2402C49.719 83.3604 49.0907 81.6646 49.0907 81.6646C49.0907 81.6646 49.8761 76.2004 49.4994 75.6973C49.1226 75.1941 49.562 73.3425 49.7816 72.9032C50.0013 72.464 50.2835 71.4271 50.2835 70.9878C50.3018 70.6463 50.3654 70.3088 50.4725 69.9841C51.4456 68.6011 51.2579 66.309 51.2579 66.309C51.2579 66.309 51.1953 63.0118 51.7598 60.4055C52.3243 57.7992 51.0549 50.4183 51.0549 50.4183C51.0549 50.4183 51.4776 48.974 51.1634 48.4403C51.0217 48.2002 51.0357 47.6345 51.1021 47.0867C51.1787 46.4163 51.3205 45.7714 51.3205 45.7714L42.7526 44.2505C42.5725 44.5506 42.4078 44.8418 42.2558 45.1214C39.422 50.357 41.3325 52.3031 41.3325 52.3031L43.151 57.9078C43.151 57.9078 43.8074 63.8687 44.5009 65.1865Z" fill="#303D5C"/>
<path d="M58.1003 24.2046L59.3251 25.2441C59.3251 25.2441 59.5651 25.0525 59.887 24.7652C60.6532 24.0731 61.8945 22.8204 61.4297 22.2892C60.7911 21.5639 60.1526 22.0338 60.113 22.067C60.182 21.9942 61.6033 20.4708 61.021 20.5934C60.4386 20.7159 59.3251 22.0389 59.3251 22.0389L58.4452 23.593L58.1003 24.2046Z" fill="#EFB7B9"/>
<path d="M41.6747 41.1641L43.1191 41.6034L42.0208 43.5188L40.7642 41.8856L41.6747 41.1641Z" fill="#EFB7B9"/>
<path d="M45.0664 23.169C47.3389 23.169 49.1811 21.3269 49.1811 19.0546C49.1811 16.7823 47.3389 14.9402 45.0664 14.9402C42.7939 14.9402 40.9517 16.7823 40.9517 19.0546C40.9517 21.3269 42.7939 23.169 45.0664 23.169Z" fill="#EFB7B9"/>
<path d="M47.4852 20.5627C47.4852 20.5627 43.7472 26.4942 47.2962 27.005C50.8452 27.5158 42.5225 31.1194 42.5225 31.1194L39.4128 27.9793C39.4128 27.9793 42.6477 22.3888 42.1458 20.2537C41.6439 18.1186 47.4852 20.5627 47.4852 20.5627Z" fill="#EFB7B9"/>
<path opacity="0.1" d="M42.2517 45.1304C43.0818 45.382 43.9279 45.5778 44.7842 45.7165C44.7842 45.7165 49.4123 47.7711 51.098 47.0956C51.1746 46.4252 51.3164 45.7803 51.3164 45.7803L42.7485 44.2595C42.5684 44.5595 42.4024 44.8507 42.2517 45.1304Z" fill="black"/>
<path d="M38.0006 29.6062L38.8371 31.3365L39.7822 33.2851L39.9099 33.5635L41.0299 35.9898L42.4538 39.0647C42.4538 39.0647 41.9506 39.6611 42.1077 40.1323C42.2546 40.5728 42.4845 40.3813 42.5138 40.3545C42.487 40.3915 42.1831 40.8001 42.4538 40.9802C42.7246 41.1602 42.6415 41.5765 42.6415 41.5765C42.6415 41.5765 41.4794 43.492 41.2597 44.1828C41.0401 44.8737 44.7781 45.4713 44.7781 45.4713C44.7781 45.4713 50.0856 47.826 51.4049 46.664C52.7241 45.5019 51.4049 40.0378 51.4049 40.0378C51.4049 40.0378 51.4049 36.8977 51.0588 36.6155C50.7127 36.3333 50.8774 34.156 50.8774 34.156C51.788 32.496 51.1597 31.5497 51.1597 31.5497L51.4151 27.2795C51.4151 27.2795 51.0064 26.839 50.6922 26.8083C50.4939 26.7894 50.2942 26.7894 50.0959 26.8083C50.0959 26.8083 49.9298 26.7521 49.691 26.6806C49.1879 26.5376 48.3526 26.3397 48.0538 26.4891C47.6145 26.7087 44.7883 26.143 44.7883 26.143C43.5702 25.9627 42.3433 25.8476 41.1129 25.7982C40.6927 25.7709 40.271 25.8167 39.8665 25.9336C38.8448 26.249 38.6634 26.9909 38.6634 26.9909C38.6634 26.9909 38.7911 27.6192 38.2867 28.4352C37.7823 29.2512 38.0006 29.6062 38.0006 29.6062Z" fill="#E5E5E5"/>
<path opacity="0.1" d="M58.1003 24.2046L59.3251 25.2441C59.3251 25.2441 59.5652 25.0525 59.887 24.7652C59.984 23.7053 59.0811 23.5648 58.4452 23.5929L58.1003 24.2046Z" fill="black"/>
<path d="M50.8771 27.2515L51.4109 27.2834C51.4109 27.2834 52.6663 27.4392 53.0711 27.0625C53.476 26.6858 54.9242 26.5607 54.9242 26.5607C54.9242 26.5607 55.3328 25.7434 55.7722 25.4931C56.2115 25.2428 57.2804 24.7703 57.3046 24.5188C57.3289 24.2672 57.7133 23.7973 57.7133 23.7973C57.7133 23.7973 60.0682 23.2316 59.7234 25.0845C59.3786 26.9374 57.4719 28.5374 57.4719 28.5374C57.4719 28.5374 57.2523 29.5743 56.5295 29.8259C55.8066 30.0774 51.1274 32.2751 50.3739 31.7094C49.6205 31.1437 50.8771 27.2515 50.8771 27.2515Z" fill="#E5E5E5"/>
<path opacity="0.1" d="M38.2826 28.4339C38.7845 27.618 38.6594 26.9897 38.6594 26.9897C38.6594 26.9897 38.8407 26.2478 39.8624 25.9324C40.0617 25.8719 40.2667 25.8317 40.4741 25.8123C39.4678 26.1316 39.2877 26.8645 39.2877 26.8645C39.2877 26.8645 39.4154 27.4928 38.911 28.3088C38.4065 29.1248 38.6274 29.4708 38.6274 29.4708L39.4652 31.2011L40.409 33.1485L40.5443 33.4282L41.6643 35.848L43.0883 38.923C43.0883 38.923 42.5851 39.5206 42.7422 39.9918C42.8891 40.4324 43.1189 40.2396 43.1483 40.214C43.1215 40.2498 42.8175 40.6597 43.0883 40.8397C43.359 41.0198 43.276 41.4361 43.276 41.4361C43.276 41.4361 42.1139 43.3515 41.8942 44.0424C41.6745 44.7332 45.4126 45.3296 45.4126 45.3296C45.4126 45.3296 49.0982 46.9654 51.0904 46.8377C49.397 47.5017 44.7842 45.456 44.7842 45.456C44.7842 45.456 41.0462 44.8584 41.2659 44.1675C41.4855 43.4767 42.6477 41.5625 42.6477 41.5625C42.6477 41.5625 42.7422 41.1539 42.46 40.9662C42.1777 40.7784 42.4932 40.3775 42.52 40.3404C42.4906 40.3673 42.2646 40.5588 42.1139 40.1182C41.9568 39.647 42.46 39.0507 42.46 39.0507L41.036 35.9745L39.916 33.5482L39.7883 33.2698L38.8433 31.3212L38.0068 29.5909C38.0068 29.5909 37.7795 29.2512 38.2826 28.4339Z" fill="black"/>
<path d="M38.5713 29.135L38.0069 29.6062C37.9045 29.916 37.7446 30.2036 37.5356 30.4541C37.2215 30.8002 36.3735 34.2225 36.3735 34.2225C36.4092 34.3015 36.4277 34.3873 36.4277 34.474C36.4277 34.5608 36.4092 34.6466 36.3735 34.7256C36.2458 34.981 36.6289 35.3539 36.6289 35.3539C36.6289 35.3539 36.8166 35.2913 36.5012 35.6361C36.1857 35.9809 36.7847 36.392 36.7847 36.392C36.7847 36.392 39.3593 40.7861 39.8931 41.2573C40.4269 41.7285 40.9607 42.9531 40.9607 42.9531C40.9607 42.9531 42.0795 41.1986 42.3425 41.1654L41.2442 38.6855C41.2442 38.6855 40.4895 35.23 39.925 34.5992C39.3606 33.9684 40.2073 31.8026 40.2073 31.8026L38.5713 29.135Z" fill="#E5E5E5"/>
<path opacity="0.1" d="M38.2037 35.5416C38.6762 36.1086 39.505 36.2286 40.2381 36.1456C40.3453 36.1328 40.4539 36.1162 40.5599 36.0958C40.7205 36.0671 40.8795 36.03 41.0362 35.9847C41.5975 35.8231 42.1257 35.5637 42.5968 35.2185C42.6996 35.1297 42.8184 35.0613 42.9467 35.0168C43.2405 34.9427 43.5316 35.1611 43.6913 35.4165C43.8509 35.6719 43.9263 35.9732 44.0897 36.2261C44.4116 36.7279 45.0348 36.9693 45.6324 36.9833C46.2301 36.9974 46.8099 36.8186 47.3795 36.6411C46.9185 36.0741 46.4459 35.4841 46.2582 34.778C46.1539 34.3175 46.1241 33.8432 46.1701 33.3733C46.3055 31.1514 47.0768 28.8094 48.889 27.5146C49.2031 27.2911 49.5824 27.0268 49.6872 26.6871C49.184 26.5441 48.3488 26.3461 48.0499 26.4955C47.6106 26.7152 44.7845 26.1495 44.7845 26.1495C43.5663 25.9692 42.3394 25.8541 41.109 25.8047C40.6889 25.7773 40.2671 25.8231 39.8626 25.94C40.0171 26.8837 40.1512 27.8223 39.9661 28.7494C39.8376 29.3271 39.6282 29.8838 39.3441 30.4031C39.1832 30.7159 39.0095 31.0237 38.8333 31.3327C38.3557 32.1921 37.8997 33.0541 37.8116 34.0143C37.7746 34.5571 37.8614 35.1304 38.2037 35.5416Z" fill="black"/>
<path opacity="0.1" d="M44.4139 39.9599C44.1687 39.928 43.921 39.845 43.6784 39.8961C43.472 39.9576 43.2833 40.0675 43.1279 40.2166L44.7422 40.2255C45.1572 40.2255 45.783 40.251 46.101 39.9573C45.8098 39.6688 44.829 40.0135 44.4139 39.9599Z" fill="black"/>
<path d="M50.0089 18.577C50.2538 18.9144 50.4082 19.309 50.4572 19.723C50.5061 20.1371 50.4481 20.5567 50.2885 20.942C50.0331 21.5485 49.5312 22.0236 49.226 22.6084C48.995 23.0622 48.8833 23.5672 48.9011 24.0761C48.919 24.5849 49.0659 25.0809 49.3282 25.5174C49.4473 25.6727 49.5341 25.8503 49.5836 26.0396C49.6564 26.5185 49.1609 26.862 48.7663 27.1442C46.9528 28.4365 46.1827 30.7798 46.0474 33.003C46.0009 33.4728 46.0302 33.9471 46.1342 34.4076C46.3219 35.1138 46.7957 35.7038 47.2568 36.2707C46.6872 36.4482 46.1074 36.627 45.5084 36.613C44.9095 36.5989 44.2888 36.3576 43.9657 35.8557C43.8023 35.6003 43.7256 35.3015 43.5673 35.0461C43.4089 34.7907 43.1165 34.5736 42.8253 34.6464C42.6962 34.6896 42.5769 34.7577 42.4741 34.8469C41.781 35.3553 40.9678 35.6751 40.1141 35.7753C39.381 35.8596 38.5522 35.7382 38.081 35.1713C37.7387 34.7588 37.6506 34.1867 37.6978 33.6529C37.8613 31.7515 39.4717 30.2562 39.8446 28.3842C40.146 26.8671 39.5994 25.3194 39.4998 23.7794C39.3504 21.4974 40.1792 19.2768 40.9953 17.1391C41.173 16.6094 41.413 16.1027 41.7104 15.6297C42.3936 14.6286 43.5749 14.0284 44.7754 13.9084C45.2207 13.8466 45.6744 13.8904 46.0997 14.0361C46.5288 14.2021 46.8864 14.5111 47.235 14.8138C48.0141 15.4893 48.8148 16.1929 49.263 17.1225C49.4457 17.5056 49.5657 17.9104 49.7739 18.2795L50.0089 18.577Z" fill="#3F3D56"/>
<g opacity="0.1">
<path opacity="0.1" d="M49.2681 17.7431C49.0638 17.3741 48.945 16.9654 48.7573 16.5862C48.5828 16.2325 48.3639 15.9025 48.106 15.6042C48.5743 16.0398 48.9632 16.5535 49.2553 17.1225C49.4328 17.4903 49.5516 17.8887 49.7444 18.2475L49.4967 18.0381C49.5615 18.1241 49.6196 18.2151 49.6704 18.3101C49.5133 18.1385 49.3782 17.948 49.2681 17.7431V17.7431Z" fill="black"/>
<path opacity="0.1" d="M39.6083 35.2312C40.4622 35.1324 41.2756 34.8129 41.9684 34.3042C42.0715 34.2155 42.1908 34.1474 42.3196 34.1037C42.612 34.0296 42.9032 34.248 43.0628 34.5034C43.096 34.557 43.1254 34.6145 43.1535 34.6719C43.0499 34.6247 42.9335 34.6135 42.8227 34.64C42.6937 34.6831 42.5743 34.7513 42.4716 34.8405C41.7784 35.3488 40.9653 35.6687 40.1115 35.7688C39.3785 35.8531 38.5497 35.7318 38.0784 35.1648C38.0197 35.0917 37.9675 35.0135 37.9226 34.9312C38.3977 35.2363 39.0324 35.2976 39.6083 35.2312Z" fill="black"/>
<path opacity="0.1" d="M45.0039 36.0715C45.6003 36.0856 46.1814 35.9068 46.751 35.7293C46.2899 35.1623 45.8174 34.5723 45.6297 33.8662C45.5252 33.4057 45.4955 32.9314 45.5416 32.4615C45.6769 30.2383 46.4483 27.8951 48.2617 26.6028C48.6564 26.3205 49.1557 25.977 49.0791 25.4969C49.0288 25.3082 48.942 25.1312 48.8237 24.9759C48.5612 24.5395 48.414 24.0436 48.396 23.5348C48.3779 23.0259 48.4894 22.5208 48.7202 22.0669C49.0267 21.4821 49.5248 21.0071 49.784 20.3992C49.9221 20.0644 49.9841 19.703 49.9655 19.3413C49.947 18.9796 49.8483 18.6265 49.6767 18.3075C49.7631 18.3985 49.8553 18.4838 49.9526 18.5629C50.0223 18.6605 50.0983 18.7535 50.1799 18.8413C50.3516 19.1605 50.4501 19.5139 50.4685 19.8759C50.4868 20.2378 50.4244 20.5994 50.2859 20.9343C50.0305 21.5408 49.5286 22.0159 49.2234 22.6007C48.9924 23.0545 48.8806 23.5595 48.8985 24.0684C48.9164 24.5772 49.0633 25.0732 49.3255 25.5097C49.4446 25.665 49.5315 25.8426 49.581 26.0319C49.6538 26.5108 49.1582 26.8543 48.7636 27.1365C46.9502 28.4288 46.1801 30.7721 46.0447 32.9953C45.9982 33.4651 46.0275 33.9394 46.1316 34.4C46.3193 35.1061 46.7931 35.6961 47.2541 36.2631C46.6845 36.4406 46.1048 36.6193 45.5058 36.6053C44.9069 36.5912 44.2862 36.3499 43.9631 35.848C43.9414 35.8148 43.9222 35.7804 43.9031 35.7459C44.2335 35.9526 44.6142 36.0652 45.0039 36.0715V36.0715Z" fill="black"/>
</g>
<path opacity="0.2" d="M26.1031 7.0293V9.71094H14.4587C14.8138 9.21888 15.1765 8.73363 15.5468 8.25519C15.5979 8.18879 15.649 8.12749 15.7026 8.05726L16.2479 7.37152L16.3233 7.27831L16.5212 7.03696L26.1031 7.0293Z" fill="#E5E5E5"/>
<path opacity="0.2" d="M50.1966 7.0293H37.9609V9.70839H50.1966V7.0293Z" fill="#E5E5E5"/>
<path opacity="0.2" d="M78.2987 7.0293H66.063V9.70839H78.2987V7.0293Z" fill="#E5E5E5"/>
<path opacity="0.2" d="M102.066 7.0293H89.8306V9.70839H102.066V7.0293Z" fill="#E5E5E5"/>
<defs>
<linearGradient id="paint0_linear" x1="12.8292" y1="21.4195" x2="12.8292" y2="15.7165" gradientUnits="userSpaceOnUse">
<stop stop-color="#808080" stop-opacity="0.25"/>
<stop offset="0.54" stop-color="#808080" stop-opacity="0.12"/>
<stop offset="1" stop-color="#808080" stop-opacity="0.1"/>
</linearGradient>
<linearGradient id="paint1_linear" x1="2438.22" y1="1423.35" x2="2438.22" y2="1168.6" gradientUnits="userSpaceOnUse">
<stop stop-color="#808080" stop-opacity="0.25"/>
<stop offset="0.54" stop-color="#808080" stop-opacity="0.12"/>
<stop offset="1" stop-color="#808080" stop-opacity="0.1"/>
</linearGradient>
<linearGradient id="paint2_linear" x1="3692.24" y1="1928.93" x2="3692.24" y2="1674.18" gradientUnits="userSpaceOnUse">
<stop stop-color="#808080" stop-opacity="0.25"/>
<stop offset="0.54" stop-color="#808080" stop-opacity="0.12"/>
<stop offset="1" stop-color="#808080" stop-opacity="0.1"/>
</linearGradient>
<linearGradient id="paint3_linear" x1="4971.79" y1="2101.34" x2="4971.79" y2="1846.65" gradientUnits="userSpaceOnUse">
<stop stop-color="#808080" stop-opacity="0.25"/>
<stop offset="0.54" stop-color="#808080" stop-opacity="0.12"/>
<stop offset="1" stop-color="#808080" stop-opacity="0.1"/>
</linearGradient>
<linearGradient id="paint4_linear" x1="5314.69" y1="2269.91" x2="5314.69" y2="2015.21" gradientUnits="userSpaceOnUse">
<stop stop-color="#808080" stop-opacity="0.25"/>
<stop offset="0.54" stop-color="#808080" stop-opacity="0.12"/>
<stop offset="1" stop-color="#808080" stop-opacity="0.1"/>
</linearGradient>
<linearGradient id="paint5_linear" x1="5744.62" y1="1819.55" x2="5744.62" y2="1564.79" gradientUnits="userSpaceOnUse">
<stop stop-color="#808080" stop-opacity="0.25"/>
<stop offset="0.54" stop-color="#808080" stop-opacity="0.12"/>
<stop offset="1" stop-color="#808080" stop-opacity="0.1"/>
</linearGradient>
<linearGradient id="paint6_linear" x1="5657.58" y1="2184.84" x2="5657.58" y2="1930.14" gradientUnits="userSpaceOnUse">
<stop stop-color="#808080" stop-opacity="0.25"/>
<stop offset="0.54" stop-color="#808080" stop-opacity="0.12"/>
<stop offset="1" stop-color="#808080" stop-opacity="0.1"/>
</linearGradient>
<linearGradient id="paint7_linear" x1="2816.98" y1="1423.35" x2="2816.98" y2="1168.6" gradientUnits="userSpaceOnUse">
<stop stop-color="#808080" stop-opacity="0.25"/>
<stop offset="0.54" stop-color="#808080" stop-opacity="0.12"/>
<stop offset="1" stop-color="#808080" stop-opacity="0.1"/>
</linearGradient>
<linearGradient id="paint8_linear" x1="1519.62" y1="2054.64" x2="1519.62" y2="1799.89" gradientUnits="userSpaceOnUse">
<stop stop-color="#808080" stop-opacity="0.25"/>
<stop offset="0.54" stop-color="#808080" stop-opacity="0.12"/>
<stop offset="1" stop-color="#808080" stop-opacity="0.1"/>
</linearGradient>
<linearGradient id="paint9_linear" x1="2638.58" y1="1798.67" x2="2638.58" y2="1543.98" gradientUnits="userSpaceOnUse">
<stop stop-color="#808080" stop-opacity="0.25"/>
<stop offset="0.54" stop-color="#808080" stop-opacity="0.12"/>
<stop offset="1" stop-color="#808080" stop-opacity="0.1"/>
</linearGradient>
<linearGradient id="paint10_linear" x1="4085.71" y1="1643.05" x2="4085.71" y2="1388.36" gradientUnits="userSpaceOnUse">
<stop stop-color="#808080" stop-opacity="0.25"/>
<stop offset="0.54" stop-color="#808080" stop-opacity="0.12"/>
<stop offset="1" stop-color="#808080" stop-opacity="0.1"/>
</linearGradient>
<linearGradient id="paint11_linear" x1="5550.7" y1="1460.44" x2="5550.7" y2="1205.74" gradientUnits="userSpaceOnUse">
<stop stop-color="#808080" stop-opacity="0.25"/>
<stop offset="0.54" stop-color="#808080" stop-opacity="0.12"/>
<stop offset="1" stop-color="#808080" stop-opacity="0.1"/>
</linearGradient>
<linearGradient id="paint12_linear" x1="4452.01" y1="1423.35" x2="4452.01" y2="1168.6" gradientUnits="userSpaceOnUse">
<stop stop-color="#808080" stop-opacity="0.25"/>
<stop offset="0.54" stop-color="#808080" stop-opacity="0.12"/>
<stop offset="1" stop-color="#808080" stop-opacity="0.1"/>
</linearGradient>
<linearGradient id="paint13_linear" x1="4436.28" y1="1928.93" x2="4436.28" y2="1674.18" gradientUnits="userSpaceOnUse">
<stop stop-color="#808080" stop-opacity="0.25"/>
<stop offset="0.54" stop-color="#808080" stop-opacity="0.12"/>
<stop offset="1" stop-color="#808080" stop-opacity="0.1"/>
</linearGradient>
<linearGradient id="paint14_linear" x1="3189.79" y1="1549.06" x2="3189.79" y2="1294.37" gradientUnits="userSpaceOnUse">
<stop stop-color="#808080" stop-opacity="0.25"/>
<stop offset="0.54" stop-color="#808080" stop-opacity="0.12"/>
<stop offset="1" stop-color="#808080" stop-opacity="0.1"/>
</linearGradient>
<linearGradient id="paint15_linear" x1="1714.57" y1="1632.85" x2="1714.57" y2="1378.16" gradientUnits="userSpaceOnUse">
<stop stop-color="#808080" stop-opacity="0.25"/>
<stop offset="0.54" stop-color="#808080" stop-opacity="0.12"/>
<stop offset="1" stop-color="#808080" stop-opacity="0.1"/>
</linearGradient>
<linearGradient id="paint16_linear" x1="1853.36" y1="1928.93" x2="1853.36" y2="1674.18" gradientUnits="userSpaceOnUse">
<stop stop-color="#808080" stop-opacity="0.25"/>
<stop offset="0.54" stop-color="#808080" stop-opacity="0.12"/>
<stop offset="1" stop-color="#808080" stop-opacity="0.1"/>
</linearGradient>
<linearGradient id="paint17_linear" x1="3005.02" y1="1971.14" x2="3005.02" y2="1716.45" gradientUnits="userSpaceOnUse">
<stop stop-color="#808080" stop-opacity="0.25"/>
<stop offset="0.54" stop-color="#808080" stop-opacity="0.12"/>
<stop offset="1" stop-color="#808080" stop-opacity="0.1"/>
</linearGradient>
<linearGradient id="paint18_linear" x1="5037.04" y1="1460.44" x2="5037.04" y2="1205.74" gradientUnits="userSpaceOnUse">
<stop stop-color="#808080" stop-opacity="0.25"/>
<stop offset="0.54" stop-color="#808080" stop-opacity="0.12"/>
<stop offset="1" stop-color="#808080" stop-opacity="0.1"/>
</linearGradient>
<linearGradient id="paint19_linear" x1="5282.73" y1="1819.55" x2="5282.73" y2="1564.79" gradientUnits="userSpaceOnUse">
<stop stop-color="#808080" stop-opacity="0.25"/>
<stop offset="0.54" stop-color="#808080" stop-opacity="0.12"/>
<stop offset="1" stop-color="#808080" stop-opacity="0.1"/>
</linearGradient>
<linearGradient id="paint20_linear" x1="3716.51" y1="1423.35" x2="3716.51" y2="1168.6" gradientUnits="userSpaceOnUse">
<stop stop-color="#808080" stop-opacity="0.25"/>
<stop offset="0.54" stop-color="#808080" stop-opacity="0.12"/>
<stop offset="1" stop-color="#808080" stop-opacity="0.1"/>
</linearGradient>
<linearGradient id="paint21_linear" x1="4054.26" y1="2184.84" x2="4054.26" y2="1930.14" gradientUnits="userSpaceOnUse">
<stop stop-color="#808080" stop-opacity="0.25"/>
<stop offset="0.54" stop-color="#808080" stop-opacity="0.12"/>
<stop offset="1" stop-color="#808080" stop-opacity="0.1"/>
</linearGradient>
<linearGradient id="paint22_linear" x1="-12423.3" y1="63738.9" x2="-12423.3" y2="17542.5" gradientUnits="userSpaceOnUse">
<stop stop-color="#808080" stop-opacity="0.25"/>
<stop offset="0.54" stop-color="#808080" stop-opacity="0.12"/>
<stop offset="1" stop-color="#808080" stop-opacity="0.1"/>
</linearGradient>
<linearGradient id="paint23_linear" x1="-12423.3" y1="63738.9" x2="-12423.3" y2="17542.5" gradientUnits="userSpaceOnUse">
<stop stop-color="#808080" stop-opacity="0.25"/>
<stop offset="0.54" stop-color="#808080" stop-opacity="0.12"/>
<stop offset="1" stop-color="#808080" stop-opacity="0.1"/>
</linearGradient>
</defs>
</svg>
