<svg width="116" height="91" viewBox="0 0 116 91" fill="none" xmlns="http://www.w3.org/2000/svg">
<path d="M64.1835 52.762C64.1835 52.762 64.0035 54.5252 64.0035 56.336V84.3198H67.3229L69.2133 61.8518L71.4047 84.3198H74.5891C74.5891 84.3198 75.0505 58.8888 74.5891 56.5843C74.1278 54.2797 73.9534 52.2095 73.9534 52.2095L64.1835 52.762Z" fill="#DDDDDD"/>
<path d="M64.2679 52.6894C64.0997 53.8455 64.0113 55.0117 64.0035 56.1797V84.1636H67.3229L69.2133 61.6956L71.4047 84.1636H74.5891C74.5891 84.1636 75.0505 58.7326 74.5891 56.4281C74.1278 54.1235 73.9534 52.0533 73.9534 52.0533L64.2679 52.6894Z" fill="url(#paint0_linear)"/>
<path d="M87.0652 50.622L83.9708 57.3404L77.0309 54.0984L75.3852 56.7601L82.7893 61.5645C82.7893 61.5645 86.8261 63.7016 87.6644 58.4201C88.5027 53.1386 87.0652 50.622 87.0652 50.622Z" fill="#DDDDDD"/>
<path d="M87.0652 50.622L83.9708 57.3404L77.0309 54.0984L75.3852 56.7601L82.7893 61.5645C82.7893 61.5645 86.8261 63.7016 87.6644 58.4201C88.5027 53.1386 87.0652 50.622 87.0652 50.622Z" fill="url(#paint1_linear)"/>
<path d="M80.0915 71.6894C81.186 72.0519 82.249 72.5016 83.2703 73.0342C81.8619 76.6054 80.3794 80.1478 78.8228 83.6614C78.8098 83.7197 78.7838 83.7745 78.7467 83.8216C78.7096 83.8687 78.6624 83.907 78.6085 83.9338C78.5546 83.9605 78.4954 83.975 78.4351 83.9761C78.3748 83.9772 78.3151 83.965 78.2602 83.9404C77.6385 83.8455 76.8959 83.6446 76.7299 83.042C76.6849 82.8276 76.6849 82.6063 76.7299 82.3919C76.8874 81.3289 79.8974 71.6253 80.0915 71.6894Z" fill="url(#paint2_linear)"/>
<path d="M82.7752 72.8696C83.9283 72.9169 85.0758 73.0541 86.2072 73.2797C85.8602 77.1002 85.4355 80.9132 84.9329 84.7188C84.9297 84.8067 84.9035 84.8923 84.8569 84.9671C84.7533 85.0705 84.6129 85.1296 84.4659 85.1317C83.8414 85.2098 83.0593 85.2266 82.7443 84.6937C82.6405 84.4993 82.5792 84.2854 82.5642 84.0659C82.418 83.0141 82.5699 72.864 82.7752 72.8696Z" fill="url(#paint3_linear)"/>
<path d="M81.7006 60.1444C81.2083 60.0634 78.5387 59.5864 78.1083 59.8291C77.5288 60.1695 76.6455 63.0125 77.1547 63.085C79.1174 63.3078 81.0994 63.3078 83.0622 63.085C83.1859 63.0711 83.3435 63.0208 83.3435 62.8953C83.336 62.8278 83.304 62.7653 83.2534 62.7195C81.9003 61.1515 83.8695 60.5015 81.7006 60.1444Z" fill="url(#paint4_linear)"/>
<path opacity="0.27" d="M15.3623 91.2279C10.1806 91.9477 4.95386 92.6787 9.53674e-07 94.3304C2.88061 95.226 5.97501 95.0195 9.00189 94.8493C43.4988 92.8768 78.5246 96.2443 112.358 89.2693C113.393 89.0573 114.653 88.5969 114.743 87.5507C114.867 86.1556 112.903 85.6869 111.486 85.7483L85.5771 86.8448L87.2002 85.7288C77.7989 85.6841 68.3984 85.8208 58.999 86.1389C55.823 86.2449 53.1815 87.1963 50.1434 87.7209C46.5004 88.3486 42.4805 88.0501 38.7785 88.3681C30.9328 89.0601 23.1461 90.1426 15.3623 91.2279Z" fill="#DDDDDD"/>
<path d="M27.2729 74.3623H18.9574C17.9895 74.3623 17.2049 75.1405 17.2049 76.1004V76.6557C17.2049 77.6156 17.9895 78.3938 18.9574 78.3938H27.2729C28.2408 78.3938 29.0255 77.6156 29.0255 76.6557V76.1004C29.0255 75.1405 28.2408 74.3623 27.2729 74.3623Z" fill="#DDDDDD"/>
<path d="M23.9085 78.3966H21.8493V89.8775H23.9085V78.3966Z" fill="#DDDDDD"/>
<path d="M23.9085 78.3966H21.8493V89.8775H23.9085V78.3966Z" fill="url(#paint5_linear)"/>
<path d="M25.1659 89.3307H20.589C20.1043 89.3307 19.7113 89.7204 19.7113 90.2012C19.7113 90.6819 20.1043 91.0717 20.589 91.0717H25.1659C25.6506 91.0717 26.0436 90.6819 26.0436 90.2012C26.0436 89.7204 25.6506 89.3307 25.1659 89.3307Z" fill="#DDDDDD"/>
<path d="M25.1659 89.3307H20.589C20.1043 89.3307 19.7113 89.7204 19.7113 90.2012C19.7113 90.6819 20.1043 91.0717 20.589 91.0717H25.1659C25.6506 91.0717 26.0436 90.6819 26.0436 90.2012C26.0436 89.7204 25.6506 89.3307 25.1659 89.3307Z" fill="url(#paint6_linear)"/>
<path d="M98.2754 71.204H89.9599C88.9919 71.204 88.2073 71.9822 88.2073 72.9421V73.4973C88.2073 74.4573 88.9919 75.2355 89.9599 75.2355H98.2754C99.2433 75.2355 100.028 74.4573 100.028 73.4973V72.9421C100.028 71.9822 99.2433 71.204 98.2754 71.204Z" fill="#DDDDDD"/>
<path d="M94.9109 75.2383H92.8517V86.7192H94.9109V75.2383Z" fill="#DDDDDD"/>
<path d="M94.9109 75.2383H92.8517V86.7192H94.9109V75.2383Z" fill="url(#paint7_linear)"/>
<path d="M96.1683 86.1724H91.5914C91.1067 86.1724 90.7138 86.5621 90.7138 87.0429C90.7138 87.5236 91.1067 87.9134 91.5914 87.9134H96.1683C96.6531 87.9134 97.046 87.5236 97.046 87.0429C97.046 86.5621 96.6531 86.1724 96.1683 86.1724Z" fill="#DDDDDD"/>
<path d="M96.1683 86.1724H91.5914C91.1067 86.1724 90.7138 86.5621 90.7138 87.0429C90.7138 87.5236 91.1067 87.9134 91.5914 87.9134H96.1683C96.6531 87.9134 97.046 87.5236 97.046 87.0429C97.046 86.5621 96.6531 86.1724 96.1683 86.1724Z" fill="url(#paint8_linear)"/>
<path d="M64.8249 86.2477C64.876 86.3376 64.9449 86.4164 65.0274 86.4793C65.1677 86.5573 65.3323 86.5802 65.4888 86.5435C65.9164 86.4709 66.2539 86.5267 66.5015 86.1752C66.749 85.8236 66.9206 85.0592 67.0275 84.6546C67.2104 83.9376 66.915 83.6251 66.223 83.4968C65.7616 83.4131 65.2581 83.3461 64.8361 83.6C64.8361 83.6 64.3663 85.5335 64.8249 86.2477Z" fill="url(#paint9_linear)"/>
<path d="M71.911 85.7595C71.8959 85.8113 71.8944 85.8661 71.9065 85.9187C71.9186 85.9712 71.944 86.0199 71.9803 86.0601C72.0165 86.1003 72.0625 86.1306 72.1139 86.1483C72.1653 86.166 72.2204 86.1705 72.2739 86.1612C72.7437 86.178 73.2163 86.1808 73.6805 86.1612C73.7286 86.1629 73.7766 86.1544 73.8211 86.1361C73.9365 86.0831 73.9505 85.9325 73.9505 85.8069V83.5749C73.9545 83.5264 73.9468 83.4776 73.928 83.4326C73.869 83.3266 73.7171 83.3266 73.5933 83.3405C73.1741 83.3963 72.0517 83.3405 71.8885 83.7339C71.7901 83.9739 71.8885 84.4817 71.8885 84.7411C71.8885 85.0871 71.8857 85.4247 71.911 85.7595Z" fill="url(#paint10_linear)"/>
<path d="M64.3241 85.5307C64.1102 85.6021 63.9008 85.6859 63.6968 85.7818L61.5392 86.7555C61.3241 86.8284 61.1373 86.9659 61.0047 87.1489C60.95 87.2714 60.928 87.4058 60.9408 87.5392C60.9536 87.6726 61.0008 87.8005 61.0778 87.9106C61.3271 88.2872 61.7078 88.5594 62.1468 88.675C62.5818 88.7874 63.031 88.8363 63.4802 88.8201C64.4141 88.8235 65.3472 88.7666 66.2736 88.6499C66.4074 88.6466 66.537 88.6028 66.6449 88.5244C66.7157 88.4511 66.7678 88.3622 66.7968 88.2649C67.041 87.5976 67.1267 86.8835 67.0472 86.178C67.0361 85.9927 66.9801 85.8127 66.8841 85.6535C66.6562 85.3242 66.0851 85.4107 65.7335 85.394C65.2593 85.3568 64.7821 85.4031 64.3241 85.5307V85.5307Z" fill="#DDDDDD"/>
<path d="M64.3241 85.5307C64.1102 85.6021 63.9008 85.6859 63.6968 85.7818L61.5392 86.7555C61.3241 86.8284 61.1373 86.9659 61.0047 87.1489C60.95 87.2714 60.928 87.4058 60.9408 87.5392C60.9536 87.6726 61.0008 87.8005 61.0778 87.9106C61.3271 88.2872 61.7078 88.5594 62.1468 88.675C62.5818 88.7874 63.031 88.8363 63.4802 88.8201C64.4141 88.8235 65.3472 88.7666 66.2736 88.6499C66.4074 88.6466 66.537 88.6028 66.6449 88.5244C66.7157 88.4511 66.7678 88.3622 66.7968 88.2649C67.041 87.5976 67.1267 86.8835 67.0472 86.178C67.0361 85.9927 66.9801 85.8127 66.8841 85.6535C66.6562 85.3242 66.0851 85.4107 65.7335 85.394C65.2593 85.3568 64.7821 85.4031 64.3241 85.5307V85.5307Z" fill="url(#paint11_linear)"/>
<path d="M71.9842 85.8069C71.7186 85.8225 71.4598 85.8958 71.2259 86.0216C70.9921 86.1475 70.789 86.3228 70.6311 86.5351C70.4455 86.8956 70.3665 87.3009 70.4033 87.7041C70.4033 88.0082 70.4229 88.3096 70.437 88.6137C70.4244 88.7797 70.478 88.9439 70.5861 89.0712C70.7112 89.1586 70.8647 89.1964 71.0165 89.1772C72.2843 89.1635 73.5393 88.9234 74.7213 88.4686C74.7703 88.4556 74.8131 88.426 74.8423 88.3849C74.8578 88.3488 74.8636 88.3094 74.8592 88.2705C74.8423 87.7655 74.8057 87.2605 74.7467 86.7583C74.7354 86.5976 74.6963 86.44 74.6313 86.2924C74.1925 85.4303 72.7269 85.7092 71.9842 85.8069Z" fill="#DDDDDD"/>
<path d="M71.9842 85.8069C71.7186 85.8225 71.4598 85.8958 71.2259 86.0216C70.9921 86.1475 70.789 86.3228 70.6311 86.5351C70.4455 86.8956 70.3665 87.3009 70.4033 87.7041C70.4033 88.0082 70.4229 88.3096 70.437 88.6137C70.4244 88.7797 70.478 88.9439 70.5861 89.0712C70.7112 89.1586 70.8647 89.1964 71.0165 89.1772C72.2843 89.1635 73.5393 88.9234 74.7213 88.4686C74.7703 88.4556 74.8131 88.426 74.8423 88.3849C74.8578 88.3488 74.8636 88.3094 74.8592 88.2705C74.8423 87.7655 74.8057 87.2605 74.7467 86.7583C74.7354 86.5976 74.6963 86.44 74.6313 86.2924C74.1925 85.4303 72.7269 85.7092 71.9842 85.8069Z" fill="url(#paint12_linear)"/>
<path opacity="0.4" d="M63.5506 0H5.91593V43.0862H63.5506V0Z" fill="#DDDDDD"/>
<path d="M57.3561 38.717C54.363 36.5799 54.3208 34.0465 51.3867 31.8313C50.6363 32.332 49.9405 32.9089 49.3107 33.5527C49.1751 33.6677 49.0771 33.8202 49.0294 33.9907C49.0127 34.1927 49.0631 34.3945 49.1728 34.5655C50.4136 37.0122 51.9322 39.3103 53.6991 41.415C54.057 41.8833 54.4916 42.2888 54.9847 42.6147C55.778 43.0862 56.7541 43.1504 57.6768 43.0722C60.2046 42.8668 62.6641 42.155 64.9065 40.9797C65.1006 40.8821 65.3959 40.2487 65.5169 40.0702C65.9135 39.4843 67.7674 35.8433 66.9853 35.5838C66.2033 35.3244 57.6149 38.904 57.3561 38.717Z" fill="#DDDDDD"/>
<path d="M51.0998 32.0377L51.398 31.8313C51.4144 32.175 51.3783 32.5193 51.2911 32.8524C51.1589 33.1314 50.8016 34.1581 49.0406 34.1442C49.035 34.1442 48.8071 33.6727 51.0998 32.0377Z" fill="black"/>
<path opacity="0.4" d="M59.2718 27.3114H10.0681C9.60818 27.3114 9.23538 27.6812 9.23538 28.1373C9.23538 28.5934 9.60818 28.9631 10.0681 28.9631H59.2718C59.7317 28.9631 60.1045 28.5934 60.1045 28.1373C60.1045 27.6812 59.7317 27.3114 59.2718 27.3114Z" fill="#DDDDDD"/>
<path opacity="0.4" d="M59.2718 30.4558H10.0681C9.60818 30.4558 9.23538 30.8255 9.23538 31.2816C9.23538 31.7377 9.60818 32.1075 10.0681 32.1075H59.2718C59.7317 32.1075 60.1045 31.7377 60.1045 31.2816C60.1045 30.8255 59.7317 30.4558 59.2718 30.4558Z" fill="#DDDDDD"/>
<path d="M64.2144 37.0877C64.8052 36.1781 65.922 35.7513 66.9966 35.5699C68.0712 35.3886 68.4031 34.8027 70.3723 34.7999C72.1136 34.7999 72.3724 35.8684 72.9266 36.8701C73.4808 37.8717 73.6242 39.0379 73.7396 40.1762C74.0846 43.554 74.2722 46.9448 74.3022 50.3486C74.3022 50.9903 74.3022 51.6683 73.9534 52.2096C73.4836 52.9489 72.5468 53.2223 71.6832 53.3842C70.1611 53.6707 68.613 53.7978 67.0641 53.7636C66.4052 53.7818 65.7492 53.6699 65.1343 53.4344C64.1835 53.0103 63.5393 52.0784 63.2299 51.0908C62.9686 50.0895 62.8604 49.0549 62.9092 48.0217C62.9092 45.5145 62.9954 43.0081 63.168 40.5027C63.2359 39.2976 63.5948 38.1264 64.2144 37.0877V37.0877Z" fill="#DDDDDD"/>
<path d="M64.2144 37.0877C64.8052 36.1781 65.922 35.7513 66.9966 35.5699C68.0712 35.3886 68.4031 34.8027 70.3723 34.7999C72.1136 34.7999 72.3724 35.8684 72.9266 36.8701C73.4808 37.8717 73.6242 39.0379 73.7396 40.1762C74.0846 43.554 74.2722 46.9448 74.3022 50.3486C74.3022 50.9903 74.3022 51.6683 73.9534 52.2096C73.4836 52.9489 72.5468 53.2223 71.6832 53.3842C70.1611 53.6707 68.613 53.7978 67.0641 53.7636C66.4052 53.7818 65.7492 53.6699 65.1343 53.4344C64.1835 53.0103 63.5393 52.0784 63.2299 51.0908C62.9686 50.0895 62.8604 49.0549 62.9092 48.0217C62.9092 45.5145 62.9954 43.0081 63.168 40.5027C63.2359 39.2976 63.5948 38.1264 64.2144 37.0877V37.0877Z" fill="url(#paint13_linear)"/>
<path d="M34.2972 84.9922L33.5911 87.9022L31.4757 87.612V84.836L34.2972 84.9922Z" fill="url(#paint14_linear)"/>
<path d="M31.4757 87.612L30.522 89.8775L34.6151 91.0772H37.7404C37.7404 91.0772 37.4085 89.4702 36.2467 89.3502C35.0849 89.2302 33.5911 87.9106 33.5911 87.9106L31.4757 87.612Z" fill="#DDDDDD"/>
<path d="M40.7701 84.6295L41.3074 87.9022L43.0937 87.3665V84.3226L40.7701 84.6295Z" fill="url(#paint15_linear)"/>
<path d="M41.3215 87.9022V90.3714L46.582 89.3419L48.3345 87.9022C48.3345 87.9022 47.7382 86.3788 46.205 86.9145C44.6719 87.4502 43.5438 87.5311 43.3244 87.3665C43.105 87.2019 42.669 87.3665 42.669 87.3665L41.3215 87.9022Z" fill="#DDDDDD"/>
<path d="M31.4757 87.612L30.522 89.8775L34.6151 91.0772H37.7404C37.7404 91.0772 37.4085 89.4702 36.2467 89.3502C35.0849 89.2302 33.5911 87.9106 33.5911 87.9106L31.4757 87.612Z" fill="url(#paint16_linear)"/>
<path d="M41.3215 87.9022V90.3714L46.582 89.3419L48.3345 87.9022C48.3345 87.9022 47.7382 86.3788 46.205 86.9145C44.6719 87.4502 43.5438 87.5311 43.3244 87.3665C43.105 87.2019 42.669 87.3665 42.669 87.3665L41.3215 87.9022Z" fill="url(#paint17_linear)"/>
<path d="M31.1747 49.3833L36.1201 58.8051L42.8715 60.1136L43.06 62.2313L35.8163 63.085C35.8163 63.085 34.8936 63.4728 33.2198 61.358C32.2465 60.1304 30.8962 57.6529 30.8962 57.6529L31.1747 49.3833Z" fill="#DDDDDD"/>
<path d="M43.0572 62.2313L35.8135 63.085C35.8135 63.085 34.8908 63.4728 33.217 61.358C32.2436 60.1304 30.8934 57.6529 30.8934 57.6529L31.1747 49.3833L31.8245 50.622L36.1201 58.8051L42.8715 60.1136L42.9784 61.5449L43.0572 62.2313Z" fill="url(#paint18_linear)"/>
<path d="M42.9756 61.5449H36.5617C36.5617 61.5449 35.6391 61.9327 33.9625 59.8179C32.9919 58.5903 31.6388 56.1128 31.6388 56.1128L31.8245 50.622L36.1201 58.8051L42.8715 60.1137L42.9756 61.5449Z" fill="url(#paint19_linear)"/>
<path d="M87.6644 49.7097C87.6447 49.8017 88.0441 49.5479 88.1117 49.612C88.1727 49.6617 88.247 49.6927 88.3254 49.7013L88.8881 49.8185C89.2538 49.9249 89.6405 49.9393 90.0133 49.8603C90.2816 49.7569 90.5125 49.5762 90.6764 49.3415C90.8403 49.1068 90.9298 48.8289 90.9332 48.5435C90.9277 47.9713 90.744 47.4149 90.4071 46.9504C90.2911 46.7359 90.1166 46.558 89.9036 46.437C89.712 46.3634 89.5068 46.3311 89.3016 46.3421C88.739 46.3421 87.1102 46.4258 87.4112 47.048C87.7741 47.8872 87.8627 48.818 87.6644 49.7097Z" fill="url(#paint20_linear)"/>
<path opacity="0.4" d="M60.1045 4.98018H9.23538V24.7335H60.1045V4.98018Z" fill="#DDDDDD"/>
<path opacity="0.8" d="M57.7415 9.79294H44.2556V10.4932H57.7415V9.79294Z" fill="#DDDDDD"/>
<path opacity="0.8" d="M57.7415 14.5053H44.2556V15.2056H57.7415V14.5053Z" fill="#DDDDDD"/>
<path opacity="0.8" d="M57.7415 15.6799H44.2556V16.3802H57.7415V15.6799Z" fill="#DDDDDD"/>
<path opacity="0.8" d="M53.9242 11.0289H44.2556V11.7292H53.9242V11.0289Z" fill="#DDDDDD"/>
<path d="M14.2117 8.72438H13.1343V20.2471H14.2117V8.72438Z" fill="white"/>
<path d="M16.3272 12.7169H15.2498V20.2471H16.3272V12.7169Z" fill="white"/>
<path d="M18.4032 11.7292H17.3258V20.2471H18.4032V11.7292Z" fill="white"/>
<path d="M20.5187 12.9178H19.4413V20.2471H20.5187V12.9178Z" fill="white"/>
<g opacity="0.8">
<path opacity="0.8" d="M20.5187 16.0816C20.4552 16.0813 20.3938 16.0596 20.3443 16.0203L17.8519 14.0672L16.0374 15.6129L12.9093 11.5618C12.8867 11.5327 12.8702 11.4994 12.8606 11.464C12.8511 11.4285 12.8486 11.3915 12.8534 11.3551C12.8632 11.2816 12.902 11.215 12.9613 11.1698C13.0206 11.1247 13.0956 11.1048 13.1697 11.1144C13.2438 11.1241 13.311 11.1626 13.3566 11.2214L16.1218 14.815L17.835 13.3558L20.6931 15.5878C20.7396 15.6236 20.7736 15.6729 20.7903 15.7288C20.8071 15.7847 20.8057 15.8444 20.7865 15.8995C20.7672 15.9547 20.731 16.0024 20.683 16.0361C20.635 16.0697 20.5775 16.0876 20.5187 16.0872V16.0816Z" fill="#DDDDDD"/>
</g>
<path opacity="0.8" d="M41.8054 15.0354C41.8053 16.3919 41.3997 17.7179 40.6398 18.8457C39.8799 19.9735 38.7999 20.8525 37.5362 21.3715C36.2726 21.8905 34.8821 22.0261 33.5408 21.7613C32.1994 21.4964 30.9673 20.843 30.0004 19.8836C29.0335 18.9243 28.3752 17.7021 28.1087 16.3716C27.8422 15.0411 27.9796 13.6621 28.5033 12.4091C29.0271 11.156 29.9138 10.0852 31.0513 9.33194C32.1888 8.57872 33.5259 8.17698 34.8936 8.17754V15.0354H41.8054Z" fill="#DDDDDD"/>
<path opacity="0.8" d="M42.7281 13.9222H35.8135V7.06432C36.7216 7.06395 37.6209 7.24108 38.46 7.58559C39.2991 7.9301 40.0615 8.43523 40.7036 9.07212C41.3458 9.709 41.8551 10.4652 42.2025 11.2973C42.5498 12.1295 42.7284 13.0215 42.7281 13.9222V13.9222Z" fill="#DDDDDD"/>
<path d="M86.3281 63.0878H35.8135V66.3968H86.3281V63.0878Z" fill="#DDDDDD"/>
<path d="M86.3281 63.0878H35.8135V66.3968H86.3281V63.0878Z" fill="url(#paint21_linear)"/>
<path d="M86.3281 65.1859H35.8135V66.3968H86.3281V65.1859Z" fill="url(#paint22_linear)"/>
<path d="M71.8464 35.2267C73.9449 37.2551 77.0759 39.8498 78.429 42.4305C78.7328 43.0109 78.9916 43.6498 78.9157 44.2971C78.7806 45.3489 77.7904 46.0604 76.8452 46.5598C75.3669 47.3007 73.8407 47.9438 72.2768 48.4849C72.1396 48.5542 71.9821 48.573 71.8323 48.5379C71.7063 48.47 71.6072 48.3618 71.551 48.231C71.0939 47.4234 70.6816 46.5917 70.316 45.7395C70.2624 45.6446 70.2416 45.5348 70.257 45.427C70.3044 45.3146 70.3928 45.2239 70.5045 45.1731C71.7338 44.4561 73.3176 44.2608 74.2319 43.1643C73.4415 42.8117 72.7321 42.3027 72.1473 41.6684C71.5625 41.0342 71.1145 40.2881 70.8308 39.4759C70.181 37.5787 70.1923 35.9772 71.8464 35.2267Z" fill="#DDDDDD"/>
<path d="M71.8464 35.2267C73.9449 37.2551 77.0759 39.8498 78.429 42.4305C78.7328 43.0109 78.9916 43.6498 78.9157 44.2971C78.7806 45.3489 77.7904 46.0604 76.8452 46.5598C75.3669 47.3007 73.8407 47.9438 72.2768 48.4849C72.1396 48.5542 71.9821 48.573 71.8323 48.5379C71.7063 48.47 71.6072 48.3618 71.551 48.231C71.0939 47.4234 70.6816 46.5917 70.316 45.7395C70.2624 45.6446 70.2416 45.5348 70.257 45.427C70.3044 45.3146 70.3928 45.2239 70.5045 45.1731C71.7338 44.4561 73.3176 44.2608 74.2319 43.1643C73.4415 42.8117 72.7321 42.3027 72.1473 41.6684C71.5625 41.0342 71.1145 40.2881 70.8308 39.4759C70.181 37.5787 70.1923 35.9772 71.8464 35.2267Z" fill="url(#paint23_linear)"/>
<path d="M70.2541 45.427C70.2541 45.427 71.174 45.6195 71.4722 46.3449C71.7704 47.0703 71.8323 48.5379 71.8323 48.5379C71.8323 48.5379 71.3006 48.5797 71.1881 48.1305C71.0756 47.6814 69.8322 46.1775 70.2541 45.427Z" fill="black"/>
<path d="M50.9985 33.3825C50.9224 33.4955 50.8227 33.5911 50.7063 33.6627C50.5898 33.7344 50.4593 33.7806 50.3234 33.7982C49.9042 33.8289 49.5582 33.4997 49.2713 33.1956C48.644 32.526 47.997 31.8341 47.6707 30.9775C47.5564 30.6622 47.467 30.3385 47.4034 30.0094C47.2598 29.4816 47.2132 28.9326 47.2656 28.3884C47.3443 27.8499 47.9829 26.6837 48.8493 26.6837C48.9 26.6837 49.5611 28.341 49.6145 28.4191L50.2418 29.284C50.4969 29.0595 50.7035 28.7862 50.8494 28.4805C51.018 28.7139 51.0913 29.0019 51.0548 29.2868C51.0351 29.5658 50.9507 29.8448 50.9029 30.1238C50.8029 30.7037 50.8454 31.299 51.0267 31.8592C51.0998 32.0907 51.322 32.3781 51.3333 32.6181C51.2938 32.8983 51.1781 33.1626 50.9985 33.3825Z" fill="url(#paint24_linear)"/>
<path d="M69.2555 45.7869C69.1627 45.7678 69.067 45.7678 68.9742 45.7869C68.9282 45.798 68.8858 45.8205 68.8509 45.8522C68.816 45.8839 68.7897 45.9238 68.7745 45.9683C68.7323 46.1217 68.8701 46.2473 68.9798 46.3728C69.0045 46.3937 69.0214 46.4222 69.0276 46.4537C69.0276 46.5207 68.9517 46.557 68.887 46.5737L67.3285 46.9671C67.2729 46.9751 67.221 46.9994 67.1795 47.0369C67.1538 47.0684 67.1364 47.1058 67.1288 47.1457C67.0871 47.2966 67.0804 47.4549 67.1091 47.6088C67.1231 47.6395 67.1303 47.6728 67.1303 47.7065C67.1303 47.7401 67.1231 47.7734 67.1091 47.8041C67.0866 47.8376 67.0444 47.8515 67.0163 47.8794C66.9763 47.9282 66.9517 47.9876 66.9457 48.0501C66.9397 48.1127 66.9525 48.1756 66.9825 48.231C67.0926 48.5148 67.2878 48.7582 67.5419 48.9284C67.796 49.0985 68.0966 49.1872 68.4031 49.1824C68.7302 49.1482 69.0515 49.0732 69.3596 48.9592C69.5866 48.8935 69.8178 48.8432 70.0516 48.8085C70.3976 48.7555 70.7858 48.7192 71.0221 48.4598C71.2584 48.2003 71.776 47.8236 71.7732 47.6674C71.7732 47.4247 71.5426 46.2333 71.3456 46.0882C70.974 46.0987 70.6023 46.0688 70.2373 45.999C69.9197 45.8899 69.5901 45.8188 69.2555 45.7869V45.7869Z" fill="url(#paint25_linear)"/>
<path d="M26.1533 46.6212C25.4022 47.5195 23.3599 49.9692 23.1067 51.0991C22.2759 54.8191 21.4479 58.5392 20.6228 62.2592C20.3926 63.1247 20.2689 64.0147 20.2543 64.9097C20.3218 67.8169 23.0364 70.406 25.9676 70.3586C26.954 70.3557 27.9155 70.0517 28.7217 69.4881C29.7428 68.7432 30.3589 67.5769 30.8484 66.4191C31.5235 64.8232 30.5671 63.6849 30.9918 62.0109C31.7064 59.1846 32.6656 53.97 31.8358 51.1717C29.9482 44.7351 26.1533 46.6212 26.1533 46.6212Z" fill="#DDDDDD"/>
<path d="M26.1533 46.6212C25.4022 47.5195 23.3599 49.9692 23.1067 51.0991C22.2759 54.8192 21.4479 58.5392 20.6228 62.2592C20.3926 63.1247 20.2689 64.0147 20.2543 64.9097C20.3218 67.8169 23.0364 70.406 25.9676 70.3586C26.954 70.3557 27.9155 70.0518 28.7217 69.4881C29.7428 68.7432 30.3589 67.577 30.8484 66.4191C31.5235 64.8232 30.567 63.6849 30.9918 62.0109C31.7064 59.1846 32.7247 54.7038 32.0045 51.8775C31.2844 49.0513 29.1914 42.9746 26.1533 46.6212Z" fill="url(#paint26_linear)"/>
<path d="M30.4573 44.9695C30.2492 45.9209 29.7906 47.2461 30.1451 48.5072C30.2885 49.015 27.1351 47.7093 26.7131 47.0006C26.2039 46.1496 27.7708 46.0659 26.6597 44.0153C26.1871 43.142 29.3265 44.9834 30.3167 45.1313" fill="url(#paint27_linear)"/>
<path d="M45.0404 60.1806C45.3844 60.1383 45.7336 60.1824 46.0559 60.309C46.3551 60.4856 46.5919 60.7497 46.7339 61.065C47.0028 61.5354 47.102 62.0825 47.0152 62.6163C47.0019 62.7156 46.9577 62.8083 46.8886 62.8813C46.7678 62.966 46.6182 63.0001 46.4723 62.9762L44.8491 62.926C44.4504 62.9507 44.0526 62.8637 43.7014 62.6749C43.4791 62.527 43.3047 62.2927 43.0431 62.2313C42.8716 62.2049 42.6964 62.2134 42.5283 62.2564C42.191 62.3094 41.8473 62.3094 41.51 62.2564C41.4224 62.2511 41.3392 62.2167 41.2737 62.1587C41.2276 62.0961 41.2011 62.0214 41.1977 61.9439C41.0993 61.2129 41.1527 60.521 41.9179 60.3229C42.8659 60.0774 44.0727 60.2225 45.0404 60.1806Z" fill="url(#paint28_linear)"/>
<path d="M24.2488 49.0401C24.2488 49.0401 19.731 55.8645 19.8548 57.717C19.9786 59.5696 29.3349 64.3154 29.3349 64.3154L30.7612 62.1727L25.7623 56.7908L28.2688 51.6655C28.2688 51.6655 28.4235 46.995 24.2488 49.0401Z" fill="#DDDDDD"/>
<path d="M29.8947 63.5928L29.3321 64.3154C29.3321 64.3154 19.9786 59.5724 19.852 57.717C19.7254 55.8617 24.246 49.0401 24.246 49.0401C25.4163 48.4681 25.9339 48.5602 26.5556 48.7611C26.2743 49.2298 22.4035 55.4767 22.5216 57.2567C22.6116 58.5959 27.256 61.8491 29.8947 63.5928Z" fill="url(#paint29_linear)"/>
<path d="M29.8131 62.2759C29.5565 62.3759 29.3411 62.5583 29.2014 62.794C29.0617 63.0297 29.0057 63.3051 29.0424 63.5761C29.1435 63.9257 29.346 64.2381 29.6247 64.4745C29.9794 64.8241 30.3665 65.1398 30.7808 65.4175C30.9723 65.5587 31.189 65.6628 31.4194 65.7244C32.2352 65.9085 32.9666 65.1664 33.7965 65.0687C33.9481 65.0655 34.0985 65.042 34.2438 64.999C34.3861 64.9259 34.4986 64.8062 34.5622 64.6603C34.6257 64.5144 34.6365 64.3511 34.5926 64.1982C34.4913 63.8939 34.2812 63.6368 34.0018 63.4756C33.6792 63.2662 33.3108 63.1361 32.9272 63.0962C32.6068 63.0966 32.2875 63.0582 31.9764 62.9818C31.6023 62.8479 31.456 62.488 31.0959 62.3317C30.6924 62.1462 30.2315 62.1262 29.8131 62.2759V62.2759Z" fill="url(#paint30_linear)"/>
<path d="M20.5187 66.3968C20.5187 66.3968 18.6058 71.2681 19.852 73.2211C21.0982 75.1742 30.8934 76.9095 30.8934 76.9095L30.7386 85.7399L34.8204 86.1082L35.9766 75.4001C35.9766 75.4001 36.0891 74.2367 34.3591 73.4137C34.3591 73.4137 37.296 74.2786 37.9599 76.4185C38.6237 78.5584 40.4185 85.7427 40.4185 85.7427L43.6254 84.8332C43.6254 84.8332 43.0909 73.3327 41.1893 71.1119C39.2876 68.891 30.8624 66.4247 30.8624 66.4247L20.5187 66.3968Z" fill="#DDDDDD"/>
<path d="M43.6114 84.8332L40.4044 85.7427L40.3735 85.6144C40.3735 85.5726 40.3482 85.5223 40.3341 85.4609C40.3366 85.4509 40.3366 85.4403 40.3341 85.4303C40.3172 85.3605 40.2975 85.2768 40.2722 85.1819C40.2469 85.0871 40.216 84.9643 40.185 84.8388C39.6815 82.8411 38.4718 78.0897 37.9542 76.4185C37.3916 74.5771 35.1271 73.6787 34.511 73.4667H34.4801L34.3872 73.436H34.3619C36.0835 74.259 35.971 75.4197 35.971 75.4197L34.8289 86.1305L30.7471 85.7623L30.9018 76.9319C30.9018 76.9319 21.101 75.1742 19.852 73.2212C18.603 71.2681 20.5187 66.394 20.5187 66.394L27.2701 66.4107H30.8624C31.1184 66.4861 39.3017 68.905 41.1837 71.0952C43.0656 73.2853 43.6114 84.8332 43.6114 84.8332Z" fill="url(#paint31_linear)"/>
<path d="M84.283 42.5756C84.144 42.6897 84.0373 42.8378 83.9736 43.0053C83.9061 43.2982 84.1846 43.5438 84.3534 43.7976C84.781 44.4449 84.5109 45.3545 84.8682 46.0436C85.2254 46.7327 86.0919 46.9894 86.8626 47.1596C87.2445 47.2688 87.6413 47.3178 88.0385 47.3047C89.2481 47.1987 90.0274 46.0157 90.5703 44.9388C90.9444 44.1994 91.3045 43.4294 91.358 42.6035C91.417 41.7023 91.1076 40.8179 90.7588 39.9837C90.6018 39.5154 90.3279 39.0941 89.9627 38.7589C89.4971 38.4547 88.9473 38.3025 88.3901 38.3236C87.4618 38.2902 86.4547 38.4213 85.7852 39.0574C84.7838 40.02 85.1635 41.6326 84.283 42.5756Z" fill="url(#paint32_linear)"/>
<path d="M87.9344 49.3637C86.8092 50.2844 86.7754 51.738 86.8092 53.0354C86.9048 56.5564 87.0258 60.175 88.7221 63.4143C89.2622 64.4493 90.0274 65.4844 91.2539 65.9922C92.0041 66.2689 92.7996 66.4052 93.6 66.394C95.3441 66.4247 97.2036 66.0676 98.3823 65.0241C99.9998 63.6096 99.921 61.3971 99.4428 59.5138C98.7226 56.5843 93.6141 44.6905 87.9344 49.3637Z" fill="#DDDDDD"/>
<path d="M87.9344 49.3637C86.8092 50.2844 86.7754 51.738 86.8092 53.0354C86.9048 56.5564 87.0258 60.175 88.7221 63.4143C89.2622 64.4493 90.0274 65.4844 91.2539 65.9922C92.0041 66.2689 92.7996 66.4052 93.6 66.394C95.3441 66.4247 97.2036 66.0676 98.3823 65.0241C99.9998 63.6096 99.921 61.3971 99.4428 59.5138C98.7226 56.5843 93.6141 44.6905 87.9344 49.3637Z" fill="url(#paint33_linear)"/>
<path d="M88.9837 48.1305L87.2677 49.0457L87.1524 50.4016L88.1117 49.612L89.1581 50.2482L91.3692 48.3677L91.0429 47.4861L88.9837 48.1305Z" fill="#DDDDDD"/>
<path d="M88.9837 48.1305L87.2677 49.0457L87.1524 50.4016L88.1117 49.612L89.1581 50.2482L91.3692 48.3677L91.0429 47.4861L88.9837 48.1305Z" fill="url(#paint34_linear)"/>
<path d="M88.5055 53.133C88.5085 52.3354 88.7906 51.5636 89.3037 50.9494C89.8168 50.3352 90.529 49.9167 91.3186 49.7655C92.2497 49.6037 93.1949 49.7069 93.7828 50.4825C94.8012 51.8273 93.1752 56.9749 92.0387 60.1165C91.7603 60.8819 91.2691 61.5535 90.6219 62.0536C89.9748 62.5537 89.1981 62.862 88.3817 62.9427C87.6334 63.0181 86.8767 63.0739 86.3197 63.0739C84.7416 63.0739 81.3799 63.0013 81.3799 63.0013L81.605 59.2711C81.605 59.2711 86.5954 59.5501 87.6644 58.4341C88.317 57.7561 88.4774 55.1112 88.5055 53.133Z" fill="#DDDDDD"/>
<path d="M96.7647 72.1191C94.6127 73.9354 91.3833 73.1542 88.5702 73.4053C86.5335 73.5894 87.9147 75.375 86.3197 76.6529C84.9132 74.672 81.7147 73.7736 79.8046 72.2614C81.0902 69.1282 83.8695 66.5447 87.2846 65.8723C88.9725 65.5402 90.6941 65.5375 92.4044 65.4984C93.3552 65.4761 94.3061 65.4621 95.2541 65.3728C95.8926 65.3115 97.2739 64.7702 97.8449 64.9264C99.9013 65.4872 98.0756 71.0143 96.7647 72.1191Z" fill="#DDDDDD"/>
<path d="M96.7647 72.1191C94.6127 73.9354 91.3833 73.1542 88.5702 73.4053C86.5335 73.5894 87.9147 75.375 86.3197 76.6529C84.9132 74.672 81.7147 73.7736 79.8046 72.2614C81.0902 69.1282 83.8695 66.5447 87.2846 65.8723C88.9725 65.5402 90.6941 65.5375 92.4044 65.4984C93.3552 65.4761 94.3061 65.4621 95.2541 65.3728C95.8926 65.3115 97.2739 64.7702 97.8449 64.9264C99.9013 65.4872 98.0756 71.0143 96.7647 72.1191Z" fill="url(#paint35_linear)"/>
<path d="M76.0885 83.6921C76.1314 83.414 76.2059 83.1416 76.3107 82.8802C76.4196 82.6443 76.569 82.429 76.7524 82.2441C77.388 82.6402 78.0641 82.9684 78.7694 83.2234C78.8425 83.2513 78.9269 83.2875 78.9466 83.3573C78.9533 83.4013 78.9454 83.4464 78.9241 83.4856C78.685 84.0994 78.4177 84.6993 78.1252 85.2907C78.0942 85.3549 78.052 85.4247 77.9817 85.4386C77.93 85.444 77.8779 85.4333 77.8326 85.4079C77.3319 85.1959 76.6821 85.0062 76.246 84.6937C75.81 84.3812 75.9985 84.1468 76.0885 83.6921Z" fill="black"/>
<path d="M73.3654 83.8232C73.185 83.7499 72.9959 83.6993 72.8028 83.6725C72.6242 83.671 72.448 83.7129 72.2896 83.7946C72.1312 83.8764 71.9954 83.9954 71.8942 84.1413C71.6934 84.4345 71.5432 84.7589 71.4497 85.101C71.377 85.2649 71.3545 85.4463 71.385 85.6228C71.4745 85.8365 71.6409 86.0095 71.852 86.1082C72.915 86.7608 74.0117 87.3578 75.1377 87.8966C75.6791 88.2046 76.2888 88.3752 76.9127 88.3932C77.0304 88.395 77.146 88.3619 77.2447 88.2984C77.3113 88.2389 77.3666 88.168 77.4078 88.0891C77.7458 87.4921 78.0228 86.8631 78.2349 86.2115C78.321 86.0573 78.3454 85.8767 78.3032 85.7055C78.2609 85.5343 78.1552 85.3852 78.007 85.288C77.4444 84.7523 76.7496 84.2166 75.9591 84.0827C75.1095 83.9348 74.2093 84.1022 73.3654 83.8232Z" fill="#DDDDDD"/>
<path d="M82.5474 85.5642C82.5076 85.287 82.4972 85.0065 82.5164 84.7272C82.5469 84.4755 82.6211 84.231 82.7358 84.0046C83.4108 84.2168 84.1068 84.3561 84.8119 84.4203C84.8879 84.4203 84.9722 84.4398 85.0088 84.504C85.0269 84.5442 85.0328 84.5888 85.0257 84.6323C84.9863 85.2824 84.916 85.9297 84.8203 86.5853C84.8207 86.6197 84.813 86.6538 84.7978 86.6847C84.7827 86.7157 84.7606 86.7428 84.7331 86.7639C84.6876 86.7794 84.6381 86.7794 84.5925 86.7639C84.0861 86.6913 83.4475 86.6746 82.9721 86.4849C82.4967 86.2952 82.598 86.0245 82.5474 85.5642Z" fill="black"/>
<path d="M79.9846 86.3956C79.7977 86.3739 79.6089 86.3739 79.422 86.3956C79.2501 86.4438 79.0927 86.5331 78.9637 86.6557C78.8347 86.7783 78.7381 86.9304 78.6822 87.0987C78.5741 87.4359 78.5218 87.7883 78.5275 88.1422C78.5036 88.2433 78.5027 88.3484 78.525 88.4499C78.5473 88.5514 78.5922 88.6466 78.6564 88.7287C78.7205 88.8108 78.8023 88.8776 78.8959 88.9243C78.9894 88.971 79.0923 88.9964 79.197 88.9987C80.4008 89.3304 81.6215 89.5987 82.854 89.8022C83.461 89.9488 84.0952 89.9431 84.6994 89.7855C84.8088 89.7533 84.9066 89.6903 84.9807 89.6041C85.0293 89.5297 85.0618 89.4461 85.0763 89.3586C85.2347 88.6914 85.3233 88.0099 85.3408 87.3247C85.3661 87.1318 85.3276 86.936 85.231 86.7667C85.1335 86.6459 85.0081 86.5502 84.8653 86.4877C84.1649 86.1333 83.3519 85.8097 82.5586 85.899C81.6894 86.0189 80.8708 86.4263 79.9846 86.3956Z" fill="#DDDDDD"/>
<path d="M73.3654 83.8232C73.185 83.7499 72.9959 83.6993 72.8028 83.6725C72.6242 83.671 72.448 83.7129 72.2896 83.7946C72.1312 83.8764 71.9954 83.9954 71.8942 84.1413C71.6934 84.4345 71.5432 84.7589 71.4497 85.101C71.377 85.2649 71.3545 85.4463 71.385 85.6228C71.4745 85.8365 71.6409 86.0095 71.852 86.1082C72.915 86.7608 74.0117 87.3578 75.1377 87.8966C75.6791 88.2046 76.2888 88.3752 76.9127 88.3932C77.0304 88.395 77.146 88.3619 77.2447 88.2984C77.3113 88.2389 77.3666 88.168 77.4078 88.0891C77.7458 87.4921 78.0228 86.8631 78.2349 86.2115C78.321 86.0573 78.3454 85.8767 78.3032 85.7055C78.2609 85.5343 78.1552 85.3852 78.007 85.288C77.4444 84.7523 76.7496 84.2166 75.9591 84.0827C75.1095 83.9348 74.2093 84.1022 73.3654 83.8232Z" fill="url(#paint36_linear)"/>
<path d="M79.9846 86.3956C79.7977 86.3739 79.6089 86.3739 79.422 86.3956C79.2501 86.4438 79.0927 86.5331 78.9637 86.6557C78.8347 86.7783 78.7381 86.9304 78.6822 87.0987C78.5741 87.4359 78.5218 87.7883 78.5275 88.1422C78.5036 88.2433 78.5027 88.3484 78.525 88.4499C78.5473 88.5514 78.5922 88.6466 78.6564 88.7287C78.7205 88.8108 78.8023 88.8776 78.8959 88.9243C78.9894 88.971 79.0923 88.9964 79.197 88.9987C80.4008 89.3304 81.6215 89.5987 82.854 89.8022C83.461 89.9488 84.0952 89.9431 84.6994 89.7855C84.8088 89.7533 84.9066 89.6903 84.9807 89.6041C85.0293 89.5297 85.0618 89.4461 85.0763 89.3586C85.2347 88.6914 85.3233 88.0099 85.3408 87.3247C85.3661 87.1318 85.3276 86.936 85.231 86.7667C85.1335 86.6459 85.0081 86.5502 84.8653 86.4877C84.1649 86.1333 83.3519 85.8097 82.5586 85.899C81.6894 86.0189 80.8708 86.4263 79.9846 86.3956Z" fill="url(#paint37_linear)"/>
<path d="M33.2817 40.9574C33.7233 41.9897 33.94 43.2229 33.3942 44.2022C33.0465 44.7817 32.511 45.2272 31.8751 45.4661C31.2556 45.7355 30.5818 45.8596 29.906 45.8288C28.2744 45.6977 26.4853 43.5744 26.2096 42.8686C26.0008 42.3959 25.857 41.8977 25.782 41.3871C25.7361 40.8779 25.8227 40.3656 26.0335 39.8991C26.2443 39.4326 26.5723 39.0275 26.986 38.7226C28.1112 37.9079 29.6162 37.9749 30.9412 37.8438C31.8161 37.7573 31.8864 38.0865 32.2268 38.823C32.5672 39.5596 32.9694 40.2264 33.2817 40.9574Z" fill="url(#paint38_linear)"/>
<path d="M29.9257 39.2778C29.4354 39.3403 28.9522 39.4487 28.4826 39.6015C28.2483 39.6812 28.0386 39.8193 27.8736 40.0025C27.7085 40.1857 27.5937 40.4079 27.5402 40.6477C27.4727 41.1555 27.799 41.6772 27.6443 42.1655L26.8003 41.3034C26.5964 41.4166 26.4281 41.5838 26.3145 41.7863C26.2008 41.9889 26.1462 42.2188 26.1567 42.4504C26.1672 42.682 26.2424 42.9061 26.374 43.0977C26.5055 43.2893 26.6882 43.4408 26.9016 43.5354C27.0226 43.5884 27.166 43.6386 27.211 43.7614C27.2327 43.8552 27.2218 43.9535 27.1801 44.0404L26.7638 45.2429C25.3477 43.7952 24.3877 41.9696 24.0013 39.9893C23.9072 39.6137 23.8985 39.222 23.976 38.8426C24.0177 38.6538 24.1105 38.4798 24.2443 38.3392C24.378 38.1987 24.5479 38.0968 24.7355 38.0446C24.9152 38.0378 25.0928 38.003 25.2616 37.9414C25.3766 37.8628 25.4726 37.7599 25.5429 37.6401C26.2152 36.672 27.3601 36.1084 28.5247 35.888C29.4699 35.7066 31.8611 35.33 32.4631 36.4041C33.2873 37.8493 31.02 39.0602 29.9257 39.2778Z" fill="black"/>
<path d="M69.2077 35.0649C69.2337 35.397 69.1807 35.7306 69.053 36.0386C68.7857 36.5659 68.1303 36.778 67.5367 36.8031C67.3967 36.8237 67.2539 36.8147 67.1177 36.7767C66.9815 36.7387 66.8549 36.6726 66.7462 36.5827C66.605 36.4027 66.5252 36.1829 66.5184 35.9549C66.4902 35.7178 66.4705 35.4778 66.4593 35.2407C66.4456 35.0953 66.4532 34.9487 66.4818 34.8054C66.5301 34.6297 66.6122 34.4648 66.7237 34.32C67.1849 33.6866 67.8665 33.2453 68.6366 33.0812C69.0952 32.9836 69.1993 33.1007 69.1993 33.5444C69.2189 34.0521 69.2077 34.5571 69.2077 35.0649Z" fill="url(#paint39_linear)"/>
<path d="M70.0319 29.4179C70.1276 29.148 70.2901 28.9062 70.5045 28.7148C70.5407 28.6802 70.5893 28.6612 70.6395 28.6618C70.6876 28.6704 70.7313 28.695 70.7633 28.7316C71.0302 28.9783 71.2039 29.3081 71.2556 29.6662C71.2791 29.8443 71.264 30.0254 71.2111 30.1972C71.1582 30.369 71.0688 30.5276 70.949 30.6623C70.8416 30.79 70.6902 30.8735 70.5242 30.8966C70.4072 30.8952 70.2929 30.8619 70.1936 30.8004C70.0944 30.7389 70.0141 30.6515 69.9616 30.5479C69.8611 30.3357 69.8083 30.1043 69.8069 29.8699C69.7928 29.616 69.8069 29.3119 70.0432 29.1836" fill="url(#paint40_linear)"/>
<path d="M62.5716 33.3239C62.8564 34.0067 63.3403 34.5896 63.9613 34.9979C64.5263 35.2855 65.1548 35.4284 65.7898 35.4137C66.5647 35.4587 67.339 35.3161 68.0459 34.9979C68.8984 34.5351 69.5508 33.7789 69.88 32.872C70.2009 31.9765 70.3618 31.0323 70.3554 30.0819C70.3807 29.0106 70.2907 27.8834 69.6971 26.9906C69.3586 26.5251 68.9189 26.141 68.4106 25.8667C67.9022 25.5924 67.3382 25.4349 66.7603 25.4059C65.1287 25.2831 62.1074 26.0364 61.6039 27.8695C61.4182 28.5474 61.632 29.323 61.7136 30.001C61.8116 31.1482 62.1016 32.2712 62.5716 33.3239V33.3239Z" fill="url(#paint41_linear)"/>
<path d="M60.5406 27.8388C60.6296 28.3751 60.8585 28.8791 61.2044 29.3007C61.4379 29.0217 61.4436 28.6339 61.5083 28.2796C61.5826 27.8615 61.7498 27.465 61.9977 27.1189C62.0576 27.0195 62.1484 26.9422 62.2565 26.8985C62.3417 26.891 62.4275 26.9001 62.5091 26.9255C62.5907 26.9509 62.6664 26.992 62.7319 27.0464C63.1678 27.3037 63.6716 27.4252 64.1779 27.3952C64.4226 27.3895 64.6611 27.3171 64.8671 27.1859C65.0039 27.074 65.1335 26.9538 65.2553 26.826C65.8179 26.3266 66.6843 26.3433 67.4017 26.5805C67.7654 26.6809 68.0937 26.88 68.3497 27.1552C68.6113 27.4677 68.7182 27.8918 68.9967 28.1875C69.1627 28.3605 69.3877 28.5 69.4552 28.7288C69.4778 28.8665 69.4778 29.0068 69.4552 29.1445C69.4277 29.4884 69.4907 29.8336 69.6381 30.1461C69.8885 29.8364 69.8434 29.3761 70.0516 29.0301C70.2091 28.7706 70.4961 28.6144 70.6705 28.3661C70.867 28.0012 70.9258 27.5788 70.8365 27.1748C70.7592 26.5057 70.6265 25.8441 70.4398 25.1966C70.3724 24.9333 70.2723 24.6793 70.1416 24.4405C69.9302 24.1161 69.6491 23.8421 69.3184 23.6381C68.9877 23.434 68.6156 23.305 68.2287 23.2604C67.4537 23.1789 66.6705 23.2251 65.9107 23.3971C65.009 23.5221 64.1322 23.7847 63.3114 24.1755C62.9017 24.3731 62.5363 24.6506 62.2371 24.9914C61.9379 25.3323 61.7111 25.7294 61.5701 26.1592C61.4407 26.6251 61.2298 26.5498 60.9062 26.8427C60.7761 26.9725 60.6759 27.1288 60.6128 27.3008C60.5496 27.4728 60.525 27.6564 60.5406 27.8388V27.8388Z" fill="black"/>
<path d="M26.8228 45.9543L26.1533 46.6211C26.1533 46.6211 27.2786 48.4291 28.9664 48.9006C30.6543 49.3721 30.1535 48.5072 30.1535 48.5072C30.1535 48.5072 27.8777 47.9771 27.5796 47.1122C27.454 46.658 27.1896 46.2535 26.8228 45.9543V45.9543Z" fill="#DDDDDD"/>
<path d="M26.8228 45.9543L26.1533 46.6211C26.1533 46.6211 27.2786 48.4291 28.9664 48.9006C30.6543 49.3721 30.1535 48.5072 30.1535 48.5072C30.1535 48.5072 27.8777 47.9771 27.5796 47.1122C27.454 46.658 27.1896 46.2535 26.8228 45.9543V45.9543Z" fill="url(#paint42_linear)"/>
<path d="M43.6114 84.8332L40.4044 85.7427L40.3735 85.6144C40.3735 85.5726 40.351 85.5223 40.3341 85.4609C40.3366 85.4509 40.3366 85.4403 40.3341 85.4303C40.3172 85.3605 40.2975 85.2768 40.2722 85.1819C40.2469 85.0871 40.216 84.9643 40.185 84.8388C39.6815 82.8411 38.4718 78.0897 37.9542 76.4185C37.3916 74.5771 35.1271 73.6787 34.511 73.4667H34.4801L34.3872 73.436H34.3619L32.2662 71.9796C32.2662 71.9796 27.2729 68.3526 27.6668 66.4805L30.8652 66.447C31.1212 66.5223 39.3045 68.9413 41.1865 71.1314C43.0684 73.3216 43.6114 84.8332 43.6114 84.8332Z" fill="url(#paint43_linear)"/>
<path d="M40.7701 66.3968H38.4043V92.4695H40.7701V66.3968Z" fill="#DDDDDD"/>
<path d="M40.7701 66.3968H38.4043V92.4695H40.7701V66.3968Z" fill="url(#paint44_linear)"/>
<path d="M82.7893 66.3968H80.4235V92.4695H82.7893V66.3968Z" fill="#DDDDDD"/>
<path d="M82.7893 66.3968H80.4235V92.4695H82.7893V66.3968Z" fill="url(#paint45_linear)"/>
<path d="M76.2573 53.5488L76.6961 54.6313L75.5231 56.5424C75.5231 56.5424 73.4836 55.0916 73.0363 54.4918C72.589 53.8919 71.2922 52.2905 72.0601 51.6878C72.8281 51.0852 75.1095 53.1331 75.1095 53.1331C75.1095 53.1331 74.6988 51.7715 75.3908 52.0561C75.5765 52.1342 76.2573 53.5488 76.2573 53.5488Z" fill="url(#paint46_linear)"/>
<path d="M84.4096 38.1256C84.282 38.6676 84.2696 39.2301 84.3731 39.7772C84.3806 40.0111 84.4495 40.239 84.5728 40.4385C84.7327 40.615 84.9393 40.7436 85.1692 40.8095C85.9878 41.1118 86.8504 41.2805 87.7235 41.309C87.8945 41.2932 88.0656 41.3398 88.2045 41.4401C88.3451 41.5712 88.3451 41.7916 88.4436 41.9562C88.6462 42.3078 89.1525 42.2883 89.5688 42.2213C89.6629 44.3633 89.0473 46.4769 87.8163 48.2394C88.4627 48.5042 89.1715 48.5818 89.8606 48.4633C90.5497 48.3448 91.1908 48.035 91.7096 47.5698C91.5689 47.9883 92.1428 48.3537 92.5535 48.2142C92.9642 48.0747 93.2287 47.6562 93.4453 47.2768L93.6506 47.7762C94.4053 47.1761 94.9142 46.3243 95.0825 45.3796C95.2448 44.4381 95.2628 43.4778 95.1359 42.531C95.07 41.493 94.8442 40.4712 94.4664 39.501C94.0802 38.524 93.3509 37.7184 92.4129 37.2327C91.614 36.8561 90.7025 36.8087 89.8192 36.7947C88.3001 36.7808 85.0285 36.1725 84.4096 38.1256Z" fill="black"/>
<path d="M88.1117 49.612L87.3746 49.1684L87.1524 50.4016L88.1117 49.612Z" fill="url(#paint47_linear)"/>
<path d="M42.8687 60.1081C42.8687 60.1081 41.4621 60.2085 41.1808 60.8753C40.8995 61.5421 41.2343 62.4405 41.4087 62.421C41.5831 62.4015 42.548 62.2508 42.548 62.2508C42.548 62.2508 41.5578 62.5633 41.5184 61.8965C41.479 61.2297 41.3524 60.5852 42.8687 60.1081Z" fill="url(#paint48_linear)"/>
<defs>
<linearGradient id="paint0_linear" x1="69.399" y1="43.2257" x2="69.399" y2="77.6322" gradientUnits="userSpaceOnUse">
<stop stop-opacity="0"/>
<stop offset="0.91" stop-opacity="0.8"/>
<stop offset="1"/>
</linearGradient>
<linearGradient id="paint1_linear" x1="3955.4" y1="2744.75" x2="3952.51" y2="3004.11" gradientUnits="userSpaceOnUse">
<stop stop-opacity="0"/>
<stop offset="0.91" stop-opacity="0.8"/>
<stop offset="1"/>
</linearGradient>
<linearGradient id="paint2_linear" x1="76.6933" y1="77.8191" x2="83.2703" y2="77.8191" gradientUnits="userSpaceOnUse">
<stop stop-color="#ECC4D7"/>
<stop offset="0.42" stop-color="#EFD4D1"/>
<stop offset="1" stop-color="#F2EAC9"/>
</linearGradient>
<linearGradient id="paint3_linear" x1="1238.72" y1="3982.54" x2="1287.43" y2="3982.54" gradientUnits="userSpaceOnUse">
<stop stop-color="#ECC4D7"/>
<stop offset="0.42" stop-color="#EFD4D1"/>
<stop offset="1" stop-color="#F2EAC9"/>
</linearGradient>
<linearGradient id="paint4_linear" x1="1933.92" y1="950.089" x2="2077.16" y2="950.089" gradientUnits="userSpaceOnUse">
<stop stop-color="#ECC4D7"/>
<stop offset="0.42" stop-color="#EFD4D1"/>
<stop offset="1" stop-color="#F2EAC9"/>
</linearGradient>
<linearGradient id="paint5_linear" x1="195.706" y1="3587.77" x2="121.17" y2="3570.07" gradientUnits="userSpaceOnUse">
<stop stop-opacity="0"/>
<stop offset="0.91" stop-opacity="0.8"/>
<stop offset="1"/>
</linearGradient>
<linearGradient id="paint6_linear" x1="530.662" y1="659.584" x2="531.497" y2="639.086" gradientUnits="userSpaceOnUse">
<stop stop-opacity="0"/>
<stop offset="0.91" stop-opacity="0.8"/>
<stop offset="1"/>
</linearGradient>
<linearGradient id="paint7_linear" x1="786.448" y1="3454.64" x2="711.912" y2="3436.94" gradientUnits="userSpaceOnUse">
<stop stop-opacity="0"/>
<stop offset="0.91" stop-opacity="0.8"/>
<stop offset="1"/>
</linearGradient>
<linearGradient id="paint8_linear" x1="2199.99" y1="636.721" x2="2200.82" y2="616.223" gradientUnits="userSpaceOnUse">
<stop stop-opacity="0"/>
<stop offset="0.91" stop-opacity="0.8"/>
<stop offset="1"/>
</linearGradient>
<linearGradient id="paint9_linear" x1="675.899" y1="1148.16" x2="697.369" y2="1148.16" gradientUnits="userSpaceOnUse">
<stop stop-color="#ECC4D7"/>
<stop offset="0.42" stop-color="#EFD4D1"/>
<stop offset="1" stop-color="#F2EAC9"/>
</linearGradient>
<linearGradient id="paint10_linear" x1="650.154" y1="1044.54" x2="665.997" y2="1044.54" gradientUnits="userSpaceOnUse">
<stop stop-color="#ECC4D7"/>
<stop offset="0.42" stop-color="#EFD4D1"/>
<stop offset="1" stop-color="#F2EAC9"/>
</linearGradient>
<linearGradient id="paint11_linear" x1="1557.99" y1="1237.66" x2="1567.34" y2="1304.79" gradientUnits="userSpaceOnUse">
<stop stop-opacity="0"/>
<stop offset="0.91" stop-opacity="0.8"/>
<stop offset="1"/>
</linearGradient>
<linearGradient id="paint12_linear" x1="1279.75" y1="1256.3" x2="1309.05" y2="1339.02" gradientUnits="userSpaceOnUse">
<stop stop-opacity="0"/>
<stop offset="0.91" stop-opacity="0.8"/>
<stop offset="1"/>
</linearGradient>
<linearGradient id="paint13_linear" x1="2584.86" y1="3830.72" x2="4650.11" y2="3642.7" gradientUnits="userSpaceOnUse">
<stop stop-opacity="0"/>
<stop offset="0.91" stop-opacity="0.8"/>
<stop offset="1"/>
</linearGradient>
<linearGradient id="paint14_linear" x1="347.177" y1="1034.02" x2="375.477" y2="1034.02" gradientUnits="userSpaceOnUse">
<stop stop-color="#ECC4D7"/>
<stop offset="0.42" stop-color="#EFD4D1"/>
<stop offset="1" stop-color="#F2EAC9"/>
</linearGradient>
<linearGradient id="paint15_linear" x1="377.531" y1="1189.13" x2="396.724" y2="1189.13" gradientUnits="userSpaceOnUse">
<stop stop-color="#ECC4D7"/>
<stop offset="0.42" stop-color="#EFD4D1"/>
<stop offset="1" stop-color="#F2EAC9"/>
</linearGradient>
<linearGradient id="paint16_linear" x1="1052.21" y1="1289.07" x2="1050.34" y2="1331.97" gradientUnits="userSpaceOnUse">
<stop stop-opacity="0"/>
<stop offset="0.91" stop-opacity="0.8"/>
<stop offset="1"/>
</linearGradient>
<linearGradient id="paint17_linear" x1="1271.62" y1="1308.26" x2="1277.11" y2="1351.6" gradientUnits="userSpaceOnUse">
<stop stop-opacity="0"/>
<stop offset="0.91" stop-opacity="0.8"/>
<stop offset="1"/>
</linearGradient>
<linearGradient id="paint18_linear" x1="1772.63" y1="3287.8" x2="1507.67" y2="3326.28" gradientUnits="userSpaceOnUse">
<stop stop-opacity="0"/>
<stop offset="0.91" stop-opacity="0.8"/>
<stop offset="1"/>
</linearGradient>
<linearGradient id="paint19_linear" x1="1732.6" y1="2650.68" x2="1392.51" y2="2972.76" gradientUnits="userSpaceOnUse">
<stop stop-opacity="0"/>
<stop offset="0.91" stop-opacity="0.8"/>
<stop offset="1"/>
</linearGradient>
<linearGradient id="paint20_linear" x1="1260.74" y1="785.682" x2="1305.86" y2="785.682" gradientUnits="userSpaceOnUse">
<stop stop-color="#ECC4D7"/>
<stop offset="0.42" stop-color="#EFD4D1"/>
<stop offset="1" stop-color="#F2EAC9"/>
</linearGradient>
<linearGradient id="paint21_linear" x1="11033.9" y1="772.761" x2="11033.5" y2="931.325" gradientUnits="userSpaceOnUse">
<stop stop-opacity="0"/>
<stop offset="0.91" stop-opacity="0.8"/>
<stop offset="1"/>
</linearGradient>
<linearGradient id="paint22_linear" x1="10998.5" y1="343.367" x2="10998.5" y2="359.474" gradientUnits="userSpaceOnUse">
<stop stop-opacity="0"/>
<stop offset="0.91" stop-opacity="0.8"/>
<stop offset="1"/>
</linearGradient>
<linearGradient id="paint23_linear" x1="2498.34" y1="2487.53" x2="2791.98" y2="2338.34" gradientUnits="userSpaceOnUse">
<stop stop-opacity="0"/>
<stop offset="0.91" stop-opacity="0.8"/>
<stop offset="1"/>
</linearGradient>
<linearGradient id="paint24_linear" x1="811.888" y1="1043.99" x2="871.459" y2="1043.99" gradientUnits="userSpaceOnUse">
<stop stop-color="#ECC4D7"/>
<stop offset="0.42" stop-color="#EFD4D1"/>
<stop offset="1" stop-color="#F2EAC9"/>
</linearGradient>
<linearGradient id="paint25_linear" x1="1308.19" y1="743.964" x2="1391.05" y2="743.964" gradientUnits="userSpaceOnUse">
<stop stop-color="#ECC4D7"/>
<stop offset="0.42" stop-color="#EFD4D1"/>
<stop offset="1" stop-color="#F2EAC9"/>
</linearGradient>
<linearGradient id="paint26_linear" x1="1590.49" y1="6042.17" x2="750.992" y2="6069.75" gradientUnits="userSpaceOnUse">
<stop stop-opacity="0"/>
<stop offset="0.91" stop-opacity="0.8"/>
<stop offset="1"/>
</linearGradient>
<linearGradient id="paint27_linear" x1="510.732" y1="991.614" x2="444.602" y2="1031.15" gradientUnits="userSpaceOnUse">
<stop stop-color="#ECC4D7"/>
<stop offset="0.42" stop-color="#EFD4D1"/>
<stop offset="1" stop-color="#F2EAC9"/>
</linearGradient>
<linearGradient id="paint28_linear" x1="1015.03" y1="779.654" x2="1138.26" y2="779.654" gradientUnits="userSpaceOnUse">
<stop stop-color="#ECC4D7"/>
<stop offset="0.42" stop-color="#EFD4D1"/>
<stop offset="1" stop-color="#F2EAC9"/>
</linearGradient>
<linearGradient id="paint29_linear" x1="1161" y1="3768.82" x2="644.344" y2="3758.02" gradientUnits="userSpaceOnUse">
<stop stop-opacity="0"/>
<stop offset="0.91" stop-opacity="0.8"/>
<stop offset="1"/>
</linearGradient>
<linearGradient id="paint30_linear" x1="712.359" y1="1005.89" x2="823.388" y2="1005.89" gradientUnits="userSpaceOnUse">
<stop stop-color="#ECC4D7"/>
<stop offset="0.42" stop-color="#EFD4D1"/>
<stop offset="1" stop-color="#F2EAC9"/>
</linearGradient>
<linearGradient id="paint31_linear" x1="5272.53" y1="6483.54" x2="2160.54" y2="5714.61" gradientUnits="userSpaceOnUse">
<stop stop-opacity="0"/>
<stop offset="0.91" stop-opacity="0.8"/>
<stop offset="1"/>
</linearGradient>
<linearGradient id="paint32_linear" x1="2571.55" y1="1605.45" x2="2490.16" y2="1787.48" gradientUnits="userSpaceOnUse">
<stop stop-color="#ECC4D7"/>
<stop offset="0.42" stop-color="#EFD4D1"/>
<stop offset="1" stop-color="#F2EAC9"/>
</linearGradient>
<linearGradient id="paint33_linear" x1="4682.58" y1="4355.52" x2="4089.66" y2="4504.07" gradientUnits="userSpaceOnUse">
<stop stop-opacity="0"/>
<stop offset="0.91" stop-opacity="0.8"/>
<stop offset="1"/>
</linearGradient>
<linearGradient id="paint34_linear" x1="1424.39" y1="555.843" x2="1425.7" y2="583.143" gradientUnits="userSpaceOnUse">
<stop stop-opacity="0"/>
<stop offset="0.91" stop-opacity="0.8"/>
<stop offset="1"/>
</linearGradient>
<linearGradient id="paint35_linear" x1="7821.96" y1="3461.75" x2="6038.8" y2="3427.18" gradientUnits="userSpaceOnUse">
<stop stop-opacity="0"/>
<stop offset="0.91" stop-opacity="0.8"/>
<stop offset="1"/>
</linearGradient>
<linearGradient id="paint36_linear" x1="2071.29" y1="1657.35" x2="2056.82" y2="1727.9" gradientUnits="userSpaceOnUse">
<stop stop-opacity="0"/>
<stop offset="0.91" stop-opacity="0.8"/>
<stop offset="1"/>
</linearGradient>
<linearGradient id="paint37_linear" x1="2204.34" y1="1462.61" x2="2202.56" y2="1508.82" gradientUnits="userSpaceOnUse">
<stop stop-opacity="0"/>
<stop offset="0.91" stop-opacity="0.8"/>
<stop offset="1"/>
</linearGradient>
<linearGradient id="paint38_linear" x1="965.565" y1="1445.18" x2="1044.43" y2="1529.16" gradientUnits="userSpaceOnUse">
<stop stop-color="#ECC4D7"/>
<stop offset="0.42" stop-color="#EFD4D1"/>
<stop offset="1" stop-color="#F2EAC9"/>
</linearGradient>
<linearGradient id="paint39_linear" x1="783.047" y1="625.767" x2="799.625" y2="649.671" gradientUnits="userSpaceOnUse">
<stop stop-color="#ECC4D7"/>
<stop offset="0.42" stop-color="#EFD4D1"/>
<stop offset="1" stop-color="#F2EAC9"/>
</linearGradient>
<linearGradient id="paint40_linear" x1="460.841" y1="344.51" x2="468.465" y2="344.51" gradientUnits="userSpaceOnUse">
<stop stop-color="#ECC4D7"/>
<stop offset="0.42" stop-color="#EFD4D1"/>
<stop offset="1" stop-color="#F2EAC9"/>
</linearGradient>
<linearGradient id="paint41_linear" x1="2334.2" y1="1330.54" x2="2240.81" y2="1569.81" gradientUnits="userSpaceOnUse">
<stop stop-color="#ECC4D7"/>
<stop offset="0.42" stop-color="#EFD4D1"/>
<stop offset="1" stop-color="#F2EAC9"/>
</linearGradient>
<linearGradient id="paint42_linear" x1="511.053" y1="678.559" x2="482.541" y2="685.574" gradientUnits="userSpaceOnUse">
<stop stop-opacity="0"/>
<stop offset="0.91" stop-opacity="0.8"/>
<stop offset="1"/>
</linearGradient>
<linearGradient id="paint43_linear" x1="2528.99" y1="5832.98" x2="2068.28" y2="6072.48" gradientUnits="userSpaceOnUse">
<stop stop-opacity="0"/>
<stop offset="0.91" stop-opacity="0.8"/>
<stop offset="1"/>
</linearGradient>
<linearGradient id="paint44_linear" x1="369.594" y1="8328.05" x2="977.919" y2="5910.58" gradientUnits="userSpaceOnUse">
<stop stop-opacity="0"/>
<stop offset="0.91" stop-opacity="0.8"/>
<stop offset="1"/>
</linearGradient>
<linearGradient id="paint45_linear" x1="765.466" y1="7956.25" x2="1349.49" y2="6178.97" gradientUnits="userSpaceOnUse">
<stop stop-opacity="0"/>
<stop offset="0.91" stop-opacity="0.8"/>
<stop offset="1"/>
</linearGradient>
<linearGradient id="paint46_linear" x1="1498.17" y1="1240.64" x2="1455.59" y2="1180.55" gradientUnits="userSpaceOnUse">
<stop stop-color="#ECC4D7"/>
<stop offset="0.42" stop-color="#EFD4D1"/>
<stop offset="1" stop-color="#F2EAC9"/>
</linearGradient>
<linearGradient id="paint47_linear" x1="384.345" y1="269.219" x2="387.616" y2="269.219" gradientUnits="userSpaceOnUse">
<stop stop-opacity="0"/>
<stop offset="0.91" stop-opacity="0.8"/>
<stop offset="1"/>
</linearGradient>
<linearGradient id="paint48_linear" x1="346.59" y1="630.346" x2="336.502" y2="661.368" gradientUnits="userSpaceOnUse">
<stop stop-opacity="0"/>
<stop offset="0.91" stop-opacity="0.8"/>
<stop offset="1"/>
</linearGradient>
</defs>
</svg>
