<svg width="158" height="95" viewBox="0 0 158 95" fill="none" xmlns="http://www.w3.org/2000/svg">
<g clip-path="url(#clip0)">
<path d="M148.609 94.637C161.578 94.637 172.091 93.188 172.091 91.4005C172.091 89.613 161.578 88.164 148.609 88.164C135.641 88.164 125.128 89.613 125.128 91.4005C125.128 93.188 135.641 94.637 148.609 94.637Z" fill="#E6E6E6"/>
<path d="M23.5497 94.9787C36.5559 94.9787 47.0994 93.5296 47.0994 91.7421C47.0994 89.9546 36.5559 88.5056 23.5497 88.5056C10.5436 88.5056 0 89.9546 0 91.7421C0 93.5296 10.5436 94.9787 23.5497 94.9787Z" fill="#E6E6E6"/>
<path d="M39.2452 43.4277L39.851 44.6795C39.851 44.6795 43.2894 49.2683 41.1653 49.9872C39.0412 50.706 37.9141 45.635 37.9141 45.635L37.3525 44.9252L39.2452 43.4277Z" fill="#FFB8B8"/>
<path d="M35.2845 19.7237L35.8497 19.4846C35.8497 19.4846 36.5185 19.7237 36.5185 20.7521C36.5185 21.7805 35.6958 36.7949 35.6958 36.7949L37.3412 45.022L35.0788 45.4333L31.5823 37.8233L35.2845 19.7237Z" fill="#575A89"/>
<path d="M35.2847 19.7237L35.8499 19.4846C35.8499 19.4846 36.5188 19.7237 36.5188 20.7521C36.5188 21.7805 35.6961 36.7949 35.6961 36.7949L40.1181 43.8908L37.2386 45.9475L31.5825 37.8233L35.2847 19.7237Z" fill="#575A89"/>
<path d="M34.8731 43.5823C34.8731 43.5823 37.5469 44.6106 37.3412 46.4617C37.1355 48.3128 34.4617 85.129 34.4617 85.129L35.2844 89.2425L27.4687 89.4482L27.263 62.9159L21.7098 89.4482H13.894L19.4473 42.7596L34.8731 43.5823Z" fill="#2F2E41"/>
<path d="M34.2562 88.4198L36.1073 90.2709C36.1073 90.2709 40.4265 91.0936 39.3981 92.5333C38.3698 93.973 27.6746 92.122 27.6746 92.122L27.8802 88.8311L34.2562 88.4198Z" fill="#2F2E41"/>
<path d="M20.8873 88.4198L22.7384 90.2709C22.7384 90.2709 27.0576 91.0936 26.0292 92.5333C25.0009 93.973 14.3057 92.122 14.3057 92.122L14.5113 88.8311L20.8873 88.4198Z" fill="#2F2E41"/>
<path d="M28.2915 12.3194C31.0177 12.3194 33.2277 10.1093 33.2277 7.38311C33.2277 4.6569 31.0177 2.44687 28.2915 2.44687C25.5653 2.44687 23.3552 4.6569 23.3552 7.38311C23.3552 10.1093 25.5653 12.3194 28.2915 12.3194Z" fill="#FFB8B8"/>
<path d="M31.3767 10.2625L30.9653 18.6953L24.5894 14.9932L25.412 10.2625H31.3767Z" fill="#FFB8B8"/>
<path d="M24.3838 12.9364L30.3483 17.2557L31.3767 14.1704L33.2278 19.1067L32.1993 27.9509L24.3838 12.9364Z" fill="#CFCCE0"/>
<path d="M24.3838 12.3194L30.9655 21.3691L31.2038 13.8092L33.2279 15.4045V17.0499L36.1074 19.7237L35.079 30.0076L34.8733 42.1425C34.8733 42.1425 36.1074 43.1709 35.696 43.7879C35.2847 44.4049 33.6393 45.8447 31.7882 45.8447C29.9371 45.8447 18.4192 44.4049 18.4192 43.5822C18.4192 42.7595 18.8305 32.0643 18.8305 32.0643V17.6669L23.7668 13.9648L24.3838 12.3194Z" fill="#575A89"/>
<path d="M18.0076 46.4616L20.6814 50.3695L21.7098 45.8446L20.4758 45.022L18.0076 46.4616Z" fill="#FFB8B8"/>
<path opacity="0.2" d="M30.9779 52.3551L27.0239 63.0652L27.4099 63.2077L31.3639 52.4976L30.9779 52.3551Z" fill="black"/>
<path d="M25.3093 2.54971C25.3093 2.54971 25.9263 -0.535439 29.4228 0.0815907L29.0115 0.287265C29.0115 0.287265 32.3023 -0.124088 31.891 1.727C31.891 1.727 34.5648 3.37242 33.9477 5.22351C33.5849 6.29638 33.3098 7.39694 33.125 8.51434L32.508 7.89731C32.508 7.89731 31.891 3.78377 28.1888 4.19513C25.4122 4.50364 24.2809 5.81483 23.9917 6.75966C23.8585 7.20392 23.6886 7.6363 23.4836 8.05232L23.2525 8.10299C23.2525 8.10299 22.0185 3.57809 25.3093 2.54971Z" fill="#777777"/>
<path d="M21.0929 17.4613L19.2205 17.3744L18.8304 17.6669C18.3827 18.1144 17.9701 18.5958 17.5964 19.1067C17.185 19.7237 11.8374 34.7381 11.8374 34.7381C11.7382 35.65 11.88 36.572 12.2488 37.4119C12.8658 38.8517 17.802 47.4901 17.802 47.4901L21.5042 45.2276L16.568 35.1495L20.0645 30.2132L21.0929 17.4613Z" fill="#575A89"/>
<path d="M141.631 81.9924V87.5325H144.955L145.398 81.9924H141.631Z" fill="#A0616A"/>
<path d="M149.498 82.3248L150.827 85.4272L153.043 86.3136L153.486 80.1088L151.713 79.2226L149.498 82.3248Z" fill="#A0616A"/>
<path d="M152.378 84.9841C152.378 84.9841 152.19 83.5852 150.29 84.1739L150.605 88.308C150.605 88.308 149.054 92.9616 151.27 92.5184C153.486 92.0752 154.816 87.8648 154.816 87.8648L156.367 80.7737L152.621 79.6764L152.378 84.9841Z" fill="#2F2E41"/>
<path d="M138.418 38.0053C138.418 38.0053 135.315 61.4947 136.423 64.1538C137.531 66.813 149.165 83.9869 149.165 83.9869L154.262 77.3389L142.85 63.0459L153.486 48.4204L154.373 39.5565L138.418 38.0053Z" fill="#2F2E41"/>
<path d="M150.605 46.4259L153.531 47.974L153.486 48.4203L146.284 84.43L140.744 83.322L144.401 57.949L150.605 46.4259Z" fill="#2F2E41"/>
<path d="M141.298 85.8704L139.969 87.8648C139.969 87.8648 137.088 92.7399 140.19 92.7399C143.293 92.7399 144.622 92.7399 144.844 91.632C145.007 90.8769 145.229 90.1359 145.509 89.416L145.287 86.5352L141.298 85.8704Z" fill="#2F2E41"/>
<path d="M149.941 12.5216C152.633 12.5216 154.816 10.3389 154.816 7.64641C154.816 4.95394 152.633 2.77126 149.941 2.77126C147.248 2.77126 145.066 4.95394 145.066 7.64641C145.066 10.3389 147.248 12.5216 149.941 12.5216Z" fill="#A0616A"/>
<path d="M145.952 9.1976C145.952 9.1976 146.617 12.9648 144.623 13.6296C142.628 14.2944 147.06 23.1583 147.06 23.1583L152.157 14.7375C152.157 14.7375 150.827 11.8568 151.714 10.5272L145.952 9.1976Z" fill="#A0616A"/>
<path d="M147.06 19.3911L145.857 12.1698L143.514 13.6295L137.31 17.1751L139.747 27.5902L138.861 34.0165C138.861 34.0165 137.753 36.0109 137.974 36.8973C138.196 37.7837 137.753 38.2269 137.974 38.4485C138.196 38.6701 149.276 40.4429 152.6 41.7725C155.924 43.102 156.367 43.5452 156.145 42.4372C155.924 41.3293 153.486 36.0109 153.486 36.0109L155.481 27.147L158.14 19.3911L151.684 13.4333L147.06 19.3911Z" fill="#575A89"/>
<path d="M156.589 29.1414L158.14 33.3517L154.151 40.6645L152.849 41.6768C152.644 41.8367 152.49 42.0534 152.406 42.3001C152.323 42.5468 152.314 42.8126 152.38 43.0645L153.265 46.426L155.583 42.9827C155.583 42.9827 161.907 35.3461 161.685 33.3517C161.464 31.3574 160.799 28.255 160.799 28.255L156.589 29.1414Z" fill="#A0616A"/>
<path d="M134.651 25.5958L133.543 31.1357L129.332 41.5508C129.332 41.5508 124.679 45.9828 126.895 46.8692C129.111 47.7556 131.77 42.4372 131.77 42.4372L137.088 32.4653L139.083 26.4822L134.651 25.5958Z" fill="#A0616A"/>
<path d="M155.702 18.9479L157.486 18.7877L158.14 19.3911C158.14 19.3911 161.907 27.8118 161.464 28.6982C161.021 29.5846 156.589 30.0278 156.589 30.0278L154.816 24.7094L155.702 18.9479Z" fill="#575A89"/>
<path d="M138.861 17.3967L137.761 16.9169L137.31 17.1751C137.31 17.1751 132.878 26.039 133.986 26.4822C135.094 26.9254 140.412 27.5902 140.412 27.5902L138.861 17.3967Z" fill="#575A89"/>
<path opacity="0.2" d="M143.514 64.1L142.163 73.474L140.906 71.5426L143.514 64.1Z" fill="black"/>
<path d="M153.109 4.75918C153.109 4.75918 153.6 6.05153 151.321 5.38903C151.321 5.38903 150.419 5.82915 150.471 5.078C150.471 5.078 149.227 6.24904 148.99 5.47768C148.753 4.70632 148.105 5.66741 148.105 5.66741L147.614 4.37506L146.983 5.08577L144.958 4.94426C144.958 4.94426 144.73 -0.103812 151.636 0.882148C158.543 1.86811 154.574 9.56353 154.574 9.56353C154.574 9.56353 154.617 8.13545 153.986 8.84616C153.355 9.55687 153.109 4.75918 153.109 4.75918Z" fill="#444444"/>
<path d="M40.8879 44.5601V65.8388H129.775V44.5601H40.8879ZM94.1442 62.2686H46.3861V59.2696H94.1442V62.2686ZM94.1442 56.699H46.3861V53.7H94.1442V56.699ZM124.277 51.1294H46.3861V48.1304H124.277V51.1294Z" fill="#E5E5E5"/>
<path d="M89.878 35.1676H77.8821V23.1714H86.0222V23.4572H78.1677V34.882H89.5924V29.1695H89.878V35.1676Z" fill="#3F3D56"/>
<path d="M83.8184 32.0385C83.5412 31.22 80.0649 28.4375 82.1951 27.9698L83.942 30.2991L91.9736 22.2677L92.7813 23.0755L83.8184 32.0385Z" fill="#E5E5E5"/>
</g>
<defs>
<clipPath id="clip0">
<rect width="172.248" height="95" fill="white"/>
</clipPath>
</defs>
</svg>
