<svg width="87" height="90" viewBox="0 0 87 90" fill="none" xmlns="http://www.w3.org/2000/svg">
<path d="M44.6751 52.1506L44.3253 53.0375C44.3253 53.0375 45.3748 53.9646 44.6751 54.3627C44.6751 54.3627 48.3168 54.1374 44.6751 52.1506Z" fill="#3F3D56"/>
<path d="M3.05281 80.873L2.62952 82.0707L6.09979 83.6927C6.09979 83.6927 9.32518 84.0978 10.3169 83.2492C10.9186 82.72 11.3582 82.0319 11.5851 81.2641L3.05281 80.873Z" fill="#333333"/>
<path d="M12.1536 69.6361C12.1536 69.6361 16.243 69.5646 17.4394 71.0469C18.6358 72.5292 14.3365 76.9184 14.3365 76.9184L4.42065 77.6168L12.1536 69.6361Z" fill="#DDDDDD"/>
<path d="M12.1536 69.6361C12.1536 69.6361 16.243 69.5646 17.4394 71.0469C18.6358 72.5292 14.3365 76.9184 14.3365 76.9184L4.42065 77.6168L12.1536 69.6361Z" fill="url(#paint0_linear)"/>
<path d="M12.0066 76.0001C12.0066 76.0001 20.5983 76.7736 22.092 77.3235C24.9151 78.3833 24.0756 82.3431 22.7917 82.7656C21.7265 83.1235 13.6245 86.0829 11.034 87.0309C10.8193 87.1084 10.583 87.1007 10.3737 87.0094C10.1645 86.9181 9.9983 86.7502 9.90935 86.5403L9.0208 84.426C8.97205 84.3102 8.94823 84.1855 8.95089 84.06C8.95355 83.9345 8.98262 83.8109 9.03623 83.6973C9.08983 83.5837 9.16677 83.4826 9.26205 83.4006C9.35732 83.3186 9.4688 83.2575 9.58926 83.2213L14.6862 81.7076C14.6862 81.7076 7.11949 82.4688 5.59075 82.1301C2.20619 81.3898 -1.13115 77.0669 0.645966 73.2922C2.42308 69.5174 12.0066 76.0001 12.0066 76.0001Z" fill="#DDDDDD"/>
<path d="M12.0066 76.0001C12.0066 76.0001 20.5983 76.7736 22.092 77.3235C24.9151 78.3833 24.0756 82.3431 22.7917 82.7656C21.7265 83.1235 13.6245 86.0829 11.034 87.0309C10.8193 87.1084 10.583 87.1007 10.3737 87.0094C10.1645 86.9181 9.9983 86.7502 9.90935 86.5403L9.0208 84.426C8.97205 84.3102 8.94823 84.1855 8.95089 84.06C8.95355 83.9345 8.98262 83.8109 9.03623 83.6973C9.08983 83.5837 9.16677 83.4826 9.26205 83.4006C9.35732 83.3186 9.4688 83.2575 9.58926 83.2213L14.6862 81.7076C14.6862 81.7076 7.11949 82.4688 5.59075 82.1301C2.20619 81.3898 -1.13115 77.0669 0.645966 73.2922C2.42308 69.5174 12.0066 76.0001 12.0066 76.0001Z" fill="url(#paint1_linear)"/>
<path d="M34.4515 54.6595L34.0544 56.2099L36.0904 58.01C36.0904 58.01 35.508 58.01 35.0409 58.9179L34.8555 60.903C34.8555 60.903 36.2234 63.8571 39.998 61.2749L46.1199 66.6768L59.6984 61.9034L59.9888 60.0562L34.4515 54.6595Z" fill="#3F3D56"/>
<path d="M71.2636 56.1418L64.5084 53.4932C64.0916 53.2601 63.6246 53.1311 63.147 53.1171C62.6694 53.1031 62.1956 53.2046 61.7658 53.4129C61.3852 53.5926 61.0611 53.8726 60.8283 54.2228C60.5956 54.573 60.4631 54.9799 60.4452 55.3998C60.2126 57.9489 61.5874 69.6815 61.5874 69.6815C62.0944 69.8774 62.6228 70.0128 63.1616 70.0849C63.6342 70.1788 64.1217 70.1682 64.5898 70.0539C65.0579 69.9396 65.4952 69.7243 65.871 69.4231L66.0022 60.5974C66.0022 60.5974 73.6161 65.2923 76.3325 64.9012C79.3725 64.4647 84.2631 61.975 80.959 56.2012C77.6549 50.4274 71.2636 56.1418 71.2636 56.1418Z" fill="#DDDDDD"/>
<path d="M71.2636 56.1418L64.5084 53.4932C64.0916 53.2601 63.6246 53.1311 63.147 53.1171C62.6694 53.1031 62.1956 53.2046 61.7658 53.4129C61.3852 53.5926 61.0611 53.8726 60.8283 54.2228C60.5956 54.573 60.4631 54.9799 60.4452 55.3998C60.2126 57.9489 61.5874 69.6815 61.5874 69.6815C62.0944 69.8774 62.6228 70.0128 63.1616 70.0849C63.6342 70.1788 64.1217 70.1682 64.5898 70.0539C65.0579 69.9396 65.4952 69.7243 65.871 69.4231L66.0022 60.5974C66.0022 60.5974 73.6161 65.2923 76.3325 64.9012C79.3725 64.4647 84.2631 61.975 80.959 56.2012C77.6549 50.4274 71.2636 56.1418 71.2636 56.1418Z" fill="url(#paint2_linear)"/>
<path d="M65.6664 40.6169C65.6664 40.6169 63.6829 46.9198 63.1477 48.2711C62.6125 49.6225 53.2336 50.7469 53.2336 50.7469L53.5835 54.7922L64.2636 53.4688L67.475 48.8333L65.6664 40.6169Z" fill="#DDDDDD"/>
<path opacity="0.61" d="M65.6664 40.6169C65.6664 40.6169 63.6829 46.9198 63.1477 48.2711C62.6125 49.6225 53.2336 50.7469 53.2336 50.7469L53.5835 54.7922L64.2636 53.4688L67.475 48.8333L65.6664 40.6169Z" fill="url(#paint3_linear)"/>
<path d="M71.0083 38.5253L73.1824 39.73C77.2212 41.53 78.6887 45.537 80.9625 56.2291C80.9625 56.2291 79.0525 60.4927 72.021 57.6258C72.021 57.6258 67.2494 50.6665 66.4623 48.0581C65.6752 45.4497 63.6934 40.9609 67.3368 39.2446C70.9803 37.5284 71.0083 38.5253 71.0083 38.5253Z" fill="#DDDDDD"/>
<path opacity="0.05" d="M75.6697 47.7054L78.3179 57.68C78.3179 57.68 75.6155 59.3246 72.0035 57.6206C68.3916 55.9166 69.6702 54.2213 68.5052 52.1506L72.0437 50.2301L75.6697 47.7054Z" fill="#000405"/>
<path d="M70.7021 38.094C70.5662 38.3878 70.3736 38.6519 70.1353 38.8713C69.897 39.0906 69.6178 39.261 69.3135 39.3725C69.0092 39.4841 68.6859 39.5347 68.362 39.5214C68.0382 39.5082 67.7201 39.4313 67.426 39.2952L67.3245 39.2464C67.3245 39.2464 65.2815 42.8028 68.1991 42.3786C69.7453 42.1533 71.0992 39.8557 71.358 38.6912L70.7021 38.094Z" fill="#333333"/>
<path d="M70.8334 35.2412C70.8334 35.2813 70.7407 37.036 70.669 38.3001C70.6166 39.2781 70.1961 40.2004 69.4918 40.8823C69.0836 41.3055 68.5932 41.6412 68.0505 41.8688C67.9196 41.9174 67.7778 41.9289 67.6408 41.9021C67.5037 41.8753 67.3767 41.8112 67.2739 41.7169C67.1707 41.622 67.0956 41.5007 67.0567 41.3662C67.0179 41.2316 67.0167 41.089 67.0535 40.9539C67.1235 40.6903 67.1934 40.3865 67.2494 40.0687C67.3649 39.4087 67.4243 38.6946 67.2372 38.1901C67.2318 38.1711 67.2254 38.1524 67.2179 38.1342C67.113 37.8741 67.2179 37.5895 67.4646 37.3031C67.8039 36.9016 68.3986 36.4948 68.9933 36.1508C69.5894 35.8139 70.2037 35.5102 70.8334 35.2412Z" fill="url(#paint4_linear)"/>
<path d="M67.6394 39.9343C67.5182 39.9956 67.3894 40.0408 67.2564 40.0687C67.3718 39.4087 67.4313 38.6947 67.2441 38.1901L67.4715 37.3031L67.6464 36.6432L69.0073 36.1508L70.3838 35.6532C70.041 38.094 68.7344 39.4227 67.6394 39.9343Z" fill="url(#paint5_linear)"/>
<path d="M67.2914 28.2889C66.2568 28.3505 65.289 28.8194 64.6003 29.5925C63.9117 30.3657 63.5585 31.38 63.6182 32.4128C63.6182 32.5123 63.634 32.6118 63.6479 32.7113C63.7703 34.296 64.1779 35.8455 64.8513 37.2857C66.1265 39.4576 69.3448 37.6698 69.8538 36.7759C70.3628 35.882 72.2869 31.8366 71.4805 30.6861C70.947 29.9039 69.3798 28.2068 67.2914 28.2889Z" fill="url(#paint6_linear)"/>
<path d="M63.8945 26.7524L64.5557 27.0912C64.1612 27.082 63.7702 27.1667 63.4149 27.3382C63.0597 27.5098 62.7504 27.7632 62.5127 28.0776C61.9089 28.6805 61.5649 29.4949 61.5542 30.3473L62.6789 29.8235C62.6789 29.8235 62.5932 31.2063 64.7201 31.3128C66.8471 31.4193 69.1017 31.5049 69.1017 31.5049L68.3846 30.5062C68.3846 30.5062 69.7051 31.03 69.9378 31.5258C70.1463 32.3086 70.296 33.1058 70.3856 33.9108C70.3856 33.9108 70.9103 32.5455 71.1324 32.844C71.3546 33.1426 70.9016 34.3804 70.6235 34.6511C70.3453 34.9217 70.3926 35.737 70.3663 35.8034C70.3401 35.8697 71.6887 34.7558 71.7481 34.3735C71.8076 33.9911 73.1474 30.1169 72.2729 29.3102L72.7976 29.2718C72.4834 29.0585 72.1244 28.9199 71.7481 28.8668C71.7481 28.8668 68.2691 24.2767 63.8945 26.7524Z" fill="#333333"/>
<path d="M53.2213 51.2532C52.548 51.1356 51.8861 50.9604 51.243 50.7294C50.2124 50.4623 49.1577 50.298 48.0946 50.2388C48.0946 50.2388 47.8899 50.9372 48.4444 51.0803C48.9989 51.2235 49.6338 51.4575 49.6338 51.4575L47.3215 51.6897L45.1805 51.9812C45.1805 51.9812 45.3852 52.6796 45.9607 52.6796C46.127 52.9804 46.3511 53.2456 46.6201 53.4601C47.0272 53.8276 47.405 54.2263 47.75 54.6525C48.0405 54.8815 48.3501 55.0854 48.6753 55.2619C48.7942 55.2619 53.3017 54.7381 53.5728 54.3086L53.2213 51.2532Z" fill="url(#paint7_linear)"/>
<path d="M72.0246 57.6259C72.0246 57.6259 72.7242 61.102 73.7614 61.9767C73.7614 61.9767 66.9608 67.2739 66.6442 71.1062C66.2017 76.4034 82.9356 68.1888 82.9356 68.1888L81.7777 65.2626L74.5223 68.4734C74.5223 68.4734 78.9371 65.4948 81.1375 62.5145C82.8622 60.1505 81.9246 57.975 80.9626 56.285C80.9451 56.2291 76.7804 59.6651 72.0246 57.6259Z" fill="#DDDDDD"/>
<path d="M72.0246 57.6259C72.0246 57.6259 72.7242 61.102 73.7614 61.9767C73.7614 61.9767 66.9608 67.2739 66.6442 71.1062C66.2017 76.4034 82.9356 68.1888 82.9356 68.1888L81.7777 65.2626L74.5223 68.4734C74.5223 68.4734 78.9371 65.4948 81.1375 62.5145C82.8622 60.1505 81.9246 57.975 80.9626 56.285C80.9451 56.2291 76.7804 59.6651 72.0246 57.6259Z" fill="url(#paint8_linear)"/>
<path d="M81.7584 65.2608L83.0143 64.8296L83.6352 66.4725L82.2482 67.4188L81.7584 65.2608Z" fill="url(#paint9_linear)"/>
<path d="M63.2963 70.8077L63.1774 70.0796C63.6503 70.1544 64.1334 70.1338 64.5982 70.0189C65.063 69.9041 65.4999 69.6973 65.8833 69.4109L65.9567 70.6034C65.5629 70.8498 65.1151 70.9971 64.6517 71.0326C64.1883 71.0682 63.7232 70.991 63.2963 70.8077V70.8077Z" fill="url(#paint10_linear)"/>
<path d="M63.2666 70.5842L60.2931 71.6562C60.2931 71.6562 58.6402 71.2529 58.3096 72.18C58.0928 72.6557 58.0715 73.1972 58.2501 73.6885C58.2501 73.6885 59.0302 74.3868 60.9735 73.98C62.9168 73.5732 66.095 72.5833 66.095 72.5833L65.976 70.6436C65.549 70.8378 65.0836 70.9333 64.6145 70.923C64.1454 70.9127 63.6847 70.7969 63.2666 70.5842V70.5842Z" fill="#333333"/>
<path d="M83.2521 64.4525C83.2521 64.4525 82.5052 64.758 82.591 64.9553C82.6767 65.1526 82.9408 64.7179 83.609 66.4795L83.1804 66.792L84.111 68.7771C83.8664 68.9614 83.6723 69.2042 83.5467 69.4831C83.421 69.762 83.3679 70.0681 83.3921 70.3729C83.4848 70.8566 84.3436 70.9229 85.031 70.6855C85.7184 70.448 86.0158 68.9238 86.0158 68.9238C86.0158 68.9238 85.5662 65.2696 84.6409 64.6602C83.7157 64.0509 83.2521 64.4525 83.2521 64.4525Z" fill="#333333"/>
<path d="M60.8283 60.7388L46.7898 65.1543L40.353 59.8187C37.7591 62.4656 34.6369 60.4804 35.0654 58.9353C35.4939 57.3901 38.3713 57.9488 38.3713 57.9488L34.4707 54.6787L41.7681 52.8455C41.8135 53.1021 42.1179 54.347 43.8898 54.4465C45.8715 54.56 46.321 52.9502 44.6751 52.1628L49.3033 50.9599L60.8283 60.7388Z" fill="#DDDDDD"/>
<path opacity="0.05" d="M57.0782 59.0051C56.9822 59.0308 56.8916 59.0734 56.8106 59.1309C56.7357 59.2026 56.6689 59.2822 56.6112 59.3683C56.3523 59.6896 55.9308 59.817 55.5477 59.9689C55.1148 60.1396 54.7038 60.3612 54.3233 60.6289C54.2661 60.6613 54.2213 60.7116 54.1956 60.772C54.1379 60.9588 54.4282 61.0514 54.5262 61.2207C54.5551 61.2844 54.5648 61.3551 54.5543 61.4242C54.5437 61.4933 54.5133 61.5579 54.4667 61.6101C54.3726 61.7131 54.2606 61.7983 54.1361 61.8615C53.4699 62.2674 52.888 62.7973 52.422 63.4224C54.5382 62.3235 56.7442 61.4065 59.0162 60.6812C59.1931 60.6372 59.3592 60.5576 59.5042 60.4473C59.5759 60.391 59.6286 60.3141 59.6552 60.227C59.6818 60.1399 59.681 60.0468 59.6529 59.9602C59.6144 59.8746 59.7491 59.8519 59.6791 59.7856C59.3381 59.4818 58.7643 58.9737 58.3078 58.6018C58.3148 58.6053 57.4368 58.8864 57.0782 59.0051Z" fill="#000405"/>
<path d="M75.7309 41.6174C75.4817 41.3244 75.1583 41.1033 74.7945 40.9772C74.4307 40.8511 74.0397 40.8246 73.6622 40.9003C73.2846 40.976 72.9343 41.1513 72.6475 41.4079C72.3608 41.6645 72.1481 41.993 72.0315 42.3594C71.9056 42.7627 71.7727 43.2463 71.6415 43.8417C70.9418 47.0594 67.7741 54.0572 67.7741 54.0572L58.5737 59.0174L61.0925 62.2351L71.8671 56.938C71.8671 56.938 76.6387 46.4169 76.553 44.4109C76.5812 43.4164 76.2934 42.4386 75.7309 41.6174V41.6174Z" fill="#DDDDDD"/>
<path opacity="0.61" d="M75.7309 41.6174C75.4817 41.3244 75.1583 41.1033 74.7945 40.9772C74.4307 40.8511 74.0397 40.8246 73.6622 40.9003C73.2846 40.976 72.9343 41.1513 72.6475 41.4079C72.3608 41.6645 72.1481 41.993 72.0315 42.3594C71.9056 42.7627 71.7727 43.2463 71.6415 43.8417C70.9418 47.0594 67.7741 54.0572 67.7741 54.0572L58.5737 59.0174L61.0925 62.2351L71.8671 56.938C71.8671 56.938 76.6387 46.4169 76.553 44.4109C76.5812 43.4164 76.2934 42.4386 75.7309 41.6174V41.6174Z" fill="url(#paint11_linear)"/>
<path d="M59.3607 59.4678C58.696 59.6463 58.0172 59.7678 57.3317 59.831C56.2834 60.0208 55.2564 60.3132 54.2655 60.7039C54.2655 60.7039 54.3705 61.4198 54.9267 61.3202C55.4829 61.2207 56.1616 61.1753 56.1616 61.1753L54.1798 62.3608L52.3555 63.5254C52.3555 63.5254 52.8312 64.0753 53.3525 63.8292C53.6323 64.0318 53.949 64.1782 54.2848 64.2604C54.806 64.4223 55.3142 64.6237 55.8048 64.8628C56.1649 64.9493 56.5318 65.0048 56.9015 65.0286C57.0082 64.9815 60.914 62.5983 60.9402 62.1024L59.3607 59.4678Z" fill="url(#paint12_linear)"/>
<path d="M28.6216 58.1898L31.98 59.5132V61.5001C31.98 61.5001 27.957 61.5856 27.957 63.3263C27.957 65.067 31.7508 66.4324 34.2941 64.1085L40.0837 67.4258L39.8738 69.1263L22.2705 75.4833L12.1851 63.2006V61.2155L28.6216 58.1898Z" fill="#3F3D56"/>
<path d="M28.6216 56.2291L31.9869 59.5062C31.9869 59.5062 27.9639 59.5935 27.9639 61.3342C27.9639 63.0749 31.7578 64.4402 34.301 62.1147L40.0907 67.4118L22.4559 73.6169L12.1851 61.2487L19.1046 59.1361C19.1046 59.1361 16.9042 57.659 19.0189 56.6726C19.4096 56.481 19.8336 56.3666 20.2678 56.3356C21.9277 56.2693 22.1918 57.123 22.4105 58.0571V58.1304L28.6216 56.2291Z" fill="#DDDDDD"/>
<path opacity="0.05" d="M14.9819 60.3949C14.9819 60.3949 17.7805 66.4673 19.1116 67.4747C19.8532 68.0369 24.9799 69.706 29.3335 69.9417C29.741 69.9644 31.0144 68.7859 31.6161 68.9413C32.4906 69.17 31.4569 69.9539 31.6598 69.9644C34.2835 70.0884 35.737 68.9413 35.737 68.9413L21.9189 73.9207L12.6608 60.669L14.9819 60.3949Z" fill="#000405"/>
<path d="M28.4642 71.2651C28.9329 70.653 29.4692 70.0954 30.0629 69.603C30.5484 69.3136 31.0709 69.091 31.6161 68.9413C31.6161 68.9413 31.861 69.6833 31.4412 69.823C31.0214 69.9626 30.78 70.6959 30.78 70.6959C30.78 70.6959 33.834 71.2791 34.2031 71.0993C34.5721 70.9194 34.6071 71.4903 33.8865 71.5968C33.1658 71.7033 33.1868 72.7352 32.6971 72.819C32.2073 72.9028 31.4814 73.369 30.7608 73.5418C29.9256 73.6135 29.0846 73.5748 28.2595 73.4266L28.4642 71.2651Z" fill="url(#paint13_linear)"/>
<path d="M14.4519 62.4534C14.8479 60.3034 14.5847 58.0843 13.6969 56.086C12.8091 54.0878 11.3379 52.4034 9.4756 51.2532C8.81252 50.7997 8.0524 50.5074 7.25595 50.3994C4.0568 50.2143 0.645996 73.2886 0.645996 73.2886C0.645996 73.2886 2.18698 77.7582 6.8519 78.1877C11.1618 78.5858 12.0013 75.9966 12.0013 75.9966L14.4519 62.4534Z" fill="#DDDDDD"/>
<path opacity="0.61" d="M14.4519 62.4534C14.8479 60.3034 14.5847 58.0843 13.6969 56.086C12.8091 54.0878 11.3379 52.4034 9.4756 51.2532C8.81252 50.7997 8.0524 50.5074 7.25595 50.3994C4.0568 50.2143 0.645996 73.2886 0.645996 73.2886C0.645996 73.2886 2.18698 77.7582 6.8519 78.1877C11.1618 78.5858 12.0013 75.9966 12.0013 75.9966L14.4519 62.4534Z" fill="url(#paint14_linear)"/>
<path d="M7.25598 50.3959C7.25598 50.3959 7.72475 46.9145 7.91715 44.65C8.10956 42.3856 8.85469 39.3529 12.6625 39.7492C16.4704 40.1455 16.4686 45.8949 15.4104 48.3043C14.3522 50.7137 12.9459 50.6351 12.9459 50.6351C12.9459 50.6351 11.0498 50.2178 11.1146 52.4963L7.25598 50.3959Z" fill="url(#paint15_linear)"/>
<path d="M8.69543 39.2603C8.14073 39.7913 7.73902 40.4612 7.53226 41.2001C7.36079 41.7994 7.24371 42.413 7.18244 43.0333L7.57249 42.6108C7.55039 43.6737 7.46864 44.7346 7.32762 45.7884C7.18375 46.7709 7.12523 47.7639 7.1527 48.7565L7.85235 48.7233L8.72692 49.8163L9.71168 49.1528L10.4516 48.7635L11.1127 47.1398C10.9517 47.0219 10.8336 46.8548 10.7765 46.6638C10.7193 46.4728 10.7262 46.2684 10.7961 46.0817C11.041 45.42 11.641 45.2664 11.7809 45.6575C11.8881 46.1446 11.9467 46.6411 11.9558 47.1398L13.0053 44.1717C13.0053 44.1717 13.6665 43.2498 14.2419 43.8871C14.5864 44.2715 15.0226 44.5628 15.51 44.7339L15.1602 43.7404L16.1117 43.9848L16.0383 42.8535L16.7379 43.3493C16.7379 43.3493 17.0545 41.5161 16.4528 40.7007C15.8511 39.8854 13.495 36.6449 8.69543 39.2603Z" fill="#333333"/>
<path d="M28.5621 70.6767L20.7715 69.8352C19.7186 69.6331 18.7557 69.1067 18.0181 68.33C17.2805 67.5534 16.8053 66.5655 16.6593 65.5053L13.7785 56.7319C13.6042 56.1815 13.279 55.6907 12.8397 55.3152C12.4005 54.9397 11.8646 54.6944 11.2929 54.6071C10.8419 54.5398 10.3811 54.5878 9.95366 54.7466C9.52624 54.9055 9.14619 55.17 8.84909 55.5154C8.55199 55.8608 8.34755 56.2758 8.25492 56.7215C8.16228 57.1673 8.18447 57.6292 8.31942 58.0641L11.2929 68.6567C11.4329 69.8198 11.9688 70.8996 12.811 71.7154C13.6532 72.5313 14.7505 73.0336 15.9194 73.1385L28.1388 74.729L28.5621 70.6767Z" fill="#DDDDDD"/>
<path opacity="0.61" d="M28.5621 70.6767L20.7715 69.8352C19.7186 69.6331 18.7557 69.1067 18.0181 68.33C17.2805 67.5534 16.8053 66.5655 16.6593 65.5053L13.7785 56.7319C13.6042 56.1815 13.279 55.6907 12.8397 55.3152C12.4005 54.9397 11.8646 54.6944 11.2929 54.6071C10.8419 54.5398 10.3811 54.5878 9.95366 54.7466C9.52624 54.9055 9.14619 55.17 8.84909 55.5154C8.55199 55.8608 8.34755 56.2758 8.25492 56.7215C8.16228 57.1673 8.18447 57.6292 8.31942 58.0641L11.2929 68.6567C11.4329 69.8198 11.9688 70.8996 12.811 71.7154C13.6532 72.5313 14.7505 73.0336 15.9194 73.1385L28.1388 74.729L28.5621 70.6767Z" fill="url(#paint16_linear)"/>
<path d="M9.33046 83.553L7.03735 84.0768L7.95565 86.7254L10.3555 86.1719C10.3555 86.1719 10.9974 84.1239 9.33046 83.553Z" fill="url(#paint17_linear)"/>
<path d="M6.09979 83.6927C6.09979 83.6927 7.60055 83.3749 7.84892 83.8848C8.0973 84.3946 7.2997 84.3614 7.45887 85.0842C7.59224 85.634 7.75752 86.1756 7.95387 86.7062L8.69375 86.5403L8.84593 87.4133C8.87862 87.5634 8.96233 87.6975 9.08284 87.793C9.20336 87.8885 9.35326 87.9394 9.5071 87.9371C11.2387 88.0366 11.0079 89.6044 10.3992 89.6638L8.15852 89.8384L6.97436 88.8432C6.83261 88.7449 6.72066 88.6096 6.65077 88.4521C6.21873 87.6053 4.89114 84.4539 6.09979 83.6927Z" fill="#333333"/>
<path opacity="0.4" d="M42.5535 29.6996C42.4389 29.865 42.3394 30.0403 42.2561 30.2234C41.7541 31.2954 40.0557 35.1295 39.8073 38.452C39.758 39.2605 39.413 40.0227 38.8377 40.594C38.2625 41.1653 37.4971 41.5059 36.6869 41.551L33.6539 41.7256L32.6621 41.778C31.8655 41.825 31.0786 41.5827 30.4469 41.0959C29.8152 40.6091 29.3812 39.9106 29.2251 39.1294C28.6042 36.0705 27.2818 31.3966 24.7123 29.3312C24.7123 29.3312 13.3832 18.976 20.9377 7.42841C21.4455 6.64819 22.0134 5.9086 22.6361 5.21631C30.5649 -3.54481 43.6519 0.446408 46.7969 8.58422C49.9418 16.722 43.8041 27.9449 42.5535 29.6996Z" fill="#DDDDDD"/>
<path d="M40.2411 42.9809C39.9769 43.6426 39.6726 43.9604 39.9367 44.3986C40.2008 44.8369 40.9617 46.0154 37.1014 46.5392C36.3017 46.6494 35.4964 46.7135 34.6893 46.7312H33.4265L32.6866 46.698C31.8417 46.6457 31.1596 46.5601 30.7048 46.4868C30.4576 46.4506 30.2209 46.3629 30.0099 46.2294C29.7989 46.0958 29.6185 45.9194 29.4804 45.7116C29.4128 45.5554 29.3901 45.3835 29.4148 45.2151C29.4395 45.0467 29.5107 44.8886 29.6204 44.7583C29.6696 44.7127 29.7093 44.6579 29.7372 44.5969C29.7652 44.536 29.7808 44.4702 29.7832 44.4032C29.7857 44.3362 29.7749 44.2694 29.7514 44.2066C29.728 44.1438 29.6923 44.0863 29.6466 44.0372C29.5943 43.9828 29.5312 43.9399 29.4612 43.9115C29.2525 43.7156 29.1287 43.446 29.1163 43.1603C29.1039 42.8746 29.2038 42.5953 29.3947 42.3821C29.4893 42.2844 29.5678 42.1725 29.6273 42.0503C29.71 41.8616 29.7394 41.6539 29.7126 41.4496C29.6858 41.2453 29.6037 41.0522 29.4752 40.891L29.3685 40.7601C29.2211 40.5613 29.1136 40.3361 29.0519 40.0966C28.9876 39.9322 28.9684 39.7535 28.9964 39.5792C29.0244 39.4049 29.0985 39.2411 29.2111 39.1049C29.3672 39.8857 29.8009 40.5838 30.4323 41.0702C31.0637 41.5567 31.8501 41.7988 32.6463 41.7518L33.6381 41.6924C33.6664 41.654 33.6888 41.6117 33.7046 41.5667C33.8795 41.1442 33.4859 40.6536 33.6853 39.9954L34.4305 39.9622C36.2625 39.8528 38.0718 39.5006 39.8108 38.9146C40.0007 39.0715 40.1307 39.289 40.1788 39.5304C40.2269 39.7717 40.1902 40.0223 40.0749 40.2398C40.0063 40.3864 39.9597 40.5423 39.9367 40.7025C39.8915 41.0381 39.9488 41.3794 40.1011 41.682C40.1186 41.7187 40.1384 41.7543 40.1606 41.7885C40.2666 41.967 40.3292 42.168 40.3432 42.3751C40.3571 42.5823 40.3222 42.7898 40.2411 42.9809V42.9809Z" fill="#DDDDDD"/>
<path d="M29.218 39.1015C32.6781 38.2064 36.3011 38.1406 39.7915 38.9094C39.7915 38.9094 34.0614 41.2525 29.218 39.1015Z" fill="#333333"/>
<path d="M34.2923 46.6684C34.0044 46.7247 33.7106 46.7446 33.4177 46.7277L32.6761 46.6946C31.8313 46.6422 31.1509 46.5566 30.6943 46.4833C30.4472 46.4471 30.2104 46.3594 29.9994 46.2259C29.7885 46.0923 29.6081 45.9159 29.4699 45.7081C29.4019 45.5521 29.3788 45.3802 29.4032 45.2118C29.4276 45.0434 29.4986 44.8852 29.6081 44.7548C29.6702 44.6954 29.7168 44.6216 29.7436 44.5401C29.7705 44.4585 29.7768 44.3715 29.762 44.2869C29.7462 44.2025 29.7092 44.1235 29.6544 44.0572C29.5997 43.991 29.529 43.9396 29.449 43.908C29.2401 43.7121 29.1163 43.4423 29.1042 43.1565C29.0921 42.8706 29.1926 42.5914 29.3842 42.3786C29.5791 42.1838 29.695 41.9239 29.7095 41.649C29.7241 41.3741 29.6362 41.1035 29.4629 40.8893C29.2688 40.6603 29.1289 40.3906 29.0537 40.1002C28.9895 39.9358 28.9702 39.7573 28.9979 39.583C29.0255 39.4088 29.0991 39.245 29.2111 39.1085C30.869 39.7422 32.6393 40.0303 34.413 39.9552L34.4987 39.9954C34.4987 39.9954 33.8375 40.2468 34.0089 40.823C34.1804 41.3991 34.4322 42.438 33.8638 43.1136C33.2953 43.7893 34.3885 43.9744 34.1821 44.7356V44.8089C34.098 45.0358 34.0337 45.2695 33.9897 45.5073C33.8708 46.1062 33.9267 46.616 34.2923 46.6684Z" fill="url(#paint18_linear)"/>
<path opacity="0.49" d="M34.4252 39.9482C32.6497 40.0251 30.8773 39.7368 29.218 39.1015C28.6023 36.0618 27.28 31.3879 24.7105 29.3242C24.7105 29.3242 13.3814 18.9691 20.9359 7.42143C21.4437 6.64121 22.0115 5.90161 22.6343 5.20932L23.6523 5.11679C23.6523 5.11679 30.4284 1.55333 33.3022 5.45376C36.176 9.35418 29.9037 13.7627 29.5748 20.8861C29.246 28.0095 37.4092 29.3277 34.4252 39.9482Z" fill="white"/>
<path d="M39.349 44.8142C38.8592 45.1319 37.1013 45.729 33.9686 45.5125C32.5002 45.396 31.0464 45.1387 29.6273 44.7443C29.6765 44.6987 29.7162 44.6439 29.7442 44.583C29.7721 44.522 29.7878 44.4562 29.7902 44.3892C29.7926 44.3223 29.7818 44.2555 29.7584 44.1927C29.7349 44.1299 29.6993 44.0723 29.6535 44.0233C29.6013 43.9688 29.5381 43.926 29.4681 43.8976C30.9894 44.4178 32.5829 44.6971 34.1908 44.7251C35.9958 44.7755 37.7981 44.5524 39.5361 44.0634C39.5361 44.0634 40.0818 44.3375 39.349 44.8142Z" fill="url(#paint19_linear)"/>
<path d="M40.0958 41.6889C39.5081 42.1795 37.2867 43.0857 34.0753 42.7749C32.5673 42.7203 31.0725 42.4733 29.6273 42.0399C29.7099 41.8514 29.7394 41.6439 29.7126 41.4399C29.6858 41.2359 29.6037 41.0431 29.4751 40.8823L29.3684 40.7496C29.5801 40.8299 29.9369 40.9417 30.4179 41.0674C31.5018 41.3411 32.6082 41.5164 33.7237 41.5912H34.238C36.1802 41.6692 38.1187 41.363 39.9419 40.6903C39.8888 41.031 39.9426 41.3798 40.0958 41.6889V41.6889Z" fill="url(#paint20_linear)"/>
<path d="M18.1006 57.68L18.1408 59.4259L19.1116 59.1274C19.1116 59.1274 18.1006 58.4272 18.1006 57.68Z" fill="#3F3D56"/>
<path d="M39.3787 22.2933L39.167 22.1502C39.4859 21.1874 39.5986 20.1684 39.4976 19.1594C39.2457 17.0223 37.7345 15.7181 35.2472 15.4929C31.4341 15.1315 29.9246 17.0957 29.3649 18.2969C27.7487 21.6543 29.211 27.0912 31.5408 29.5302C34.4129 32.5228 33.3039 38.1656 32.8982 39.8313C32.8843 39.8719 32.8755 39.9142 32.8719 39.957V40.0687L33.4579 40.2678L33.4999 40.1036C33.8475 38.7704 34.0493 37.4035 34.1016 36.0269C34.2048 33.0588 33.4929 30.6581 32.0358 29.0868C29.8844 26.8363 28.4869 21.6403 29.9719 18.5658C30.8727 16.7238 32.69 15.8753 35.2315 16.111C37.9969 16.3729 38.7612 17.9564 38.9151 19.2327C38.9953 20.107 38.8996 20.9885 38.6335 21.8254C38.0161 21.5141 37.3072 21.4348 36.636 21.6019C35.3259 21.9616 34.4986 23.3164 34.0351 24.385C33.9192 24.6506 33.8835 24.9442 33.9322 25.2298C33.981 25.5154 34.1122 25.7807 34.3097 25.993C34.5025 26.2007 34.7513 26.3485 35.0261 26.4188C35.301 26.4891 35.5903 26.4789 35.8594 26.3893C37.0401 25.972 38.2715 24.5264 38.9641 22.763L39.0323 22.8101C40.9564 24.1615 39.5833 26.2444 38.0039 28.659C36.8792 30.3508 35.4834 32.4564 35.3329 34.5306C35.158 36.3883 35.2385 37.8566 35.3644 39.7265L35.3732 39.8749H36.0029L35.9941 39.7003C35.8717 37.8339 35.7982 36.383 35.9626 34.5777C36.0973 32.6782 37.3829 30.7245 38.5163 28.9907L38.5671 28.9122C40.2078 26.3928 41.7592 24.0009 39.3787 22.2933ZM35.6285 25.7852C35.4764 25.8373 35.3122 25.8433 35.1567 25.8026C35.0011 25.7619 34.861 25.6763 34.754 25.5565C34.6386 25.4342 34.5621 25.2806 34.534 25.115C34.506 24.9494 34.5278 24.7792 34.5966 24.6259C34.9289 23.8559 35.6565 22.5133 36.7882 22.199C36.9502 22.1552 37.1172 22.1329 37.285 22.1327C37.6712 22.1458 38.0498 22.2436 38.3939 22.419C37.7345 24.0829 36.6133 25.457 35.6285 25.7887V25.7852ZM38.8085 22.2706L38.8364 22.2898L38.8085 22.2706Z" fill="white"/>
<defs>
<linearGradient id="paint0_linear" x1="4.42065" y1="73.6256" x2="17.6493" y2="73.6256" gradientUnits="userSpaceOnUse">
<stop stop-opacity="0"/>
<stop offset="0.91" stop-opacity="0.8"/>
<stop offset="1"/>
</linearGradient>
<linearGradient id="paint1_linear" x1="8141.06" y1="3411.74" x2="7004.99" y2="1345.33" gradientUnits="userSpaceOnUse">
<stop stop-opacity="0"/>
<stop offset="0.91" stop-opacity="0.8"/>
<stop offset="1"/>
</linearGradient>
<linearGradient id="paint2_linear" x1="10919.1" y1="4632.46" x2="13933.6" y2="3749.32" gradientUnits="userSpaceOnUse">
<stop stop-opacity="0"/>
<stop offset="0.91" stop-opacity="0.8"/>
<stop offset="1"/>
</linearGradient>
<linearGradient id="paint3_linear" x1="71.1832" y1="54.4203" x2="60.637" y2="48.2701" gradientUnits="userSpaceOnUse">
<stop offset="0.36" stop-color="#00272E"/>
<stop offset="1" stop-color="#69B9EB" stop-opacity="0"/>
</linearGradient>
<linearGradient id="paint4_linear" x1="67.0343" y1="38.5794" x2="70.8404" y2="38.5794" gradientUnits="userSpaceOnUse">
<stop stop-color="#ECC4D7"/>
<stop offset="0.42" stop-color="#EFD4D1"/>
<stop offset="1" stop-color="#F2EAC9"/>
</linearGradient>
<linearGradient id="paint5_linear" x1="1978.02" y1="1768.11" x2="1788.84" y2="1544.3" gradientUnits="userSpaceOnUse">
<stop stop-color="#ECC4D7"/>
<stop offset="0.42" stop-color="#EFD4D1"/>
<stop offset="1" stop-color="#F2EAC9"/>
</linearGradient>
<linearGradient id="paint6_linear" x1="4697.75" y1="4109.86" x2="5069.41" y2="4109.86" gradientUnits="userSpaceOnUse">
<stop stop-color="#ECC4D7"/>
<stop offset="0.42" stop-color="#EFD4D1"/>
<stop offset="1" stop-color="#F2EAC9"/>
</linearGradient>
<linearGradient id="paint7_linear" x1="3983.61" y1="1534.2" x2="4386.27" y2="1534.2" gradientUnits="userSpaceOnUse">
<stop stop-color="#ECC4D7"/>
<stop offset="0.42" stop-color="#EFD4D1"/>
<stop offset="1" stop-color="#F2EAC9"/>
</linearGradient>
<linearGradient id="paint8_linear" x1="9738.08" y1="4180" x2="11242.2" y2="3474.47" gradientUnits="userSpaceOnUse">
<stop stop-opacity="0"/>
<stop offset="0.91" stop-opacity="0.8"/>
<stop offset="1"/>
</linearGradient>
<linearGradient id="paint9_linear" x1="1193.86" y1="-526.801" x2="1214" y2="-526.801" gradientUnits="userSpaceOnUse">
<stop stop-color="#ECC4D7"/>
<stop offset="0.42" stop-color="#EFD4D1"/>
<stop offset="1" stop-color="#F2EAC9"/>
</linearGradient>
<linearGradient id="paint10_linear" x1="1653.55" y1="387.782" x2="1697.77" y2="387.782" gradientUnits="userSpaceOnUse">
<stop stop-color="#ECC4D7"/>
<stop offset="0.42" stop-color="#EFD4D1"/>
<stop offset="1" stop-color="#F2EAC9"/>
</linearGradient>
<linearGradient id="paint11_linear" x1="12460.2" y1="5500.33" x2="10337.6" y2="6423.84" gradientUnits="userSpaceOnUse">
<stop offset="0.36" stop-color="#00272E"/>
<stop offset="1" stop-color="#69B9EB" stop-opacity="0"/>
</linearGradient>
<linearGradient id="paint12_linear" x1="4433.66" y1="1399.74" x2="4855" y2="1399.74" gradientUnits="userSpaceOnUse">
<stop stop-color="#ECC4D7"/>
<stop offset="0.42" stop-color="#EFD4D1"/>
<stop offset="1" stop-color="#F2EAC9"/>
</linearGradient>
<linearGradient id="paint13_linear" x1="2338.69" y1="946.952" x2="2558.51" y2="946.952" gradientUnits="userSpaceOnUse">
<stop stop-color="#ECC4D7"/>
<stop offset="0.42" stop-color="#EFD4D1"/>
<stop offset="1" stop-color="#F2EAC9"/>
</linearGradient>
<linearGradient id="paint14_linear" x1="2635.75" y1="6643.02" x2="3801.98" y2="6572.48" gradientUnits="userSpaceOnUse">
<stop offset="0.36" stop-color="#00272E"/>
<stop offset="1" stop-color="#69B9EB" stop-opacity="0"/>
</linearGradient>
<linearGradient id="paint15_linear" x1="2219.18" y1="4302.48" x2="2657.85" y2="4302.48" gradientUnits="userSpaceOnUse">
<stop stop-color="#ECC4D7"/>
<stop offset="0.42" stop-color="#EFD4D1"/>
<stop offset="1" stop-color="#F2EAC9"/>
</linearGradient>
<linearGradient id="paint16_linear" x1="4588.33" y1="3291.32" x2="6678.98" y2="4769.01" gradientUnits="userSpaceOnUse">
<stop offset="0.36" stop-color="#00272E"/>
<stop offset="1" stop-color="#69B9EB" stop-opacity="0"/>
</linearGradient>
<linearGradient id="paint17_linear" x1="871.311" y1="432.227" x2="938.899" y2="432.227" gradientUnits="userSpaceOnUse">
<stop stop-color="#ECC4D7"/>
<stop offset="0.42" stop-color="#EFD4D1"/>
<stop offset="1" stop-color="#F2EAC9"/>
</linearGradient>
<linearGradient id="paint18_linear" x1="2306.73" y1="2714.75" x2="1973.3" y2="2723.53" gradientUnits="userSpaceOnUse">
<stop stop-opacity="0"/>
<stop offset="0.91" stop-opacity="0.8"/>
<stop offset="1"/>
</linearGradient>
<linearGradient id="paint19_linear" x1="34.2013" y1="38.2722" x2="35.3846" y2="55.7003" gradientUnits="userSpaceOnUse">
<stop stop-color="#68E1FD" stop-opacity="0"/>
<stop offset="0.02" stop-color="#66DAF6" stop-opacity="0.04"/>
<stop offset="0.18" stop-color="#58A1BC" stop-opacity="0.39"/>
<stop offset="0.35" stop-color="#4D758F" stop-opacity="0.66"/>
<stop offset="0.53" stop-color="#45566F" stop-opacity="0.85"/>
<stop offset="0.73" stop-color="#40435C" stop-opacity="0.96"/>
<stop offset="0.99" stop-color="#3F3D56"/>
</linearGradient>
<linearGradient id="paint20_linear" x1="4410.98" y1="853.682" x2="4413.91" y2="638.328" gradientUnits="userSpaceOnUse">
<stop stop-color="#68E1FD" stop-opacity="0"/>
<stop offset="0.02" stop-color="#66DAF6" stop-opacity="0.04"/>
<stop offset="0.18" stop-color="#58A1BC" stop-opacity="0.39"/>
<stop offset="0.35" stop-color="#4D758F" stop-opacity="0.66"/>
<stop offset="0.53" stop-color="#45566F" stop-opacity="0.85"/>
<stop offset="0.73" stop-color="#40435C" stop-opacity="0.96"/>
<stop offset="0.99" stop-color="#3F3D56"/>
</linearGradient>
</defs>
</svg>
