<svg width="115" height="95" viewBox="0 0 115 95" fill="none" xmlns="http://www.w3.org/2000/svg">
<g clip-path="url(#clip0)">
<path d="M29.3613 94.8142C37.9192 94.8142 44.8568 93.8823 44.8568 92.7327C44.8568 91.5831 37.9192 90.6511 29.3613 90.6511C20.8033 90.6511 13.8657 91.5831 13.8657 92.7327C13.8657 93.8823 20.8033 94.8142 29.3613 94.8142Z" fill="#E6E7E8"/>
<path d="M96.6594 94.8142C105.217 94.8142 112.155 93.8823 112.155 92.7327C112.155 91.5831 105.217 90.6511 96.6594 90.6511C88.1014 90.6511 81.1638 91.5831 81.1638 92.7327C81.1638 93.8823 88.1014 94.8142 96.6594 94.8142Z" fill="#E6E7E8"/>
<path d="M28.4873 85.6858C28.4873 85.6858 31.1811 93.9276 31.6582 93.7713C32.1353 93.6151 41.724 88.0629 41.4073 87.1129C41.0906 86.1629 34.4322 88.1431 34.4322 88.1431L32.9333 83.7056" fill="white"/>
<path d="M31.6667 93.9824C31.6226 93.9832 31.5791 93.9731 31.54 93.9529C30.9447 93.6531 29.0827 88.1178 28.31 85.7533C28.3008 85.7267 28.297 85.6986 28.2988 85.6705C28.3006 85.6424 28.308 85.6149 28.3206 85.5898C28.3332 85.5646 28.3507 85.5422 28.3721 85.5239C28.3935 85.5056 28.4183 85.4917 28.4451 85.4831C28.4988 85.4671 28.5567 85.4727 28.6064 85.4988C28.6561 85.5248 28.6936 85.5692 28.7111 85.6224C29.8595 89.1353 31.2655 93.0071 31.6962 93.5349C33.0009 92.9776 41.1667 87.9869 41.2215 87.1593C41.1075 86.8216 38.2111 87.2438 34.5124 88.3458C34.4598 88.3597 34.4039 88.3536 34.3555 88.3286C34.3071 88.3037 34.2698 88.2616 34.2507 88.2107L32.7475 83.7731C32.7299 83.7199 32.7337 83.6619 32.7581 83.6114C32.7826 83.561 32.8257 83.522 32.8784 83.5029C32.9322 83.4865 32.9902 83.4914 33.0405 83.5166C33.0907 83.5417 33.1295 83.5852 33.1487 83.638L34.5884 87.8602C40.5967 86.0911 41.5129 86.6822 41.6269 87.0158C41.7113 87.2649 41.8844 87.78 36.9824 90.8876C34.5673 92.4118 32.0382 93.8431 31.768 93.9402C31.7375 93.9612 31.703 93.9756 31.6667 93.9824V93.9824Z" fill="#231F20"/>
<path d="M17.0747 71.896C17.0747 71.896 11.5267 71.9762 11.3705 72.4491C11.2143 72.922 9.54651 81.738 11.0538 81.0118C12.5612 80.2856 15.0143 75.3033 15.0143 75.3033L17.7883 74.8811L17.0747 71.896Z" fill="white"/>
<path d="M10.8893 81.2609C10.7743 81.2604 10.6633 81.2184 10.5768 81.1427C9.54236 80.2222 11.0666 72.6982 11.1679 72.3815C11.2186 72.2295 11.3748 71.7651 17.079 71.6849C17.1264 71.6869 17.172 71.7033 17.2097 71.732C17.2475 71.7607 17.2755 71.8002 17.2901 71.8453L18.0037 74.822C18.0155 74.8786 18.0049 74.9377 17.9741 74.9867C17.9582 75.0115 17.9372 75.0326 17.9124 75.0486C17.8876 75.0647 17.8598 75.0752 17.8306 75.0796L15.1621 75.5018C14.799 76.2322 12.6035 80.522 11.151 81.2102C11.0686 81.2463 10.9792 81.2636 10.8893 81.2609ZM11.5606 72.5504C11.3368 73.3231 10.1377 80.1884 10.8597 80.826C10.8597 80.826 10.8893 80.8556 10.961 80.826C12.1433 80.2687 14.1488 76.6038 14.8244 75.2189C14.8385 75.1881 14.8603 75.1615 14.8876 75.1416C14.915 75.1216 14.947 75.109 14.9806 75.1049L17.5139 74.6827L16.8933 72.0987C14.5035 72.1493 11.9153 72.3224 11.5606 72.5504V72.5504Z" fill="#231F20"/>
<path d="M48.6443 6.96666L51.0172 5.6071C51.0172 5.6071 51.6843 3.47066 52.3556 2.95555C53.027 2.44044 53.9516 3.14133 53.9516 3.14133C53.9516 3.14133 56.4047 1.09355 56.9958 1.16111C57.587 1.22866 56.8058 2.27577 56.2021 2.80355L54.9354 3.91399C54.9354 3.91399 56.0458 6.17711 55.4041 7.06799C54.7623 7.95888 49.5943 10.7118 49.5943 10.7118L48.6443 6.96666Z" fill="white"/>
<path d="M49.5859 10.9187C49.5565 10.9227 49.5266 10.9227 49.4972 10.9187C49.4684 10.9046 49.4429 10.8845 49.4225 10.8598C49.4021 10.835 49.3872 10.8061 49.379 10.7751L48.4417 7.03423C48.43 6.99023 48.4333 6.94363 48.4508 6.90165C48.4684 6.85967 48.4993 6.82464 48.5388 6.802L50.8399 5.48889C50.9834 5.06667 51.5745 3.31023 52.2121 2.80356C52.8497 2.29689 53.6097 2.698 53.9263 2.89223C54.6272 2.31378 56.4132 0.90356 57.0043 0.966894C57.0892 0.970955 57.1709 1.00053 57.2387 1.05176C57.3065 1.10298 57.3572 1.17347 57.3843 1.254C57.5448 1.76489 56.6539 2.69378 56.333 2.98089L55.1845 3.98578C55.4421 4.54311 56.1852 6.35023 55.5645 7.21156C54.9439 8.07289 50.215 10.6316 49.683 10.9144C49.6515 10.9241 49.6181 10.9255 49.5859 10.9187V10.9187ZM48.8892 7.07223L49.7337 10.3951C51.3001 9.55067 54.7539 7.60423 55.2225 6.94134C55.6912 6.27845 55.0283 4.60223 54.737 3.98578C54.7169 3.94376 54.711 3.89635 54.7201 3.85067C54.7292 3.805 54.7529 3.76351 54.7877 3.73245L56.0543 2.62623C56.6243 2.12378 57.0254 1.49045 56.9832 1.35956C56.6581 1.33 55.2225 2.34756 54.0783 3.30178C54.0411 3.33123 53.9949 3.34726 53.9474 3.34726C53.8999 3.34726 53.8538 3.33123 53.8165 3.30178C53.8165 3.30178 53.0017 2.698 52.4781 3.11178C51.9545 3.52556 51.4014 5.08778 51.2114 5.64511C51.1942 5.69592 51.1599 5.73919 51.1143 5.76756L48.8892 7.07223Z" fill="#231F20"/>
<path d="M19.9036 20.8747C21.7613 21.9133 48.5556 6.27 48.5556 6.27L52.5456 10.3993L25.4178 30.0496L19.9036 20.8747Z" fill="#DDDDDD"/>
<path d="M28.9307 20.6129C28.9307 20.6129 12.9918 20.6129 8.88358 23.8851C5.83936 26.3087 5.26514 43.206 5.26514 43.206L35.6989 40.8331C35.6989 40.8331 37.4469 23.0196 28.9307 20.6129Z" fill="#DDDDDD"/>
<path d="M31.2445 30.4802C31.193 30.4802 31.1436 30.4598 31.1072 30.4233C31.0708 30.3869 31.0503 30.3375 31.0503 30.286V21.9978C31.0503 21.9463 31.0708 21.8969 31.1072 21.8604C31.1436 21.824 31.193 21.8036 31.2445 21.8036C31.296 21.8036 31.3454 21.824 31.3819 21.8604C31.4183 21.8969 31.4387 21.9463 31.4387 21.9978V30.286C31.4387 30.3375 31.4183 30.3869 31.3819 30.4233C31.3454 30.4598 31.296 30.4802 31.2445 30.4802V30.4802Z" fill="#231F20"/>
<path d="M65.7527 65.2671C65.4909 65.0602 56.0416 64.0933 55.4547 64.2749C54.8678 64.4564 52.4992 72.2675 52.5456 72.9347C52.6216 74.2689 57.8403 68.9235 57.8403 68.9235L65.7527 70.5111" fill="white"/>
<path d="M52.7144 73.3527C52.6726 73.3614 52.6295 73.3614 52.5877 73.3527C52.5104 73.3234 52.4443 73.2705 52.3988 73.2016C52.3533 73.1326 52.3308 73.051 52.3344 72.9684C52.3048 72.4702 54.5764 64.3509 55.3955 64.1018C56.0119 63.9118 65.5288 64.8449 65.8835 65.132C65.927 65.1668 65.9549 65.2175 65.9613 65.2728C65.9676 65.3282 65.9518 65.3838 65.9172 65.4276C65.8855 65.4679 65.8401 65.4954 65.7896 65.5047C65.7391 65.514 65.6869 65.5046 65.6428 65.4782C64.9799 65.2291 56.0499 64.3678 55.5095 64.5071C55.0028 64.8956 52.7059 72.2971 52.7481 72.9516C53.1703 73.0824 55.6446 70.8869 57.6797 68.8053C57.7043 68.7796 57.735 68.7607 57.769 68.7503C57.8031 68.74 57.8392 68.7386 57.8739 68.7462L65.7821 70.3211C65.8372 70.3324 65.8858 70.3647 65.9173 70.4113C65.9489 70.4578 65.961 70.5149 65.951 70.5702C65.9455 70.5974 65.9346 70.6232 65.9191 70.6462C65.9036 70.6692 65.8837 70.6889 65.8606 70.7042C65.8374 70.7195 65.8115 70.73 65.7843 70.7353C65.7571 70.7406 65.7291 70.7404 65.7019 70.7349L57.9035 69.1811C56.5777 70.5111 53.6812 73.3527 52.7144 73.3527Z" fill="#231F20"/>
<path d="M100.759 84.0729C100.759 84.3473 103.331 92.5976 104.082 92.7284C104.834 92.8593 115.423 89.5196 114.549 88.9284C113.675 88.3373 108.883 88.7722 108.883 88.7722L106.328 81.9111" fill="white"/>
<path d="M104.086 92.9395H104.044C103.048 92.7622 100.552 84.17 100.548 84.0729C100.544 84.0169 100.561 83.9614 100.598 83.9187C100.634 83.8759 100.686 83.8494 100.742 83.8449C100.798 83.8404 100.854 83.8583 100.896 83.8948C100.939 83.9312 100.966 83.9831 100.97 84.0391C101.088 84.7864 103.504 92.1838 104.141 92.5131C104.424 92.5511 106.641 91.9558 109.381 91.048C112.336 90.0642 113.962 89.3591 114.329 89.0424C113.54 88.7089 110.707 88.8144 108.904 88.9749C108.858 88.9795 108.812 88.9688 108.773 88.9443C108.734 88.9198 108.704 88.883 108.688 88.8398L106.155 81.9871C106.142 81.9606 106.134 81.9316 106.132 81.9019C106.131 81.8722 106.136 81.8426 106.146 81.8148C106.157 81.7871 106.173 81.762 106.195 81.7411C106.216 81.7201 106.241 81.7039 106.269 81.6935C106.297 81.683 106.326 81.6785 106.356 81.6803C106.386 81.6821 106.415 81.6902 106.441 81.7039C106.467 81.7177 106.49 81.7369 106.509 81.7602C106.527 81.7836 106.541 81.8105 106.548 81.8393L109.043 88.54C109.985 88.464 113.844 88.1811 114.688 88.7469C114.75 88.7847 114.796 88.8435 114.818 88.9126C114.839 88.9817 114.835 89.0563 114.806 89.1227C114.372 90.1655 104.986 92.9395 104.086 92.9395Z" fill="#231F20"/>
<path d="M89.6168 44.6331C89.6168 44.6331 85.4453 75.924 81.1724 74.9698C76.8995 74.0156 59.8037 70.3802 59.8037 70.3802L61.349 63.6247C61.349 63.6247 73.5133 64.9167 75.1346 65.0349C76.7559 65.1531 75.6159 43.2102 75.6159 43.2102L89.6168 44.6331Z" fill="#231F20"/>
<path d="M81.3581 75.202C81.2772 75.2019 81.1965 75.1935 81.1174 75.1767C76.8952 74.2393 59.9219 70.6209 59.753 70.5871C59.6976 70.5748 59.6492 70.5415 59.6179 70.4942C59.5873 70.4467 59.5767 70.3891 59.5883 70.3338L61.1336 63.5782C61.1464 63.5284 61.1761 63.4847 61.2178 63.4546C61.2595 63.4245 61.3104 63.41 61.3616 63.4136C61.4841 63.4136 73.5428 64.7098 75.143 64.8238C75.9874 64.4016 75.9325 53.5125 75.4005 43.2187C75.398 43.1889 75.4024 43.1589 75.4134 43.131C75.4244 43.1032 75.4417 43.0783 75.4639 43.0582C75.486 43.0366 75.5125 43.0201 75.5417 43.0099C75.5709 42.9997 75.602 42.996 75.6328 42.9991L89.6379 44.4262C89.6667 44.4285 89.6948 44.4368 89.7203 44.4507C89.7457 44.4645 89.768 44.4835 89.7856 44.5065C89.8028 44.5283 89.8154 44.5534 89.8227 44.5803C89.8299 44.6071 89.8317 44.6351 89.8279 44.6627C89.6801 45.7858 86.1207 72.1493 82.1181 74.9445C81.8969 75.1058 81.6317 75.1956 81.3581 75.202ZM60.0485 70.2198C62.0203 70.642 77.2372 73.8805 81.2103 74.7671C81.3274 74.7868 81.4474 74.7816 81.5623 74.7517C81.6773 74.7219 81.7846 74.6682 81.8774 74.594C85.5423 72.0311 89.0256 47.3987 89.3803 44.8189L75.8312 43.4425C75.9832 46.436 76.7981 63.7809 75.4385 65.1109C75.3964 65.1553 75.3451 65.19 75.2883 65.2126C75.2314 65.2352 75.1703 65.2451 75.1092 65.2418C73.6145 65.132 63.0463 64.0131 61.5052 63.8485L60.0485 70.2198Z" fill="#231F20"/>
<path d="M85.8167 47.0862L100.493 88.6033L108.743 84.1784L96.0978 44.6331L85.8167 47.0862Z" fill="#231F20"/>
<path d="M100.489 88.8144C100.464 88.8192 100.438 88.8192 100.413 88.8144C100.384 88.8039 100.357 88.7871 100.336 88.7652C100.314 88.7433 100.297 88.7169 100.286 88.6878L85.6141 47.1707C85.6026 47.1433 85.5967 47.1138 85.5967 47.0841C85.5967 47.0544 85.6026 47.025 85.6141 46.9976C85.6453 46.9459 85.6952 46.9081 85.7534 46.892L96.0303 44.4389C96.0824 44.4259 96.1374 44.4335 96.1839 44.4603C96.2304 44.4871 96.2646 44.5309 96.2794 44.5824L108.946 84.1278C108.961 84.1746 108.959 84.2251 108.94 84.2706C108.922 84.316 108.888 84.3536 108.845 84.3769L100.59 88.8018C100.558 88.815 100.523 88.8193 100.489 88.8144ZM86.0912 47.2382L100.603 88.3036L108.486 84.0813L95.9543 44.8822L86.0912 47.2382Z" fill="#231F20"/>
<path d="M97.8796 28.1115L103.018 26.4227C102.782 26.0764 100.189 18.1133 97.1069 16.5975C94.4174 14.8158 89.4478 15.1535 83.8238 15.5462C82.0195 15.6351 80.2402 16.0055 78.5503 16.644C72.2169 19.1773 71.3049 27.5162 71.3049 27.5162L77.1527 29.5555C77.1527 29.5555 76.2069 40.9007 75.316 46.8329C75.316 46.8329 82.4431 49.5351 98.3736 46.8962C98.3778 46.8667 97.9092 29.7878 97.8796 28.1115Z" fill="#DDDDDD"/>
<path d="M91.2043 18.7509L85.5001 31.768L84.1025 19.2111L91.2043 18.7509Z" fill="#231F20"/>
<path d="M85.5001 31.9791H85.4706C85.4247 31.972 85.3825 31.9499 85.3504 31.9163C85.3183 31.8827 85.2983 31.8395 85.2932 31.7933L83.8957 19.2322C83.8914 19.1762 83.9079 19.1206 83.9421 19.076C83.9603 19.054 83.9828 19.0359 84.0082 19.0229C84.0336 19.0098 84.0614 19.002 84.0899 19L91.2001 18.5398C91.236 18.5383 91.2717 18.5455 91.304 18.561C91.3364 18.5764 91.3645 18.5996 91.3859 18.6284C91.407 18.6582 91.42 18.6929 91.4237 18.7291C91.4274 18.7654 91.4217 18.802 91.407 18.8353L85.7112 31.8524C85.6932 31.8926 85.6633 31.9263 85.6256 31.9489C85.5878 31.9716 85.544 31.9821 85.5001 31.9791V31.9791ZM84.339 19.4222L85.6057 30.9827L90.875 19L84.339 19.4222Z" fill="#231F20"/>
<path d="M94.1852 2.37289C93.4776 1.5685 92.5501 0.988764 91.517 0.705164C90.4838 0.421564 89.3903 0.446498 88.3712 0.776891C86.5641 1.35956 84.9174 2.36867 83.1061 2.94711C81.2948 3.52556 79.1583 3.60156 77.6594 2.43622C77.6687 2.87176 77.771 3.30029 77.9594 3.69309C78.1477 4.08588 78.4179 4.43388 78.7518 4.71375C79.0856 4.99362 79.4754 5.1989 79.8951 5.31584C80.3147 5.43278 80.7545 5.45867 81.185 5.39178C81.1174 5.814 80.5432 5.87734 80.1337 5.78867C79.7241 5.7 79.2005 5.59867 78.9472 5.93645C78.8805 6.04892 78.8408 6.17534 78.8313 6.30576C78.8218 6.43618 78.8427 6.56703 78.8923 6.688C79.2005 7.70556 80.1294 8.37689 81.0034 8.99334C82.2701 9.86734 83.5368 10.0489 84.8288 10.6527C86.1968 11.2987 87.2185 12.1938 88.7892 12.4133C90.2177 12.6056 91.666 12.2496 92.8425 11.4169C93.5814 10.8933 95.0845 10.1798 94.789 9.05667C94.6454 8.52467 95.5828 7.51134 95.6334 6.73022C95.7068 5.94324 95.616 5.14959 95.3667 4.39953C95.1175 3.64947 94.7151 2.95935 94.1852 2.37289V2.37289Z" fill="white"/>
<path d="M89.5112 12.6667C89.254 12.6675 88.9971 12.6491 88.7427 12.6118C87.7318 12.4245 86.7685 12.0369 85.9096 11.4718C85.5338 11.2522 85.1412 11.0496 84.7189 10.83C84.2543 10.6183 83.7778 10.4336 83.2918 10.2769C82.4334 10.0194 81.616 9.64128 80.864 9.15378C79.8887 8.47822 78.9894 7.78578 78.6727 6.73867C78.6122 6.58584 78.5888 6.42089 78.6042 6.25726C78.6196 6.09364 78.6735 5.93597 78.7614 5.79711C78.8831 5.65908 79.0405 5.55729 79.2163 5.50291C79.3921 5.44853 79.5794 5.44368 79.7578 5.48889C79.3411 5.3519 78.9543 5.13698 78.6178 4.85556C78.2514 4.56243 77.9559 4.19033 77.7534 3.76703C77.5508 3.34372 77.4465 2.88014 77.4483 2.41089C77.4485 2.37193 77.4597 2.33383 77.4806 2.30097C77.5015 2.2681 77.5313 2.24181 77.5665 2.22511C77.602 2.2091 77.6411 2.203 77.6798 2.20746C77.7184 2.21192 77.7552 2.22678 77.786 2.25045C79.5636 3.63111 82.0547 3.04422 83.0427 2.72756C83.9372 2.43546 84.8129 2.08858 85.6647 1.68889C86.5228 1.27239 87.4055 0.908605 88.3078 0.599555C89.3648 0.255452 90.4995 0.228421 91.5717 0.5218C92.6439 0.815178 93.6068 1.41612 94.3414 2.25045V2.25045C94.8898 2.85663 95.3066 3.56997 95.5653 4.3454C95.824 5.12084 95.9191 5.94151 95.8445 6.75556C95.762 7.20604 95.5928 7.63623 95.3463 8.02222C95.1478 8.38533 94.924 8.79911 94.9789 8.99756C95.266 10.0869 94.1598 10.8004 93.3534 11.3198C93.2098 11.4127 93.0705 11.5013 92.9523 11.5858C91.9428 12.2895 90.7417 12.6668 89.5112 12.6667ZM79.5129 5.91111C79.4398 5.90286 79.3658 5.91194 79.2968 5.93761C79.2279 5.96329 79.166 6.00483 79.116 6.05889C79.0731 6.14646 79.0491 6.24208 79.0454 6.33954C79.0418 6.437 79.0586 6.53414 79.0949 6.62467C79.3694 7.54089 80.2096 8.18267 81.1216 8.816C81.8418 9.28196 82.6253 9.64173 83.448 9.88423C83.9474 10.0502 84.4378 10.2418 84.9174 10.4584C85.3396 10.6611 85.7618 10.8807 86.1376 11.1129C86.9493 11.6519 87.8611 12.0223 88.8187 12.2022C90.1932 12.3813 91.585 12.0394 92.72 11.2438C92.8425 11.1551 92.986 11.0622 93.1423 10.9651C93.8812 10.488 94.7974 9.89689 94.5863 9.10733C94.4934 8.74422 94.7214 8.31778 95.0085 7.84067C95.2127 7.49113 95.3528 7.10793 95.4223 6.70911C95.4908 5.95461 95.4023 5.19408 95.1625 4.47542C94.9228 3.75676 94.5368 3.09552 94.0289 2.53333V2.53333C93.3483 1.76025 92.4564 1.20321 91.4631 0.930864C90.4697 0.658523 89.4184 0.682787 88.4387 1.00067C87.5517 1.30377 86.6844 1.66195 85.842 2.07311C84.9747 2.49065 84.0837 2.8572 83.1736 3.17089C81.1385 3.82111 79.2427 3.70711 77.8958 2.87533C78.0105 3.54009 78.3632 4.14039 78.888 4.56422C79.1918 4.83295 79.5524 5.0295 79.9428 5.13918C80.3333 5.24886 80.7435 5.26881 81.1427 5.19756C81.1758 5.19121 81.21 5.19289 81.2423 5.20243C81.2746 5.21198 81.3041 5.22913 81.3285 5.25245C81.3546 5.275 81.3742 5.30409 81.3853 5.33675C81.3965 5.3694 81.3987 5.40442 81.3918 5.43822C81.3774 5.52414 81.3451 5.60608 81.2971 5.6788C81.2491 5.75151 81.1865 5.81338 81.1131 5.86045C80.8012 6.03553 80.4338 6.08391 80.0872 5.99556C79.8989 5.94929 79.7066 5.92101 79.5129 5.91111V5.91111Z" fill="#231F20"/>
<path d="M85.1284 15.2L84.1066 19.2111C84.1066 19.2111 85.2424 21.8289 87.953 21.3222C90.6637 20.8156 91.2041 18.7889 91.2084 18.7889L91.6644 14.4696L91.9473 11.8138C92.0184 11.541 92.0511 11.2596 92.0444 10.9778C91.8755 10.374 91.1197 10.0447 90.9002 9.41979C90.461 8.16809 90.5199 6.79545 91.0648 5.58601C89.9333 6.49801 88.6328 7.4269 87.1804 7.32979C87.4735 7.02251 87.7378 6.68896 87.9699 6.33335L85.1284 7.34668C84.7594 7.46818 84.3809 7.55857 83.9968 7.6169C83.5746 7.69713 83.7393 7.43112 83.4184 7.94624C82.6246 9.2129 82.5148 11.4 82.6753 12.8567C82.9033 14.9256 85.1284 15.2 85.1284 15.2Z" fill="white"/>
<path d="M87.2565 21.584C84.9385 21.584 83.9209 19.3167 83.9125 19.2955C83.8956 19.2506 83.8956 19.2011 83.9125 19.1562L84.8794 15.3562C84.2756 15.2084 82.6754 14.6511 82.4769 12.8229C82.3122 11.3409 82.422 9.12843 83.2538 7.77732L83.2749 7.73932C83.4734 7.42265 83.5367 7.3171 83.7731 7.3551C83.8383 7.37086 83.9064 7.37086 83.9716 7.3551C84.3441 7.29834 84.7113 7.21078 85.0694 7.09332L87.9109 6.07576C87.9529 6.06137 87.9983 6.06056 88.0407 6.07345C88.0832 6.08633 88.1205 6.11226 88.1474 6.14754C88.1722 6.18353 88.1856 6.22624 88.1856 6.26999C88.1856 6.31373 88.1722 6.35644 88.1474 6.39243C87.995 6.62368 87.8301 6.84639 87.6534 7.05954C88.8609 6.94976 89.9671 6.1391 90.9214 5.37065C90.9586 5.3412 91.0047 5.32518 91.0523 5.32518C91.0998 5.32518 91.1459 5.3412 91.1831 5.37065C91.2219 5.39864 91.2495 5.43941 91.261 5.48576C91.2726 5.53211 91.2675 5.58107 91.2465 5.62399C90.7253 6.78607 90.6694 8.10371 91.0903 9.30576C91.211 9.5822 91.3929 9.82763 91.6223 10.0235C91.9015 10.2578 92.1153 10.5604 92.2429 10.9018C92.2748 11.1277 92.259 11.3578 92.1965 11.5773C92.1965 11.6618 92.1669 11.7378 92.1585 11.7969L91.4196 18.772C91.4196 18.772 90.8707 20.9549 87.9996 21.5122C87.7548 21.56 87.5059 21.5841 87.2565 21.584ZM84.3263 19.19C84.5205 19.5827 85.5929 21.546 87.9109 21.0984C90.4654 20.6044 90.9974 18.7171 91.0016 18.696L91.7363 11.7547C91.7363 11.6829 91.7616 11.5942 91.7785 11.4971C91.8225 11.3406 91.8411 11.1781 91.8334 11.0158C91.723 10.7451 91.5458 10.5068 91.3183 10.3233C91.0484 10.0921 90.8335 9.80363 90.6891 9.47887C90.3205 8.41945 90.2895 7.27175 90.6005 6.19399C89.5956 6.94976 88.4429 7.61265 87.1594 7.52821C87.1192 7.52576 87.0807 7.51167 87.0485 7.48768C87.0162 7.46368 86.9917 7.43082 86.9778 7.3931C86.9632 7.35558 86.9595 7.31472 86.9669 7.27517C86.9744 7.23562 86.9928 7.19895 87.02 7.16932C87.1509 7.03421 87.2776 6.89488 87.3958 6.7471L85.196 7.53243C84.8277 7.65722 84.449 7.74906 84.0645 7.80688C83.9554 7.82418 83.8442 7.82418 83.7351 7.80688L83.6211 7.98843L83.6 8.02221C82.8738 9.20443 82.7176 11.2733 82.8822 12.8018C83.0891 14.6975 85.0694 14.9847 85.1538 14.9931C85.1836 14.9974 85.2121 15.0079 85.2375 15.0239C85.263 15.0399 85.2848 15.061 85.3016 15.086C85.3186 15.1103 85.33 15.138 85.3351 15.1672C85.3402 15.1963 85.3389 15.2263 85.3311 15.2549L84.3263 19.19Z" fill="#231F20"/>
<path d="M84.5879 17.3111C85.0449 17.4225 85.5222 17.4207 85.9783 17.3059C86.4345 17.1911 86.8558 16.9668 87.2057 16.6525C88.4386 15.5673 88.3921 14.6089 88.3921 14.6089C87.4204 15.2175 86.2518 15.4291 85.1283 15.2L84.5879 17.3111Z" fill="#231F20"/>
<path d="M85.2889 17.6109C85.0395 17.6146 84.7908 17.5833 84.55 17.518C84.4982 17.5023 84.4543 17.4672 84.4276 17.4201C84.4009 17.3729 84.3933 17.3173 84.4065 17.2647L84.9427 15.1536C84.9496 15.1267 84.9617 15.1014 84.9784 15.0791C84.9951 15.0569 85.016 15.0382 85.0399 15.0241C85.0638 15.01 85.0903 15.0007 85.1178 14.9969C85.1454 14.993 85.1734 14.9946 85.2003 15.0016C86.2674 15.2075 87.3729 15.0024 88.2951 14.4273C88.3258 14.406 88.3617 14.3933 88.399 14.3907C88.4363 14.3881 88.4736 14.3956 88.5069 14.4125C88.5403 14.4294 88.5684 14.455 88.5884 14.4866C88.6083 14.5182 88.6193 14.5546 88.6203 14.592C88.6203 14.6342 88.6583 15.6645 87.3536 16.8045C86.7885 17.319 86.0531 17.6062 85.2889 17.6109V17.6109ZM84.8667 17.1591C85.2626 17.2208 85.6672 17.1938 86.0513 17.0798C86.4354 16.9659 86.7894 16.768 87.0876 16.5005C87.5676 16.1126 87.929 15.5976 88.1305 15.0142C87.2614 15.4674 86.2686 15.626 85.3016 15.466L84.8667 17.1591Z" fill="#231F20"/>
<path d="M86.8089 8.892C86.8089 8.892 85.2382 10.868 85.5422 11.2607C85.8462 11.6533 86.8089 11.4844 86.8089 11.4844" fill="white"/>
<path d="M86.3573 11.7336C86.179 11.7507 85.9992 11.7298 85.8296 11.6723C85.6601 11.6148 85.5046 11.522 85.3735 11.4C85.04 10.9778 85.8802 9.71112 86.6402 8.76956C86.6571 8.74755 86.6782 8.72916 86.7024 8.71549C86.7265 8.70182 86.7532 8.69315 86.7808 8.69C86.8084 8.68685 86.8363 8.68928 86.8629 8.69714C86.8895 8.70501 86.9143 8.71815 86.9357 8.73579C86.9792 8.77062 87.0072 8.82124 87.0135 8.8766C87.0198 8.93197 87.004 8.98759 86.9695 9.03134C86.2391 9.95179 85.648 10.944 85.7028 11.1425C85.8633 11.3493 86.4797 11.324 86.7457 11.2776C86.8011 11.2689 86.8576 11.2822 86.9033 11.3145C86.949 11.3468 86.9803 11.3956 86.9906 11.4507C86.9955 11.4781 86.9948 11.5063 86.9887 11.5335C86.9826 11.5607 86.9712 11.5864 86.9551 11.6092C86.939 11.632 86.9186 11.6513 86.8949 11.6661C86.8713 11.681 86.845 11.691 86.8175 11.6956C86.6651 11.7185 86.5114 11.7312 86.3573 11.7336Z" fill="#231F20"/>
<path d="M88.5066 9.37149C88.6978 9.37068 88.8519 9.15075 88.8507 8.88026C88.8496 8.60977 88.6937 8.39114 88.5025 8.39194C88.3113 8.39274 88.1572 8.61267 88.1583 8.88316C88.1594 9.15366 88.3154 9.37229 88.5066 9.37149Z" fill="#231F20"/>
<path d="M85.561 8.73535C85.6396 8.47652 85.5549 8.22166 85.372 8.16611C85.189 8.11055 84.977 8.27534 84.8984 8.53417C84.8198 8.793 84.9044 9.04784 85.0874 9.1034C85.2704 9.15895 85.4824 8.99418 85.561 8.73535Z" fill="#231F20"/>
<path d="M86.5091 13.3C85.4605 13.2538 84.4487 12.8999 83.6 12.2824C83.5761 12.2663 83.5558 12.2454 83.5403 12.2211C83.5249 12.1968 83.5145 12.1695 83.51 12.1411C83.5054 12.1126 83.5067 12.0835 83.5139 12.0556C83.521 12.0277 83.5337 12.0015 83.5513 11.9787C83.569 11.9559 83.591 11.9369 83.6163 11.923C83.6415 11.909 83.6693 11.9004 83.698 11.8976C83.7267 11.8948 83.7556 11.8979 83.7831 11.9067C83.8105 11.9156 83.8358 11.9299 83.8575 11.9489C83.9546 12.0249 86.2599 13.7729 88.2528 12.2951C88.2747 12.275 88.3005 12.2597 88.3286 12.2503C88.3567 12.2408 88.3865 12.2374 88.416 12.2402C88.4455 12.243 88.4742 12.252 88.5 12.2666C88.5258 12.2813 88.5482 12.3012 88.5658 12.325C88.5834 12.3489 88.5958 12.3762 88.6022 12.4052C88.6085 12.4342 88.6087 12.4642 88.6026 12.4932C88.5966 12.5223 88.5845 12.5497 88.5672 12.5738C88.5498 12.5979 88.5276 12.618 88.5019 12.6329C87.9288 13.0678 87.2285 13.3022 86.5091 13.3V13.3Z" fill="#231F20"/>
<path d="M90.8791 10.6147C91.0396 10.4576 91.2298 10.3342 91.4386 10.2515C91.6474 10.1689 91.8706 10.1287 92.0951 10.1333C92.3204 10.1435 92.538 10.2182 92.7221 10.3484C92.9063 10.4786 93.0491 10.659 93.1338 10.868C93.193 11.1148 93.1884 11.3725 93.1204 11.6171C93.0525 11.8616 92.9234 12.0847 92.7453 12.2655C92.4909 12.5565 92.1783 12.7909 91.8278 12.9538C91.4773 13.1167 91.0966 13.2044 90.7102 13.2113" fill="white"/>
<path d="M90.7102 13.4309C90.6542 13.4309 90.6005 13.4086 90.5609 13.3691C90.5213 13.3295 90.4991 13.2758 90.4991 13.2198C90.4985 13.1923 90.5034 13.1649 90.5136 13.1393C90.5237 13.1137 90.5389 13.0904 90.5581 13.0707C90.5774 13.0511 90.6004 13.0355 90.6258 13.0248C90.6512 13.0141 90.6784 13.0087 90.706 13.0087C91.063 13.0037 91.415 12.9232 91.7389 12.7726C92.0627 12.6219 92.351 12.4046 92.5848 12.1347C92.7381 11.9814 92.8502 11.7919 92.9107 11.5838C92.9712 11.3756 92.9782 11.1556 92.9311 10.944C92.8612 10.7753 92.7447 10.63 92.5951 10.5253C92.4455 10.4205 92.2691 10.3607 92.0866 10.3529C91.8906 10.3481 91.6957 10.383 91.5135 10.4556C91.3314 10.5282 91.1658 10.6369 91.0268 10.7751C90.9867 10.8141 90.9329 10.8358 90.877 10.8358C90.821 10.8358 90.7672 10.8141 90.7271 10.7751C90.7073 10.7555 90.6916 10.7321 90.6809 10.7064C90.6701 10.6807 90.6646 10.6531 90.6646 10.6252C90.6646 10.5974 90.6701 10.5698 90.6809 10.544C90.6916 10.5183 90.7073 10.495 90.7271 10.4753C90.9094 10.2995 91.1252 10.1622 91.3616 10.0715C91.5981 9.98083 91.8504 9.93868 92.1035 9.94756C92.3691 9.96158 92.6251 10.0513 92.8414 10.2062C93.0576 10.3611 93.225 10.5746 93.3237 10.8216C93.3981 11.1033 93.3983 11.3996 93.3244 11.6815C93.2504 11.9634 93.1047 12.2213 92.9015 12.4302C92.627 12.7439 92.2898 12.9965 91.9116 13.1718C91.5335 13.3471 91.1227 13.4411 90.706 13.4478L90.7102 13.4309Z" fill="#231F20"/>
<path d="M35.0951 52.0516C35.0951 52.0516 39.8873 71.7271 36.7249 73.0951C33.5624 74.4631 15.5673 77.0936 15.5673 77.0936L14.7524 71.4189C14.7524 71.4189 28.5971 68.3873 29.3529 67.6991C30.1087 67.0109 24.7084 50.2909 24.5818 50.1558C24.4551 50.0207 35.0951 52.0516 35.0951 52.0516Z" fill="#231F20"/>
<path d="M15.5675 77.3047C15.5233 77.3035 15.4805 77.2888 15.445 77.2625C15.4224 77.246 15.4033 77.2252 15.3888 77.2013C15.3743 77.1773 15.3647 77.1508 15.3606 77.1231L14.5415 71.4485C14.5338 71.3955 14.5466 71.3417 14.5772 71.2978C14.6077 71.2539 14.6538 71.2232 14.7061 71.212C20.0388 70.0467 28.6901 68.0158 29.2095 67.5429C29.6317 66.6267 24.869 51.2409 24.4046 50.2656C24.3848 50.2331 24.3743 50.1959 24.3743 50.1579C24.3743 50.1199 24.3848 50.0826 24.4046 50.0502C24.5017 49.8644 24.527 49.8138 35.1417 51.8447C35.1814 51.8518 35.2181 51.8704 35.2473 51.8982C35.2766 51.9259 35.2971 51.9616 35.3063 52.0009C35.8046 54.0318 40.0521 71.8876 36.8179 73.2893C33.6639 74.6573 16.3443 77.1949 15.6097 77.3005L15.5675 77.3047ZM14.989 71.5836L15.749 76.8445C17.7672 76.5447 33.723 74.1591 36.6406 72.8925C37.3246 72.5969 38.2619 70.8025 36.8897 62.0878C36.1677 57.5236 35.1163 53.0438 34.9221 52.2247C31.3543 51.5449 26.2328 50.5864 24.907 50.388C25.8275 52.7862 29.6823 65.3473 29.6359 67.4036C29.6438 67.4834 29.6351 67.5639 29.6104 67.6402C29.5857 67.7165 29.5455 67.7869 29.4923 67.8469C28.745 68.5393 17.0875 71.1233 14.989 71.5836Z" fill="#231F20"/>
<path d="M12.9919 51.376L27.9766 86.7709L34.4324 85.5253L24.6242 48.1629L12.9919 51.376Z" fill="#231F20"/>
<path d="M27.9765 86.9778C27.9354 86.9774 27.8953 86.9653 27.8608 86.9428C27.8264 86.9204 27.7991 86.8885 27.7822 86.8511L12.7976 51.452C12.7863 51.4241 12.7811 51.3942 12.7821 51.3641C12.7831 51.3341 12.7905 51.3046 12.8036 51.2776C12.8167 51.2505 12.8354 51.2265 12.8583 51.2071C12.8813 51.1877 12.908 51.1733 12.9369 51.1649L24.5649 47.956C24.5909 47.9447 24.6189 47.9389 24.6472 47.9389C24.6756 47.9389 24.7036 47.9447 24.7296 47.956C24.7767 47.9845 24.8113 48.0298 24.8267 48.0827L34.6222 85.4747C34.6308 85.5022 34.633 85.5314 34.6286 85.5599C34.6242 85.5884 34.6134 85.6156 34.5969 85.6393C34.5819 85.6645 34.5617 85.6861 34.5377 85.7028C34.5136 85.7196 34.4863 85.731 34.4576 85.7364L28.0187 86.9778H27.9765ZM13.2831 51.5111L28.1031 86.526L34.1704 85.3564L24.4593 48.4204L13.2831 51.5111Z" fill="#231F20"/>
<path d="M18.2864 4.96956C17.2075 4.20935 15.9131 3.81547 14.5937 3.84587C13.2742 3.87628 11.9993 4.32935 10.9566 5.13845C10.1642 5.75836 9.56249 6.589 9.22047 7.53516C8.87845 8.48132 8.80995 9.50471 9.02283 10.488C9.29423 11.4535 9.86374 12.3086 10.6501 12.9311C11.4364 13.5536 12.3993 13.9118 13.4013 13.9545C15.3393 14.0516 17.3786 12.3922 18.4088 10.8722C19.6544 9.03556 20.4904 6.48956 18.2864 4.96956Z" fill="white"/>
<path d="M13.5661 14.1698H13.3888C12.3424 14.1282 11.3361 13.7559 10.5145 13.1065C9.69289 12.4571 9.09829 11.564 8.8161 10.5555C8.59763 9.5322 8.6701 8.46812 9.02531 7.48384C9.38051 6.49957 10.0043 5.63443 10.8259 4.98643C11.905 4.14285 13.2278 3.67029 14.5972 3.6391C15.9666 3.60791 17.3094 4.01975 18.4259 4.81332V4.81332C21.1112 6.64999 19.4223 9.74488 18.5779 10.9778C17.535 12.5442 15.5337 14.1698 13.5661 14.1698ZM14.6934 4.03643C13.3828 4.03861 12.1117 4.48514 11.0877 5.3031C10.3296 5.90026 9.75349 6.69744 9.42447 7.60467C9.09545 8.5119 9.02659 9.49303 9.22566 10.4373C9.48271 11.3607 10.0265 12.1785 10.7786 12.7727C11.5307 13.367 12.4521 13.7068 13.4099 13.7433C15.1832 13.8235 17.1846 12.3078 18.2359 10.754C19.0086 9.60977 20.5497 6.78088 18.1683 5.14688C17.1475 4.43894 15.9357 4.0576 14.6934 4.05332V4.03643Z" fill="#231F20"/>
<path d="M14.3894 8.18688C13.6906 8.80051 13.1607 9.58297 12.8503 10.4596C12.5398 11.3362 12.4592 12.2778 12.6161 13.1944C12.6744 13.7026 12.9107 14.1738 13.2832 14.5244C14.0305 15.1324 15.1621 14.7778 15.9643 14.2458C17.2599 13.3383 18.3279 12.1431 19.0845 10.754C19.6461 9.77444 20.4947 7.56622 18.9747 7.02155C17.4547 6.47688 15.5041 7.22422 14.3894 8.18688Z" fill="#231F20"/>
<path d="M14.2375 15.0522C13.8431 15.0621 13.4577 14.9337 13.1481 14.6891C12.7317 14.3087 12.4689 13.7891 12.4092 13.2282C12.2441 12.2755 12.3267 11.2962 12.6491 10.3846C12.9715 9.47292 13.5228 8.65944 14.2501 8.02223C15.4112 7.02156 17.4886 6.26156 19.0466 6.8189C19.2483 6.88396 19.4328 6.99367 19.5863 7.13987C19.7399 7.28606 19.8584 7.46499 19.9332 7.66334C20.3555 8.86245 19.3844 10.6442 19.2661 10.8427C18.4961 12.2616 17.4061 13.4817 16.0826 14.4062C15.5408 14.7914 14.9011 15.0154 14.2375 15.0522V15.0522ZM17.8939 7.05956C16.656 7.10097 15.4674 7.55415 14.5161 8.34734C13.8473 8.93792 13.3409 9.69001 13.0452 10.5319C12.7496 11.3738 12.6745 12.2773 12.8272 13.1565C12.8752 13.615 13.0847 14.0415 13.4184 14.3598C14.0812 14.896 15.1072 14.5582 15.8546 14.0685C17.1239 13.181 18.1691 12.01 18.9072 10.6485C19.283 9.98979 19.8446 8.65556 19.5406 7.82801C19.4896 7.68483 19.4058 7.55561 19.2958 7.45074C19.1858 7.34588 19.0527 7.26829 18.9072 7.22423C18.5817 7.11065 18.2387 7.05492 17.8939 7.05956V7.05956Z" fill="#231F20"/>
<path d="M22.2005 20.1696C21.8678 20.492 21.5167 20.7951 21.1492 21.0773C20.4213 21.5036 19.5973 21.7383 18.7541 21.7597C17.9109 21.7812 17.076 21.5885 16.3274 21.1998C12.7597 19.3631 12.8441 15.1916 13.583 11.7969C13.8828 10.4162 14.8919 7.53667 16.7539 8.97645C16.2092 8.55423 18.4428 7.15667 18.7848 7.02578C21.1577 6.05889 23.6783 7.448 25.0674 9.37756C25.8891 10.4807 26.5858 11.6716 27.1448 12.9284C27.6937 14.3133 27.0941 16.2133 26.3003 17.3913C25.6871 18.3042 24.8378 19.0338 23.843 19.5024C23.3828 19.7178 22.7917 19.7727 22.3652 20.0387L22.2005 20.1696Z" fill="white"/>
<path d="M18.6665 21.9555C17.8206 21.9565 16.9868 21.7553 16.2345 21.3687C13.2789 19.8487 12.3162 16.6102 13.376 11.7378C13.5196 11.0791 14.0811 8.89199 15.3267 8.43599C15.5219 8.36835 15.7294 8.34388 15.935 8.3643C16.1406 8.38471 16.3393 8.44951 16.5174 8.55422C16.8594 7.82799 18.582 6.86533 18.7045 6.81466C21.2674 5.77177 23.8893 7.33821 25.2405 9.23821C26.078 10.3521 26.7862 11.5575 27.3516 12.8313C27.93 14.2838 27.3178 16.264 26.5071 17.4758C25.8769 18.4213 25.0012 19.1774 23.9738 19.6629C23.7528 19.7597 23.524 19.8374 23.2898 19.8951C23.0224 19.9596 22.7643 20.0575 22.5213 20.1864C22.4665 20.2244 22.4116 20.2624 22.3609 20.3047C22.2129 20.4154 22.0718 20.5353 21.9387 20.6635C21.7368 20.8738 21.5132 21.062 21.2716 21.2251C20.488 21.7061 19.5859 21.959 18.6665 21.9555V21.9555ZM15.7827 8.77799C15.6761 8.77736 15.5702 8.79595 15.4702 8.83288C14.6258 9.13688 14.0473 10.6358 13.7813 11.8264C12.768 16.4709 13.6547 19.5742 16.416 20.9929C17.132 21.3654 17.9307 21.5507 18.7376 21.5315C19.5445 21.5123 20.3334 21.2892 21.0309 20.8831C21.2463 20.7351 21.447 20.5668 21.6305 20.3807C21.7642 20.2424 21.9051 20.1114 22.0527 19.988C22.1161 19.9378 22.1824 19.8913 22.2511 19.8487C22.5252 19.6915 22.8212 19.5762 23.1293 19.5067C23.3417 19.4536 23.5493 19.383 23.75 19.2955C24.7112 18.8434 25.5314 18.1385 26.1229 17.2562C26.8745 16.1204 27.4487 14.3007 26.9293 12.9875C26.3889 11.7533 25.712 10.5835 24.9111 9.49999C23.6445 7.73088 21.2251 6.26577 18.8776 7.22422C18.4553 7.39311 16.872 8.49088 16.8931 8.80755C16.9148 8.82418 16.9329 8.84491 16.9465 8.86856C16.9601 8.8922 16.9689 8.91829 16.9725 8.94535C16.976 8.9724 16.9742 8.99988 16.9671 9.02622C16.96 9.05257 16.9478 9.07726 16.9311 9.09888C16.9145 9.12051 16.8938 9.13864 16.8701 9.15225C16.8465 9.16587 16.8204 9.17469 16.7933 9.17822C16.7663 9.18175 16.7388 9.17991 16.7125 9.17282C16.6861 9.16573 16.6614 9.15352 16.6398 9.13688C16.4002 8.93055 16.0985 8.81018 15.7827 8.79488V8.77799Z" fill="#231F20"/>
<path d="M24.8561 12.1685C24.8561 12.1685 26.2537 15.2127 25.9159 17.6573C25.8381 18.335 25.5647 18.9752 25.1291 19.5001C24.6935 20.0249 24.1145 20.4116 23.4628 20.6129L23.8302 24.8351C23.8302 24.8351 24.0413 26.9969 21.3601 26.8956C20.5822 26.8653 19.8248 26.6369 19.1598 26.232C18.4948 25.8271 17.9442 25.2591 17.5601 24.5818L16.5933 16.8382C16.5933 16.8382 19.4475 14.8496 18.9408 12.0798C18.9408 12.0798 22.6606 13.5111 24.8561 12.1685Z" fill="white"/>
<path d="M21.5335 27.1109H21.3435C20.5292 27.0806 19.7365 26.8414 19.0414 26.4162C18.3464 25.991 17.7724 25.3942 17.3746 24.6831C17.3728 24.6606 17.3728 24.638 17.3746 24.6155L16.3992 16.8635C16.3931 16.8254 16.3982 16.7864 16.414 16.7511C16.4297 16.7159 16.4554 16.686 16.4879 16.6651C16.5132 16.6651 19.2197 14.7187 18.7468 12.1178C18.7412 12.0807 18.7448 12.0428 18.7573 12.0074C18.7698 11.9721 18.7909 11.9404 18.8186 11.9151C18.8482 11.8923 18.883 11.8773 18.9198 11.8714C18.9567 11.8655 18.9945 11.8689 19.0297 11.8813C19.0677 11.8813 22.6819 13.2451 24.7592 11.9869C24.7859 11.9755 24.8147 11.9696 24.8437 11.9696C24.8727 11.9696 24.9014 11.9755 24.9281 11.9869C24.9569 11.9953 24.9835 12.0098 25.0061 12.0295C25.0287 12.0492 25.0468 12.0735 25.059 12.1009C25.1181 12.2275 26.4819 15.2295 26.1399 17.6995C26.0555 18.3879 25.7831 19.0397 25.3526 19.5835C24.9221 20.1272 24.3501 20.5418 23.6995 20.7818L24.0541 24.8435C24.072 25.1326 24.0327 25.4223 23.9385 25.6962C23.8443 25.97 23.6971 26.2226 23.5052 26.4395C23.2417 26.683 22.9301 26.8685 22.5905 26.9842C22.2509 27.0998 21.8908 27.143 21.5335 27.1109V27.1109ZM17.7672 24.5227C18.1334 25.1587 18.6552 25.6913 19.2838 26.0702C19.9123 26.4491 20.6269 26.6619 21.3604 26.6887C21.6846 26.7319 22.0144 26.7045 22.327 26.6083C22.6397 26.5121 22.9278 26.3494 23.1717 26.1313C23.4729 25.7807 23.6245 25.3259 23.5939 24.8647L23.2266 20.6424C23.223 20.5923 23.2371 20.5424 23.2664 20.5016C23.2957 20.4607 23.3384 20.4313 23.387 20.4187C24.0003 20.2301 24.5446 19.8654 24.9522 19.3699C25.3598 18.8745 25.6128 18.2701 25.6797 17.632C25.9584 15.6433 25.0295 13.1987 24.7297 12.4767C22.8381 13.4478 20.1148 12.7089 19.1732 12.4049C19.3928 14.82 17.2986 16.5638 16.7919 16.948L17.7672 24.5227Z" fill="#231F20"/>
<path d="M18.012 16.1627C18.012 16.1627 16.4456 13.3422 15.1367 15.3182C13.8278 17.2942 16.15 19.1182 17.442 18.848" fill="white"/>
<path d="M17.1549 19.0929C16.7179 19.0626 16.2936 18.9327 15.9145 18.7132C15.5354 18.4936 15.2115 18.1902 14.9678 17.8262C14.6931 17.4427 14.5454 16.9828 14.5454 16.511C14.5454 16.0392 14.6931 15.5793 14.9678 15.1958C15.0884 14.9617 15.2695 14.7643 15.4922 14.6239C15.715 14.4836 15.9713 14.4055 16.2345 14.3978C17.3027 14.44 18.1725 15.9853 18.2105 16.0529C18.2238 16.0773 18.2321 16.1041 18.2351 16.1317C18.2381 16.1593 18.2355 16.1873 18.2277 16.2139C18.2199 16.2406 18.2068 16.2655 18.1894 16.2871C18.1719 16.3087 18.1504 16.3267 18.126 16.34C18.1016 16.3533 18.0748 16.3617 18.0472 16.3646C18.0196 16.3676 17.9916 16.3651 17.965 16.3572C17.9383 16.3494 17.9134 16.3364 17.8918 16.3189C17.8702 16.3015 17.8522 16.28 17.8389 16.2556C17.6236 15.8671 16.9058 14.8453 16.2176 14.82C16.029 14.8349 15.8475 14.8988 15.6912 15.0055C15.535 15.1121 15.4093 15.2578 15.3267 15.428C15.0984 15.7414 14.9755 16.1191 14.9755 16.5068C14.9755 16.8945 15.0984 17.2722 15.3267 17.5856C15.8291 18.3118 16.758 18.7847 17.4082 18.6411C17.4642 18.6288 17.5228 18.6392 17.5711 18.6701C17.6194 18.701 17.6535 18.7498 17.6658 18.8058C17.6781 18.8618 17.6677 18.9204 17.6368 18.9687C17.6059 19.017 17.5571 19.051 17.5011 19.0633C17.3873 19.0869 17.2711 19.0968 17.1549 19.0929V19.0929Z" fill="#231F20"/>
<path d="M23.484 18.0247C23.2874 18.024 23.0911 18.0071 22.8972 17.974C22.8694 17.9693 22.8429 17.9592 22.8191 17.9442C22.7953 17.9292 22.7747 17.9097 22.7584 17.8868C22.7421 17.8639 22.7305 17.8379 22.7243 17.8105C22.718 17.7831 22.7172 17.7547 22.7219 17.727C22.7266 17.6993 22.7368 17.6728 22.7517 17.6489C22.7667 17.6251 22.7862 17.6045 22.8091 17.5882C22.8321 17.572 22.858 17.5604 22.8854 17.5541C22.9128 17.5479 22.9412 17.5471 22.9689 17.5518C23.3618 17.6299 23.7683 17.6023 24.1469 17.4716C24.1469 17.2267 23.5178 16.3189 22.762 15.4787C22.7424 15.4594 22.7268 15.4364 22.7161 15.411C22.7054 15.3857 22.7 15.3584 22.7 15.3309C22.7 15.3034 22.7054 15.2761 22.7161 15.2507C22.7268 15.2254 22.7424 15.2024 22.762 15.1831C22.7817 15.1633 22.805 15.1476 22.8307 15.1369C22.8565 15.1262 22.8841 15.1207 22.9119 15.1207C22.9398 15.1207 22.9674 15.1262 22.9931 15.1369C23.0189 15.1476 23.0422 15.1633 23.0618 15.1831C23.4292 15.6053 24.6241 16.9691 24.5438 17.5349C24.5385 17.5889 24.521 17.6409 24.4924 17.687C24.4639 17.7331 24.4251 17.7721 24.3792 17.8009C24.1059 17.9535 23.797 18.0308 23.484 18.0247V18.0247Z" fill="#231F20"/>
<path d="M22.5889 19.4222C22.4476 19.4232 22.3065 19.4133 22.1667 19.3927C21.4082 19.2817 20.7177 18.8936 20.2287 18.3033C20.2013 18.2546 20.1944 18.197 20.2094 18.1432C20.2245 18.0894 20.2602 18.0437 20.3089 18.0162C20.3579 17.99 20.4151 17.9837 20.4686 17.9986C20.5221 18.0136 20.5677 18.0486 20.596 18.0964C21.0362 18.5826 21.6347 18.8968 22.2849 18.9831C23.1293 19.0802 23.9231 18.7424 24.6958 17.9909C24.7149 17.9689 24.7383 17.9512 24.7646 17.9387C24.7908 17.9262 24.8194 17.9193 24.8485 17.9184C24.8776 17.9175 24.9065 17.9226 24.9335 17.9334C24.9605 17.9442 24.985 17.9605 25.0054 17.9812C25.0259 18.0019 25.0418 18.0266 25.0522 18.0538C25.0626 18.0809 25.0673 18.1099 25.066 18.139C25.0647 18.1681 25.0574 18.1965 25.0445 18.2226C25.0317 18.2487 25.0136 18.2719 24.9913 18.2907C24.3711 18.9699 23.5076 19.3766 22.5889 19.4222V19.4222Z" fill="#231F20"/>
<path d="M23.4629 20.6129C23.4629 20.6129 21.2293 21.0942 19.9036 20.8747C19.9036 20.8747 21.5925 24.0836 23.7542 23.8767L23.4629 20.6129Z" fill="#231F20"/>
<path d="M23.5559 24.0962C21.4025 24.0962 19.7854 21.1069 19.7179 20.976C19.6974 20.9423 19.6865 20.9036 19.6865 20.8641C19.6865 20.8246 19.6974 20.7859 19.7179 20.7522C19.7416 20.7209 19.7734 20.6966 19.8098 20.6817C19.8462 20.6669 19.8859 20.662 19.9248 20.6678C21.1914 20.8747 23.3828 20.4102 23.4039 20.406C23.4338 20.3994 23.4647 20.3994 23.4946 20.406C23.5245 20.4125 23.5526 20.4255 23.577 20.444C23.6007 20.4612 23.6206 20.4833 23.6351 20.5088C23.6497 20.5343 23.6586 20.5626 23.6614 20.5918L23.9528 23.8556C23.9557 23.8833 23.9531 23.9114 23.9451 23.9381C23.9371 23.9648 23.9239 23.9897 23.9062 24.0113C23.8885 24.0329 23.8668 24.0508 23.8421 24.0639C23.8175 24.077 23.7905 24.0851 23.7628 24.0878L23.5559 24.0962ZM20.3005 21.1407C20.7861 21.9091 22.0485 23.674 23.5263 23.674L23.273 20.8662C22.295 21.0638 21.2981 21.153 20.3005 21.1322V21.1407Z" fill="#231F20"/>
<path d="M21.4853 15.6056C21.6677 15.5796 21.7788 15.3003 21.7334 14.9817C21.688 14.6631 21.5033 14.4259 21.3209 14.4519C21.1386 14.4779 21.0275 14.7573 21.0729 15.0758C21.1183 15.3944 21.303 15.6316 21.4853 15.6056Z" fill="#231F20"/>
<path d="M24.5305 15.1678C24.7129 15.1418 24.8239 14.8625 24.7785 14.5439C24.7331 14.2254 24.5485 13.9882 24.3661 14.0142C24.1837 14.0402 24.0727 14.3195 24.1181 14.6381C24.1635 14.9566 24.3481 15.1938 24.5305 15.1678Z" fill="#231F20"/>
<path d="M95.5953 27.9764L61.0406 9.89689C60.7118 9.72459 60.3412 9.64818 59.9711 9.67637C59.6009 9.70457 59.2462 9.83623 58.9473 10.0563C58.6484 10.2764 58.4174 10.5761 58.2806 10.9212C58.1438 11.2663 58.1068 11.6429 58.1737 12.008L59.5206 19.608L1.63394 29.868C1.47523 29.896 1.32361 29.9551 1.18778 30.0418C1.05195 30.1285 0.93458 30.2412 0.842398 30.3734C0.750215 30.5056 0.685036 30.6547 0.650598 30.8122C0.61616 30.9696 0.613138 31.1323 0.641711 31.2909L5.84771 60.6227C5.90433 60.9423 6.08558 61.2264 6.35162 61.4125C6.61765 61.5986 6.94668 61.6714 7.26638 61.6149L65.1573 51.3422L66.5042 58.9422C66.5696 59.3057 66.7355 59.6436 66.9829 59.9178C67.2303 60.192 67.5495 60.3915 67.9043 60.4939C68.2592 60.5962 68.6356 60.5972 68.991 60.4969C69.3465 60.3966 69.6668 60.1988 69.9157 59.926L96.1442 31.0587C96.3461 30.8342 96.4941 30.5667 96.577 30.2764C96.66 29.9861 96.6755 29.6807 96.6226 29.3835C96.5697 29.0863 96.4496 28.805 96.2716 28.5612C96.0936 28.3174 95.8623 28.1174 95.5953 27.9764V27.9764Z" fill="white"/>
<path d="M7.05115 61.8471C6.75782 61.8453 6.47204 61.754 6.23204 61.5853C6.07704 61.4782 5.94494 61.3412 5.84345 61.1825C5.74196 61.0237 5.67311 60.8463 5.64093 60.6607L0.422264 31.3247C0.38946 31.1389 0.393589 30.9485 0.434411 30.7643C0.475233 30.5802 0.551948 30.4059 0.660173 30.2514C0.768398 30.0969 0.906012 29.9652 1.06514 29.8639C1.22428 29.7627 1.40181 29.6937 1.5876 29.6611L59.2758 19.4222L57.9669 12.0291C57.8972 11.6267 57.9413 11.2127 58.0943 10.834C58.2473 10.4553 58.5031 10.1269 58.8329 9.88585C59.1626 9.6448 59.5531 9.50071 59.9604 9.46983C60.3677 9.43896 60.7755 9.52253 61.1378 9.71111L95.6967 27.7949C95.9933 27.9499 96.2504 28.1709 96.4482 28.4409C96.646 28.7109 96.7792 29.0226 96.8375 29.3522C96.8958 29.6817 96.8778 30.0203 96.7847 30.3418C96.6916 30.6632 96.5259 30.9591 96.3005 31.2064L70.0889 60.0738C69.8131 60.3755 69.4583 60.5941 69.0647 60.7048C68.6711 60.8155 68.2544 60.8138 67.8617 60.7001C67.469 60.5863 67.116 60.3649 66.8425 60.061C66.5691 59.7571 66.3861 59.3827 66.3143 58.9802L65.0012 51.5871L7.30449 61.8218C7.22109 61.8386 7.13623 61.847 7.05115 61.8471V61.8471ZM60.116 9.87577C59.742 9.87874 59.3784 9.99992 59.0774 10.222C58.8081 10.4149 58.5995 10.6807 58.476 10.9881C58.3526 11.2955 58.3196 11.6318 58.3807 11.9573L59.7318 19.5573C59.7405 19.6126 59.7272 19.6691 59.6949 19.7149C59.6626 19.7606 59.6137 19.7919 59.5587 19.8022L1.68893 30.0749C1.42411 30.125 1.1893 30.2765 1.03448 30.4971C0.87514 30.7114 0.806859 30.98 0.844486 31.2444L6.05049 60.5762C6.09784 60.8414 6.24844 61.0771 6.46928 61.2314C6.69011 61.3858 6.96314 61.4462 7.22849 61.3995L65.1152 51.1269C65.1699 51.1181 65.2258 51.1308 65.2715 51.1622C65.3171 51.1937 65.3488 51.2415 65.36 51.2958L66.7069 58.8958C66.764 59.2215 66.9114 59.5247 67.1324 59.7707C67.3534 60.0167 67.639 60.1957 67.9568 60.2872C68.2746 60.3788 68.6117 60.3792 68.9297 60.2885C69.2477 60.1977 69.5338 60.0195 69.7554 59.774L95.9838 30.9067C96.1648 30.7065 96.2976 30.4676 96.3721 30.2082C96.4465 29.9489 96.4607 29.6759 96.4134 29.4102C96.3661 29.1445 96.2587 28.8932 96.0994 28.6754C95.94 28.4577 95.733 28.2792 95.494 28.1538L60.9394 10.0827C60.686 9.94725 60.4033 9.87621 60.116 9.87577V9.87577Z" fill="#231F20"/>
<path d="M59.4152 17.1084C58.9508 16.9522 58.4779 16.8129 58.005 16.6862C57.7115 16.5826 57.3934 16.5708 57.093 16.6524C56.6708 16.8171 56.4554 17.3196 56.3034 17.7629C56.0797 18.4427 55.8474 19.1689 56.0417 19.874C56.3245 20.8789 57.397 21.432 58.4019 21.7065C58.894 21.8624 59.4143 21.9085 59.9261 21.8416C62.9112 21.3011 61.3997 17.7756 59.4152 17.1084Z" fill="white"/>
<path d="M59.5079 22.0822C59.1146 22.0728 58.7242 22.0118 58.3468 21.9007C57.5573 21.6896 56.1808 21.1491 55.8388 19.9247C55.6193 19.1478 55.8895 18.3498 56.1048 17.7038C56.2695 17.2098 56.4933 16.6609 57.0168 16.4625C57.3576 16.3629 57.721 16.3732 58.0555 16.492C58.5368 16.6102 59.0182 16.7538 59.4826 16.9142C60.7957 17.3365 61.9019 18.9536 61.8048 20.2667C61.7668 20.8156 61.4713 21.774 59.9639 22.0485C59.8131 22.0721 59.6606 22.0834 59.5079 22.0822ZM57.4222 16.8171C57.3331 16.8157 57.2445 16.83 57.1604 16.8593C56.8057 16.9902 56.6326 17.4336 56.4975 17.8389C56.2526 18.5609 56.0753 19.2069 56.2357 19.8107C56.5228 20.8325 57.7473 21.3053 58.4482 21.4996C58.91 21.6468 59.3982 21.6929 59.8795 21.6347C60.8042 21.47 61.3193 20.9845 61.3742 20.2371C61.4586 19.1182 60.4664 17.7038 59.339 17.3153C58.883 17.1633 58.4144 17.0282 57.9457 16.8931C57.7751 16.8456 57.5992 16.8201 57.4222 16.8171Z" fill="#231F20"/>
<path d="M7.00477 32.566C7.11705 32.5658 7.22797 32.5414 7.32988 32.4942C8.40655 32.0255 8.25454 30.0369 8.34743 29.0658C8.3981 28.5211 8.38543 27.8624 7.92521 27.5795C6.88654 26.9504 5.44255 27.2249 4.50099 27.9173C3.55944 28.6098 3.35255 29.9187 3.4581 31.0418C3.4961 31.4893 3.52988 32.4815 3.93521 32.7602C4.47566 33.1402 5.11321 32.0931 5.10055 31.6287V32.0044C5.09442 32.1776 5.11871 32.3505 5.17232 32.5153C5.19871 32.5987 5.24527 32.6744 5.30787 32.7355C5.37047 32.7966 5.44718 32.8414 5.53121 32.8658C5.80143 32.9207 6.04632 32.6842 6.1561 32.4435C6.23381 32.1808 6.32686 31.9228 6.43477 31.6709C6.35296 31.786 6.31752 31.9277 6.33552 32.0678C6.35352 32.2078 6.42363 32.336 6.53188 32.4267C6.66671 32.5303 6.8353 32.5799 7.00477 32.566V32.566Z" fill="white"/>
<path d="M5.61559 33.0853C5.57347 33.0895 5.53104 33.0895 5.48892 33.0853C5.36959 33.0547 5.25987 32.9946 5.16986 32.9105C5.07985 32.8264 5.01243 32.721 4.97381 32.604C4.97381 32.604 4.97381 32.5744 4.97381 32.5576C4.86442 32.7265 4.72053 32.8704 4.55159 32.9798C4.43678 33.0504 4.30298 33.0838 4.16846 33.0755C4.03395 33.0672 3.90528 33.0175 3.80003 32.9333C3.3567 32.6251 3.28915 31.7764 3.24692 31.2149V31.0629C3.14981 30.0031 3.24692 28.5676 4.37848 27.7484C5.2947 27.0687 6.83159 26.6718 8.03492 27.398C8.62181 27.7527 8.61759 28.5296 8.56692 29.0869C8.56692 29.2642 8.54159 29.4711 8.52892 29.6949C8.4867 30.7758 8.42337 32.2536 7.4227 32.6927C7.28983 32.7518 7.14591 32.782 7.00048 32.7813V32.7813C6.778 32.7901 6.55959 32.7198 6.38403 32.5829L6.33337 32.5111C6.27887 32.664 6.18284 32.7988 6.05606 32.9002C5.92928 33.0016 5.77676 33.0657 5.61559 33.0853ZM5.30314 31.6244V31.996C5.29824 32.1474 5.3182 32.2986 5.36225 32.4436C5.3767 32.4935 5.40308 32.5392 5.43912 32.5768C5.47517 32.6143 5.51979 32.6424 5.56915 32.6589C5.7127 32.6884 5.87737 32.5238 5.95337 32.3464C5.99407 32.2475 6.02792 32.146 6.0547 32.0424L6.11803 31.8313C6.14093 31.7179 6.19172 31.612 6.26581 31.5231C6.30059 31.4859 6.34767 31.4625 6.39835 31.4572C6.44903 31.452 6.49989 31.4653 6.54156 31.4946C6.58322 31.5239 6.61288 31.5673 6.62506 31.6168C6.63723 31.6663 6.63111 31.7185 6.60781 31.7638C6.57743 31.8191 6.552 31.8771 6.53181 31.9369C6.5276 31.9578 6.5276 31.9793 6.53181 32.0002C6.53937 32.098 6.58483 32.1889 6.65848 32.2536C6.75229 32.3294 6.87191 32.3657 6.99203 32.3549V32.3549C7.07608 32.3532 7.1591 32.336 7.23692 32.3042C7.99692 31.9707 8.05181 30.6449 8.08137 29.6738C8.08137 29.4416 8.08137 29.2262 8.11514 29.0447C8.1827 28.3438 8.07714 27.9384 7.79003 27.778C6.79781 27.1784 5.43403 27.4867 4.59803 28.1031C3.64803 28.8082 3.55092 30.0876 3.63537 31.0587V31.2149C3.66914 31.6076 3.73248 32.4267 4.01114 32.6209C4.05014 32.6481 4.09657 32.6627 4.14415 32.6627C4.19172 32.6627 4.23814 32.6481 4.27714 32.6209C4.43303 32.509 4.56412 32.3661 4.66221 32.2012C4.76029 32.0362 4.82326 31.8528 4.84715 31.6624V31.6624C4.846 31.6072 4.86658 31.5536 4.90448 31.5134C4.94238 31.4731 4.99456 31.4493 5.04981 31.4471C5.10591 31.447 5.15992 31.4684 5.20075 31.5069C5.24158 31.5453 5.26613 31.598 5.26937 31.654L5.30314 31.6244Z" fill="#231F20"/>
<path d="M102.178 26.562C102.178 26.562 104.77 39.0218 101.701 39.8324C97.5334 40.9555 80.2223 36.708 80.2223 36.708C80.2223 36.708 75.7045 37.8184 74.9149 36.6278C74.1254 35.4371 74.9149 33.7735 75.3118 33.6722C75.7087 33.5709 79.1118 33.3344 79.1118 33.3344C79.1118 33.3344 76.342 31.2951 77.2118 31.1389C78.0816 30.9827 81.1765 32.0087 81.1765 32.0087C81.1765 32.0087 98.1329 33.2753 97.9767 32.3971C97.8205 31.5189 97.0351 28.2171 97.0351 28.2171" fill="white"/>
<path d="M99.7711 40.2293C93.9234 40.2293 81.3158 37.1851 80.2392 36.9233C79.572 37.0838 75.5947 37.9831 74.7503 36.746C74.5331 36.3763 74.4072 35.9601 74.383 35.5321C74.3587 35.104 74.4369 34.6763 74.6109 34.2844C74.6785 34.1155 74.936 33.5582 75.2823 33.4864C75.6285 33.4147 77.5665 33.2669 78.5545 33.1867C77.7311 32.5491 76.7516 31.6793 76.8656 31.2318C76.8849 31.1562 76.9275 31.0886 76.9874 31.0386C77.0472 30.9886 77.1213 30.9587 77.1991 30.9531C78.0774 30.7927 80.8176 31.6835 81.2398 31.8229C87.1847 32.2451 96.7396 32.7855 97.774 32.3633C97.5883 31.3838 96.8663 28.3184 96.8578 28.2847C96.8449 28.2287 96.8548 28.1699 96.8853 28.1212C96.9158 28.0725 96.9644 28.0379 97.0204 28.025C97.0764 28.0121 97.1352 28.022 97.1839 28.0525C97.2326 28.083 97.2672 28.1316 97.28 28.1875C97.3138 28.3227 98.0654 31.5147 98.2216 32.3802C98.23 32.4231 98.2279 32.4675 98.2154 32.5094C98.2028 32.5513 98.1804 32.5896 98.1498 32.6209C97.4658 33.3851 85.0018 32.5238 81.1976 32.2409H81.1469C80.3025 31.958 77.9971 31.2613 77.3047 31.3711C77.4103 31.6582 78.2758 32.4562 79.2765 33.1951C79.3111 33.2207 79.3373 33.2561 79.3516 33.2968C79.3659 33.3374 79.3677 33.3814 79.3567 33.4231C79.3436 33.4643 79.3185 33.5008 79.2847 33.5278C79.2509 33.5549 79.2098 33.5713 79.1667 33.5751C78.2252 33.6469 75.7045 33.8495 75.3878 33.9087C75.1789 34.0972 75.0317 34.3444 74.9656 34.618C74.8487 34.9266 74.8024 35.2574 74.8302 35.5862C74.8579 35.915 74.959 36.2334 75.126 36.518C75.6454 37.2949 78.5038 36.9402 80.1927 36.518C80.226 36.5096 80.2608 36.5096 80.294 36.518C80.4672 36.5602 97.5756 40.7402 101.667 39.6467C104.027 39.0218 102.701 30.0327 101.992 26.6211C101.981 26.5651 101.992 26.507 102.024 26.4595C102.056 26.4119 102.105 26.379 102.161 26.3678C102.217 26.3566 102.275 26.3681 102.323 26.3997C102.37 26.4314 102.403 26.4807 102.414 26.5367C102.684 27.8329 104.948 39.2033 101.785 40.0478C101.124 40.192 100.447 40.253 99.7711 40.2293Z" fill="#231F20"/>
<path d="M97.0519 28.4493C97.0046 28.4486 96.9589 28.432 96.9221 28.4021C96.8853 28.3722 96.8597 28.3309 96.8493 28.2847L94.9366 20.1907C94.9297 20.1638 94.9284 20.1357 94.9325 20.1083C94.9367 20.0808 94.9464 20.0545 94.961 20.0309C94.9755 20.0072 94.9947 19.9867 95.0174 19.9707C95.0401 19.9546 95.0657 19.9433 95.0928 19.9373C95.1471 19.9258 95.2036 19.9355 95.2508 19.9646C95.298 19.9937 95.3322 20.0399 95.3462 20.0936L97.2588 28.1876C97.2715 28.2419 97.2622 28.299 97.233 28.3464C97.2037 28.3939 97.1568 28.4279 97.1026 28.4409L97.0519 28.4493Z" fill="#231F20"/>
<path d="M52.9931 6.81045C52.9615 6.81013 52.9305 6.8023 52.9026 6.78762C52.8747 6.77293 52.8507 6.75181 52.8326 6.726C52.8182 6.70494 52.808 6.68124 52.8028 6.65625C52.7975 6.63126 52.7972 6.60548 52.8019 6.58038C52.8066 6.55528 52.8162 6.53136 52.8302 6.50998C52.8442 6.4886 52.8622 6.47018 52.8833 6.45578C53.034 6.35538 53.1534 6.21469 53.2281 6.04972C53.3027 5.88475 53.3296 5.70214 53.3055 5.52267C53.1755 5.25481 53.0818 4.97083 53.0268 4.67822C53.0202 4.63439 53.0288 4.58962 53.0512 4.55135C53.0736 4.51308 53.1083 4.48361 53.1498 4.46783C53.1912 4.45205 53.2367 4.45091 53.2789 4.46461C53.3211 4.4783 53.3573 4.506 53.3815 4.54311C53.5367 4.8018 53.6386 5.08891 53.6813 5.38756C53.7309 5.49597 53.8118 5.58711 53.9135 5.64934C53.9466 5.66428 53.9832 5.66944 54.0192 5.6642C54.0551 5.65896 54.0887 5.64355 54.1162 5.61978C54.5004 5.39178 54.1162 4.03645 53.7531 3.19622C53.7425 3.17325 53.7367 3.14841 53.7359 3.12316C53.7351 3.09791 53.7394 3.07276 53.7484 3.04917C53.7575 3.02558 53.7711 3.00403 53.7886 2.98578C53.8061 2.96753 53.827 2.95295 53.8502 2.94289C53.8973 2.92263 53.9505 2.92143 53.9985 2.93953C54.0465 2.95764 54.0857 2.99365 54.1077 3.04C54.2851 3.44111 55.1295 5.46356 54.3146 5.94911C54.2344 6.00595 54.1406 6.04057 54.0428 6.04947C53.9449 6.05837 53.8464 6.04122 53.7573 5.99978C53.7226 5.98586 53.69 5.9674 53.6602 5.94489C53.5841 6.2795 53.3813 6.5716 53.0944 6.75978C53.0659 6.78558 53.0308 6.80311 52.9931 6.81045Z" fill="#231F20"/>
<path d="M31.2446 73.5807C31.202 73.581 31.1605 73.567 31.1268 73.541C31.0932 73.515 31.0692 73.4784 31.0588 73.4371L27.2926 59.3644C27.2836 59.3378 27.2806 59.3096 27.2836 59.2817C27.2866 59.2537 27.2957 59.2268 27.3101 59.2027C27.3246 59.1786 27.3441 59.158 27.3673 59.1422C27.3905 59.1263 27.4169 59.1158 27.4446 59.1111C27.4944 59.0983 27.5473 59.1057 27.5916 59.1319C27.6359 59.158 27.6681 59.2006 27.681 59.2504L31.4472 73.3231C31.4602 73.3724 31.4533 73.4247 31.428 73.469C31.4028 73.5132 31.3611 73.5457 31.3121 73.5595L31.2446 73.5807Z" fill="white"/>
</g>
<defs>
<clipPath id="clip0">
<rect width="114.844" height="95" fill="white"/>
</clipPath>
</defs>
</svg>
