<svg width="162" height="90" viewBox="0 0 162 90" fill="none" xmlns="http://www.w3.org/2000/svg">
<path d="M117.089 85.3985V89.2058H105.198C105.198 89.2058 109.831 87.1237 110.701 86.85L110.119 83.639L117.089 85.3985Z" fill="white"/>
<path d="M117.089 89.4306H105.198C105.146 89.4317 105.096 89.4146 105.056 89.3825C105.016 89.3503 104.988 89.3051 104.978 89.2547C104.966 89.2048 104.972 89.1523 104.995 89.1065C105.018 89.0608 105.057 89.025 105.105 89.0054C105.281 88.9223 109.254 87.1384 110.447 86.6985L109.899 83.6781C109.892 83.6409 109.895 83.6024 109.907 83.5664C109.918 83.5305 109.94 83.4982 109.968 83.4728C109.995 83.4487 110.028 83.4313 110.064 83.422C110.1 83.4126 110.137 83.4116 110.173 83.419L117.142 85.1785C117.192 85.1906 117.235 85.2189 117.266 85.2588C117.297 85.2987 117.314 85.3479 117.314 85.3985V89.2058C117.314 89.2353 117.308 89.2646 117.296 89.2918C117.285 89.3191 117.269 89.3439 117.248 89.3648C117.227 89.3856 117.202 89.4022 117.175 89.4135C117.147 89.4248 117.118 89.4306 117.089 89.4306ZM106.243 88.9859H116.869V85.5646L110.398 83.9322L110.921 86.8061C110.93 86.8589 110.92 86.9135 110.892 86.9594C110.864 87.0053 110.821 87.0395 110.769 87.0553C110.158 87.2557 107.646 88.3603 106.243 88.9859Z" fill="#231F20"/>
<path d="M110.119 89.328H57.1832L83.6487 69.1037L110.119 89.328Z" fill="white"/>
<path d="M110.119 89.5724H57.1832C57.1319 89.5724 57.0819 89.5562 57.0403 89.5262C56.9987 89.4962 56.9676 89.4539 56.9514 89.4053C56.9352 89.3566 56.9347 89.3041 56.95 89.2551C56.9653 89.2062 56.9956 89.1633 57.0366 89.1325L83.5021 68.9082C83.5458 68.8775 83.5979 68.861 83.6512 68.861C83.7046 68.861 83.7566 68.8775 83.8003 68.9082L110.266 89.1325C110.307 89.1636 110.337 89.2068 110.352 89.2559C110.367 89.305 110.366 89.3576 110.349 89.4062C110.332 89.4539 110.301 89.4954 110.26 89.5251C110.219 89.5548 110.17 89.5713 110.119 89.5724ZM57.9066 89.0836H109.376L83.6488 69.436L57.9066 89.0836Z" fill="#D1D3D4"/>
<path d="M160.836 89.4746H0.244373C0.179561 89.4746 0.117404 89.4489 0.0715749 89.403C0.0257461 89.3572 0 89.295 0 89.2302C0 89.1654 0.0257461 89.1033 0.0715749 89.0574C0.117404 89.0116 0.179561 88.9859 0.244373 88.9859H160.836C160.901 88.9859 160.963 89.0116 161.009 89.0574C161.055 89.1033 161.081 89.1654 161.081 89.2302C161.081 89.295 161.055 89.3572 161.009 89.403C160.963 89.4489 160.901 89.4746 160.836 89.4746Z" fill="#D1D3D4"/>
<path d="M148.227 81.987L151.946 86.7767L150.113 89.2449H160.201L156.022 82.4904L148.227 81.987Z" fill="white"/>
<path d="M160.206 89.4746H150.113C150.072 89.4744 150.031 89.4628 149.996 89.4411C149.961 89.4193 149.933 89.3883 149.914 89.3514C149.895 89.3146 149.887 89.2732 149.89 89.232C149.894 89.1908 149.908 89.1513 149.932 89.1178L151.663 86.7914L148.051 82.1434C148.024 82.1089 148.008 82.0678 148.004 82.0247C148 81.9816 148.007 81.9381 148.026 81.8991C148.049 81.8626 148.081 81.8327 148.118 81.8122C148.156 81.7916 148.198 81.7811 148.241 81.7818L156.032 82.2705C156.067 82.2722 156.102 82.2824 156.133 82.3002C156.163 82.3181 156.189 82.3431 156.208 82.3731L160.392 89.1276C160.412 89.1616 160.422 89.2004 160.422 89.24C160.422 89.2796 160.412 89.3184 160.392 89.3524C160.374 89.3871 160.347 89.4167 160.315 89.4381C160.282 89.4595 160.245 89.4721 160.206 89.4746ZM150.563 89.0299H159.805L155.895 82.7153L148.711 82.2265L152.132 86.6252C152.161 86.6637 152.178 86.711 152.178 86.7596C152.178 86.8083 152.161 86.8555 152.132 86.894L150.563 89.0299Z" fill="#231F20"/>
<path d="M119.542 47.291C119.542 47.291 107.421 63.1361 106.248 66.7382C105.549 68.9277 109.914 84.6458 109.914 84.6458L117.089 85.3985C117.089 85.3985 115.969 71.4008 116.82 69.1037C117.67 66.8066 126.917 57.9505 126.917 57.9505L148.227 83.2724L157.024 82.6371L132.895 43.1367L119.542 47.291Z" fill="#231F20"/>
<path d="M117.089 85.6429L109.914 84.8951C109.865 84.8901 109.819 84.8707 109.782 84.8393C109.744 84.808 109.717 84.7661 109.704 84.7191C109.523 84.074 105.305 68.8984 106.038 66.6698C107.187 63.0677 118.873 47.7944 119.371 47.1199C119.402 47.0801 119.445 47.051 119.493 47.0369L132.856 42.8825C132.907 42.8667 132.962 42.8681 133.012 42.8867C133.063 42.9052 133.105 42.9398 133.134 42.9852L157.264 82.4904C157.284 82.527 157.295 82.5682 157.295 82.6102C157.295 82.6521 157.284 82.6934 157.264 82.7299C157.243 82.7662 157.214 82.7971 157.179 82.82C157.144 82.8429 157.105 82.8573 157.063 82.8619L148.266 83.4973C148.227 83.4985 148.189 83.4912 148.153 83.4761C148.118 83.4608 148.086 83.4381 148.061 83.4093L126.922 58.2878C125.608 59.5585 117.832 67.1243 117.074 69.1672C116.253 71.391 117.348 85.2176 117.358 85.3594C117.36 85.3946 117.355 85.4301 117.343 85.4631C117.33 85.4961 117.31 85.5258 117.284 85.55C117.262 85.5803 117.232 85.6047 117.198 85.6209C117.164 85.6371 117.126 85.6446 117.089 85.6429ZM110.105 84.421L116.825 85.1248C116.664 83.0427 115.794 71.1809 116.59 69.0206C117.455 66.6942 126.365 58.1363 126.746 57.7795C126.77 57.7547 126.799 57.7356 126.831 57.7237C126.863 57.7119 126.898 57.7075 126.932 57.711C126.965 57.7134 126.997 57.7224 127.027 57.7375C127.056 57.7526 127.082 57.7736 127.103 57.799L148.334 83.0232L156.614 82.4269L132.792 43.4299L119.689 47.5061C118.858 48.5862 107.568 63.4049 106.493 66.8164C105.955 68.5319 108.888 79.949 110.105 84.421Z" fill="#231F20"/>
<path d="M112.798 29.1341C113.614 28.2788 110.671 28.9435 110.398 34.5543C110.188 38.8406 109.909 44.4514 109.909 44.4514L98.228 47.0808L96.9329 51.9683C96.9329 51.9683 113.785 49.5246 114.039 49.0358C117.626 42.2569 112.798 29.1341 112.798 29.1341Z" fill="white"/>
<path d="M96.9378 52.2029C96.8749 52.2012 96.8152 52.1749 96.7716 52.1296C96.7476 52.1017 96.7307 52.0686 96.7222 52.0329C96.7137 51.9972 96.7139 51.9599 96.7227 51.9243L98.0179 47.0368C98.0297 46.9981 98.0511 46.963 98.0802 46.9348C98.1093 46.9066 98.145 46.8862 98.1841 46.8756L109.699 44.2852L110.188 34.5592C110.388 30.5026 111.996 28.8164 112.744 28.6356C112.814 28.6095 112.892 28.6078 112.964 28.6309C113.035 28.6539 113.097 28.7003 113.14 28.7627C113.174 28.8338 113.185 28.9139 113.172 28.9918C113.159 29.0698 113.122 29.1417 113.066 29.1976C113.896 31.5904 114.549 34.0407 115.021 36.5288C116.038 42.0565 115.789 46.3037 114.278 49.1629C114.073 49.5539 108.262 50.5851 97.0062 52.2224L96.9378 52.2029ZM98.404 47.2666L97.2261 51.7092C103.658 50.7709 113.081 49.29 113.843 48.8892C117.289 42.2667 112.612 29.3394 112.563 29.2123C111.991 29.6375 110.774 31.094 110.608 34.5885L110.119 44.4807C110.117 44.5296 110.098 44.5764 110.067 44.6136C110.035 44.6508 109.991 44.6762 109.943 44.686L98.404 47.2666Z" fill="#231F20"/>
<path d="M60.5507 27.6679C60.5507 27.6679 63.1606 28.616 63.9719 28.4596C64.7832 28.3032 66.3325 27.2769 66.4156 27.707C66.4987 28.1371 65.3502 28.7871 65.3502 28.7871C65.3502 28.7871 69.8857 28.6698 69.8417 29.4469C69.7977 30.224 68.7225 31.9542 67.9405 32.0373C67.1585 32.1203 59.6318 31.3628 59.6318 31.3628" fill="white"/>
<path d="M67.7743 32.2914C66.3667 32.2914 59.886 31.6365 59.5976 31.6072C59.5655 31.604 59.5344 31.5945 59.506 31.5792C59.4775 31.564 59.4524 31.5433 59.432 31.5183C59.4116 31.4933 59.3963 31.4646 59.3869 31.4337C59.3776 31.4029 59.3745 31.3704 59.3777 31.3384C59.3809 31.3063 59.3904 31.2751 59.4056 31.2467C59.4209 31.2183 59.4416 31.1931 59.4665 31.1727C59.4915 31.1523 59.5202 31.137 59.5511 31.1277C59.582 31.1184 59.6144 31.1152 59.6465 31.1184C61.7334 31.3286 67.2954 31.8662 67.9161 31.7929C68.5368 31.7196 69.5631 30.1605 69.6022 29.4274C69.4361 29.1683 67.4909 28.9679 65.3599 29.0266C65.3054 29.0282 65.2519 29.0112 65.2084 28.9783C65.1648 28.9454 65.1338 28.8987 65.1204 28.8457C65.1055 28.7934 65.1084 28.7376 65.1288 28.6871C65.1491 28.6367 65.1858 28.5945 65.2328 28.5672C65.5654 28.3943 65.8661 28.1662 66.1224 27.8927C65.8398 27.9885 65.5639 28.1027 65.2964 28.2348C64.8922 28.4443 64.466 28.6082 64.0257 28.7236C63.1655 28.8848 60.7413 28.0198 60.4676 27.9171C60.4334 27.9098 60.4011 27.8953 60.3731 27.8744C60.345 27.8536 60.3217 27.827 60.3048 27.7964C60.2878 27.7658 60.2777 27.7319 60.275 27.697C60.2723 27.6621 60.2771 27.6271 60.2891 27.5942C60.3011 27.5614 60.32 27.5315 60.3446 27.5066C60.3691 27.4817 60.3988 27.4623 60.4314 27.4499C60.4641 27.4374 60.4991 27.4321 60.534 27.4343C60.5689 27.4365 60.6029 27.4461 60.6338 27.4626C61.3424 27.7167 63.3219 28.3619 63.9328 28.2446C64.3326 28.1327 64.7206 27.9821 65.0911 27.7949C65.8193 27.4577 66.2152 27.3062 66.4743 27.4284C66.5232 27.4542 66.5654 27.4911 66.5977 27.536C66.6299 27.581 66.6512 27.6328 66.66 27.6874C66.7138 27.9904 66.4596 28.3032 66.1712 28.5574C67.4078 28.5574 69.4996 28.6405 69.9737 29.1341C70.0201 29.1797 70.0563 29.2347 70.0799 29.2953C70.1035 29.356 70.114 29.421 70.1105 29.486C70.0665 30.2827 68.9522 32.1985 67.9894 32.3061L67.7743 32.2914Z" fill="#231F20"/>
<path d="M103.927 0.244385H63.3756V30.7225H103.927V0.244385Z" fill="white"/>
<path d="M103.927 30.962H63.3609C63.2961 30.962 63.234 30.9363 63.1881 30.8904C63.1423 30.8446 63.1166 30.7825 63.1166 30.7176V0.244373C63.1166 0.179561 63.1423 0.117404 63.1881 0.0715749C63.234 0.0257461 63.2961 0 63.3609 0H103.927C103.992 0 104.054 0.0257461 104.1 0.0715749C104.145 0.117404 104.171 0.179561 104.171 0.244373V30.7176C104.171 30.7825 104.145 30.8446 104.1 30.8904C104.054 30.9363 103.992 30.962 103.927 30.962ZM63.62 30.4733H103.697V0.488745H63.62V30.4733Z" fill="#D1D3D4"/>
<path d="M37.9511 42.5062L47.4327 66.8946L47.6967 84.5872H43.1562L40.4632 68.0529L31.0647 55.3455C31.0647 55.3455 25.537 65.5163 24.0805 67.7645C19.9218 74.0961 14.6591 79.6286 8.54327 84.0984H3.91486C3.91486 84.0984 18.5772 58.8792 19.325 52.33C20.0728 45.7808 23.4353 38.4007 23.4353 38.4007L37.9511 42.5062Z" fill="#231F20"/>
<path d="M47.6967 84.8315H43.1562C43.0985 84.8311 43.0428 84.8103 42.9989 84.7727C42.9551 84.7351 42.926 84.6832 42.9167 84.6262L40.2335 68.1506L31.0989 55.7756C30.1214 57.5595 25.5858 65.8731 24.2907 67.8721C20.1082 74.223 14.827 79.7773 8.69479 84.2743C8.65506 84.3033 8.60709 84.3187 8.55795 84.3183H3.91487C3.87101 84.3179 3.82803 84.306 3.79027 84.2837C3.75252 84.2614 3.72131 84.2295 3.69982 84.1913C3.67928 84.1538 3.66852 84.1118 3.66852 84.0691C3.66852 84.0264 3.67928 83.9843 3.69982 83.9469C3.84644 83.6976 18.3622 58.7032 19.0806 52.2762C19.8235 45.7612 23.1714 38.347 23.2056 38.2736C23.2293 38.2201 23.2715 38.1768 23.3244 38.1516C23.3773 38.1265 23.4375 38.1213 23.494 38.1368L38.0195 42.2716C38.0554 42.2814 38.0886 42.2992 38.1166 42.3238C38.1445 42.3483 38.1665 42.379 38.1808 42.4133L47.6576 66.8066C47.6599 66.8359 47.6599 66.8653 47.6576 66.8946L47.941 84.5871C47.9411 84.6524 47.9155 84.7151 47.8698 84.7617C47.8241 84.8083 47.7619 84.8351 47.6967 84.8364V84.8315ZM43.3664 84.3428H47.4474L47.1884 66.9434L37.7702 42.7066L23.5966 38.6646C23.0688 39.8669 20.2634 46.4846 19.5938 52.3495C18.89 58.5224 6.24129 80.5941 4.36451 83.8491H8.48952C14.5448 79.394 19.7637 73.9021 23.9045 67.6277C25.3366 65.4088 30.8252 55.326 30.8789 55.2233C30.8985 55.1873 30.9269 55.1568 30.9613 55.1346C30.9958 55.1124 31.0353 55.0993 31.0762 55.0964C31.1171 55.0934 31.158 55.1008 31.1953 55.1179C31.2326 55.135 31.265 55.1611 31.2895 55.194L40.6881 67.9258C40.7117 67.9573 40.7268 67.9943 40.7321 68.0333L43.3664 84.3428Z" fill="#231F20"/>
<path d="M8.20604 83.7612C8.19577 84.6045 8.24804 85.4475 8.36244 86.2831C8.51883 86.8452 9.858 88.3407 9.858 88.805C9.858 89.2693 4.62353 89.4893 4.21788 88.805C3.81222 88.1208 4.00283 87.373 4.21788 86.4395C4.38801 85.6083 4.4926 84.7651 4.53067 83.9176" fill="#231F20"/>
<path d="M6.73982 89.4746C5.47397 89.4746 4.23744 89.3378 3.98818 88.9223C3.54342 88.1648 3.72915 87.3632 3.94908 86.4346V86.376C4.11102 85.5619 4.2123 84.7369 4.2521 83.9078C4.2521 83.843 4.27785 83.7808 4.32368 83.735C4.36951 83.6892 4.43166 83.6634 4.49647 83.6634C4.56129 83.6634 4.62344 83.6892 4.66927 83.735C4.7151 83.7808 4.74085 83.843 4.74085 83.9078C4.70112 84.7732 4.59492 85.6343 4.42316 86.4835V86.547C4.22278 87.4072 4.06149 88.0866 4.42316 88.6731C4.42316 88.6731 4.54046 88.8099 5.26869 88.9028C6.76425 89.0983 9.10046 88.9272 9.5892 88.717C9.38698 88.3219 9.14981 87.9457 8.88052 87.5929C8.57323 87.2098 8.31846 86.7874 8.12297 86.3369C7.99833 85.4809 7.94276 84.6163 7.95679 83.7514C7.95679 83.6866 7.98254 83.6244 8.02837 83.5786C8.0742 83.5328 8.13635 83.507 8.20117 83.507C8.26598 83.507 8.32813 83.5328 8.37396 83.5786C8.41979 83.6244 8.44554 83.6866 8.44554 83.7514C8.43112 84.5685 8.48014 85.3856 8.59216 86.1951C8.77873 86.5859 9.00822 86.9548 9.2764 87.2948C9.76515 88.0133 10.0975 88.4678 10.0975 88.761C10.0975 89.0543 9.73583 89.152 9.57943 89.1911C8.64542 89.3847 7.69367 89.4798 6.73982 89.4746Z" fill="#231F20"/>
<path d="M47.3057 83.248C47.3057 83.248 47.0124 85.6575 47.3448 86.4053C47.6771 87.1531 52.2909 89.1862 52.1638 89.5577C52.0367 89.9291 43.9431 89.7239 43.6498 89.3084C43.3566 88.893 43.4837 88.7268 43.4446 87.7347C43.4055 86.7425 43.1953 84.3134 43.1953 84.3134" fill="#231F20"/>
<path d="M49.637 89.9976C48.8599 89.9976 48.0192 89.9976 47.2812 89.9536C43.7231 89.8167 43.5472 89.5675 43.4641 89.4648C43.2581 89.1649 43.171 88.7991 43.2197 88.4385C43.2197 88.2625 43.2197 88.0475 43.2197 87.7591C43.1757 86.7816 42.9705 84.3868 42.9705 84.3379C42.9676 84.3058 42.971 84.2734 42.9807 84.2427C42.9903 84.2119 43.0058 84.1834 43.0265 84.1586C43.0682 84.1087 43.128 84.0774 43.1928 84.0715C43.2577 84.0657 43.3221 84.0858 43.3721 84.1275C43.422 84.1692 43.4534 84.2291 43.4592 84.2939C43.4592 84.3183 43.6645 86.7376 43.7085 87.7151C43.7085 88.0132 43.7085 88.2381 43.7085 88.4189C43.7085 88.805 43.7085 88.9077 43.8453 89.1325C44.4563 89.4208 50.287 89.6212 51.7435 89.4306C51.3818 89.1814 50.6535 88.7806 50.0377 88.4531C48.3662 87.5343 47.335 86.9429 47.1395 86.4981C46.7876 85.7113 47.0466 83.4679 47.0759 83.2138C47.0798 83.1817 47.0899 83.1507 47.1058 83.1225C47.1216 83.0943 47.1428 83.0695 47.1682 83.0496C47.1937 83.0296 47.2228 83.0148 47.2539 83.0061C47.285 82.9974 47.3175 82.9949 47.3496 82.9987C47.3817 83.0026 47.4127 83.0127 47.4409 83.0285C47.4691 83.0444 47.4939 83.0656 47.5138 83.091C47.5338 83.1164 47.5486 83.1455 47.5573 83.1767C47.566 83.2078 47.5685 83.2403 47.5647 83.2724C47.4865 83.9225 47.335 85.7161 47.5647 86.2978C47.7064 86.6203 49.2411 87.4659 50.2528 88.023C52.1442 89.0592 52.5059 89.2938 52.3886 89.631C52.3299 89.8216 52.11 89.8656 51.8754 89.8998C51.1319 89.977 50.3844 90.0096 49.637 89.9976Z" fill="#231F20"/>
<path d="M8.17178 84.4405H4.64793C4.61011 84.4513 4.57029 84.4532 4.53162 84.446C4.49295 84.4388 4.45647 84.4227 4.42507 84.399C4.39367 84.3754 4.36819 84.3447 4.35065 84.3095C4.33311 84.2743 4.32397 84.2355 4.32397 84.1962C4.32397 84.1568 4.33311 84.118 4.35065 84.0828C4.36819 84.0476 4.39367 84.017 4.42507 83.9933C4.45647 83.9696 4.49295 83.9535 4.53162 83.9463C4.57029 83.9391 4.61011 83.941 4.64793 83.9518H8.17178C8.20961 83.941 8.24942 83.9391 8.28809 83.9463C8.32677 83.9535 8.36324 83.9696 8.39464 83.9933C8.42605 84.017 8.45152 84.0476 8.46906 84.0828C8.48661 84.118 8.49574 84.1568 8.49574 84.1962C8.49574 84.2355 8.48661 84.2743 8.46906 84.3095C8.45152 84.3447 8.42605 84.3754 8.39464 84.399C8.36324 84.4227 8.32677 84.4388 8.28809 84.446C8.24942 84.4532 8.20961 84.4513 8.17178 84.4405Z" fill="white"/>
<path d="M32.8779 17.3602C31.7929 16.9204 30.6346 16.3827 29.6082 16.3827C26.6513 16.3827 25.3903 19.8479 24.7745 22.1793C23.1568 28.3081 22.5507 34.8084 21.5292 41.0839C21.5292 41.0839 34.2757 46.597 38.5816 43.7183L42.252 29.6082L62.1684 32.5407C62.1684 32.5407 62.6034 28.5085 62.838 27.0129C62.838 27.0129 36.9687 18.631 34.0753 17.8001C33.6892 17.6779 33.2884 17.5264 32.8779 17.3602Z" fill="#DDDDDD"/>
<path d="M37.218 21.4266L35.8495 22.7071L36.5631 23.3718L33.2689 35.9765L36.0548 39.344L38.0195 36.5924L37.2913 23.4109L38.1222 22.8586L37.218 21.4266Z" fill="white"/>
<path d="M35.3314 17.2283C32.0861 17.717 31.1233 12.1258 31.0696 9.72603C31.0375 9.19834 31.1055 8.66935 31.2699 8.16693C31.4777 7.70171 31.7829 7.28646 32.1648 6.94921C32.5468 6.61196 32.9966 6.36056 33.484 6.21195C34.4453 5.92452 35.4251 5.70245 36.4164 5.54726C38.6447 5.06704 40.7127 4.02378 42.4231 2.51704C42.9998 2.02829 43.6645 1.40758 44.4221 1.53954C44.6675 1.60106 44.8957 1.71747 45.0896 1.88002C45.2835 2.04257 45.4379 2.24702 45.5413 2.47793C45.7956 3.0054 45.9103 3.58932 45.8744 4.17379C45.8384 4.75827 45.6531 5.32373 45.336 5.81607C44.6958 6.86198 43.7036 7.39471 42.6919 7.98121C43.1807 8.76809 43.4104 8.9587 43.1807 9.86288C42.9341 10.6883 42.5418 11.463 42.0223 12.1502C41.4633 12.8608 40.8505 13.5274 40.1895 14.1443C38.8357 15.5225 37.4917 16.8031 35.4878 17.1941C35.4368 17.2099 35.3844 17.2214 35.3314 17.2283Z" fill="white"/>
<path d="M34.9306 17.5068C34.305 17.5058 33.7008 17.2784 33.2298 16.8666C31.4166 15.3466 30.8643 11.5344 30.8252 9.73091C30.7936 9.17168 30.8665 8.61145 31.0402 8.07895C31.2655 7.58671 31.5922 7.14763 31.9991 6.7905C32.4059 6.43337 32.8836 6.16626 33.4009 6.00667C34.073 5.78465 34.7631 5.62113 35.4634 5.51793C35.7713 5.45928 36.0792 5.40552 36.3871 5.34198C38.5723 4.86537 40.6006 3.84115 42.2814 2.36552C42.8972 1.82301 43.6303 1.18275 44.4856 1.33915C44.7611 1.40493 45.0183 1.53174 45.2383 1.71023C45.4582 1.88872 45.6353 2.11433 45.7563 2.37041C46.03 2.93585 46.1543 3.56192 46.1175 4.18901C46.0807 4.8161 45.884 5.42334 45.5462 5.95291C44.9047 6.86689 44.0375 7.59932 43.0291 8.07895C43.045 8.09828 43.0581 8.11965 43.0682 8.14249C43.2753 8.38646 43.4168 8.67921 43.4792 8.99307C43.5416 9.30694 43.523 9.63154 43.425 9.93619C43.164 10.7888 42.759 11.5905 42.2276 12.3066C41.7832 12.8784 41.2928 13.4129 40.7614 13.9048L40.3459 14.3251C38.8797 15.7914 37.5405 17.0474 35.5171 17.4482L35.3461 17.4775C35.2083 17.4956 35.0696 17.5054 34.9306 17.5068ZM44.2217 1.79858C43.6596 1.79858 43.1171 2.28732 42.6381 2.69787C40.8878 4.24315 38.7712 5.31491 36.4897 5.81117C36.1769 5.8796 35.8641 5.93825 35.5465 5.99201C34.8822 6.09941 34.2282 6.26291 33.5915 6.48076C33.1395 6.6147 32.7212 6.84355 32.3647 7.15202C32.0082 7.46049 31.7216 7.84149 31.5241 8.26956C31.3695 8.74206 31.3065 9.23969 31.3384 9.7358C31.3823 11.7445 32.0128 15.2 33.567 16.5049C33.8034 16.7124 34.0833 16.864 34.3862 16.9486C34.6891 17.0332 35.0071 17.0486 35.3167 16.9937L35.4683 16.9643C37.3548 16.5978 38.6549 15.3955 40.0429 13.983L40.4681 13.5578C40.9716 13.0829 41.4358 12.568 41.8562 12.0182C42.3432 11.3489 42.7133 10.602 42.9509 9.80911C43.1171 9.13464 42.9998 8.94892 42.6577 8.39175L42.4817 8.11316C42.4687 8.08308 42.462 8.05065 42.462 8.01786C42.462 7.98507 42.4687 7.95263 42.4817 7.92255C42.4884 7.8913 42.502 7.86192 42.5214 7.83656C42.5409 7.81119 42.5657 7.79048 42.5942 7.77593L42.7554 7.68307C43.6938 7.14056 44.5785 6.63227 45.1503 5.69388C45.4443 5.2379 45.617 4.71441 45.6521 4.17301C45.6872 3.6316 45.5834 3.09021 45.3507 2.60012C45.2638 2.40841 45.1354 2.23839 44.9748 2.10232C44.8142 1.96624 44.6254 1.86751 44.4221 1.81324C44.3559 1.80208 44.2888 1.79717 44.2217 1.79858Z" fill="#231F20"/>
<path d="M42.7261 12.5656C42.7261 12.5656 43.9235 14.9556 43.5668 15.3808C43.21 15.806 42.2374 15.3808 42.2374 15.3808" fill="white"/>
<path d="M43.0584 15.8109C42.742 15.7969 42.4307 15.7257 42.1396 15.6007C42.08 15.5748 42.0331 15.5263 42.0092 15.4658C41.9854 15.4053 41.9866 15.3378 42.0125 15.2782C42.0384 15.2186 42.087 15.1717 42.1475 15.1478C42.208 15.124 42.2755 15.1252 42.3351 15.1511C42.6577 15.2928 43.2148 15.4101 43.381 15.2195C43.5472 15.0289 43.0829 13.8217 42.5062 12.6732C42.4784 12.6152 42.4742 12.5489 42.4942 12.4879C42.5142 12.4269 42.557 12.3759 42.6137 12.3457C42.6425 12.3315 42.6739 12.3232 42.706 12.3212C42.7381 12.3191 42.7703 12.3235 42.8007 12.3339C42.8312 12.3444 42.8592 12.3607 42.8833 12.382C42.9074 12.4033 42.9271 12.4292 42.9411 12.4581C43.4299 13.4014 44.1532 15.0631 43.7525 15.5372C43.6639 15.6309 43.5558 15.704 43.4359 15.7513C43.316 15.7986 43.1871 15.8189 43.0584 15.8109Z" fill="#231F20"/>
<path d="M42.8532 7.63419C43.6938 8.50904 43.1415 12.0329 43.0096 13.0935C42.8206 14.5662 42.599 16.0325 42.3449 17.4922C42.1787 18.4208 39.7643 18.152 39.3684 17.8196L39.3049 21.5488C39.3049 21.5488 38.1074 21.7296 36.2698 20.5713C34.4321 19.413 34.4663 18.9731 34.4663 18.9731L35.1359 14.7405C35.1359 14.7405 36.7341 14.9458 37.9022 13.157C39.0703 11.3682 39.3684 8.44551 39.3684 8.44551C39.3684 8.44551 42.037 6.78377 42.8532 7.63419Z" fill="white"/>
<path d="M39.1045 21.798C38.0464 21.7492 37.022 21.4111 36.1427 20.8205C34.3636 19.7258 34.1877 19.1784 34.2219 18.9926L34.8964 14.7405C34.906 14.6773 34.9401 14.6204 34.9913 14.582C35.0425 14.5436 35.1066 14.5269 35.1701 14.5353C35.2238 14.5353 36.6363 14.6868 37.6969 13.069C38.8259 11.3535 39.1631 8.4895 39.1631 8.46017C39.168 8.42379 39.1805 8.38885 39.1999 8.35767C39.2192 8.32649 39.245 8.29979 39.2755 8.27934C39.5639 8.0985 42.12 6.52474 43.0486 7.49246C43.8062 8.27934 43.6058 10.6546 43.3077 12.8687L43.2686 13.1472C43.0828 14.6135 42.858 16.0797 42.6039 17.5459C42.5639 17.7093 42.4799 17.8586 42.361 17.9776C42.2421 18.0965 42.0928 18.1805 41.9294 18.2204C41.1704 18.4222 40.3703 18.4104 39.6176 18.1862L39.559 21.5488C39.5586 21.6065 39.5377 21.6622 39.5002 21.7061C39.4626 21.7499 39.4107 21.779 39.3537 21.7883C39.3537 21.7883 39.2511 21.798 39.1045 21.798ZM34.7057 18.9829C34.74 19.0708 34.9843 19.5107 36.387 20.3807C37.18 20.9184 38.1001 21.2386 39.0556 21.3093L39.1142 17.8099C39.1159 17.7639 39.1306 17.7192 39.1565 17.6812C39.1825 17.6432 39.2186 17.6132 39.2609 17.5948C39.3027 17.5748 39.3495 17.5674 39.3954 17.5735C39.4414 17.5796 39.4847 17.5989 39.5199 17.629C40.2261 17.9102 41.0042 17.9565 41.7388 17.761C41.949 17.6828 42.0711 17.5753 42.0907 17.4482C42.3448 15.982 42.5794 14.5157 42.7554 13.0495L42.7945 12.766C42.9362 11.7103 43.3614 8.50905 42.6674 7.79059C42.1787 7.30185 40.5805 7.99587 39.6079 8.59214C39.5345 9.16885 39.168 11.6615 38.0976 13.289C37.814 13.7788 37.4132 14.1906 36.9313 14.4874C36.4493 14.7842 35.9013 14.9569 35.3362 14.9898L34.7057 18.9829Z" fill="#231F20"/>
<path d="M42.4182 16.3876C42.0037 16.421 41.5909 16.3047 41.2547 16.06C40.9185 15.8152 40.6811 15.4581 40.5854 15.0534" fill="white"/>
<path d="M42.2863 16.6515C41.845 16.6438 41.4185 16.4914 41.0724 16.2176C40.7262 15.9439 40.4796 15.564 40.3704 15.1364C40.3509 15.0716 40.358 15.0017 40.3901 14.9422C40.4222 14.8826 40.4766 14.8382 40.5414 14.8187C40.6063 14.7993 40.6761 14.8064 40.7357 14.8385C40.7953 14.8706 40.8397 14.925 40.8591 14.9898C40.9365 15.3391 41.1361 15.6492 41.422 15.8643C41.7079 16.0794 42.0612 16.1852 42.4182 16.1628C42.4504 16.1587 42.483 16.161 42.5142 16.1697C42.5454 16.1783 42.5746 16.193 42.6001 16.2131C42.6255 16.2331 42.6468 16.2579 42.6625 16.2862C42.6783 16.3145 42.6883 16.3457 42.6919 16.3778C42.699 16.4418 42.681 16.5059 42.6419 16.5569C42.6027 16.6079 42.5453 16.6418 42.4818 16.6515H42.2863Z" fill="#231F20"/>
<path d="M39.7888 13.1717C39.7929 12.7983 39.693 12.4311 39.5004 12.1111C39.3872 11.845 39.2339 11.5978 39.0459 11.378C38.9515 11.2691 38.8342 11.1823 38.7024 11.124C38.5706 11.0657 38.4275 11.0373 38.2834 11.0408C38.1571 11.0571 38.0356 11.0999 37.9269 11.1664C37.8183 11.233 37.7249 11.3217 37.653 11.4269C37.5095 11.6394 37.4159 11.8817 37.3793 12.1356C37.29 12.6871 37.3473 13.2525 37.5455 13.7749C37.7436 14.2973 38.0756 14.7584 38.5083 15.112L38.4398 15.0143" fill="white"/>
<path d="M38.5083 15.3564C38.4532 15.3557 38.3999 15.3368 38.3568 15.3026C37.8926 14.9194 37.5369 14.4214 37.3251 13.858C37.1133 13.2946 37.0528 12.6856 37.1495 12.0916C37.1911 11.8025 37.2981 11.5267 37.4623 11.2851C37.5548 11.1504 37.6751 11.0371 37.815 10.9528C37.955 10.8685 38.1114 10.8152 38.2737 10.7964C38.4575 10.7861 38.6413 10.8183 38.8108 10.8903C38.9802 10.9623 39.1309 11.0723 39.2512 11.2118C39.4526 11.4499 39.6174 11.7168 39.7399 12.0036C39.955 12.3635 40.0634 12.777 40.0527 13.1961C40.0456 13.2609 40.013 13.3203 39.9621 13.361C39.9112 13.4018 39.8463 13.4207 39.7814 13.4136C39.7166 13.4065 39.6573 13.3739 39.6165 13.323C39.5757 13.2722 39.5568 13.2072 39.564 13.1424C39.5611 12.8156 39.4681 12.4959 39.2951 12.2186C39.1905 11.9757 39.0523 11.7487 38.8846 11.5442C38.8141 11.463 38.727 11.3979 38.6292 11.3532C38.5314 11.3085 38.4252 11.2853 38.3177 11.2851C38.226 11.2988 38.1382 11.3316 38.0599 11.3812C37.9816 11.4309 37.9146 11.4964 37.8631 11.5735C37.7423 11.7558 37.6638 11.9629 37.6334 12.1795C37.557 12.6507 37.5968 13.1333 37.7493 13.5856C37.9017 14.0378 38.1623 14.446 38.5083 14.7748C38.5638 14.7905 38.6122 14.8251 38.6451 14.8725L38.7184 14.9654C38.7538 15.0135 38.7703 15.0728 38.7649 15.1322C38.7595 15.1916 38.7325 15.247 38.6891 15.288C38.6402 15.3337 38.5752 15.3583 38.5083 15.3564Z" fill="#231F20"/>
<path d="M39.3684 17.8148C38.6784 17.4982 38.0946 16.9891 37.6871 16.3485C37.6871 16.3485 37.5014 18.5968 39.3391 19.4765L39.3684 17.8148Z" fill="#231F20"/>
<path d="M39.3391 19.7209C39.3052 19.7276 39.2704 19.7276 39.2365 19.7209C37.2815 18.7825 37.433 16.4512 37.4428 16.3534C37.4471 16.3005 37.4685 16.2504 37.5037 16.2107C37.539 16.1711 37.5862 16.1439 37.6383 16.1335C37.6902 16.1216 37.7446 16.1277 37.7925 16.1508C37.8405 16.1739 37.8792 16.2126 37.9022 16.2606C38.2936 16.8446 38.8427 17.3056 39.4857 17.5899C39.5293 17.6101 39.566 17.6426 39.5912 17.6835C39.6164 17.7243 39.629 17.7717 39.6275 17.8197L39.5982 19.4814C39.5981 19.5223 39.5878 19.5625 39.5681 19.5984C39.5485 19.6342 39.5202 19.6646 39.4857 19.6867C39.4407 19.7106 39.3901 19.7224 39.3391 19.7209ZM37.9706 17.1403C38.0185 17.5216 38.1437 17.8891 38.3387 18.2202C38.5337 18.5514 38.7943 18.8392 39.1045 19.066V17.9712C38.6891 17.7493 38.3074 17.4695 37.9706 17.1403Z" fill="#231F20"/>
<path d="M42.0583 11.3266C42.14 11.0467 42.1158 10.7935 42.0044 10.761C41.8929 10.7285 41.7364 10.929 41.6548 11.2089C41.5732 11.4887 41.5973 11.742 41.7088 11.7745C41.8202 11.807 41.9767 11.6064 42.0583 11.3266Z" fill="#231F20"/>
<path d="M42.5013 11.3291C42.4562 11.3281 42.4122 11.3146 42.3743 11.29L41.3968 10.6938C41.3429 10.6595 41.3046 10.6056 41.29 10.5435C41.2754 10.4814 41.2856 10.4161 41.3186 10.3614C41.3347 10.3332 41.3563 10.3085 41.3822 10.2889C41.4082 10.2693 41.4378 10.2552 41.4694 10.2475C41.5009 10.2397 41.5337 10.2384 41.5658 10.2437C41.5978 10.249 41.6284 10.2608 41.6558 10.2783L42.6333 10.8746C42.661 10.8912 42.6852 10.9131 42.7044 10.939C42.7236 10.965 42.7375 10.9945 42.7452 11.0259C42.7529 11.0572 42.7543 11.0898 42.7494 11.1217C42.7445 11.1537 42.7332 11.1843 42.7164 11.2118C42.6933 11.2479 42.6615 11.2776 42.6239 11.2981C42.5863 11.3186 42.5442 11.3293 42.5013 11.3291Z" fill="#231F20"/>
<path d="M41.8953 31.5045C41.8711 31.5093 41.8462 31.5093 41.822 31.5045C41.7603 31.4843 41.7089 31.4408 41.6788 31.3833C41.6487 31.3258 41.6422 31.2588 41.6607 31.1966C41.6607 31.1624 42.8043 27.5506 43.1269 26.1821C43.1425 26.1173 43.1831 26.0613 43.24 26.0265C43.2968 25.9916 43.3651 25.9808 43.4299 25.9964C43.4947 26.0119 43.5507 26.0526 43.5855 26.1094C43.6204 26.1662 43.6312 26.2346 43.6157 26.2994C43.2784 27.6825 42.1787 31.1868 42.1494 31.3432C42.1311 31.3946 42.0962 31.4384 42.0501 31.4677C42.0041 31.4969 41.9496 31.5099 41.8953 31.5045Z" fill="#231F20"/>
<path d="M21.5585 47.3692C21.4972 47.3696 21.4379 47.3474 21.3919 47.3068C21.3459 47.2663 21.3165 47.2102 21.3093 47.1493C21.3009 47.0833 21.3187 47.0166 21.3589 46.9636C21.3991 46.9106 21.4585 46.8755 21.5243 46.8658C22.3294 46.7431 23.0826 46.3926 23.6949 45.8557C24.3072 45.3187 24.753 44.6178 24.9798 43.8356C24.9859 43.8008 24.9991 43.7677 25.0188 43.7384C25.0384 43.709 25.0639 43.6841 25.0937 43.6651C25.1234 43.6462 25.1568 43.6336 25.1917 43.6283C25.2266 43.623 25.2622 43.625 25.2963 43.6342C25.3304 43.6434 25.3622 43.6596 25.3897 43.6817C25.4171 43.7039 25.4397 43.7315 25.4559 43.7629C25.4721 43.7943 25.4816 43.8287 25.4837 43.8639C25.4859 43.8991 25.4807 43.9344 25.4685 43.9675C25.218 44.8491 24.7195 45.6401 24.0324 46.2466C23.3454 46.8531 22.4986 47.2495 21.5928 47.3887L21.5585 47.3692Z" fill="white"/>
<path d="M58.2828 16.3583C58.2828 16.3583 59.8615 15.6252 60.9172 14.98C61.847 14.313 62.7038 13.5496 63.4733 12.7025V13.4063C63.4733 13.6409 63.3658 14.3349 63.4977 14.5304C63.6297 14.7259 64.8174 14.33 65.1448 14.2567C65.7851 14.1101 66.4253 13.983 67.0705 13.8706C67.3129 13.8195 67.5617 13.8046 67.8085 13.8266C67.9317 13.8384 68.0507 13.878 68.1565 13.9423C68.2623 14.0067 68.3522 14.0941 68.4194 14.198C68.4803 14.3557 68.5066 14.5245 68.4965 14.6932C68.4864 14.8618 68.4401 15.0263 68.3608 15.1755C68.2042 15.6244 67.9581 16.0368 67.6374 16.3876C67.2254 16.7552 66.7502 17.045 66.2347 17.2429L64.4508 18.0494C62.798 18.7416 61.1113 19.35 59.3972 19.8724" fill="white"/>
<path d="M59.407 20.1216C59.3422 20.1294 59.2769 20.1111 59.2256 20.0708C59.1743 20.0305 59.1411 19.9714 59.1333 19.9066C59.1255 19.8418 59.1438 19.7765 59.1841 19.7252C59.2244 19.6739 59.2835 19.6407 59.3483 19.6329C60.5897 19.3299 63.9279 18.02 64.3629 17.8245L66.1419 17.0132C66.6307 16.8281 67.0813 16.5548 67.4713 16.2068C67.7692 15.8792 67.9985 15.4954 68.1457 15.0778C68.212 14.9625 68.2524 14.8341 68.2643 14.7016C68.2761 14.5692 68.259 14.4357 68.2142 14.3105C68.1654 14.2393 68.1016 14.1797 68.0273 14.1357C67.953 14.0918 67.87 14.0647 67.7841 14.0563C67.5629 14.0378 67.3403 14.0542 67.1243 14.1052C66.484 14.2127 65.8389 14.3398 65.2084 14.4864C65.14 14.4864 65.0275 14.5353 64.8956 14.5793C64.0745 14.8334 63.5222 14.9752 63.3023 14.6575C63.1814 14.3463 63.1542 14.0065 63.2241 13.68C63.2301 13.5921 63.2301 13.5039 63.2241 13.4161V13.3085C62.5663 14.0099 61.8356 14.639 61.0443 15.1853C59.9886 15.8305 58.449 16.544 58.3855 16.5734C58.3567 16.5873 58.3254 16.5953 58.2934 16.5969C58.2615 16.5985 58.2295 16.5937 58.1995 16.5828C58.1694 16.5719 58.1418 16.555 58.1184 16.5332C58.0949 16.5115 58.0761 16.4852 58.0629 16.4561C58.0489 16.4269 58.0408 16.3952 58.0391 16.3629C58.0375 16.3306 58.0422 16.2983 58.0531 16.2678C58.064 16.2373 58.0809 16.2094 58.1027 16.1855C58.1245 16.1616 58.1509 16.1422 58.1802 16.1286C58.1802 16.1286 59.7589 15.3955 60.7901 14.7699C61.7015 14.1149 62.5404 13.3645 63.2925 12.5314C63.3258 12.4952 63.3695 12.4701 63.4176 12.4597C63.4657 12.4492 63.5159 12.4537 63.5613 12.4728C63.6072 12.4898 63.6469 12.5204 63.6748 12.5606C63.7028 12.6008 63.7178 12.6486 63.7177 12.6976V13.3965C63.7239 13.5007 63.7239 13.6051 63.7177 13.7093C63.6959 13.9254 63.6959 14.1432 63.7177 14.3593C64.077 14.3232 64.4301 14.2411 64.7685 14.115L65.1204 14.0123C65.7607 13.8706 66.4107 13.7386 67.0754 13.6262C67.3415 13.5666 67.6154 13.5501 67.8867 13.5773C68.0464 13.5936 68.2003 13.6461 68.3366 13.7308C68.473 13.8155 68.5882 13.9302 68.6736 14.0661C68.7571 14.2542 68.797 14.4587 68.7902 14.6644C68.7834 14.8701 68.7302 15.0716 68.6345 15.2537C68.4575 15.7395 68.1849 16.1849 67.8329 16.5636C67.404 16.9526 66.9069 17.2591 66.3667 17.4678L64.5877 18.2791C62.9204 18.9767 61.219 19.5901 59.4901 20.1168L59.407 20.1216Z" fill="#231F20"/>
<path d="M28.2788 17.7512C28.7969 17.893 55.1598 16.3925 59.627 15.112L61.4304 19.8773C61.4304 19.8773 48.723 24.7647 28.2788 27.0032C21.7492 25.6298 28.2788 17.7512 28.2788 17.7512Z" fill="#DDDDDD"/>
<path d="M28.2788 27.2476C28.2208 27.2482 28.1646 27.2277 28.1205 27.1899C28.0765 27.1522 28.0476 27.0997 28.0393 27.0423C28.0308 26.9783 28.0475 26.9135 28.0858 26.8616C28.124 26.8096 28.181 26.7745 28.2446 26.7637C28.4646 26.7295 50.3164 23.3132 60.2623 19.9213C60.3246 19.9011 60.3922 19.9061 60.4508 19.9354C60.5093 19.9647 60.5539 20.0158 60.5751 20.0777C60.5857 20.1081 60.5901 20.1404 60.5879 20.1726C60.5857 20.2048 60.5771 20.2362 60.5625 20.2649C60.5479 20.2937 60.5276 20.3192 60.5029 20.3399C60.4782 20.3607 60.4496 20.3762 60.4187 20.3856C50.4337 23.7677 28.5379 27.1889 28.3179 27.228L28.2788 27.2476Z" fill="#231F20"/>
<path d="M83.6488 69.1037C94.2488 69.1037 102.842 60.5107 102.842 49.9107C102.842 39.3107 94.2488 30.7177 83.6488 30.7177C73.0488 30.7177 64.4557 39.3107 64.4557 49.9107C64.4557 60.5107 73.0488 69.1037 83.6488 69.1037Z" fill="white"/>
<path d="M83.6488 69.3481C79.8044 69.3481 76.0464 68.2081 72.8499 66.0723C69.6535 63.9365 67.1621 60.9008 65.691 57.349C64.2198 53.7973 63.8349 49.8891 64.5849 46.1186C65.3349 42.3481 67.1861 38.8847 69.9045 36.1664C72.6228 33.448 76.0862 31.5968 79.8567 30.8468C83.6272 30.0968 87.5354 30.4817 91.0871 31.9529C94.6389 33.424 97.6746 35.9154 99.8104 39.1118C101.946 42.3083 103.086 46.0663 103.086 49.9107C103.081 55.0642 101.031 60.0052 97.3874 63.6493C93.7433 67.2934 88.8023 69.3429 83.6488 69.3481ZM83.6488 30.962C79.9011 30.962 76.2376 32.0733 73.1215 34.1554C70.0054 36.2376 67.5767 39.1969 66.1425 42.6593C64.7083 46.1218 64.3331 49.9317 65.0642 53.6074C65.7954 57.2831 67.6 60.6594 70.25 63.3094C72.9001 65.9594 76.2764 67.7641 79.9521 68.4952C83.6277 69.2264 87.4377 68.8511 90.9001 67.4169C94.3625 65.9828 97.3219 63.5541 99.404 60.438C101.486 57.3219 102.597 53.6584 102.597 49.9107C102.591 44.8872 100.593 40.0713 97.0404 36.5191C93.4882 32.9669 88.6723 30.9685 83.6488 30.962Z" fill="#D1D3D4"/>
<path d="M68.2142 29.6669C68.5272 29.7027 68.8272 29.8122 69.0897 29.9863C69.3522 30.1605 69.5697 30.3944 69.7244 30.6688C69.8675 30.9491 69.9052 31.2715 69.8308 31.5774C69.7564 31.8832 69.5747 32.1522 69.3187 32.3354C68.9665 32.5105 68.5696 32.5752 68.18 32.5211C67.3491 32.4625 65.0373 32.1106 65.1449 30.9083C65.2524 29.7841 67.4078 29.5496 68.2142 29.6669Z" fill="white"/>
<path d="M68.4684 32.7802H68.1604C67.9356 32.7802 65.9171 32.6042 65.1791 31.7342C65.0779 31.6216 65.0013 31.4891 64.9542 31.3452C64.9071 31.2013 64.8905 31.0492 64.9054 30.8985C64.9229 30.7311 64.9754 30.5693 65.0597 30.4236C65.1439 30.2779 65.2578 30.1516 65.3941 30.053C66.1713 29.442 67.6326 29.354 68.2435 29.442C68.5962 29.482 68.9342 29.6058 69.2292 29.803C69.5242 30.0003 69.7678 30.2653 69.9395 30.5759C70.1095 30.9103 70.1537 31.2947 70.064 31.6589C69.9743 32.0232 69.7566 32.3431 69.4507 32.5602C69.1503 32.724 68.8099 32.8002 68.4684 32.7802ZM67.7743 29.8917C67.0466 29.865 66.3267 30.0501 65.7021 30.4244C65.6198 30.4807 65.5497 30.553 65.496 30.637C65.4422 30.7209 65.4059 30.8149 65.3893 30.9131C65.3796 31.0014 65.389 31.0907 65.4169 31.175C65.4447 31.2593 65.4903 31.3367 65.5505 31.4019C66.0393 31.9884 67.5055 32.2279 68.1947 32.2767C68.5278 32.3245 68.8677 32.2736 69.1722 32.1301C69.3752 31.9773 69.5179 31.7578 69.5751 31.5102C69.6323 31.2626 69.6004 31.0027 69.4849 30.7763C69.3479 30.538 69.1565 30.3354 68.9264 30.185C68.6962 30.0347 68.4338 29.9409 68.1604 29.9112C68.0326 29.893 67.9035 29.8848 67.7743 29.8868V29.8917Z" fill="#231F20"/>
<path d="M110.96 17.8685C111.262 17.0103 111.807 16.2583 112.529 15.7034C113.164 15.2733 113.682 15.3808 114.386 15.3613C114.66 15.3613 114.875 15.6936 115.139 15.6594C115.403 15.6252 115.808 15.1707 116.077 15.0094C116.797 14.6102 117.599 14.3827 118.422 14.3446C119.244 14.3064 120.064 14.4587 120.818 14.7894C121.815 15.3326 122.723 16.0248 123.511 16.8422C127.172 20.195 131.707 23.147 136.673 22.9466C134.258 27.3942 130.544 31.2553 125.876 33.2103C123.601 34.1533 121.148 34.5887 118.687 34.4859C116.732 34.3979 113.13 34.0313 111.928 32.2621C110.799 30.5906 110.315 27.4431 110.061 25.4783C109.678 22.9069 109.989 20.28 110.96 17.8685Z" fill="white"/>
<path d="M119.41 34.7351C119.166 34.7351 118.922 34.7351 118.677 34.7351C116.15 34.6227 112.895 34.1291 111.727 32.3989C110.603 30.7421 110.1 27.6776 109.816 25.5125C109.437 22.9073 109.754 20.2481 110.735 17.805C111.061 16.906 111.636 16.118 112.392 15.5323C112.87 15.2276 113.436 15.0917 114 15.1462C114.122 15.1462 114.244 15.1462 114.376 15.1462C114.555 15.1573 114.726 15.224 114.865 15.3368C114.953 15.4004 115.041 15.4541 115.09 15.4444C115.257 15.3727 115.408 15.268 115.535 15.1364C115.659 15.015 115.799 14.9099 115.95 14.8236C116.701 14.4031 117.539 14.1637 118.399 14.1247C119.258 14.0857 120.115 14.248 120.901 14.5988C121.842 15.0997 122.701 15.7426 123.447 16.5049L123.653 16.6907C128.271 20.9232 132.509 22.9026 136.643 22.7364C136.686 22.7326 136.729 22.7412 136.767 22.7611C136.806 22.7811 136.837 22.8115 136.858 22.8488C136.88 22.886 136.891 22.9281 136.891 22.971C136.891 23.0139 136.88 23.0561 136.858 23.0932C134.263 27.8927 130.392 31.5729 125.994 33.4106C123.907 34.2792 121.67 34.7292 119.41 34.7351ZM111.185 17.9663C110.237 20.329 109.931 22.9007 110.3 25.4196C110.574 27.5359 111.062 30.527 112.128 32.1008C112.954 33.3129 115.285 34.0558 118.697 34.2171C121.122 34.3191 123.541 33.8904 125.783 32.961C129.982 31.2162 133.686 27.7558 136.252 23.1861H136.189C132.083 23.1861 127.88 21.1627 123.345 17.0083L123.139 16.8177C122.421 16.0904 121.597 15.4758 120.696 14.9947C119.976 14.6758 119.193 14.5297 118.407 14.5679C117.621 14.606 116.855 14.8275 116.17 15.2146C116.055 15.284 115.949 15.3659 115.852 15.459C115.664 15.6642 115.422 15.8117 115.153 15.8842C114.949 15.8958 114.748 15.8294 114.591 15.6985C114.508 15.6399 114.425 15.5617 114.371 15.5861H113.98C113.513 15.5289 113.04 15.6342 112.641 15.8842C111.958 16.4108 111.448 17.1288 111.175 17.9467L111.185 17.9663Z" fill="#231F20"/>
<path d="M129.478 27.404C125.612 23.9534 113.707 25.1557 111.131 30.1507C108.555 35.1457 117.836 50.1893 117.836 50.1893L135.739 46.6996C135.739 46.6996 133.349 30.8496 129.478 27.404Z" fill="#DDDDDD"/>
<path d="M116.136 31.8955C116.903 36.26 122.113 49.3633 122.113 49.3633L126.917 48.4298L121.541 29.6033C121.541 29.6033 120.27 29.2025 116.136 31.8955Z" fill="#231F20"/>
<path d="M115.828 28.5965L116.316 32.0177C116.316 32.0177 116.991 33.523 119.21 32.658C121.429 31.7929 121.551 30.1702 121.551 30.1702L120.402 23.8166C120.402 23.8166 116.546 22.3943 116.551 18.631C116.216 19.5471 115.607 20.3379 114.807 20.8965C114.007 21.4551 113.055 21.7545 112.079 21.754C112.281 23.4511 112.587 25.134 112.998 26.793C113.521 28.5281 115.828 28.5965 115.828 28.5965Z" fill="white"/>
<path d="M117.954 33.1809C117.578 33.1958 117.205 33.1054 116.878 32.9197C116.55 32.734 116.282 32.4605 116.101 32.1301C116.099 32.1074 116.099 32.0845 116.101 32.0617L115.613 28.8262C115.002 28.7627 113.232 28.445 112.763 26.8712C112.347 25.1985 112.038 23.5006 111.84 21.7883C111.834 21.7541 111.836 21.7192 111.847 21.6861C111.857 21.653 111.874 21.6228 111.898 21.5977C111.92 21.5714 111.948 21.5503 111.979 21.536C112.011 21.5216 112.045 21.5143 112.079 21.5146C113.002 21.5233 113.904 21.246 114.663 20.7209C115.422 20.1959 116 19.4487 116.316 18.5821C116.333 18.5259 116.369 18.4777 116.419 18.447C116.468 18.4162 116.528 18.4052 116.585 18.4159C116.643 18.4241 116.696 18.4528 116.735 18.4967C116.773 18.5406 116.795 18.597 116.795 18.6554C116.795 22.1988 120.451 23.6015 120.485 23.6113C120.525 23.6263 120.56 23.6513 120.588 23.6838C120.615 23.7163 120.634 23.7553 120.642 23.797L121.795 30.1507C121.798 30.1702 121.798 30.1899 121.795 30.2094C121.795 30.2827 121.634 31.9982 119.298 32.9121C118.87 33.0827 118.414 33.1738 117.954 33.1809ZM116.561 31.9542C116.659 32.1399 117.299 33.1516 119.127 32.4429C120.955 31.7342 121.282 30.4048 121.311 30.1898L120.192 23.9827C119.562 23.709 116.869 22.3797 116.385 19.5254C115.974 20.2383 115.39 20.8361 114.687 21.2633C113.984 21.6905 113.184 21.9333 112.363 21.9691C112.555 23.5644 112.848 25.1461 113.237 26.705C113.697 28.2593 115.818 28.3375 115.838 28.3375C115.895 28.3392 115.95 28.3612 115.993 28.3997C116.036 28.4382 116.064 28.4905 116.072 28.5476L116.561 31.9542Z" fill="#231F20"/>
<path d="M119.298 23.7775C119.508 21.8225 122.592 21.8225 121.971 24.0854C121.908 24.3282 121.798 24.5562 121.646 24.7563C121.495 24.9564 121.305 25.1246 121.089 25.2513C120.872 25.378 120.633 25.4607 120.384 25.4946C120.135 25.5285 119.883 25.513 119.64 25.449" fill="white"/>
<path d="M120.129 25.7813C119.94 25.7817 119.753 25.7554 119.572 25.7031C119.51 25.6839 119.458 25.6416 119.427 25.5851C119.396 25.5286 119.389 25.4623 119.405 25.4001C119.414 25.3689 119.428 25.3398 119.448 25.3144C119.468 25.289 119.493 25.2679 119.521 25.2524C119.55 25.2369 119.581 25.2272 119.613 25.2241C119.645 25.2209 119.678 25.2242 119.708 25.2339C119.905 25.2898 120.111 25.306 120.314 25.2817C120.517 25.2573 120.713 25.1929 120.891 25.0922C121.3 24.8595 121.6 24.4748 121.727 24.0218C121.843 23.8342 121.893 23.6127 121.867 23.3934C121.842 23.1741 121.743 22.9699 121.586 22.8141C121.43 22.6583 121.225 22.56 121.006 22.5352C120.786 22.5105 120.565 22.5607 120.378 22.6778C120.143 22.7641 119.939 22.9159 119.788 23.1151C119.637 23.3144 119.547 23.5528 119.528 23.8019C119.524 23.834 119.515 23.8653 119.5 23.8938C119.485 23.9223 119.464 23.9475 119.439 23.9679C119.414 23.9884 119.385 24.0037 119.354 24.0129C119.323 24.0222 119.291 24.0252 119.259 24.0218C119.195 24.0145 119.136 23.9821 119.096 23.9317C119.056 23.8814 119.037 23.8171 119.044 23.753C119.073 23.4147 119.197 23.0915 119.402 22.8208C119.607 22.55 119.884 22.3429 120.202 22.2232C120.473 22.1094 120.771 22.0719 121.062 22.115C121.353 22.1581 121.627 22.28 121.854 22.4676C122.07 22.6833 122.217 22.9578 122.278 23.2568C122.339 23.5558 122.31 23.866 122.196 24.1489C122.117 24.436 121.983 24.7047 121.8 24.9395C121.617 25.1744 121.39 25.3708 121.131 25.5174C120.825 25.6904 120.48 25.7813 120.129 25.7813Z" fill="#231F20"/>
<path d="M115.119 23.2398C115.119 23.2398 114.088 25.1606 114.405 25.4441C114.723 25.7275 115.51 25.4441 115.51 25.4441" fill="white"/>
<path d="M114.84 25.8155C114.625 25.8286 114.412 25.7607 114.244 25.6249C113.936 25.3512 114.161 24.5106 114.904 23.1225C114.937 23.0701 114.988 23.032 115.048 23.016C115.108 23.0001 115.172 23.0074 115.226 23.0366C115.281 23.0658 115.322 23.1146 115.342 23.1732C115.362 23.2318 115.359 23.2958 115.334 23.3522C114.88 24.2027 114.537 25.1068 114.596 25.3072C114.704 25.3952 115.153 25.3072 115.422 25.2241C115.483 25.2015 115.55 25.2039 115.61 25.2309C115.669 25.258 115.715 25.3074 115.737 25.3683C115.76 25.4292 115.758 25.4967 115.731 25.5558C115.703 25.6149 115.654 25.6609 115.593 25.6836C115.351 25.7675 115.097 25.812 114.84 25.8155Z" fill="#231F20"/>
<path d="M116.607 22.3375C116.771 22.3246 116.889 22.1265 116.871 21.8951C116.853 21.6637 116.705 21.4865 116.541 21.4994C116.377 21.5123 116.259 21.7104 116.277 21.9418C116.295 22.1732 116.443 22.3504 116.607 22.3375Z" fill="#231F20"/>
<path d="M114.082 23.2018C114.246 23.1889 114.365 22.9909 114.347 22.7594C114.328 22.528 114.181 22.3509 114.016 22.3637C113.852 22.3766 113.734 22.5747 113.752 22.8061C113.77 23.0375 113.918 23.2147 114.082 23.2018Z" fill="#231F20"/>
<path d="M115.359 27.2084C115.139 27.2097 114.921 27.1834 114.709 27.1302C114.646 27.112 114.593 27.0701 114.561 27.0135C114.529 26.9569 114.521 26.8901 114.537 26.8272C114.557 26.7655 114.599 26.7135 114.655 26.6817C114.711 26.6499 114.778 26.6408 114.84 26.6562C115.326 26.7806 115.84 26.7141 116.277 26.4704C116.49 26.311 116.666 26.1074 116.792 25.8738C116.919 25.6401 116.993 25.3818 117.011 25.1166C117.021 25.053 117.056 24.996 117.108 24.9578C117.16 24.9195 117.225 24.9028 117.289 24.9113C117.321 24.9161 117.351 24.9271 117.379 24.9437C117.406 24.9603 117.43 24.9822 117.45 25.008C117.469 25.0339 117.482 25.0633 117.49 25.0945C117.498 25.1257 117.499 25.1581 117.494 25.1899C117.469 25.5244 117.37 25.8491 117.206 26.1413C117.041 26.4335 116.814 26.686 116.541 26.881C116.187 27.1024 115.776 27.2162 115.359 27.2084Z" fill="#231F20"/>
<path d="M115.828 28.5965C115.828 28.5965 117.607 28.3032 118.35 27.6825C118.35 27.6825 118.003 29.8232 116.16 30.6541L115.828 28.5965Z" fill="#231F20"/>
<path d="M116.16 30.8985C116.103 30.8971 116.047 30.8759 116.004 30.8385C115.96 30.8011 115.931 30.7498 115.921 30.6932L115.588 28.6356C115.578 28.5721 115.594 28.5073 115.631 28.4552C115.669 28.4031 115.725 28.3678 115.789 28.357C115.789 28.357 117.509 28.0637 118.193 27.4919C118.232 27.4604 118.279 27.4413 118.329 27.4373C118.378 27.4333 118.428 27.4446 118.471 27.4695C118.514 27.4945 118.548 27.532 118.569 27.5771C118.591 27.6221 118.597 27.6726 118.589 27.7216C118.589 27.8145 118.198 29.9992 116.263 30.8789C116.23 30.8925 116.195 30.8991 116.16 30.8985ZM116.106 28.792L116.346 30.2875C117.107 29.8038 117.674 29.0689 117.949 28.2104C117.36 28.4762 116.741 28.6714 116.106 28.792Z" fill="#231F20"/>
<path d="M125.104 30.7958C121.683 34.784 119.093 39.7399 116.732 40.2922C114.371 40.8444 102.353 40.2922 102.353 40.2922C102.353 40.2922 100.354 38.1075 99.5281 38.0439C98.7021 37.9804 99.8164 39.4173 100.398 40.5365C100.398 40.5365 96.0433 40.0478 96.0237 41.6655C95.9798 44.7837 97.7539 44.1093 99.9679 44.51C102.182 44.9108 119.611 46.6214 121.668 44.9694C123.726 43.3175 130.001 35.0381 130.177 34.8084C132.196 32.1936 128.535 26.8028 125.104 30.7958Z" fill="white"/>
<path d="M116.106 45.8981C110.697 45.8057 105.296 45.4157 99.9289 44.73C99.489 44.6567 99.0687 44.6224 98.663 44.5882C97.1088 44.466 95.7599 44.3585 95.799 41.6558C95.8004 41.5086 95.8334 41.3636 95.8958 41.2303C95.9582 41.0971 96.0486 40.9788 96.1607 40.8835C96.9818 40.1602 99.0931 40.2091 100.002 40.2677L99.7138 39.779C99.1664 38.8699 98.8683 38.3127 99.0736 38.0048C99.1259 37.927 99.2007 37.867 99.2881 37.8329C99.3754 37.7988 99.4711 37.7923 99.5623 37.8142C100.393 37.8729 102.079 39.6421 102.495 40.0624C103.614 40.1113 114.528 40.5756 116.722 40.0624C118.188 39.7203 119.826 37.477 121.712 34.8769C122.739 33.4693 123.794 32.0128 124.977 30.6394C126.414 28.9728 128.11 28.6845 129.522 29.8135C130.935 30.9425 131.595 33.3862 130.397 34.9355L130.324 35.0333C128.799 37.0322 123.682 43.6645 121.854 45.1356C121.106 45.6977 118.892 45.8981 116.106 45.8981ZM99.0785 40.6929C98.101 40.6929 96.9378 40.8053 96.4588 41.2305C96.3931 41.2838 96.3399 41.3508 96.3027 41.4268C96.2656 41.5027 96.2455 41.5859 96.2437 41.6704C96.2144 43.9431 97.1479 44.0213 98.6875 44.1435C99.0834 44.1728 99.533 44.2119 99.9973 44.2901C102.265 44.6811 119.547 46.3673 121.502 44.7788C123.291 43.3419 128.379 36.7439 129.894 34.7596L129.972 34.6569C131.013 33.3031 130.407 31.1624 129.166 30.1556C128.589 29.6668 127.054 28.8213 125.256 30.9229C124.083 32.2865 123.032 33.7332 122.01 35.1359C120.055 37.8045 118.394 40.1113 116.761 40.5121C114.396 41.0644 102.812 40.5414 102.324 40.5121C102.294 40.5114 102.265 40.5044 102.238 40.4918C102.211 40.4792 102.187 40.4612 102.167 40.4388C101.42 39.6226 100.027 38.3079 99.489 38.2688C99.4633 38.2625 99.4365 38.2625 99.4108 38.2688C99.5799 38.7239 99.8031 39.1571 100.076 39.559C100.251 39.8474 100.427 40.1455 100.564 40.429C100.586 40.4626 100.597 40.5016 100.597 40.5414C100.597 40.5812 100.586 40.6202 100.564 40.6538C100.543 40.6877 100.512 40.7148 100.476 40.7321C100.439 40.7493 100.399 40.7561 100.359 40.7516C100.09 40.7271 99.6014 40.6929 99.0785 40.6929Z" fill="#231F20"/>
<path d="M114.264 34.2464C114.204 34.2463 114.145 34.2315 114.092 34.2034C114.039 34.1753 113.994 34.1347 113.961 34.0851C113.57 33.5279 114.449 30.9376 114.836 29.8526C114.846 29.8253 114.861 29.8002 114.88 29.7789C114.9 29.7575 114.924 29.7401 114.95 29.7279C114.976 29.7156 115.005 29.7087 115.034 29.7074C115.063 29.7062 115.092 29.7107 115.119 29.7206C115.146 29.7306 115.171 29.7458 115.193 29.7654C115.214 29.785 115.231 29.8087 115.244 29.835C115.256 29.8613 115.263 29.8898 115.264 29.9188C115.265 29.9478 115.261 29.9768 115.251 30.0041C114.684 31.573 114.186 33.4253 114.313 33.7967C114.897 33.6536 115.439 33.3758 115.896 32.9854C115.919 32.9668 115.946 32.9529 115.974 32.9446C116.003 32.9362 116.033 32.9336 116.062 32.9367C116.092 32.9399 116.12 32.9489 116.146 32.9631C116.172 32.9773 116.195 32.9965 116.214 33.0196C116.232 33.0427 116.246 33.0693 116.255 33.0978C116.263 33.1262 116.266 33.1561 116.263 33.1856C116.259 33.2151 116.25 33.2437 116.236 33.2697C116.222 33.2957 116.203 33.3187 116.18 33.3373C116.038 33.4155 115.002 34.2464 114.264 34.2464Z" fill="#231F20"/>
<path d="M122.753 30.9425C122.699 30.9398 122.647 30.9172 122.608 30.879C122.568 30.8409 122.544 30.7897 122.54 30.7352C122.536 30.6806 122.552 30.6264 122.585 30.5826C122.618 30.5389 122.665 30.5087 122.719 30.4977C123.037 30.4488 123.912 30.2289 124.185 29.7939C124.249 29.6913 124.107 29.3443 122.421 28.2153C122.235 28.1034 122.058 27.9758 121.893 27.834C121.851 27.7919 121.827 27.7348 121.827 27.6752C121.827 27.6156 121.851 27.5585 121.893 27.5164C121.914 27.4957 121.938 27.4792 121.965 27.468C121.992 27.4568 122.02 27.451 122.05 27.451C122.079 27.451 122.107 27.4568 122.134 27.468C122.161 27.4792 122.185 27.4957 122.206 27.5164C122.25 27.5555 122.465 27.7021 122.656 27.8292C123.863 28.6356 124.918 29.4127 124.552 30.0138C124.122 30.7127 122.832 30.918 122.778 30.9278L122.753 30.9425Z" fill="#231F20"/>
<path d="M46.2989 85.1297H43.5472C43.5094 85.1405 43.4696 85.1423 43.4309 85.1351C43.3922 85.1279 43.3558 85.1119 43.3244 85.0882C43.293 85.0645 43.2675 85.0338 43.2499 84.9986C43.2324 84.9634 43.2233 84.9246 43.2233 84.8853C43.2233 84.846 43.2324 84.8072 43.2499 84.7719C43.2675 84.7367 43.293 84.7061 43.3244 84.6824C43.3558 84.6587 43.3922 84.6426 43.4309 84.6354C43.4696 84.6282 43.5094 84.6301 43.5472 84.6409H46.2989C46.352 84.6561 46.3987 84.6881 46.4319 84.7322C46.4652 84.7763 46.4832 84.8301 46.4832 84.8853C46.4832 84.9405 46.4652 84.9942 46.4319 85.0383C46.3987 85.0824 46.352 85.1145 46.2989 85.1297Z" fill="white"/>
<path d="M154.004 80.6332C153.961 80.6338 153.918 80.6234 153.881 80.6028C153.843 80.5823 153.811 80.5523 153.789 80.5159C152.982 79.2403 134.053 49.2607 133.775 48.7035C133.75 48.644 133.749 48.5773 133.772 48.5171C133.794 48.4568 133.839 48.4075 133.897 48.3789C133.955 48.3504 134.021 48.3448 134.083 48.3633C134.144 48.3818 134.197 48.423 134.229 48.4787C134.488 48.9674 147.425 69.4947 154.219 80.2471C154.236 80.2752 154.248 80.3066 154.254 80.3394C154.259 80.3722 154.258 80.4058 154.25 80.4381C154.243 80.4705 154.228 80.5009 154.209 80.5277C154.189 80.5545 154.164 80.5771 154.136 80.5941C154.096 80.6188 154.05 80.6323 154.004 80.6332Z" fill="white"/>
</svg>
