<svg width="116" height="93" viewBox="0 0 116 93" fill="none" xmlns="http://www.w3.org/2000/svg">
<path d="M96.3343 48.2058C96.3343 48.2058 95.1926 55.1155 95.3189 58.7314C95.4993 63.8292 93.3138 85.3186 93.3138 85.3186L95.2674 85.5093C95.2674 85.5093 99.9889 71.1564 99.6126 66.7802C99.2364 62.404 101.314 56.0459 101.314 56.0459C101.314 56.0459 105.564 71.1796 106.388 72.4477C107.213 73.7157 108.79 86.4603 108.79 86.4603L112.249 86.2026C112.249 86.2026 111.169 73.4889 108.914 69.4322C108.914 69.4322 109.994 48.8604 106.386 46.1027C102.778 43.345 96.3343 48.2058 96.3343 48.2058Z" fill="#3F3D56"/>
<path d="M66.1364 87.2258C64.6931 87.9165 63.0436 87.9319 61.438 87.9629C52.933 88.1381 -22.2307 87.1897 7.21207 92.2746C6.95434 94.4576 38.825 94.1586 41.0234 94.2102C63.5316 94.7256 86.0321 94.3966 108.525 93.2231C110.605 93.1148 112.971 92.852 114.195 91.1613C115.697 89.0994 114.453 85.9732 112.303 84.5944C110.154 83.2155 107.46 83.0995 104.909 83.0299L81.0382 82.3599C78.5099 82.2903 75.1723 81.6073 72.711 82.4243C70.1311 83.2928 68.5487 86.0325 66.1364 87.2258Z" fill="url(#paint0_linear)"/>
<path d="M61.9869 56.2546L58.4071 89.8881L59.8375 89.7695L65.0874 56.85L67.5307 46.9506L73.3167 47.1903L74.211 85.1175H75.9996L75.9094 46.9223H79.6671L84.1103 90.2463L85.9582 90.0659L82.2598 43.7316L68.7832 39.6776L61.389 46.7135L61.9869 56.2546Z" fill="#DDDDDD"/>
<path d="M61.0901 56.2546L57.5128 89.8881L58.9432 89.7695L64.1931 56.85L66.6364 46.9506L72.4224 47.1903L73.3167 85.1175H75.1053L75.0151 46.9223H78.7728L83.216 90.2463L85.0639 90.0659L81.3655 43.7316L67.8889 39.6776L60.4947 46.7135L61.0901 56.2546Z" fill="#DDDDDD"/>
<path d="M61.0901 56.2546L57.5128 89.8881L58.9432 89.7695L64.1931 56.85L66.6364 46.9506L72.4224 47.1903L73.3167 85.1175H75.1053L75.0151 46.9223H78.7728L83.216 90.2463L85.0639 90.0659L81.3655 43.7316L67.8889 39.6776L60.4947 46.7135L61.0901 56.2546Z" fill="url(#paint1_linear)"/>
<path d="M86.9118 56.85H55.7834L59.7189 4.96936H90.8473L86.9118 56.85Z" fill="#CACCCC"/>
<path d="M86.1077 56.85H54.9793L58.9148 4.96936H90.0432L86.1077 56.85Z" fill="white"/>
<path opacity="0.18" d="M78.9455 36.9869C78.9109 38.7121 78.3678 40.3888 77.3842 41.8065C76.4006 43.2243 75.0203 44.3201 73.4164 44.9566C71.8125 45.593 70.0564 45.7417 68.3683 45.3841C66.6802 45.0265 65.1352 44.1784 63.9272 42.9462C62.7192 41.714 61.9018 40.1526 61.5777 38.4577C61.2535 36.7629 61.437 35.01 62.1051 33.4191C62.7732 31.8281 63.8961 30.4697 65.3331 29.5144C66.7701 28.559 68.4571 28.0492 70.1827 28.0489C70.4791 28.0489 70.7703 28.0669 71.059 28.0953L70.1853 36.8065L78.9455 36.9869Z" fill="#DDDDDD"/>
<path d="M88.7906 37.0642L81.6335 32.621C81.2013 32.6286 80.7797 32.4866 80.4402 32.2189C79.9402 31.8555 79.3397 31.7035 78.832 31.3504C78.0047 30.7782 77.7238 29.7035 77.5021 28.7241C77.4484 28.5394 77.4301 28.3461 77.448 28.1546C77.4585 28.0591 77.4954 27.9685 77.5546 27.8929C77.6138 27.8173 77.6929 27.7598 77.7831 27.7267C77.8956 27.7164 78.0091 27.7283 78.117 27.7619C78.225 27.7956 78.3252 27.8502 78.4119 27.9226C79.1181 28.3453 79.9377 28.5283 80.7315 28.6958C80.7808 28.7127 80.8342 28.7127 80.8835 28.6958C80.9789 28.6494 80.966 28.5076 80.917 28.4123C80.8681 28.3169 80.7959 28.2164 80.8242 28.1107C80.8455 28.0596 80.8848 28.0179 80.9346 27.9937C80.9845 27.9695 81.0415 27.9644 81.0949 27.9793C81.2021 28.013 81.2966 28.0786 81.3655 28.1674C81.7469 28.5798 81.9557 29.1288 82.2624 29.5901C82.4969 29.9672 82.7036 30.3608 82.8809 30.7679L89.8138 34.6596C89.8138 34.6596 91.8472 37.7085 88.7906 37.0642Z" fill="url(#paint2_linear)"/>
<path d="M97.3317 26.2139L90.7493 34.6235L82.9376 30.4999L82.2443 32.9405C82.2443 32.9405 89.8859 38.5771 90.8911 38.5771C92.4993 38.5771 95.556 35.742 95.556 35.742L97.3317 26.2139Z" fill="#DDDDDD"/>
<path d="M97.3317 26.2397L90.7494 34.6519L89.319 35.0849V37.7085C89.319 37.7085 91.02 38.6338 91.9581 38.2755C92.8962 37.9173 95.5431 35.7756 95.5431 35.7756L97.3317 26.2397Z" fill="url(#paint3_linear)"/>
<path d="M109.468 34.3787L105.973 31.5256C105.973 31.5256 103.607 37.4534 104.36 39.9404C104.744 41.211 105.265 42.845 105.685 44.1337C106.084 45.3708 106.391 46.2908 106.391 46.2908L96.1307 49.1258C96.1307 49.1258 97.5972 39.8245 94.891 35.7678C94.0251 34.4792 92.5225 33.3246 93.2751 31.8607C94.0276 30.3968 97.0869 25.4175 99.0327 25.3634C99.0327 25.3634 100.713 26.2422 101.486 24.8891C101.486 24.8891 103.78 25.3788 104.868 25.8118C105.955 26.2448 111.053 29.8684 112.401 31.7395C113.749 33.6106 109.468 34.3787 109.468 34.3787Z" fill="#DDDDDD"/>
<path opacity="0.69" d="M101.865 26.8118C101.606 27.2591 101.23 27.6272 100.778 27.8763C100.326 28.124 99.8514 28.326 99.36 28.4793C100.211 27.4871 101.061 26.4381 101.422 25.183C101.453 25.0773 101.489 24.9588 101.587 24.9253C101.649 24.9072 101.715 24.9072 101.778 24.9253C102.35 25 102.525 25.0309 102.363 25.5412C102.234 25.9784 102.067 26.4035 101.865 26.8118V26.8118Z" fill="url(#paint4_linear)"/>
<path d="M104.36 39.9404C104.744 41.211 105.265 42.845 105.685 44.1337L104.205 45.1646C104.205 45.1646 101.819 45.3424 101.582 45.4635C101.345 45.5847 101.342 43.2548 102.355 42.8863C103.368 42.5177 102.716 38.0565 102.716 38.0565C102.716 38.0565 102.417 33.2859 103.012 32.0926C103.607 30.8994 105.074 30.7215 105.074 30.7215L105.979 31.5153C105.979 31.5153 103.607 37.4611 104.36 39.9404Z" fill="url(#paint5_linear)"/>
<path d="M96.0663 47.7883C95.7957 48.2857 94.7441 50.3475 95.0173 50.8424C95.3936 51.5176 96.306 51.7135 97.0585 51.5949C99.4528 51.2212 100.909 48.6749 103.164 47.7909C104.002 47.4635 105.076 47.2419 105.344 46.3837C105.378 46.1793 105.442 45.9811 105.535 45.796C105.646 45.6414 105.834 45.5512 105.94 45.3914C106.065 45.1885 106.109 44.9452 106.061 44.7114C106.013 44.4776 105.877 44.2709 105.682 44.1337C104.352 45.1646 103.02 44.9971 101.43 45.5203C99.5957 46.1623 97.8044 46.9199 96.0663 47.7883V47.7883Z" fill="#F2FDFF"/>
<path d="M96.1255 19.482C96.0018 20.0542 96.0379 20.6573 95.8498 21.2114C95.6561 21.7481 95.2946 22.2081 94.8189 22.5232C94.7596 22.5645 94.69 22.616 94.69 22.6908C94.6913 22.7197 94.6992 22.7479 94.7132 22.7732C94.8489 23.0581 95.0655 23.2967 95.3359 23.4594C95.6063 23.6221 95.9185 23.7017 96.2338 23.6882C96.327 23.6723 96.4228 23.6803 96.5121 23.7114C96.5792 23.7522 96.6386 23.8045 96.6874 23.866C96.8396 23.9995 97.0245 24.0904 97.2232 24.1293C97.422 24.1683 97.6274 24.1539 97.8188 24.0876C98.196 23.9492 98.5452 23.7441 98.8497 23.482C98.9245 23.4279 99.0044 23.3583 99.0018 23.2655C98.9951 23.2065 98.9709 23.1508 98.9322 23.1057C98.4486 22.4636 98.1284 21.7136 97.9992 20.9202C97.9167 20.2526 98.0379 19.5516 97.8033 18.9202C97.3369 17.6599 96.3111 18.6264 96.1255 19.482Z" fill="#3F3D56"/>
<path d="M96.1255 19.482C96.0018 20.0542 96.0379 20.6573 95.8498 21.2114C95.6561 21.7481 95.2946 22.2081 94.8189 22.5232C94.7596 22.5645 94.69 22.616 94.69 22.6908C94.6913 22.7197 94.6992 22.7479 94.7132 22.7732C94.8489 23.0581 95.0655 23.2967 95.3359 23.4594C95.6063 23.6221 95.9185 23.7017 96.2338 23.6882C96.327 23.6723 96.4228 23.6803 96.5121 23.7114C96.5792 23.7522 96.6386 23.8045 96.6874 23.866C96.8396 23.9995 97.0245 24.0904 97.2232 24.1293C97.422 24.1683 97.6274 24.1539 97.8188 24.0876C98.196 23.9492 98.5452 23.7441 98.8497 23.482C98.9245 23.4279 99.0044 23.3583 99.0018 23.2655C98.9951 23.2065 98.9709 23.1508 98.9322 23.1057C98.4486 22.4636 98.1284 21.7136 97.9992 20.9202C97.9167 20.2526 98.0379 19.5516 97.8033 18.9202C97.3369 17.6599 96.3111 18.6264 96.1255 19.482Z" fill="url(#paint6_linear)"/>
<path d="M101.618 21.8428C101.618 22.0078 101.618 22.1701 101.605 22.3351C101.592 22.6779 101.584 23.0206 101.577 23.366C101.577 23.5232 101.577 23.6804 101.564 23.8376C101.566 24.3665 101.52 24.8944 101.427 25.4149C101.241 26.3151 100.783 27.1364 100.115 27.768C99.7067 28.1293 99.2668 28.4536 98.8008 28.737C98.5441 28.9235 98.256 29.0623 97.9503 29.1468C97.7961 29.1869 97.634 29.184 97.4814 29.1386C97.3288 29.0932 97.1915 29.0069 97.0843 28.8891C96.8523 28.5979 96.9168 28.1675 97.0714 27.8273C97.4322 27.0283 98.1951 26.4871 98.6771 25.7654C98.6771 25.7654 98.6899 25.75 98.6951 25.7397C99.074 25.152 99.1925 24.451 99.3111 23.732C99.4812 22.7011 99.6513 21.7037 100.6 21.1186C100.706 21.0394 100.831 20.9903 100.963 20.9767C101.094 20.9631 101.227 20.9854 101.347 21.0413C101.605 21.1908 101.625 21.5439 101.618 21.8428Z" fill="url(#paint7_linear)"/>
<path d="M101.857 22.5232C101.851 22.8162 101.762 23.1013 101.6 23.3454C101.596 23.3528 101.592 23.3597 101.587 23.366C101.294 23.9618 100.916 24.5122 100.466 25C100.236 25.2465 99.9598 25.4446 99.6526 25.5827C99.3454 25.7208 99.0137 25.7961 98.677 25.8041C98.6758 25.7878 98.6758 25.7714 98.677 25.7551C98.677 25.7551 98.6899 25.7397 98.6951 25.7294C99.0739 25.1417 99.1925 24.4407 99.3111 23.7217C99.5688 23.3531 99.9889 23.1315 100.363 22.8634C100.736 22.5954 101.154 22.3222 101.605 22.348H101.687C101.729 22.3474 101.77 22.361 101.803 22.3866C101.838 22.4238 101.857 22.4726 101.857 22.5232V22.5232Z" fill="url(#paint8_linear)"/>
<path d="M97.141 17.6986C96.574 18.9408 96.8523 20.3892 97.141 21.7243C97.2544 22.2397 97.3807 22.8016 97.7312 23.2114C98.2982 23.8712 99.3342 23.9665 100.131 23.616C101.352 23.0799 102.009 21.7655 102.507 20.5233C102.924 19.4924 103.303 18.4125 103.357 17.2965C103.412 16.1805 103.1 15.0027 102.296 14.2244C101.998 13.9202 101.62 13.7074 101.205 13.611C100.522 13.4692 99.8291 13.745 99.1951 14.0337C98.4219 14.3816 97.6487 14.7862 97.1642 15.4718C96.4039 16.5439 96.5688 17.995 96.7621 19.2965" fill="url(#paint9_linear)"/>
<path d="M98.8446 16.129C98.7263 16.1058 98.6046 16.1058 98.4863 16.129C98.3625 16.1778 98.2533 16.2577 98.1693 16.361C97.5362 17.0904 97.0935 17.9652 96.8807 18.9073C96.7991 19.4104 96.5986 19.8866 96.2957 20.2965C96.2765 20.326 96.2516 20.3513 96.2223 20.3708C96.1931 20.3903 96.1601 20.4036 96.1256 20.4099C96.0276 20.4099 95.9477 20.3403 95.8859 20.2655C94.855 19.0053 94.7648 17.1883 95.239 15.6265C95.3205 15.3463 95.4302 15.0752 95.5663 14.8172C95.9815 14.094 96.6291 13.5327 97.4039 13.2244C98.1768 12.9224 99.0059 12.7914 99.8343 12.8404C100.35 11.9667 101.504 11.6961 102.509 11.8095C103.137 11.8771 103.744 12.0719 104.293 12.3821C104.843 12.6923 105.323 13.1113 105.705 13.6136C106.083 14.1251 106.327 14.7227 106.415 15.3522C106.504 15.9817 106.435 16.6233 106.213 17.2192C106.048 17.6393 105.801 18.0259 105.643 18.4486C105.467 18.9328 105.407 19.452 105.47 19.9635C105.533 20.4751 105.716 20.9646 106.004 21.3918C106.18 21.6699 106.431 21.8924 106.728 22.0336C106.878 22.1008 107.043 22.126 107.206 22.1064C107.369 22.0869 107.524 22.0234 107.654 21.9227C107.547 22.286 107.36 22.6205 107.107 22.9013C106.853 23.1821 106.539 23.4019 106.188 23.5444C105.838 23.6869 105.459 23.7483 105.082 23.7241C104.704 23.6999 104.336 23.5907 104.007 23.4047C103.939 23.353 103.854 23.3298 103.77 23.3402C103.711 23.3677 103.659 23.4093 103.62 23.4614C103.285 23.8119 102.7 23.7191 102.257 23.531C102.138 23.4602 102.001 23.4236 101.863 23.4253C101.749 23.4509 101.642 23.502 101.551 23.5748C101.035 23.9043 100.427 24.0622 99.8162 24.0258C100.476 23.9021 100.961 23.3531 101.363 22.8222C102.017 21.9691 102.2 21.1547 102.473 20.1135C102.747 19.0723 103.061 17.7733 102.381 16.9383C101.935 16.3928 101.344 15.9838 100.677 15.7579C100.35 15.6677 100.19 15.8301 99.9038 15.9641C99.5715 16.1115 99.206 16.1684 98.8446 16.129V16.129Z" fill="#3F3D56"/>
<path d="M107.664 21.915C107.559 22.2801 107.372 22.6165 107.117 22.899C106.863 23.1815 106.548 23.4027 106.196 23.546C105.845 23.6894 105.465 23.7512 105.085 23.7267C104.706 23.7022 104.337 23.5921 104.007 23.4046C103.974 23.3781 103.936 23.3585 103.895 23.3469C103.854 23.3354 103.812 23.3323 103.77 23.3376C103.71 23.3635 103.658 23.4054 103.62 23.4588C103.283 23.8067 102.698 23.7294 102.257 23.5284C102.138 23.4576 102.001 23.421 101.863 23.4227C101.749 23.4481 101.643 23.4983 101.551 23.5696C101.036 23.9014 100.428 24.0603 99.8163 24.0232C100.476 23.8995 100.961 23.3505 101.363 22.8196C102.02 21.9639 102.205 21.1521 102.473 20.1109C102.741 19.0697 103.061 17.7707 102.386 16.9357C101.939 16.3898 101.348 15.9807 100.68 15.7553C100.545 15.7143 100.4 15.7216 100.27 15.7759C100.156 15.8197 100.048 15.8945 99.9039 15.9615C99.5685 16.1076 99.2002 16.1619 98.8369 16.1187C98.7196 16.0942 98.5985 16.0942 98.4812 16.1187C98.3563 16.1668 98.2468 16.2479 98.1642 16.3532C97.7781 16.7543 97.44 17.1988 97.1565 17.6779C96.9529 18.0191 96.8001 18.3881 96.7029 18.7733C96.5715 19.2887 96.6385 19.8764 96.2957 20.2861C96.2763 20.3159 96.2509 20.3414 96.2212 20.3609C96.1915 20.3804 96.1581 20.3936 96.123 20.3995C96.0277 20.3995 95.9478 20.33 95.8859 20.2552C94.855 18.9949 94.7648 17.1779 95.2416 15.6161C95.3214 15.3353 95.4293 15.0633 95.5638 14.8043C95.9807 14.0822 96.629 13.5219 97.4039 13.2141C98.1768 12.9121 99.0059 12.7811 99.8343 12.8301C100.35 11.9564 101.504 11.6858 102.51 11.7992C103.137 11.8667 103.744 12.0616 104.293 12.3718C104.843 12.682 105.323 13.101 105.705 13.6033C106.084 14.1164 106.328 14.7157 106.417 15.347C106.505 15.9783 106.435 16.6217 106.213 17.2192C106.048 17.6367 105.803 18.0233 105.646 18.446C105.469 18.9301 105.409 19.4494 105.472 19.9611C105.535 20.4728 105.718 20.9622 106.007 21.3892C106.182 21.668 106.433 21.8907 106.731 22.031C106.882 22.099 107.049 22.1241 107.214 22.1037C107.378 22.0832 107.534 22.018 107.664 21.915V21.915Z" fill="url(#paint10_linear)"/>
<path d="M112.316 32.8787C112.347 32.8942 111.489 34.9998 111.44 35.1235L108.775 41.9456L107.783 44.4894C107.708 44.6827 107.602 44.8837 107.548 45.0821C107.27 46.095 107.45 47.1053 106.85 48.0538C106.665 48.3863 106.365 48.6401 106.007 48.7677C105.826 48.8235 105.632 48.8147 105.457 48.7427C105.282 48.6708 105.137 48.5402 105.048 48.3733C104.917 48.0589 105.048 47.7007 105.182 47.3811C105.339 46.9733 105.469 46.5558 105.571 46.1311C105.585 46.0762 105.585 46.0185 105.571 45.9636C105.52 45.7806 105.249 45.8115 105.087 45.7058C105.008 45.6427 104.954 45.5542 104.933 45.4555C104.912 45.3568 104.927 45.254 104.973 45.1646C105.073 44.9898 105.2 44.8323 105.35 44.6981C105.96 44.0435 106.087 43.2265 106.288 42.394C106.504 41.4868 106.725 40.5805 106.95 39.675C107.272 38.3658 107.6 37.0539 107.95 35.7498C108.107 35.1648 108.208 34.1674 108.597 33.6751C108.96 33.237 110.886 32.1674 112.316 32.8787Z" fill="url(#paint11_linear)"/>
<path d="M90.2648 87.0814C90.022 87.2382 89.8346 87.4671 89.7287 87.736C89.6795 87.8706 89.6758 88.0176 89.7182 88.1545C89.7605 88.2913 89.8466 88.4105 89.9633 88.4938C90.0993 88.5617 90.2493 88.597 90.4014 88.5969C91.556 88.6781 92.7153 88.6651 93.8678 88.5582C94.132 88.5466 94.3928 88.4945 94.641 88.4036C94.8103 88.3256 94.9717 88.2315 95.123 88.1226C95.3686 88.0279 95.5701 87.8448 95.6878 87.6093C95.8056 87.3738 95.8312 87.1028 95.7596 86.8495L95.5843 85.5325C95.5822 85.417 95.5383 85.3062 95.4606 85.2206C95.376 85.1626 95.2744 85.1345 95.172 85.1407C94.1823 85.0943 93.641 85.0918 92.8524 85.6562C92.0638 86.2206 91.0612 86.4938 90.2648 87.0814Z" fill="#DDDDDD"/>
<path d="M106.664 87.8572C106.423 88.0143 106.235 88.242 106.128 88.5092C106.079 88.6442 106.075 88.7916 106.117 88.9289C106.159 89.0662 106.246 89.1859 106.362 89.2695C106.499 89.3357 106.649 89.3709 106.801 89.3726C107.955 89.4525 109.114 89.4396 110.267 89.3339C110.531 89.3224 110.792 89.2702 111.04 89.1793C111.21 89.1014 111.372 89.0064 111.522 88.8958C111.803 88.7474 112.026 88.5086 112.154 88.218C112.195 88.0226 112.195 87.8207 112.154 87.6252L111.978 86.3082C111.977 86.1926 111.933 86.0817 111.855 85.9964C111.77 85.9384 111.668 85.9103 111.566 85.9165C110.576 85.8675 110.035 85.8649 109.246 86.4319C108.458 86.9989 107.46 87.2696 106.664 87.8572Z" fill="#DDDDDD"/>
<path d="M106.664 87.8572C106.423 88.0143 106.235 88.242 106.128 88.5092C106.079 88.6442 106.075 88.7916 106.117 88.9289C106.159 89.0662 106.246 89.1859 106.362 89.2695C106.499 89.3357 106.649 89.3709 106.801 89.3726C107.955 89.4525 109.114 89.4396 110.267 89.3339C110.531 89.3224 110.792 89.2702 111.04 89.1793C111.21 89.1014 111.372 89.0064 111.522 88.8958C111.803 88.7474 112.026 88.5086 112.154 88.218C112.195 88.0226 112.195 87.8207 112.154 87.6252L111.978 86.3082C111.977 86.1926 111.933 86.0817 111.855 85.9964C111.77 85.9384 111.668 85.9103 111.566 85.9165C110.576 85.8675 110.035 85.8649 109.246 86.4319C108.458 86.9989 107.46 87.2696 106.664 87.8572Z" fill="url(#paint12_linear)"/>
<path d="M90.2648 87.0814C90.022 87.2382 89.8346 87.4671 89.7287 87.736C89.6795 87.8706 89.6758 88.0176 89.7182 88.1545C89.7605 88.2913 89.8466 88.4105 89.9633 88.4938C90.0993 88.5617 90.2493 88.597 90.4014 88.5969C91.556 88.6781 92.7153 88.6651 93.8678 88.5582C94.132 88.5466 94.3928 88.4945 94.641 88.4036C94.8103 88.3256 94.9717 88.2315 95.123 88.1226C95.3686 88.0279 95.5701 87.8448 95.6878 87.6093C95.8056 87.3738 95.8312 87.1028 95.7596 86.8495L95.5843 85.5325C95.5822 85.417 95.5383 85.3062 95.4606 85.2206C95.376 85.1626 95.2744 85.1345 95.172 85.1407C94.1823 85.0943 93.641 85.0918 92.8524 85.6562C92.0638 86.2206 91.0612 86.4938 90.2648 87.0814Z" fill="url(#paint13_linear)"/>
<path d="M75.4635 0.317359L75.2857 4.96934L74.7084 4.93584L71.8862 4.79151L72.2367 0.216845L72.2419 0.139526L75.4635 0.317359Z" fill="#DDDDDD"/>
<path d="M74.881 0.361185L74.7084 4.93585L71.8862 4.79152L72.2367 0.216858L74.881 0.361185Z" fill="url(#paint14_linear)"/>
<path d="M100.285 15.7862C100.172 15.83 100.064 15.9047 99.9193 15.9717C99.5839 16.1179 99.2156 16.1721 98.8523 16.129C98.735 16.1044 98.6139 16.1044 98.4967 16.129C98.3718 16.1771 98.2622 16.2581 98.1797 16.3635C97.7936 16.7645 97.4554 17.2091 97.1719 17.6882H97.1487C97.1487 17.6882 97.2106 15.6728 98.2621 15.0001C99.3137 14.3274 100.272 15.6728 100.272 15.6728L100.285 15.7862Z" fill="url(#paint15_linear)"/>
<path opacity="0.69" d="M94.6153 32.7215C94.7651 32.4158 94.954 32.1308 95.1771 31.8736L96.2647 30.5154C96.4565 30.3074 96.5992 30.059 96.6823 29.7886C96.7596 29.451 96.6462 29.1056 96.6436 28.7577C96.6436 28.0257 97.1101 27.3685 97.6745 26.9072C97.7364 26.8582 98.7647 25.6366 98.7956 25.5644C98.8833 25.3531 98.1668 25.6959 97.9683 25.8221C96.9168 26.4252 96.605 26.9845 96.1797 27.5C94.739 29.2422 93.989 30.3813 93.2287 32.5102C93.153 32.7028 93.1094 32.9065 93.0999 33.1133C93.0999 33.5334 93.556 34.4328 94.0715 34.4019C94.5509 34.3761 94.4658 33.0926 94.6153 32.7215Z" fill="url(#paint16_linear)"/>
<path opacity="0.18" d="M84.3706 13.0053H64.0951C63.9463 13.0098 63.7983 12.9814 63.6617 12.9221C63.5251 12.8629 63.4032 12.7742 63.3048 12.6625C63.2063 12.5508 63.1337 12.4187 63.0922 12.2757C63.0506 12.1327 63.041 11.9823 63.0642 11.8353V11.8353C63.1145 11.5134 63.2768 11.2196 63.5224 11.0055C63.768 10.7915 64.0813 10.671 64.407 10.6652H84.6824C84.8313 10.6607 84.9793 10.6891 85.1159 10.7484C85.2525 10.8076 85.3744 10.8963 85.4728 11.008C85.5712 11.1197 85.6438 11.2518 85.6854 11.3948C85.727 11.5378 85.7365 11.6882 85.7133 11.8353V11.8353C85.663 12.1571 85.5008 12.4509 85.2552 12.665C85.0096 12.879 84.6963 12.9995 84.3706 13.0053V13.0053Z" fill="#DDDDDD"/>
<path opacity="0.18" d="M83.7211 18.0104H63.4457C63.2967 18.0145 63.1487 17.9857 63.0121 17.9262C62.8755 17.8666 62.7537 17.7777 62.6553 17.6658C62.5569 17.5539 62.4843 17.4217 62.4428 17.2786C62.4012 17.1355 62.3916 16.985 62.4148 16.8377V16.8377C62.4656 16.5161 62.6279 16.2225 62.8734 16.0086C63.119 15.7947 63.4319 15.674 63.7575 15.6677H84.033C84.1817 15.6636 84.3294 15.6924 84.4658 15.7518C84.6022 15.8112 84.7239 15.8998 84.8222 16.0114C84.9206 16.1231 84.9932 16.2549 85.035 16.3977C85.0767 16.5405 85.0866 16.6907 85.0639 16.8377C85.0136 17.1599 84.8515 17.454 84.6059 17.6685C84.3604 17.8829 84.0471 18.004 83.7211 18.0104V18.0104Z" fill="#DDDDDD"/>
<path opacity="0.18" d="M83.0613 23.1005H62.7859C62.6372 23.1045 62.4894 23.0758 62.353 23.0164C62.2167 22.957 62.095 22.8683 61.9966 22.7567C61.8983 22.6451 61.8257 22.5132 61.7839 22.3705C61.7422 22.2277 61.7323 22.0775 61.755 21.9304V21.9304C61.8059 21.6083 61.9686 21.3145 62.2147 21.1005C62.4607 20.8865 62.7743 20.7661 63.1003 20.7603H83.3758C83.5245 20.7563 83.6723 20.7851 83.8086 20.8445C83.945 20.9039 84.0667 20.9925 84.165 21.1041C84.2634 21.2158 84.336 21.3476 84.3778 21.4904C84.4195 21.6332 84.4294 21.7834 84.4067 21.9304V21.9304C84.3558 22.2525 84.1931 22.5464 83.947 22.7604C83.701 22.9744 83.3874 23.0948 83.0613 23.1005V23.1005Z" fill="#DDDDDD"/>
<path opacity="0.47" d="M79.7264 36.1596C79.7302 36.2162 79.7302 36.273 79.7264 36.3297L70.9636 36.1596L71.8399 27.4381C74.0018 27.6553 76.0059 28.6681 77.4632 30.2797C78.9205 31.8913 79.727 33.9868 79.7264 36.1596V36.1596Z" fill="#DDDDDD"/>
<path d="M36.057 83.8521L36.3147 86.4577C36.3147 86.4577 35.3147 87.968 34.0132 88.0659C32.7117 88.1639 32.2658 87.5376 32.2658 87.5376L32.4797 83.7026" fill="url(#paint17_linear)"/>
<path d="M17.9078 84.1279L17.6501 86.8057C17.6501 86.8057 18.681 88.352 20.0134 88.4551C21.3459 88.5582 21.8175 87.9139 21.8175 87.9139L21.5907 83.9707" fill="url(#paint18_linear)"/>
<path d="M21.1139 25.5928C21.1139 25.5928 15.9362 28.0927 15.8176 28.9123C15.6991 29.7319 16.4052 49.8939 16.4052 49.8939C16.4052 49.8939 18.0856 52.0743 23.2324 52.0743C28.5081 52.0743 30.1911 50.6001 30.1009 49.863C29.8096 47.3115 31.1756 29.0695 31.0596 28.2139C30.9436 27.3582 26.1628 25.6082 26.1628 25.6082L21.1139 25.5928Z" fill="#DDDDDD"/>
<path d="M24.3355 38.3864C24.3355 38.3864 18.0985 39.5049 17.7119 39.1158C17.364 38.7678 15.864 28.603 15.8176 28.9123C15.7351 29.5025 16.0753 39.1828 16.2712 44.577C19.4722 43.6079 26.1731 40.2111 26.1731 40.2111C25.6768 39.496 25.0541 38.8776 24.3355 38.3864V38.3864Z" fill="url(#paint19_linear)"/>
<path d="M21.9361 38.4585C22.3865 38.1179 22.8564 37.8038 23.3433 37.5178C23.8871 37.2291 26.3484 36.9766 26.7891 37.1132C27.2298 37.2497 27.0468 37.4997 26.5133 37.6003C25.9798 37.7008 25.5417 37.5874 25.4283 37.9044C25.3149 38.2214 26.0108 38.8683 25.9644 39.4198C25.918 39.9713 25.9334 39.9353 24.6757 40.3631C23.418 40.7909 22.2299 41.376 21.9077 40.4018C21.5856 39.4275 21.5031 38.6105 21.9361 38.4585Z" fill="url(#paint20_linear)"/>
<path d="M21.1319 22.4613C21.1319 22.4613 21.0933 24.2654 21.1139 25.5927C21.1294 26.5773 21.467 28.4715 23.5675 28.4715C25.6679 28.4715 25.9102 26.0592 25.8741 25.5927C25.8484 25.2551 26.0107 24.5618 25.8741 23.4897C25.735 22.3402 21.2479 21.6598 21.1319 22.4613Z" fill="url(#paint21_linear)"/>
<path d="M21.101 25.4252C20.9503 25.3642 20.7822 25.3613 20.6294 25.4169C20.4766 25.4726 20.3499 25.583 20.2737 25.7268C19.9567 26.2551 19.9387 27.3144 20.2737 28.7576C20.6088 30.2009 20.8897 30.5617 20.8897 30.5617C20.8897 30.5617 22.266 28.6159 23.2324 28.536C23.2247 28.5592 21.3278 28.1726 21.101 25.4252Z" fill="#F2FDFF"/>
<path d="M25.8896 25.4252C26.0407 25.3641 26.2092 25.361 26.3624 25.4167C26.5156 25.4724 26.6428 25.5828 26.7195 25.7268C27.0339 26.2551 27.0519 27.3144 26.7195 28.7576C26.387 30.2009 26.1009 30.5617 26.1009 30.5617C26.1009 30.5617 24.7247 28.6159 23.7582 28.536C23.7582 28.5592 25.6654 28.1726 25.8896 25.4252Z" fill="#F2FDFF"/>
<path d="M16.4052 49.8939C16.4052 49.8939 16.0212 52.881 16.7557 65.0199C17.4413 76.3265 17.6371 84.2464 17.6371 84.2464C17.6371 84.2464 17.7119 85.1691 19.6603 85.1975C21.6087 85.2258 22.1216 83.9372 22.1216 83.9372L24.0262 54.9376L31.9591 84.5325C31.9591 84.5325 34.2967 85.8779 36.1214 84.8676C37.41 84.1511 30.1009 49.863 30.1009 49.863C30.1009 49.863 23.8484 53.3011 16.4052 49.8939Z" fill="#3F3D56"/>
<path d="M16.7815 27.9742C16.0445 28.477 15.4081 29.1134 14.9053 29.8504C14.0857 31.0617 12.7326 41.2239 13.3589 43.9765C13.6166 45.1388 23.2067 40.7935 23.2067 40.7935C23.2067 40.7935 22.9824 38.8451 21.967 38.1802C21.967 38.1802 17.266 39.1905 16.9155 38.8374C16.565 38.4843 16.7815 27.9742 16.7815 27.9742Z" fill="#DDDDDD"/>
<path d="M27.4746 16.0852C27.4746 16.0852 26.9592 17.6934 27.4386 18.4588C29.2427 21.2939 28.2117 21 27.5416 21.0619C27.4592 21.0619 27.5777 21.6057 27.3329 22.6443C27.1396 23.4639 27.7169 25.3324 25.1912 24.549C24.4695 24.3247 20.9644 23.3402 20.717 21.1676C20.4052 18.4563 18.7402 15.0182 22.0237 13.8739C25.9618 12.4976 27.2453 13.5646 27.4746 16.0852Z" fill="url(#paint22_linear)"/>
<path d="M25.9205 24.7165C25.9205 24.7165 23.3613 23.7706 22.2041 23.2423C22.2041 23.2423 24.6139 25.5309 25.8561 25.5129L25.9205 24.7165Z" fill="#B6765E"/>
<path d="M31.0596 28.2087C31.0596 28.2087 34.008 41.2523 34.1884 42.9327C34.3688 44.613 32.222 45.4507 31.2606 45.1775C29.1292 44.577 29.4565 40.9327 29.4565 40.9327L31.0596 28.2087Z" fill="#DDDDDD"/>
<path d="M34.1189 42.4533L37.1137 52.1258L35.0802 53.5717C35.0802 53.5717 30.7426 47.3991 30.3999 45.5692C30.0571 43.7394 29.9334 41.2162 31.7426 41.2626" fill="#DDDDDD"/>
<path d="M37.9616 54.4685C37.8018 54.0485 37.575 53.6387 37.4461 53.2031C37.3714 52.9454 37.3817 52.6645 37.1884 52.4299C36.593 51.7057 35.5338 52.1722 35.2683 52.9273C35.1225 53.4398 35.1617 53.9873 35.3792 54.4737C35.5724 54.9634 35.8559 55.4093 36.0879 55.8809C36.3442 56.3422 36.4723 56.8636 36.459 57.3912C36.4116 57.6545 36.3806 57.9204 36.3662 58.1876C36.3627 58.2737 36.3871 58.3587 36.4358 58.4298C36.575 58.5999 36.8508 58.4994 37.026 58.368C38.2013 57.4994 38.4513 55.752 37.9616 54.4685Z" fill="url(#paint23_linear)"/>
<path d="M35.0544 53.9015L34.459 53.0124L36.8997 51.4325L37.5801 52.3964L35.0544 53.9015Z" fill="#F2FDFF"/>
<path d="M22.3974 37.6338L23.5443 40.9327L22.5701 41.4687C22.5701 41.4687 21.0598 38.4276 20.9877 38.2781C20.9155 38.1286 22.3974 37.6338 22.3974 37.6338Z" fill="#F2FDFF"/>
<path d="M29.1782 33.255L28.7994 43.4043L30.173 44.8347L29.1782 33.255Z" fill="url(#paint24_linear)"/>
<path d="M21.936 28.9072C21.936 28.9072 23.2788 32.5153 23.4334 32.8091C23.5881 33.103 24.7221 29.0463 24.7221 29.0463C24.7221 29.0463 25.1731 28.3891 23.3432 28.4639C22.8399 28.4644 22.3488 28.6191 21.936 28.9072V28.9072Z" fill="#F2FDFF"/>
<path d="M30.0854 49.6929C30.0854 49.6929 26.1808 50.7547 24.3252 50.6877C22.4696 50.6207 16.3872 49.399 16.3872 49.399C16.3872 49.399 15.7119 52.0124 16.0676 52.2702C16.4233 52.5279 18.2402 52.3681 20.8175 52.466C23.3948 52.564 24.9644 53.7547 27.021 53.7005C29.0777 53.6464 30.3122 50.8655 30.3122 50.8655L30.0854 49.6929Z" fill="#F2FDFF"/>
<path d="M17.8562 86.1923C17.6835 86.0737 15.8975 87.2361 14.9284 87.9062C14.413 88.2541 13.8666 88.6948 13.8537 89.3082C13.8632 89.5368 13.9334 89.7587 14.057 89.9512C14.1807 90.1437 14.3533 90.2999 14.5573 90.4035C14.9687 90.6042 15.4191 90.7124 15.8769 90.7205C17.3634 90.7911 18.8528 90.6672 20.3072 90.352C21.2324 90.1716 22.302 89.8211 22.5778 88.919C22.6807 88.4472 22.6404 87.9554 22.4618 87.5067C22.3097 87.0221 22.003 86.1227 21.717 86.4216C21.2247 86.9371 19.6758 87.4448 17.8562 86.1923Z" fill="#DDDDDD"/>
<path d="M36.2167 85.9242C37.3533 86.2335 38.1445 86.8778 39.1136 87.5479C39.629 87.8958 40.1754 88.3391 40.1883 88.9499C40.1786 89.1788 40.108 89.4009 39.9839 89.5935C39.8598 89.786 39.6866 89.9419 39.4821 90.0453C39.0741 90.2451 38.6272 90.3533 38.1729 90.3623C36.6863 90.4342 35.1968 90.3102 33.7426 89.9937C32.8173 89.8133 31.7477 89.4628 31.472 88.5608C31.369 88.089 31.4094 87.5971 31.588 87.1484C31.7096 86.7232 31.961 86.3466 32.307 86.0711C32.307 86.0711 33.4281 86.9603 34.1652 86.9964C34.7451 87.0247 36.2167 85.9242 36.2167 85.9242Z" fill="#DDDDDD"/>
<path d="M17.8562 86.1923C17.6835 86.0737 15.8975 87.2361 14.9284 87.9062C14.413 88.2541 13.8666 88.6948 13.8537 89.3082C13.8632 89.5368 13.9334 89.7587 14.057 89.9512C14.1807 90.1437 14.3533 90.2999 14.5573 90.4035C14.9687 90.6042 15.4191 90.7124 15.8769 90.7205C17.3634 90.7911 18.8528 90.6672 20.3072 90.352C21.2324 90.1716 22.302 89.8211 22.5778 88.919C22.6807 88.4472 22.6404 87.9554 22.4618 87.5067C22.3097 87.0221 22.003 86.1227 21.717 86.4216C21.2247 86.9371 19.6758 87.4448 17.8562 86.1923Z" fill="url(#paint25_linear)"/>
<path d="M36.2167 85.9242C37.3533 86.2335 38.1445 86.8778 39.1136 87.5479C39.629 87.8958 40.1754 88.3391 40.1883 88.9499C40.1786 89.1788 40.108 89.4009 39.9839 89.5935C39.8598 89.786 39.6866 89.9419 39.4821 90.0453C39.0741 90.2451 38.6272 90.3533 38.1729 90.3623C36.6863 90.4342 35.1968 90.3102 33.7426 89.9937C32.8173 89.8133 31.7477 89.4628 31.472 88.5608C31.369 88.089 31.4094 87.5971 31.588 87.1484C31.7096 86.7232 31.961 86.3466 32.307 86.0711C32.307 86.0711 33.4281 86.9603 34.1652 86.9964C34.7451 87.0247 36.2167 85.9242 36.2167 85.9242Z" fill="url(#paint26_linear)"/>
<path d="M25.0571 15.8326C25.8303 15.446 26.6808 15.2733 27.4669 14.9331C27.6871 14.8546 27.8832 14.7205 28.0364 14.544C28.168 14.3494 28.2364 14.119 28.2323 13.8842C28.271 12.8533 27.6215 11.8997 26.7633 11.3456C25.905 10.7914 24.8612 10.5878 23.8406 10.5208C22.8014 10.4183 21.7526 10.5541 20.7737 10.9177C20.0035 11.2449 19.332 11.7675 18.8258 12.4337C18.3195 13.1 17.996 13.8869 17.8871 14.7166C17.8046 15.4022 17.9309 16.2063 18.5134 16.58C18.2864 16.8508 18.1276 17.1721 18.0505 17.517C17.9733 17.8619 17.9801 18.2202 18.0701 18.5619C18.2589 19.2451 18.6337 19.8625 19.1526 20.3454C19.458 20.605 19.7314 20.9 19.967 21.2243C20.2814 21.7397 20.3536 22.4175 20.8252 22.7887C20.9083 22.8569 21.0078 22.9022 21.1139 22.9201C21.5211 22.9665 21.7195 22.4407 21.7762 22.0309L21.9206 20.9846C21.947 20.8666 21.9408 20.7436 21.9025 20.6289C21.8123 20.4279 21.5546 20.3712 21.3871 20.2397C21.173 20.0325 21.0497 19.749 21.0443 19.4511C20.978 19.1614 21.027 18.8574 21.1809 18.6032C21.2935 18.4794 21.442 18.3939 21.6056 18.3588C21.7692 18.3236 21.9398 18.3406 22.0932 18.4073C22.3968 18.5497 22.6443 18.7891 22.7968 19.0877C23.235 19.8609 23.4412 17.7991 23.5133 17.5413C23.7195 16.7888 24.3741 16.1883 25.0571 15.8326Z" fill="#3F3D56"/>
<path d="M98.0353 28.8865C97.9812 28.9148 97.9168 28.9535 97.9142 29.0179C97.9142 29.1313 98.0843 29.1365 98.19 29.0953C98.6873 28.9046 99.169 28.6753 99.6306 28.4097C99.7492 28.3427 99.8884 28.2705 100.015 28.3375C100.09 28.3947 100.145 28.4741 100.172 28.5643C100.318 28.8824 100.554 29.151 100.85 29.3375L101.409 27.9252C101.562 27.5809 101.672 27.219 101.736 26.8479C101.767 26.5902 101.754 26.3324 101.801 26.0927C101.87 25.8568 101.913 25.6139 101.93 25.3685C101.868 23.9098 100.288 26.2809 100.084 26.5953C99.5327 27.4587 98.9734 28.3917 98.0353 28.8865Z" fill="#F2FDFF"/>
<path d="M98.4065 26.1546C98.1611 26.6257 97.9642 27.1205 97.8188 27.6314C97.6757 28.1463 97.691 28.6923 97.8627 29.1984C97.4572 29.1717 97.0786 28.9866 96.8085 28.6829C96.6201 28.9598 96.4798 29.2665 96.3936 29.5901C96.2647 28.8814 96.1591 28.0721 96.6049 27.5051C96.7905 27.268 97.0534 27.103 97.2441 26.8711C97.3859 26.6984 97.4838 26.4974 97.6101 26.3144C97.88 25.9288 98.246 25.6205 98.6719 25.4201C98.6423 25.6824 98.5513 25.934 98.4065 26.1546V26.1546Z" fill="#F2FDFF"/>
<path d="M108.471 32.7576L106.025 43.1363L108.53 44.2084L112.525 32.4019" fill="#DDDDDD"/>
<path d="M105.966 42.9868L105.788 43.5899L108.203 44.7522L108.381 44.1259L105.966 42.9868Z" fill="white"/>
<path d="M82.9479 30.4922L82.7082 30.3427L81.7985 32.7138L82.6773 33.206L83.2314 30.6417L82.9479 30.4922Z" fill="white"/>
<defs>
<linearGradient id="paint0_linear" x1="56.0644" y1="28.8349" x2="58.4819" y2="122.491" gradientUnits="userSpaceOnUse">
<stop offset="0.01"/>
<stop offset="0.13" stop-opacity="0.69"/>
<stop offset="1" stop-opacity="0"/>
</linearGradient>
<linearGradient id="paint1_linear" x1="72.4636" y1="70.3755" x2="74.729" y2="32.5669" gradientUnits="userSpaceOnUse">
<stop stop-opacity="0"/>
<stop offset="0.99"/>
</linearGradient>
<linearGradient id="paint2_linear" x1="77.4351" y1="32.4303" x2="90.4787" y2="32.4303" gradientUnits="userSpaceOnUse">
<stop stop-color="#ECC4D7"/>
<stop offset="0.42" stop-color="#EFD4D1"/>
<stop offset="1" stop-color="#F2EAC9"/>
</linearGradient>
<linearGradient id="paint3_linear" x1="3540.01" y1="3212.63" x2="3777.97" y2="3337.47" gradientUnits="userSpaceOnUse">
<stop stop-opacity="0"/>
<stop offset="0.99"/>
</linearGradient>
<linearGradient id="paint4_linear" x1="99.1152" y1="27.0541" x2="103.61" y2="25.8686" gradientUnits="userSpaceOnUse">
<stop offset="0.02" stop-color="white" stop-opacity="0"/>
<stop offset="0.58" stop-color="white" stop-opacity="0.39"/>
<stop offset="0.68" stop-color="white" stop-opacity="0.68"/>
<stop offset="1" stop-color="white"/>
</linearGradient>
<linearGradient id="paint5_linear" x1="2129.88" y1="4204.3" x2="2644.18" y2="4204.3" gradientUnits="userSpaceOnUse">
<stop stop-opacity="0"/>
<stop offset="0.99"/>
</linearGradient>
<linearGradient id="paint6_linear" x1="1977.41" y1="1297.05" x2="2001.17" y2="1291.61" gradientUnits="userSpaceOnUse">
<stop stop-opacity="0"/>
<stop offset="0.99"/>
</linearGradient>
<linearGradient id="paint7_linear" x1="2159.06" y1="1927.38" x2="2244.31" y2="1927.38" gradientUnits="userSpaceOnUse">
<stop stop-color="#ECC4D7"/>
<stop offset="0.42" stop-color="#EFD4D1"/>
<stop offset="1" stop-color="#F2EAC9"/>
</linearGradient>
<linearGradient id="paint8_linear" x1="1534.88" y1="819.823" x2="1575.97" y2="748.561" gradientUnits="userSpaceOnUse">
<stop stop-color="#ECC4D7"/>
<stop offset="0.42" stop-color="#EFD4D1"/>
<stop offset="1" stop-color="#F2EAC9"/>
</linearGradient>
<linearGradient id="paint9_linear" x1="3237.79" y1="1994.53" x2="3009.41" y2="2148.28" gradientUnits="userSpaceOnUse">
<stop stop-color="#ECC4D7"/>
<stop offset="0.42" stop-color="#EFD4D1"/>
<stop offset="1" stop-color="#F2EAC9"/>
</linearGradient>
<linearGradient id="paint10_linear" x1="5856.93" y1="2413.88" x2="5920.76" y2="2701.98" gradientUnits="userSpaceOnUse">
<stop stop-opacity="0"/>
<stop offset="0.99"/>
</linearGradient>
<linearGradient id="paint11_linear" x1="3587.36" y1="4771.31" x2="3799.02" y2="4771.31" gradientUnits="userSpaceOnUse">
<stop stop-color="#ECC4D7"/>
<stop offset="0.42" stop-color="#EFD4D1"/>
<stop offset="1" stop-color="#F2EAC9"/>
</linearGradient>
<linearGradient id="paint12_linear" x1="3005.25" y1="1762.72" x2="3149.31" y2="1762.72" gradientUnits="userSpaceOnUse">
<stop stop-opacity="0"/>
<stop offset="0.99"/>
</linearGradient>
<linearGradient id="paint13_linear" x1="2606.59" y1="1751.14" x2="2750.98" y2="1751.14" gradientUnits="userSpaceOnUse">
<stop stop-opacity="0"/>
<stop offset="0.99"/>
</linearGradient>
<linearGradient id="paint14_linear" x1="1137.92" y1="296.239" x2="939.222" y2="509.024" gradientUnits="userSpaceOnUse">
<stop stop-opacity="0"/>
<stop offset="0.99"/>
</linearGradient>
<linearGradient id="paint15_linear" x1="1487.46" y1="560.648" x2="1496.08" y2="587.32" gradientUnits="userSpaceOnUse">
<stop stop-opacity="0"/>
<stop offset="0.99"/>
</linearGradient>
<linearGradient id="paint16_linear" x1="2633.86" y1="2308.97" x2="2519.82" y2="2261.75" gradientUnits="userSpaceOnUse">
<stop offset="0.02" stop-color="white" stop-opacity="0"/>
<stop offset="0.58" stop-color="white" stop-opacity="0.39"/>
<stop offset="0.68" stop-color="white" stop-opacity="0.68"/>
<stop offset="1" stop-color="white"/>
</linearGradient>
<linearGradient id="paint17_linear" x1="797.713" y1="2132.53" x2="861.321" y2="2132.53" gradientUnits="userSpaceOnUse">
<stop stop-color="#ECC4D7"/>
<stop offset="0.42" stop-color="#EFD4D1"/>
<stop offset="1" stop-color="#F2EAC9"/>
</linearGradient>
<linearGradient id="paint18_linear" x1="569.338" y1="2195.7" x2="636.559" y2="2195.7" gradientUnits="userSpaceOnUse">
<stop stop-color="#ECC4D7"/>
<stop offset="0.42" stop-color="#EFD4D1"/>
<stop offset="1" stop-color="#F2EAC9"/>
</linearGradient>
<linearGradient id="paint19_linear" x1="1578.7" y1="4221.69" x2="428.358" y2="4546.23" gradientUnits="userSpaceOnUse">
<stop stop-opacity="0"/>
<stop offset="0.99"/>
</linearGradient>
<linearGradient id="paint20_linear" x1="819.571" y1="1142.28" x2="932.444" y2="1142.28" gradientUnits="userSpaceOnUse">
<stop stop-color="#ECC4D7"/>
<stop offset="0.42" stop-color="#EFD4D1"/>
<stop offset="1" stop-color="#F2EAC9"/>
</linearGradient>
<linearGradient id="paint21_linear" x1="724.008" y1="1505.75" x2="814.27" y2="1505.75" gradientUnits="userSpaceOnUse">
<stop stop-color="#ECC4D7"/>
<stop offset="0.42" stop-color="#EFD4D1"/>
<stop offset="1" stop-color="#F2EAC9"/>
</linearGradient>
<linearGradient id="paint22_linear" x1="1213.29" y1="2409.3" x2="1489.02" y2="2409.3" gradientUnits="userSpaceOnUse">
<stop stop-color="#ECC4D7"/>
<stop offset="0.42" stop-color="#EFD4D1"/>
<stop offset="1" stop-color="#F2EAC9"/>
</linearGradient>
<linearGradient id="paint23_linear" x1="639.842" y1="2308.33" x2="675.017" y2="2308.33" gradientUnits="userSpaceOnUse">
<stop stop-color="#ECC4D7"/>
<stop offset="0.42" stop-color="#EFD4D1"/>
<stop offset="1" stop-color="#F2EAC9"/>
</linearGradient>
<linearGradient id="paint24_linear" x1="282.104" y1="2615.88" x2="204.382" y2="2614.22" gradientUnits="userSpaceOnUse">
<stop stop-opacity="0"/>
<stop offset="0.99"/>
</linearGradient>
<linearGradient id="paint25_linear" x1="1046.71" y1="2265.93" x2="1346.1" y2="2265.93" gradientUnits="userSpaceOnUse">
<stop stop-opacity="0"/>
<stop offset="0.99"/>
</linearGradient>
<linearGradient id="paint26_linear" x1="1660.56" y1="2213.44" x2="1959.69" y2="2213.44" gradientUnits="userSpaceOnUse">
<stop stop-opacity="0"/>
<stop offset="0.99"/>
</linearGradient>
</defs>
</svg>
