<svg width="20" height="20" viewBox="0 0 20 20" fill="none" xmlns="http://www.w3.org/2000/svg">
<path d="M7.10005 14.32L1.70005 19.71C1.5076 19.8725 1.26088 19.9565 1.00923 19.945C0.757567 19.9335 0.519508 19.8275 0.342642 19.6481C0.165775 19.4687 0.0631336 19.2292 0.0552368 18.9774C0.04734 18.7256 0.134769 18.4801 0.300047 18.29L5.68005 12.91C4.43148 11.3027 3.84245 9.27992 4.0329 7.25358C4.22336 5.22725 5.17897 3.34968 6.70517 2.00319C8.23137 0.656705 10.2134 -0.0574636 12.2477 0.00610398C14.2819 0.0696715 16.2155 0.906196 17.6547 2.34535C19.0938 3.7845 19.9303 5.71806 19.9939 7.75234C20.0575 9.78661 19.3433 11.7686 17.9968 13.2948C16.6503 14.821 14.7728 15.7766 12.7464 15.9671C10.7201 16.1576 8.69734 15.5685 7.09005 14.32H7.10005ZM6.00005 7.99995C6.00005 9.59125 6.63219 11.1174 7.75741 12.2426C8.88263 13.3678 10.4087 14 12 14C13.5913 14 15.1175 13.3678 16.2427 12.2426C17.3679 11.1174 18 9.59125 18 7.99995C18 6.40865 17.3679 4.88253 16.2427 3.75731C15.1175 2.63209 13.5913 1.99995 12 1.99995C10.4087 1.99995 8.88263 2.63209 7.75741 3.75731C6.63219 4.88253 6.00005 6.40865 6.00005 7.99995V7.99995Z" fill="white"/>
</svg>
