<svg width="20" height="20" viewBox="0 0 20 20" fill="none" xmlns="http://www.w3.org/2000/svg">
<path d="M7.04536 14.3178L1.64536 19.7078C1.45291 19.8703 1.2062 19.9543 0.954538 19.9428C0.70288 19.9313 0.464821 19.8253 0.287954 19.6459C0.111088 19.4665 0.00844609 19.227 0.000549316 18.9752C-0.00734746 18.7234 0.0800816 18.4779 0.245359 18.2878L5.62536 12.9078C4.37679 11.3005 3.78776 9.27772 3.97821 7.25139C4.16867 5.22505 5.12429 3.34749 6.65048 2.001C8.17668 0.654508 10.1587 -0.0596609 12.193 0.00390671C14.2273 0.0674743 16.1608 0.903998 17.6 2.34315C19.0391 3.7823 19.8756 5.71586 19.9392 7.75014C20.0028 9.78441 19.2886 11.7664 17.9421 13.2926C16.5956 14.8188 14.7181 15.7744 12.6917 15.9649C10.6654 16.1554 8.64265 15.5663 7.03536 14.3178H7.04536ZM5.94536 7.99775C5.94536 9.58905 6.5775 11.1152 7.70272 12.2404C8.82794 13.3656 10.3541 13.9978 11.9454 13.9978C13.5367 13.9978 15.0628 13.3656 16.188 12.2404C17.3132 11.1152 17.9454 9.58905 17.9454 7.99775C17.9454 6.40646 17.3132 4.88033 16.188 3.75511C15.0628 2.6299 13.5367 1.99775 11.9454 1.99775C10.3541 1.99775 8.82794 2.6299 7.70272 3.75511C6.5775 4.88033 5.94536 6.40646 5.94536 7.99775V7.99775Z" fill="#DDDDDD"/>
</svg>
