<?xml version="1.0" ?><svg viewBox="0 0 64 64" xmlns="http://www.w3.org/2000/svg"><title/><g data-name="Layer 10" id="Layer_10"><path d="M38,64H26a1,1,0,0,1-1-1V57a25.8,25.8,0,0,1-5.76-2.38L15,58.87a1,1,0,0,1-1.41,0L5.13,50.38a1,1,0,0,1,0-1.41l4.21-4.21A25.87,25.87,0,0,1,7,39H1a1,1,0,0,1-1-1V26a1,1,0,0,1,1-1H7a25.87,25.87,0,0,1,2.38-5.76L5.13,15a1,1,0,0,1,0-1.41l8.49-8.49a1,1,0,0,1,1.41,0l4.21,4.21A25.8,25.8,0,0,1,25,7V1a1,1,0,0,1,1-1H38a1,1,0,0,1,1,1V7a25.8,25.8,0,0,1,5.76,2.38L49,5.13a1,1,0,0,1,1.41,0l8.49,8.49a1,1,0,0,1,0,1.41l-4.21,4.21A25.87,25.87,0,0,1,57,25h6a1,1,0,0,1,1,1V38a1,1,0,0,1-1,1H57a25.87,25.87,0,0,1-2.38,5.76L58.87,49a1,1,0,0,1,0,1.41l-8.49,8.49a1,1,0,0,1-1.41,0l-4.21-4.21A25.8,25.8,0,0,1,39,57v6A1,1,0,0,1,38,64ZM27,62H37V56.27a1,1,0,0,1,.76-1,23.82,23.82,0,0,0,6.64-2.75,1,1,0,0,1,1.22.15l4.05,4.05,7.07-7.07L52.7,45.63a1,1,0,0,1-.15-1.22,23.84,23.84,0,0,0,2.75-6.64,1,1,0,0,1,1-.76H62V27H56.27a1,1,0,0,1-1-.76,23.84,23.84,0,0,0-2.75-6.64,1,1,0,0,1,.15-1.22l4.05-4.05L49.68,7.25,45.63,11.3a1,1,0,0,1-1.22.15A23.82,23.82,0,0,0,37.76,8.7a1,1,0,0,1-.76-1V2H27V7.73a1,1,0,0,1-.76,1,23.82,23.82,0,0,0-6.64,2.75,1,1,0,0,1-1.22-.15L14.32,7.25,7.25,14.32l4.05,4.05a1,1,0,0,1,.15,1.22A23.84,23.84,0,0,0,8.7,26.24a1,1,0,0,1-1,.76H2V37H7.73a1,1,0,0,1,1,.76,23.84,23.84,0,0,0,2.75,6.64,1,1,0,0,1-.15,1.22L7.25,49.68l7.07,7.07,4.05-4.05a1,1,0,0,1,1.22-.15,23.82,23.82,0,0,0,6.64,2.75,1,1,0,0,1,.76,1Z"/><path d="M32,45A13,13,0,1,1,45,32,13,13,0,0,1,32,45Zm0-24A11,11,0,1,0,43,32,11,11,0,0,0,32,21Z"/></g></svg>