<svg width="143" height="124" viewBox="0 0 143 124" fill="none" xmlns="http://www.w3.org/2000/svg">
<path d="M2.40358 42.5771L0.471069 40.1459L21.4183 23.4937L42.716 33.8836L72.2944 14.1634L105.231 34.236L138.523 1.95312L140.683 4.18208L105.668 38.1372L72.3685 17.8462L42.9543 37.4563L21.8188 27.1446L2.40358 42.5771Z" fill="#6b29f8"/>
<path d="M17.2609 114.805C16.788 115.277 16.4128 115.838 16.1569 116.456C15.9009 117.073 15.7692 117.735 15.7692 118.404C15.7692 119.072 15.9009 119.734 16.1569 120.352C16.4128 120.969 16.788 121.53 17.2609 122.003V122.003C17.7333 122.476 18.2943 122.851 18.9118 123.107C19.5293 123.363 20.1911 123.494 20.8596 123.494C21.528 123.494 22.1899 123.363 22.8074 123.107C23.4249 122.851 23.9858 122.476 24.4583 122.003L56.3117 91.47C57.2658 90.5154 57.8017 89.221 57.8017 87.8713C57.8017 86.5216 57.2658 85.2271 56.3117 84.2725C55.3571 83.3183 54.0626 82.7823 52.713 82.7823C51.3633 82.7823 50.0689 83.3183 49.1143 84.2725L17.2609 114.805Z" fill="#6b29f8"/>
<path d="M37.1667 63.2146C37.1664 70.1641 39.2267 76.9577 43.0873 82.7362C46.948 88.5147 52.4354 93.0186 58.8557 95.6783C65.276 98.3379 72.3407 99.0339 79.1566 97.6782C85.9724 96.3225 92.2332 92.9761 97.1471 88.062C102.061 83.1479 105.407 76.8869 106.763 70.0709C108.119 63.2549 107.423 56.1899 104.763 49.7694C102.104 43.3489 97.5999 37.8613 91.8215 34.0006C86.0432 30.1399 79.2498 28.0794 72.3004 28.0798C62.9824 28.0798 54.046 31.7815 47.4572 38.3706C40.8683 44.9596 37.1667 53.8962 37.1667 63.2146V63.2146ZM46.0443 63.2146C46.0439 58.0209 47.5836 52.9437 50.4688 48.6251C53.3539 44.3066 57.4548 40.9406 62.253 38.9529C67.0511 36.9651 72.3309 36.445 77.4247 37.4581C82.5184 38.4712 87.1974 40.9722 90.8698 44.6447C94.5422 48.3172 97.043 52.9963 98.0561 58.0902C99.0693 63.1841 98.5491 68.4641 96.5614 73.2623C94.5738 78.0606 91.2079 82.1617 86.8895 85.0469C82.571 87.9321 77.494 89.4719 72.3004 89.4715C65.3369 89.4715 58.6585 86.7051 53.7345 81.781C48.8106 76.8569 46.0443 70.1783 46.0443 63.2146V63.2146Z" fill="#6b29f8"/>
<path d="M140.742 20.1794L137.644 19.9651L138.757 3.83765L120.822 6.7295L120.327 3.66342L142.123 0.150757L140.742 20.1794Z" fill="#6b29f8"/>
<path d="M59.5257 67.9117H53.7443V75.9664H59.5257V67.9117Z" fill="#6b29f8"/>
<path d="M66.657 59.5566H60.8755V75.9664H66.657V59.5566Z" fill="#6b29f8"/>
<path d="M73.7882 65.9751H68.0067V75.9664H73.7882V65.9751Z" fill="#6b29f8"/>
<path d="M80.9175 54.3577H75.136V75.9664H80.9175V54.3577Z" fill="#6b29f8"/>
<path d="M66.657 59.5566H60.8755V75.9664H66.657V59.5566Z" fill="#6b29f8"/>
<path d="M80.9175 54.3577H75.136V75.9664H80.9175V54.3577Z" fill="#6b29f8"/>
<path d="M88.0489 48.3217H82.2673V75.9664H88.0489V48.3217Z" fill="#6b29f8"/>
<path d="M72.3026 20.8743C74.79 20.8743 76.8064 18.8578 76.8064 16.3703C76.8064 13.8828 74.79 11.8663 72.3026 11.8663C69.8152 11.8663 67.7987 13.8828 67.7987 16.3703C67.7987 18.8578 69.8152 20.8743 72.3026 20.8743Z" fill="#6b29f8"/>
<path d="M105.003 39.5051C107.49 39.5051 109.507 37.4885 109.507 35.0011C109.507 32.5136 107.49 30.4971 105.003 30.4971C102.516 30.4971 100.499 32.5136 100.499 35.0011C100.499 37.4885 102.516 39.5051 105.003 39.5051Z" fill="#6b29f8"/>
<path d="M21.4264 30.2048C23.9138 30.2048 25.9302 28.1882 25.9302 25.7008C25.9302 23.2133 23.9138 21.1968 21.4264 21.1968C18.9389 21.1968 16.9225 23.2133 16.9225 25.7008C16.9225 28.1882 18.9389 30.2048 21.4264 30.2048Z" fill="#6b29f8"/>
<path d="M42.7659 40.1459C45.2534 40.1459 47.2698 38.1294 47.2698 35.6419C47.2698 33.1544 45.2534 31.1379 42.7659 31.1379C40.2785 31.1379 38.2621 33.1544 38.2621 35.6419C38.2621 38.1294 40.2785 40.1459 42.7659 40.1459Z" fill="#6b29f8"/>
</svg>
